<?xml version="1.0" encoding="UTF-8" standalone="no"?>
<!-- Created with Inkscape (http://www.inkscape.org/) -->

<svg
   xmlns:dc="http://purl.org/dc/elements/1.1/"
   xmlns:cc="http://creativecommons.org/ns#"
   xmlns:rdf="http://www.w3.org/1999/02/22-rdf-syntax-ns#"
   xmlns:svg="http://www.w3.org/2000/svg"
   xmlns="http://www.w3.org/2000/svg"
   xmlns:sodipodi="http://sodipodi.sourceforge.net/DTD/sodipodi-0.dtd"
   xmlns:inkscape="http://www.inkscape.org/namespaces/inkscape"
   width="1062.9921"
   height="1062.9921"
   id="svg2"
   version="1.1"
   inkscape:version="0.48.4 r9939"
   sodipodi:docname="base.svg">
  <defs
     id="defs4" />
  <sodipodi:namedview
     id="base"
     pagecolor="#ffffff"
     bordercolor="#666666"
     borderopacity="1.0"
     inkscape:pageopacity="0.0"
     inkscape:pageshadow="2"
     inkscape:zoom="0.81280005"
     inkscape:cx="383.24309"
     inkscape:cy="531.49603"
     inkscape:document-units="mm"
     inkscape:current-layer="layer1"
     showgrid="false"
     units="mm"
     inkscape:object-nodes="true"
     inkscape:window-width="1920"
     inkscape:window-height="1018"
     inkscape:window-x="0"
     inkscape:window-y="27"
     inkscape:window-maximized="1"
     inkscape:snap-bbox="false"
     inkscape:snap-nodes="true"
     inkscape:snap-smooth-nodes="true"
     inkscape:object-paths="true">
    <inkscape:grid
       type="xygrid"
       id="grid2985"
       empspacing="5"
       visible="true"
       enabled="true"
       snapvisiblegridlinesonly="true"
       units="mm"
       spacingx="1mm"
       spacingy="1mm" />
  </sodipodi:namedview>
  <metadata
     id="metadata7">
    <rdf:RDF>
      <cc:Work
         rdf:about="">
        <dc:format>image/svg+xml</dc:format>
        <dc:type
           rdf:resource="http://purl.org/dc/dcmitype/StillImage" />
        <dc:title />
      </cc:Work>
    </rdf:RDF>
  </metadata>
  <g
     inkscape:label="Layer 1"
     inkscape:groupmode="layer"
     id="layer1"
     transform="translate(0,10.629965)"
     style="display:inline">
    <g
       inkscape:tile-y0="27.450764"
       inkscape:tile-x0="37.293288"
       style="stroke-width:0.70866144;stroke-miterlimit:4;stroke-dasharray:none;display:inline"
       transform="translate(23.182991,-529.7474)"
       id="use3032">
      <path
         style="fill:none;stroke:#0000ff;stroke-width:0.70866144;stroke-linecap:round;stroke-linejoin:miter;stroke-miterlimit:4;stroke-opacity:1;stroke-dasharray:none;stroke-dashoffset:0.21259842"
         d="m 41.8125,594.5625 0,29.625 11.34375,0 0,-18.28125 18.28125,0 0,-11.34375 -29.625,0 z m 59.25,0 0,11.34375 29.625,0 0,-11.34375 -29.625,0 z m 59.25,0 0,11.34375 29.59375,0 0,-11.34375 -29.59375,0 z m 59.21875,0 0,11.34375 29.625,0 0,-11.34375 -29.625,0 z m 59.25,0 0,11.34375 29.625,0 0,-11.34375 -29.625,0 z m 59.25,0 0,11.34375 29.625,0 0,-11.34375 -29.625,0 z m 59.25,0 0,11.34375 29.625,0 0,-11.34375 -29.625,0 z m 59.25,0 0,11.34375 18.28125,0 0,18.28125 11.34375,0 0,-29.625 -29.625,0 z m -414.71875,59.25 0,29.625 11.34375,0 0,-29.625 -11.34375,0 z m 433,0 0,29.625 11.34375,0 0,-29.625 -11.34375,0 z m -433,59.25 0,29.625 11.34375,0 0,-29.625 -11.34375,0 z m 433,0 0,29.625 11.34375,0 0,-29.625 -11.34375,0 z m -433,59.25 0,29.59375 11.34375,0 0,-29.59375 -11.34375,0 z m 433,0 0,29.59375 11.34375,0 0,-29.59375 -11.34375,0 z m -433,59.21875 0,29.625 11.34375,0 0,-29.625 -11.34375,0 z m 433,0 0,29.625 11.34375,0 0,-29.625 -11.34375,0 z m -433,59.25 0,29.625 11.34375,0 0,-29.625 -11.34375,0 z m 433,0 0,29.625 11.34375,0 0,-29.625 -11.34375,0 z m -433,59.25 0,29.625 11.34375,0 0,-29.625 -11.34375,0 z m 433,0 0,29.625 11.34375,0 0,-29.625 -11.34375,0 z m -433,59.24995 0,29.625 29.625,0 0,-11.3437 -18.28125,0 0,-18.2813 -11.34375,0 z m 433,0 0,18.2813 -18.28125,0 0,11.3437 29.625,0 0,-29.625 -11.34375,0 z m -373.75,18.2813 0,11.3437 29.625,0 0,-11.3437 -29.625,0 z m 59.25,0 0,11.3437 29.59375,0 0,-11.3437 -29.59375,0 z m 59.21875,0 0,11.3437 29.625,0 0,-11.3437 -29.625,0 z m 59.25,0 0,11.3437 29.625,0 0,-11.3437 -29.625,0 z m 59.25,0 0,11.3437 29.625,0 0,-11.3437 -29.625,0 z m 59.25,0 0,11.3437 29.625,0 0,-11.3437 -29.625,0 z"
         transform="translate(0,-10.629965)"
         id="path3042"
         inkscape:connector-curvature="0" />
      <path
         sodipodi:nodetypes="ccccccccc"
         inkscape:connector-curvature="0"
         id="path3044"
         d="m 42.519683,566.92902 442.913387,0 17.71654,17.71654 0,442.91334 -17.71654,17.7166 -442.913387,0 -17.716536,-17.7166 0,-442.91334 z"
         style="fill:none;stroke:#ff0000;stroke-width:0.70866144;stroke-linecap:round;stroke-linejoin:miter;stroke-miterlimit:4;stroke-opacity:1;stroke-dasharray:none;stroke-dashoffset:0.21259842" />
      <path
         transform="translate(-0.14075929,4.864483)"
         id="path3046"
         style="fill:none;stroke:#0000ff;stroke-width:0.70866144;stroke-linecap:round;stroke-linejoin:round;stroke-miterlimit:4;stroke-opacity:1;stroke-dasharray:none;display:inline"
         d="m 102.34908,806.46448 c 0,-2.61722 -2.19846,-4.71099 -4.815683,-4.71099 -2.61722,0 -4.71101,2.09377 -4.71101,4.71099 0,2.61722 2.09379,4.81569 4.71101,4.81569 2.617223,0 4.815683,-2.19847 4.815683,-4.81569 z"
         inkscape:connector-curvature="0"
         sodipodi:nodetypes="sssss" />
      <path
         transform="translate(-0.14075929,4.864483)"
         id="path3048"
         style="fill:none;stroke:#0000ff;stroke-width:0.70866144;stroke-linecap:round;stroke-linejoin:round;stroke-miterlimit:4;stroke-opacity:1;stroke-dasharray:none;display:inline"
         d="m 102.34908,632.89045 c 0,-2.61722 -2.19846,-4.711 -4.815683,-4.711 -2.61722,0 -4.71101,2.09378 -4.71101,4.711 0,2.61722 2.09379,4.81568 4.71101,4.81568 2.617223,0 4.815683,-2.19846 4.815683,-4.81568 z"
         inkscape:connector-curvature="0"
         sodipodi:nodetypes="sssss" />
      <path
         transform="translate(-0.14075929,4.864483)"
         id="path3050"
         style="fill:none;stroke:#0000ff;stroke-width:0.70866144;stroke-linecap:round;stroke-linejoin:round;stroke-miterlimit:4;stroke-opacity:1;stroke-dasharray:none;display:inline"
         d="m 307.85279,806.46448 c 0,-2.61722 -2.1985,-4.71099 -4.8157,-4.71099 -2.6172,0 -4.711,2.09377 -4.711,4.71099 0,2.61722 2.0938,4.81569 4.711,4.81569 2.6172,0 4.8157,-2.19847 4.8157,-4.81569 z"
         inkscape:connector-curvature="0"
         sodipodi:nodetypes="sssss" />
      <path
         transform="translate(-0.14075929,4.864483)"
         id="path3052"
         style="fill:none;stroke:#0000ff;stroke-width:0.70866144;stroke-linecap:round;stroke-linejoin:round;stroke-miterlimit:4;stroke-opacity:1;stroke-dasharray:none;display:inline"
         d="m 307.85279,632.89045 c 0,-2.61722 -2.1985,-4.711 -4.8157,-4.711 -2.6172,0 -4.711,2.09378 -4.711,4.711 0,2.61722 2.0938,4.81568 4.711,4.81568 2.6172,0 4.8157,-2.19846 4.8157,-4.81568 z"
         inkscape:connector-curvature="0"
         sodipodi:nodetypes="sssss" />
      <path
         transform="translate(-0.14075929,4.864483)"
         id="path3054"
         style="fill:none;stroke:#000000;stroke-width:0.70866144;stroke-linecap:round;stroke-linejoin:round;stroke-miterlimit:4;stroke-opacity:1;stroke-dasharray:none;display:inline"
         d="m 315.49509,626.45209 c 0,-2.98363 -4.8157,-7.69463 -10.5736,-7.69463 l -212.046753,0 c -2.98363,0 -7.69463,4.711 -7.69463,7.69463 0,0.20938 0,59.62027 0,59.62027 0,1.8844 1.57033,3.45473 2.56487,3.48088 0.10469,0 11.67282,0.0784 11.67282,0.0784 1.884403,0 3.454733,1.57033 3.454733,2.56487 0,0.10469 0,54.17646 0,54.17646 -0.10469,1.8844 -1.57033,3.35004 -3.454733,3.50708 l -11.72516,0.0523 c -1.04689,0 -2.51253,1.57033 -2.51253,2.56487 0,0.10469 0,55.85148 0,55.85148 0,5.75789 4.711,10.57357 7.69463,10.59972 0.20938,0 212.046753,0.0261 212.046753,0.0261 5.7579,-0.15703 10.4689,-4.86802 10.5212,-7.74688 z"
         inkscape:connector-curvature="0"
         sodipodi:nodetypes="ccccccccccccccccc" />
      <g
         style="stroke-width:0.70866144;stroke-miterlimit:4;stroke-dasharray:none"
         id="g3056"
         transform="translate(-333.07085,35.433054)">
        <path
           inkscape:connector-curvature="0"
           id="path3058"
           d="m 793.70077,733.46448 -124.01574,0 c -1.96299,0 -3.54331,1.58031 -3.54331,3.5433 l 0,216.14174 c 0,1.96299 1.58032,3.54331 3.54331,3.54331 l 124.01574,0 c 1.96299,0 3.54331,-1.58032 3.54331,-3.54331 l 0,-216.14174 c 0,-1.96299 -1.58032,-3.5433 -3.54331,-3.5433 z"
           style="fill:none;stroke:#000000;stroke-width:0.70866144;stroke-linecap:round;stroke-linejoin:miter;stroke-miterlimit:4;stroke-opacity:1;stroke-dasharray:none;stroke-dashoffset:0.21259842" />
        <path
           inkscape:connector-curvature="0"
           id="path3060"
           d="m 729.92125,740.55109 -42.51969,0 0,42.51969 42.51969,0 z"
           style="fill:none;stroke:#0000ff;stroke-width:0.70866144;stroke-linecap:round;stroke-linejoin:miter;stroke-miterlimit:4;stroke-opacity:1;stroke-dasharray:none;stroke-dashoffset:0.21259842" />
        <path
           inkscape:connector-curvature="0"
           id="path3062"
           d="m 758.26769,708.66131 c 0,0 3.54331,7.08661 -3.54331,24.80315 0,0 7.08662,-10.62992 -3.5433,-21.25984"
           style="fill:none;stroke:#000000;stroke-width:0.70866144;stroke-linecap:butt;stroke-linejoin:miter;stroke-miterlimit:4;stroke-opacity:1;stroke-dasharray:none" />
        <text
           sodipodi:linespacing="125%"
           id="text3064"
           y="705.11798"
           x="751.44281"
           style="font-size:56px;font-style:normal;font-variant:normal;font-weight:normal;font-stretch:normal;text-align:center;line-height:125%;letter-spacing:0px;word-spacing:0px;text-anchor:middle;fill:none;stroke:#00ff00;stroke-width:0.70866144;stroke-miterlimit:4;stroke-dasharray:none;font-family:Linux Libertine O;-inkscape-font-specification:Linux Libertine O"
           xml:space="preserve"><tspan
             style="font-size:10px;fill:none;stroke:#00ff00;stroke-width:0.70866144;stroke-miterlimit:4;stroke-dasharray:none"
             y="705.11798"
             x="751.44281"
             id="tspan3066"
             sodipodi:role="line">PWR/GND</tspan></text>
        <text
           sodipodi:linespacing="125%"
           id="text3068"
           y="838.94867"
           x="731.62915"
           style="font-size:56px;font-style:normal;font-variant:normal;font-weight:normal;font-stretch:normal;text-align:center;line-height:125%;letter-spacing:0px;word-spacing:0px;text-anchor:middle;fill:none;stroke:#00ff00;stroke-width:0.70866144;stroke-miterlimit:4;stroke-dasharray:none;font-family:Linux Libertine O;-inkscape-font-specification:Linux Libertine O"
           xml:space="preserve"><tspan
             style="font-size:20px;fill:none;stroke:#00ff00;stroke-width:0.70866144;stroke-miterlimit:4;stroke-dasharray:none"
             y="838.94867"
             x="731.62915"
             id="tspan3070"
             sodipodi:role="line">Battery</tspan><tspan
             style="font-size:20px;fill:none;stroke:#00ff00;stroke-width:0.70866144;stroke-miterlimit:4;stroke-dasharray:none"
             id="tspan3072"
             y="863.94867"
             x="731.62915"
             sodipodi:role="line">Holder</tspan></text>
      </g>
    </g>
    <g
       inkscape:tile-y0="27.450764"
       inkscape:tile-x0="37.293288"
       style="stroke-width:0.70866144;stroke-miterlimit:4;stroke-dasharray:none;display:inline"
       transform="matrix(0.99999848,0.00174533,-0.00174533,0.99999848,24.60886,-41.570637)"
       id="use3034">
      <path
         style="fill:none;stroke:#0000ff;stroke-width:0.70866144;stroke-linecap:round;stroke-linejoin:miter;stroke-miterlimit:4;stroke-opacity:1;stroke-dasharray:none;stroke-dashoffset:0.21259842"
         d="m 41.8125,594.5625 0,29.625 11.34375,0 0,-18.28125 18.28125,0 0,-11.34375 -29.625,0 z m 59.25,0 0,11.34375 29.625,0 0,-11.34375 -29.625,0 z m 59.25,0 0,11.34375 29.59375,0 0,-11.34375 -29.59375,0 z m 59.21875,0 0,11.34375 29.625,0 0,-11.34375 -29.625,0 z m 59.25,0 0,11.34375 29.625,0 0,-11.34375 -29.625,0 z m 59.25,0 0,11.34375 29.625,0 0,-11.34375 -29.625,0 z m 59.25,0 0,11.34375 29.625,0 0,-11.34375 -29.625,0 z m 59.25,0 0,11.34375 18.28125,0 0,18.28125 11.34375,0 0,-29.625 -29.625,0 z m -414.71875,59.25 0,29.625 11.34375,0 0,-29.625 -11.34375,0 z m 433,0 0,29.625 11.34375,0 0,-29.625 -11.34375,0 z m -433,59.25 0,29.625 11.34375,0 0,-29.625 -11.34375,0 z m 433,0 0,29.625 11.34375,0 0,-29.625 -11.34375,0 z m -433,59.25 0,29.59375 11.34375,0 0,-29.59375 -11.34375,0 z m 433,0 0,29.59375 11.34375,0 0,-29.59375 -11.34375,0 z m -433,59.21875 0,29.625 11.34375,0 0,-29.625 -11.34375,0 z m 433,0 0,29.625 11.34375,0 0,-29.625 -11.34375,0 z m -433,59.25 0,29.625 11.34375,0 0,-29.625 -11.34375,0 z m 433,0 0,29.625 11.34375,0 0,-29.625 -11.34375,0 z m -433,59.25 0,29.625 11.34375,0 0,-29.625 -11.34375,0 z m 433,0 0,29.625 11.34375,0 0,-29.625 -11.34375,0 z m -433,59.24995 0,29.625 29.625,0 0,-11.3437 -18.28125,0 0,-18.2813 -11.34375,0 z m 433,0 0,18.2813 -18.28125,0 0,11.3437 29.625,0 0,-29.625 -11.34375,0 z m -373.75,18.2813 0,11.3437 29.625,0 0,-11.3437 -29.625,0 z m 59.25,0 0,11.3437 29.59375,0 0,-11.3437 -29.59375,0 z m 59.21875,0 0,11.3437 29.625,0 0,-11.3437 -29.625,0 z m 59.25,0 0,11.3437 29.625,0 0,-11.3437 -29.625,0 z m 59.25,0 0,11.3437 29.625,0 0,-11.3437 -29.625,0 z m 59.25,0 0,11.3437 29.625,0 0,-11.3437 -29.625,0 z"
         transform="translate(0,-10.629965)"
         id="path3076"
         inkscape:connector-curvature="0" />
      <path
         sodipodi:nodetypes="ccccccccc"
         inkscape:connector-curvature="0"
         id="path3078"
         d="m 42.519683,566.92902 442.913387,0 17.71654,17.71654 0,442.91334 -17.71654,17.7166 -442.913387,0 -17.716536,-17.7166 0,-442.91334 z"
         style="fill:none;stroke:#ff0000;stroke-width:0.70866144;stroke-linecap:round;stroke-linejoin:miter;stroke-miterlimit:4;stroke-opacity:1;stroke-dasharray:none;stroke-dashoffset:0.21259842" />
      <path
         transform="translate(-0.14075929,4.864483)"
         id="path3080"
         style="fill:none;stroke:#0000ff;stroke-width:0.70866144;stroke-linecap:round;stroke-linejoin:round;stroke-miterlimit:4;stroke-opacity:1;stroke-dasharray:none;display:inline"
         d="m 102.34908,806.46448 c 0,-2.61722 -2.19846,-4.71099 -4.815683,-4.71099 -2.61722,0 -4.71101,2.09377 -4.71101,4.71099 0,2.61722 2.09379,4.81569 4.71101,4.81569 2.617223,0 4.815683,-2.19847 4.815683,-4.81569 z"
         inkscape:connector-curvature="0"
         sodipodi:nodetypes="sssss" />
      <path
         transform="translate(-0.14075929,4.864483)"
         id="path3082"
         style="fill:none;stroke:#0000ff;stroke-width:0.70866144;stroke-linecap:round;stroke-linejoin:round;stroke-miterlimit:4;stroke-opacity:1;stroke-dasharray:none;display:inline"
         d="m 102.34908,632.89045 c 0,-2.61722 -2.19846,-4.711 -4.815683,-4.711 -2.61722,0 -4.71101,2.09378 -4.71101,4.711 0,2.61722 2.09379,4.81568 4.71101,4.81568 2.617223,0 4.815683,-2.19846 4.815683,-4.81568 z"
         inkscape:connector-curvature="0"
         sodipodi:nodetypes="sssss" />
      <path
         transform="translate(-0.14075929,4.864483)"
         id="path3084"
         style="fill:none;stroke:#0000ff;stroke-width:0.70866144;stroke-linecap:round;stroke-linejoin:round;stroke-miterlimit:4;stroke-opacity:1;stroke-dasharray:none;display:inline"
         d="m 307.85279,806.46448 c 0,-2.61722 -2.1985,-4.71099 -4.8157,-4.71099 -2.6172,0 -4.711,2.09377 -4.711,4.71099 0,2.61722 2.0938,4.81569 4.711,4.81569 2.6172,0 4.8157,-2.19847 4.8157,-4.81569 z"
         inkscape:connector-curvature="0"
         sodipodi:nodetypes="sssss" />
      <path
         transform="translate(-0.14075929,4.864483)"
         id="path3086"
         style="fill:none;stroke:#0000ff;stroke-width:0.70866144;stroke-linecap:round;stroke-linejoin:round;stroke-miterlimit:4;stroke-opacity:1;stroke-dasharray:none;display:inline"
         d="m 307.85279,632.89045 c 0,-2.61722 -2.1985,-4.711 -4.8157,-4.711 -2.6172,0 -4.711,2.09378 -4.711,4.711 0,2.61722 2.0938,4.81568 4.711,4.81568 2.6172,0 4.8157,-2.19846 4.8157,-4.81568 z"
         inkscape:connector-curvature="0"
         sodipodi:nodetypes="sssss" />
      <path
         transform="translate(-0.14075929,4.864483)"
         id="path3088"
         style="fill:none;stroke:#000000;stroke-width:0.70866144;stroke-linecap:round;stroke-linejoin:round;stroke-miterlimit:4;stroke-opacity:1;stroke-dasharray:none;display:inline"
         d="m 315.49509,626.45209 c 0,-2.98363 -4.8157,-7.69463 -10.5736,-7.69463 l -212.046753,0 c -2.98363,0 -7.69463,4.711 -7.69463,7.69463 0,0.20938 0,59.62027 0,59.62027 0,1.8844 1.57033,3.45473 2.56487,3.48088 0.10469,0 11.67282,0.0784 11.67282,0.0784 1.884403,0 3.454733,1.57033 3.454733,2.56487 0,0.10469 0,54.17646 0,54.17646 -0.10469,1.8844 -1.57033,3.35004 -3.454733,3.50708 l -11.72516,0.0523 c -1.04689,0 -2.51253,1.57033 -2.51253,2.56487 0,0.10469 0,55.85148 0,55.85148 0,5.75789 4.711,10.57357 7.69463,10.59972 0.20938,0 212.046753,0.0261 212.046753,0.0261 5.7579,-0.15703 10.4689,-4.86802 10.5212,-7.74688 z"
         inkscape:connector-curvature="0"
         sodipodi:nodetypes="ccccccccccccccccc" />
      <g
         style="stroke-width:0.70866144;stroke-miterlimit:4;stroke-dasharray:none"
         id="g3090"
         transform="translate(-333.07085,35.433054)">
        <path
           inkscape:connector-curvature="0"
           id="path3092"
           d="m 793.70077,733.46448 -124.01574,0 c -1.96299,0 -3.54331,1.58031 -3.54331,3.5433 l 0,216.14174 c 0,1.96299 1.58032,3.54331 3.54331,3.54331 l 124.01574,0 c 1.96299,0 3.54331,-1.58032 3.54331,-3.54331 l 0,-216.14174 c 0,-1.96299 -1.58032,-3.5433 -3.54331,-3.5433 z"
           style="fill:none;stroke:#000000;stroke-width:0.70866144;stroke-linecap:round;stroke-linejoin:miter;stroke-miterlimit:4;stroke-opacity:1;stroke-dasharray:none;stroke-dashoffset:0.21259842" />
        <path
           inkscape:connector-curvature="0"
           id="path3094"
           d="m 729.92125,740.55109 -42.51969,0 0,42.51969 42.51969,0 z"
           style="fill:none;stroke:#0000ff;stroke-width:0.70866144;stroke-linecap:round;stroke-linejoin:miter;stroke-miterlimit:4;stroke-opacity:1;stroke-dasharray:none;stroke-dashoffset:0.21259842" />
        <path
           inkscape:connector-curvature="0"
           id="path3096"
           d="m 758.26769,708.66131 c 0,0 3.54331,7.08661 -3.54331,24.80315 0,0 7.08662,-10.62992 -3.5433,-21.25984"
           style="fill:none;stroke:#000000;stroke-width:0.70866144;stroke-linecap:butt;stroke-linejoin:miter;stroke-miterlimit:4;stroke-opacity:1;stroke-dasharray:none" />
        <text
           sodipodi:linespacing="125%"
           id="text3098"
           y="705.11798"
           x="751.44281"
           style="font-size:56px;font-style:normal;font-variant:normal;font-weight:normal;font-stretch:normal;text-align:center;line-height:125%;letter-spacing:0px;word-spacing:0px;text-anchor:middle;fill:none;stroke:#00ff00;stroke-width:0.70866144;stroke-miterlimit:4;stroke-dasharray:none;font-family:Linux Libertine O;-inkscape-font-specification:Linux Libertine O"
           xml:space="preserve"><tspan
             style="font-size:10px;fill:none;stroke:#00ff00;stroke-width:0.70866144;stroke-miterlimit:4;stroke-dasharray:none"
             y="705.11798"
             x="751.44281"
             id="tspan3100"
             sodipodi:role="line">PWR/GND</tspan></text>
        <text
           sodipodi:linespacing="125%"
           id="text3102"
           y="838.94867"
           x="731.62915"
           style="font-size:56px;font-style:normal;font-variant:normal;font-weight:normal;font-stretch:normal;text-align:center;line-height:125%;letter-spacing:0px;word-spacing:0px;text-anchor:middle;fill:none;stroke:#00ff00;stroke-width:0.70866144;stroke-miterlimit:4;stroke-dasharray:none;font-family:Linux Libertine O;-inkscape-font-specification:Linux Libertine O"
           xml:space="preserve"><tspan
             style="font-size:20px;fill:none;stroke:#00ff00;stroke-width:0.70866144;stroke-miterlimit:4;stroke-dasharray:none"
             y="838.94867"
             x="731.62915"
             id="tspan3104"
             sodipodi:role="line">Battery</tspan><tspan
             style="font-size:20px;fill:none;stroke:#00ff00;stroke-width:0.70866144;stroke-miterlimit:4;stroke-dasharray:none"
             id="tspan3106"
             y="863.94867"
             x="731.62915"
             sodipodi:role="line">Holder</tspan></text>
      </g>
    </g>
    <g
       inkscape:tile-y0="27.450764"
       inkscape:tile-x0="37.293288"
       style="stroke-width:0.70866144;stroke-miterlimit:4;stroke-dasharray:none;display:inline"
       transform="translate(511.81922,-529.7474)"
       id="use3036">
      <path
         style="fill:none;stroke:#0000ff;stroke-width:0.70866144;stroke-linecap:round;stroke-linejoin:miter;stroke-miterlimit:4;stroke-opacity:1;stroke-dasharray:none;stroke-dashoffset:0.21259842"
         d="m 41.8125,594.5625 0,29.625 11.34375,0 0,-18.28125 18.28125,0 0,-11.34375 -29.625,0 z m 59.25,0 0,11.34375 29.625,0 0,-11.34375 -29.625,0 z m 59.25,0 0,11.34375 29.59375,0 0,-11.34375 -29.59375,0 z m 59.21875,0 0,11.34375 29.625,0 0,-11.34375 -29.625,0 z m 59.25,0 0,11.34375 29.625,0 0,-11.34375 -29.625,0 z m 59.25,0 0,11.34375 29.625,0 0,-11.34375 -29.625,0 z m 59.25,0 0,11.34375 29.625,0 0,-11.34375 -29.625,0 z m 59.25,0 0,11.34375 18.28125,0 0,18.28125 11.34375,0 0,-29.625 -29.625,0 z m -414.71875,59.25 0,29.625 11.34375,0 0,-29.625 -11.34375,0 z m 433,0 0,29.625 11.34375,0 0,-29.625 -11.34375,0 z m -433,59.25 0,29.625 11.34375,0 0,-29.625 -11.34375,0 z m 433,0 0,29.625 11.34375,0 0,-29.625 -11.34375,0 z m -433,59.25 0,29.59375 11.34375,0 0,-29.59375 -11.34375,0 z m 433,0 0,29.59375 11.34375,0 0,-29.59375 -11.34375,0 z m -433,59.21875 0,29.625 11.34375,0 0,-29.625 -11.34375,0 z m 433,0 0,29.625 11.34375,0 0,-29.625 -11.34375,0 z m -433,59.25 0,29.625 11.34375,0 0,-29.625 -11.34375,0 z m 433,0 0,29.625 11.34375,0 0,-29.625 -11.34375,0 z m -433,59.25 0,29.625 11.34375,0 0,-29.625 -11.34375,0 z m 433,0 0,29.625 11.34375,0 0,-29.625 -11.34375,0 z m -433,59.24995 0,29.625 29.625,0 0,-11.3437 -18.28125,0 0,-18.2813 -11.34375,0 z m 433,0 0,18.2813 -18.28125,0 0,11.3437 29.625,0 0,-29.625 -11.34375,0 z m -373.75,18.2813 0,11.3437 29.625,0 0,-11.3437 -29.625,0 z m 59.25,0 0,11.3437 29.59375,0 0,-11.3437 -29.59375,0 z m 59.21875,0 0,11.3437 29.625,0 0,-11.3437 -29.625,0 z m 59.25,0 0,11.3437 29.625,0 0,-11.3437 -29.625,0 z m 59.25,0 0,11.3437 29.625,0 0,-11.3437 -29.625,0 z m 59.25,0 0,11.3437 29.625,0 0,-11.3437 -29.625,0 z"
         transform="translate(0,-10.629965)"
         id="path3110"
         inkscape:connector-curvature="0" />
      <path
         sodipodi:nodetypes="ccccccccc"
         inkscape:connector-curvature="0"
         id="path3112"
         d="m 42.519683,566.92902 442.913387,0 17.71654,17.71654 0,442.91334 -17.71654,17.7166 -442.913387,0 -17.716536,-17.7166 0,-442.91334 z"
         style="fill:none;stroke:#ff0000;stroke-width:0.70866144;stroke-linecap:round;stroke-linejoin:miter;stroke-miterlimit:4;stroke-opacity:1;stroke-dasharray:none;stroke-dashoffset:0.21259842" />
      <path
         transform="translate(-0.14075929,4.864483)"
         id="path3114"
         style="fill:none;stroke:#0000ff;stroke-width:0.70866144;stroke-linecap:round;stroke-linejoin:round;stroke-miterlimit:4;stroke-opacity:1;stroke-dasharray:none;display:inline"
         d="m 102.34908,806.46448 c 0,-2.61722 -2.19846,-4.71099 -4.815683,-4.71099 -2.61722,0 -4.71101,2.09377 -4.71101,4.71099 0,2.61722 2.09379,4.81569 4.71101,4.81569 2.617223,0 4.815683,-2.19847 4.815683,-4.81569 z"
         inkscape:connector-curvature="0"
         sodipodi:nodetypes="sssss" />
      <path
         transform="translate(-0.14075929,4.864483)"
         id="path3116"
         style="fill:none;stroke:#0000ff;stroke-width:0.70866144;stroke-linecap:round;stroke-linejoin:round;stroke-miterlimit:4;stroke-opacity:1;stroke-dasharray:none;display:inline"
         d="m 102.34908,632.89045 c 0,-2.61722 -2.19846,-4.711 -4.815683,-4.711 -2.61722,0 -4.71101,2.09378 -4.71101,4.711 0,2.61722 2.09379,4.81568 4.71101,4.81568 2.617223,0 4.815683,-2.19846 4.815683,-4.81568 z"
         inkscape:connector-curvature="0"
         sodipodi:nodetypes="sssss" />
      <path
         transform="translate(-0.14075929,4.864483)"
         id="path3118"
         style="fill:none;stroke:#0000ff;stroke-width:0.70866144;stroke-linecap:round;stroke-linejoin:round;stroke-miterlimit:4;stroke-opacity:1;stroke-dasharray:none;display:inline"
         d="m 307.85279,806.46448 c 0,-2.61722 -2.1985,-4.71099 -4.8157,-4.71099 -2.6172,0 -4.711,2.09377 -4.711,4.71099 0,2.61722 2.0938,4.81569 4.711,4.81569 2.6172,0 4.8157,-2.19847 4.8157,-4.81569 z"
         inkscape:connector-curvature="0"
         sodipodi:nodetypes="sssss" />
      <path
         transform="translate(-0.14075929,4.864483)"
         id="path3120"
         style="fill:none;stroke:#0000ff;stroke-width:0.70866144;stroke-linecap:round;stroke-linejoin:round;stroke-miterlimit:4;stroke-opacity:1;stroke-dasharray:none;display:inline"
         d="m 307.85279,632.89045 c 0,-2.61722 -2.1985,-4.711 -4.8157,-4.711 -2.6172,0 -4.711,2.09378 -4.711,4.711 0,2.61722 2.0938,4.81568 4.711,4.81568 2.6172,0 4.8157,-2.19846 4.8157,-4.81568 z"
         inkscape:connector-curvature="0"
         sodipodi:nodetypes="sssss" />
      <path
         transform="translate(-0.14075929,4.864483)"
         id="path3122"
         style="fill:none;stroke:#000000;stroke-width:0.70866144;stroke-linecap:round;stroke-linejoin:round;stroke-miterlimit:4;stroke-opacity:1;stroke-dasharray:none;display:inline"
         d="m 315.49509,626.45209 c 0,-2.98363 -4.8157,-7.69463 -10.5736,-7.69463 l -212.046753,0 c -2.98363,0 -7.69463,4.711 -7.69463,7.69463 0,0.20938 0,59.62027 0,59.62027 0,1.8844 1.57033,3.45473 2.56487,3.48088 0.10469,0 11.67282,0.0784 11.67282,0.0784 1.884403,0 3.454733,1.57033 3.454733,2.56487 0,0.10469 0,54.17646 0,54.17646 -0.10469,1.8844 -1.57033,3.35004 -3.454733,3.50708 l -11.72516,0.0523 c -1.04689,0 -2.51253,1.57033 -2.51253,2.56487 0,0.10469 0,55.85148 0,55.85148 0,5.75789 4.711,10.57357 7.69463,10.59972 0.20938,0 212.046753,0.0261 212.046753,0.0261 5.7579,-0.15703 10.4689,-4.86802 10.5212,-7.74688 z"
         inkscape:connector-curvature="0"
         sodipodi:nodetypes="ccccccccccccccccc" />
      <g
         style="stroke-width:0.70866144;stroke-miterlimit:4;stroke-dasharray:none"
         id="g3124"
         transform="translate(-333.07085,35.433054)">
        <path
           inkscape:connector-curvature="0"
           id="path3126"
           d="m 793.70077,733.46448 -124.01574,0 c -1.96299,0 -3.54331,1.58031 -3.54331,3.5433 l 0,216.14174 c 0,1.96299 1.58032,3.54331 3.54331,3.54331 l 124.01574,0 c 1.96299,0 3.54331,-1.58032 3.54331,-3.54331 l 0,-216.14174 c 0,-1.96299 -1.58032,-3.5433 -3.54331,-3.5433 z"
           style="fill:none;stroke:#000000;stroke-width:0.70866144;stroke-linecap:round;stroke-linejoin:miter;stroke-miterlimit:4;stroke-opacity:1;stroke-dasharray:none;stroke-dashoffset:0.21259842" />
        <path
           inkscape:connector-curvature="0"
           id="path3128"
           d="m 729.92125,740.55109 -42.51969,0 0,42.51969 42.51969,0 z"
           style="fill:none;stroke:#0000ff;stroke-width:0.70866144;stroke-linecap:round;stroke-linejoin:miter;stroke-miterlimit:4;stroke-opacity:1;stroke-dasharray:none;stroke-dashoffset:0.21259842" />
        <path
           inkscape:connector-curvature="0"
           id="path3130"
           d="m 758.26769,708.66131 c 0,0 3.54331,7.08661 -3.54331,24.80315 0,0 7.08662,-10.62992 -3.5433,-21.25984"
           style="fill:none;stroke:#000000;stroke-width:0.70866144;stroke-linecap:butt;stroke-linejoin:miter;stroke-miterlimit:4;stroke-opacity:1;stroke-dasharray:none" />
        <text
           sodipodi:linespacing="125%"
           id="text3132"
           y="705.11798"
           x="751.44281"
           style="font-size:56px;font-style:normal;font-variant:normal;font-weight:normal;font-stretch:normal;text-align:center;line-height:125%;letter-spacing:0px;word-spacing:0px;text-anchor:middle;fill:none;stroke:#00ff00;stroke-width:0.70866144;stroke-miterlimit:4;stroke-dasharray:none;font-family:Linux Libertine O;-inkscape-font-specification:Linux Libertine O"
           xml:space="preserve"><tspan
             style="font-size:10px;fill:none;stroke:#00ff00;stroke-width:0.70866144;stroke-miterlimit:4;stroke-dasharray:none"
             y="705.11798"
             x="751.44281"
             id="tspan3134"
             sodipodi:role="line">PWR/GND</tspan></text>
        <text
           sodipodi:linespacing="125%"
           id="text3136"
           y="838.94867"
           x="731.62915"
           style="font-size:56px;font-style:normal;font-variant:normal;font-weight:normal;font-stretch:normal;text-align:center;line-height:125%;letter-spacing:0px;word-spacing:0px;text-anchor:middle;fill:none;stroke:#00ff00;stroke-width:0.70866144;stroke-miterlimit:4;stroke-dasharray:none;font-family:Linux Libertine O;-inkscape-font-specification:Linux Libertine O"
           xml:space="preserve"><tspan
             style="font-size:20px;fill:none;stroke:#00ff00;stroke-width:0.70866144;stroke-miterlimit:4;stroke-dasharray:none"
             y="838.94867"
             x="731.62915"
             id="tspan3138"
             sodipodi:role="line">Battery</tspan><tspan
             style="font-size:20px;fill:none;stroke:#00ff00;stroke-width:0.70866144;stroke-miterlimit:4;stroke-dasharray:none"
             id="tspan3140"
             y="863.94867"
             x="731.62915"
             sodipodi:role="line">Holder</tspan></text>
      </g>
    </g>
    <g
       inkscape:tile-y0="27.450764"
       inkscape:tile-x0="37.293288"
       style="stroke-width:0.70866144;stroke-miterlimit:4;stroke-dasharray:none;display:inline"
       transform="matrix(0.99999848,0.00174533,-0.00174533,0.99999848,513.24508,-41.570637)"
       id="use3038">
      <path
         style="fill:none;stroke:#0000ff;stroke-width:0.70866144;stroke-linecap:round;stroke-linejoin:miter;stroke-miterlimit:4;stroke-opacity:1;stroke-dasharray:none;stroke-dashoffset:0.21259842"
         d="m 41.8125,594.5625 0,29.625 11.34375,0 0,-18.28125 18.28125,0 0,-11.34375 -29.625,0 z m 59.25,0 0,11.34375 29.625,0 0,-11.34375 -29.625,0 z m 59.25,0 0,11.34375 29.59375,0 0,-11.34375 -29.59375,0 z m 59.21875,0 0,11.34375 29.625,0 0,-11.34375 -29.625,0 z m 59.25,0 0,11.34375 29.625,0 0,-11.34375 -29.625,0 z m 59.25,0 0,11.34375 29.625,0 0,-11.34375 -29.625,0 z m 59.25,0 0,11.34375 29.625,0 0,-11.34375 -29.625,0 z m 59.25,0 0,11.34375 18.28125,0 0,18.28125 11.34375,0 0,-29.625 -29.625,0 z m -414.71875,59.25 0,29.625 11.34375,0 0,-29.625 -11.34375,0 z m 433,0 0,29.625 11.34375,0 0,-29.625 -11.34375,0 z m -433,59.25 0,29.625 11.34375,0 0,-29.625 -11.34375,0 z m 433,0 0,29.625 11.34375,0 0,-29.625 -11.34375,0 z m -433,59.25 0,29.59375 11.34375,0 0,-29.59375 -11.34375,0 z m 433,0 0,29.59375 11.34375,0 0,-29.59375 -11.34375,0 z m -433,59.21875 0,29.625 11.34375,0 0,-29.625 -11.34375,0 z m 433,0 0,29.625 11.34375,0 0,-29.625 -11.34375,0 z m -433,59.25 0,29.625 11.34375,0 0,-29.625 -11.34375,0 z m 433,0 0,29.625 11.34375,0 0,-29.625 -11.34375,0 z m -433,59.25 0,29.625 11.34375,0 0,-29.625 -11.34375,0 z m 433,0 0,29.625 11.34375,0 0,-29.625 -11.34375,0 z m -433,59.24995 0,29.625 29.625,0 0,-11.3437 -18.28125,0 0,-18.2813 -11.34375,0 z m 433,0 0,18.2813 -18.28125,0 0,11.3437 29.625,0 0,-29.625 -11.34375,0 z m -373.75,18.2813 0,11.3437 29.625,0 0,-11.3437 -29.625,0 z m 59.25,0 0,11.3437 29.59375,0 0,-11.3437 -29.59375,0 z m 59.21875,0 0,11.3437 29.625,0 0,-11.3437 -29.625,0 z m 59.25,0 0,11.3437 29.625,0 0,-11.3437 -29.625,0 z m 59.25,0 0,11.3437 29.625,0 0,-11.3437 -29.625,0 z m 59.25,0 0,11.3437 29.625,0 0,-11.3437 -29.625,0 z"
         transform="translate(0,-10.629965)"
         id="path3144"
         inkscape:connector-curvature="0" />
      <path
         sodipodi:nodetypes="ccccccccc"
         inkscape:connector-curvature="0"
         id="path3146"
         d="m 42.519683,566.92902 442.913387,0 17.71654,17.71654 0,442.91334 -17.71654,17.7166 -442.913387,0 -17.716536,-17.7166 0,-442.91334 z"
         style="fill:none;stroke:#ff0000;stroke-width:0.70866144;stroke-linecap:round;stroke-linejoin:miter;stroke-miterlimit:4;stroke-opacity:1;stroke-dasharray:none;stroke-dashoffset:0.21259842" />
      <path
         transform="translate(-0.14075929,4.864483)"
         id="path3148"
         style="fill:none;stroke:#0000ff;stroke-width:0.70866144;stroke-linecap:round;stroke-linejoin:round;stroke-miterlimit:4;stroke-opacity:1;stroke-dasharray:none;display:inline"
         d="m 102.34908,806.46448 c 0,-2.61722 -2.19846,-4.71099 -4.815683,-4.71099 -2.61722,0 -4.71101,2.09377 -4.71101,4.71099 0,2.61722 2.09379,4.81569 4.71101,4.81569 2.617223,0 4.815683,-2.19847 4.815683,-4.81569 z"
         inkscape:connector-curvature="0"
         sodipodi:nodetypes="sssss" />
      <path
         transform="translate(-0.14075929,4.864483)"
         id="path3150"
         style="fill:none;stroke:#0000ff;stroke-width:0.70866144;stroke-linecap:round;stroke-linejoin:round;stroke-miterlimit:4;stroke-opacity:1;stroke-dasharray:none;display:inline"
         d="m 102.34908,632.89045 c 0,-2.61722 -2.19846,-4.711 -4.815683,-4.711 -2.61722,0 -4.71101,2.09378 -4.71101,4.711 0,2.61722 2.09379,4.81568 4.71101,4.81568 2.617223,0 4.815683,-2.19846 4.815683,-4.81568 z"
         inkscape:connector-curvature="0"
         sodipodi:nodetypes="sssss" />
      <path
         transform="translate(-0.14075929,4.864483)"
         id="path3152"
         style="fill:none;stroke:#0000ff;stroke-width:0.70866144;stroke-linecap:round;stroke-linejoin:round;stroke-miterlimit:4;stroke-opacity:1;stroke-dasharray:none;display:inline"
         d="m 307.85279,806.46448 c 0,-2.61722 -2.1985,-4.71099 -4.8157,-4.71099 -2.6172,0 -4.711,2.09377 -4.711,4.71099 0,2.61722 2.0938,4.81569 4.711,4.81569 2.6172,0 4.8157,-2.19847 4.8157,-4.81569 z"
         inkscape:connector-curvature="0"
         sodipodi:nodetypes="sssss" />
      <path
         transform="translate(-0.14075929,4.864483)"
         id="path3154"
         style="fill:none;stroke:#0000ff;stroke-width:0.70866144;stroke-linecap:round;stroke-linejoin:round;stroke-miterlimit:4;stroke-opacity:1;stroke-dasharray:none;display:inline"
         d="m 307.85279,632.89045 c 0,-2.61722 -2.1985,-4.711 -4.8157,-4.711 -2.6172,0 -4.711,2.09378 -4.711,4.711 0,2.61722 2.0938,4.81568 4.711,4.81568 2.6172,0 4.8157,-2.19846 4.8157,-4.81568 z"
         inkscape:connector-curvature="0"
         sodipodi:nodetypes="sssss" />
      <path
         transform="translate(-0.14075929,4.864483)"
         id="path3156"
         style="fill:none;stroke:#000000;stroke-width:0.70866144;stroke-linecap:round;stroke-linejoin:round;stroke-miterlimit:4;stroke-opacity:1;stroke-dasharray:none;display:inline"
         d="m 315.49509,626.45209 c 0,-2.98363 -4.8157,-7.69463 -10.5736,-7.69463 l -212.046753,0 c -2.98363,0 -7.69463,4.711 -7.69463,7.69463 0,0.20938 0,59.62027 0,59.62027 0,1.8844 1.57033,3.45473 2.56487,3.48088 0.10469,0 11.67282,0.0784 11.67282,0.0784 1.884403,0 3.454733,1.57033 3.454733,2.56487 0,0.10469 0,54.17646 0,54.17646 -0.10469,1.8844 -1.57033,3.35004 -3.454733,3.50708 l -11.72516,0.0523 c -1.04689,0 -2.51253,1.57033 -2.51253,2.56487 0,0.10469 0,55.85148 0,55.85148 0,5.75789 4.711,10.57357 7.69463,10.59972 0.20938,0 212.046753,0.0261 212.046753,0.0261 5.7579,-0.15703 10.4689,-4.86802 10.5212,-7.74688 z"
         inkscape:connector-curvature="0"
         sodipodi:nodetypes="ccccccccccccccccc" />
      <g
         style="stroke-width:0.70866144;stroke-miterlimit:4;stroke-dasharray:none"
         id="g3158"
         transform="translate(-333.07085,35.433054)">
        <path
           inkscape:connector-curvature="0"
           id="path3160"
           d="m 793.70077,733.46448 -124.01574,0 c -1.96299,0 -3.54331,1.58031 -3.54331,3.5433 l 0,216.14174 c 0,1.96299 1.58032,3.54331 3.54331,3.54331 l 124.01574,0 c 1.96299,0 3.54331,-1.58032 3.54331,-3.54331 l 0,-216.14174 c 0,-1.96299 -1.58032,-3.5433 -3.54331,-3.5433 z"
           style="fill:none;stroke:#000000;stroke-width:0.70866144;stroke-linecap:round;stroke-linejoin:miter;stroke-miterlimit:4;stroke-opacity:1;stroke-dasharray:none;stroke-dashoffset:0.21259842" />
        <path
           inkscape:connector-curvature="0"
           id="path3162"
           d="m 729.92125,740.55109 -42.51969,0 0,42.51969 42.51969,0 z"
           style="fill:none;stroke:#0000ff;stroke-width:0.70866144;stroke-linecap:round;stroke-linejoin:miter;stroke-miterlimit:4;stroke-opacity:1;stroke-dasharray:none;stroke-dashoffset:0.21259842" />
        <path
           inkscape:connector-curvature="0"
           id="path3164"
           d="m 758.26769,708.66131 c 0,0 3.54331,7.08661 -3.54331,24.80315 0,0 7.08662,-10.62992 -3.5433,-21.25984"
           style="fill:none;stroke:#000000;stroke-width:0.70866144;stroke-linecap:butt;stroke-linejoin:miter;stroke-miterlimit:4;stroke-opacity:1;stroke-dasharray:none" />
        <text
           sodipodi:linespacing="125%"
           id="text3166"
           y="705.11798"
           x="751.44281"
           style="font-size:56px;font-style:normal;font-variant:normal;font-weight:normal;font-stretch:normal;text-align:center;line-height:125%;letter-spacing:0px;word-spacing:0px;text-anchor:middle;fill:none;stroke:#00ff00;stroke-width:0.70866144;stroke-miterlimit:4;stroke-dasharray:none;font-family:Linux Libertine O;-inkscape-font-specification:Linux Libertine O"
           xml:space="preserve"><tspan
             style="font-size:10px;fill:none;stroke:#00ff00;stroke-width:0.70866144;stroke-miterlimit:4;stroke-dasharray:none"
             y="705.11798"
             x="751.44281"
             id="tspan3168"
             sodipodi:role="line">PWR/GND</tspan></text>
        <text
           sodipodi:linespacing="125%"
           id="text3170"
           y="838.94867"
           x="731.62915"
           style="font-size:56px;font-style:normal;font-variant:normal;font-weight:normal;font-stretch:normal;text-align:center;line-height:125%;letter-spacing:0px;word-spacing:0px;text-anchor:middle;fill:none;stroke:#00ff00;stroke-width:0.70866144;stroke-miterlimit:4;stroke-dasharray:none;font-family:Linux Libertine O;-inkscape-font-specification:Linux Libertine O"
           xml:space="preserve"><tspan
             style="font-size:20px;fill:none;stroke:#00ff00;stroke-width:0.70866144;stroke-miterlimit:4;stroke-dasharray:none"
             y="838.94867"
             x="731.62915"
             id="tspan3172"
             sodipodi:role="line">Battery</tspan><tspan
             style="font-size:20px;fill:none;stroke:#00ff00;stroke-width:0.70866144;stroke-miterlimit:4;stroke-dasharray:none"
             id="tspan3174"
             y="863.94867"
             x="731.62915"
             sodipodi:role="line">Holder</tspan></text>
      </g>
    </g>
  </g>
  <g
     inkscape:groupmode="layer"
     id="layer2"
     inkscape:label="Layer"
     style="display:inline">
    <g
       id="g18711" />
  </g>
</svg>
