<?xml version="1.0" encoding="UTF-8" standalone="no"?>
<!-- Created with Inkscape (http://www.inkscape.org/) -->

<svg
   xmlns:dc="http://purl.org/dc/elements/1.1/"
   xmlns:cc="http://creativecommons.org/ns#"
   xmlns:rdf="http://www.w3.org/1999/02/22-rdf-syntax-ns#"
   xmlns:svg="http://www.w3.org/2000/svg"
   xmlns="http://www.w3.org/2000/svg"
   xmlns:sodipodi="http://sodipodi.sourceforge.net/DTD/sodipodi-0.dtd"
   xmlns:inkscape="http://www.inkscape.org/namespaces/inkscape"
   width="1062.9921"
   height="1062.9921"
   id="svg2"
   version="1.1"
   inkscape:version="0.48.4 r9939"
   sodipodi:docname="front-back_side.svg">
  <defs
     id="defs4" />
  <sodipodi:namedview
     id="base"
     pagecolor="#ffffff"
     bordercolor="#666666"
     borderopacity="1.0"
     inkscape:pageopacity="0.0"
     inkscape:pageshadow="2"
     inkscape:zoom="0.81280005"
     inkscape:cx="383.24309"
     inkscape:cy="531.49603"
     inkscape:document-units="mm"
     inkscape:current-layer="layer1"
     showgrid="false"
     units="mm"
     inkscape:object-nodes="true"
     inkscape:window-width="1920"
     inkscape:window-height="1018"
     inkscape:window-x="0"
     inkscape:window-y="27"
     inkscape:window-maximized="1"
     inkscape:snap-bbox="false"
     inkscape:snap-nodes="true"
     inkscape:snap-smooth-nodes="true"
     inkscape:object-paths="true">
    <inkscape:grid
       type="xygrid"
       id="grid2985"
       empspacing="5"
       visible="true"
       enabled="true"
       snapvisiblegridlinesonly="true"
       units="mm"
       spacingx="1mm"
       spacingy="1mm" />
  </sodipodi:namedview>
  <metadata
     id="metadata7">
    <rdf:RDF>
      <cc:Work
         rdf:about="">
        <dc:format>image/svg+xml</dc:format>
        <dc:type
           rdf:resource="http://purl.org/dc/dcmitype/StillImage" />
        <dc:title />
      </cc:Work>
    </rdf:RDF>
  </metadata>
  <g
     inkscape:label="Layer 1"
     inkscape:groupmode="layer"
     id="layer1"
     transform="translate(0,10.629965)"
     style="display:inline">
    <g
       inkscape:tile-y0="31.795005"
       inkscape:tile-x0="46.130249"
       style="stroke-width:0.70866144;stroke-miterlimit:4;stroke-dasharray:none;display:inline"
       transform="translate(-487.63532,48.342986)"
       id="use3058">
      <path
         id="path3068"
         d="m 674.09375,6.370035 c -2.25206,1.389112 -3.5625,7.09375 -3.5625,7.09375 l 7.09375,0 0,106.312505 -0.34375,-94.968755 -29.28125,0 0,-11.34375 -29.625,0 0,11.34375 -29.625,0 0,-11.34375 -29.625,0 0,11.34375 -10.625,0 0,421.656245 10.625,0 0,11.34375 7.8125,9.90625 14.15625,0 7.65625,-9.90625 0,-11.34375 29.625,0 0,11.34375 29.625,0 0,-11.34375 29.28125,0 0.34375,-94.96875 0,106.3125 -7.09375,0 c 0,0 1.31713,5.68026 3.5625,7.0625 2.00476,1.23412 5.05774,1.23412 7.0625,0 2.24537,-1.38224 3.5625,-7.0625 3.5625,-7.0625 l 7.0625,-88.59375 0,88.59375 15.46875,0 0,-11.34375 29.625,0 0,11.34375 29.625,0 0,-11.34375 29.625,0 0,11.34375 29.59375,0 0,-11.34375 29.625,0 0,11.34375 15.46875,0 0,-88.59375 7.0625,88.59375 c 0.20953,2.62837 1.31713,5.68026 3.5625,7.0625 2.01363,1.23958 5.08232,1.24314 7.09375,0 2.23895,-1.38374 3.53125,-7.0625 3.53125,-7.0625 l -7.09375,0 0,-106.3125 0.375,94.96875 29.25,0 0,11.34375 29.625,0 0,-11.34375 29.625,0 0,11.34375 18.28125,0 0,-29.625 11.3438,0 0,18.28125 10.625,0 0,-421.656245 -10.625,0 0,18.28125 -11.3438,0 0,-29.625 -18.28125,0 0,11.34375 -29.625,0 0,-11.34375 -29.625,0 0,11.34375 -29.25,0 -0.375,94.968755 0,-106.312505 7.09375,0 c 0,0 -1.2856,-5.703124 -3.53125,-7.09375 -2.01034,-1.244908 -5.08122,-1.241364 -7.09375,0 -2.25206,1.389112 -3.35223,4.4561 -3.5625,7.09375 l -7.0625,88.593755 0,-88.593755 -15.46875,0 0,11.34375 -29.625,0 0,-11.34375 -29.59375,0 0,11.34375 -29.625,0 0,-11.34375 -29.625,0 0,11.34375 -29.625,0 0,-11.34375 -15.46875,0 0,88.593755 -7.0625,-88.593755 c -0.21027,-2.63765 -1.31044,-5.704638 -3.5625,-7.09375 -2.00366,-1.235895 -5.05884,-1.235895 -7.0625,0 z"
         style="fill:none;stroke:#ff0000;stroke-width:0.70866144;stroke-linecap:butt;stroke-linejoin:miter;stroke-miterlimit:4;stroke-opacity:1;stroke-dasharray:none"
         inkscape:connector-curvature="0" />
      <path
         id="path3070"
         d="m 559.125,43.088785 11.34375,0 0,29.625 -11.34375,0 z"
         style="fill:none;stroke:#0000ff;stroke-width:0.70866144;stroke-linecap:butt;stroke-linejoin:miter;stroke-miterlimit:4;stroke-opacity:1;stroke-dasharray:none"
         inkscape:connector-curvature="0" />
      <path
         id="path3072"
         d="m 992.125,72.713785 11.3438,0 0,29.625005 -11.3438,0 z"
         style="fill:none;stroke:#0000ff;stroke-width:0.70866144;stroke-linecap:butt;stroke-linejoin:miter;stroke-miterlimit:4;stroke-opacity:1;stroke-dasharray:none"
         inkscape:connector-curvature="0" />
      <path
         id="path3074"
         d="m 559.125,102.33879 11.34375,0 0,29.62499 -11.34375,0 z"
         style="fill:none;stroke:#0000ff;stroke-width:0.70866144;stroke-linecap:butt;stroke-linejoin:miter;stroke-miterlimit:4;stroke-opacity:1;stroke-dasharray:none"
         inkscape:connector-curvature="0" />
      <path
         id="path3076"
         d="m 992.125,131.96378 11.3438,0 0,29.625 -11.3438,0 z"
         style="fill:none;stroke:#0000ff;stroke-width:0.70866144;stroke-linecap:butt;stroke-linejoin:miter;stroke-miterlimit:4;stroke-opacity:1;stroke-dasharray:none"
         inkscape:connector-curvature="0" />
      <path
         id="path3078"
         d="m 559.125,161.58878 11.34375,0 0,29.59375 -11.34375,0 z"
         style="fill:none;stroke:#0000ff;stroke-width:0.70866144;stroke-linecap:butt;stroke-linejoin:miter;stroke-miterlimit:4;stroke-opacity:1;stroke-dasharray:none"
         inkscape:connector-curvature="0" />
      <path
         id="path3080"
         d="m 992.125,191.18253 11.3438,0 0,29.625 -11.3438,0 z"
         style="fill:none;stroke:#0000ff;stroke-width:0.70866144;stroke-linecap:butt;stroke-linejoin:miter;stroke-miterlimit:4;stroke-opacity:1;stroke-dasharray:none"
         inkscape:connector-curvature="0" />
      <path
         id="path3082"
         d="m 559.125,220.80753 11.34375,0 0,29.625 -11.34375,0 z"
         style="fill:none;stroke:#0000ff;stroke-width:0.70866144;stroke-linecap:butt;stroke-linejoin:miter;stroke-miterlimit:4;stroke-opacity:1;stroke-dasharray:none"
         inkscape:connector-curvature="0" />
      <path
         id="path3084"
         d="m 992.125,250.43253 11.3438,0 0,29.625 -11.3438,0 z"
         style="fill:none;stroke:#0000ff;stroke-width:0.70866144;stroke-linecap:butt;stroke-linejoin:miter;stroke-miterlimit:4;stroke-opacity:1;stroke-dasharray:none"
         inkscape:connector-curvature="0" />
      <path
         id="path3086"
         d="m 559.125,280.05753 11.34375,0 0,29.625 -11.34375,0 z"
         style="fill:none;stroke:#0000ff;stroke-width:0.70866144;stroke-linecap:butt;stroke-linejoin:miter;stroke-miterlimit:4;stroke-opacity:1;stroke-dasharray:none"
         inkscape:connector-curvature="0" />
      <path
         id="path3088"
         d="m 992.125,309.68253 11.3438,0 0,29.625 -11.3438,0 z"
         style="fill:none;stroke:#0000ff;stroke-width:0.70866144;stroke-linecap:butt;stroke-linejoin:miter;stroke-miterlimit:4;stroke-opacity:1;stroke-dasharray:none"
         inkscape:connector-curvature="0" />
      <path
         id="path3090"
         d="m 559.125,339.30753 11.34375,0 0,29.625 -11.34375,0 z"
         style="fill:none;stroke:#0000ff;stroke-width:0.70866144;stroke-linecap:butt;stroke-linejoin:miter;stroke-miterlimit:4;stroke-opacity:1;stroke-dasharray:none"
         inkscape:connector-curvature="0" />
      <path
         id="path3092"
         d="m 992.125,368.93253 11.3438,0 0,29.625 -11.3438,0 z"
         style="fill:none;stroke:#0000ff;stroke-width:0.70866144;stroke-linecap:butt;stroke-linejoin:miter;stroke-miterlimit:4;stroke-opacity:1;stroke-dasharray:none"
         inkscape:connector-curvature="0" />
      <path
         id="path3094"
         d="m 559.125,398.55753 11.34375,0 0,29.625 -11.34375,0 z"
         style="fill:none;stroke:#0000ff;stroke-width:0.70866144;stroke-linecap:butt;stroke-linejoin:miter;stroke-miterlimit:4;stroke-opacity:1;stroke-dasharray:none"
         inkscape:connector-curvature="0" />
      <path
         sodipodi:nodetypes="cc"
         inkscape:connector-curvature="0"
         id="path3096"
         d="m 627.1654,24.80303 2e-5,421.65355"
         style="fill:none;stroke:#000000;stroke-width:0.70866144;stroke-linecap:butt;stroke-linejoin:miter;stroke-miterlimit:4;stroke-opacity:1;stroke-dasharray:none" />
      <path
         sodipodi:nodetypes="cc"
         inkscape:connector-curvature="0"
         id="path3098"
         d="m 678.54339,120.80303 0,229.65355"
         style="fill:none;stroke:#000000;stroke-width:0.70866144;stroke-linecap:butt;stroke-linejoin:miter;stroke-miterlimit:4;stroke-opacity:1;stroke-dasharray:none" />
      <path
         sodipodi:nodetypes="cc"
         inkscape:connector-curvature="0"
         id="path3100"
         d="m 729.92134,24.80303 0,421.65355"
         style="fill:none;stroke:#000000;stroke-width:0.70866144;stroke-linecap:butt;stroke-linejoin:miter;stroke-miterlimit:4;stroke-opacity:1;stroke-dasharray:none" />
      <path
         sodipodi:nodetypes="cc"
         inkscape:connector-curvature="0"
         id="path3102"
         d="m 781.29927,24.80303 4e-5,421.65355"
         style="fill:none;stroke:#000000;stroke-width:0.70866144;stroke-linecap:butt;stroke-linejoin:miter;stroke-miterlimit:4;stroke-opacity:1;stroke-dasharray:none" />
      <path
         sodipodi:nodetypes="cc"
         inkscape:connector-curvature="0"
         id="path3104"
         d="m 832.67724,24.80303 0,421.65355"
         style="fill:none;stroke:#000000;stroke-width:0.70866144;stroke-linecap:butt;stroke-linejoin:miter;stroke-miterlimit:4;stroke-opacity:1;stroke-dasharray:none" />
      <path
         sodipodi:nodetypes="cc"
         inkscape:connector-curvature="0"
         id="path3106"
         d="m 884.05517,350.45658 2e-5,-229.65355"
         style="fill:none;stroke:#000000;stroke-width:0.70866144;stroke-linecap:butt;stroke-linejoin:miter;stroke-miterlimit:4;stroke-opacity:1;stroke-dasharray:none" />
      <path
         sodipodi:nodetypes="cc"
         inkscape:connector-curvature="0"
         id="path3108"
         d="m 935.43313,24.80303 -10e-6,421.65355"
         style="fill:none;stroke:#000000;stroke-width:0.70866144;stroke-linecap:butt;stroke-linejoin:miter;stroke-miterlimit:4;stroke-opacity:1;stroke-dasharray:none" />
      <path
         sodipodi:nodetypes="cc"
         inkscape:connector-curvature="0"
         id="path3110"
         d="m 570.47237,81.49586 421.65355,3e-5"
         style="fill:none;stroke:#000000;stroke-width:0.70866144;stroke-linecap:butt;stroke-linejoin:miter;stroke-miterlimit:4;stroke-opacity:1;stroke-dasharray:none" />
      <path
         sodipodi:nodetypes="cc"
         inkscape:connector-curvature="0"
         id="path3112"
         d="m 570.47237,132.8738 421.65355,2e-5"
         style="fill:none;stroke:#000000;stroke-width:0.70866144;stroke-linecap:butt;stroke-linejoin:miter;stroke-miterlimit:4;stroke-opacity:1;stroke-dasharray:none" />
      <path
         sodipodi:nodetypes="cc"
         inkscape:connector-curvature="0"
         id="path3114"
         d="m 570.47237,184.25175 421.65355,-2e-5"
         style="fill:none;stroke:#000000;stroke-width:0.70866144;stroke-linecap:butt;stroke-linejoin:miter;stroke-miterlimit:4;stroke-opacity:1;stroke-dasharray:none" />
      <path
         sodipodi:nodetypes="cc"
         inkscape:connector-curvature="0"
         id="path3116"
         d="m 570.47237,235.62966 421.65355,2e-5"
         style="fill:none;stroke:#000000;stroke-width:0.70866144;stroke-linecap:butt;stroke-linejoin:miter;stroke-miterlimit:4;stroke-opacity:1;stroke-dasharray:none" />
      <path
         sodipodi:nodetypes="cc"
         inkscape:connector-curvature="0"
         id="path3118"
         d="m 570.47237,287.00761 421.65355,0"
         style="fill:none;stroke:#000000;stroke-width:0.70866144;stroke-linecap:butt;stroke-linejoin:miter;stroke-miterlimit:4;stroke-opacity:1;stroke-dasharray:none" />
      <path
         sodipodi:nodetypes="cc"
         inkscape:connector-curvature="0"
         id="path3120"
         d="m 570.47237,338.3855 421.65355,6e-5"
         style="fill:none;stroke:#000000;stroke-width:0.70866144;stroke-linecap:butt;stroke-linejoin:miter;stroke-miterlimit:4;stroke-opacity:1;stroke-dasharray:none" />
      <path
         sodipodi:nodetypes="cc"
         inkscape:connector-curvature="0"
         id="path3122"
         d="m 570.47237,389.76343 421.65355,0"
         style="fill:none;stroke:#000000;stroke-width:0.70866144;stroke-linecap:butt;stroke-linejoin:miter;stroke-miterlimit:4;stroke-opacity:1;stroke-dasharray:none" />
    </g>
    <g
       inkscape:tile-y0="31.795005"
       inkscape:tile-x0="46.130249"
       style="stroke-width:0.70866144;stroke-miterlimit:4;stroke-dasharray:none;display:inline"
       transform="matrix(0.99999848,0.00174533,-0.00174533,0.99999848,-487.20268,519.2242)"
       id="use3060">
      <path
         id="path3126"
         d="m 674.09375,6.370035 c -2.25206,1.389112 -3.5625,7.09375 -3.5625,7.09375 l 7.09375,0 0,106.312505 -0.34375,-94.968755 -29.28125,0 0,-11.34375 -29.625,0 0,11.34375 -29.625,0 0,-11.34375 -29.625,0 0,11.34375 -10.625,0 0,421.656245 10.625,0 0,11.34375 7.8125,9.90625 14.15625,0 7.65625,-9.90625 0,-11.34375 29.625,0 0,11.34375 29.625,0 0,-11.34375 29.28125,0 0.34375,-94.96875 0,106.3125 -7.09375,0 c 0,0 1.31713,5.68026 3.5625,7.0625 2.00476,1.23412 5.05774,1.23412 7.0625,0 2.24537,-1.38224 3.5625,-7.0625 3.5625,-7.0625 l 7.0625,-88.59375 0,88.59375 15.46875,0 0,-11.34375 29.625,0 0,11.34375 29.625,0 0,-11.34375 29.625,0 0,11.34375 29.59375,0 0,-11.34375 29.625,0 0,11.34375 15.46875,0 0,-88.59375 7.0625,88.59375 c 0.20953,2.62837 1.31713,5.68026 3.5625,7.0625 2.01363,1.23958 5.08232,1.24314 7.09375,0 2.23895,-1.38374 3.53125,-7.0625 3.53125,-7.0625 l -7.09375,0 0,-106.3125 0.375,94.96875 29.25,0 0,11.34375 29.625,0 0,-11.34375 29.625,0 0,11.34375 18.28125,0 0,-29.625 11.3438,0 0,18.28125 10.625,0 0,-421.656245 -10.625,0 0,18.28125 -11.3438,0 0,-29.625 -18.28125,0 0,11.34375 -29.625,0 0,-11.34375 -29.625,0 0,11.34375 -29.25,0 -0.375,94.968755 0,-106.312505 7.09375,0 c 0,0 -1.2856,-5.703124 -3.53125,-7.09375 -2.01034,-1.244908 -5.08122,-1.241364 -7.09375,0 -2.25206,1.389112 -3.35223,4.4561 -3.5625,7.09375 l -7.0625,88.593755 0,-88.593755 -15.46875,0 0,11.34375 -29.625,0 0,-11.34375 -29.59375,0 0,11.34375 -29.625,0 0,-11.34375 -29.625,0 0,11.34375 -29.625,0 0,-11.34375 -15.46875,0 0,88.593755 -7.0625,-88.593755 c -0.21027,-2.63765 -1.31044,-5.704638 -3.5625,-7.09375 -2.00366,-1.235895 -5.05884,-1.235895 -7.0625,0 z"
         style="fill:none;stroke:#ff0000;stroke-width:0.70866144;stroke-linecap:butt;stroke-linejoin:miter;stroke-miterlimit:4;stroke-opacity:1;stroke-dasharray:none"
         inkscape:connector-curvature="0" />
      <path
         id="path3128"
         d="m 559.125,43.088785 11.34375,0 0,29.625 -11.34375,0 z"
         style="fill:none;stroke:#0000ff;stroke-width:0.70866144;stroke-linecap:butt;stroke-linejoin:miter;stroke-miterlimit:4;stroke-opacity:1;stroke-dasharray:none"
         inkscape:connector-curvature="0" />
      <path
         id="path3130"
         d="m 992.125,72.713785 11.3438,0 0,29.625005 -11.3438,0 z"
         style="fill:none;stroke:#0000ff;stroke-width:0.70866144;stroke-linecap:butt;stroke-linejoin:miter;stroke-miterlimit:4;stroke-opacity:1;stroke-dasharray:none"
         inkscape:connector-curvature="0" />
      <path
         id="path3132"
         d="m 559.125,102.33879 11.34375,0 0,29.62499 -11.34375,0 z"
         style="fill:none;stroke:#0000ff;stroke-width:0.70866144;stroke-linecap:butt;stroke-linejoin:miter;stroke-miterlimit:4;stroke-opacity:1;stroke-dasharray:none"
         inkscape:connector-curvature="0" />
      <path
         id="path3134"
         d="m 992.125,131.96378 11.3438,0 0,29.625 -11.3438,0 z"
         style="fill:none;stroke:#0000ff;stroke-width:0.70866144;stroke-linecap:butt;stroke-linejoin:miter;stroke-miterlimit:4;stroke-opacity:1;stroke-dasharray:none"
         inkscape:connector-curvature="0" />
      <path
         id="path3136"
         d="m 559.125,161.58878 11.34375,0 0,29.59375 -11.34375,0 z"
         style="fill:none;stroke:#0000ff;stroke-width:0.70866144;stroke-linecap:butt;stroke-linejoin:miter;stroke-miterlimit:4;stroke-opacity:1;stroke-dasharray:none"
         inkscape:connector-curvature="0" />
      <path
         id="path3138"
         d="m 992.125,191.18253 11.3438,0 0,29.625 -11.3438,0 z"
         style="fill:none;stroke:#0000ff;stroke-width:0.70866144;stroke-linecap:butt;stroke-linejoin:miter;stroke-miterlimit:4;stroke-opacity:1;stroke-dasharray:none"
         inkscape:connector-curvature="0" />
      <path
         id="path3140"
         d="m 559.125,220.80753 11.34375,0 0,29.625 -11.34375,0 z"
         style="fill:none;stroke:#0000ff;stroke-width:0.70866144;stroke-linecap:butt;stroke-linejoin:miter;stroke-miterlimit:4;stroke-opacity:1;stroke-dasharray:none"
         inkscape:connector-curvature="0" />
      <path
         id="path3142"
         d="m 992.125,250.43253 11.3438,0 0,29.625 -11.3438,0 z"
         style="fill:none;stroke:#0000ff;stroke-width:0.70866144;stroke-linecap:butt;stroke-linejoin:miter;stroke-miterlimit:4;stroke-opacity:1;stroke-dasharray:none"
         inkscape:connector-curvature="0" />
      <path
         id="path3144"
         d="m 559.125,280.05753 11.34375,0 0,29.625 -11.34375,0 z"
         style="fill:none;stroke:#0000ff;stroke-width:0.70866144;stroke-linecap:butt;stroke-linejoin:miter;stroke-miterlimit:4;stroke-opacity:1;stroke-dasharray:none"
         inkscape:connector-curvature="0" />
      <path
         id="path3146"
         d="m 992.125,309.68253 11.3438,0 0,29.625 -11.3438,0 z"
         style="fill:none;stroke:#0000ff;stroke-width:0.70866144;stroke-linecap:butt;stroke-linejoin:miter;stroke-miterlimit:4;stroke-opacity:1;stroke-dasharray:none"
         inkscape:connector-curvature="0" />
      <path
         id="path3148"
         d="m 559.125,339.30753 11.34375,0 0,29.625 -11.34375,0 z"
         style="fill:none;stroke:#0000ff;stroke-width:0.70866144;stroke-linecap:butt;stroke-linejoin:miter;stroke-miterlimit:4;stroke-opacity:1;stroke-dasharray:none"
         inkscape:connector-curvature="0" />
      <path
         id="path3150"
         d="m 992.125,368.93253 11.3438,0 0,29.625 -11.3438,0 z"
         style="fill:none;stroke:#0000ff;stroke-width:0.70866144;stroke-linecap:butt;stroke-linejoin:miter;stroke-miterlimit:4;stroke-opacity:1;stroke-dasharray:none"
         inkscape:connector-curvature="0" />
      <path
         id="path3152"
         d="m 559.125,398.55753 11.34375,0 0,29.625 -11.34375,0 z"
         style="fill:none;stroke:#0000ff;stroke-width:0.70866144;stroke-linecap:butt;stroke-linejoin:miter;stroke-miterlimit:4;stroke-opacity:1;stroke-dasharray:none"
         inkscape:connector-curvature="0" />
      <path
         sodipodi:nodetypes="cc"
         inkscape:connector-curvature="0"
         id="path3154"
         d="m 627.1654,24.80303 2e-5,421.65355"
         style="fill:none;stroke:#000000;stroke-width:0.70866144;stroke-linecap:butt;stroke-linejoin:miter;stroke-miterlimit:4;stroke-opacity:1;stroke-dasharray:none" />
      <path
         sodipodi:nodetypes="cc"
         inkscape:connector-curvature="0"
         id="path3156"
         d="m 678.54339,120.80303 0,229.65355"
         style="fill:none;stroke:#000000;stroke-width:0.70866144;stroke-linecap:butt;stroke-linejoin:miter;stroke-miterlimit:4;stroke-opacity:1;stroke-dasharray:none" />
      <path
         sodipodi:nodetypes="cc"
         inkscape:connector-curvature="0"
         id="path3158"
         d="m 729.92134,24.80303 0,421.65355"
         style="fill:none;stroke:#000000;stroke-width:0.70866144;stroke-linecap:butt;stroke-linejoin:miter;stroke-miterlimit:4;stroke-opacity:1;stroke-dasharray:none" />
      <path
         sodipodi:nodetypes="cc"
         inkscape:connector-curvature="0"
         id="path3160"
         d="m 781.29927,24.80303 4e-5,421.65355"
         style="fill:none;stroke:#000000;stroke-width:0.70866144;stroke-linecap:butt;stroke-linejoin:miter;stroke-miterlimit:4;stroke-opacity:1;stroke-dasharray:none" />
      <path
         sodipodi:nodetypes="cc"
         inkscape:connector-curvature="0"
         id="path3162"
         d="m 832.67724,24.80303 0,421.65355"
         style="fill:none;stroke:#000000;stroke-width:0.70866144;stroke-linecap:butt;stroke-linejoin:miter;stroke-miterlimit:4;stroke-opacity:1;stroke-dasharray:none" />
      <path
         sodipodi:nodetypes="cc"
         inkscape:connector-curvature="0"
         id="path3164"
         d="m 884.05517,350.45658 2e-5,-229.65355"
         style="fill:none;stroke:#000000;stroke-width:0.70866144;stroke-linecap:butt;stroke-linejoin:miter;stroke-miterlimit:4;stroke-opacity:1;stroke-dasharray:none" />
      <path
         sodipodi:nodetypes="cc"
         inkscape:connector-curvature="0"
         id="path3166"
         d="m 935.43313,24.80303 -10e-6,421.65355"
         style="fill:none;stroke:#000000;stroke-width:0.70866144;stroke-linecap:butt;stroke-linejoin:miter;stroke-miterlimit:4;stroke-opacity:1;stroke-dasharray:none" />
      <path
         sodipodi:nodetypes="cc"
         inkscape:connector-curvature="0"
         id="path3168"
         d="m 570.47237,81.49586 421.65355,3e-5"
         style="fill:none;stroke:#000000;stroke-width:0.70866144;stroke-linecap:butt;stroke-linejoin:miter;stroke-miterlimit:4;stroke-opacity:1;stroke-dasharray:none" />
      <path
         sodipodi:nodetypes="cc"
         inkscape:connector-curvature="0"
         id="path3170"
         d="m 570.47237,132.8738 421.65355,2e-5"
         style="fill:none;stroke:#000000;stroke-width:0.70866144;stroke-linecap:butt;stroke-linejoin:miter;stroke-miterlimit:4;stroke-opacity:1;stroke-dasharray:none" />
      <path
         sodipodi:nodetypes="cc"
         inkscape:connector-curvature="0"
         id="path3172"
         d="m 570.47237,184.25175 421.65355,-2e-5"
         style="fill:none;stroke:#000000;stroke-width:0.70866144;stroke-linecap:butt;stroke-linejoin:miter;stroke-miterlimit:4;stroke-opacity:1;stroke-dasharray:none" />
      <path
         sodipodi:nodetypes="cc"
         inkscape:connector-curvature="0"
         id="path3174"
         d="m 570.47237,235.62966 421.65355,2e-5"
         style="fill:none;stroke:#000000;stroke-width:0.70866144;stroke-linecap:butt;stroke-linejoin:miter;stroke-miterlimit:4;stroke-opacity:1;stroke-dasharray:none" />
      <path
         sodipodi:nodetypes="cc"
         inkscape:connector-curvature="0"
         id="path3176"
         d="m 570.47237,287.00761 421.65355,0"
         style="fill:none;stroke:#000000;stroke-width:0.70866144;stroke-linecap:butt;stroke-linejoin:miter;stroke-miterlimit:4;stroke-opacity:1;stroke-dasharray:none" />
      <path
         sodipodi:nodetypes="cc"
         inkscape:connector-curvature="0"
         id="path3178"
         d="m 570.47237,338.3855 421.65355,6e-5"
         style="fill:none;stroke:#000000;stroke-width:0.70866144;stroke-linecap:butt;stroke-linejoin:miter;stroke-miterlimit:4;stroke-opacity:1;stroke-dasharray:none" />
      <path
         sodipodi:nodetypes="cc"
         inkscape:connector-curvature="0"
         id="path3180"
         d="m 570.47237,389.76343 421.65355,0"
         style="fill:none;stroke:#000000;stroke-width:0.70866144;stroke-linecap:butt;stroke-linejoin:miter;stroke-miterlimit:4;stroke-opacity:1;stroke-dasharray:none" />
    </g>
    <g
       inkscape:tile-y0="31.795005"
       inkscape:tile-x0="46.130249"
       style="stroke-width:0.70866144;stroke-miterlimit:4;stroke-dasharray:none;display:inline"
       transform="translate(-12.006805,48.342986)"
       id="use3062">
      <path
         id="path3184"
         d="m 674.09375,6.370035 c -2.25206,1.389112 -3.5625,7.09375 -3.5625,7.09375 l 7.09375,0 0,106.312505 -0.34375,-94.968755 -29.28125,0 0,-11.34375 -29.625,0 0,11.34375 -29.625,0 0,-11.34375 -29.625,0 0,11.34375 -10.625,0 0,421.656245 10.625,0 0,11.34375 7.8125,9.90625 14.15625,0 7.65625,-9.90625 0,-11.34375 29.625,0 0,11.34375 29.625,0 0,-11.34375 29.28125,0 0.34375,-94.96875 0,106.3125 -7.09375,0 c 0,0 1.31713,5.68026 3.5625,7.0625 2.00476,1.23412 5.05774,1.23412 7.0625,0 2.24537,-1.38224 3.5625,-7.0625 3.5625,-7.0625 l 7.0625,-88.59375 0,88.59375 15.46875,0 0,-11.34375 29.625,0 0,11.34375 29.625,0 0,-11.34375 29.625,0 0,11.34375 29.59375,0 0,-11.34375 29.625,0 0,11.34375 15.46875,0 0,-88.59375 7.0625,88.59375 c 0.20953,2.62837 1.31713,5.68026 3.5625,7.0625 2.01363,1.23958 5.08232,1.24314 7.09375,0 2.23895,-1.38374 3.53125,-7.0625 3.53125,-7.0625 l -7.09375,0 0,-106.3125 0.375,94.96875 29.25,0 0,11.34375 29.625,0 0,-11.34375 29.625,0 0,11.34375 18.28125,0 0,-29.625 11.3438,0 0,18.28125 10.625,0 0,-421.656245 -10.625,0 0,18.28125 -11.3438,0 0,-29.625 -18.28125,0 0,11.34375 -29.625,0 0,-11.34375 -29.625,0 0,11.34375 -29.25,0 -0.375,94.968755 0,-106.312505 7.09375,0 c 0,0 -1.2856,-5.703124 -3.53125,-7.09375 -2.01034,-1.244908 -5.08122,-1.241364 -7.09375,0 -2.25206,1.389112 -3.35223,4.4561 -3.5625,7.09375 l -7.0625,88.593755 0,-88.593755 -15.46875,0 0,11.34375 -29.625,0 0,-11.34375 -29.59375,0 0,11.34375 -29.625,0 0,-11.34375 -29.625,0 0,11.34375 -29.625,0 0,-11.34375 -15.46875,0 0,88.593755 -7.0625,-88.593755 c -0.21027,-2.63765 -1.31044,-5.704638 -3.5625,-7.09375 -2.00366,-1.235895 -5.05884,-1.235895 -7.0625,0 z"
         style="fill:none;stroke:#ff0000;stroke-width:0.70866144;stroke-linecap:butt;stroke-linejoin:miter;stroke-miterlimit:4;stroke-opacity:1;stroke-dasharray:none"
         inkscape:connector-curvature="0" />
      <path
         id="path3186"
         d="m 559.125,43.088785 11.34375,0 0,29.625 -11.34375,0 z"
         style="fill:none;stroke:#0000ff;stroke-width:0.70866144;stroke-linecap:butt;stroke-linejoin:miter;stroke-miterlimit:4;stroke-opacity:1;stroke-dasharray:none"
         inkscape:connector-curvature="0" />
      <path
         id="path3188"
         d="m 992.125,72.713785 11.3438,0 0,29.625005 -11.3438,0 z"
         style="fill:none;stroke:#0000ff;stroke-width:0.70866144;stroke-linecap:butt;stroke-linejoin:miter;stroke-miterlimit:4;stroke-opacity:1;stroke-dasharray:none"
         inkscape:connector-curvature="0" />
      <path
         id="path3190"
         d="m 559.125,102.33879 11.34375,0 0,29.62499 -11.34375,0 z"
         style="fill:none;stroke:#0000ff;stroke-width:0.70866144;stroke-linecap:butt;stroke-linejoin:miter;stroke-miterlimit:4;stroke-opacity:1;stroke-dasharray:none"
         inkscape:connector-curvature="0" />
      <path
         id="path3192"
         d="m 992.125,131.96378 11.3438,0 0,29.625 -11.3438,0 z"
         style="fill:none;stroke:#0000ff;stroke-width:0.70866144;stroke-linecap:butt;stroke-linejoin:miter;stroke-miterlimit:4;stroke-opacity:1;stroke-dasharray:none"
         inkscape:connector-curvature="0" />
      <path
         id="path3194"
         d="m 559.125,161.58878 11.34375,0 0,29.59375 -11.34375,0 z"
         style="fill:none;stroke:#0000ff;stroke-width:0.70866144;stroke-linecap:butt;stroke-linejoin:miter;stroke-miterlimit:4;stroke-opacity:1;stroke-dasharray:none"
         inkscape:connector-curvature="0" />
      <path
         id="path3196"
         d="m 992.125,191.18253 11.3438,0 0,29.625 -11.3438,0 z"
         style="fill:none;stroke:#0000ff;stroke-width:0.70866144;stroke-linecap:butt;stroke-linejoin:miter;stroke-miterlimit:4;stroke-opacity:1;stroke-dasharray:none"
         inkscape:connector-curvature="0" />
      <path
         id="path3198"
         d="m 559.125,220.80753 11.34375,0 0,29.625 -11.34375,0 z"
         style="fill:none;stroke:#0000ff;stroke-width:0.70866144;stroke-linecap:butt;stroke-linejoin:miter;stroke-miterlimit:4;stroke-opacity:1;stroke-dasharray:none"
         inkscape:connector-curvature="0" />
      <path
         id="path3200"
         d="m 992.125,250.43253 11.3438,0 0,29.625 -11.3438,0 z"
         style="fill:none;stroke:#0000ff;stroke-width:0.70866144;stroke-linecap:butt;stroke-linejoin:miter;stroke-miterlimit:4;stroke-opacity:1;stroke-dasharray:none"
         inkscape:connector-curvature="0" />
      <path
         id="path3202"
         d="m 559.125,280.05753 11.34375,0 0,29.625 -11.34375,0 z"
         style="fill:none;stroke:#0000ff;stroke-width:0.70866144;stroke-linecap:butt;stroke-linejoin:miter;stroke-miterlimit:4;stroke-opacity:1;stroke-dasharray:none"
         inkscape:connector-curvature="0" />
      <path
         id="path3204"
         d="m 992.125,309.68253 11.3438,0 0,29.625 -11.3438,0 z"
         style="fill:none;stroke:#0000ff;stroke-width:0.70866144;stroke-linecap:butt;stroke-linejoin:miter;stroke-miterlimit:4;stroke-opacity:1;stroke-dasharray:none"
         inkscape:connector-curvature="0" />
      <path
         id="path3206"
         d="m 559.125,339.30753 11.34375,0 0,29.625 -11.34375,0 z"
         style="fill:none;stroke:#0000ff;stroke-width:0.70866144;stroke-linecap:butt;stroke-linejoin:miter;stroke-miterlimit:4;stroke-opacity:1;stroke-dasharray:none"
         inkscape:connector-curvature="0" />
      <path
         id="path3208"
         d="m 992.125,368.93253 11.3438,0 0,29.625 -11.3438,0 z"
         style="fill:none;stroke:#0000ff;stroke-width:0.70866144;stroke-linecap:butt;stroke-linejoin:miter;stroke-miterlimit:4;stroke-opacity:1;stroke-dasharray:none"
         inkscape:connector-curvature="0" />
      <path
         id="path3210"
         d="m 559.125,398.55753 11.34375,0 0,29.625 -11.34375,0 z"
         style="fill:none;stroke:#0000ff;stroke-width:0.70866144;stroke-linecap:butt;stroke-linejoin:miter;stroke-miterlimit:4;stroke-opacity:1;stroke-dasharray:none"
         inkscape:connector-curvature="0" />
      <path
         sodipodi:nodetypes="cc"
         inkscape:connector-curvature="0"
         id="path3212"
         d="m 627.1654,24.80303 2e-5,421.65355"
         style="fill:none;stroke:#000000;stroke-width:0.70866144;stroke-linecap:butt;stroke-linejoin:miter;stroke-miterlimit:4;stroke-opacity:1;stroke-dasharray:none" />
      <path
         sodipodi:nodetypes="cc"
         inkscape:connector-curvature="0"
         id="path3214"
         d="m 678.54339,120.80303 0,229.65355"
         style="fill:none;stroke:#000000;stroke-width:0.70866144;stroke-linecap:butt;stroke-linejoin:miter;stroke-miterlimit:4;stroke-opacity:1;stroke-dasharray:none" />
      <path
         sodipodi:nodetypes="cc"
         inkscape:connector-curvature="0"
         id="path3216"
         d="m 729.92134,24.80303 0,421.65355"
         style="fill:none;stroke:#000000;stroke-width:0.70866144;stroke-linecap:butt;stroke-linejoin:miter;stroke-miterlimit:4;stroke-opacity:1;stroke-dasharray:none" />
      <path
         sodipodi:nodetypes="cc"
         inkscape:connector-curvature="0"
         id="path3218"
         d="m 781.29927,24.80303 4e-5,421.65355"
         style="fill:none;stroke:#000000;stroke-width:0.70866144;stroke-linecap:butt;stroke-linejoin:miter;stroke-miterlimit:4;stroke-opacity:1;stroke-dasharray:none" />
      <path
         sodipodi:nodetypes="cc"
         inkscape:connector-curvature="0"
         id="path3220"
         d="m 832.67724,24.80303 0,421.65355"
         style="fill:none;stroke:#000000;stroke-width:0.70866144;stroke-linecap:butt;stroke-linejoin:miter;stroke-miterlimit:4;stroke-opacity:1;stroke-dasharray:none" />
      <path
         sodipodi:nodetypes="cc"
         inkscape:connector-curvature="0"
         id="path3222"
         d="m 884.05517,350.45658 2e-5,-229.65355"
         style="fill:none;stroke:#000000;stroke-width:0.70866144;stroke-linecap:butt;stroke-linejoin:miter;stroke-miterlimit:4;stroke-opacity:1;stroke-dasharray:none" />
      <path
         sodipodi:nodetypes="cc"
         inkscape:connector-curvature="0"
         id="path3224"
         d="m 935.43313,24.80303 -10e-6,421.65355"
         style="fill:none;stroke:#000000;stroke-width:0.70866144;stroke-linecap:butt;stroke-linejoin:miter;stroke-miterlimit:4;stroke-opacity:1;stroke-dasharray:none" />
      <path
         sodipodi:nodetypes="cc"
         inkscape:connector-curvature="0"
         id="path3226"
         d="m 570.47237,81.49586 421.65355,3e-5"
         style="fill:none;stroke:#000000;stroke-width:0.70866144;stroke-linecap:butt;stroke-linejoin:miter;stroke-miterlimit:4;stroke-opacity:1;stroke-dasharray:none" />
      <path
         sodipodi:nodetypes="cc"
         inkscape:connector-curvature="0"
         id="path3228"
         d="m 570.47237,132.8738 421.65355,2e-5"
         style="fill:none;stroke:#000000;stroke-width:0.70866144;stroke-linecap:butt;stroke-linejoin:miter;stroke-miterlimit:4;stroke-opacity:1;stroke-dasharray:none" />
      <path
         sodipodi:nodetypes="cc"
         inkscape:connector-curvature="0"
         id="path3230"
         d="m 570.47237,184.25175 421.65355,-2e-5"
         style="fill:none;stroke:#000000;stroke-width:0.70866144;stroke-linecap:butt;stroke-linejoin:miter;stroke-miterlimit:4;stroke-opacity:1;stroke-dasharray:none" />
      <path
         sodipodi:nodetypes="cc"
         inkscape:connector-curvature="0"
         id="path3232"
         d="m 570.47237,235.62966 421.65355,2e-5"
         style="fill:none;stroke:#000000;stroke-width:0.70866144;stroke-linecap:butt;stroke-linejoin:miter;stroke-miterlimit:4;stroke-opacity:1;stroke-dasharray:none" />
      <path
         sodipodi:nodetypes="cc"
         inkscape:connector-curvature="0"
         id="path3234"
         d="m 570.47237,287.00761 421.65355,0"
         style="fill:none;stroke:#000000;stroke-width:0.70866144;stroke-linecap:butt;stroke-linejoin:miter;stroke-miterlimit:4;stroke-opacity:1;stroke-dasharray:none" />
      <path
         sodipodi:nodetypes="cc"
         inkscape:connector-curvature="0"
         id="path3236"
         d="m 570.47237,338.3855 421.65355,6e-5"
         style="fill:none;stroke:#000000;stroke-width:0.70866144;stroke-linecap:butt;stroke-linejoin:miter;stroke-miterlimit:4;stroke-opacity:1;stroke-dasharray:none" />
      <path
         sodipodi:nodetypes="cc"
         inkscape:connector-curvature="0"
         id="path3238"
         d="m 570.47237,389.76343 421.65355,0"
         style="fill:none;stroke:#000000;stroke-width:0.70866144;stroke-linecap:butt;stroke-linejoin:miter;stroke-miterlimit:4;stroke-opacity:1;stroke-dasharray:none" />
    </g>
    <g
       inkscape:tile-y0="31.795005"
       inkscape:tile-x0="46.130249"
       style="stroke-width:0.70866144;stroke-miterlimit:4;stroke-dasharray:none;display:inline"
       transform="matrix(0.99999848,0.00174533,-0.00174533,0.99999848,-11.57416,519.2242)"
       id="use3064">
      <path
         id="path3242"
         d="m 674.09375,6.370035 c -2.25206,1.389112 -3.5625,7.09375 -3.5625,7.09375 l 7.09375,0 0,106.312505 -0.34375,-94.968755 -29.28125,0 0,-11.34375 -29.625,0 0,11.34375 -29.625,0 0,-11.34375 -29.625,0 0,11.34375 -10.625,0 0,421.656245 10.625,0 0,11.34375 7.8125,9.90625 14.15625,0 7.65625,-9.90625 0,-11.34375 29.625,0 0,11.34375 29.625,0 0,-11.34375 29.28125,0 0.34375,-94.96875 0,106.3125 -7.09375,0 c 0,0 1.31713,5.68026 3.5625,7.0625 2.00476,1.23412 5.05774,1.23412 7.0625,0 2.24537,-1.38224 3.5625,-7.0625 3.5625,-7.0625 l 7.0625,-88.59375 0,88.59375 15.46875,0 0,-11.34375 29.625,0 0,11.34375 29.625,0 0,-11.34375 29.625,0 0,11.34375 29.59375,0 0,-11.34375 29.625,0 0,11.34375 15.46875,0 0,-88.59375 7.0625,88.59375 c 0.20953,2.62837 1.31713,5.68026 3.5625,7.0625 2.01363,1.23958 5.08232,1.24314 7.09375,0 2.23895,-1.38374 3.53125,-7.0625 3.53125,-7.0625 l -7.09375,0 0,-106.3125 0.375,94.96875 29.25,0 0,11.34375 29.625,0 0,-11.34375 29.625,0 0,11.34375 18.28125,0 0,-29.625 11.3438,0 0,18.28125 10.625,0 0,-421.656245 -10.625,0 0,18.28125 -11.3438,0 0,-29.625 -18.28125,0 0,11.34375 -29.625,0 0,-11.34375 -29.625,0 0,11.34375 -29.25,0 -0.375,94.968755 0,-106.312505 7.09375,0 c 0,0 -1.2856,-5.703124 -3.53125,-7.09375 -2.01034,-1.244908 -5.08122,-1.241364 -7.09375,0 -2.25206,1.389112 -3.35223,4.4561 -3.5625,7.09375 l -7.0625,88.593755 0,-88.593755 -15.46875,0 0,11.34375 -29.625,0 0,-11.34375 -29.59375,0 0,11.34375 -29.625,0 0,-11.34375 -29.625,0 0,11.34375 -29.625,0 0,-11.34375 -15.46875,0 0,88.593755 -7.0625,-88.593755 c -0.21027,-2.63765 -1.31044,-5.704638 -3.5625,-7.09375 -2.00366,-1.235895 -5.05884,-1.235895 -7.0625,0 z"
         style="fill:none;stroke:#ff0000;stroke-width:0.70866144;stroke-linecap:butt;stroke-linejoin:miter;stroke-miterlimit:4;stroke-opacity:1;stroke-dasharray:none"
         inkscape:connector-curvature="0" />
      <path
         id="path3244"
         d="m 559.125,43.088785 11.34375,0 0,29.625 -11.34375,0 z"
         style="fill:none;stroke:#0000ff;stroke-width:0.70866144;stroke-linecap:butt;stroke-linejoin:miter;stroke-miterlimit:4;stroke-opacity:1;stroke-dasharray:none"
         inkscape:connector-curvature="0" />
      <path
         id="path3246"
         d="m 992.125,72.713785 11.3438,0 0,29.625005 -11.3438,0 z"
         style="fill:none;stroke:#0000ff;stroke-width:0.70866144;stroke-linecap:butt;stroke-linejoin:miter;stroke-miterlimit:4;stroke-opacity:1;stroke-dasharray:none"
         inkscape:connector-curvature="0" />
      <path
         id="path3248"
         d="m 559.125,102.33879 11.34375,0 0,29.62499 -11.34375,0 z"
         style="fill:none;stroke:#0000ff;stroke-width:0.70866144;stroke-linecap:butt;stroke-linejoin:miter;stroke-miterlimit:4;stroke-opacity:1;stroke-dasharray:none"
         inkscape:connector-curvature="0" />
      <path
         id="path3250"
         d="m 992.125,131.96378 11.3438,0 0,29.625 -11.3438,0 z"
         style="fill:none;stroke:#0000ff;stroke-width:0.70866144;stroke-linecap:butt;stroke-linejoin:miter;stroke-miterlimit:4;stroke-opacity:1;stroke-dasharray:none"
         inkscape:connector-curvature="0" />
      <path
         id="path3252"
         d="m 559.125,161.58878 11.34375,0 0,29.59375 -11.34375,0 z"
         style="fill:none;stroke:#0000ff;stroke-width:0.70866144;stroke-linecap:butt;stroke-linejoin:miter;stroke-miterlimit:4;stroke-opacity:1;stroke-dasharray:none"
         inkscape:connector-curvature="0" />
      <path
         id="path3254"
         d="m 992.125,191.18253 11.3438,0 0,29.625 -11.3438,0 z"
         style="fill:none;stroke:#0000ff;stroke-width:0.70866144;stroke-linecap:butt;stroke-linejoin:miter;stroke-miterlimit:4;stroke-opacity:1;stroke-dasharray:none"
         inkscape:connector-curvature="0" />
      <path
         id="path3256"
         d="m 559.125,220.80753 11.34375,0 0,29.625 -11.34375,0 z"
         style="fill:none;stroke:#0000ff;stroke-width:0.70866144;stroke-linecap:butt;stroke-linejoin:miter;stroke-miterlimit:4;stroke-opacity:1;stroke-dasharray:none"
         inkscape:connector-curvature="0" />
      <path
         id="path3258"
         d="m 992.125,250.43253 11.3438,0 0,29.625 -11.3438,0 z"
         style="fill:none;stroke:#0000ff;stroke-width:0.70866144;stroke-linecap:butt;stroke-linejoin:miter;stroke-miterlimit:4;stroke-opacity:1;stroke-dasharray:none"
         inkscape:connector-curvature="0" />
      <path
         id="path3260"
         d="m 559.125,280.05753 11.34375,0 0,29.625 -11.34375,0 z"
         style="fill:none;stroke:#0000ff;stroke-width:0.70866144;stroke-linecap:butt;stroke-linejoin:miter;stroke-miterlimit:4;stroke-opacity:1;stroke-dasharray:none"
         inkscape:connector-curvature="0" />
      <path
         id="path3262"
         d="m 992.125,309.68253 11.3438,0 0,29.625 -11.3438,0 z"
         style="fill:none;stroke:#0000ff;stroke-width:0.70866144;stroke-linecap:butt;stroke-linejoin:miter;stroke-miterlimit:4;stroke-opacity:1;stroke-dasharray:none"
         inkscape:connector-curvature="0" />
      <path
         id="path3264"
         d="m 559.125,339.30753 11.34375,0 0,29.625 -11.34375,0 z"
         style="fill:none;stroke:#0000ff;stroke-width:0.70866144;stroke-linecap:butt;stroke-linejoin:miter;stroke-miterlimit:4;stroke-opacity:1;stroke-dasharray:none"
         inkscape:connector-curvature="0" />
      <path
         id="path3266"
         d="m 992.125,368.93253 11.3438,0 0,29.625 -11.3438,0 z"
         style="fill:none;stroke:#0000ff;stroke-width:0.70866144;stroke-linecap:butt;stroke-linejoin:miter;stroke-miterlimit:4;stroke-opacity:1;stroke-dasharray:none"
         inkscape:connector-curvature="0" />
      <path
         id="path3268"
         d="m 559.125,398.55753 11.34375,0 0,29.625 -11.34375,0 z"
         style="fill:none;stroke:#0000ff;stroke-width:0.70866144;stroke-linecap:butt;stroke-linejoin:miter;stroke-miterlimit:4;stroke-opacity:1;stroke-dasharray:none"
         inkscape:connector-curvature="0" />
      <path
         sodipodi:nodetypes="cc"
         inkscape:connector-curvature="0"
         id="path3270"
         d="m 627.1654,24.80303 2e-5,421.65355"
         style="fill:none;stroke:#000000;stroke-width:0.70866144;stroke-linecap:butt;stroke-linejoin:miter;stroke-miterlimit:4;stroke-opacity:1;stroke-dasharray:none" />
      <path
         sodipodi:nodetypes="cc"
         inkscape:connector-curvature="0"
         id="path3272"
         d="m 678.54339,120.80303 0,229.65355"
         style="fill:none;stroke:#000000;stroke-width:0.70866144;stroke-linecap:butt;stroke-linejoin:miter;stroke-miterlimit:4;stroke-opacity:1;stroke-dasharray:none" />
      <path
         sodipodi:nodetypes="cc"
         inkscape:connector-curvature="0"
         id="path3274"
         d="m 729.92134,24.80303 0,421.65355"
         style="fill:none;stroke:#000000;stroke-width:0.70866144;stroke-linecap:butt;stroke-linejoin:miter;stroke-miterlimit:4;stroke-opacity:1;stroke-dasharray:none" />
      <path
         sodipodi:nodetypes="cc"
         inkscape:connector-curvature="0"
         id="path3276"
         d="m 781.29927,24.80303 4e-5,421.65355"
         style="fill:none;stroke:#000000;stroke-width:0.70866144;stroke-linecap:butt;stroke-linejoin:miter;stroke-miterlimit:4;stroke-opacity:1;stroke-dasharray:none" />
      <path
         sodipodi:nodetypes="cc"
         inkscape:connector-curvature="0"
         id="path3278"
         d="m 832.67724,24.80303 0,421.65355"
         style="fill:none;stroke:#000000;stroke-width:0.70866144;stroke-linecap:butt;stroke-linejoin:miter;stroke-miterlimit:4;stroke-opacity:1;stroke-dasharray:none" />
      <path
         sodipodi:nodetypes="cc"
         inkscape:connector-curvature="0"
         id="path3280"
         d="m 884.05517,350.45658 2e-5,-229.65355"
         style="fill:none;stroke:#000000;stroke-width:0.70866144;stroke-linecap:butt;stroke-linejoin:miter;stroke-miterlimit:4;stroke-opacity:1;stroke-dasharray:none" />
      <path
         sodipodi:nodetypes="cc"
         inkscape:connector-curvature="0"
         id="path3282"
         d="m 935.43313,24.80303 -10e-6,421.65355"
         style="fill:none;stroke:#000000;stroke-width:0.70866144;stroke-linecap:butt;stroke-linejoin:miter;stroke-miterlimit:4;stroke-opacity:1;stroke-dasharray:none" />
      <path
         sodipodi:nodetypes="cc"
         inkscape:connector-curvature="0"
         id="path3284"
         d="m 570.47237,81.49586 421.65355,3e-5"
         style="fill:none;stroke:#000000;stroke-width:0.70866144;stroke-linecap:butt;stroke-linejoin:miter;stroke-miterlimit:4;stroke-opacity:1;stroke-dasharray:none" />
      <path
         sodipodi:nodetypes="cc"
         inkscape:connector-curvature="0"
         id="path3286"
         d="m 570.47237,132.8738 421.65355,2e-5"
         style="fill:none;stroke:#000000;stroke-width:0.70866144;stroke-linecap:butt;stroke-linejoin:miter;stroke-miterlimit:4;stroke-opacity:1;stroke-dasharray:none" />
      <path
         sodipodi:nodetypes="cc"
         inkscape:connector-curvature="0"
         id="path3288"
         d="m 570.47237,184.25175 421.65355,-2e-5"
         style="fill:none;stroke:#000000;stroke-width:0.70866144;stroke-linecap:butt;stroke-linejoin:miter;stroke-miterlimit:4;stroke-opacity:1;stroke-dasharray:none" />
      <path
         sodipodi:nodetypes="cc"
         inkscape:connector-curvature="0"
         id="path3290"
         d="m 570.47237,235.62966 421.65355,2e-5"
         style="fill:none;stroke:#000000;stroke-width:0.70866144;stroke-linecap:butt;stroke-linejoin:miter;stroke-miterlimit:4;stroke-opacity:1;stroke-dasharray:none" />
      <path
         sodipodi:nodetypes="cc"
         inkscape:connector-curvature="0"
         id="path3292"
         d="m 570.47237,287.00761 421.65355,0"
         style="fill:none;stroke:#000000;stroke-width:0.70866144;stroke-linecap:butt;stroke-linejoin:miter;stroke-miterlimit:4;stroke-opacity:1;stroke-dasharray:none" />
      <path
         sodipodi:nodetypes="cc"
         inkscape:connector-curvature="0"
         id="path3294"
         d="m 570.47237,338.3855 421.65355,6e-5"
         style="fill:none;stroke:#000000;stroke-width:0.70866144;stroke-linecap:butt;stroke-linejoin:miter;stroke-miterlimit:4;stroke-opacity:1;stroke-dasharray:none" />
      <path
         sodipodi:nodetypes="cc"
         inkscape:connector-curvature="0"
         id="path3296"
         d="m 570.47237,389.76343 421.65355,0"
         style="fill:none;stroke:#000000;stroke-width:0.70866144;stroke-linecap:butt;stroke-linejoin:miter;stroke-miterlimit:4;stroke-opacity:1;stroke-dasharray:none" />
    </g>
  </g>
  <g
     inkscape:groupmode="layer"
     id="layer2"
     inkscape:label="Layer"
     style="display:inline">
    <g
       id="g18711" />
  </g>
</svg>
