<?xml version="1.0" encoding="UTF-8" standalone="no"?>
<!-- Created with Inkscape (http://www.inkscape.org/) -->

<svg
   xmlns:dc="http://purl.org/dc/elements/1.1/"
   xmlns:cc="http://creativecommons.org/ns#"
   xmlns:rdf="http://www.w3.org/1999/02/22-rdf-syntax-ns#"
   xmlns:svg="http://www.w3.org/2000/svg"
   xmlns="http://www.w3.org/2000/svg"
   xmlns:sodipodi="http://sodipodi.sourceforge.net/DTD/sodipodi-0.dtd"
   xmlns:inkscape="http://www.inkscape.org/namespaces/inkscape"
   width="1062.9921"
   height="1062.9921"
   id="svg2"
   version="1.1"
   inkscape:version="0.48.4 r9939"
   sodipodi:docname="left-right_side.svg">
  <defs
     id="defs4" />
  <sodipodi:namedview
     id="base"
     pagecolor="#ffffff"
     bordercolor="#666666"
     borderopacity="1.0"
     inkscape:pageopacity="0.0"
     inkscape:pageshadow="2"
     inkscape:zoom="0.81280005"
     inkscape:cx="531.49603"
     inkscape:cy="531.49603"
     inkscape:document-units="mm"
     inkscape:current-layer="layer1"
     showgrid="false"
     units="mm"
     inkscape:object-nodes="true"
     inkscape:window-width="1920"
     inkscape:window-height="1018"
     inkscape:window-x="0"
     inkscape:window-y="27"
     inkscape:window-maximized="1"
     inkscape:snap-bbox="false"
     inkscape:snap-nodes="true"
     inkscape:snap-smooth-nodes="true"
     inkscape:object-paths="true">
    <inkscape:grid
       type="xygrid"
       id="grid2985"
       empspacing="5"
       visible="true"
       enabled="true"
       snapvisiblegridlinesonly="true"
       units="mm"
       spacingx="1mm"
       spacingy="1mm" />
  </sodipodi:namedview>
  <metadata
     id="metadata7">
    <rdf:RDF>
      <cc:Work
         rdf:about="">
        <dc:format>image/svg+xml</dc:format>
        <dc:type
           rdf:resource="http://purl.org/dc/dcmitype/StillImage" />
        <dc:title />
      </cc:Work>
    </rdf:RDF>
  </metadata>
  <g
     inkscape:label="Layer 1"
     inkscape:groupmode="layer"
     id="layer1"
     transform="translate(0,10.629965)"
     style="display:inline">
    <g
       inkscape:tile-y0="39.499"
       inkscape:tile-x0="41.362909"
       style="stroke-width:0.70866144;stroke-miterlimit:4;stroke-dasharray:none;display:inline"
       id="use3036"
       transform="translate(50.097903,48.423222)">
      <g
         style="stroke-width:0.70866144;stroke-miterlimit:4;stroke-dasharray:none"
         id="g3046"
         transform="translate(439.37007,-109.84253)">
        <g
           transform="translate(543.51143,-2.39173)"
           style="stroke:#000000;stroke-width:0.70866144;stroke-miterlimit:4;stroke-dasharray:none"
           id="g3048">
          <path
             style="fill:none;stroke:#000000;stroke-width:0.70866144;stroke-linecap:butt;stroke-linejoin:miter;stroke-miterlimit:4;stroke-opacity:1;stroke-dasharray:none"
             d="m -890.7554,147.66726 2e-5,421.65355"
             id="path3050"
             inkscape:connector-curvature="0"
             transform="translate(0,-10.629965)"
             sodipodi:nodetypes="cc" />
          <path
             style="fill:none;stroke:#000000;stroke-width:0.70866144;stroke-linecap:butt;stroke-linejoin:miter;stroke-miterlimit:4;stroke-opacity:1;stroke-dasharray:none"
             d="m -839.37741,147.66726 0,421.65355"
             id="path3052"
             inkscape:connector-curvature="0"
             transform="translate(0,-10.629965)"
             sodipodi:nodetypes="cc" />
          <path
             style="fill:none;stroke:#000000;stroke-width:0.70866144;stroke-linecap:butt;stroke-linejoin:miter;stroke-miterlimit:4;stroke-opacity:1;stroke-dasharray:none"
             d="m -787.99946,147.66726 0,421.65355"
             id="path3054"
             inkscape:connector-curvature="0"
             transform="translate(0,-10.629965)"
             sodipodi:nodetypes="cc" />
          <path
             style="fill:none;stroke:#000000;stroke-width:0.70866144;stroke-linecap:butt;stroke-linejoin:miter;stroke-miterlimit:4;stroke-opacity:1;stroke-dasharray:none"
             d="m -736.62153,147.66726 4e-5,421.65355"
             id="path3056"
             inkscape:connector-curvature="0"
             transform="translate(0,-10.629965)"
             sodipodi:nodetypes="cc" />
          <path
             style="fill:none;stroke:#000000;stroke-width:0.70866144;stroke-linecap:butt;stroke-linejoin:miter;stroke-miterlimit:4;stroke-opacity:1;stroke-dasharray:none"
             d="m -685.24356,147.66726 0,421.65355"
             id="path3058"
             inkscape:connector-curvature="0"
             transform="translate(0,-10.629965)"
             sodipodi:nodetypes="cc" />
          <path
             style="fill:none;stroke:#000000;stroke-width:0.70866144;stroke-linecap:butt;stroke-linejoin:miter;stroke-miterlimit:4;stroke-opacity:1;stroke-dasharray:none"
             d="m -633.86563,569.32081 2e-5,-421.65355"
             id="path3060"
             inkscape:connector-curvature="0"
             transform="translate(0,-10.629965)"
             sodipodi:nodetypes="cc" />
          <path
             style="fill:none;stroke:#000000;stroke-width:0.70866144;stroke-linecap:butt;stroke-linejoin:miter;stroke-miterlimit:4;stroke-opacity:1;stroke-dasharray:none"
             d="m -582.48767,147.66726 -10e-6,421.65355"
             id="path3062"
             inkscape:connector-curvature="0"
             transform="translate(0,-10.629965)"
             sodipodi:nodetypes="cc" />
          <path
             style="fill:none;stroke:#000000;stroke-width:0.70866144;stroke-linecap:butt;stroke-linejoin:miter;stroke-miterlimit:4;stroke-opacity:1;stroke-dasharray:none"
             d="m -947.44843,204.36009 421.65355,3e-5"
             id="path3064"
             inkscape:connector-curvature="0"
             transform="translate(0,-10.629965)"
             sodipodi:nodetypes="cc" />
          <path
             style="fill:none;stroke:#000000;stroke-width:0.70866144;stroke-linecap:butt;stroke-linejoin:miter;stroke-miterlimit:4;stroke-opacity:1;stroke-dasharray:none"
             d="m -851.44843,255.73803 325.65355,2e-5"
             id="path3066"
             inkscape:connector-curvature="0"
             transform="translate(0,-10.629965)"
             sodipodi:nodetypes="cc" />
          <path
             style="fill:none;stroke:#000000;stroke-width:0.70866144;stroke-linecap:butt;stroke-linejoin:miter;stroke-miterlimit:4;stroke-opacity:1;stroke-dasharray:none"
             d="m -947.44843,307.11598 421.65355,-2e-5"
             id="path3068"
             inkscape:connector-curvature="0"
             transform="translate(0,-10.629965)"
             sodipodi:nodetypes="cc" />
          <path
             style="fill:none;stroke:#000000;stroke-width:0.70866144;stroke-linecap:butt;stroke-linejoin:miter;stroke-miterlimit:4;stroke-opacity:1;stroke-dasharray:none"
             d="m -947.44843,358.49389 421.65355,2e-5"
             id="path3070"
             inkscape:connector-curvature="0"
             transform="translate(0,-10.629965)"
             sodipodi:nodetypes="cc" />
          <path
             style="fill:none;stroke:#000000;stroke-width:0.70866144;stroke-linecap:butt;stroke-linejoin:miter;stroke-miterlimit:4;stroke-opacity:1;stroke-dasharray:none"
             d="m -947.44843,409.87184 421.65355,0"
             id="path3072"
             inkscape:connector-curvature="0"
             transform="translate(0,-10.629965)"
             sodipodi:nodetypes="cc" />
          <path
             style="fill:none;stroke:#000000;stroke-width:0.70866144;stroke-linecap:butt;stroke-linejoin:miter;stroke-miterlimit:4;stroke-opacity:1;stroke-dasharray:none"
             d="m -947.44843,461.24973 421.65355,6e-5"
             id="path3074"
             inkscape:connector-curvature="0"
             transform="translate(0,-10.629965)"
             sodipodi:nodetypes="cc" />
          <path
             style="fill:none;stroke:#000000;stroke-width:0.70866144;stroke-linecap:butt;stroke-linejoin:miter;stroke-miterlimit:4;stroke-opacity:1;stroke-dasharray:none"
             d="m -895.44843,512.62766 369.65355,0"
             id="path3076"
             inkscape:connector-curvature="0"
             transform="translate(0,-10.629965)"
             sodipodi:nodetypes="cc" />
        </g>
      </g>
      <path
         sodipodi:nodetypes="cccccccccccsssccccccccccccccccccccsssccccccccccccccccccccccccccccccccccccccccccccccsssccccccccccccccccccccssscccccccccccccccccccccccccccccccccccccc"
         inkscape:connector-curvature="0"
         style="fill:none;stroke:#ff0000;stroke-width:0.70866144;stroke-linecap:butt;stroke-linejoin:miter;stroke-miterlimit:4;stroke-opacity:1;stroke-dasharray:none;display:inline"
         d="m 24.09375,24.09375 0,29.625 11.34375,0 0,29.625 -11.34375,0 0,29.625 11.34375,0 0,29.25 94.96875,0.375 -106.3125,0 0,-7.09375 c 0,0 -5.703124,1.2856 -7.09375,3.53125 -1.244908,2.01034 -1.244908,5.08341 0,7.09375 1.390626,2.24565 4.460817,3.32043 7.09375,3.53125 l 88.59375,7.09375 -88.59375,0 0,15.46875 11.34375,0 0,29.59375 -11.34375,0 0,29.625 11.34375,0 0,29.625 -11.34375,0 0,29.625 11.34375,0 0,29.625 -11.34375,0 0,29.625 11.34375,0 0,29.625 -11.34375,0 0,15.4375 88.59375,0 -88.59375,7.09375 c -2.632933,0.21082 -5.703124,1.2856 -7.09375,3.53125 -1.244908,2.01034 -1.241364,5.08122 0,7.09375 1.389112,2.25206 7.09375,3.5625 7.09375,3.5625 l 0,-7.09375 106.3125,0 -94.96875,0.34375 0,29.28125 -11.34375,0 0,29.625 7.8125,9.90625 14.15625,0 7.65625,-9.90625 0,-11.34375 29.625,0 0,11.34375 29.625,0 0,-11.34375 29.625,0 0,11.34375 29.625,0 0,-11.34375 29.59375,0 0,11.34375 29.625,0 0,-11.34375 29.625,0 0,11.34375 29.625,0 0,-11.34375 29.625,0 0,11.34375 29.625,0 0,-11.34375 29.625,0 0,11.34375 29.625,0 0,-11.34375 29.625,0 0,11.34375 18.28125,0 0,-29.625 11.34375,0 0,-29.625 -11.34375,0 0,-29.28125 -94.96875,-0.34375 106.3125,0 0,7.09375 c 0,0 5.68026,-1.31713 7.0625,-3.5625 1.23412,-2.00476 1.23412,-5.05774 0,-7.0625 -1.38224,-2.24537 -4.4342,-3.35205 -7.0625,-3.5625 l -88.59375,-7.09375 88.59375,0 0,-15.4375 -11.34375,0 0,-29.625 11.34375,0 0,-29.625 -11.34375,0 0,-29.625 11.34375,0 0,-29.625 -11.34375,0 0,-29.625 11.34375,0 0,-29.59375 -11.34375,0 0,-29.625 11.34375,0 0,-15.46875 -88.59375,0 88.59375,-7.0625 c 2.62837,-0.20953 5.68026,-1.31713 7.0625,-3.5625 1.23958,-2.01363 1.24314,-5.08232 0,-7.09375 -1.38374,-2.23895 -7.0625,-3.53125 -7.0625,-3.53125 l 0,7.09375 -106.3125,0 94.96875,-0.375 0,-29.25 11.34375,0 0,-29.625 -11.34375,0 0,-29.625 -18.28125,0 0,11.34375 -29.625,0 0,-11.34375 -29.625,0 0,11.34375 -29.625,0 0,-11.34375 -29.625,0 0,11.34375 -29.625,0 0,-11.34375 -29.625,0 0,11.34375 -29.625,0 0,-11.34375 -29.625,0 0,11.34375 -29.59375,0 0,-11.34375 -29.625,0 0,11.34375 -29.625,0 0,-11.34375 -29.625,0 0,11.34375 -29.625,0 0,-11.34375 z"
         transform="translate(0,-10.629965)"
         id="path3078" />
    </g>
    <g
       inkscape:tile-y0="39.499"
       inkscape:tile-x0="41.362909"
       style="stroke-width:0.70866144;stroke-miterlimit:4;stroke-dasharray:none;display:inline"
       id="use3038"
       transform="matrix(0.99999848,0.00174533,-0.00174533,0.99999848,50.536737,512.05166)">
      <g
         style="stroke-width:0.70866144;stroke-miterlimit:4;stroke-dasharray:none"
         id="g3082"
         transform="translate(439.37007,-109.84253)">
        <g
           transform="translate(543.51143,-2.39173)"
           style="stroke:#000000;stroke-width:0.70866144;stroke-miterlimit:4;stroke-dasharray:none"
           id="g3084">
          <path
             style="fill:none;stroke:#000000;stroke-width:0.70866144;stroke-linecap:butt;stroke-linejoin:miter;stroke-miterlimit:4;stroke-opacity:1;stroke-dasharray:none"
             d="m -890.7554,147.66726 2e-5,421.65355"
             id="path3086"
             inkscape:connector-curvature="0"
             transform="translate(0,-10.629965)"
             sodipodi:nodetypes="cc" />
          <path
             style="fill:none;stroke:#000000;stroke-width:0.70866144;stroke-linecap:butt;stroke-linejoin:miter;stroke-miterlimit:4;stroke-opacity:1;stroke-dasharray:none"
             d="m -839.37741,147.66726 0,421.65355"
             id="path3088"
             inkscape:connector-curvature="0"
             transform="translate(0,-10.629965)"
             sodipodi:nodetypes="cc" />
          <path
             style="fill:none;stroke:#000000;stroke-width:0.70866144;stroke-linecap:butt;stroke-linejoin:miter;stroke-miterlimit:4;stroke-opacity:1;stroke-dasharray:none"
             d="m -787.99946,147.66726 0,421.65355"
             id="path3090"
             inkscape:connector-curvature="0"
             transform="translate(0,-10.629965)"
             sodipodi:nodetypes="cc" />
          <path
             style="fill:none;stroke:#000000;stroke-width:0.70866144;stroke-linecap:butt;stroke-linejoin:miter;stroke-miterlimit:4;stroke-opacity:1;stroke-dasharray:none"
             d="m -736.62153,147.66726 4e-5,421.65355"
             id="path3092"
             inkscape:connector-curvature="0"
             transform="translate(0,-10.629965)"
             sodipodi:nodetypes="cc" />
          <path
             style="fill:none;stroke:#000000;stroke-width:0.70866144;stroke-linecap:butt;stroke-linejoin:miter;stroke-miterlimit:4;stroke-opacity:1;stroke-dasharray:none"
             d="m -685.24356,147.66726 0,421.65355"
             id="path3094"
             inkscape:connector-curvature="0"
             transform="translate(0,-10.629965)"
             sodipodi:nodetypes="cc" />
          <path
             style="fill:none;stroke:#000000;stroke-width:0.70866144;stroke-linecap:butt;stroke-linejoin:miter;stroke-miterlimit:4;stroke-opacity:1;stroke-dasharray:none"
             d="m -633.86563,569.32081 2e-5,-421.65355"
             id="path3096"
             inkscape:connector-curvature="0"
             transform="translate(0,-10.629965)"
             sodipodi:nodetypes="cc" />
          <path
             style="fill:none;stroke:#000000;stroke-width:0.70866144;stroke-linecap:butt;stroke-linejoin:miter;stroke-miterlimit:4;stroke-opacity:1;stroke-dasharray:none"
             d="m -582.48767,147.66726 -10e-6,421.65355"
             id="path3098"
             inkscape:connector-curvature="0"
             transform="translate(0,-10.629965)"
             sodipodi:nodetypes="cc" />
          <path
             style="fill:none;stroke:#000000;stroke-width:0.70866144;stroke-linecap:butt;stroke-linejoin:miter;stroke-miterlimit:4;stroke-opacity:1;stroke-dasharray:none"
             d="m -947.44843,204.36009 421.65355,3e-5"
             id="path3100"
             inkscape:connector-curvature="0"
             transform="translate(0,-10.629965)"
             sodipodi:nodetypes="cc" />
          <path
             style="fill:none;stroke:#000000;stroke-width:0.70866144;stroke-linecap:butt;stroke-linejoin:miter;stroke-miterlimit:4;stroke-opacity:1;stroke-dasharray:none"
             d="m -851.44843,255.73803 325.65355,2e-5"
             id="path3102"
             inkscape:connector-curvature="0"
             transform="translate(0,-10.629965)"
             sodipodi:nodetypes="cc" />
          <path
             style="fill:none;stroke:#000000;stroke-width:0.70866144;stroke-linecap:butt;stroke-linejoin:miter;stroke-miterlimit:4;stroke-opacity:1;stroke-dasharray:none"
             d="m -947.44843,307.11598 421.65355,-2e-5"
             id="path3104"
             inkscape:connector-curvature="0"
             transform="translate(0,-10.629965)"
             sodipodi:nodetypes="cc" />
          <path
             style="fill:none;stroke:#000000;stroke-width:0.70866144;stroke-linecap:butt;stroke-linejoin:miter;stroke-miterlimit:4;stroke-opacity:1;stroke-dasharray:none"
             d="m -947.44843,358.49389 421.65355,2e-5"
             id="path3106"
             inkscape:connector-curvature="0"
             transform="translate(0,-10.629965)"
             sodipodi:nodetypes="cc" />
          <path
             style="fill:none;stroke:#000000;stroke-width:0.70866144;stroke-linecap:butt;stroke-linejoin:miter;stroke-miterlimit:4;stroke-opacity:1;stroke-dasharray:none"
             d="m -947.44843,409.87184 421.65355,0"
             id="path3108"
             inkscape:connector-curvature="0"
             transform="translate(0,-10.629965)"
             sodipodi:nodetypes="cc" />
          <path
             style="fill:none;stroke:#000000;stroke-width:0.70866144;stroke-linecap:butt;stroke-linejoin:miter;stroke-miterlimit:4;stroke-opacity:1;stroke-dasharray:none"
             d="m -947.44843,461.24973 421.65355,6e-5"
             id="path3110"
             inkscape:connector-curvature="0"
             transform="translate(0,-10.629965)"
             sodipodi:nodetypes="cc" />
          <path
             style="fill:none;stroke:#000000;stroke-width:0.70866144;stroke-linecap:butt;stroke-linejoin:miter;stroke-miterlimit:4;stroke-opacity:1;stroke-dasharray:none"
             d="m -895.44843,512.62766 369.65355,0"
             id="path3112"
             inkscape:connector-curvature="0"
             transform="translate(0,-10.629965)"
             sodipodi:nodetypes="cc" />
        </g>
      </g>
      <path
         sodipodi:nodetypes="cccccccccccsssccccccccccccccccccccsssccccccccccccccccccccccccccccccccccccccccccccccsssccccccccccccccccccccssscccccccccccccccccccccccccccccccccccccc"
         inkscape:connector-curvature="0"
         style="fill:none;stroke:#ff0000;stroke-width:0.70866144;stroke-linecap:butt;stroke-linejoin:miter;stroke-miterlimit:4;stroke-opacity:1;stroke-dasharray:none;display:inline"
         d="m 24.09375,24.09375 0,29.625 11.34375,0 0,29.625 -11.34375,0 0,29.625 11.34375,0 0,29.25 94.96875,0.375 -106.3125,0 0,-7.09375 c 0,0 -5.703124,1.2856 -7.09375,3.53125 -1.244908,2.01034 -1.244908,5.08341 0,7.09375 1.390626,2.24565 4.460817,3.32043 7.09375,3.53125 l 88.59375,7.09375 -88.59375,0 0,15.46875 11.34375,0 0,29.59375 -11.34375,0 0,29.625 11.34375,0 0,29.625 -11.34375,0 0,29.625 11.34375,0 0,29.625 -11.34375,0 0,29.625 11.34375,0 0,29.625 -11.34375,0 0,15.4375 88.59375,0 -88.59375,7.09375 c -2.632933,0.21082 -5.703124,1.2856 -7.09375,3.53125 -1.244908,2.01034 -1.241364,5.08122 0,7.09375 1.389112,2.25206 7.09375,3.5625 7.09375,3.5625 l 0,-7.09375 106.3125,0 -94.96875,0.34375 0,29.28125 -11.34375,0 0,29.625 7.8125,9.90625 14.15625,0 7.65625,-9.90625 0,-11.34375 29.625,0 0,11.34375 29.625,0 0,-11.34375 29.625,0 0,11.34375 29.625,0 0,-11.34375 29.59375,0 0,11.34375 29.625,0 0,-11.34375 29.625,0 0,11.34375 29.625,0 0,-11.34375 29.625,0 0,11.34375 29.625,0 0,-11.34375 29.625,0 0,11.34375 29.625,0 0,-11.34375 29.625,0 0,11.34375 18.28125,0 0,-29.625 11.34375,0 0,-29.625 -11.34375,0 0,-29.28125 -94.96875,-0.34375 106.3125,0 0,7.09375 c 0,0 5.68026,-1.31713 7.0625,-3.5625 1.23412,-2.00476 1.23412,-5.05774 0,-7.0625 -1.38224,-2.24537 -4.4342,-3.35205 -7.0625,-3.5625 l -88.59375,-7.09375 88.59375,0 0,-15.4375 -11.34375,0 0,-29.625 11.34375,0 0,-29.625 -11.34375,0 0,-29.625 11.34375,0 0,-29.625 -11.34375,0 0,-29.625 11.34375,0 0,-29.59375 -11.34375,0 0,-29.625 11.34375,0 0,-15.46875 -88.59375,0 88.59375,-7.0625 c 2.62837,-0.20953 5.68026,-1.31713 7.0625,-3.5625 1.23958,-2.01363 1.24314,-5.08232 0,-7.09375 -1.38374,-2.23895 -7.0625,-3.53125 -7.0625,-3.53125 l 0,7.09375 -106.3125,0 94.96875,-0.375 0,-29.25 11.34375,0 0,-29.625 -11.34375,0 0,-29.625 -18.28125,0 0,11.34375 -29.625,0 0,-11.34375 -29.625,0 0,11.34375 -29.625,0 0,-11.34375 -29.625,0 0,11.34375 -29.625,0 0,-11.34375 -29.625,0 0,11.34375 -29.625,0 0,-11.34375 -29.625,0 0,11.34375 -29.59375,0 0,-11.34375 -29.625,0 0,11.34375 -29.625,0 0,-11.34375 -29.625,0 0,11.34375 -29.625,0 0,-11.34375 z"
         transform="translate(0,-10.629965)"
         id="path3114" />
    </g>
    <g
       inkscape:tile-y0="39.499"
       inkscape:tile-x0="41.362909"
       style="stroke-width:0.70866144;stroke-miterlimit:4;stroke-dasharray:none;display:inline"
       id="use3040"
       transform="translate(520.39273,48.423222)">
      <g
         style="stroke-width:0.70866144;stroke-miterlimit:4;stroke-dasharray:none"
         id="g3118"
         transform="translate(439.37007,-109.84253)">
        <g
           transform="translate(543.51143,-2.39173)"
           style="stroke:#000000;stroke-width:0.70866144;stroke-miterlimit:4;stroke-dasharray:none"
           id="g3120">
          <path
             style="fill:none;stroke:#000000;stroke-width:0.70866144;stroke-linecap:butt;stroke-linejoin:miter;stroke-miterlimit:4;stroke-opacity:1;stroke-dasharray:none"
             d="m -890.7554,147.66726 2e-5,421.65355"
             id="path3122"
             inkscape:connector-curvature="0"
             transform="translate(0,-10.629965)"
             sodipodi:nodetypes="cc" />
          <path
             style="fill:none;stroke:#000000;stroke-width:0.70866144;stroke-linecap:butt;stroke-linejoin:miter;stroke-miterlimit:4;stroke-opacity:1;stroke-dasharray:none"
             d="m -839.37741,147.66726 0,421.65355"
             id="path3124"
             inkscape:connector-curvature="0"
             transform="translate(0,-10.629965)"
             sodipodi:nodetypes="cc" />
          <path
             style="fill:none;stroke:#000000;stroke-width:0.70866144;stroke-linecap:butt;stroke-linejoin:miter;stroke-miterlimit:4;stroke-opacity:1;stroke-dasharray:none"
             d="m -787.99946,147.66726 0,421.65355"
             id="path3126"
             inkscape:connector-curvature="0"
             transform="translate(0,-10.629965)"
             sodipodi:nodetypes="cc" />
          <path
             style="fill:none;stroke:#000000;stroke-width:0.70866144;stroke-linecap:butt;stroke-linejoin:miter;stroke-miterlimit:4;stroke-opacity:1;stroke-dasharray:none"
             d="m -736.62153,147.66726 4e-5,421.65355"
             id="path3128"
             inkscape:connector-curvature="0"
             transform="translate(0,-10.629965)"
             sodipodi:nodetypes="cc" />
          <path
             style="fill:none;stroke:#000000;stroke-width:0.70866144;stroke-linecap:butt;stroke-linejoin:miter;stroke-miterlimit:4;stroke-opacity:1;stroke-dasharray:none"
             d="m -685.24356,147.66726 0,421.65355"
             id="path3130"
             inkscape:connector-curvature="0"
             transform="translate(0,-10.629965)"
             sodipodi:nodetypes="cc" />
          <path
             style="fill:none;stroke:#000000;stroke-width:0.70866144;stroke-linecap:butt;stroke-linejoin:miter;stroke-miterlimit:4;stroke-opacity:1;stroke-dasharray:none"
             d="m -633.86563,569.32081 2e-5,-421.65355"
             id="path3132"
             inkscape:connector-curvature="0"
             transform="translate(0,-10.629965)"
             sodipodi:nodetypes="cc" />
          <path
             style="fill:none;stroke:#000000;stroke-width:0.70866144;stroke-linecap:butt;stroke-linejoin:miter;stroke-miterlimit:4;stroke-opacity:1;stroke-dasharray:none"
             d="m -582.48767,147.66726 -10e-6,421.65355"
             id="path3134"
             inkscape:connector-curvature="0"
             transform="translate(0,-10.629965)"
             sodipodi:nodetypes="cc" />
          <path
             style="fill:none;stroke:#000000;stroke-width:0.70866144;stroke-linecap:butt;stroke-linejoin:miter;stroke-miterlimit:4;stroke-opacity:1;stroke-dasharray:none"
             d="m -947.44843,204.36009 421.65355,3e-5"
             id="path3136"
             inkscape:connector-curvature="0"
             transform="translate(0,-10.629965)"
             sodipodi:nodetypes="cc" />
          <path
             style="fill:none;stroke:#000000;stroke-width:0.70866144;stroke-linecap:butt;stroke-linejoin:miter;stroke-miterlimit:4;stroke-opacity:1;stroke-dasharray:none"
             d="m -851.44843,255.73803 325.65355,2e-5"
             id="path3138"
             inkscape:connector-curvature="0"
             transform="translate(0,-10.629965)"
             sodipodi:nodetypes="cc" />
          <path
             style="fill:none;stroke:#000000;stroke-width:0.70866144;stroke-linecap:butt;stroke-linejoin:miter;stroke-miterlimit:4;stroke-opacity:1;stroke-dasharray:none"
             d="m -947.44843,307.11598 421.65355,-2e-5"
             id="path3140"
             inkscape:connector-curvature="0"
             transform="translate(0,-10.629965)"
             sodipodi:nodetypes="cc" />
          <path
             style="fill:none;stroke:#000000;stroke-width:0.70866144;stroke-linecap:butt;stroke-linejoin:miter;stroke-miterlimit:4;stroke-opacity:1;stroke-dasharray:none"
             d="m -947.44843,358.49389 421.65355,2e-5"
             id="path3142"
             inkscape:connector-curvature="0"
             transform="translate(0,-10.629965)"
             sodipodi:nodetypes="cc" />
          <path
             style="fill:none;stroke:#000000;stroke-width:0.70866144;stroke-linecap:butt;stroke-linejoin:miter;stroke-miterlimit:4;stroke-opacity:1;stroke-dasharray:none"
             d="m -947.44843,409.87184 421.65355,0"
             id="path3144"
             inkscape:connector-curvature="0"
             transform="translate(0,-10.629965)"
             sodipodi:nodetypes="cc" />
          <path
             style="fill:none;stroke:#000000;stroke-width:0.70866144;stroke-linecap:butt;stroke-linejoin:miter;stroke-miterlimit:4;stroke-opacity:1;stroke-dasharray:none"
             d="m -947.44843,461.24973 421.65355,6e-5"
             id="path3146"
             inkscape:connector-curvature="0"
             transform="translate(0,-10.629965)"
             sodipodi:nodetypes="cc" />
          <path
             style="fill:none;stroke:#000000;stroke-width:0.70866144;stroke-linecap:butt;stroke-linejoin:miter;stroke-miterlimit:4;stroke-opacity:1;stroke-dasharray:none"
             d="m -895.44843,512.62766 369.65355,0"
             id="path3148"
             inkscape:connector-curvature="0"
             transform="translate(0,-10.629965)"
             sodipodi:nodetypes="cc" />
        </g>
      </g>
      <path
         sodipodi:nodetypes="cccccccccccsssccccccccccccccccccccsssccccccccccccccccccccccccccccccccccccccccccccccsssccccccccccccccccccccssscccccccccccccccccccccccccccccccccccccc"
         inkscape:connector-curvature="0"
         style="fill:none;stroke:#ff0000;stroke-width:0.70866144;stroke-linecap:butt;stroke-linejoin:miter;stroke-miterlimit:4;stroke-opacity:1;stroke-dasharray:none;display:inline"
         d="m 24.09375,24.09375 0,29.625 11.34375,0 0,29.625 -11.34375,0 0,29.625 11.34375,0 0,29.25 94.96875,0.375 -106.3125,0 0,-7.09375 c 0,0 -5.703124,1.2856 -7.09375,3.53125 -1.244908,2.01034 -1.244908,5.08341 0,7.09375 1.390626,2.24565 4.460817,3.32043 7.09375,3.53125 l 88.59375,7.09375 -88.59375,0 0,15.46875 11.34375,0 0,29.59375 -11.34375,0 0,29.625 11.34375,0 0,29.625 -11.34375,0 0,29.625 11.34375,0 0,29.625 -11.34375,0 0,29.625 11.34375,0 0,29.625 -11.34375,0 0,15.4375 88.59375,0 -88.59375,7.09375 c -2.632933,0.21082 -5.703124,1.2856 -7.09375,3.53125 -1.244908,2.01034 -1.241364,5.08122 0,7.09375 1.389112,2.25206 7.09375,3.5625 7.09375,3.5625 l 0,-7.09375 106.3125,0 -94.96875,0.34375 0,29.28125 -11.34375,0 0,29.625 7.8125,9.90625 14.15625,0 7.65625,-9.90625 0,-11.34375 29.625,0 0,11.34375 29.625,0 0,-11.34375 29.625,0 0,11.34375 29.625,0 0,-11.34375 29.59375,0 0,11.34375 29.625,0 0,-11.34375 29.625,0 0,11.34375 29.625,0 0,-11.34375 29.625,0 0,11.34375 29.625,0 0,-11.34375 29.625,0 0,11.34375 29.625,0 0,-11.34375 29.625,0 0,11.34375 18.28125,0 0,-29.625 11.34375,0 0,-29.625 -11.34375,0 0,-29.28125 -94.96875,-0.34375 106.3125,0 0,7.09375 c 0,0 5.68026,-1.31713 7.0625,-3.5625 1.23412,-2.00476 1.23412,-5.05774 0,-7.0625 -1.38224,-2.24537 -4.4342,-3.35205 -7.0625,-3.5625 l -88.59375,-7.09375 88.59375,0 0,-15.4375 -11.34375,0 0,-29.625 11.34375,0 0,-29.625 -11.34375,0 0,-29.625 11.34375,0 0,-29.625 -11.34375,0 0,-29.625 11.34375,0 0,-29.59375 -11.34375,0 0,-29.625 11.34375,0 0,-15.46875 -88.59375,0 88.59375,-7.0625 c 2.62837,-0.20953 5.68026,-1.31713 7.0625,-3.5625 1.23958,-2.01363 1.24314,-5.08232 0,-7.09375 -1.38374,-2.23895 -7.0625,-3.53125 -7.0625,-3.53125 l 0,7.09375 -106.3125,0 94.96875,-0.375 0,-29.25 11.34375,0 0,-29.625 -11.34375,0 0,-29.625 -18.28125,0 0,11.34375 -29.625,0 0,-11.34375 -29.625,0 0,11.34375 -29.625,0 0,-11.34375 -29.625,0 0,11.34375 -29.625,0 0,-11.34375 -29.625,0 0,11.34375 -29.625,0 0,-11.34375 -29.625,0 0,11.34375 -29.59375,0 0,-11.34375 -29.625,0 0,11.34375 -29.625,0 0,-11.34375 -29.625,0 0,11.34375 -29.625,0 0,-11.34375 z"
         transform="translate(0,-10.629965)"
         id="path3150" />
    </g>
    <g
       inkscape:tile-y0="39.499"
       inkscape:tile-x0="41.362909"
       style="stroke-width:0.70866144;stroke-miterlimit:4;stroke-dasharray:none;display:inline"
       id="use3042"
       transform="matrix(0.99999848,0.00174533,-0.00174533,0.99999848,520.83157,512.05166)">
      <g
         style="stroke-width:0.70866144;stroke-miterlimit:4;stroke-dasharray:none"
         id="g3154"
         transform="translate(439.37007,-109.84253)">
        <g
           transform="translate(543.51143,-2.39173)"
           style="stroke:#000000;stroke-width:0.70866144;stroke-miterlimit:4;stroke-dasharray:none"
           id="g3156">
          <path
             style="fill:none;stroke:#000000;stroke-width:0.70866144;stroke-linecap:butt;stroke-linejoin:miter;stroke-miterlimit:4;stroke-opacity:1;stroke-dasharray:none"
             d="m -890.7554,147.66726 2e-5,421.65355"
             id="path3158"
             inkscape:connector-curvature="0"
             transform="translate(0,-10.629965)"
             sodipodi:nodetypes="cc" />
          <path
             style="fill:none;stroke:#000000;stroke-width:0.70866144;stroke-linecap:butt;stroke-linejoin:miter;stroke-miterlimit:4;stroke-opacity:1;stroke-dasharray:none"
             d="m -839.37741,147.66726 0,421.65355"
             id="path3160"
             inkscape:connector-curvature="0"
             transform="translate(0,-10.629965)"
             sodipodi:nodetypes="cc" />
          <path
             style="fill:none;stroke:#000000;stroke-width:0.70866144;stroke-linecap:butt;stroke-linejoin:miter;stroke-miterlimit:4;stroke-opacity:1;stroke-dasharray:none"
             d="m -787.99946,147.66726 0,421.65355"
             id="path3162"
             inkscape:connector-curvature="0"
             transform="translate(0,-10.629965)"
             sodipodi:nodetypes="cc" />
          <path
             style="fill:none;stroke:#000000;stroke-width:0.70866144;stroke-linecap:butt;stroke-linejoin:miter;stroke-miterlimit:4;stroke-opacity:1;stroke-dasharray:none"
             d="m -736.62153,147.66726 4e-5,421.65355"
             id="path3164"
             inkscape:connector-curvature="0"
             transform="translate(0,-10.629965)"
             sodipodi:nodetypes="cc" />
          <path
             style="fill:none;stroke:#000000;stroke-width:0.70866144;stroke-linecap:butt;stroke-linejoin:miter;stroke-miterlimit:4;stroke-opacity:1;stroke-dasharray:none"
             d="m -685.24356,147.66726 0,421.65355"
             id="path3166"
             inkscape:connector-curvature="0"
             transform="translate(0,-10.629965)"
             sodipodi:nodetypes="cc" />
          <path
             style="fill:none;stroke:#000000;stroke-width:0.70866144;stroke-linecap:butt;stroke-linejoin:miter;stroke-miterlimit:4;stroke-opacity:1;stroke-dasharray:none"
             d="m -633.86563,569.32081 2e-5,-421.65355"
             id="path3168"
             inkscape:connector-curvature="0"
             transform="translate(0,-10.629965)"
             sodipodi:nodetypes="cc" />
          <path
             style="fill:none;stroke:#000000;stroke-width:0.70866144;stroke-linecap:butt;stroke-linejoin:miter;stroke-miterlimit:4;stroke-opacity:1;stroke-dasharray:none"
             d="m -582.48767,147.66726 -10e-6,421.65355"
             id="path3170"
             inkscape:connector-curvature="0"
             transform="translate(0,-10.629965)"
             sodipodi:nodetypes="cc" />
          <path
             style="fill:none;stroke:#000000;stroke-width:0.70866144;stroke-linecap:butt;stroke-linejoin:miter;stroke-miterlimit:4;stroke-opacity:1;stroke-dasharray:none"
             d="m -947.44843,204.36009 421.65355,3e-5"
             id="path3172"
             inkscape:connector-curvature="0"
             transform="translate(0,-10.629965)"
             sodipodi:nodetypes="cc" />
          <path
             style="fill:none;stroke:#000000;stroke-width:0.70866144;stroke-linecap:butt;stroke-linejoin:miter;stroke-miterlimit:4;stroke-opacity:1;stroke-dasharray:none"
             d="m -851.44843,255.73803 325.65355,2e-5"
             id="path3174"
             inkscape:connector-curvature="0"
             transform="translate(0,-10.629965)"
             sodipodi:nodetypes="cc" />
          <path
             style="fill:none;stroke:#000000;stroke-width:0.70866144;stroke-linecap:butt;stroke-linejoin:miter;stroke-miterlimit:4;stroke-opacity:1;stroke-dasharray:none"
             d="m -947.44843,307.11598 421.65355,-2e-5"
             id="path3176"
             inkscape:connector-curvature="0"
             transform="translate(0,-10.629965)"
             sodipodi:nodetypes="cc" />
          <path
             style="fill:none;stroke:#000000;stroke-width:0.70866144;stroke-linecap:butt;stroke-linejoin:miter;stroke-miterlimit:4;stroke-opacity:1;stroke-dasharray:none"
             d="m -947.44843,358.49389 421.65355,2e-5"
             id="path3178"
             inkscape:connector-curvature="0"
             transform="translate(0,-10.629965)"
             sodipodi:nodetypes="cc" />
          <path
             style="fill:none;stroke:#000000;stroke-width:0.70866144;stroke-linecap:butt;stroke-linejoin:miter;stroke-miterlimit:4;stroke-opacity:1;stroke-dasharray:none"
             d="m -947.44843,409.87184 421.65355,0"
             id="path3180"
             inkscape:connector-curvature="0"
             transform="translate(0,-10.629965)"
             sodipodi:nodetypes="cc" />
          <path
             style="fill:none;stroke:#000000;stroke-width:0.70866144;stroke-linecap:butt;stroke-linejoin:miter;stroke-miterlimit:4;stroke-opacity:1;stroke-dasharray:none"
             d="m -947.44843,461.24973 421.65355,6e-5"
             id="path3182"
             inkscape:connector-curvature="0"
             transform="translate(0,-10.629965)"
             sodipodi:nodetypes="cc" />
          <path
             style="fill:none;stroke:#000000;stroke-width:0.70866144;stroke-linecap:butt;stroke-linejoin:miter;stroke-miterlimit:4;stroke-opacity:1;stroke-dasharray:none"
             d="m -895.44843,512.62766 369.65355,0"
             id="path3184"
             inkscape:connector-curvature="0"
             transform="translate(0,-10.629965)"
             sodipodi:nodetypes="cc" />
        </g>
      </g>
      <path
         sodipodi:nodetypes="cccccccccccsssccccccccccccccccccccsssccccccccccccccccccccccccccccccccccccccccccccccsssccccccccccccccccccccssscccccccccccccccccccccccccccccccccccccc"
         inkscape:connector-curvature="0"
         style="fill:none;stroke:#ff0000;stroke-width:0.70866144;stroke-linecap:butt;stroke-linejoin:miter;stroke-miterlimit:4;stroke-opacity:1;stroke-dasharray:none;display:inline"
         d="m 24.09375,24.09375 0,29.625 11.34375,0 0,29.625 -11.34375,0 0,29.625 11.34375,0 0,29.25 94.96875,0.375 -106.3125,0 0,-7.09375 c 0,0 -5.703124,1.2856 -7.09375,3.53125 -1.244908,2.01034 -1.244908,5.08341 0,7.09375 1.390626,2.24565 4.460817,3.32043 7.09375,3.53125 l 88.59375,7.09375 -88.59375,0 0,15.46875 11.34375,0 0,29.59375 -11.34375,0 0,29.625 11.34375,0 0,29.625 -11.34375,0 0,29.625 11.34375,0 0,29.625 -11.34375,0 0,29.625 11.34375,0 0,29.625 -11.34375,0 0,15.4375 88.59375,0 -88.59375,7.09375 c -2.632933,0.21082 -5.703124,1.2856 -7.09375,3.53125 -1.244908,2.01034 -1.241364,5.08122 0,7.09375 1.389112,2.25206 7.09375,3.5625 7.09375,3.5625 l 0,-7.09375 106.3125,0 -94.96875,0.34375 0,29.28125 -11.34375,0 0,29.625 7.8125,9.90625 14.15625,0 7.65625,-9.90625 0,-11.34375 29.625,0 0,11.34375 29.625,0 0,-11.34375 29.625,0 0,11.34375 29.625,0 0,-11.34375 29.59375,0 0,11.34375 29.625,0 0,-11.34375 29.625,0 0,11.34375 29.625,0 0,-11.34375 29.625,0 0,11.34375 29.625,0 0,-11.34375 29.625,0 0,11.34375 29.625,0 0,-11.34375 29.625,0 0,11.34375 18.28125,0 0,-29.625 11.34375,0 0,-29.625 -11.34375,0 0,-29.28125 -94.96875,-0.34375 106.3125,0 0,7.09375 c 0,0 5.68026,-1.31713 7.0625,-3.5625 1.23412,-2.00476 1.23412,-5.05774 0,-7.0625 -1.38224,-2.24537 -4.4342,-3.35205 -7.0625,-3.5625 l -88.59375,-7.09375 88.59375,0 0,-15.4375 -11.34375,0 0,-29.625 11.34375,0 0,-29.625 -11.34375,0 0,-29.625 11.34375,0 0,-29.625 -11.34375,0 0,-29.625 11.34375,0 0,-29.59375 -11.34375,0 0,-29.625 11.34375,0 0,-15.46875 -88.59375,0 88.59375,-7.0625 c 2.62837,-0.20953 5.68026,-1.31713 7.0625,-3.5625 1.23958,-2.01363 1.24314,-5.08232 0,-7.09375 -1.38374,-2.23895 -7.0625,-3.53125 -7.0625,-3.53125 l 0,7.09375 -106.3125,0 94.96875,-0.375 0,-29.25 11.34375,0 0,-29.625 -11.34375,0 0,-29.625 -18.28125,0 0,11.34375 -29.625,0 0,-11.34375 -29.625,0 0,11.34375 -29.625,0 0,-11.34375 -29.625,0 0,11.34375 -29.625,0 0,-11.34375 -29.625,0 0,11.34375 -29.625,0 0,-11.34375 -29.625,0 0,11.34375 -29.59375,0 0,-11.34375 -29.625,0 0,11.34375 -29.625,0 0,-11.34375 -29.625,0 0,11.34375 -29.625,0 0,-11.34375 z"
         transform="translate(0,-10.629965)"
         id="path3186" />
    </g>
  </g>
  <g
     inkscape:groupmode="layer"
     id="layer2"
     inkscape:label="Layer"
     style="display:inline">
    <g
       id="g18711" />
  </g>
</svg>
