<?xml version="1.0" encoding="UTF-8" standalone="no"?>
<!-- Created with Inkscape (http://www.inkscape.org/) -->

<svg
   xmlns:dc="http://purl.org/dc/elements/1.1/"
   xmlns:cc="http://creativecommons.org/ns#"
   xmlns:rdf="http://www.w3.org/1999/02/22-rdf-syntax-ns#"
   xmlns:svg="http://www.w3.org/2000/svg"
   xmlns="http://www.w3.org/2000/svg"
   xmlns:sodipodi="http://sodipodi.sourceforge.net/DTD/sodipodi-0.dtd"
   xmlns:inkscape="http://www.inkscape.org/namespaces/inkscape"
   width="1062.9921"
   height="1062.9921"
   id="svg2"
   version="1.1"
   inkscape:version="0.48.4 r9939"
   sodipodi:docname="top.svg">
  <defs
     id="defs4" />
  <sodipodi:namedview
     id="base"
     pagecolor="#ffffff"
     bordercolor="#666666"
     borderopacity="1.0"
     inkscape:pageopacity="0.0"
     inkscape:pageshadow="2"
     inkscape:zoom="0.81280005"
     inkscape:cx="531.49603"
     inkscape:cy="531.49603"
     inkscape:document-units="mm"
     inkscape:current-layer="layer1"
     showgrid="false"
     units="mm"
     inkscape:object-nodes="true"
     inkscape:window-width="1920"
     inkscape:window-height="1018"
     inkscape:window-x="0"
     inkscape:window-y="27"
     inkscape:window-maximized="1"
     inkscape:snap-bbox="false"
     inkscape:snap-nodes="true"
     inkscape:snap-smooth-nodes="true"
     inkscape:object-paths="true">
    <inkscape:grid
       type="xygrid"
       id="grid2985"
       empspacing="5"
       visible="true"
       enabled="true"
       snapvisiblegridlinesonly="true"
       units="mm"
       spacingx="1mm"
       spacingy="1mm" />
  </sodipodi:namedview>
  <metadata
     id="metadata7">
    <rdf:RDF>
      <cc:Work
         rdf:about="">
        <dc:format>image/svg+xml</dc:format>
        <dc:type
           rdf:resource="http://purl.org/dc/dcmitype/StillImage" />
        <dc:title />
      </cc:Work>
    </rdf:RDF>
  </metadata>
  <g
     inkscape:label="Layer 1"
     inkscape:groupmode="layer"
     id="layer1"
     transform="translate(0,10.629965)"
     style="display:inline">
    <g
       inkscape:tile-y0="36.062964"
       inkscape:tile-x0="33.602342"
       style="stroke-width:0.70866144;stroke-miterlimit:4;stroke-dasharray:none;display:inline"
       transform="translate(9.1535284,380.11814)"
       id="use3086">
      <path
         style="fill:none;stroke:#0000ff;stroke-width:0.70866144;stroke-linecap:round;stroke-linejoin:miter;stroke-miterlimit:4;stroke-opacity:1;stroke-dasharray:none;stroke-dashoffset:0.21259842"
         d="m 41.8125,-326.6875 0,29.625 11.34375,0 0,-18.28125 18.28125,0 0,-11.34375 -29.625,0 z m 59.25,0 0,11.34375 29.625,0 0,-11.34375 -29.625,0 z m 59.25,0 0,11.34375 29.59375,0 0,-11.34375 -29.59375,0 z m 59.21875,0 0,11.34375 29.625,0 0,-11.34375 -29.625,0 z m 59.25,0 0,11.34375 29.625,0 0,-11.34375 -29.625,0 z m 59.25,0 0,11.34375 29.625,0 0,-11.34375 -29.625,0 z m 59.25,0 0,11.34375 29.625,0 0,-11.34375 -29.625,0 z m 59.25,0 0,11.34375 18.28125,0 0,18.28125 11.34375,0 0,-29.625 -29.625,0 z m -414.71875,59.25 0,29.625 11.34375,0 0,-29.625 -11.34375,0 z m 433,0 0,29.625 11.34375,0 0,-29.625 -11.34375,0 z m -433,59.21875 0,29.625 11.34375,0 0,-29.625 -11.34375,0 z m 433,0 0,29.625 11.34375,0 0,-29.625 -11.34375,0 z m -433,59.25 0,29.625 11.34375,0 0,-29.625 -11.34375,0 z m 433,0 0,29.625 11.34375,0 0,-29.625 -11.34375,0 z m -433,59.25 0,29.625 11.34375,0 0,-29.625 -11.34375,0 z m 433,0 0,29.625 11.34375,0 0,-29.625 -11.34375,0 z m -433,59.25 0,29.625 11.34375,0 0,-29.625 -11.34375,0 z m 433,0 0,29.625 11.34375,0 0,-29.625 -11.34375,0 z m -433,59.25 0,29.625 11.34375,0 0,-29.625 -11.34375,0 z m 433,0 0,29.625 11.34375,0 0,-29.625 -11.34375,0 z m -433,59.25 0,29.59375 29.625,0 0,-11.3125 -18.28125,0 0,-18.28125 -11.34375,0 z m 433,0 0,18.28125 -18.28125,0 0,11.3125 29.625,0 0,-29.59375 -11.34375,0 z m -373.75,18.28125 0,11.3125 29.625,0 0,-11.3125 -29.625,0 z m 59.25,0 0,11.3125 29.59375,0 0,-11.3125 -29.59375,0 z m 59.21875,0 0,11.3125 29.625,0 0,-11.3125 -29.625,0 z m 59.25,0 0,11.3125 29.625,0 0,-11.3125 -29.625,0 z m 59.25,0 0,11.3125 29.625,0 0,-11.3125 -29.625,0 z m 59.25,0 0,11.3125 29.625,0 0,-11.3125 -29.625,0 z"
         id="path3096"
         transform="translate(0,-10.629965)"
         inkscape:connector-curvature="0" />
      <path
         style="fill:none;stroke:#ff0000;stroke-width:0.70866144;stroke-linecap:round;stroke-linejoin:miter;stroke-miterlimit:4;stroke-opacity:1;stroke-dasharray:none;stroke-dashoffset:0.21259842"
         d="m 42.51968,-354.33081 442.91339,0 17.71654,17.71654 0,442.91339 -17.71654,17.71654 -442.91339,0 -17.716536,-17.71654 0,-442.91339 z"
         id="path3098"
         inkscape:connector-curvature="0"
         sodipodi:nodetypes="ccccccccc" />
      <path
         sodipodi:type="arc"
         style="fill:none;stroke:#0000ff;stroke-width:1.02426732;stroke-linecap:round;stroke-linejoin:miter;stroke-miterlimit:4;stroke-opacity:1;stroke-dasharray:none;stroke-dashoffset:0.21259842"
         id="path3100"
         sodipodi:cx="252.99403"
         sodipodi:cy="-117.38568"
         sodipodi:rx="66.577377"
         sodipodi:ry="66.577377"
         d="m 319.57141,-117.38568 c 0,36.769669 -29.80771,66.577376 -66.57738,66.577376 -36.76967,0 -66.57737,-29.807707 -66.57737,-66.577376 0,-36.76967 29.8077,-66.57738 66.57737,-66.57738 36.76967,0 66.57738,29.80771 66.57738,66.57738 z"
         transform="matrix(0.69187153,0,0,0.69187153,88.937008,-33.941767)" />
      <rect
         style="fill:none;stroke:#000000;stroke-width:0.70866144;stroke-linecap:round;stroke-linejoin:miter;stroke-miterlimit:4;stroke-opacity:1;stroke-dasharray:none;stroke-dashoffset:0.21259842"
         id="rect3102"
         width="155.90552"
         height="155.90552"
         x="186.02362"
         y="-193.11034" />
      <g
         id="g3104"
         style="stroke:#000000;stroke-width:0.70866144;stroke-miterlimit:4;stroke-dasharray:none"
         transform="translate(1000.598,-463.02165)">
        <path
           sodipodi:nodetypes="cc"
           transform="translate(0,-10.629965)"
           inkscape:connector-curvature="0"
           id="path3106"
           d="m -890.7554,147.66726 2e-5,421.65355"
           style="fill:none;stroke:#000000;stroke-width:0.70866144;stroke-linecap:butt;stroke-linejoin:miter;stroke-miterlimit:4;stroke-opacity:1;stroke-dasharray:none" />
        <path
           sodipodi:nodetypes="cc"
           transform="translate(0,-10.629965)"
           inkscape:connector-curvature="0"
           id="path3108"
           d="m -839.37741,147.66726 0,421.65355"
           style="fill:none;stroke:#000000;stroke-width:0.70866144;stroke-linecap:butt;stroke-linejoin:miter;stroke-miterlimit:4;stroke-opacity:1;stroke-dasharray:none" />
        <path
           sodipodi:nodetypes="cc"
           transform="translate(0,-10.629965)"
           inkscape:connector-curvature="0"
           id="path3110"
           d="m -787.99946,147.66726 0,421.65355"
           style="fill:none;stroke:#000000;stroke-width:0.70866144;stroke-linecap:butt;stroke-linejoin:miter;stroke-miterlimit:4;stroke-opacity:1;stroke-dasharray:none" />
        <path
           sodipodi:nodetypes="cc"
           transform="translate(0,-10.629965)"
           inkscape:connector-curvature="0"
           id="path3112"
           d="m -736.62153,147.66726 4e-5,421.65355"
           style="fill:none;stroke:#000000;stroke-width:0.70866144;stroke-linecap:butt;stroke-linejoin:miter;stroke-miterlimit:4;stroke-opacity:1;stroke-dasharray:none" />
        <path
           sodipodi:nodetypes="cc"
           transform="translate(0,-10.629965)"
           inkscape:connector-curvature="0"
           id="path3114"
           d="m -685.24356,147.66726 0,421.65355"
           style="fill:none;stroke:#000000;stroke-width:0.70866144;stroke-linecap:butt;stroke-linejoin:miter;stroke-miterlimit:4;stroke-opacity:1;stroke-dasharray:none" />
        <path
           sodipodi:nodetypes="cc"
           transform="translate(0,-10.629965)"
           inkscape:connector-curvature="0"
           id="path3116"
           d="m -633.86563,569.32081 2e-5,-421.65355"
           style="fill:none;stroke:#000000;stroke-width:0.70866144;stroke-linecap:butt;stroke-linejoin:miter;stroke-miterlimit:4;stroke-opacity:1;stroke-dasharray:none" />
        <path
           sodipodi:nodetypes="cc"
           transform="translate(0,-10.629965)"
           inkscape:connector-curvature="0"
           id="path3118"
           d="m -582.48767,147.66726 -10e-6,421.65355"
           style="fill:none;stroke:#000000;stroke-width:0.70866144;stroke-linecap:butt;stroke-linejoin:miter;stroke-miterlimit:4;stroke-opacity:1;stroke-dasharray:none" />
        <path
           sodipodi:nodetypes="cc"
           transform="translate(0,-10.629965)"
           inkscape:connector-curvature="0"
           id="path3120"
           d="m -947.44843,204.36009 421.65355,3e-5"
           style="fill:none;stroke:#000000;stroke-width:0.70866144;stroke-linecap:butt;stroke-linejoin:miter;stroke-miterlimit:4;stroke-opacity:1;stroke-dasharray:none" />
        <path
           sodipodi:nodetypes="cc"
           transform="translate(0,-10.629965)"
           inkscape:connector-curvature="0"
           id="path3122"
           d="m -947.44843,255.73803 421.65355,2e-5"
           style="fill:none;stroke:#000000;stroke-width:0.70866144;stroke-linecap:butt;stroke-linejoin:miter;stroke-miterlimit:4;stroke-opacity:1;stroke-dasharray:none" />
        <path
           sodipodi:nodetypes="cc"
           transform="translate(0,-10.629965)"
           inkscape:connector-curvature="0"
           id="path3124"
           d="m -947.44843,307.11598 421.65355,-2e-5"
           style="fill:none;stroke:#000000;stroke-width:0.70866144;stroke-linecap:butt;stroke-linejoin:miter;stroke-miterlimit:4;stroke-opacity:1;stroke-dasharray:none" />
        <path
           sodipodi:nodetypes="cc"
           transform="translate(0,-10.629965)"
           inkscape:connector-curvature="0"
           id="path3126"
           d="m -947.44843,358.49389 421.65355,2e-5"
           style="fill:none;stroke:#000000;stroke-width:0.70866144;stroke-linecap:butt;stroke-linejoin:miter;stroke-miterlimit:4;stroke-opacity:1;stroke-dasharray:none" />
        <path
           sodipodi:nodetypes="cc"
           transform="translate(0,-10.629965)"
           inkscape:connector-curvature="0"
           id="path3128"
           d="m -947.44843,409.87184 421.65355,0"
           style="fill:none;stroke:#000000;stroke-width:0.70866144;stroke-linecap:butt;stroke-linejoin:miter;stroke-miterlimit:4;stroke-opacity:1;stroke-dasharray:none" />
        <path
           sodipodi:nodetypes="cc"
           transform="translate(0,-10.629965)"
           inkscape:connector-curvature="0"
           id="path3130"
           d="m -947.44843,461.24973 421.65355,6e-5"
           style="fill:none;stroke:#000000;stroke-width:0.70866144;stroke-linecap:butt;stroke-linejoin:miter;stroke-miterlimit:4;stroke-opacity:1;stroke-dasharray:none" />
        <path
           sodipodi:nodetypes="cc"
           transform="translate(0,-10.629965)"
           inkscape:connector-curvature="0"
           id="path3132"
           d="m -947.44843,512.62766 421.65355,0"
           style="fill:none;stroke:#000000;stroke-width:0.70866144;stroke-linecap:butt;stroke-linejoin:miter;stroke-miterlimit:4;stroke-opacity:1;stroke-dasharray:none" />
      </g>
    </g>
    <g
       inkscape:tile-y0="36.062964"
       inkscape:tile-x0="33.602342"
       style="stroke-width:0.70866144;stroke-miterlimit:4;stroke-dasharray:none;display:inline"
       transform="matrix(0.99999848,0.00174533,-0.00174533,0.99999848,8.9714949,868.29349)"
       id="use3088">
      <path
         style="fill:none;stroke:#0000ff;stroke-width:0.70866144;stroke-linecap:round;stroke-linejoin:miter;stroke-miterlimit:4;stroke-opacity:1;stroke-dasharray:none;stroke-dashoffset:0.21259842"
         d="m 41.8125,-326.6875 0,29.625 11.34375,0 0,-18.28125 18.28125,0 0,-11.34375 -29.625,0 z m 59.25,0 0,11.34375 29.625,0 0,-11.34375 -29.625,0 z m 59.25,0 0,11.34375 29.59375,0 0,-11.34375 -29.59375,0 z m 59.21875,0 0,11.34375 29.625,0 0,-11.34375 -29.625,0 z m 59.25,0 0,11.34375 29.625,0 0,-11.34375 -29.625,0 z m 59.25,0 0,11.34375 29.625,0 0,-11.34375 -29.625,0 z m 59.25,0 0,11.34375 29.625,0 0,-11.34375 -29.625,0 z m 59.25,0 0,11.34375 18.28125,0 0,18.28125 11.34375,0 0,-29.625 -29.625,0 z m -414.71875,59.25 0,29.625 11.34375,0 0,-29.625 -11.34375,0 z m 433,0 0,29.625 11.34375,0 0,-29.625 -11.34375,0 z m -433,59.21875 0,29.625 11.34375,0 0,-29.625 -11.34375,0 z m 433,0 0,29.625 11.34375,0 0,-29.625 -11.34375,0 z m -433,59.25 0,29.625 11.34375,0 0,-29.625 -11.34375,0 z m 433,0 0,29.625 11.34375,0 0,-29.625 -11.34375,0 z m -433,59.25 0,29.625 11.34375,0 0,-29.625 -11.34375,0 z m 433,0 0,29.625 11.34375,0 0,-29.625 -11.34375,0 z m -433,59.25 0,29.625 11.34375,0 0,-29.625 -11.34375,0 z m 433,0 0,29.625 11.34375,0 0,-29.625 -11.34375,0 z m -433,59.25 0,29.625 11.34375,0 0,-29.625 -11.34375,0 z m 433,0 0,29.625 11.34375,0 0,-29.625 -11.34375,0 z m -433,59.25 0,29.59375 29.625,0 0,-11.3125 -18.28125,0 0,-18.28125 -11.34375,0 z m 433,0 0,18.28125 -18.28125,0 0,11.3125 29.625,0 0,-29.59375 -11.34375,0 z m -373.75,18.28125 0,11.3125 29.625,0 0,-11.3125 -29.625,0 z m 59.25,0 0,11.3125 29.59375,0 0,-11.3125 -29.59375,0 z m 59.21875,0 0,11.3125 29.625,0 0,-11.3125 -29.625,0 z m 59.25,0 0,11.3125 29.625,0 0,-11.3125 -29.625,0 z m 59.25,0 0,11.3125 29.625,0 0,-11.3125 -29.625,0 z m 59.25,0 0,11.3125 29.625,0 0,-11.3125 -29.625,0 z"
         id="path3136"
         transform="translate(0,-10.629965)"
         inkscape:connector-curvature="0" />
      <path
         style="fill:none;stroke:#ff0000;stroke-width:0.70866144;stroke-linecap:round;stroke-linejoin:miter;stroke-miterlimit:4;stroke-opacity:1;stroke-dasharray:none;stroke-dashoffset:0.21259842"
         d="m 42.51968,-354.33081 442.91339,0 17.71654,17.71654 0,442.91339 -17.71654,17.71654 -442.91339,0 -17.716536,-17.71654 0,-442.91339 z"
         id="path3138"
         inkscape:connector-curvature="0"
         sodipodi:nodetypes="ccccccccc" />
      <path
         sodipodi:type="arc"
         style="fill:none;stroke:#0000ff;stroke-width:1.02426732;stroke-linecap:round;stroke-linejoin:miter;stroke-miterlimit:4;stroke-opacity:1;stroke-dasharray:none;stroke-dashoffset:0.21259842"
         id="path3140"
         sodipodi:cx="252.99403"
         sodipodi:cy="-117.38568"
         sodipodi:rx="66.577377"
         sodipodi:ry="66.577377"
         d="m 319.57141,-117.38568 c 0,36.769669 -29.80771,66.577376 -66.57738,66.577376 -36.76967,0 -66.57737,-29.807707 -66.57737,-66.577376 0,-36.76967 29.8077,-66.57738 66.57737,-66.57738 36.76967,0 66.57738,29.80771 66.57738,66.57738 z"
         transform="matrix(0.69187153,0,0,0.69187153,88.937008,-33.941767)" />
      <rect
         style="fill:none;stroke:#000000;stroke-width:0.70866144;stroke-linecap:round;stroke-linejoin:miter;stroke-miterlimit:4;stroke-opacity:1;stroke-dasharray:none;stroke-dashoffset:0.21259842"
         id="rect3142"
         width="155.90552"
         height="155.90552"
         x="186.02362"
         y="-193.11034" />
      <g
         id="g3144"
         style="stroke:#000000;stroke-width:0.70866144;stroke-miterlimit:4;stroke-dasharray:none"
         transform="translate(1000.598,-463.02165)">
        <path
           sodipodi:nodetypes="cc"
           transform="translate(0,-10.629965)"
           inkscape:connector-curvature="0"
           id="path3146"
           d="m -890.7554,147.66726 2e-5,421.65355"
           style="fill:none;stroke:#000000;stroke-width:0.70866144;stroke-linecap:butt;stroke-linejoin:miter;stroke-miterlimit:4;stroke-opacity:1;stroke-dasharray:none" />
        <path
           sodipodi:nodetypes="cc"
           transform="translate(0,-10.629965)"
           inkscape:connector-curvature="0"
           id="path3148"
           d="m -839.37741,147.66726 0,421.65355"
           style="fill:none;stroke:#000000;stroke-width:0.70866144;stroke-linecap:butt;stroke-linejoin:miter;stroke-miterlimit:4;stroke-opacity:1;stroke-dasharray:none" />
        <path
           sodipodi:nodetypes="cc"
           transform="translate(0,-10.629965)"
           inkscape:connector-curvature="0"
           id="path3150"
           d="m -787.99946,147.66726 0,421.65355"
           style="fill:none;stroke:#000000;stroke-width:0.70866144;stroke-linecap:butt;stroke-linejoin:miter;stroke-miterlimit:4;stroke-opacity:1;stroke-dasharray:none" />
        <path
           sodipodi:nodetypes="cc"
           transform="translate(0,-10.629965)"
           inkscape:connector-curvature="0"
           id="path3152"
           d="m -736.62153,147.66726 4e-5,421.65355"
           style="fill:none;stroke:#000000;stroke-width:0.70866144;stroke-linecap:butt;stroke-linejoin:miter;stroke-miterlimit:4;stroke-opacity:1;stroke-dasharray:none" />
        <path
           sodipodi:nodetypes="cc"
           transform="translate(0,-10.629965)"
           inkscape:connector-curvature="0"
           id="path3154"
           d="m -685.24356,147.66726 0,421.65355"
           style="fill:none;stroke:#000000;stroke-width:0.70866144;stroke-linecap:butt;stroke-linejoin:miter;stroke-miterlimit:4;stroke-opacity:1;stroke-dasharray:none" />
        <path
           sodipodi:nodetypes="cc"
           transform="translate(0,-10.629965)"
           inkscape:connector-curvature="0"
           id="path3156"
           d="m -633.86563,569.32081 2e-5,-421.65355"
           style="fill:none;stroke:#000000;stroke-width:0.70866144;stroke-linecap:butt;stroke-linejoin:miter;stroke-miterlimit:4;stroke-opacity:1;stroke-dasharray:none" />
        <path
           sodipodi:nodetypes="cc"
           transform="translate(0,-10.629965)"
           inkscape:connector-curvature="0"
           id="path3158"
           d="m -582.48767,147.66726 -10e-6,421.65355"
           style="fill:none;stroke:#000000;stroke-width:0.70866144;stroke-linecap:butt;stroke-linejoin:miter;stroke-miterlimit:4;stroke-opacity:1;stroke-dasharray:none" />
        <path
           sodipodi:nodetypes="cc"
           transform="translate(0,-10.629965)"
           inkscape:connector-curvature="0"
           id="path3160"
           d="m -947.44843,204.36009 421.65355,3e-5"
           style="fill:none;stroke:#000000;stroke-width:0.70866144;stroke-linecap:butt;stroke-linejoin:miter;stroke-miterlimit:4;stroke-opacity:1;stroke-dasharray:none" />
        <path
           sodipodi:nodetypes="cc"
           transform="translate(0,-10.629965)"
           inkscape:connector-curvature="0"
           id="path3162"
           d="m -947.44843,255.73803 421.65355,2e-5"
           style="fill:none;stroke:#000000;stroke-width:0.70866144;stroke-linecap:butt;stroke-linejoin:miter;stroke-miterlimit:4;stroke-opacity:1;stroke-dasharray:none" />
        <path
           sodipodi:nodetypes="cc"
           transform="translate(0,-10.629965)"
           inkscape:connector-curvature="0"
           id="path3164"
           d="m -947.44843,307.11598 421.65355,-2e-5"
           style="fill:none;stroke:#000000;stroke-width:0.70866144;stroke-linecap:butt;stroke-linejoin:miter;stroke-miterlimit:4;stroke-opacity:1;stroke-dasharray:none" />
        <path
           sodipodi:nodetypes="cc"
           transform="translate(0,-10.629965)"
           inkscape:connector-curvature="0"
           id="path3166"
           d="m -947.44843,358.49389 421.65355,2e-5"
           style="fill:none;stroke:#000000;stroke-width:0.70866144;stroke-linecap:butt;stroke-linejoin:miter;stroke-miterlimit:4;stroke-opacity:1;stroke-dasharray:none" />
        <path
           sodipodi:nodetypes="cc"
           transform="translate(0,-10.629965)"
           inkscape:connector-curvature="0"
           id="path3168"
           d="m -947.44843,409.87184 421.65355,0"
           style="fill:none;stroke:#000000;stroke-width:0.70866144;stroke-linecap:butt;stroke-linejoin:miter;stroke-miterlimit:4;stroke-opacity:1;stroke-dasharray:none" />
        <path
           sodipodi:nodetypes="cc"
           transform="translate(0,-10.629965)"
           inkscape:connector-curvature="0"
           id="path3170"
           d="m -947.44843,461.24973 421.65355,6e-5"
           style="fill:none;stroke:#000000;stroke-width:0.70866144;stroke-linecap:butt;stroke-linejoin:miter;stroke-miterlimit:4;stroke-opacity:1;stroke-dasharray:none" />
        <path
           sodipodi:nodetypes="cc"
           transform="translate(0,-10.629965)"
           inkscape:connector-curvature="0"
           id="path3172"
           d="m -947.44843,512.62766 421.65355,0"
           style="fill:none;stroke:#000000;stroke-width:0.70866144;stroke-linecap:butt;stroke-linejoin:miter;stroke-miterlimit:4;stroke-opacity:1;stroke-dasharray:none" />
      </g>
    </g>
    <g
       inkscape:tile-y0="36.062964"
       inkscape:tile-x0="33.602342"
       style="stroke-width:0.70866144;stroke-miterlimit:4;stroke-dasharray:none;display:inline"
       transform="translate(497.78976,380.11814)"
       id="use3090">
      <path
         style="fill:none;stroke:#0000ff;stroke-width:0.70866144;stroke-linecap:round;stroke-linejoin:miter;stroke-miterlimit:4;stroke-opacity:1;stroke-dasharray:none;stroke-dashoffset:0.21259842"
         d="m 41.8125,-326.6875 0,29.625 11.34375,0 0,-18.28125 18.28125,0 0,-11.34375 -29.625,0 z m 59.25,0 0,11.34375 29.625,0 0,-11.34375 -29.625,0 z m 59.25,0 0,11.34375 29.59375,0 0,-11.34375 -29.59375,0 z m 59.21875,0 0,11.34375 29.625,0 0,-11.34375 -29.625,0 z m 59.25,0 0,11.34375 29.625,0 0,-11.34375 -29.625,0 z m 59.25,0 0,11.34375 29.625,0 0,-11.34375 -29.625,0 z m 59.25,0 0,11.34375 29.625,0 0,-11.34375 -29.625,0 z m 59.25,0 0,11.34375 18.28125,0 0,18.28125 11.34375,0 0,-29.625 -29.625,0 z m -414.71875,59.25 0,29.625 11.34375,0 0,-29.625 -11.34375,0 z m 433,0 0,29.625 11.34375,0 0,-29.625 -11.34375,0 z m -433,59.21875 0,29.625 11.34375,0 0,-29.625 -11.34375,0 z m 433,0 0,29.625 11.34375,0 0,-29.625 -11.34375,0 z m -433,59.25 0,29.625 11.34375,0 0,-29.625 -11.34375,0 z m 433,0 0,29.625 11.34375,0 0,-29.625 -11.34375,0 z m -433,59.25 0,29.625 11.34375,0 0,-29.625 -11.34375,0 z m 433,0 0,29.625 11.34375,0 0,-29.625 -11.34375,0 z m -433,59.25 0,29.625 11.34375,0 0,-29.625 -11.34375,0 z m 433,0 0,29.625 11.34375,0 0,-29.625 -11.34375,0 z m -433,59.25 0,29.625 11.34375,0 0,-29.625 -11.34375,0 z m 433,0 0,29.625 11.34375,0 0,-29.625 -11.34375,0 z m -433,59.25 0,29.59375 29.625,0 0,-11.3125 -18.28125,0 0,-18.28125 -11.34375,0 z m 433,0 0,18.28125 -18.28125,0 0,11.3125 29.625,0 0,-29.59375 -11.34375,0 z m -373.75,18.28125 0,11.3125 29.625,0 0,-11.3125 -29.625,0 z m 59.25,0 0,11.3125 29.59375,0 0,-11.3125 -29.59375,0 z m 59.21875,0 0,11.3125 29.625,0 0,-11.3125 -29.625,0 z m 59.25,0 0,11.3125 29.625,0 0,-11.3125 -29.625,0 z m 59.25,0 0,11.3125 29.625,0 0,-11.3125 -29.625,0 z m 59.25,0 0,11.3125 29.625,0 0,-11.3125 -29.625,0 z"
         id="path3176"
         transform="translate(0,-10.629965)"
         inkscape:connector-curvature="0" />
      <path
         style="fill:none;stroke:#ff0000;stroke-width:0.70866144;stroke-linecap:round;stroke-linejoin:miter;stroke-miterlimit:4;stroke-opacity:1;stroke-dasharray:none;stroke-dashoffset:0.21259842"
         d="m 42.51968,-354.33081 442.91339,0 17.71654,17.71654 0,442.91339 -17.71654,17.71654 -442.91339,0 -17.716536,-17.71654 0,-442.91339 z"
         id="path3178"
         inkscape:connector-curvature="0"
         sodipodi:nodetypes="ccccccccc" />
      <path
         sodipodi:type="arc"
         style="fill:none;stroke:#0000ff;stroke-width:1.02426732;stroke-linecap:round;stroke-linejoin:miter;stroke-miterlimit:4;stroke-opacity:1;stroke-dasharray:none;stroke-dashoffset:0.21259842"
         id="path3180"
         sodipodi:cx="252.99403"
         sodipodi:cy="-117.38568"
         sodipodi:rx="66.577377"
         sodipodi:ry="66.577377"
         d="m 319.57141,-117.38568 c 0,36.769669 -29.80771,66.577376 -66.57738,66.577376 -36.76967,0 -66.57737,-29.807707 -66.57737,-66.577376 0,-36.76967 29.8077,-66.57738 66.57737,-66.57738 36.76967,0 66.57738,29.80771 66.57738,66.57738 z"
         transform="matrix(0.69187153,0,0,0.69187153,88.937008,-33.941767)" />
      <rect
         style="fill:none;stroke:#000000;stroke-width:0.70866144;stroke-linecap:round;stroke-linejoin:miter;stroke-miterlimit:4;stroke-opacity:1;stroke-dasharray:none;stroke-dashoffset:0.21259842"
         id="rect3182"
         width="155.90552"
         height="155.90552"
         x="186.02362"
         y="-193.11034" />
      <g
         id="g3184"
         style="stroke:#000000;stroke-width:0.70866144;stroke-miterlimit:4;stroke-dasharray:none"
         transform="translate(1000.598,-463.02165)">
        <path
           sodipodi:nodetypes="cc"
           transform="translate(0,-10.629965)"
           inkscape:connector-curvature="0"
           id="path3186"
           d="m -890.7554,147.66726 2e-5,421.65355"
           style="fill:none;stroke:#000000;stroke-width:0.70866144;stroke-linecap:butt;stroke-linejoin:miter;stroke-miterlimit:4;stroke-opacity:1;stroke-dasharray:none" />
        <path
           sodipodi:nodetypes="cc"
           transform="translate(0,-10.629965)"
           inkscape:connector-curvature="0"
           id="path3188"
           d="m -839.37741,147.66726 0,421.65355"
           style="fill:none;stroke:#000000;stroke-width:0.70866144;stroke-linecap:butt;stroke-linejoin:miter;stroke-miterlimit:4;stroke-opacity:1;stroke-dasharray:none" />
        <path
           sodipodi:nodetypes="cc"
           transform="translate(0,-10.629965)"
           inkscape:connector-curvature="0"
           id="path3190"
           d="m -787.99946,147.66726 0,421.65355"
           style="fill:none;stroke:#000000;stroke-width:0.70866144;stroke-linecap:butt;stroke-linejoin:miter;stroke-miterlimit:4;stroke-opacity:1;stroke-dasharray:none" />
        <path
           sodipodi:nodetypes="cc"
           transform="translate(0,-10.629965)"
           inkscape:connector-curvature="0"
           id="path3192"
           d="m -736.62153,147.66726 4e-5,421.65355"
           style="fill:none;stroke:#000000;stroke-width:0.70866144;stroke-linecap:butt;stroke-linejoin:miter;stroke-miterlimit:4;stroke-opacity:1;stroke-dasharray:none" />
        <path
           sodipodi:nodetypes="cc"
           transform="translate(0,-10.629965)"
           inkscape:connector-curvature="0"
           id="path3194"
           d="m -685.24356,147.66726 0,421.65355"
           style="fill:none;stroke:#000000;stroke-width:0.70866144;stroke-linecap:butt;stroke-linejoin:miter;stroke-miterlimit:4;stroke-opacity:1;stroke-dasharray:none" />
        <path
           sodipodi:nodetypes="cc"
           transform="translate(0,-10.629965)"
           inkscape:connector-curvature="0"
           id="path3196"
           d="m -633.86563,569.32081 2e-5,-421.65355"
           style="fill:none;stroke:#000000;stroke-width:0.70866144;stroke-linecap:butt;stroke-linejoin:miter;stroke-miterlimit:4;stroke-opacity:1;stroke-dasharray:none" />
        <path
           sodipodi:nodetypes="cc"
           transform="translate(0,-10.629965)"
           inkscape:connector-curvature="0"
           id="path3198"
           d="m -582.48767,147.66726 -10e-6,421.65355"
           style="fill:none;stroke:#000000;stroke-width:0.70866144;stroke-linecap:butt;stroke-linejoin:miter;stroke-miterlimit:4;stroke-opacity:1;stroke-dasharray:none" />
        <path
           sodipodi:nodetypes="cc"
           transform="translate(0,-10.629965)"
           inkscape:connector-curvature="0"
           id="path3200"
           d="m -947.44843,204.36009 421.65355,3e-5"
           style="fill:none;stroke:#000000;stroke-width:0.70866144;stroke-linecap:butt;stroke-linejoin:miter;stroke-miterlimit:4;stroke-opacity:1;stroke-dasharray:none" />
        <path
           sodipodi:nodetypes="cc"
           transform="translate(0,-10.629965)"
           inkscape:connector-curvature="0"
           id="path3202"
           d="m -947.44843,255.73803 421.65355,2e-5"
           style="fill:none;stroke:#000000;stroke-width:0.70866144;stroke-linecap:butt;stroke-linejoin:miter;stroke-miterlimit:4;stroke-opacity:1;stroke-dasharray:none" />
        <path
           sodipodi:nodetypes="cc"
           transform="translate(0,-10.629965)"
           inkscape:connector-curvature="0"
           id="path3204"
           d="m -947.44843,307.11598 421.65355,-2e-5"
           style="fill:none;stroke:#000000;stroke-width:0.70866144;stroke-linecap:butt;stroke-linejoin:miter;stroke-miterlimit:4;stroke-opacity:1;stroke-dasharray:none" />
        <path
           sodipodi:nodetypes="cc"
           transform="translate(0,-10.629965)"
           inkscape:connector-curvature="0"
           id="path3206"
           d="m -947.44843,358.49389 421.65355,2e-5"
           style="fill:none;stroke:#000000;stroke-width:0.70866144;stroke-linecap:butt;stroke-linejoin:miter;stroke-miterlimit:4;stroke-opacity:1;stroke-dasharray:none" />
        <path
           sodipodi:nodetypes="cc"
           transform="translate(0,-10.629965)"
           inkscape:connector-curvature="0"
           id="path3208"
           d="m -947.44843,409.87184 421.65355,0"
           style="fill:none;stroke:#000000;stroke-width:0.70866144;stroke-linecap:butt;stroke-linejoin:miter;stroke-miterlimit:4;stroke-opacity:1;stroke-dasharray:none" />
        <path
           sodipodi:nodetypes="cc"
           transform="translate(0,-10.629965)"
           inkscape:connector-curvature="0"
           id="path3210"
           d="m -947.44843,461.24973 421.65355,6e-5"
           style="fill:none;stroke:#000000;stroke-width:0.70866144;stroke-linecap:butt;stroke-linejoin:miter;stroke-miterlimit:4;stroke-opacity:1;stroke-dasharray:none" />
        <path
           sodipodi:nodetypes="cc"
           transform="translate(0,-10.629965)"
           inkscape:connector-curvature="0"
           id="path3212"
           d="m -947.44843,512.62766 421.65355,0"
           style="fill:none;stroke:#000000;stroke-width:0.70866144;stroke-linecap:butt;stroke-linejoin:miter;stroke-miterlimit:4;stroke-opacity:1;stroke-dasharray:none" />
      </g>
    </g>
    <g
       inkscape:tile-y0="36.062964"
       inkscape:tile-x0="33.602342"
       style="stroke-width:0.70866144;stroke-miterlimit:4;stroke-dasharray:none;display:inline"
       transform="matrix(0.99999848,0.00174533,-0.00174533,0.99999848,497.60772,868.29349)"
       id="use3092">
      <path
         style="fill:none;stroke:#0000ff;stroke-width:0.70866144;stroke-linecap:round;stroke-linejoin:miter;stroke-miterlimit:4;stroke-opacity:1;stroke-dasharray:none;stroke-dashoffset:0.21259842"
         d="m 41.8125,-326.6875 0,29.625 11.34375,0 0,-18.28125 18.28125,0 0,-11.34375 -29.625,0 z m 59.25,0 0,11.34375 29.625,0 0,-11.34375 -29.625,0 z m 59.25,0 0,11.34375 29.59375,0 0,-11.34375 -29.59375,0 z m 59.21875,0 0,11.34375 29.625,0 0,-11.34375 -29.625,0 z m 59.25,0 0,11.34375 29.625,0 0,-11.34375 -29.625,0 z m 59.25,0 0,11.34375 29.625,0 0,-11.34375 -29.625,0 z m 59.25,0 0,11.34375 29.625,0 0,-11.34375 -29.625,0 z m 59.25,0 0,11.34375 18.28125,0 0,18.28125 11.34375,0 0,-29.625 -29.625,0 z m -414.71875,59.25 0,29.625 11.34375,0 0,-29.625 -11.34375,0 z m 433,0 0,29.625 11.34375,0 0,-29.625 -11.34375,0 z m -433,59.21875 0,29.625 11.34375,0 0,-29.625 -11.34375,0 z m 433,0 0,29.625 11.34375,0 0,-29.625 -11.34375,0 z m -433,59.25 0,29.625 11.34375,0 0,-29.625 -11.34375,0 z m 433,0 0,29.625 11.34375,0 0,-29.625 -11.34375,0 z m -433,59.25 0,29.625 11.34375,0 0,-29.625 -11.34375,0 z m 433,0 0,29.625 11.34375,0 0,-29.625 -11.34375,0 z m -433,59.25 0,29.625 11.34375,0 0,-29.625 -11.34375,0 z m 433,0 0,29.625 11.34375,0 0,-29.625 -11.34375,0 z m -433,59.25 0,29.625 11.34375,0 0,-29.625 -11.34375,0 z m 433,0 0,29.625 11.34375,0 0,-29.625 -11.34375,0 z m -433,59.25 0,29.59375 29.625,0 0,-11.3125 -18.28125,0 0,-18.28125 -11.34375,0 z m 433,0 0,18.28125 -18.28125,0 0,11.3125 29.625,0 0,-29.59375 -11.34375,0 z m -373.75,18.28125 0,11.3125 29.625,0 0,-11.3125 -29.625,0 z m 59.25,0 0,11.3125 29.59375,0 0,-11.3125 -29.59375,0 z m 59.21875,0 0,11.3125 29.625,0 0,-11.3125 -29.625,0 z m 59.25,0 0,11.3125 29.625,0 0,-11.3125 -29.625,0 z m 59.25,0 0,11.3125 29.625,0 0,-11.3125 -29.625,0 z m 59.25,0 0,11.3125 29.625,0 0,-11.3125 -29.625,0 z"
         id="path3216"
         transform="translate(0,-10.629965)"
         inkscape:connector-curvature="0" />
      <path
         style="fill:none;stroke:#ff0000;stroke-width:0.70866144;stroke-linecap:round;stroke-linejoin:miter;stroke-miterlimit:4;stroke-opacity:1;stroke-dasharray:none;stroke-dashoffset:0.21259842"
         d="m 42.51968,-354.33081 442.91339,0 17.71654,17.71654 0,442.91339 -17.71654,17.71654 -442.91339,0 -17.716536,-17.71654 0,-442.91339 z"
         id="path3218"
         inkscape:connector-curvature="0"
         sodipodi:nodetypes="ccccccccc" />
      <path
         sodipodi:type="arc"
         style="fill:none;stroke:#0000ff;stroke-width:1.02426732;stroke-linecap:round;stroke-linejoin:miter;stroke-miterlimit:4;stroke-opacity:1;stroke-dasharray:none;stroke-dashoffset:0.21259842"
         id="path3220"
         sodipodi:cx="252.99403"
         sodipodi:cy="-117.38568"
         sodipodi:rx="66.577377"
         sodipodi:ry="66.577377"
         d="m 319.57141,-117.38568 c 0,36.769669 -29.80771,66.577376 -66.57738,66.577376 -36.76967,0 -66.57737,-29.807707 -66.57737,-66.577376 0,-36.76967 29.8077,-66.57738 66.57737,-66.57738 36.76967,0 66.57738,29.80771 66.57738,66.57738 z"
         transform="matrix(0.69187153,0,0,0.69187153,88.937008,-33.941767)" />
      <rect
         style="fill:none;stroke:#000000;stroke-width:0.70866144;stroke-linecap:round;stroke-linejoin:miter;stroke-miterlimit:4;stroke-opacity:1;stroke-dasharray:none;stroke-dashoffset:0.21259842"
         id="rect3222"
         width="155.90552"
         height="155.90552"
         x="186.02362"
         y="-193.11034" />
      <g
         id="g3224"
         style="stroke:#000000;stroke-width:0.70866144;stroke-miterlimit:4;stroke-dasharray:none"
         transform="translate(1000.598,-463.02165)">
        <path
           sodipodi:nodetypes="cc"
           transform="translate(0,-10.629965)"
           inkscape:connector-curvature="0"
           id="path3226"
           d="m -890.7554,147.66726 2e-5,421.65355"
           style="fill:none;stroke:#000000;stroke-width:0.70866144;stroke-linecap:butt;stroke-linejoin:miter;stroke-miterlimit:4;stroke-opacity:1;stroke-dasharray:none" />
        <path
           sodipodi:nodetypes="cc"
           transform="translate(0,-10.629965)"
           inkscape:connector-curvature="0"
           id="path3228"
           d="m -839.37741,147.66726 0,421.65355"
           style="fill:none;stroke:#000000;stroke-width:0.70866144;stroke-linecap:butt;stroke-linejoin:miter;stroke-miterlimit:4;stroke-opacity:1;stroke-dasharray:none" />
        <path
           sodipodi:nodetypes="cc"
           transform="translate(0,-10.629965)"
           inkscape:connector-curvature="0"
           id="path3230"
           d="m -787.99946,147.66726 0,421.65355"
           style="fill:none;stroke:#000000;stroke-width:0.70866144;stroke-linecap:butt;stroke-linejoin:miter;stroke-miterlimit:4;stroke-opacity:1;stroke-dasharray:none" />
        <path
           sodipodi:nodetypes="cc"
           transform="translate(0,-10.629965)"
           inkscape:connector-curvature="0"
           id="path3232"
           d="m -736.62153,147.66726 4e-5,421.65355"
           style="fill:none;stroke:#000000;stroke-width:0.70866144;stroke-linecap:butt;stroke-linejoin:miter;stroke-miterlimit:4;stroke-opacity:1;stroke-dasharray:none" />
        <path
           sodipodi:nodetypes="cc"
           transform="translate(0,-10.629965)"
           inkscape:connector-curvature="0"
           id="path3234"
           d="m -685.24356,147.66726 0,421.65355"
           style="fill:none;stroke:#000000;stroke-width:0.70866144;stroke-linecap:butt;stroke-linejoin:miter;stroke-miterlimit:4;stroke-opacity:1;stroke-dasharray:none" />
        <path
           sodipodi:nodetypes="cc"
           transform="translate(0,-10.629965)"
           inkscape:connector-curvature="0"
           id="path3236"
           d="m -633.86563,569.32081 2e-5,-421.65355"
           style="fill:none;stroke:#000000;stroke-width:0.70866144;stroke-linecap:butt;stroke-linejoin:miter;stroke-miterlimit:4;stroke-opacity:1;stroke-dasharray:none" />
        <path
           sodipodi:nodetypes="cc"
           transform="translate(0,-10.629965)"
           inkscape:connector-curvature="0"
           id="path3238"
           d="m -582.48767,147.66726 -10e-6,421.65355"
           style="fill:none;stroke:#000000;stroke-width:0.70866144;stroke-linecap:butt;stroke-linejoin:miter;stroke-miterlimit:4;stroke-opacity:1;stroke-dasharray:none" />
        <path
           sodipodi:nodetypes="cc"
           transform="translate(0,-10.629965)"
           inkscape:connector-curvature="0"
           id="path3240"
           d="m -947.44843,204.36009 421.65355,3e-5"
           style="fill:none;stroke:#000000;stroke-width:0.70866144;stroke-linecap:butt;stroke-linejoin:miter;stroke-miterlimit:4;stroke-opacity:1;stroke-dasharray:none" />
        <path
           sodipodi:nodetypes="cc"
           transform="translate(0,-10.629965)"
           inkscape:connector-curvature="0"
           id="path3242"
           d="m -947.44843,255.73803 421.65355,2e-5"
           style="fill:none;stroke:#000000;stroke-width:0.70866144;stroke-linecap:butt;stroke-linejoin:miter;stroke-miterlimit:4;stroke-opacity:1;stroke-dasharray:none" />
        <path
           sodipodi:nodetypes="cc"
           transform="translate(0,-10.629965)"
           inkscape:connector-curvature="0"
           id="path3244"
           d="m -947.44843,307.11598 421.65355,-2e-5"
           style="fill:none;stroke:#000000;stroke-width:0.70866144;stroke-linecap:butt;stroke-linejoin:miter;stroke-miterlimit:4;stroke-opacity:1;stroke-dasharray:none" />
        <path
           sodipodi:nodetypes="cc"
           transform="translate(0,-10.629965)"
           inkscape:connector-curvature="0"
           id="path3246"
           d="m -947.44843,358.49389 421.65355,2e-5"
           style="fill:none;stroke:#000000;stroke-width:0.70866144;stroke-linecap:butt;stroke-linejoin:miter;stroke-miterlimit:4;stroke-opacity:1;stroke-dasharray:none" />
        <path
           sodipodi:nodetypes="cc"
           transform="translate(0,-10.629965)"
           inkscape:connector-curvature="0"
           id="path3248"
           d="m -947.44843,409.87184 421.65355,0"
           style="fill:none;stroke:#000000;stroke-width:0.70866144;stroke-linecap:butt;stroke-linejoin:miter;stroke-miterlimit:4;stroke-opacity:1;stroke-dasharray:none" />
        <path
           sodipodi:nodetypes="cc"
           transform="translate(0,-10.629965)"
           inkscape:connector-curvature="0"
           id="path3250"
           d="m -947.44843,461.24973 421.65355,6e-5"
           style="fill:none;stroke:#000000;stroke-width:0.70866144;stroke-linecap:butt;stroke-linejoin:miter;stroke-miterlimit:4;stroke-opacity:1;stroke-dasharray:none" />
        <path
           sodipodi:nodetypes="cc"
           transform="translate(0,-10.629965)"
           inkscape:connector-curvature="0"
           id="path3252"
           d="m -947.44843,512.62766 421.65355,0"
           style="fill:none;stroke:#000000;stroke-width:0.70866144;stroke-linecap:butt;stroke-linejoin:miter;stroke-miterlimit:4;stroke-opacity:1;stroke-dasharray:none" />
      </g>
    </g>
  </g>
  <g
     inkscape:groupmode="layer"
     id="layer2"
     inkscape:label="Layer"
     style="display:inline">
    <g
       id="g18711" />
  </g>
</svg>
