<?xml version="1.0" encoding="UTF-8" standalone="no"?>
<!-- Created with Inkscape (http://www.inkscape.org/) -->

<svg
   xmlns:dc="http://purl.org/dc/elements/1.1/"
   xmlns:cc="http://creativecommons.org/ns#"
   xmlns:rdf="http://www.w3.org/1999/02/22-rdf-syntax-ns#"
   xmlns:svg="http://www.w3.org/2000/svg"
   xmlns="http://www.w3.org/2000/svg"
   xmlns:sodipodi="http://sodipodi.sourceforge.net/DTD/sodipodi-0.dtd"
   xmlns:inkscape="http://www.inkscape.org/namespaces/inkscape"
   id="svg2"
   version="1.1"
   inkscape:version="0.48.4 r9939"
   width="744.09449"
   height="1052.3622"
   xml:space="preserve"
   sodipodi:docname="f_solder.pdf"><metadata
     id="metadata8"><rdf:RDF><cc:Work
         rdf:about=""><dc:format>image/svg+xml</dc:format><dc:type
           rdf:resource="http://purl.org/dc/dcmitype/StillImage" /><dc:title></dc:title></cc:Work></rdf:RDF></metadata><defs
     id="defs6" /><sodipodi:namedview
     pagecolor="#ffffff"
     bordercolor="#666666"
     borderopacity="1"
     objecttolerance="10"
     gridtolerance="10"
     guidetolerance="10"
     inkscape:pageopacity="0"
     inkscape:pageshadow="2"
     inkscape:window-width="1920"
     inkscape:window-height="1018"
     id="namedview4"
     showgrid="false"
     inkscape:zoom="2.1506588"
     inkscape:cx="340.60968"
     inkscape:cy="445.75584"
     inkscape:window-x="0"
     inkscape:window-y="27"
     inkscape:window-maximized="1"
     inkscape:current-layer="g10" /><g
     id="g10"
     inkscape:groupmode="layer"
     inkscape:label="f_solder"
     transform="matrix(1.25,0,0,-1.25,0,1052.3622)"><g
       id="g3920"
       transform="translate(93.397793,112.78363)"
       style="stroke-width:0.56692914;stroke-miterlimit:4;stroke-dasharray:none"><path
         inkscape:connector-curvature="0"
         id="path16"
         style="fill:none;stroke:#00ff00;stroke-width:0.56692914;stroke-linecap:round;stroke-linejoin:round;stroke-miterlimit:4;stroke-opacity:1;stroke-dasharray:none"
         d="m 171.84,311.51876 0,-1.68 4.559,0 0,1.68 -4.559,0 z" /><path
         inkscape:connector-curvature="0"
         id="path20"
         style="fill:none;stroke:#00ff00;stroke-width:0.56692914;stroke-linecap:round;stroke-linejoin:round;stroke-miterlimit:4;stroke-opacity:1;stroke-dasharray:none"
         d="m 171.84,309.11976 0,-1.441 4.559,0 0,1.441 -4.559,0 z" /><path
         inkscape:connector-curvature="0"
         id="path24"
         style="fill:none;stroke:#00ff00;stroke-width:0.56692914;stroke-linecap:round;stroke-linejoin:round;stroke-miterlimit:4;stroke-opacity:1;stroke-dasharray:none"
         d="m 171.84,306.95976 0,-1.68 4.559,0 0,1.68 -4.559,0 z" /><path
         inkscape:connector-curvature="0"
         id="path28"
         style="fill:none;stroke:#00ff00;stroke-width:0.56692914;stroke-linecap:round;stroke-linejoin:round;stroke-miterlimit:4;stroke-opacity:1;stroke-dasharray:none"
         d="m 171.84,304.56176 0,-1.441 4.559,0 0,1.441 -4.559,0 z" /><path
         inkscape:connector-curvature="0"
         id="path32"
         style="fill:none;stroke:#00ff00;stroke-width:0.56692914;stroke-linecap:round;stroke-linejoin:round;stroke-miterlimit:4;stroke-opacity:1;stroke-dasharray:none"
         d="m 171.84,302.40176 0,-1.68 4.559,0 0,1.68 -4.559,0 z" /><path
         inkscape:connector-curvature="0"
         id="path36"
         style="fill:none;stroke:#00ff00;stroke-width:0.56692914;stroke-linecap:round;stroke-linejoin:round;stroke-miterlimit:4;stroke-opacity:1;stroke-dasharray:none"
         d="m 171.84,299.99876 0,-1.438 4.559,0 0,1.438 -4.559,0 z" /><path
         inkscape:connector-curvature="0"
         id="path40"
         style="fill:none;stroke:#00ff00;stroke-width:0.56692914;stroke-linecap:round;stroke-linejoin:round;stroke-miterlimit:4;stroke-opacity:1;stroke-dasharray:none"
         d="m 171.84,297.83876 0,-1.438 4.559,0 0,1.438 -4.559,0 z" /><path
         inkscape:connector-curvature="0"
         id="path44"
         style="fill:none;stroke:#00ff00;stroke-width:0.56692914;stroke-linecap:round;stroke-linejoin:round;stroke-miterlimit:4;stroke-opacity:1;stroke-dasharray:none"
         d="m 171.84,295.67876 0,-1.68 4.559,0 0,1.68 -4.559,0 z" /><path
         inkscape:connector-curvature="0"
         id="path48"
         style="fill:none;stroke:#00ff00;stroke-width:0.56692914;stroke-linecap:round;stroke-linejoin:round;stroke-miterlimit:4;stroke-opacity:1;stroke-dasharray:none"
         d="m 177.359,293.03776 0,-4.559 1.68,0 0,4.559 -1.68,0 z" /><path
         inkscape:connector-curvature="0"
         id="path52"
         style="fill:none;stroke:#00ff00;stroke-width:0.56692914;stroke-linecap:round;stroke-linejoin:round;stroke-miterlimit:4;stroke-opacity:1;stroke-dasharray:none"
         d="m 179.762,293.03776 0,-4.559 1.438,0 0,4.559 -1.438,0 z" /><path
         inkscape:connector-curvature="0"
         id="path56"
         style="fill:none;stroke:#00ff00;stroke-width:0.56692914;stroke-linecap:round;stroke-linejoin:round;stroke-miterlimit:4;stroke-opacity:1;stroke-dasharray:none"
         d="m 181.922,293.03776 0,-4.559 1.438,0 0,4.559 -1.438,0 z" /><path
         inkscape:connector-curvature="0"
         id="path60"
         style="fill:none;stroke:#00ff00;stroke-width:0.56692914;stroke-linecap:round;stroke-linejoin:round;stroke-miterlimit:4;stroke-opacity:1;stroke-dasharray:none"
         d="m 184.078,293.03776 0,-4.559 1.684,0 0,4.559 -1.684,0 z" /><path
         inkscape:connector-curvature="0"
         id="path64"
         style="fill:none;stroke:#00ff00;stroke-width:0.56692914;stroke-linecap:round;stroke-linejoin:round;stroke-miterlimit:4;stroke-opacity:1;stroke-dasharray:none"
         d="m 186.48,293.03776 0,-4.559 1.441,0 0,4.559 -1.441,0 z" /><path
         inkscape:connector-curvature="0"
         id="path68"
         style="fill:none;stroke:#00ff00;stroke-width:0.56692914;stroke-linecap:round;stroke-linejoin:round;stroke-miterlimit:4;stroke-opacity:1;stroke-dasharray:none"
         d="m 188.641,293.03776 0,-4.559 1.68,0 0,4.559 -1.68,0 z" /><path
         inkscape:connector-curvature="0"
         id="path72"
         style="fill:none;stroke:#00ff00;stroke-width:0.56692914;stroke-linecap:round;stroke-linejoin:round;stroke-miterlimit:4;stroke-opacity:1;stroke-dasharray:none"
         d="m 191.039,293.03776 0,-4.559 1.441,0 0,4.559 -1.441,0 z" /><path
         inkscape:connector-curvature="0"
         id="path76"
         style="fill:none;stroke:#00ff00;stroke-width:0.56692914;stroke-linecap:round;stroke-linejoin:round;stroke-miterlimit:4;stroke-opacity:1;stroke-dasharray:none"
         d="m 193.199,293.03776 0,-4.559 1.68,0 0,4.559 -1.68,0 z" /><path
         inkscape:connector-curvature="0"
         id="path80"
         style="fill:none;stroke:#00ff00;stroke-width:0.56692914;stroke-linecap:round;stroke-linejoin:round;stroke-miterlimit:4;stroke-opacity:1;stroke-dasharray:none"
         d="m 195.84,295.67876 0,-1.68 4.559,0 0,1.68 -4.559,0 z" /><path
         inkscape:connector-curvature="0"
         id="path84"
         style="fill:none;stroke:#00ff00;stroke-width:0.56692914;stroke-linecap:round;stroke-linejoin:round;stroke-miterlimit:4;stroke-opacity:1;stroke-dasharray:none"
         d="m 195.84,297.83876 0,-1.438 4.559,0 0,1.438 -4.559,0 z" /><path
         inkscape:connector-curvature="0"
         id="path88"
         style="fill:none;stroke:#00ff00;stroke-width:0.56692914;stroke-linecap:round;stroke-linejoin:round;stroke-miterlimit:4;stroke-opacity:1;stroke-dasharray:none"
         d="m 195.84,299.99876 0,-1.438 4.559,0 0,1.438 -4.559,0 z" /><path
         inkscape:connector-curvature="0"
         id="path92"
         style="fill:none;stroke:#00ff00;stroke-width:0.56692914;stroke-linecap:round;stroke-linejoin:round;stroke-miterlimit:4;stroke-opacity:1;stroke-dasharray:none"
         d="m 195.84,302.40176 0,-1.68 4.559,0 0,1.68 -4.559,0 z" /><path
         inkscape:connector-curvature="0"
         id="path96"
         style="fill:none;stroke:#00ff00;stroke-width:0.56692914;stroke-linecap:round;stroke-linejoin:round;stroke-miterlimit:4;stroke-opacity:1;stroke-dasharray:none"
         d="m 195.84,304.56176 0,-1.441 4.559,0 0,1.441 -4.559,0 z" /><path
         inkscape:connector-curvature="0"
         id="path100"
         style="fill:none;stroke:#00ff00;stroke-width:0.56692914;stroke-linecap:round;stroke-linejoin:round;stroke-miterlimit:4;stroke-opacity:1;stroke-dasharray:none"
         d="m 195.84,306.95976 0,-1.68 4.559,0 0,1.68 -4.559,0 z" /><path
         inkscape:connector-curvature="0"
         id="path104"
         style="fill:none;stroke:#00ff00;stroke-width:0.56692914;stroke-linecap:round;stroke-linejoin:round;stroke-miterlimit:4;stroke-opacity:1;stroke-dasharray:none"
         d="m 195.84,309.11976 0,-1.441 4.559,0 0,1.441 -4.559,0 z" /><path
         inkscape:connector-curvature="0"
         id="path108"
         style="fill:none;stroke:#00ff00;stroke-width:0.56692914;stroke-linecap:round;stroke-linejoin:round;stroke-miterlimit:4;stroke-opacity:1;stroke-dasharray:none"
         d="m 195.84,311.51876 0,-1.68 4.559,0 0,1.68 -4.559,0 z" /><path
         inkscape:connector-curvature="0"
         id="path112"
         style="fill:none;stroke:#00ff00;stroke-width:0.56692914;stroke-linecap:round;stroke-linejoin:round;stroke-miterlimit:4;stroke-opacity:1;stroke-dasharray:none"
         d="m 193.199,317.03776 0,-4.559 1.68,0 0,4.559 -1.68,0 z" /><path
         inkscape:connector-curvature="0"
         id="path116"
         style="fill:none;stroke:#00ff00;stroke-width:0.56692914;stroke-linecap:round;stroke-linejoin:round;stroke-miterlimit:4;stroke-opacity:1;stroke-dasharray:none"
         d="m 191.039,317.03776 0,-4.559 1.441,0 0,4.559 -1.441,0 z" /><path
         inkscape:connector-curvature="0"
         id="path120"
         style="fill:none;stroke:#00ff00;stroke-width:0.56692914;stroke-linecap:round;stroke-linejoin:round;stroke-miterlimit:4;stroke-opacity:1;stroke-dasharray:none"
         d="m 188.641,317.03776 0,-4.559 1.68,0 0,4.559 -1.68,0 z" /><path
         inkscape:connector-curvature="0"
         id="path124"
         style="fill:none;stroke:#00ff00;stroke-width:0.56692914;stroke-linecap:round;stroke-linejoin:round;stroke-miterlimit:4;stroke-opacity:1;stroke-dasharray:none"
         d="m 186.48,317.03776 0,-4.559 1.441,0 0,4.559 -1.441,0 z" /><path
         inkscape:connector-curvature="0"
         id="path128"
         style="fill:none;stroke:#00ff00;stroke-width:0.56692914;stroke-linecap:round;stroke-linejoin:round;stroke-miterlimit:4;stroke-opacity:1;stroke-dasharray:none"
         d="m 184.078,317.03776 0,-4.559 1.684,0 0,4.559 -1.684,0 z" /><path
         inkscape:connector-curvature="0"
         id="path132"
         style="fill:none;stroke:#00ff00;stroke-width:0.56692914;stroke-linecap:round;stroke-linejoin:round;stroke-miterlimit:4;stroke-opacity:1;stroke-dasharray:none"
         d="m 181.922,317.03776 0,-4.559 1.438,0 0,4.559 -1.438,0 z" /><path
         inkscape:connector-curvature="0"
         id="path136"
         style="fill:none;stroke:#00ff00;stroke-width:0.56692914;stroke-linecap:round;stroke-linejoin:round;stroke-miterlimit:4;stroke-opacity:1;stroke-dasharray:none"
         d="m 179.762,317.03776 0,-4.559 1.438,0 0,4.559 -1.438,0 z" /><path
         inkscape:connector-curvature="0"
         id="path140"
         style="fill:none;stroke:#00ff00;stroke-width:0.56692914;stroke-linecap:round;stroke-linejoin:round;stroke-miterlimit:4;stroke-opacity:1;stroke-dasharray:none"
         d="m 177.359,317.03776 0,-4.559 1.68,0 0,4.559 -1.68,0 z" /><path
         inkscape:connector-curvature="0"
         id="path144"
         style="fill:none;stroke:#00ff00;stroke-width:0.56692914;stroke-linecap:round;stroke-linejoin:round;stroke-miterlimit:4;stroke-opacity:1;stroke-dasharray:none"
         d="m 160.801,292.56176 0,-3.602 4.32,0 0,3.602 -4.32,0 z" /><path
         inkscape:connector-curvature="0"
         id="path148"
         style="fill:none;stroke:#00ff00;stroke-width:0.56692914;stroke-linecap:round;stroke-linejoin:round;stroke-miterlimit:4;stroke-opacity:1;stroke-dasharray:none"
         d="m 153.84,292.56176 0,-3.602 4.082,0 0,3.602 -4.082,0 z" /><path
         inkscape:connector-curvature="0"
         id="path152"
         style="fill:none;stroke:#00ff00;stroke-width:0.56692914;stroke-linecap:round;stroke-linejoin:round;stroke-miterlimit:4;stroke-opacity:1;stroke-dasharray:none"
         d="m 207.602,359.51876 0,-5.758 4.559,0 0,5.758 -4.559,0 z" /><path
         inkscape:connector-curvature="0"
         id="path156"
         style="fill:none;stroke:#00ff00;stroke-width:0.56692914;stroke-linecap:round;stroke-linejoin:round;stroke-miterlimit:4;stroke-opacity:1;stroke-dasharray:none"
         d="m 207.602,370.79976 0,-5.762 4.559,0 0,5.762 -4.559,0 z" /><path
         inkscape:connector-curvature="0"
         id="path160"
         style="fill:none;stroke:#00ff00;stroke-width:0.56692914;stroke-linecap:round;stroke-linejoin:round;stroke-miterlimit:4;stroke-opacity:1;stroke-dasharray:none"
         d="m 222.48,358.79976 0,-5.52 4.32,0 0,5.52 -4.32,0 z" /><path
         inkscape:connector-curvature="0"
         id="path164"
         style="fill:none;stroke:#00ff00;stroke-width:0.56692914;stroke-linecap:round;stroke-linejoin:round;stroke-miterlimit:4;stroke-opacity:1;stroke-dasharray:none"
         d="m 222.48,370.31976 0,-5.758 4.32,0 0,5.758 -4.32,0 z" /><path
         inkscape:connector-curvature="0"
         id="path168"
         style="fill:none;stroke:#00ff00;stroke-width:0.56692914;stroke-linecap:round;stroke-linejoin:round;stroke-miterlimit:4;stroke-opacity:1;stroke-dasharray:none"
         d="m 199.922,273.35876 0,-3.598 4.316,0 0,3.598 -4.316,0 z" /><path
         inkscape:connector-curvature="0"
         id="path172"
         style="fill:none;stroke:#00ff00;stroke-width:0.56692914;stroke-linecap:round;stroke-linejoin:round;stroke-miterlimit:4;stroke-opacity:1;stroke-dasharray:none"
         d="m 192.961,273.35876 0,-3.598 4.078,0 0,3.598 -4.078,0 z" /><path
         inkscape:connector-curvature="0"
         id="path176"
         style="fill:none;stroke:#00ff00;stroke-width:0.56692914;stroke-linecap:round;stroke-linejoin:round;stroke-miterlimit:4;stroke-opacity:1;stroke-dasharray:none"
         d="m 207.602,304.08076 0,-4.082 3.598,0 0,4.082 -3.598,0 z" /><path
         inkscape:connector-curvature="0"
         id="path180"
         style="fill:none;stroke:#00ff00;stroke-width:0.56692914;stroke-linecap:round;stroke-linejoin:round;stroke-miterlimit:4;stroke-opacity:1;stroke-dasharray:none"
         d="m 207.602,311.28076 0,-4.32 3.598,0 0,4.32 -3.598,0 z" /><path
         inkscape:connector-curvature="0"
         id="path184"
         style="fill:none;stroke:#00ff00;stroke-width:0.56692914;stroke-linecap:round;stroke-linejoin:round;stroke-miterlimit:4;stroke-opacity:1;stroke-dasharray:none"
         d="m 174.961,357.83876 0,-5.039 2.16,0 0,5.039 -2.16,0 z" /><path
         inkscape:connector-curvature="0"
         id="path188"
         style="fill:none;stroke:#00ff00;stroke-width:0.56692914;stroke-linecap:round;stroke-linejoin:round;stroke-miterlimit:4;stroke-opacity:1;stroke-dasharray:none"
         d="m 180.238,357.83876 0,-5.039 2.402,0 0,5.039 -2.402,0 z" /><path
         inkscape:connector-curvature="0"
         id="path192"
         style="fill:none;stroke:#00ff00;stroke-width:0.56692914;stroke-linecap:round;stroke-linejoin:round;stroke-miterlimit:4;stroke-opacity:1;stroke-dasharray:none"
         d="m 177.602,366.47976 0,-5.281 2.16,0 0,5.281 -2.16,0 z" /><path
         inkscape:connector-curvature="0"
         id="path196"
         style="fill:none;stroke:#00ff00;stroke-width:0.56692914;stroke-linecap:round;stroke-linejoin:round;stroke-miterlimit:4;stroke-opacity:1;stroke-dasharray:none"
         d="m 247.68,336.95976 0,-2.641 3.359,0 0,2.641 -3.359,0 z" /><path
         inkscape:connector-curvature="0"
         id="path200"
         style="fill:none;stroke:#00ff00;stroke-width:0.56692914;stroke-linecap:round;stroke-linejoin:round;stroke-miterlimit:4;stroke-opacity:1;stroke-dasharray:none"
         d="m 253.922,336.95976 0,-2.641 3.359,0 0,2.641 -3.359,0 z" /><path
         inkscape:connector-curvature="0"
         id="path204"
         style="fill:none;stroke:#00ff00;stroke-width:0.56692914;stroke-linecap:round;stroke-linejoin:round;stroke-miterlimit:4;stroke-opacity:1;stroke-dasharray:none"
         d="m 156.48,364.79976 0,-3.359 2.641,0 0,3.359 -2.641,0 z" /><path
         inkscape:connector-curvature="0"
         id="path208"
         style="fill:none;stroke:#00ff00;stroke-width:0.56692914;stroke-linecap:round;stroke-linejoin:round;stroke-miterlimit:4;stroke-opacity:1;stroke-dasharray:none"
         d="m 156.48,358.56176 0,-3.363 2.641,0 0,3.363 -2.641,0 z" /><path
         inkscape:connector-curvature="0"
         id="path212"
         style="fill:none;stroke:#00ff00;stroke-width:0.56692914;stroke-linecap:round;stroke-linejoin:round;stroke-miterlimit:4;stroke-opacity:1;stroke-dasharray:none"
         d="m 242.641,286.56176 0,-3.363 2.641,0 0,3.363 -2.641,0 z" /><path
         inkscape:connector-curvature="0"
         id="path216"
         style="fill:none;stroke:#00ff00;stroke-width:0.56692914;stroke-linecap:round;stroke-linejoin:round;stroke-miterlimit:4;stroke-opacity:1;stroke-dasharray:none"
         d="m 242.641,280.31976 0,-3.359 2.641,0 0,3.359 -2.641,0 z" /><path
         inkscape:connector-curvature="0"
         id="path220"
         style="fill:none;stroke:#00ff00;stroke-width:0.56692914;stroke-linecap:round;stroke-linejoin:round;stroke-miterlimit:4;stroke-opacity:1;stroke-dasharray:none"
         d="m 251.762,280.08076 0,-3.359 6.238,0 0,3.359 -6.238,0 z" /><path
         inkscape:connector-curvature="0"
         id="path224"
         style="fill:none;stroke:#00ff00;stroke-width:0.56692914;stroke-linecap:round;stroke-linejoin:round;stroke-miterlimit:4;stroke-opacity:1;stroke-dasharray:none"
         d="m 251.762,272.88176 0,-3.363 6.238,0 0,3.363 -6.238,0 z" /><path
         inkscape:connector-curvature="0"
         id="path228"
         style="fill:none;stroke:#00ff00;stroke-width:0.56692914;stroke-linecap:round;stroke-linejoin:round;stroke-miterlimit:4;stroke-opacity:1;stroke-dasharray:none"
         d="m 251.762,265.67876 0,-3.359 6.238,0 0,3.359 -6.238,0 z" /><path
         inkscape:connector-curvature="0"
         id="path232"
         style="fill:none;stroke:#00ff00;stroke-width:0.56692914;stroke-linecap:round;stroke-linejoin:round;stroke-miterlimit:4;stroke-opacity:1;stroke-dasharray:none"
         d="m 251.762,258.47976 0,-3.359 6.238,0 0,3.359 -6.238,0 z" /><path
         inkscape:connector-curvature="0"
         id="path236"
         style="fill:none;stroke:#00ff00;stroke-width:0.56692914;stroke-linecap:round;stroke-linejoin:round;stroke-miterlimit:4;stroke-opacity:1;stroke-dasharray:none"
         d="m 275.281,258.47976 0,-3.359 6,0 0,3.359 -6,0 z" /><path
         inkscape:connector-curvature="0"
         id="path240"
         style="fill:none;stroke:#00ff00;stroke-width:0.56692914;stroke-linecap:round;stroke-linejoin:round;stroke-miterlimit:4;stroke-opacity:1;stroke-dasharray:none"
         d="m 275.281,265.67876 0,-3.359 6,0 0,3.359 -6,0 z" /><path
         inkscape:connector-curvature="0"
         id="path244"
         style="fill:none;stroke:#00ff00;stroke-width:0.56692914;stroke-linecap:round;stroke-linejoin:round;stroke-miterlimit:4;stroke-opacity:1;stroke-dasharray:none"
         d="m 275.281,272.88176 0,-3.363 6,0 0,3.363 -6,0 z" /><path
         inkscape:connector-curvature="0"
         id="path248"
         style="fill:none;stroke:#00ff00;stroke-width:0.56692914;stroke-linecap:round;stroke-linejoin:round;stroke-miterlimit:4;stroke-opacity:1;stroke-dasharray:none"
         d="m 275.281,280.08076 0,-3.359 6,0 0,3.359 -6,0 z" /><path
         inkscape:connector-curvature="0"
         id="path252"
         style="fill:none;stroke:#00ff00;stroke-width:0.56692914;stroke-linecap:round;stroke-linejoin:round;stroke-miterlimit:4;stroke-opacity:1;stroke-dasharray:none"
         d="m 165.602,365.03776 0,-3.598 2.398,0 0,3.598 -2.398,0 z" /><path
         inkscape:connector-curvature="0"
         id="path256"
         style="fill:none;stroke:#00ff00;stroke-width:0.56692914;stroke-linecap:round;stroke-linejoin:round;stroke-miterlimit:4;stroke-opacity:1;stroke-dasharray:none"
         d="m 165.602,358.79976 0,-3.359 2.398,0 0,3.359 -2.398,0 z" /><path
         inkscape:connector-curvature="0"
         id="path260"
         style="fill:none;stroke:#00ff00;stroke-width:0.56692914;stroke-linecap:round;stroke-linejoin:round;stroke-miterlimit:4;stroke-opacity:1;stroke-dasharray:none"
         d="m 188.879,371.51876 0,-3.359 2.402,0 0,3.359 -2.402,0 z" /><path
         inkscape:connector-curvature="0"
         id="path264"
         style="fill:none;stroke:#00ff00;stroke-width:0.56692914;stroke-linecap:round;stroke-linejoin:round;stroke-miterlimit:4;stroke-opacity:1;stroke-dasharray:none"
         d="m 188.879,365.28076 0,-3.359 2.402,0 0,3.359 -2.402,0 z" /><path
         inkscape:connector-curvature="0"
         id="path268"
         style="fill:none;stroke:#00ff00;stroke-width:0.56692914;stroke-linecap:round;stroke-linejoin:round;stroke-miterlimit:4;stroke-opacity:1;stroke-dasharray:none"
         d="m 234.719,353.51876 0,-3.359 2.641,0 0,3.359 -2.641,0 z" /><path
         inkscape:connector-curvature="0"
         id="path272"
         style="fill:none;stroke:#00ff00;stroke-width:0.56692914;stroke-linecap:round;stroke-linejoin:round;stroke-miterlimit:4;stroke-opacity:1;stroke-dasharray:none"
         d="m 234.719,359.76076 0,-3.359 2.641,0 0,3.359 -2.641,0 z" /><path
         inkscape:connector-curvature="0"
         id="path276"
         style="fill:none;stroke:#00ff00;stroke-width:0.56692914;stroke-linecap:round;stroke-linejoin:round;stroke-miterlimit:4;stroke-opacity:1;stroke-dasharray:none"
         d="m 184.078,272.88176 0,-2.641 3.363,0 0,2.641 -3.363,0 z" /><path
         inkscape:connector-curvature="0"
         id="path280"
         style="fill:none;stroke:#00ff00;stroke-width:0.56692914;stroke-linecap:round;stroke-linejoin:round;stroke-miterlimit:4;stroke-opacity:1;stroke-dasharray:none"
         d="m 177.84,272.88176 0,-2.641 3.359,0 0,2.641 -3.359,0 z" /><path
         inkscape:connector-curvature="0"
         id="path284"
         style="fill:none;stroke:#00ff00;stroke-width:0.56692914;stroke-linecap:round;stroke-linejoin:round;stroke-miterlimit:4;stroke-opacity:1;stroke-dasharray:none"
         d="m 169.68,289.44076 0,-1.68 4.32,0 0,1.68 -4.32,0 z" /><path
         inkscape:connector-curvature="0"
         id="path288"
         style="fill:none;stroke:#00ff00;stroke-width:0.56692914;stroke-linecap:round;stroke-linejoin:round;stroke-miterlimit:4;stroke-opacity:1;stroke-dasharray:none"
         d="m 169.68,286.08076 0,-1.68 4.32,0 0,1.68 -4.32,0 z" /><path
         inkscape:connector-curvature="0"
         id="path292"
         style="fill:none;stroke:#00ff00;stroke-width:0.56692914;stroke-linecap:round;stroke-linejoin:round;stroke-miterlimit:4;stroke-opacity:1;stroke-dasharray:none"
         d="m 169.68,282.72176 0,-1.922 4.32,0 0,1.922 -4.32,0 z" /><path
         inkscape:connector-curvature="0"
         id="path296"
         style="fill:none;stroke:#00ff00;stroke-width:0.56692914;stroke-linecap:round;stroke-linejoin:round;stroke-miterlimit:4;stroke-opacity:1;stroke-dasharray:none"
         d="m 160.559,304.56176 0,-4.562 6.242,0 0,4.562 -6.242,0 z" /><path
         inkscape:connector-curvature="0"
         id="path300"
         style="fill:none;stroke:#00ff00;stroke-width:0.56692914;stroke-linecap:round;stroke-linejoin:round;stroke-miterlimit:4;stroke-opacity:1;stroke-dasharray:none"
         d="m 152.16,304.56176 0,-4.562 6.238,0 0,4.562 -6.238,0 z" /><path
         inkscape:connector-curvature="0"
         id="path304"
         style="fill:none;stroke:#00ff00;stroke-width:0.56692914;stroke-linecap:round;stroke-linejoin:round;stroke-miterlimit:4;stroke-opacity:1;stroke-dasharray:none"
         d="m 260.641,338.15976 0,-5.039 4.559,0 0,5.039 -4.559,0 z" /><path
         inkscape:connector-curvature="0"
         id="path308"
         style="fill:none;stroke:#00ff00;stroke-width:0.56692914;stroke-linecap:round;stroke-linejoin:round;stroke-miterlimit:4;stroke-opacity:1;stroke-dasharray:none"
         d="m 268.559,338.15976 0,-5.039 4.562,0 0,5.039 -4.562,0 z" /><path
         inkscape:connector-curvature="0"
         id="path312"
         style="fill:none;stroke:#00ff00;stroke-width:0.56692914;stroke-linecap:round;stroke-linejoin:round;stroke-miterlimit:4;stroke-opacity:1;stroke-dasharray:none"
         d="m 212.398,340.08076 0,-5.043 2.16,0 0,5.043 -2.16,0 z" /><path
         inkscape:connector-curvature="0"
         id="path316"
         style="fill:none;stroke:#00ff00;stroke-width:0.56692914;stroke-linecap:round;stroke-linejoin:round;stroke-miterlimit:4;stroke-opacity:1;stroke-dasharray:none"
         d="m 217.68,340.08076 0,-5.043 2.398,0 0,5.043 -2.398,0 z" /><path
         inkscape:connector-curvature="0"
         id="path320"
         style="fill:none;stroke:#00ff00;stroke-width:0.56692914;stroke-linecap:round;stroke-linejoin:round;stroke-miterlimit:4;stroke-opacity:1;stroke-dasharray:none"
         d="m 215.039,348.72176 0,-5.043 2.16,0 0,5.043 -2.16,0 z" /><path
         inkscape:connector-curvature="0"
         id="path324"
         style="fill:none;stroke:#00ff00;stroke-width:0.56692914;stroke-linecap:round;stroke-linejoin:round;stroke-miterlimit:4;stroke-opacity:1;stroke-dasharray:none"
         d="m 240.48,371.03776 0,-2.879 8.879,0 0,2.879 -8.879,0 z" /><path
         inkscape:connector-curvature="0"
         id="path328"
         style="fill:none;stroke:#00ff00;stroke-width:0.56692914;stroke-linecap:round;stroke-linejoin:round;stroke-miterlimit:4;stroke-opacity:1;stroke-dasharray:none"
         d="m 265.68,371.03776 0,-2.879 8.879,0 0,2.879 -8.879,0 z" /><path
         inkscape:connector-curvature="0"
         id="path332"
         style="fill:none;stroke:#00ff00;stroke-width:0.56692914;stroke-linecap:round;stroke-linejoin:round;stroke-miterlimit:4;stroke-opacity:1;stroke-dasharray:none"
         d="m 265.68,359.76076 0,-2.879 8.879,0 0,2.879 -8.879,0 z" /><path
         inkscape:connector-curvature="0"
         id="path336"
         style="fill:none;stroke:#00ff00;stroke-width:0.56692914;stroke-linecap:round;stroke-linejoin:round;stroke-miterlimit:4;stroke-opacity:1;stroke-dasharray:none"
         d="m 240.48,359.76076 0,-2.879 8.879,0 0,2.879 -8.879,0 z" /><path
         inkscape:connector-curvature="0"
         id="path340"
         style="fill:none;stroke:#00ff00;stroke-width:0.56692914;stroke-linecap:round;stroke-linejoin:round;stroke-miterlimit:4;stroke-opacity:1;stroke-dasharray:none"
         d="m 196.559,247.44076 0,-2.879 8.883,0 0,2.879 -8.883,0 z" /><path
         inkscape:connector-curvature="0"
         id="path344"
         style="fill:none;stroke:#00ff00;stroke-width:0.56692914;stroke-linecap:round;stroke-linejoin:round;stroke-miterlimit:4;stroke-opacity:1;stroke-dasharray:none"
         d="m 171.359,247.44076 0,-2.879 8.879,0 0,2.879 -8.879,0 z" /><path
         inkscape:connector-curvature="0"
         id="path348"
         style="fill:none;stroke:#00ff00;stroke-width:0.56692914;stroke-linecap:round;stroke-linejoin:round;stroke-miterlimit:4;stroke-opacity:1;stroke-dasharray:none"
         d="m 171.359,258.72176 0,-2.641 8.879,0 0,2.641 -8.879,0 z" /><path
         inkscape:connector-curvature="0"
         id="path352"
         style="fill:none;stroke:#00ff00;stroke-width:0.56692914;stroke-linecap:round;stroke-linejoin:round;stroke-miterlimit:4;stroke-opacity:1;stroke-dasharray:none"
         d="m 196.559,258.72176 0,-2.641 8.883,0 0,2.641 -8.883,0 z" /><path
         inkscape:connector-curvature="0"
         id="path356"
         style="fill:none;stroke:#00ff00;stroke-width:0.56692914;stroke-linecap:round;stroke-linejoin:round;stroke-miterlimit:4;stroke-opacity:1;stroke-dasharray:none"
         d="m 268.078,331.19876 0,-5.758 2.883,0 0,5.758 -2.883,0 z" /><path
         inkscape:connector-curvature="0"
         id="path360"
         style="fill:none;stroke:#00ff00;stroke-width:0.56692914;stroke-linecap:round;stroke-linejoin:round;stroke-miterlimit:4;stroke-opacity:1;stroke-dasharray:none"
         d="m 271.68,331.19876 0,-5.758 2.879,0 0,5.758 -2.879,0 z" /><path
         inkscape:connector-curvature="0"
         id="path364"
         style="fill:none;stroke:#00ff00;stroke-width:0.56692914;stroke-linecap:round;stroke-linejoin:round;stroke-miterlimit:4;stroke-opacity:1;stroke-dasharray:none"
         d="m 246,264.95976 0,-3.359 2.641,0 0,3.359 -2.641,0 z" /><path
         inkscape:connector-curvature="0"
         id="path368"
         style="fill:none;stroke:#00ff00;stroke-width:0.56692914;stroke-linecap:round;stroke-linejoin:round;stroke-miterlimit:4;stroke-opacity:1;stroke-dasharray:none"
         d="m 246,258.72176 0,-3.363 2.641,0 0,3.363 -2.641,0 z" /><path
         inkscape:connector-curvature="0"
         id="path372"
         style="fill:none;stroke:#00ff00;stroke-width:0.56692914;stroke-linecap:round;stroke-linejoin:round;stroke-miterlimit:4;stroke-opacity:1;stroke-dasharray:none"
         d="m 239.762,272.40176 0,-3.363 2.637,0 0,3.363 -2.637,0 z" /><path
         inkscape:connector-curvature="0"
         id="path376"
         style="fill:none;stroke:#00ff00;stroke-width:0.56692914;stroke-linecap:round;stroke-linejoin:round;stroke-miterlimit:4;stroke-opacity:1;stroke-dasharray:none"
         d="m 239.762,266.15976 0,-3.359 2.637,0 0,3.359 -2.637,0 z" /><path
         inkscape:connector-curvature="0"
         id="path380"
         style="fill:none;stroke:#00ff00;stroke-width:0.56692914;stroke-linecap:round;stroke-linejoin:round;stroke-miterlimit:4;stroke-opacity:1;stroke-dasharray:none"
         d="m 233.039,279.83876 0,-3.359 2.402,0 0,3.359 -2.402,0 z" /><path
         inkscape:connector-curvature="0"
         id="path384"
         style="fill:none;stroke:#00ff00;stroke-width:0.56692914;stroke-linecap:round;stroke-linejoin:round;stroke-miterlimit:4;stroke-opacity:1;stroke-dasharray:none"
         d="m 233.039,273.60076 0,-3.359 2.402,0 0,3.359 -2.402,0 z" /><path
         inkscape:connector-curvature="0"
         id="path388"
         style="fill:none;stroke:#00ff00;stroke-width:0.56692914;stroke-linecap:round;stroke-linejoin:round;stroke-miterlimit:4;stroke-opacity:1;stroke-dasharray:none"
         d="m 127.199,291.35876 0,-2.398 4.801,0 0,2.398 -4.801,0 z" /><path
         inkscape:connector-curvature="0"
         id="path392"
         style="fill:none;stroke:#00ff00;stroke-width:0.56692914;stroke-linecap:round;stroke-linejoin:round;stroke-miterlimit:4;stroke-opacity:1;stroke-dasharray:none"
         d="m 142.559,269.76076 0,-2.402 4.801,0 0,2.402 -4.801,0 z" /><path
         inkscape:connector-curvature="0"
         id="path396"
         style="fill:none;stroke:#00ff00;stroke-width:0.56692914;stroke-linecap:round;stroke-linejoin:round;stroke-miterlimit:4;stroke-opacity:1;stroke-dasharray:none"
         d="m 142.559,240.95976 0,-2.398 4.801,0 0,2.398 -4.801,0 z" /><path
         inkscape:connector-curvature="0"
         id="path400"
         style="fill:none;stroke:#00ff00;stroke-width:0.56692914;stroke-linecap:round;stroke-linejoin:round;stroke-miterlimit:4;stroke-opacity:1;stroke-dasharray:none"
         d="m 127.199,356.15976 0,-2.398 4.801,0 0,2.398 -4.801,0 z" /><path
         inkscape:connector-curvature="0"
         id="path404"
         style="fill:none;stroke:#00ff00;stroke-width:0.56692914;stroke-linecap:round;stroke-linejoin:round;stroke-miterlimit:4;stroke-opacity:1;stroke-dasharray:none"
         d="m 127.199,363.35876 0,-2.398 4.801,0 0,2.398 -4.801,0 z" /><path
         inkscape:connector-curvature="0"
         id="path408"
         style="fill:none;stroke:#00ff00;stroke-width:0.56692914;stroke-linecap:round;stroke-linejoin:round;stroke-miterlimit:4;stroke-opacity:1;stroke-dasharray:none"
         d="m 127.199,377.76076 0,-2.402 4.801,0 0,2.402 -4.801,0 z" /><path
         inkscape:connector-curvature="0"
         id="path412"
         style="fill:none;stroke:#00ff00;stroke-width:0.56692914;stroke-linecap:round;stroke-linejoin:round;stroke-miterlimit:4;stroke-opacity:1;stroke-dasharray:none"
         d="m 127.199,370.56176 0,-2.402 4.801,0 0,2.402 -4.801,0 z" /><path
         inkscape:connector-curvature="0"
         id="path416"
         style="fill:none;stroke:#00ff00;stroke-width:0.56692914;stroke-linecap:round;stroke-linejoin:round;stroke-miterlimit:4;stroke-opacity:1;stroke-dasharray:none"
         d="m 127.199,298.56176 0,-2.402 4.801,0 0,2.402 -4.801,0 z" /><path
         inkscape:connector-curvature="0"
         id="path420"
         style="fill:none;stroke:#00ff00;stroke-width:0.56692914;stroke-linecap:round;stroke-linejoin:round;stroke-miterlimit:4;stroke-opacity:1;stroke-dasharray:none"
         d="m 127.199,305.76076 0,-2.402 4.801,0 0,2.402 -4.801,0 z" /><path
         inkscape:connector-curvature="0"
         id="path424"
         style="fill:none;stroke:#00ff00;stroke-width:0.56692914;stroke-linecap:round;stroke-linejoin:round;stroke-miterlimit:4;stroke-opacity:1;stroke-dasharray:none"
         d="m 127.199,320.15976 0,-2.398 4.801,0 0,2.398 -4.801,0 z" /><path
         inkscape:connector-curvature="0"
         id="path428"
         style="fill:none;stroke:#00ff00;stroke-width:0.56692914;stroke-linecap:round;stroke-linejoin:round;stroke-miterlimit:4;stroke-opacity:1;stroke-dasharray:none"
         d="m 127.199,312.95976 0,-2.398 4.801,0 0,2.398 -4.801,0 z" /><path
         inkscape:connector-curvature="0"
         id="path432"
         style="fill:none;stroke:#00ff00;stroke-width:0.56692914;stroke-linecap:round;stroke-linejoin:round;stroke-miterlimit:4;stroke-opacity:1;stroke-dasharray:none"
         d="m 127.199,341.76076 0,-2.402 4.801,0 0,2.402 -4.801,0 z" /><path
         inkscape:connector-curvature="0"
         id="path436"
         style="fill:none;stroke:#00ff00;stroke-width:0.56692914;stroke-linecap:round;stroke-linejoin:round;stroke-miterlimit:4;stroke-opacity:1;stroke-dasharray:none"
         d="m 127.199,348.95976 0,-2.398 4.801,0 0,2.398 -4.801,0 z" /><path
         inkscape:connector-curvature="0"
         id="path440"
         style="fill:none;stroke:#00ff00;stroke-width:0.56692914;stroke-linecap:round;stroke-linejoin:round;stroke-miterlimit:4;stroke-opacity:1;stroke-dasharray:none"
         d="m 127.199,334.56176 0,-2.402 4.801,0 0,2.402 -4.801,0 z" /><path
         inkscape:connector-curvature="0"
         id="path444"
         style="fill:none;stroke:#00ff00;stroke-width:0.56692914;stroke-linecap:round;stroke-linejoin:round;stroke-miterlimit:4;stroke-opacity:1;stroke-dasharray:none"
         d="m 127.199,327.35876 0,-2.398 4.801,0 0,2.398 -4.801,0 z" /><path
         inkscape:connector-curvature="0"
         id="path448"
         style="fill:none;stroke:#00ff00;stroke-width:0.56692914;stroke-linecap:round;stroke-linejoin:round;stroke-miterlimit:4;stroke-opacity:1;stroke-dasharray:none"
         d="m 127.199,269.76076 0,-2.402 4.801,0 0,2.402 -4.801,0 z" /><path
         inkscape:connector-curvature="0"
         id="path452"
         style="fill:none;stroke:#00ff00;stroke-width:0.56692914;stroke-linecap:round;stroke-linejoin:round;stroke-miterlimit:4;stroke-opacity:1;stroke-dasharray:none"
         d="m 127.199,276.95976 0,-2.398 4.801,0 0,2.398 -4.801,0 z" /><path
         inkscape:connector-curvature="0"
         id="path456"
         style="fill:none;stroke:#00ff00;stroke-width:0.56692914;stroke-linecap:round;stroke-linejoin:round;stroke-miterlimit:4;stroke-opacity:1;stroke-dasharray:none"
         d="m 127.199,284.15976 0,-2.398 4.801,0 0,2.398 -4.801,0 z" /><path
         inkscape:connector-curvature="0"
         id="path460"
         style="fill:none;stroke:#00ff00;stroke-width:0.56692914;stroke-linecap:round;stroke-linejoin:round;stroke-miterlimit:4;stroke-opacity:1;stroke-dasharray:none"
         d="m 127.199,255.35876 0,-2.398 4.801,0 0,2.398 -4.801,0 z" /><path
         inkscape:connector-curvature="0"
         id="path464"
         style="fill:none;stroke:#00ff00;stroke-width:0.56692914;stroke-linecap:round;stroke-linejoin:round;stroke-miterlimit:4;stroke-opacity:1;stroke-dasharray:none"
         d="m 127.199,262.56176 0,-2.402 4.801,0 0,2.402 -4.801,0 z" /><path
         inkscape:connector-curvature="0"
         id="path468"
         style="fill:none;stroke:#00ff00;stroke-width:0.56692914;stroke-linecap:round;stroke-linejoin:round;stroke-miterlimit:4;stroke-opacity:1;stroke-dasharray:none"
         d="m 127.199,248.15976 0,-2.398 4.801,0 0,2.398 -4.801,0 z" /><path
         inkscape:connector-curvature="0"
         id="path472"
         style="fill:none;stroke:#00ff00;stroke-width:0.56692914;stroke-linecap:round;stroke-linejoin:round;stroke-miterlimit:4;stroke-opacity:1;stroke-dasharray:none"
         d="m 127.199,240.95976 0,-2.398 4.801,0 0,2.398 -4.801,0 z" /><path
         inkscape:connector-curvature="0"
         id="path476"
         style="fill:none;stroke:#00ff00;stroke-width:0.56692914;stroke-linecap:round;stroke-linejoin:round;stroke-miterlimit:4;stroke-opacity:1;stroke-dasharray:none"
         d="m 142.559,377.76076 0,-2.402 4.801,0 0,2.402 -4.801,0 z" /><path
         inkscape:connector-curvature="0"
         id="path480"
         style="fill:none;stroke:#00ff00;stroke-width:0.56692914;stroke-linecap:round;stroke-linejoin:round;stroke-miterlimit:4;stroke-opacity:1;stroke-dasharray:none"
         d="m 142.559,370.56176 0,-2.402 4.801,0 0,2.402 -4.801,0 z" /><path
         inkscape:connector-curvature="0"
         id="path484"
         style="fill:none;stroke:#00ff00;stroke-width:0.56692914;stroke-linecap:round;stroke-linejoin:round;stroke-miterlimit:4;stroke-opacity:1;stroke-dasharray:none"
         d="m 142.559,356.15976 0,-2.398 4.801,0 0,2.398 -4.801,0 z" /><path
         inkscape:connector-curvature="0"
         id="path488"
         style="fill:none;stroke:#00ff00;stroke-width:0.56692914;stroke-linecap:round;stroke-linejoin:round;stroke-miterlimit:4;stroke-opacity:1;stroke-dasharray:none"
         d="m 142.559,363.35876 0,-2.398 4.801,0 0,2.398 -4.801,0 z" /><path
         inkscape:connector-curvature="0"
         id="path492"
         style="fill:none;stroke:#00ff00;stroke-width:0.56692914;stroke-linecap:round;stroke-linejoin:round;stroke-miterlimit:4;stroke-opacity:1;stroke-dasharray:none"
         d="m 142.559,334.56176 0,-2.402 4.801,0 0,2.402 -4.801,0 z" /><path
         inkscape:connector-curvature="0"
         id="path496"
         style="fill:none;stroke:#00ff00;stroke-width:0.56692914;stroke-linecap:round;stroke-linejoin:round;stroke-miterlimit:4;stroke-opacity:1;stroke-dasharray:none"
         d="m 142.559,327.35876 0,-2.398 4.801,0 0,2.398 -4.801,0 z" /><path
         inkscape:connector-curvature="0"
         id="path500"
         style="fill:none;stroke:#00ff00;stroke-width:0.56692914;stroke-linecap:round;stroke-linejoin:round;stroke-miterlimit:4;stroke-opacity:1;stroke-dasharray:none"
         d="m 142.559,341.76076 0,-2.402 4.801,0 0,2.402 -4.801,0 z" /><path
         inkscape:connector-curvature="0"
         id="path504"
         style="fill:none;stroke:#00ff00;stroke-width:0.56692914;stroke-linecap:round;stroke-linejoin:round;stroke-miterlimit:4;stroke-opacity:1;stroke-dasharray:none"
         d="m 142.559,348.95976 0,-2.398 4.801,0 0,2.398 -4.801,0 z" /><path
         inkscape:connector-curvature="0"
         id="path508"
         style="fill:none;stroke:#00ff00;stroke-width:0.56692914;stroke-linecap:round;stroke-linejoin:round;stroke-miterlimit:4;stroke-opacity:1;stroke-dasharray:none"
         d="m 142.559,320.15976 0,-2.398 4.801,0 0,2.398 -4.801,0 z" /><path
         inkscape:connector-curvature="0"
         id="path512"
         style="fill:none;stroke:#00ff00;stroke-width:0.56692914;stroke-linecap:round;stroke-linejoin:round;stroke-miterlimit:4;stroke-opacity:1;stroke-dasharray:none"
         d="m 142.559,312.95976 0,-2.398 4.801,0 0,2.398 -4.801,0 z" /><path
         inkscape:connector-curvature="0"
         id="path516"
         style="fill:none;stroke:#00ff00;stroke-width:0.56692914;stroke-linecap:round;stroke-linejoin:round;stroke-miterlimit:4;stroke-opacity:1;stroke-dasharray:none"
         d="m 142.559,298.56176 0,-2.402 4.801,0 0,2.402 -4.801,0 z" /><path
         inkscape:connector-curvature="0"
         id="path520"
         style="fill:none;stroke:#00ff00;stroke-width:0.56692914;stroke-linecap:round;stroke-linejoin:round;stroke-miterlimit:4;stroke-opacity:1;stroke-dasharray:none"
         d="m 142.559,305.76076 0,-2.402 4.801,0 0,2.402 -4.801,0 z" /><path
         inkscape:connector-curvature="0"
         id="path524"
         style="fill:none;stroke:#00ff00;stroke-width:0.56692914;stroke-linecap:round;stroke-linejoin:round;stroke-miterlimit:4;stroke-opacity:1;stroke-dasharray:none"
         d="m 142.559,248.15976 0,-2.398 4.801,0 0,2.398 -4.801,0 z" /><path
         inkscape:connector-curvature="0"
         id="path528"
         style="fill:none;stroke:#00ff00;stroke-width:0.56692914;stroke-linecap:round;stroke-linejoin:round;stroke-miterlimit:4;stroke-opacity:1;stroke-dasharray:none"
         d="m 142.559,255.35876 0,-2.398 4.801,0 0,2.398 -4.801,0 z" /><path
         inkscape:connector-curvature="0"
         id="path532"
         style="fill:none;stroke:#00ff00;stroke-width:0.56692914;stroke-linecap:round;stroke-linejoin:round;stroke-miterlimit:4;stroke-opacity:1;stroke-dasharray:none"
         d="m 142.559,262.56176 0,-2.402 4.801,0 0,2.402 -4.801,0 z" /><path
         inkscape:connector-curvature="0"
         id="path536"
         style="fill:none;stroke:#00ff00;stroke-width:0.56692914;stroke-linecap:round;stroke-linejoin:round;stroke-miterlimit:4;stroke-opacity:1;stroke-dasharray:none"
         d="m 142.559,291.35876 0,-2.398 4.801,0 0,2.398 -4.801,0 z" /><path
         inkscape:connector-curvature="0"
         id="path540"
         style="fill:none;stroke:#00ff00;stroke-width:0.56692914;stroke-linecap:round;stroke-linejoin:round;stroke-miterlimit:4;stroke-opacity:1;stroke-dasharray:none"
         d="m 142.559,284.15976 0,-2.398 4.801,0 0,2.398 -4.801,0 z" /><path
         inkscape:connector-curvature="0"
         id="path544"
         style="fill:none;stroke:#00ff00;stroke-width:0.56692914;stroke-linecap:round;stroke-linejoin:round;stroke-miterlimit:4;stroke-opacity:1;stroke-dasharray:none"
         d="m 142.559,276.95976 0,-2.398 4.801,0 0,2.398 -4.801,0 z" /></g></g></svg>