M48
;DRILL file {KiCad 4.0.0-rc1-stable} date Tue 06 Oct 2015 13:37:16 BST
;FORMAT={-:-/ absolute / metric / decimal}
FMAT,2
METRIC,TZ
T1C0.965
T2C1.778
T3C2.750
%
G90
G05
M71
T1
X84.57Y-47.18
X84.57Y-49.72
X87.11Y-47.18
X87.11Y-49.72
X89.65Y-47.18
X89.65Y-49.72
X92.19Y-47.18
X92.19Y-49.72
X94.73Y-47.18
X94.73Y-49.72
X97.27Y-47.18
X97.27Y-49.72
X99.81Y-47.18
X99.81Y-49.72
X102.35Y-47.18
X102.35Y-49.72
X104.89Y-47.18
X104.89Y-49.72
X107.43Y-47.18
X107.43Y-49.72
X109.97Y-47.18
X109.97Y-49.72
X112.51Y-47.18
X112.51Y-49.72
X115.05Y-47.18
X115.05Y-49.72
X117.59Y-47.18
X117.59Y-49.72
X120.13Y-47.18
X120.13Y-49.72
X122.67Y-47.18
X122.67Y-49.72
X125.21Y-47.18
X125.21Y-49.72
X127.75Y-47.18
X127.75Y-49.72
X130.29Y-47.18
X130.29Y-49.72
X132.83Y-47.18
X132.83Y-49.72
T2
X85.84Y-48.45
X131.56Y-48.45
T3
X79.7Y-48.45
X79.7Y-97.45
X137.7Y-48.45
X137.7Y-97.45
T0
M30
