G04 #@! TF.FileFunction,Soldermask,Top*
%FSLAX46Y46*%
G04 Gerber Fmt 4.6, Leading zero omitted, Abs format (unit mm)*
G04 Created by KiCad (PCBNEW 4.0.0-rc1-stable) date Mon 12 Oct 2015 10:58:40 BST*
%MOMM*%
G01*
G04 APERTURE LIST*
%ADD10C,0.100000*%
%ADD11R,3.100000X1.000000*%
%ADD12R,2.000000X1.000000*%
%ADD13R,2.000000X2.000000*%
%ADD14O,2.200000X2.200000*%
%ADD15R,2.000000X1.727200*%
%ADD16O,2.000000X1.750000*%
%ADD17C,1.350000*%
%ADD18C,2.000000*%
%ADD19O,1.600000X2.500000*%
%ADD20C,1.524000*%
%ADD21C,2.500000*%
%ADD22R,0.889000X1.676400*%
%ADD23C,0.965200*%
%ADD24C,1.778000*%
%ADD25C,6.200000*%
%ADD26R,1.600200X2.600960*%
%ADD27R,1.250000X1.500000*%
%ADD28R,2.000000X1.600000*%
%ADD29R,1.500000X1.250000*%
%ADD30R,0.750000X1.200000*%
%ADD31R,1.800860X1.597660*%
%ADD32R,2.032000X3.657600*%
%ADD33R,2.032000X1.016000*%
%ADD34R,1.200000X3.000000*%
%ADD35R,2.032000X2.032000*%
%ADD36O,2.032000X2.032000*%
%ADD37R,0.800100X1.800860*%
%ADD38R,1.300000X1.500000*%
%ADD39R,0.900000X1.200000*%
%ADD40R,1.500000X1.300000*%
%ADD41R,5.499100X1.998980*%
G04 APERTURE END LIST*
D10*
D11*
X134100000Y-90950000D03*
X125200000Y-90950000D03*
X125200000Y-86950000D03*
X134100000Y-86950000D03*
D12*
X116000000Y-85700000D03*
X116000000Y-84430000D03*
D13*
X135000000Y-74500000D03*
D14*
X135000000Y-77040000D03*
D15*
X138000000Y-55500000D03*
D16*
X138000000Y-58040000D03*
X138000000Y-60580000D03*
X138000000Y-63120000D03*
X138000000Y-65660000D03*
X138000000Y-68200000D03*
D17*
X125000000Y-67500000D03*
X122460000Y-67500000D03*
X125000000Y-64960000D03*
X122460000Y-64960000D03*
X125000000Y-62420000D03*
X122460000Y-62420000D03*
D18*
X128500000Y-67500000D03*
X128500000Y-64960000D03*
X128500000Y-62420000D03*
D19*
X117500000Y-61000000D03*
X114960000Y-61000000D03*
X112420000Y-61000000D03*
X109880000Y-61000000D03*
X107340000Y-61000000D03*
X104800000Y-61000000D03*
X102260000Y-61000000D03*
X99720000Y-61000000D03*
X97180000Y-61000000D03*
X94640000Y-61000000D03*
X92100000Y-61000000D03*
X89560000Y-61000000D03*
X87020000Y-61000000D03*
X84480000Y-61000000D03*
X84480000Y-68620000D03*
X87020000Y-68620000D03*
X89560000Y-68620000D03*
X92100000Y-68620000D03*
X94640000Y-68620000D03*
X97180000Y-68620000D03*
X99720000Y-68620000D03*
X102260000Y-68620000D03*
X104800000Y-68620000D03*
X107340000Y-68620000D03*
X109880000Y-68620000D03*
X112420000Y-68620000D03*
X114960000Y-68620000D03*
X117500000Y-68620000D03*
D20*
X117500000Y-71160000D03*
X114960000Y-71160000D03*
X112420000Y-71160000D03*
X109880000Y-71160000D03*
X107340000Y-71160000D03*
X104800000Y-71160000D03*
D21*
X98500000Y-74000000D03*
D22*
X125210000Y-45732200D03*
X127750000Y-45732200D03*
X132830000Y-45732200D03*
X130290000Y-45732200D03*
X104890000Y-45732200D03*
X107430000Y-45732200D03*
X112510000Y-45732200D03*
X109970000Y-45732200D03*
X120130000Y-45732200D03*
X122670000Y-45732200D03*
X117590000Y-45732200D03*
X115050000Y-45732200D03*
X94730000Y-45732200D03*
X97270000Y-45732200D03*
X102350000Y-45732200D03*
X99810000Y-45732200D03*
X89650000Y-45732200D03*
X92190000Y-45732200D03*
X87110000Y-45732200D03*
X84570000Y-45732200D03*
X132830000Y-51167800D03*
X130290000Y-51167800D03*
X125210000Y-51167800D03*
X127750000Y-51167800D03*
X117590000Y-51167800D03*
X115050000Y-51167800D03*
X120130000Y-51167800D03*
X122670000Y-51167800D03*
X112510000Y-51167800D03*
X109970000Y-51167800D03*
X104890000Y-51167800D03*
X107430000Y-51167800D03*
X87110000Y-51167800D03*
X84570000Y-51167800D03*
X89650000Y-51167800D03*
X92190000Y-51167800D03*
X102350000Y-51167800D03*
X99810000Y-51167800D03*
D23*
X112510000Y-49720000D03*
X109970000Y-49720000D03*
X115050000Y-49720000D03*
X117590000Y-49720000D03*
X127750000Y-49720000D03*
X125210000Y-49720000D03*
X120130000Y-49720000D03*
X122670000Y-49720000D03*
X130290000Y-49720000D03*
X132830000Y-49720000D03*
X107430000Y-49720000D03*
X104890000Y-49720000D03*
X97270000Y-49720000D03*
X94730000Y-49720000D03*
X99810000Y-49720000D03*
X102350000Y-49720000D03*
X92190000Y-49720000D03*
X89650000Y-49720000D03*
X84570000Y-49720000D03*
X87110000Y-49720000D03*
X87110000Y-47180000D03*
X84570000Y-47180000D03*
X89650000Y-47180000D03*
X92190000Y-47180000D03*
X102350000Y-47180000D03*
X99810000Y-47180000D03*
X94730000Y-47180000D03*
X97270000Y-47180000D03*
X104890000Y-47180000D03*
X107430000Y-47180000D03*
X132830000Y-47180000D03*
X130290000Y-47180000D03*
X122670000Y-47180000D03*
X120130000Y-47180000D03*
X125210000Y-47180000D03*
X127750000Y-47180000D03*
X117590000Y-47180000D03*
X115050000Y-47180000D03*
X109970000Y-47180000D03*
X112510000Y-47180000D03*
D22*
X94730000Y-51167800D03*
X97270000Y-51167800D03*
D24*
X85840000Y-48450000D03*
X131560000Y-48450000D03*
D25*
X137700000Y-48450000D03*
X137700000Y-97450000D03*
X79700000Y-97450000D03*
X79700000Y-48450000D03*
D26*
X113400000Y-57800860D03*
X113400000Y-54199140D03*
D27*
X108900000Y-57650000D03*
X108900000Y-55150000D03*
D28*
X125500000Y-78500000D03*
X129500000Y-78500000D03*
X125500000Y-74200000D03*
X129500000Y-74200000D03*
D27*
X133000000Y-69250000D03*
X133000000Y-66750000D03*
D29*
X104150000Y-76000000D03*
X106650000Y-76000000D03*
D30*
X106000000Y-57950000D03*
X106000000Y-56050000D03*
X85700000Y-57850000D03*
X85700000Y-55950000D03*
D31*
X116000000Y-92730140D03*
X116000000Y-95569860D03*
D32*
X113748000Y-77250000D03*
D33*
X120352000Y-77250000D03*
X120352000Y-74964000D03*
X120352000Y-79536000D03*
D34*
X86500000Y-96400000D03*
X88500000Y-96400000D03*
X90500000Y-96400000D03*
X92500000Y-96400000D03*
X94500000Y-96400000D03*
X96500000Y-96400000D03*
X98500000Y-96400000D03*
X100500000Y-96400000D03*
X100500000Y-76700000D03*
X98500000Y-76700000D03*
X96500000Y-76700000D03*
X94500000Y-76700000D03*
X92500000Y-76700000D03*
X90500000Y-76700000D03*
X88500000Y-76700000D03*
X86500000Y-76700000D03*
D35*
X116000000Y-99000000D03*
D36*
X113460000Y-99000000D03*
D35*
X130500000Y-99000000D03*
D36*
X127960000Y-99000000D03*
D37*
X128150000Y-57201140D03*
X130050000Y-57201140D03*
X129100000Y-54198860D03*
D38*
X124900000Y-56850000D03*
X124900000Y-54150000D03*
X134000000Y-56950000D03*
X134000000Y-54250000D03*
D39*
X116000000Y-87950000D03*
X116000000Y-90150000D03*
D40*
X131050000Y-83150000D03*
X128350000Y-83150000D03*
D38*
X133000000Y-63850000D03*
X133000000Y-61150000D03*
D41*
X91301000Y-56000000D03*
X100699000Y-56000000D03*
M02*
