G04 #@! TF.FileFunction,Paste,Bot*
%FSLAX46Y46*%
G04 Gerber Fmt 4.6, Leading zero omitted, Abs format (unit mm)*
G04 Created by KiCad (PCBNEW 4.0.2+e4-6225~38~ubuntu14.04.1-stable) date Thu 07 Jul 2016 12:55:47 BST*
%MOMM*%
G01*
G04 APERTURE LIST*
%ADD10C,0.100000*%
%ADD11R,1.200000X3.000000*%
%ADD12R,0.889000X1.676400*%
G04 APERTURE END LIST*
D10*
D11*
X99800000Y-94550000D03*
X97800000Y-94550000D03*
X95800000Y-94550000D03*
X93800000Y-94550000D03*
X91800000Y-94550000D03*
X89800000Y-94550000D03*
X87800000Y-94550000D03*
X85800000Y-94550000D03*
X85800000Y-75850000D03*
X87800000Y-75850000D03*
X89800000Y-75850000D03*
X91800000Y-75850000D03*
X93800000Y-75850000D03*
X95800000Y-75850000D03*
X97800000Y-75850000D03*
X99800000Y-75850000D03*
D12*
X99810000Y-45732200D03*
X104890000Y-45732200D03*
X107430000Y-45732200D03*
X109970000Y-45732200D03*
X112510000Y-45732200D03*
X115050000Y-45732200D03*
X117590000Y-45732200D03*
X120130000Y-45732200D03*
X122670000Y-45732200D03*
X125210000Y-45732200D03*
X127750000Y-45732200D03*
X130290000Y-45732200D03*
X132830000Y-45732200D03*
X132830000Y-51167800D03*
X130290000Y-51167800D03*
X127750000Y-51167800D03*
X125210000Y-51167800D03*
X122670000Y-51167800D03*
X120130000Y-51167800D03*
X117590000Y-51167800D03*
X115050000Y-51167800D03*
X112510000Y-51167800D03*
X109970000Y-51167800D03*
X107430000Y-51167800D03*
X104890000Y-51167800D03*
X102350000Y-51167800D03*
X99810000Y-51167800D03*
X84570000Y-45732200D03*
X87110000Y-45732200D03*
X89650000Y-45732200D03*
X92190000Y-45732200D03*
X94730000Y-45732200D03*
X97270000Y-45732200D03*
X97270000Y-51167800D03*
X92190000Y-51167800D03*
X89650000Y-51167800D03*
X87110000Y-51167800D03*
X102350000Y-45732200D03*
X84570000Y-51167800D03*
X94730000Y-51167800D03*
M02*
