G04 #@! TF.FileFunction,Legend,Bot*
%FSLAX46Y46*%
G04 Gerber Fmt 4.6, Leading zero omitted, Abs format (unit mm)*
G04 Created by KiCad (PCBNEW 4.0.2-4+6225~38~ubuntu14.04.1-stable) date Fri 06 May 2016 22:09:46 BST*
%MOMM*%
G01*
G04 APERTURE LIST*
%ADD10C,0.100000*%
%ADD11C,0.300000*%
%ADD12C,0.250000*%
%ADD13C,0.150000*%
%ADD14C,0.500000*%
G04 APERTURE END LIST*
D10*
D11*
X99157142Y-92185714D02*
X99228571Y-92257143D01*
X99442857Y-92328571D01*
X99585714Y-92328571D01*
X99799999Y-92257143D01*
X99942857Y-92114286D01*
X100014285Y-91971429D01*
X100085714Y-91685714D01*
X100085714Y-91471429D01*
X100014285Y-91185714D01*
X99942857Y-91042857D01*
X99799999Y-90900000D01*
X99585714Y-90828571D01*
X99442857Y-90828571D01*
X99228571Y-90900000D01*
X99157142Y-90971429D01*
X98299999Y-92328571D02*
X98442857Y-92257143D01*
X98514285Y-92114286D01*
X98514285Y-90828571D01*
X97514285Y-92328571D02*
X97657143Y-92257143D01*
X97728571Y-92185714D01*
X97800000Y-92042857D01*
X97800000Y-91614286D01*
X97728571Y-91471429D01*
X97657143Y-91400000D01*
X97514285Y-91328571D01*
X97300000Y-91328571D01*
X97157143Y-91400000D01*
X97085714Y-91471429D01*
X97014285Y-91614286D01*
X97014285Y-92042857D01*
X97085714Y-92185714D01*
X97157143Y-92257143D01*
X97300000Y-92328571D01*
X97514285Y-92328571D01*
X95728571Y-91328571D02*
X95728571Y-92328571D01*
X96371428Y-91328571D02*
X96371428Y-92114286D01*
X96300000Y-92257143D01*
X96157142Y-92328571D01*
X95942857Y-92328571D01*
X95800000Y-92257143D01*
X95728571Y-92185714D01*
X94371428Y-92328571D02*
X94371428Y-90828571D01*
X94371428Y-92257143D02*
X94514285Y-92328571D01*
X94799999Y-92328571D01*
X94942857Y-92257143D01*
X95014285Y-92185714D01*
X95085714Y-92042857D01*
X95085714Y-91614286D01*
X95014285Y-91471429D01*
X94942857Y-91400000D01*
X94799999Y-91328571D01*
X94514285Y-91328571D01*
X94371428Y-91400000D01*
X93657142Y-92328571D02*
X93657142Y-91328571D01*
X93657142Y-91471429D02*
X93585714Y-91400000D01*
X93442856Y-91328571D01*
X93228571Y-91328571D01*
X93085714Y-91400000D01*
X93014285Y-91542857D01*
X93014285Y-92328571D01*
X93014285Y-91542857D02*
X92942856Y-91400000D01*
X92799999Y-91328571D01*
X92585714Y-91328571D01*
X92442856Y-91400000D01*
X92371428Y-91542857D01*
X92371428Y-92328571D01*
X91014285Y-92328571D02*
X91014285Y-91542857D01*
X91085714Y-91400000D01*
X91228571Y-91328571D01*
X91514285Y-91328571D01*
X91657142Y-91400000D01*
X91014285Y-92257143D02*
X91157142Y-92328571D01*
X91514285Y-92328571D01*
X91657142Y-92257143D01*
X91728571Y-92114286D01*
X91728571Y-91971429D01*
X91657142Y-91828571D01*
X91514285Y-91757143D01*
X91157142Y-91757143D01*
X91014285Y-91685714D01*
X90299999Y-92328571D02*
X90299999Y-90828571D01*
X90157142Y-91757143D02*
X89728571Y-92328571D01*
X89728571Y-91328571D02*
X90299999Y-91900000D01*
X88514285Y-92257143D02*
X88657142Y-92328571D01*
X88942856Y-92328571D01*
X89085713Y-92257143D01*
X89157142Y-92114286D01*
X89157142Y-91542857D01*
X89085713Y-91400000D01*
X88942856Y-91328571D01*
X88657142Y-91328571D01*
X88514285Y-91400000D01*
X88442856Y-91542857D01*
X88442856Y-91685714D01*
X89157142Y-91828571D01*
X87799999Y-92328571D02*
X87799999Y-91328571D01*
X87799999Y-91614286D02*
X87728571Y-91471429D01*
X87657142Y-91400000D01*
X87514285Y-91328571D01*
X87371428Y-91328571D01*
D12*
X93026191Y-85378571D02*
X92883334Y-85426190D01*
X92835715Y-85473810D01*
X92788096Y-85569048D01*
X92788096Y-85711905D01*
X92835715Y-85807143D01*
X92883334Y-85854762D01*
X92978572Y-85902381D01*
X93359525Y-85902381D01*
X93359525Y-84902381D01*
X93026191Y-84902381D01*
X92930953Y-84950000D01*
X92883334Y-84997619D01*
X92835715Y-85092857D01*
X92835715Y-85188095D01*
X92883334Y-85283333D01*
X92930953Y-85330952D01*
X93026191Y-85378571D01*
X93359525Y-85378571D01*
X92216668Y-85902381D02*
X92311906Y-85854762D01*
X92359525Y-85807143D01*
X92407144Y-85711905D01*
X92407144Y-85426190D01*
X92359525Y-85330952D01*
X92311906Y-85283333D01*
X92216668Y-85235714D01*
X92073810Y-85235714D01*
X91978572Y-85283333D01*
X91930953Y-85330952D01*
X91883334Y-85426190D01*
X91883334Y-85711905D01*
X91930953Y-85807143D01*
X91978572Y-85854762D01*
X92073810Y-85902381D01*
X92216668Y-85902381D01*
X91454763Y-85902381D02*
X91454763Y-85235714D01*
X91454763Y-85426190D02*
X91407144Y-85330952D01*
X91359525Y-85283333D01*
X91264287Y-85235714D01*
X91169048Y-85235714D01*
X90835715Y-85235714D02*
X90835715Y-85902381D01*
X90835715Y-85330952D02*
X90788096Y-85283333D01*
X90692858Y-85235714D01*
X90550000Y-85235714D01*
X90454762Y-85283333D01*
X90407143Y-85378571D01*
X90407143Y-85902381D01*
X89169048Y-85902381D02*
X89169048Y-85235714D01*
X89169048Y-84902381D02*
X89216667Y-84950000D01*
X89169048Y-84997619D01*
X89121429Y-84950000D01*
X89169048Y-84902381D01*
X89169048Y-84997619D01*
X88692858Y-85235714D02*
X88692858Y-85902381D01*
X88692858Y-85330952D02*
X88645239Y-85283333D01*
X88550001Y-85235714D01*
X88407143Y-85235714D01*
X88311905Y-85283333D01*
X88264286Y-85378571D01*
X88264286Y-85902381D01*
X86550000Y-85902381D02*
X87026191Y-85902381D01*
X87026191Y-84902381D01*
X86216667Y-85902381D02*
X86216667Y-85235714D01*
X86216667Y-84902381D02*
X86264286Y-84950000D01*
X86216667Y-84997619D01*
X86169048Y-84950000D01*
X86216667Y-84902381D01*
X86216667Y-84997619D01*
X85835715Y-85235714D02*
X85597620Y-85902381D01*
X85359524Y-85235714D01*
X84597619Y-85854762D02*
X84692857Y-85902381D01*
X84883334Y-85902381D01*
X84978572Y-85854762D01*
X85026191Y-85759524D01*
X85026191Y-85378571D01*
X84978572Y-85283333D01*
X84883334Y-85235714D01*
X84692857Y-85235714D01*
X84597619Y-85283333D01*
X84550000Y-85378571D01*
X84550000Y-85473810D01*
X85026191Y-85569048D01*
X84121429Y-85902381D02*
X84121429Y-85235714D01*
X84121429Y-85426190D02*
X84073810Y-85330952D01*
X84026191Y-85283333D01*
X83930953Y-85235714D01*
X83835714Y-85235714D01*
X83502381Y-85235714D02*
X83502381Y-86235714D01*
X83502381Y-85283333D02*
X83407143Y-85235714D01*
X83216666Y-85235714D01*
X83121428Y-85283333D01*
X83073809Y-85330952D01*
X83026190Y-85426190D01*
X83026190Y-85711905D01*
X83073809Y-85807143D01*
X83121428Y-85854762D01*
X83216666Y-85902381D01*
X83407143Y-85902381D01*
X83502381Y-85854762D01*
X82454762Y-85902381D02*
X82550000Y-85854762D01*
X82597619Y-85807143D01*
X82645238Y-85711905D01*
X82645238Y-85426190D01*
X82597619Y-85330952D01*
X82550000Y-85283333D01*
X82454762Y-85235714D01*
X82311904Y-85235714D01*
X82216666Y-85283333D01*
X82169047Y-85330952D01*
X82121428Y-85426190D01*
X82121428Y-85711905D01*
X82169047Y-85807143D01*
X82216666Y-85854762D01*
X82311904Y-85902381D01*
X82454762Y-85902381D01*
X81550000Y-85902381D02*
X81645238Y-85854762D01*
X81692857Y-85807143D01*
X81740476Y-85711905D01*
X81740476Y-85426190D01*
X81692857Y-85330952D01*
X81645238Y-85283333D01*
X81550000Y-85235714D01*
X81407142Y-85235714D01*
X81311904Y-85283333D01*
X81264285Y-85330952D01*
X81216666Y-85426190D01*
X81216666Y-85711905D01*
X81264285Y-85807143D01*
X81311904Y-85854762D01*
X81407142Y-85902381D01*
X81550000Y-85902381D01*
X80645238Y-85902381D02*
X80740476Y-85854762D01*
X80788095Y-85759524D01*
X80788095Y-84902381D01*
D13*
X96390477Y-87211905D02*
X96390477Y-86678571D01*
X96390477Y-86830952D02*
X96352382Y-86754762D01*
X96314286Y-86716667D01*
X96238096Y-86678571D01*
X96161905Y-86678571D01*
X95590477Y-87173810D02*
X95666667Y-87211905D01*
X95819048Y-87211905D01*
X95895239Y-87173810D01*
X95933334Y-87097619D01*
X95933334Y-86792857D01*
X95895239Y-86716667D01*
X95819048Y-86678571D01*
X95666667Y-86678571D01*
X95590477Y-86716667D01*
X95552382Y-86792857D01*
X95552382Y-86869048D01*
X95933334Y-86945238D01*
X95285715Y-86678571D02*
X95095239Y-87211905D01*
X94904763Y-86678571D01*
X94600001Y-87135714D02*
X94561906Y-87173810D01*
X94600001Y-87211905D01*
X94638096Y-87173810D01*
X94600001Y-87135714D01*
X94600001Y-87211905D01*
X93800001Y-87211905D02*
X94257144Y-87211905D01*
X94028573Y-87211905D02*
X94028573Y-86411905D01*
X94104763Y-86526190D01*
X94180954Y-86602381D01*
X94257144Y-86640476D01*
X93457144Y-87135714D02*
X93419049Y-87173810D01*
X93457144Y-87211905D01*
X93495239Y-87173810D01*
X93457144Y-87135714D01*
X93457144Y-87211905D01*
X93114287Y-86488095D02*
X93076192Y-86450000D01*
X93000001Y-86411905D01*
X92809525Y-86411905D01*
X92733335Y-86450000D01*
X92695239Y-86488095D01*
X92657144Y-86564286D01*
X92657144Y-86640476D01*
X92695239Y-86754762D01*
X93152382Y-87211905D01*
X92657144Y-87211905D01*
X91742858Y-86488095D02*
X91704763Y-86450000D01*
X91628572Y-86411905D01*
X91438096Y-86411905D01*
X91361906Y-86450000D01*
X91323810Y-86488095D01*
X91285715Y-86564286D01*
X91285715Y-86640476D01*
X91323810Y-86754762D01*
X91780953Y-87211905D01*
X91285715Y-87211905D01*
X90790477Y-86411905D02*
X90714286Y-86411905D01*
X90638096Y-86450000D01*
X90600001Y-86488095D01*
X90561905Y-86564286D01*
X90523810Y-86716667D01*
X90523810Y-86907143D01*
X90561905Y-87059524D01*
X90600001Y-87135714D01*
X90638096Y-87173810D01*
X90714286Y-87211905D01*
X90790477Y-87211905D01*
X90866667Y-87173810D01*
X90904763Y-87135714D01*
X90942858Y-87059524D01*
X90980953Y-86907143D01*
X90980953Y-86716667D01*
X90942858Y-86564286D01*
X90904763Y-86488095D01*
X90866667Y-86450000D01*
X90790477Y-86411905D01*
X89761905Y-87211905D02*
X90219048Y-87211905D01*
X89990477Y-87211905D02*
X89990477Y-86411905D01*
X90066667Y-86526190D01*
X90142858Y-86602381D01*
X90219048Y-86640476D01*
X89076191Y-86411905D02*
X89228572Y-86411905D01*
X89304762Y-86450000D01*
X89342857Y-86488095D01*
X89419048Y-86602381D01*
X89457143Y-86754762D01*
X89457143Y-87059524D01*
X89419048Y-87135714D01*
X89380953Y-87173810D01*
X89304762Y-87211905D01*
X89152381Y-87211905D01*
X89076191Y-87173810D01*
X89038095Y-87135714D01*
X89000000Y-87059524D01*
X89000000Y-86869048D01*
X89038095Y-86792857D01*
X89076191Y-86754762D01*
X89152381Y-86716667D01*
X89304762Y-86716667D01*
X89380953Y-86754762D01*
X89419048Y-86792857D01*
X89457143Y-86869048D01*
X88657143Y-86907143D02*
X88047619Y-86907143D01*
X87514286Y-86411905D02*
X87438095Y-86411905D01*
X87361905Y-86450000D01*
X87323810Y-86488095D01*
X87285714Y-86564286D01*
X87247619Y-86716667D01*
X87247619Y-86907143D01*
X87285714Y-87059524D01*
X87323810Y-87135714D01*
X87361905Y-87173810D01*
X87438095Y-87211905D01*
X87514286Y-87211905D01*
X87590476Y-87173810D01*
X87628572Y-87135714D01*
X87666667Y-87059524D01*
X87704762Y-86907143D01*
X87704762Y-86716667D01*
X87666667Y-86564286D01*
X87628572Y-86488095D01*
X87590476Y-86450000D01*
X87514286Y-86411905D01*
X86523809Y-86411905D02*
X86904762Y-86411905D01*
X86942857Y-86792857D01*
X86904762Y-86754762D01*
X86828571Y-86716667D01*
X86638095Y-86716667D01*
X86561905Y-86754762D01*
X86523809Y-86792857D01*
X86485714Y-86869048D01*
X86485714Y-87059524D01*
X86523809Y-87135714D01*
X86561905Y-87173810D01*
X86638095Y-87211905D01*
X86828571Y-87211905D01*
X86904762Y-87173810D01*
X86942857Y-87135714D01*
X86142857Y-86907143D02*
X85533333Y-86907143D01*
X85000000Y-86411905D02*
X84923809Y-86411905D01*
X84847619Y-86450000D01*
X84809524Y-86488095D01*
X84771428Y-86564286D01*
X84733333Y-86716667D01*
X84733333Y-86907143D01*
X84771428Y-87059524D01*
X84809524Y-87135714D01*
X84847619Y-87173810D01*
X84923809Y-87211905D01*
X85000000Y-87211905D01*
X85076190Y-87173810D01*
X85114286Y-87135714D01*
X85152381Y-87059524D01*
X85190476Y-86907143D01*
X85190476Y-86716667D01*
X85152381Y-86564286D01*
X85114286Y-86488095D01*
X85076190Y-86450000D01*
X85000000Y-86411905D01*
X84047619Y-86411905D02*
X84200000Y-86411905D01*
X84276190Y-86450000D01*
X84314285Y-86488095D01*
X84390476Y-86602381D01*
X84428571Y-86754762D01*
X84428571Y-87059524D01*
X84390476Y-87135714D01*
X84352381Y-87173810D01*
X84276190Y-87211905D01*
X84123809Y-87211905D01*
X84047619Y-87173810D01*
X84009523Y-87135714D01*
X83971428Y-87059524D01*
X83971428Y-86869048D01*
X84009523Y-86792857D01*
X84047619Y-86754762D01*
X84123809Y-86716667D01*
X84276190Y-86716667D01*
X84352381Y-86754762D01*
X84390476Y-86792857D01*
X84428571Y-86869048D01*
D11*
X101828572Y-84357143D02*
X101971429Y-84428571D01*
X102257143Y-84428571D01*
X102400001Y-84357143D01*
X102471429Y-84285714D01*
X102542858Y-84142857D01*
X102542858Y-83714286D01*
X102471429Y-83571429D01*
X102400001Y-83500000D01*
X102257143Y-83428571D01*
X101971429Y-83428571D01*
X101828572Y-83500000D01*
X101185715Y-84428571D02*
X101185715Y-82928571D01*
X100542858Y-84428571D02*
X100542858Y-83642857D01*
X100614287Y-83500000D01*
X100757144Y-83428571D01*
X100971429Y-83428571D01*
X101114287Y-83500000D01*
X101185715Y-83571429D01*
X99257144Y-84357143D02*
X99400001Y-84428571D01*
X99685715Y-84428571D01*
X99828572Y-84357143D01*
X99900001Y-84214286D01*
X99900001Y-83642857D01*
X99828572Y-83500000D01*
X99685715Y-83428571D01*
X99400001Y-83428571D01*
X99257144Y-83500000D01*
X99185715Y-83642857D01*
X99185715Y-83785714D01*
X99900001Y-83928571D01*
X97900001Y-84428571D02*
X97900001Y-83642857D01*
X97971430Y-83500000D01*
X98114287Y-83428571D01*
X98400001Y-83428571D01*
X98542858Y-83500000D01*
X97900001Y-84357143D02*
X98042858Y-84428571D01*
X98400001Y-84428571D01*
X98542858Y-84357143D01*
X98614287Y-84214286D01*
X98614287Y-84071429D01*
X98542858Y-83928571D01*
X98400001Y-83857143D01*
X98042858Y-83857143D01*
X97900001Y-83785714D01*
X97185715Y-83428571D02*
X97185715Y-84928571D01*
X97185715Y-83500000D02*
X97042858Y-83428571D01*
X96757144Y-83428571D01*
X96614287Y-83500000D01*
X96542858Y-83571429D01*
X96471429Y-83714286D01*
X96471429Y-84142857D01*
X96542858Y-84285714D01*
X96614287Y-84357143D01*
X96757144Y-84428571D01*
X97042858Y-84428571D01*
X97185715Y-84357143D01*
X95828572Y-83428571D02*
X95828572Y-84714286D01*
X95900001Y-84857143D01*
X96042858Y-84928571D01*
X96114286Y-84928571D01*
X95828572Y-82928571D02*
X95900001Y-83000000D01*
X95828572Y-83071429D01*
X95757144Y-83000000D01*
X95828572Y-82928571D01*
X95828572Y-83071429D01*
X94471429Y-84428571D02*
X94471429Y-83642857D01*
X94542858Y-83500000D01*
X94685715Y-83428571D01*
X94971429Y-83428571D01*
X95114286Y-83500000D01*
X94471429Y-84357143D02*
X94614286Y-84428571D01*
X94971429Y-84428571D01*
X95114286Y-84357143D01*
X95185715Y-84214286D01*
X95185715Y-84071429D01*
X95114286Y-83928571D01*
X94971429Y-83857143D01*
X94614286Y-83857143D01*
X94471429Y-83785714D01*
X93114286Y-84357143D02*
X93257143Y-84428571D01*
X93542857Y-84428571D01*
X93685715Y-84357143D01*
X93757143Y-84285714D01*
X93828572Y-84142857D01*
X93828572Y-83714286D01*
X93757143Y-83571429D01*
X93685715Y-83500000D01*
X93542857Y-83428571D01*
X93257143Y-83428571D01*
X93114286Y-83500000D01*
X92471429Y-84428571D02*
X92471429Y-82928571D01*
X92328572Y-83857143D02*
X91900001Y-84428571D01*
X91900001Y-83428571D02*
X92471429Y-84000000D01*
X91257143Y-84285714D02*
X91185715Y-84357143D01*
X91257143Y-84428571D01*
X91328572Y-84357143D01*
X91257143Y-84285714D01*
X91257143Y-84428571D01*
X90328571Y-84428571D02*
X90471429Y-84357143D01*
X90542857Y-84285714D01*
X90614286Y-84142857D01*
X90614286Y-83714286D01*
X90542857Y-83571429D01*
X90471429Y-83500000D01*
X90328571Y-83428571D01*
X90114286Y-83428571D01*
X89971429Y-83500000D01*
X89900000Y-83571429D01*
X89828571Y-83714286D01*
X89828571Y-84142857D01*
X89900000Y-84285714D01*
X89971429Y-84357143D01*
X90114286Y-84428571D01*
X90328571Y-84428571D01*
X89185714Y-84428571D02*
X89185714Y-83428571D01*
X89185714Y-83714286D02*
X89114286Y-83571429D01*
X89042857Y-83500000D01*
X88900000Y-83428571D01*
X88757143Y-83428571D01*
X87614286Y-83428571D02*
X87614286Y-84642857D01*
X87685715Y-84785714D01*
X87757143Y-84857143D01*
X87900000Y-84928571D01*
X88114286Y-84928571D01*
X88257143Y-84857143D01*
X87614286Y-84357143D02*
X87757143Y-84428571D01*
X88042857Y-84428571D01*
X88185715Y-84357143D01*
X88257143Y-84285714D01*
X88328572Y-84142857D01*
X88328572Y-83714286D01*
X88257143Y-83571429D01*
X88185715Y-83500000D01*
X88042857Y-83428571D01*
X87757143Y-83428571D01*
X87614286Y-83500000D01*
X86900000Y-84285714D02*
X86828572Y-84357143D01*
X86900000Y-84428571D01*
X86971429Y-84357143D01*
X86900000Y-84285714D01*
X86900000Y-84428571D01*
X85542857Y-83428571D02*
X85542857Y-84428571D01*
X86185714Y-83428571D02*
X86185714Y-84214286D01*
X86114286Y-84357143D01*
X85971428Y-84428571D01*
X85757143Y-84428571D01*
X85614286Y-84357143D01*
X85542857Y-84285714D01*
X84828571Y-84428571D02*
X84828571Y-82928571D01*
X84685714Y-83857143D02*
X84257143Y-84428571D01*
X84257143Y-83428571D02*
X84828571Y-84000000D01*
D14*
X98328570Y-82680952D02*
X99161904Y-81490476D01*
X99757142Y-82680952D02*
X99757142Y-80180952D01*
X98804761Y-80180952D01*
X98566666Y-80300000D01*
X98447618Y-80419048D01*
X98328570Y-80657143D01*
X98328570Y-81014286D01*
X98447618Y-81252381D01*
X98566666Y-81371429D01*
X98804761Y-81490476D01*
X99757142Y-81490476D01*
X96423809Y-81371429D02*
X97257142Y-81371429D01*
X97257142Y-82680952D02*
X97257142Y-80180952D01*
X96066666Y-80180952D01*
X95114285Y-81728571D02*
X93209523Y-81728571D01*
X90590475Y-82442857D02*
X90709523Y-82561905D01*
X91066666Y-82680952D01*
X91304761Y-82680952D01*
X91661904Y-82561905D01*
X91899999Y-82323810D01*
X92019047Y-82085714D01*
X92138095Y-81609524D01*
X92138095Y-81252381D01*
X92019047Y-80776190D01*
X91899999Y-80538095D01*
X91661904Y-80300000D01*
X91304761Y-80180952D01*
X91066666Y-80180952D01*
X90709523Y-80300000D01*
X90590475Y-80419048D01*
X89519047Y-82680952D02*
X89519047Y-81014286D01*
X89519047Y-81490476D02*
X89399999Y-81252381D01*
X89280952Y-81133333D01*
X89042856Y-81014286D01*
X88804761Y-81014286D01*
X86899999Y-82680952D02*
X86899999Y-81371429D01*
X87019047Y-81133333D01*
X87257142Y-81014286D01*
X87733333Y-81014286D01*
X87971428Y-81133333D01*
X86899999Y-82561905D02*
X87138095Y-82680952D01*
X87733333Y-82680952D01*
X87971428Y-82561905D01*
X88090476Y-82323810D01*
X88090476Y-82085714D01*
X87971428Y-81847619D01*
X87733333Y-81728571D01*
X87138095Y-81728571D01*
X86899999Y-81609524D01*
X86066666Y-81014286D02*
X85114285Y-81014286D01*
X85709523Y-82680952D02*
X85709523Y-80538095D01*
X85590475Y-80300000D01*
X85352380Y-80180952D01*
X85114285Y-80180952D01*
X84638095Y-81014286D02*
X83685714Y-81014286D01*
X84280952Y-80180952D02*
X84280952Y-82323810D01*
X84161904Y-82561905D01*
X83923809Y-82680952D01*
X83685714Y-82680952D01*
M02*
