G04 #@! TF.FileFunction,Copper,L2,Bot,Signal*
%FSLAX46Y46*%
G04 Gerber Fmt 4.6, Leading zero omitted, Abs format (unit mm)*
G04 Created by KiCad (PCBNEW 4.0.0-rc1-stable) date Tue 06 Oct 2015 13:37:23 BST*
%MOMM*%
G01*
G04 APERTURE LIST*
%ADD10C,0.100000*%
%ADD11C,0.200000*%
%ADD12R,2.000000X2.000000*%
%ADD13O,2.200000X2.200000*%
%ADD14R,2.000000X1.727200*%
%ADD15O,2.000000X1.750000*%
%ADD16C,1.750000*%
%ADD17C,2.000000*%
%ADD18O,1.600000X2.500000*%
%ADD19C,1.524000*%
%ADD20C,2.500000*%
%ADD21R,2.032000X2.032000*%
%ADD22O,2.032000X2.032000*%
%ADD23C,1.100000*%
%ADD24C,1.200000*%
%ADD25C,0.500000*%
%ADD26C,0.250000*%
%ADD27C,0.254000*%
G04 APERTURE END LIST*
D10*
D11*
X97113691Y-55352381D02*
X96988691Y-54352381D01*
X97107738Y-55304762D02*
X97208929Y-55352381D01*
X97399406Y-55352381D01*
X97488691Y-55304762D01*
X97530358Y-55257143D01*
X97566072Y-55161905D01*
X97530358Y-54876190D01*
X97470834Y-54780952D01*
X97417263Y-54733333D01*
X97316072Y-54685714D01*
X97125595Y-54685714D01*
X97036310Y-54733333D01*
X96250595Y-55304762D02*
X96351786Y-55352381D01*
X96542263Y-55352381D01*
X96631548Y-55304762D01*
X96667262Y-55209524D01*
X96619643Y-54828571D01*
X96560120Y-54733333D01*
X96458929Y-54685714D01*
X96268452Y-54685714D01*
X96179167Y-54733333D01*
X96143452Y-54828571D01*
X96155357Y-54923810D01*
X96643453Y-55019048D01*
X95839881Y-54685714D02*
X95458929Y-54685714D01*
X95780358Y-55352381D02*
X95673215Y-54495238D01*
X95613691Y-54400000D01*
X95512501Y-54352381D01*
X95417263Y-54352381D01*
X95125595Y-54685714D02*
X95250595Y-55685714D01*
X95131548Y-54733333D02*
X95030357Y-54685714D01*
X94839880Y-54685714D01*
X94750595Y-54733333D01*
X94708928Y-54780952D01*
X94673214Y-54876190D01*
X94708928Y-55161905D01*
X94768452Y-55257143D01*
X94822023Y-55304762D01*
X94923214Y-55352381D01*
X95113691Y-55352381D01*
X95202976Y-55304762D01*
X94304167Y-55352381D02*
X94220833Y-54685714D01*
X94244643Y-54876190D02*
X94185119Y-54780952D01*
X94131548Y-54733333D01*
X94030357Y-54685714D01*
X93935118Y-54685714D01*
X93542262Y-55352381D02*
X93631547Y-55304762D01*
X93673214Y-55257143D01*
X93708928Y-55161905D01*
X93673214Y-54876190D01*
X93613690Y-54780952D01*
X93560119Y-54733333D01*
X93458928Y-54685714D01*
X93316070Y-54685714D01*
X93226785Y-54733333D01*
X93185118Y-54780952D01*
X93149404Y-54876190D01*
X93185118Y-55161905D01*
X93244642Y-55257143D01*
X93298213Y-55304762D01*
X93399404Y-55352381D01*
X93542262Y-55352381D01*
X92345832Y-55304762D02*
X92447023Y-55352381D01*
X92637500Y-55352381D01*
X92726785Y-55304762D01*
X92768452Y-55257143D01*
X92804166Y-55161905D01*
X92768452Y-54876190D01*
X92708928Y-54780952D01*
X92655357Y-54733333D01*
X92554166Y-54685714D01*
X92363689Y-54685714D01*
X92274404Y-54733333D01*
X91911309Y-55257143D02*
X91869642Y-55304762D01*
X91923214Y-55352381D01*
X91964880Y-55304762D01*
X91911309Y-55257143D01*
X91923214Y-55352381D01*
X91012499Y-55304762D02*
X91113690Y-55352381D01*
X91304167Y-55352381D01*
X91393452Y-55304762D01*
X91435119Y-55257143D01*
X91470833Y-55161905D01*
X91435119Y-54876190D01*
X91375595Y-54780952D01*
X91322024Y-54733333D01*
X91220833Y-54685714D01*
X91030356Y-54685714D01*
X90941071Y-54733333D01*
X90447024Y-55352381D02*
X90536309Y-55304762D01*
X90577976Y-55257143D01*
X90613690Y-55161905D01*
X90577976Y-54876190D01*
X90518452Y-54780952D01*
X90464881Y-54733333D01*
X90363690Y-54685714D01*
X90220832Y-54685714D01*
X90131547Y-54733333D01*
X90089880Y-54780952D01*
X90054166Y-54876190D01*
X90089880Y-55161905D01*
X90149404Y-55257143D01*
X90202975Y-55304762D01*
X90304166Y-55352381D01*
X90447024Y-55352381D01*
X89673214Y-55257143D02*
X89631547Y-55304762D01*
X89685119Y-55352381D01*
X89726785Y-55304762D01*
X89673214Y-55257143D01*
X89685119Y-55352381D01*
X88697023Y-54685714D02*
X88780357Y-55352381D01*
X89125595Y-54685714D02*
X89191071Y-55209524D01*
X89155357Y-55304762D01*
X89066072Y-55352381D01*
X88923214Y-55352381D01*
X88822023Y-55304762D01*
X88768452Y-55257143D01*
X88304167Y-55352381D02*
X88179167Y-54352381D01*
X88161310Y-54971429D02*
X87923214Y-55352381D01*
X87839880Y-54685714D02*
X88268452Y-55066667D01*
D12*
X135000000Y-74500000D03*
D13*
X135000000Y-77040000D03*
D14*
X138000000Y-55500000D03*
D15*
X138000000Y-58040000D03*
X138000000Y-60580000D03*
X138000000Y-63120000D03*
X138000000Y-65660000D03*
X138000000Y-68200000D03*
D16*
X125000000Y-67500000D03*
X122460000Y-67500000D03*
X125000000Y-64960000D03*
X122460000Y-64960000D03*
X125000000Y-62420000D03*
X122460000Y-62420000D03*
D17*
X128500000Y-67500000D03*
X128500000Y-64960000D03*
X128500000Y-62420000D03*
D18*
X117500000Y-61000000D03*
X114960000Y-61000000D03*
X112420000Y-61000000D03*
X109880000Y-61000000D03*
X107340000Y-61000000D03*
X104800000Y-61000000D03*
X102260000Y-61000000D03*
X99720000Y-61000000D03*
X97180000Y-61000000D03*
X94640000Y-61000000D03*
X92100000Y-61000000D03*
X89560000Y-61000000D03*
X87020000Y-61000000D03*
X84480000Y-61000000D03*
X84480000Y-68620000D03*
X87020000Y-68620000D03*
X89560000Y-68620000D03*
X92100000Y-68620000D03*
X94640000Y-68620000D03*
X97180000Y-68620000D03*
X99720000Y-68620000D03*
X102260000Y-68620000D03*
X104800000Y-68620000D03*
X107340000Y-68620000D03*
X109880000Y-68620000D03*
X112420000Y-68620000D03*
X114960000Y-68620000D03*
X117500000Y-68620000D03*
D19*
X117500000Y-71160000D03*
X114960000Y-71160000D03*
X112420000Y-71160000D03*
X109880000Y-71160000D03*
X107340000Y-71160000D03*
X104800000Y-71160000D03*
D20*
X98500000Y-74000000D03*
D21*
X116000000Y-99000000D03*
D22*
X113460000Y-99000000D03*
D21*
X130500000Y-99000000D03*
D22*
X127960000Y-99000000D03*
D23*
X135700000Y-83150000D03*
X131650000Y-58000000D03*
X88350000Y-48500000D03*
X137950000Y-88550000D03*
X116850000Y-56850000D03*
X82650000Y-88750000D03*
X103450000Y-89950000D03*
X134600000Y-59400000D03*
D24*
X131000000Y-64950000D03*
X104700000Y-85200000D03*
X93450000Y-47600000D03*
X121700000Y-59000000D03*
X118500000Y-59000000D03*
X90900000Y-47950000D03*
D23*
X116900000Y-53200000D03*
X108900000Y-53200000D03*
D24*
X120100000Y-59000000D03*
X120100000Y-53000000D03*
D25*
X140250000Y-53450000D02*
X139900000Y-53100000D01*
X135700000Y-83150000D02*
X140200000Y-79250000D01*
X140200000Y-79250000D02*
X140250000Y-53450000D01*
X131650000Y-57450000D02*
X131650000Y-58000000D01*
X135250000Y-53150000D02*
X131650000Y-56300000D01*
X131650000Y-56300000D02*
X131650000Y-57450000D01*
X139900000Y-53100000D02*
X135250000Y-53150000D01*
X99720000Y-61000000D02*
X99720000Y-57270000D01*
X100140000Y-56850000D02*
X116850000Y-56850000D01*
X99720000Y-57270000D02*
X100140000Y-56850000D01*
X102260000Y-68620000D02*
X102260000Y-85540000D01*
X99050000Y-88750000D02*
X82650000Y-88750000D01*
X102260000Y-85540000D02*
X99050000Y-88750000D01*
X102260000Y-68620000D02*
X102260000Y-89140000D01*
X102260000Y-89140000D02*
X103450000Y-89950000D01*
D26*
X138000000Y-60580000D02*
X137280000Y-60580000D01*
D25*
X137280000Y-60580000D02*
X136100000Y-59400000D01*
X136100000Y-59400000D02*
X134600000Y-59400000D01*
D26*
X117500000Y-61000000D02*
X119500000Y-61000000D01*
X130500000Y-60100000D02*
X131000000Y-60500000D01*
X131000000Y-60500000D02*
X131000000Y-64950000D01*
X120500000Y-60000000D02*
X130500000Y-60100000D01*
X119500000Y-61000000D02*
X120500000Y-60000000D01*
X125000000Y-64960000D02*
X124960000Y-64960000D01*
X124960000Y-64960000D02*
X123750000Y-63750000D01*
X123750000Y-63750000D02*
X113500000Y-63750000D01*
X113500000Y-63750000D02*
X112420000Y-62670000D01*
X112420000Y-62670000D02*
X112420000Y-61000000D01*
X109880000Y-64520000D02*
X109880000Y-61000000D01*
X111150000Y-66000000D02*
X109880000Y-64520000D01*
X111150000Y-81300000D02*
X111150000Y-66000000D01*
X104700000Y-85200000D02*
X111150000Y-81300000D01*
X104800000Y-68620000D02*
X104800000Y-71160000D01*
X107340000Y-68620000D02*
X107340000Y-71160000D01*
X109880000Y-68620000D02*
X109880000Y-71160000D01*
X112420000Y-68620000D02*
X112420000Y-71160000D01*
X114960000Y-68620000D02*
X114960000Y-71160000D01*
X117500000Y-68620000D02*
X117500000Y-71160000D01*
X93450000Y-47600000D02*
X94300000Y-48200000D01*
X94300000Y-48200000D02*
X120500000Y-48200000D01*
X121400000Y-49100000D02*
X121400000Y-57500000D01*
X121400000Y-57500000D02*
X121700000Y-59000000D01*
X120500000Y-48200000D02*
X121400000Y-49100000D01*
X90900000Y-47950000D02*
X91000000Y-47950000D01*
X118450000Y-58950000D02*
X118500000Y-59000000D01*
X118800000Y-49200000D02*
X118800000Y-57100000D01*
X118800000Y-57100000D02*
X118450000Y-58950000D01*
X118300000Y-48700000D02*
X118800000Y-49200000D01*
X91700000Y-48700000D02*
X118300000Y-48700000D01*
X91000000Y-47950000D02*
X91700000Y-48700000D01*
X90900000Y-47950000D02*
X90800000Y-47950000D01*
D25*
X108900000Y-53200000D02*
X116900000Y-53200000D01*
D26*
X138000000Y-65660000D02*
X136840000Y-65660000D01*
X125000000Y-69500000D02*
X125000000Y-67500000D01*
X125500000Y-70000000D02*
X125000000Y-69500000D01*
X132500000Y-70000000D02*
X125500000Y-70000000D01*
X136840000Y-65660000D02*
X132500000Y-70000000D01*
X120100000Y-53000000D02*
X120100000Y-59000000D01*
D27*
G36*
X133964008Y-45350009D02*
X134229824Y-45871702D01*
X134323000Y-46459992D01*
X134323000Y-49421573D01*
X134324086Y-49438150D01*
X134392234Y-49955788D01*
X134400815Y-49987812D01*
X134600616Y-50470174D01*
X134617193Y-50498886D01*
X134935030Y-50913099D01*
X134945983Y-50925589D01*
X135324411Y-51304017D01*
X135343657Y-51319811D01*
X135992503Y-51753356D01*
X136038284Y-51772319D01*
X136803651Y-51924560D01*
X136828427Y-51927000D01*
X139190008Y-51927000D01*
X139778298Y-52020176D01*
X140299991Y-52285992D01*
X140411017Y-52397018D01*
X140378356Y-52375699D01*
X140238674Y-52282367D01*
X140233922Y-52281422D01*
X140229864Y-52278773D01*
X140064798Y-52247780D01*
X139900000Y-52214999D01*
X139895245Y-52215945D01*
X139890485Y-52215051D01*
X135240484Y-52265051D01*
X135104383Y-52293648D01*
X134966464Y-52311649D01*
X134936448Y-52328934D01*
X134902553Y-52336056D01*
X134787751Y-52414562D01*
X134667224Y-52483969D01*
X131067223Y-55633970D01*
X131049028Y-55657627D01*
X131024210Y-55674210D01*
X130944339Y-55793745D01*
X130856706Y-55907688D01*
X130848949Y-55936508D01*
X130832367Y-55961325D01*
X130804324Y-56102307D01*
X130766959Y-56241131D01*
X130770822Y-56270730D01*
X130765000Y-56300000D01*
X130765000Y-57209074D01*
X130645991Y-57327875D01*
X130465206Y-57763255D01*
X130464794Y-58234677D01*
X130644820Y-58670372D01*
X130977875Y-59004009D01*
X131413255Y-59184794D01*
X131884677Y-59185206D01*
X132320372Y-59005180D01*
X132654009Y-58672125D01*
X132834794Y-58236745D01*
X132835206Y-57765323D01*
X132655180Y-57329628D01*
X132535000Y-57209238D01*
X132535000Y-56701585D01*
X135586603Y-54031432D01*
X136833558Y-54018024D01*
X136640302Y-54098073D01*
X136461673Y-54276701D01*
X136365000Y-54510090D01*
X136365000Y-55214250D01*
X136523750Y-55373000D01*
X137873000Y-55373000D01*
X137873000Y-55353000D01*
X138127000Y-55353000D01*
X138127000Y-55373000D01*
X138147000Y-55373000D01*
X138147000Y-55627000D01*
X138127000Y-55627000D01*
X138127000Y-55647000D01*
X137873000Y-55647000D01*
X137873000Y-55627000D01*
X136523750Y-55627000D01*
X136365000Y-55785750D01*
X136365000Y-56489910D01*
X136461673Y-56723299D01*
X136640302Y-56901927D01*
X136788587Y-56963349D01*
X136775237Y-56972269D01*
X136447910Y-57462148D01*
X136332968Y-58040000D01*
X136441185Y-58584044D01*
X136438675Y-58582367D01*
X136382484Y-58571190D01*
X136100000Y-58514999D01*
X136099995Y-58515000D01*
X135390926Y-58515000D01*
X135272125Y-58395991D01*
X134836745Y-58215206D01*
X134365323Y-58214794D01*
X133929628Y-58394820D01*
X133595991Y-58727875D01*
X133415206Y-59163255D01*
X133414794Y-59634677D01*
X133594820Y-60070372D01*
X133927875Y-60404009D01*
X134363255Y-60584794D01*
X134834677Y-60585206D01*
X135270372Y-60405180D01*
X135390762Y-60285000D01*
X135733420Y-60285000D01*
X136408588Y-60960167D01*
X136447910Y-61157852D01*
X136775237Y-61647731D01*
X137077954Y-61850000D01*
X136775237Y-62052269D01*
X136447910Y-62542148D01*
X136332968Y-63120000D01*
X136447910Y-63697852D01*
X136775237Y-64187731D01*
X137077954Y-64390000D01*
X136775237Y-64592269D01*
X136516283Y-64979820D01*
X136302599Y-65122599D01*
X132185198Y-69240000D01*
X125814802Y-69240000D01*
X125760000Y-69185198D01*
X125760000Y-68819797D01*
X125854229Y-68780862D01*
X126279370Y-68356463D01*
X126509738Y-67801675D01*
X126510262Y-67200960D01*
X126280862Y-66645771D01*
X125865464Y-66229647D01*
X126279370Y-65816463D01*
X126509738Y-65261675D01*
X126510262Y-64660960D01*
X126280862Y-64105771D01*
X125865464Y-63689647D01*
X126279370Y-63276463D01*
X126509738Y-62721675D01*
X126510262Y-62120960D01*
X126280862Y-61565771D01*
X125856463Y-61140630D01*
X125301675Y-60910262D01*
X124700960Y-60909738D01*
X124145771Y-61139138D01*
X123729647Y-61554536D01*
X123316463Y-61140630D01*
X122761675Y-60910262D01*
X122160960Y-60909738D01*
X121605771Y-61139138D01*
X121180630Y-61563537D01*
X120950262Y-62118325D01*
X120949738Y-62719040D01*
X121061697Y-62990000D01*
X113814802Y-62990000D01*
X113369796Y-62544994D01*
X113434698Y-62501627D01*
X113690000Y-62119541D01*
X113945302Y-62501627D01*
X114410849Y-62812696D01*
X114960000Y-62921929D01*
X115509151Y-62812696D01*
X115974698Y-62501627D01*
X116230000Y-62119541D01*
X116485302Y-62501627D01*
X116950849Y-62812696D01*
X117500000Y-62921929D01*
X118049151Y-62812696D01*
X118514698Y-62501627D01*
X118825767Y-62036080D01*
X118880683Y-61760000D01*
X119500000Y-61760000D01*
X119790839Y-61702148D01*
X120037401Y-61537401D01*
X120811648Y-60763154D01*
X128053131Y-60835569D01*
X127575057Y-61033106D01*
X127114722Y-61492637D01*
X126865284Y-62093352D01*
X126864716Y-62743795D01*
X127113106Y-63344943D01*
X127457759Y-63690199D01*
X127114722Y-64032637D01*
X126865284Y-64633352D01*
X126864716Y-65283795D01*
X127113106Y-65884943D01*
X127457759Y-66230199D01*
X127114722Y-66572637D01*
X126865284Y-67173352D01*
X126864716Y-67823795D01*
X127113106Y-68424943D01*
X127572637Y-68885278D01*
X128173352Y-69134716D01*
X128823795Y-69135284D01*
X129424943Y-68886894D01*
X129885278Y-68427363D01*
X130134716Y-67826648D01*
X130135284Y-67176205D01*
X129886894Y-66575057D01*
X129542241Y-66229801D01*
X129885278Y-65887363D01*
X129975000Y-65671288D01*
X130299515Y-65996371D01*
X130753266Y-66184785D01*
X131244579Y-66185214D01*
X131698657Y-65997592D01*
X132046371Y-65650485D01*
X132234785Y-65196734D01*
X132235214Y-64705421D01*
X132047592Y-64251343D01*
X131760000Y-63963248D01*
X131760000Y-60500000D01*
X131751718Y-60458364D01*
X131755351Y-60416072D01*
X131723021Y-60314093D01*
X131702148Y-60209161D01*
X131678563Y-60173864D01*
X131665735Y-60133400D01*
X131596839Y-60051554D01*
X131537401Y-59962599D01*
X131502107Y-59939016D01*
X131474768Y-59906539D01*
X130974768Y-59506540D01*
X130883115Y-59459012D01*
X130797846Y-59400795D01*
X130752576Y-59391319D01*
X130711521Y-59370029D01*
X130608661Y-59361193D01*
X130507600Y-59340038D01*
X122927517Y-59264237D01*
X122934785Y-59246734D01*
X122935214Y-58755421D01*
X122747592Y-58301343D01*
X122400485Y-57953629D01*
X122253576Y-57892627D01*
X122160000Y-57424747D01*
X122160000Y-50718349D01*
X122446720Y-50837406D01*
X122891329Y-50837793D01*
X123302242Y-50668008D01*
X123616903Y-50353896D01*
X123787406Y-49943280D01*
X123787407Y-49941329D01*
X124092207Y-49941329D01*
X124261992Y-50352242D01*
X124576104Y-50666903D01*
X124986720Y-50837406D01*
X125431329Y-50837793D01*
X125842242Y-50668008D01*
X126156903Y-50353896D01*
X126327406Y-49943280D01*
X126327407Y-49941329D01*
X126632207Y-49941329D01*
X126801992Y-50352242D01*
X127116104Y-50666903D01*
X127526720Y-50837406D01*
X127971329Y-50837793D01*
X128382242Y-50668008D01*
X128696903Y-50353896D01*
X128867406Y-49943280D01*
X128867793Y-49498671D01*
X128698008Y-49087758D01*
X128383896Y-48773097D01*
X127973280Y-48602594D01*
X127528671Y-48602207D01*
X127117758Y-48771992D01*
X126803097Y-49086104D01*
X126632594Y-49496720D01*
X126632207Y-49941329D01*
X126327407Y-49941329D01*
X126327793Y-49498671D01*
X126158008Y-49087758D01*
X125843896Y-48773097D01*
X125433280Y-48602594D01*
X124988671Y-48602207D01*
X124577758Y-48771992D01*
X124263097Y-49086104D01*
X124092594Y-49496720D01*
X124092207Y-49941329D01*
X123787407Y-49941329D01*
X123787793Y-49498671D01*
X123618008Y-49087758D01*
X123303896Y-48773097D01*
X122893280Y-48602594D01*
X122448671Y-48602207D01*
X122068755Y-48759184D01*
X121937401Y-48562599D01*
X121109704Y-47734902D01*
X121247406Y-47403280D01*
X121247407Y-47401329D01*
X121552207Y-47401329D01*
X121721992Y-47812242D01*
X122036104Y-48126903D01*
X122446720Y-48297406D01*
X122891329Y-48297793D01*
X123302242Y-48128008D01*
X123616903Y-47813896D01*
X123787406Y-47403280D01*
X123787407Y-47401329D01*
X124092207Y-47401329D01*
X124261992Y-47812242D01*
X124576104Y-48126903D01*
X124986720Y-48297406D01*
X125431329Y-48297793D01*
X125842242Y-48128008D01*
X126156903Y-47813896D01*
X126327406Y-47403280D01*
X126327407Y-47401329D01*
X126632207Y-47401329D01*
X126801992Y-47812242D01*
X127116104Y-48126903D01*
X127526720Y-48297406D01*
X127971329Y-48297793D01*
X128382242Y-48128008D01*
X128696903Y-47813896D01*
X128867406Y-47403280D01*
X128867407Y-47401329D01*
X129172207Y-47401329D01*
X129341992Y-47812242D01*
X129656104Y-48126903D01*
X130036144Y-48284710D01*
X130035855Y-48615766D01*
X129657758Y-48771992D01*
X129343097Y-49086104D01*
X129172594Y-49496720D01*
X129172207Y-49941329D01*
X129341992Y-50352242D01*
X129656104Y-50666903D01*
X130066720Y-50837406D01*
X130511329Y-50837793D01*
X130922242Y-50668008D01*
X131236903Y-50353896D01*
X131394710Y-49973856D01*
X131725766Y-49974145D01*
X131881992Y-50352242D01*
X132196104Y-50666903D01*
X132606720Y-50837406D01*
X133051329Y-50837793D01*
X133462242Y-50668008D01*
X133776903Y-50353896D01*
X133947406Y-49943280D01*
X133947793Y-49498671D01*
X133778008Y-49087758D01*
X133463896Y-48773097D01*
X133083856Y-48615290D01*
X133084145Y-48284234D01*
X133462242Y-48128008D01*
X133776903Y-47813896D01*
X133947406Y-47403280D01*
X133947793Y-46958671D01*
X133778008Y-46547758D01*
X133463896Y-46233097D01*
X133053280Y-46062594D01*
X132608671Y-46062207D01*
X132197758Y-46231992D01*
X131883097Y-46546104D01*
X131725290Y-46926144D01*
X131394234Y-46925855D01*
X131238008Y-46547758D01*
X130923896Y-46233097D01*
X130513280Y-46062594D01*
X130068671Y-46062207D01*
X129657758Y-46231992D01*
X129343097Y-46546104D01*
X129172594Y-46956720D01*
X129172207Y-47401329D01*
X128867407Y-47401329D01*
X128867793Y-46958671D01*
X128698008Y-46547758D01*
X128383896Y-46233097D01*
X127973280Y-46062594D01*
X127528671Y-46062207D01*
X127117758Y-46231992D01*
X126803097Y-46546104D01*
X126632594Y-46956720D01*
X126632207Y-47401329D01*
X126327407Y-47401329D01*
X126327793Y-46958671D01*
X126158008Y-46547758D01*
X125843896Y-46233097D01*
X125433280Y-46062594D01*
X124988671Y-46062207D01*
X124577758Y-46231992D01*
X124263097Y-46546104D01*
X124092594Y-46956720D01*
X124092207Y-47401329D01*
X123787407Y-47401329D01*
X123787793Y-46958671D01*
X123618008Y-46547758D01*
X123303896Y-46233097D01*
X122893280Y-46062594D01*
X122448671Y-46062207D01*
X122037758Y-46231992D01*
X121723097Y-46546104D01*
X121552594Y-46956720D01*
X121552207Y-47401329D01*
X121247407Y-47401329D01*
X121247793Y-46958671D01*
X121078008Y-46547758D01*
X120763896Y-46233097D01*
X120353280Y-46062594D01*
X119908671Y-46062207D01*
X119497758Y-46231992D01*
X119183097Y-46546104D01*
X119012594Y-46956720D01*
X119012207Y-47401329D01*
X119028185Y-47440000D01*
X118692158Y-47440000D01*
X118707406Y-47403280D01*
X118707793Y-46958671D01*
X118538008Y-46547758D01*
X118223896Y-46233097D01*
X117813280Y-46062594D01*
X117368671Y-46062207D01*
X116957758Y-46231992D01*
X116643097Y-46546104D01*
X116472594Y-46956720D01*
X116472207Y-47401329D01*
X116488185Y-47440000D01*
X116152158Y-47440000D01*
X116167406Y-47403280D01*
X116167793Y-46958671D01*
X115998008Y-46547758D01*
X115683896Y-46233097D01*
X115273280Y-46062594D01*
X114828671Y-46062207D01*
X114417758Y-46231992D01*
X114103097Y-46546104D01*
X113932594Y-46956720D01*
X113932207Y-47401329D01*
X113948185Y-47440000D01*
X113612158Y-47440000D01*
X113627406Y-47403280D01*
X113627793Y-46958671D01*
X113458008Y-46547758D01*
X113143896Y-46233097D01*
X112733280Y-46062594D01*
X112288671Y-46062207D01*
X111877758Y-46231992D01*
X111563097Y-46546104D01*
X111392594Y-46956720D01*
X111392207Y-47401329D01*
X111408185Y-47440000D01*
X111072158Y-47440000D01*
X111087406Y-47403280D01*
X111087793Y-46958671D01*
X110918008Y-46547758D01*
X110603896Y-46233097D01*
X110193280Y-46062594D01*
X109748671Y-46062207D01*
X109337758Y-46231992D01*
X109023097Y-46546104D01*
X108852594Y-46956720D01*
X108852207Y-47401329D01*
X108868185Y-47440000D01*
X108532158Y-47440000D01*
X108547406Y-47403280D01*
X108547793Y-46958671D01*
X108378008Y-46547758D01*
X108063896Y-46233097D01*
X107653280Y-46062594D01*
X107208671Y-46062207D01*
X106797758Y-46231992D01*
X106483097Y-46546104D01*
X106312594Y-46956720D01*
X106312207Y-47401329D01*
X106328185Y-47440000D01*
X105992158Y-47440000D01*
X106007406Y-47403280D01*
X106007793Y-46958671D01*
X105838008Y-46547758D01*
X105523896Y-46233097D01*
X105113280Y-46062594D01*
X104668671Y-46062207D01*
X104257758Y-46231992D01*
X103943097Y-46546104D01*
X103772594Y-46956720D01*
X103772207Y-47401329D01*
X103788185Y-47440000D01*
X103452158Y-47440000D01*
X103467406Y-47403280D01*
X103467793Y-46958671D01*
X103298008Y-46547758D01*
X102983896Y-46233097D01*
X102573280Y-46062594D01*
X102128671Y-46062207D01*
X101717758Y-46231992D01*
X101403097Y-46546104D01*
X101232594Y-46956720D01*
X101232207Y-47401329D01*
X101248185Y-47440000D01*
X100912158Y-47440000D01*
X100927406Y-47403280D01*
X100927793Y-46958671D01*
X100758008Y-46547758D01*
X100443896Y-46233097D01*
X100033280Y-46062594D01*
X99588671Y-46062207D01*
X99177758Y-46231992D01*
X98863097Y-46546104D01*
X98692594Y-46956720D01*
X98692207Y-47401329D01*
X98708185Y-47440000D01*
X98372158Y-47440000D01*
X98387406Y-47403280D01*
X98387793Y-46958671D01*
X98218008Y-46547758D01*
X97903896Y-46233097D01*
X97493280Y-46062594D01*
X97048671Y-46062207D01*
X96637758Y-46231992D01*
X96323097Y-46546104D01*
X96152594Y-46956720D01*
X96152207Y-47401329D01*
X96168185Y-47440000D01*
X95832158Y-47440000D01*
X95847406Y-47403280D01*
X95847793Y-46958671D01*
X95678008Y-46547758D01*
X95363896Y-46233097D01*
X94953280Y-46062594D01*
X94508671Y-46062207D01*
X94097758Y-46231992D01*
X93885700Y-46443680D01*
X93696734Y-46365215D01*
X93205421Y-46364786D01*
X93028380Y-46437938D01*
X92823896Y-46233097D01*
X92413280Y-46062594D01*
X91968671Y-46062207D01*
X91557758Y-46231992D01*
X91243097Y-46546104D01*
X91169031Y-46724474D01*
X91146734Y-46715215D01*
X90667026Y-46714796D01*
X90598008Y-46547758D01*
X90283896Y-46233097D01*
X89873280Y-46062594D01*
X89428671Y-46062207D01*
X89017758Y-46231992D01*
X88703097Y-46546104D01*
X88532594Y-46956720D01*
X88532207Y-47401329D01*
X88701992Y-47812242D01*
X89016104Y-48126903D01*
X89426720Y-48297406D01*
X89707374Y-48297650D01*
X89833361Y-48602559D01*
X89428671Y-48602207D01*
X89017758Y-48771992D01*
X88703097Y-49086104D01*
X88532594Y-49496720D01*
X88532207Y-49941329D01*
X88701992Y-50352242D01*
X89016104Y-50666903D01*
X89426720Y-50837406D01*
X89871329Y-50837793D01*
X90282242Y-50668008D01*
X90596903Y-50353896D01*
X90767406Y-49943280D01*
X90767793Y-49498671D01*
X90634957Y-49177183D01*
X90653266Y-49184785D01*
X91113248Y-49185187D01*
X91144398Y-49218562D01*
X91155205Y-49226334D01*
X91162599Y-49237401D01*
X91176434Y-49246645D01*
X91072594Y-49496720D01*
X91072207Y-49941329D01*
X91241992Y-50352242D01*
X91556104Y-50666903D01*
X91966720Y-50837406D01*
X92411329Y-50837793D01*
X92822242Y-50668008D01*
X93136903Y-50353896D01*
X93307406Y-49943280D01*
X93307793Y-49498671D01*
X93291815Y-49460000D01*
X93627842Y-49460000D01*
X93612594Y-49496720D01*
X93612207Y-49941329D01*
X93781992Y-50352242D01*
X94096104Y-50666903D01*
X94506720Y-50837406D01*
X94951329Y-50837793D01*
X95362242Y-50668008D01*
X95676903Y-50353896D01*
X95847406Y-49943280D01*
X95847793Y-49498671D01*
X95831815Y-49460000D01*
X96167842Y-49460000D01*
X96152594Y-49496720D01*
X96152207Y-49941329D01*
X96321992Y-50352242D01*
X96636104Y-50666903D01*
X97046720Y-50837406D01*
X97491329Y-50837793D01*
X97902242Y-50668008D01*
X98216903Y-50353896D01*
X98387406Y-49943280D01*
X98387793Y-49498671D01*
X98371815Y-49460000D01*
X98707842Y-49460000D01*
X98692594Y-49496720D01*
X98692207Y-49941329D01*
X98861992Y-50352242D01*
X99176104Y-50666903D01*
X99586720Y-50837406D01*
X100031329Y-50837793D01*
X100442242Y-50668008D01*
X100756903Y-50353896D01*
X100927406Y-49943280D01*
X100927793Y-49498671D01*
X100911815Y-49460000D01*
X101247842Y-49460000D01*
X101232594Y-49496720D01*
X101232207Y-49941329D01*
X101401992Y-50352242D01*
X101716104Y-50666903D01*
X102126720Y-50837406D01*
X102571329Y-50837793D01*
X102982242Y-50668008D01*
X103296903Y-50353896D01*
X103467406Y-49943280D01*
X103467793Y-49498671D01*
X103451815Y-49460000D01*
X103787842Y-49460000D01*
X103772594Y-49496720D01*
X103772207Y-49941329D01*
X103941992Y-50352242D01*
X104256104Y-50666903D01*
X104666720Y-50837406D01*
X105111329Y-50837793D01*
X105522242Y-50668008D01*
X105836903Y-50353896D01*
X106007406Y-49943280D01*
X106007793Y-49498671D01*
X105991815Y-49460000D01*
X106327842Y-49460000D01*
X106312594Y-49496720D01*
X106312207Y-49941329D01*
X106481992Y-50352242D01*
X106796104Y-50666903D01*
X107206720Y-50837406D01*
X107651329Y-50837793D01*
X108062242Y-50668008D01*
X108376903Y-50353896D01*
X108547406Y-49943280D01*
X108547793Y-49498671D01*
X108531815Y-49460000D01*
X108867842Y-49460000D01*
X108852594Y-49496720D01*
X108852207Y-49941329D01*
X109021992Y-50352242D01*
X109336104Y-50666903D01*
X109746720Y-50837406D01*
X110191329Y-50837793D01*
X110602242Y-50668008D01*
X110916903Y-50353896D01*
X111087406Y-49943280D01*
X111087793Y-49498671D01*
X111071815Y-49460000D01*
X111407842Y-49460000D01*
X111392594Y-49496720D01*
X111392207Y-49941329D01*
X111561992Y-50352242D01*
X111876104Y-50666903D01*
X112286720Y-50837406D01*
X112731329Y-50837793D01*
X113142242Y-50668008D01*
X113456903Y-50353896D01*
X113627406Y-49943280D01*
X113627793Y-49498671D01*
X113611815Y-49460000D01*
X113947842Y-49460000D01*
X113932594Y-49496720D01*
X113932207Y-49941329D01*
X114101992Y-50352242D01*
X114416104Y-50666903D01*
X114826720Y-50837406D01*
X115271329Y-50837793D01*
X115682242Y-50668008D01*
X115996903Y-50353896D01*
X116167406Y-49943280D01*
X116167793Y-49498671D01*
X116151815Y-49460000D01*
X116487842Y-49460000D01*
X116472594Y-49496720D01*
X116472207Y-49941329D01*
X116641992Y-50352242D01*
X116956104Y-50666903D01*
X117366720Y-50837406D01*
X117811329Y-50837793D01*
X118040000Y-50743309D01*
X118040000Y-52855916D01*
X117905180Y-52529628D01*
X117572125Y-52195991D01*
X117136745Y-52015206D01*
X116665323Y-52014794D01*
X116229628Y-52194820D01*
X116109238Y-52315000D01*
X109690926Y-52315000D01*
X109572125Y-52195991D01*
X109136745Y-52015206D01*
X108665323Y-52014794D01*
X108229628Y-52194820D01*
X107895991Y-52527875D01*
X107715206Y-52963255D01*
X107714794Y-53434677D01*
X107894820Y-53870372D01*
X108227875Y-54204009D01*
X108663255Y-54384794D01*
X109134677Y-54385206D01*
X109570372Y-54205180D01*
X109690762Y-54085000D01*
X116109074Y-54085000D01*
X116227875Y-54204009D01*
X116663255Y-54384794D01*
X117134677Y-54385206D01*
X117570372Y-54205180D01*
X117904009Y-53872125D01*
X118040000Y-53544621D01*
X118040000Y-57028742D01*
X117870672Y-57923762D01*
X117801343Y-57952408D01*
X117453629Y-58299515D01*
X117265215Y-58753266D01*
X117264891Y-59124837D01*
X116950849Y-59187304D01*
X116485302Y-59498373D01*
X116230000Y-59880459D01*
X115974698Y-59498373D01*
X115509151Y-59187304D01*
X114960000Y-59078071D01*
X114410849Y-59187304D01*
X113945302Y-59498373D01*
X113690000Y-59880459D01*
X113434698Y-59498373D01*
X112969151Y-59187304D01*
X112420000Y-59078071D01*
X111870849Y-59187304D01*
X111405302Y-59498373D01*
X111150000Y-59880459D01*
X110894698Y-59498373D01*
X110429151Y-59187304D01*
X109880000Y-59078071D01*
X109330849Y-59187304D01*
X108865302Y-59498373D01*
X108610000Y-59880459D01*
X108354698Y-59498373D01*
X107889151Y-59187304D01*
X107340000Y-59078071D01*
X106790849Y-59187304D01*
X106325302Y-59498373D01*
X106070000Y-59880459D01*
X105814698Y-59498373D01*
X105349151Y-59187304D01*
X104800000Y-59078071D01*
X104250849Y-59187304D01*
X103785302Y-59498373D01*
X103530000Y-59880459D01*
X103274698Y-59498373D01*
X102809151Y-59187304D01*
X102260000Y-59078071D01*
X101710849Y-59187304D01*
X101245302Y-59498373D01*
X100992136Y-59877262D01*
X100644896Y-59445500D01*
X100151819Y-59175633D01*
X100069039Y-59158096D01*
X99847000Y-59280085D01*
X99847000Y-60873000D01*
X99867000Y-60873000D01*
X99867000Y-61127000D01*
X99847000Y-61127000D01*
X99847000Y-62719915D01*
X100069039Y-62841904D01*
X100151819Y-62824367D01*
X100644896Y-62554500D01*
X100992136Y-62122738D01*
X101245302Y-62501627D01*
X101710849Y-62812696D01*
X102260000Y-62921929D01*
X102809151Y-62812696D01*
X103274698Y-62501627D01*
X103530000Y-62119541D01*
X103785302Y-62501627D01*
X104250849Y-62812696D01*
X104800000Y-62921929D01*
X105349151Y-62812696D01*
X105814698Y-62501627D01*
X106070000Y-62119541D01*
X106325302Y-62501627D01*
X106790849Y-62812696D01*
X107340000Y-62921929D01*
X107889151Y-62812696D01*
X108354698Y-62501627D01*
X108610000Y-62119541D01*
X108865302Y-62501627D01*
X109120000Y-62671811D01*
X109120000Y-64520000D01*
X109143382Y-64637549D01*
X109157745Y-64756532D01*
X109172132Y-64782082D01*
X109177852Y-64810839D01*
X109244434Y-64910487D01*
X109303240Y-65014922D01*
X110390000Y-66281382D01*
X110390000Y-66799516D01*
X109880000Y-66698071D01*
X109330849Y-66807304D01*
X108865302Y-67118373D01*
X108610000Y-67500459D01*
X108354698Y-67118373D01*
X107889151Y-66807304D01*
X107340000Y-66698071D01*
X106790849Y-66807304D01*
X106325302Y-67118373D01*
X106070000Y-67500459D01*
X105814698Y-67118373D01*
X105349151Y-66807304D01*
X104800000Y-66698071D01*
X104250849Y-66807304D01*
X103785302Y-67118373D01*
X103532136Y-67497262D01*
X103184896Y-67065500D01*
X102691819Y-66795633D01*
X102609039Y-66778096D01*
X102387000Y-66900085D01*
X102387000Y-68493000D01*
X102407000Y-68493000D01*
X102407000Y-68747000D01*
X102387000Y-68747000D01*
X102387000Y-70339915D01*
X102609039Y-70461904D01*
X102691819Y-70444367D01*
X103184896Y-70174500D01*
X103532136Y-69742738D01*
X103785302Y-70121627D01*
X103831728Y-70152648D01*
X103616371Y-70367630D01*
X103403243Y-70880900D01*
X103402758Y-71436661D01*
X103614990Y-71950303D01*
X104007630Y-72343629D01*
X104520900Y-72556757D01*
X105076661Y-72557242D01*
X105590303Y-72345010D01*
X105983629Y-71952370D01*
X106069949Y-71744488D01*
X106154990Y-71950303D01*
X106547630Y-72343629D01*
X107060900Y-72556757D01*
X107616661Y-72557242D01*
X108130303Y-72345010D01*
X108523629Y-71952370D01*
X108609949Y-71744488D01*
X108694990Y-71950303D01*
X109087630Y-72343629D01*
X109600900Y-72556757D01*
X110156661Y-72557242D01*
X110390000Y-72460829D01*
X110390000Y-80871407D01*
X105140352Y-84045612D01*
X104946734Y-83965215D01*
X104455421Y-83964786D01*
X104001343Y-84152408D01*
X103653629Y-84499515D01*
X103465215Y-84953266D01*
X103464786Y-85444579D01*
X103652408Y-85898657D01*
X103999515Y-86246371D01*
X104453266Y-86434785D01*
X104944579Y-86435214D01*
X105398657Y-86247592D01*
X105746371Y-85900485D01*
X105934785Y-85446734D01*
X105934877Y-85341459D01*
X111543239Y-81950356D01*
X111543628Y-81950000D01*
X119515000Y-81950000D01*
X119515000Y-96950000D01*
X119528162Y-97016170D01*
X119528162Y-97083636D01*
X119604282Y-97466319D01*
X119674152Y-97635000D01*
X119706563Y-97713248D01*
X119923336Y-98037672D01*
X120112328Y-98226664D01*
X120436751Y-98443437D01*
X120539032Y-98485803D01*
X120683681Y-98545718D01*
X121066364Y-98621838D01*
X121333636Y-98621838D01*
X121716319Y-98545718D01*
X121963248Y-98443437D01*
X121963249Y-98443436D01*
X122287672Y-98226664D01*
X122476664Y-98037672D01*
X122693437Y-97713249D01*
X122735803Y-97610968D01*
X122795718Y-97466319D01*
X122871838Y-97083636D01*
X122871838Y-97016170D01*
X122885000Y-96950000D01*
X122885000Y-81950000D01*
X122871838Y-81883830D01*
X122871838Y-81816364D01*
X122795718Y-81433681D01*
X122715594Y-81240243D01*
X122693437Y-81186751D01*
X122476664Y-80862328D01*
X122287672Y-80673336D01*
X121963248Y-80456563D01*
X121947403Y-80450000D01*
X121716319Y-80354282D01*
X121333636Y-80278162D01*
X121066364Y-80278162D01*
X120683681Y-80354282D01*
X120539032Y-80414197D01*
X120436751Y-80456563D01*
X120112328Y-80673336D01*
X119923336Y-80862328D01*
X119706564Y-81186751D01*
X119706563Y-81186752D01*
X119604282Y-81433681D01*
X119528162Y-81816364D01*
X119528162Y-81883830D01*
X119515000Y-81950000D01*
X111543628Y-81950000D01*
X111611045Y-81888421D01*
X111687401Y-81837401D01*
X111719512Y-81789344D01*
X111762185Y-81750365D01*
X111801127Y-81667197D01*
X111852148Y-81590839D01*
X111863424Y-81534153D01*
X111887933Y-81481809D01*
X111892084Y-81390071D01*
X111910000Y-81300000D01*
X111910000Y-77040000D01*
X133231009Y-77040000D01*
X133363078Y-77703956D01*
X133739179Y-78266830D01*
X134302053Y-78642931D01*
X134966009Y-78775000D01*
X135033991Y-78775000D01*
X135697947Y-78642931D01*
X136260821Y-78266830D01*
X136636922Y-77703956D01*
X136768991Y-77040000D01*
X136636922Y-76376044D01*
X136390611Y-76007414D01*
X136538327Y-75859699D01*
X136635000Y-75626310D01*
X136635000Y-74785750D01*
X136476250Y-74627000D01*
X135127000Y-74627000D01*
X135127000Y-74647000D01*
X134873000Y-74647000D01*
X134873000Y-74627000D01*
X133523750Y-74627000D01*
X133365000Y-74785750D01*
X133365000Y-75626310D01*
X133461673Y-75859699D01*
X133609389Y-76007414D01*
X133363078Y-76376044D01*
X133231009Y-77040000D01*
X111910000Y-77040000D01*
X111910000Y-73373690D01*
X133365000Y-73373690D01*
X133365000Y-74214250D01*
X133523750Y-74373000D01*
X134873000Y-74373000D01*
X134873000Y-73023750D01*
X135127000Y-73023750D01*
X135127000Y-74373000D01*
X136476250Y-74373000D01*
X136635000Y-74214250D01*
X136635000Y-73373690D01*
X136538327Y-73140301D01*
X136359698Y-72961673D01*
X136126309Y-72865000D01*
X135285750Y-72865000D01*
X135127000Y-73023750D01*
X134873000Y-73023750D01*
X134714250Y-72865000D01*
X133873691Y-72865000D01*
X133640302Y-72961673D01*
X133461673Y-73140301D01*
X133365000Y-73373690D01*
X111910000Y-73373690D01*
X111910000Y-72460879D01*
X112140900Y-72556757D01*
X112696661Y-72557242D01*
X113210303Y-72345010D01*
X113603629Y-71952370D01*
X113689949Y-71744488D01*
X113774990Y-71950303D01*
X114167630Y-72343629D01*
X114680900Y-72556757D01*
X115236661Y-72557242D01*
X115750303Y-72345010D01*
X116143629Y-71952370D01*
X116229949Y-71744488D01*
X116314990Y-71950303D01*
X116707630Y-72343629D01*
X117220900Y-72556757D01*
X117776661Y-72557242D01*
X118290303Y-72345010D01*
X118683629Y-71952370D01*
X118896757Y-71439100D01*
X118897242Y-70883339D01*
X118685010Y-70369697D01*
X118468312Y-70152621D01*
X118514698Y-70121627D01*
X118825767Y-69656080D01*
X118935000Y-69106929D01*
X118935000Y-68133071D01*
X118825767Y-67583920D01*
X118514698Y-67118373D01*
X118049151Y-66807304D01*
X117500000Y-66698071D01*
X116950849Y-66807304D01*
X116485302Y-67118373D01*
X116230000Y-67500459D01*
X115974698Y-67118373D01*
X115509151Y-66807304D01*
X114960000Y-66698071D01*
X114410849Y-66807304D01*
X113945302Y-67118373D01*
X113690000Y-67500459D01*
X113434698Y-67118373D01*
X112969151Y-66807304D01*
X112420000Y-66698071D01*
X111910000Y-66799516D01*
X111910000Y-66000000D01*
X111886616Y-65882443D01*
X111872254Y-65763468D01*
X111857869Y-65737920D01*
X111852148Y-65709161D01*
X111785563Y-65609510D01*
X111726760Y-65505078D01*
X110640000Y-64238618D01*
X110640000Y-62671811D01*
X110894698Y-62501627D01*
X111150000Y-62119541D01*
X111405302Y-62501627D01*
X111660415Y-62672089D01*
X111717852Y-62960839D01*
X111882599Y-63207401D01*
X112962599Y-64287401D01*
X113209161Y-64452148D01*
X113500000Y-64510000D01*
X121011852Y-64510000D01*
X120950262Y-64658325D01*
X120949738Y-65259040D01*
X121179138Y-65814229D01*
X121594536Y-66230353D01*
X121180630Y-66643537D01*
X120950262Y-67198325D01*
X120949738Y-67799040D01*
X121179138Y-68354229D01*
X121603537Y-68779370D01*
X122158325Y-69009738D01*
X122759040Y-69010262D01*
X123314229Y-68780862D01*
X123730353Y-68365464D01*
X124143537Y-68779370D01*
X124240000Y-68819425D01*
X124240000Y-69500000D01*
X124297852Y-69790839D01*
X124462599Y-70037401D01*
X124962599Y-70537401D01*
X125209161Y-70702148D01*
X125500000Y-70760000D01*
X132500000Y-70760000D01*
X132790839Y-70702148D01*
X133037401Y-70537401D01*
X136818298Y-66756504D01*
X137077954Y-66930000D01*
X136775237Y-67132269D01*
X136447910Y-67622148D01*
X136332968Y-68200000D01*
X136447910Y-68777852D01*
X136775237Y-69267731D01*
X137265116Y-69595058D01*
X137842968Y-69710000D01*
X138157032Y-69710000D01*
X138734884Y-69595058D01*
X139224763Y-69267731D01*
X139334663Y-69103254D01*
X139315783Y-78845204D01*
X135716004Y-81965013D01*
X135465323Y-81964794D01*
X135029628Y-82144820D01*
X134695991Y-82477875D01*
X134515206Y-82913255D01*
X134514794Y-83384677D01*
X134694820Y-83820372D01*
X135027875Y-84154009D01*
X135463255Y-84334794D01*
X135934677Y-84335206D01*
X136370372Y-84155180D01*
X136704009Y-83822125D01*
X136884794Y-83386745D01*
X136884875Y-83294226D01*
X140515000Y-80148117D01*
X140515000Y-93248999D01*
X140299991Y-93464008D01*
X139778298Y-93729824D01*
X139190008Y-93823000D01*
X137178427Y-93823000D01*
X137153651Y-93825440D01*
X136388284Y-93977681D01*
X136342503Y-93996644D01*
X135693657Y-94430189D01*
X135674411Y-94445983D01*
X134645983Y-95474411D01*
X134635030Y-95486901D01*
X134317193Y-95901114D01*
X134300616Y-95929826D01*
X134100815Y-96412188D01*
X134092234Y-96444212D01*
X134024086Y-96961850D01*
X134023000Y-96978427D01*
X134023000Y-98940008D01*
X133929824Y-99528298D01*
X133664008Y-100049991D01*
X133448999Y-100265000D01*
X132100180Y-100265000D01*
X132151000Y-100142309D01*
X132151000Y-99285750D01*
X131992250Y-99127000D01*
X130627000Y-99127000D01*
X130627000Y-99147000D01*
X130373000Y-99147000D01*
X130373000Y-99127000D01*
X130353000Y-99127000D01*
X130353000Y-98873000D01*
X130373000Y-98873000D01*
X130373000Y-97507750D01*
X130627000Y-97507750D01*
X130627000Y-98873000D01*
X131992250Y-98873000D01*
X132151000Y-98714250D01*
X132151000Y-97857691D01*
X132054327Y-97624302D01*
X131875699Y-97445673D01*
X131642310Y-97349000D01*
X130785750Y-97349000D01*
X130627000Y-97507750D01*
X130373000Y-97507750D01*
X130214250Y-97349000D01*
X129357690Y-97349000D01*
X129124301Y-97445673D01*
X128945673Y-97624302D01*
X128928001Y-97666966D01*
X128591810Y-97442330D01*
X127960000Y-97316655D01*
X127328190Y-97442330D01*
X126792567Y-97800222D01*
X126434675Y-98335845D01*
X126309000Y-98967655D01*
X126309000Y-99032345D01*
X126434675Y-99664155D01*
X126792567Y-100199778D01*
X126890179Y-100265000D01*
X117600180Y-100265000D01*
X117651000Y-100142309D01*
X117651000Y-99285750D01*
X117492250Y-99127000D01*
X116127000Y-99127000D01*
X116127000Y-99147000D01*
X115873000Y-99147000D01*
X115873000Y-99127000D01*
X115853000Y-99127000D01*
X115853000Y-98873000D01*
X115873000Y-98873000D01*
X115873000Y-97507750D01*
X116127000Y-97507750D01*
X116127000Y-98873000D01*
X117492250Y-98873000D01*
X117651000Y-98714250D01*
X117651000Y-97857691D01*
X117554327Y-97624302D01*
X117375699Y-97445673D01*
X117142310Y-97349000D01*
X116285750Y-97349000D01*
X116127000Y-97507750D01*
X115873000Y-97507750D01*
X115714250Y-97349000D01*
X114857690Y-97349000D01*
X114624301Y-97445673D01*
X114445673Y-97624302D01*
X114428001Y-97666966D01*
X114091810Y-97442330D01*
X113460000Y-97316655D01*
X112828190Y-97442330D01*
X112292567Y-97800222D01*
X111934675Y-98335845D01*
X111809000Y-98967655D01*
X111809000Y-99032345D01*
X111934675Y-99664155D01*
X112292567Y-100199778D01*
X112390179Y-100265000D01*
X84001001Y-100265000D01*
X83785992Y-100049991D01*
X83520176Y-99528298D01*
X83427000Y-98940008D01*
X83427000Y-97128427D01*
X83425914Y-97111850D01*
X83357766Y-96594212D01*
X83349185Y-96562188D01*
X83149384Y-96079826D01*
X83132807Y-96051114D01*
X82814970Y-95636901D01*
X82804017Y-95624411D01*
X81675589Y-94495983D01*
X81663099Y-94485030D01*
X81248886Y-94167193D01*
X81220174Y-94150616D01*
X80737812Y-93950815D01*
X80705788Y-93942234D01*
X80188150Y-93874086D01*
X80171573Y-93873000D01*
X78209992Y-93873000D01*
X77621702Y-93779824D01*
X77100009Y-93514008D01*
X76885000Y-93298999D01*
X76885000Y-82517466D01*
X76921376Y-82334591D01*
X76986751Y-82236750D01*
X77084590Y-82171376D01*
X77267466Y-82135000D01*
X80200000Y-82135000D01*
X80266170Y-82121838D01*
X80333636Y-82121838D01*
X80716319Y-82045718D01*
X80963248Y-81943437D01*
X80963249Y-81943436D01*
X81287672Y-81726664D01*
X81476664Y-81537672D01*
X81693437Y-81213249D01*
X81747123Y-81083637D01*
X81795718Y-80966319D01*
X81871838Y-80583636D01*
X81871838Y-80516170D01*
X81885000Y-80450000D01*
X81885000Y-74373305D01*
X96614674Y-74373305D01*
X96901043Y-75066372D01*
X97430839Y-75597093D01*
X98123405Y-75884672D01*
X98873305Y-75885326D01*
X99566372Y-75598957D01*
X100097093Y-75069161D01*
X100384672Y-74376595D01*
X100385326Y-73626695D01*
X100098957Y-72933628D01*
X99569161Y-72402907D01*
X98876595Y-72115328D01*
X98126695Y-72114674D01*
X97433628Y-72401043D01*
X96902907Y-72930839D01*
X96615328Y-73623405D01*
X96614674Y-74373305D01*
X81885000Y-74373305D01*
X81885000Y-68133071D01*
X83045000Y-68133071D01*
X83045000Y-69106929D01*
X83154233Y-69656080D01*
X83465302Y-70121627D01*
X83930849Y-70432696D01*
X84480000Y-70541929D01*
X85029151Y-70432696D01*
X85494698Y-70121627D01*
X85750000Y-69739541D01*
X86005302Y-70121627D01*
X86470849Y-70432696D01*
X87020000Y-70541929D01*
X87569151Y-70432696D01*
X88034698Y-70121627D01*
X88290000Y-69739541D01*
X88545302Y-70121627D01*
X89010849Y-70432696D01*
X89560000Y-70541929D01*
X90109151Y-70432696D01*
X90574698Y-70121627D01*
X90830000Y-69739541D01*
X91085302Y-70121627D01*
X91550849Y-70432696D01*
X92100000Y-70541929D01*
X92649151Y-70432696D01*
X93114698Y-70121627D01*
X93370000Y-69739541D01*
X93625302Y-70121627D01*
X94090849Y-70432696D01*
X94640000Y-70541929D01*
X95189151Y-70432696D01*
X95654698Y-70121627D01*
X95910000Y-69739541D01*
X96165302Y-70121627D01*
X96630849Y-70432696D01*
X97180000Y-70541929D01*
X97729151Y-70432696D01*
X98194698Y-70121627D01*
X98450000Y-69739541D01*
X98705302Y-70121627D01*
X99170849Y-70432696D01*
X99720000Y-70541929D01*
X100269151Y-70432696D01*
X100734698Y-70121627D01*
X100987864Y-69742738D01*
X101335104Y-70174500D01*
X101828181Y-70444367D01*
X101910961Y-70461904D01*
X102133000Y-70339915D01*
X102133000Y-68747000D01*
X102113000Y-68747000D01*
X102113000Y-68493000D01*
X102133000Y-68493000D01*
X102133000Y-66900085D01*
X101910961Y-66778096D01*
X101828181Y-66795633D01*
X101335104Y-67065500D01*
X100987864Y-67497262D01*
X100734698Y-67118373D01*
X100269151Y-66807304D01*
X99720000Y-66698071D01*
X99170849Y-66807304D01*
X98705302Y-67118373D01*
X98450000Y-67500459D01*
X98194698Y-67118373D01*
X97729151Y-66807304D01*
X97180000Y-66698071D01*
X96630849Y-66807304D01*
X96165302Y-67118373D01*
X95910000Y-67500459D01*
X95654698Y-67118373D01*
X95189151Y-66807304D01*
X94640000Y-66698071D01*
X94090849Y-66807304D01*
X93625302Y-67118373D01*
X93370000Y-67500459D01*
X93114698Y-67118373D01*
X92649151Y-66807304D01*
X92100000Y-66698071D01*
X91550849Y-66807304D01*
X91085302Y-67118373D01*
X90830000Y-67500459D01*
X90574698Y-67118373D01*
X90109151Y-66807304D01*
X89560000Y-66698071D01*
X89010849Y-66807304D01*
X88545302Y-67118373D01*
X88290000Y-67500459D01*
X88034698Y-67118373D01*
X87569151Y-66807304D01*
X87020000Y-66698071D01*
X86470849Y-66807304D01*
X86005302Y-67118373D01*
X85750000Y-67500459D01*
X85494698Y-67118373D01*
X85029151Y-66807304D01*
X84480000Y-66698071D01*
X83930849Y-66807304D01*
X83465302Y-67118373D01*
X83154233Y-67583920D01*
X83045000Y-68133071D01*
X81885000Y-68133071D01*
X81885000Y-65450000D01*
X81871838Y-65383830D01*
X81871838Y-65316364D01*
X81795718Y-64933681D01*
X81709969Y-64726663D01*
X81693437Y-64686751D01*
X81476664Y-64362328D01*
X81287672Y-64173336D01*
X80963248Y-63956563D01*
X80909664Y-63934368D01*
X80716319Y-63854282D01*
X80333636Y-63778162D01*
X80266170Y-63778162D01*
X80200000Y-63765000D01*
X77267466Y-63765000D01*
X77084590Y-63728624D01*
X76986751Y-63663250D01*
X76921376Y-63565409D01*
X76885000Y-63382534D01*
X76885000Y-60513071D01*
X83045000Y-60513071D01*
X83045000Y-61486929D01*
X83154233Y-62036080D01*
X83465302Y-62501627D01*
X83930849Y-62812696D01*
X84480000Y-62921929D01*
X85029151Y-62812696D01*
X85494698Y-62501627D01*
X85750000Y-62119541D01*
X86005302Y-62501627D01*
X86470849Y-62812696D01*
X87020000Y-62921929D01*
X87569151Y-62812696D01*
X88034698Y-62501627D01*
X88290000Y-62119541D01*
X88545302Y-62501627D01*
X89010849Y-62812696D01*
X89560000Y-62921929D01*
X90109151Y-62812696D01*
X90574698Y-62501627D01*
X90830000Y-62119541D01*
X91085302Y-62501627D01*
X91550849Y-62812696D01*
X92100000Y-62921929D01*
X92649151Y-62812696D01*
X93114698Y-62501627D01*
X93370000Y-62119541D01*
X93625302Y-62501627D01*
X94090849Y-62812696D01*
X94640000Y-62921929D01*
X95189151Y-62812696D01*
X95654698Y-62501627D01*
X95910000Y-62119541D01*
X96165302Y-62501627D01*
X96630849Y-62812696D01*
X97180000Y-62921929D01*
X97729151Y-62812696D01*
X98194698Y-62501627D01*
X98447864Y-62122738D01*
X98795104Y-62554500D01*
X99288181Y-62824367D01*
X99370961Y-62841904D01*
X99593000Y-62719915D01*
X99593000Y-61127000D01*
X99573000Y-61127000D01*
X99573000Y-60873000D01*
X99593000Y-60873000D01*
X99593000Y-59280085D01*
X99370961Y-59158096D01*
X99288181Y-59175633D01*
X98795104Y-59445500D01*
X98447864Y-59877262D01*
X98194698Y-59498373D01*
X97729151Y-59187304D01*
X97180000Y-59078071D01*
X96630849Y-59187304D01*
X96165302Y-59498373D01*
X95910000Y-59880459D01*
X95654698Y-59498373D01*
X95189151Y-59187304D01*
X94640000Y-59078071D01*
X94090849Y-59187304D01*
X93625302Y-59498373D01*
X93370000Y-59880459D01*
X93114698Y-59498373D01*
X92649151Y-59187304D01*
X92100000Y-59078071D01*
X91550849Y-59187304D01*
X91085302Y-59498373D01*
X90830000Y-59880459D01*
X90574698Y-59498373D01*
X90109151Y-59187304D01*
X89560000Y-59078071D01*
X89010849Y-59187304D01*
X88545302Y-59498373D01*
X88290000Y-59880459D01*
X88034698Y-59498373D01*
X87569151Y-59187304D01*
X87020000Y-59078071D01*
X86470849Y-59187304D01*
X86005302Y-59498373D01*
X85750000Y-59880459D01*
X85494698Y-59498373D01*
X85029151Y-59187304D01*
X84480000Y-59078071D01*
X83930849Y-59187304D01*
X83465302Y-59498373D01*
X83154233Y-59963920D01*
X83045000Y-60513071D01*
X76885000Y-60513071D01*
X76885000Y-53265000D01*
X86878690Y-53265000D01*
X86878690Y-56335000D01*
X98521310Y-56335000D01*
X98521310Y-53265000D01*
X86878690Y-53265000D01*
X76885000Y-53265000D01*
X76885000Y-50087544D01*
X76962687Y-50275561D01*
X77869664Y-51184123D01*
X79055294Y-51676439D01*
X79714966Y-51677015D01*
X80032345Y-51990373D01*
X80074535Y-52017968D01*
X80138150Y-52025914D01*
X80655788Y-51957766D01*
X80687812Y-51949185D01*
X81170174Y-51749384D01*
X81198886Y-51732807D01*
X81613099Y-51414970D01*
X81625589Y-51404017D01*
X82939803Y-50089803D01*
X82967666Y-50047789D01*
X82968609Y-50042777D01*
X82976887Y-50040917D01*
X83025755Y-50002313D01*
X83039320Y-49984635D01*
X83055898Y-49955923D01*
X83064425Y-49935337D01*
X83073006Y-49903311D01*
X83075914Y-49881220D01*
X83077000Y-49864645D01*
X83077000Y-47401329D01*
X83452207Y-47401329D01*
X83621992Y-47812242D01*
X83936104Y-48126903D01*
X84316144Y-48284710D01*
X84315855Y-48615766D01*
X83937758Y-48771992D01*
X83623097Y-49086104D01*
X83452594Y-49496720D01*
X83452207Y-49941329D01*
X83621992Y-50352242D01*
X83936104Y-50666903D01*
X84346720Y-50837406D01*
X84791329Y-50837793D01*
X85202242Y-50668008D01*
X85516903Y-50353896D01*
X85674710Y-49973856D01*
X86005766Y-49974145D01*
X86161992Y-50352242D01*
X86476104Y-50666903D01*
X86886720Y-50837406D01*
X87331329Y-50837793D01*
X87742242Y-50668008D01*
X88056903Y-50353896D01*
X88227406Y-49943280D01*
X88227793Y-49498671D01*
X88058008Y-49087758D01*
X87743896Y-48773097D01*
X87363856Y-48615290D01*
X87364145Y-48284234D01*
X87742242Y-48128008D01*
X88056903Y-47813896D01*
X88227406Y-47403280D01*
X88227793Y-46958671D01*
X88058008Y-46547758D01*
X87743896Y-46233097D01*
X87333280Y-46062594D01*
X86888671Y-46062207D01*
X86477758Y-46231992D01*
X86163097Y-46546104D01*
X86005290Y-46926144D01*
X85674234Y-46925855D01*
X85518008Y-46547758D01*
X85203896Y-46233097D01*
X84793280Y-46062594D01*
X84348671Y-46062207D01*
X83937758Y-46231992D01*
X83623097Y-46546104D01*
X83452594Y-46956720D01*
X83452207Y-47401329D01*
X83077000Y-47401329D01*
X83077000Y-46459992D01*
X83170176Y-45871702D01*
X83435992Y-45350009D01*
X83651001Y-45135000D01*
X133748999Y-45135000D01*
X133964008Y-45350009D01*
X133964008Y-45350009D01*
G37*
X133964008Y-45350009D02*
X134229824Y-45871702D01*
X134323000Y-46459992D01*
X134323000Y-49421573D01*
X134324086Y-49438150D01*
X134392234Y-49955788D01*
X134400815Y-49987812D01*
X134600616Y-50470174D01*
X134617193Y-50498886D01*
X134935030Y-50913099D01*
X134945983Y-50925589D01*
X135324411Y-51304017D01*
X135343657Y-51319811D01*
X135992503Y-51753356D01*
X136038284Y-51772319D01*
X136803651Y-51924560D01*
X136828427Y-51927000D01*
X139190008Y-51927000D01*
X139778298Y-52020176D01*
X140299991Y-52285992D01*
X140411017Y-52397018D01*
X140378356Y-52375699D01*
X140238674Y-52282367D01*
X140233922Y-52281422D01*
X140229864Y-52278773D01*
X140064798Y-52247780D01*
X139900000Y-52214999D01*
X139895245Y-52215945D01*
X139890485Y-52215051D01*
X135240484Y-52265051D01*
X135104383Y-52293648D01*
X134966464Y-52311649D01*
X134936448Y-52328934D01*
X134902553Y-52336056D01*
X134787751Y-52414562D01*
X134667224Y-52483969D01*
X131067223Y-55633970D01*
X131049028Y-55657627D01*
X131024210Y-55674210D01*
X130944339Y-55793745D01*
X130856706Y-55907688D01*
X130848949Y-55936508D01*
X130832367Y-55961325D01*
X130804324Y-56102307D01*
X130766959Y-56241131D01*
X130770822Y-56270730D01*
X130765000Y-56300000D01*
X130765000Y-57209074D01*
X130645991Y-57327875D01*
X130465206Y-57763255D01*
X130464794Y-58234677D01*
X130644820Y-58670372D01*
X130977875Y-59004009D01*
X131413255Y-59184794D01*
X131884677Y-59185206D01*
X132320372Y-59005180D01*
X132654009Y-58672125D01*
X132834794Y-58236745D01*
X132835206Y-57765323D01*
X132655180Y-57329628D01*
X132535000Y-57209238D01*
X132535000Y-56701585D01*
X135586603Y-54031432D01*
X136833558Y-54018024D01*
X136640302Y-54098073D01*
X136461673Y-54276701D01*
X136365000Y-54510090D01*
X136365000Y-55214250D01*
X136523750Y-55373000D01*
X137873000Y-55373000D01*
X137873000Y-55353000D01*
X138127000Y-55353000D01*
X138127000Y-55373000D01*
X138147000Y-55373000D01*
X138147000Y-55627000D01*
X138127000Y-55627000D01*
X138127000Y-55647000D01*
X137873000Y-55647000D01*
X137873000Y-55627000D01*
X136523750Y-55627000D01*
X136365000Y-55785750D01*
X136365000Y-56489910D01*
X136461673Y-56723299D01*
X136640302Y-56901927D01*
X136788587Y-56963349D01*
X136775237Y-56972269D01*
X136447910Y-57462148D01*
X136332968Y-58040000D01*
X136441185Y-58584044D01*
X136438675Y-58582367D01*
X136382484Y-58571190D01*
X136100000Y-58514999D01*
X136099995Y-58515000D01*
X135390926Y-58515000D01*
X135272125Y-58395991D01*
X134836745Y-58215206D01*
X134365323Y-58214794D01*
X133929628Y-58394820D01*
X133595991Y-58727875D01*
X133415206Y-59163255D01*
X133414794Y-59634677D01*
X133594820Y-60070372D01*
X133927875Y-60404009D01*
X134363255Y-60584794D01*
X134834677Y-60585206D01*
X135270372Y-60405180D01*
X135390762Y-60285000D01*
X135733420Y-60285000D01*
X136408588Y-60960167D01*
X136447910Y-61157852D01*
X136775237Y-61647731D01*
X137077954Y-61850000D01*
X136775237Y-62052269D01*
X136447910Y-62542148D01*
X136332968Y-63120000D01*
X136447910Y-63697852D01*
X136775237Y-64187731D01*
X137077954Y-64390000D01*
X136775237Y-64592269D01*
X136516283Y-64979820D01*
X136302599Y-65122599D01*
X132185198Y-69240000D01*
X125814802Y-69240000D01*
X125760000Y-69185198D01*
X125760000Y-68819797D01*
X125854229Y-68780862D01*
X126279370Y-68356463D01*
X126509738Y-67801675D01*
X126510262Y-67200960D01*
X126280862Y-66645771D01*
X125865464Y-66229647D01*
X126279370Y-65816463D01*
X126509738Y-65261675D01*
X126510262Y-64660960D01*
X126280862Y-64105771D01*
X125865464Y-63689647D01*
X126279370Y-63276463D01*
X126509738Y-62721675D01*
X126510262Y-62120960D01*
X126280862Y-61565771D01*
X125856463Y-61140630D01*
X125301675Y-60910262D01*
X124700960Y-60909738D01*
X124145771Y-61139138D01*
X123729647Y-61554536D01*
X123316463Y-61140630D01*
X122761675Y-60910262D01*
X122160960Y-60909738D01*
X121605771Y-61139138D01*
X121180630Y-61563537D01*
X120950262Y-62118325D01*
X120949738Y-62719040D01*
X121061697Y-62990000D01*
X113814802Y-62990000D01*
X113369796Y-62544994D01*
X113434698Y-62501627D01*
X113690000Y-62119541D01*
X113945302Y-62501627D01*
X114410849Y-62812696D01*
X114960000Y-62921929D01*
X115509151Y-62812696D01*
X115974698Y-62501627D01*
X116230000Y-62119541D01*
X116485302Y-62501627D01*
X116950849Y-62812696D01*
X117500000Y-62921929D01*
X118049151Y-62812696D01*
X118514698Y-62501627D01*
X118825767Y-62036080D01*
X118880683Y-61760000D01*
X119500000Y-61760000D01*
X119790839Y-61702148D01*
X120037401Y-61537401D01*
X120811648Y-60763154D01*
X128053131Y-60835569D01*
X127575057Y-61033106D01*
X127114722Y-61492637D01*
X126865284Y-62093352D01*
X126864716Y-62743795D01*
X127113106Y-63344943D01*
X127457759Y-63690199D01*
X127114722Y-64032637D01*
X126865284Y-64633352D01*
X126864716Y-65283795D01*
X127113106Y-65884943D01*
X127457759Y-66230199D01*
X127114722Y-66572637D01*
X126865284Y-67173352D01*
X126864716Y-67823795D01*
X127113106Y-68424943D01*
X127572637Y-68885278D01*
X128173352Y-69134716D01*
X128823795Y-69135284D01*
X129424943Y-68886894D01*
X129885278Y-68427363D01*
X130134716Y-67826648D01*
X130135284Y-67176205D01*
X129886894Y-66575057D01*
X129542241Y-66229801D01*
X129885278Y-65887363D01*
X129975000Y-65671288D01*
X130299515Y-65996371D01*
X130753266Y-66184785D01*
X131244579Y-66185214D01*
X131698657Y-65997592D01*
X132046371Y-65650485D01*
X132234785Y-65196734D01*
X132235214Y-64705421D01*
X132047592Y-64251343D01*
X131760000Y-63963248D01*
X131760000Y-60500000D01*
X131751718Y-60458364D01*
X131755351Y-60416072D01*
X131723021Y-60314093D01*
X131702148Y-60209161D01*
X131678563Y-60173864D01*
X131665735Y-60133400D01*
X131596839Y-60051554D01*
X131537401Y-59962599D01*
X131502107Y-59939016D01*
X131474768Y-59906539D01*
X130974768Y-59506540D01*
X130883115Y-59459012D01*
X130797846Y-59400795D01*
X130752576Y-59391319D01*
X130711521Y-59370029D01*
X130608661Y-59361193D01*
X130507600Y-59340038D01*
X122927517Y-59264237D01*
X122934785Y-59246734D01*
X122935214Y-58755421D01*
X122747592Y-58301343D01*
X122400485Y-57953629D01*
X122253576Y-57892627D01*
X122160000Y-57424747D01*
X122160000Y-50718349D01*
X122446720Y-50837406D01*
X122891329Y-50837793D01*
X123302242Y-50668008D01*
X123616903Y-50353896D01*
X123787406Y-49943280D01*
X123787407Y-49941329D01*
X124092207Y-49941329D01*
X124261992Y-50352242D01*
X124576104Y-50666903D01*
X124986720Y-50837406D01*
X125431329Y-50837793D01*
X125842242Y-50668008D01*
X126156903Y-50353896D01*
X126327406Y-49943280D01*
X126327407Y-49941329D01*
X126632207Y-49941329D01*
X126801992Y-50352242D01*
X127116104Y-50666903D01*
X127526720Y-50837406D01*
X127971329Y-50837793D01*
X128382242Y-50668008D01*
X128696903Y-50353896D01*
X128867406Y-49943280D01*
X128867793Y-49498671D01*
X128698008Y-49087758D01*
X128383896Y-48773097D01*
X127973280Y-48602594D01*
X127528671Y-48602207D01*
X127117758Y-48771992D01*
X126803097Y-49086104D01*
X126632594Y-49496720D01*
X126632207Y-49941329D01*
X126327407Y-49941329D01*
X126327793Y-49498671D01*
X126158008Y-49087758D01*
X125843896Y-48773097D01*
X125433280Y-48602594D01*
X124988671Y-48602207D01*
X124577758Y-48771992D01*
X124263097Y-49086104D01*
X124092594Y-49496720D01*
X124092207Y-49941329D01*
X123787407Y-49941329D01*
X123787793Y-49498671D01*
X123618008Y-49087758D01*
X123303896Y-48773097D01*
X122893280Y-48602594D01*
X122448671Y-48602207D01*
X122068755Y-48759184D01*
X121937401Y-48562599D01*
X121109704Y-47734902D01*
X121247406Y-47403280D01*
X121247407Y-47401329D01*
X121552207Y-47401329D01*
X121721992Y-47812242D01*
X122036104Y-48126903D01*
X122446720Y-48297406D01*
X122891329Y-48297793D01*
X123302242Y-48128008D01*
X123616903Y-47813896D01*
X123787406Y-47403280D01*
X123787407Y-47401329D01*
X124092207Y-47401329D01*
X124261992Y-47812242D01*
X124576104Y-48126903D01*
X124986720Y-48297406D01*
X125431329Y-48297793D01*
X125842242Y-48128008D01*
X126156903Y-47813896D01*
X126327406Y-47403280D01*
X126327407Y-47401329D01*
X126632207Y-47401329D01*
X126801992Y-47812242D01*
X127116104Y-48126903D01*
X127526720Y-48297406D01*
X127971329Y-48297793D01*
X128382242Y-48128008D01*
X128696903Y-47813896D01*
X128867406Y-47403280D01*
X128867407Y-47401329D01*
X129172207Y-47401329D01*
X129341992Y-47812242D01*
X129656104Y-48126903D01*
X130036144Y-48284710D01*
X130035855Y-48615766D01*
X129657758Y-48771992D01*
X129343097Y-49086104D01*
X129172594Y-49496720D01*
X129172207Y-49941329D01*
X129341992Y-50352242D01*
X129656104Y-50666903D01*
X130066720Y-50837406D01*
X130511329Y-50837793D01*
X130922242Y-50668008D01*
X131236903Y-50353896D01*
X131394710Y-49973856D01*
X131725766Y-49974145D01*
X131881992Y-50352242D01*
X132196104Y-50666903D01*
X132606720Y-50837406D01*
X133051329Y-50837793D01*
X133462242Y-50668008D01*
X133776903Y-50353896D01*
X133947406Y-49943280D01*
X133947793Y-49498671D01*
X133778008Y-49087758D01*
X133463896Y-48773097D01*
X133083856Y-48615290D01*
X133084145Y-48284234D01*
X133462242Y-48128008D01*
X133776903Y-47813896D01*
X133947406Y-47403280D01*
X133947793Y-46958671D01*
X133778008Y-46547758D01*
X133463896Y-46233097D01*
X133053280Y-46062594D01*
X132608671Y-46062207D01*
X132197758Y-46231992D01*
X131883097Y-46546104D01*
X131725290Y-46926144D01*
X131394234Y-46925855D01*
X131238008Y-46547758D01*
X130923896Y-46233097D01*
X130513280Y-46062594D01*
X130068671Y-46062207D01*
X129657758Y-46231992D01*
X129343097Y-46546104D01*
X129172594Y-46956720D01*
X129172207Y-47401329D01*
X128867407Y-47401329D01*
X128867793Y-46958671D01*
X128698008Y-46547758D01*
X128383896Y-46233097D01*
X127973280Y-46062594D01*
X127528671Y-46062207D01*
X127117758Y-46231992D01*
X126803097Y-46546104D01*
X126632594Y-46956720D01*
X126632207Y-47401329D01*
X126327407Y-47401329D01*
X126327793Y-46958671D01*
X126158008Y-46547758D01*
X125843896Y-46233097D01*
X125433280Y-46062594D01*
X124988671Y-46062207D01*
X124577758Y-46231992D01*
X124263097Y-46546104D01*
X124092594Y-46956720D01*
X124092207Y-47401329D01*
X123787407Y-47401329D01*
X123787793Y-46958671D01*
X123618008Y-46547758D01*
X123303896Y-46233097D01*
X122893280Y-46062594D01*
X122448671Y-46062207D01*
X122037758Y-46231992D01*
X121723097Y-46546104D01*
X121552594Y-46956720D01*
X121552207Y-47401329D01*
X121247407Y-47401329D01*
X121247793Y-46958671D01*
X121078008Y-46547758D01*
X120763896Y-46233097D01*
X120353280Y-46062594D01*
X119908671Y-46062207D01*
X119497758Y-46231992D01*
X119183097Y-46546104D01*
X119012594Y-46956720D01*
X119012207Y-47401329D01*
X119028185Y-47440000D01*
X118692158Y-47440000D01*
X118707406Y-47403280D01*
X118707793Y-46958671D01*
X118538008Y-46547758D01*
X118223896Y-46233097D01*
X117813280Y-46062594D01*
X117368671Y-46062207D01*
X116957758Y-46231992D01*
X116643097Y-46546104D01*
X116472594Y-46956720D01*
X116472207Y-47401329D01*
X116488185Y-47440000D01*
X116152158Y-47440000D01*
X116167406Y-47403280D01*
X116167793Y-46958671D01*
X115998008Y-46547758D01*
X115683896Y-46233097D01*
X115273280Y-46062594D01*
X114828671Y-46062207D01*
X114417758Y-46231992D01*
X114103097Y-46546104D01*
X113932594Y-46956720D01*
X113932207Y-47401329D01*
X113948185Y-47440000D01*
X113612158Y-47440000D01*
X113627406Y-47403280D01*
X113627793Y-46958671D01*
X113458008Y-46547758D01*
X113143896Y-46233097D01*
X112733280Y-46062594D01*
X112288671Y-46062207D01*
X111877758Y-46231992D01*
X111563097Y-46546104D01*
X111392594Y-46956720D01*
X111392207Y-47401329D01*
X111408185Y-47440000D01*
X111072158Y-47440000D01*
X111087406Y-47403280D01*
X111087793Y-46958671D01*
X110918008Y-46547758D01*
X110603896Y-46233097D01*
X110193280Y-46062594D01*
X109748671Y-46062207D01*
X109337758Y-46231992D01*
X109023097Y-46546104D01*
X108852594Y-46956720D01*
X108852207Y-47401329D01*
X108868185Y-47440000D01*
X108532158Y-47440000D01*
X108547406Y-47403280D01*
X108547793Y-46958671D01*
X108378008Y-46547758D01*
X108063896Y-46233097D01*
X107653280Y-46062594D01*
X107208671Y-46062207D01*
X106797758Y-46231992D01*
X106483097Y-46546104D01*
X106312594Y-46956720D01*
X106312207Y-47401329D01*
X106328185Y-47440000D01*
X105992158Y-47440000D01*
X106007406Y-47403280D01*
X106007793Y-46958671D01*
X105838008Y-46547758D01*
X105523896Y-46233097D01*
X105113280Y-46062594D01*
X104668671Y-46062207D01*
X104257758Y-46231992D01*
X103943097Y-46546104D01*
X103772594Y-46956720D01*
X103772207Y-47401329D01*
X103788185Y-47440000D01*
X103452158Y-47440000D01*
X103467406Y-47403280D01*
X103467793Y-46958671D01*
X103298008Y-46547758D01*
X102983896Y-46233097D01*
X102573280Y-46062594D01*
X102128671Y-46062207D01*
X101717758Y-46231992D01*
X101403097Y-46546104D01*
X101232594Y-46956720D01*
X101232207Y-47401329D01*
X101248185Y-47440000D01*
X100912158Y-47440000D01*
X100927406Y-47403280D01*
X100927793Y-46958671D01*
X100758008Y-46547758D01*
X100443896Y-46233097D01*
X100033280Y-46062594D01*
X99588671Y-46062207D01*
X99177758Y-46231992D01*
X98863097Y-46546104D01*
X98692594Y-46956720D01*
X98692207Y-47401329D01*
X98708185Y-47440000D01*
X98372158Y-47440000D01*
X98387406Y-47403280D01*
X98387793Y-46958671D01*
X98218008Y-46547758D01*
X97903896Y-46233097D01*
X97493280Y-46062594D01*
X97048671Y-46062207D01*
X96637758Y-46231992D01*
X96323097Y-46546104D01*
X96152594Y-46956720D01*
X96152207Y-47401329D01*
X96168185Y-47440000D01*
X95832158Y-47440000D01*
X95847406Y-47403280D01*
X95847793Y-46958671D01*
X95678008Y-46547758D01*
X95363896Y-46233097D01*
X94953280Y-46062594D01*
X94508671Y-46062207D01*
X94097758Y-46231992D01*
X93885700Y-46443680D01*
X93696734Y-46365215D01*
X93205421Y-46364786D01*
X93028380Y-46437938D01*
X92823896Y-46233097D01*
X92413280Y-46062594D01*
X91968671Y-46062207D01*
X91557758Y-46231992D01*
X91243097Y-46546104D01*
X91169031Y-46724474D01*
X91146734Y-46715215D01*
X90667026Y-46714796D01*
X90598008Y-46547758D01*
X90283896Y-46233097D01*
X89873280Y-46062594D01*
X89428671Y-46062207D01*
X89017758Y-46231992D01*
X88703097Y-46546104D01*
X88532594Y-46956720D01*
X88532207Y-47401329D01*
X88701992Y-47812242D01*
X89016104Y-48126903D01*
X89426720Y-48297406D01*
X89707374Y-48297650D01*
X89833361Y-48602559D01*
X89428671Y-48602207D01*
X89017758Y-48771992D01*
X88703097Y-49086104D01*
X88532594Y-49496720D01*
X88532207Y-49941329D01*
X88701992Y-50352242D01*
X89016104Y-50666903D01*
X89426720Y-50837406D01*
X89871329Y-50837793D01*
X90282242Y-50668008D01*
X90596903Y-50353896D01*
X90767406Y-49943280D01*
X90767793Y-49498671D01*
X90634957Y-49177183D01*
X90653266Y-49184785D01*
X91113248Y-49185187D01*
X91144398Y-49218562D01*
X91155205Y-49226334D01*
X91162599Y-49237401D01*
X91176434Y-49246645D01*
X91072594Y-49496720D01*
X91072207Y-49941329D01*
X91241992Y-50352242D01*
X91556104Y-50666903D01*
X91966720Y-50837406D01*
X92411329Y-50837793D01*
X92822242Y-50668008D01*
X93136903Y-50353896D01*
X93307406Y-49943280D01*
X93307793Y-49498671D01*
X93291815Y-49460000D01*
X93627842Y-49460000D01*
X93612594Y-49496720D01*
X93612207Y-49941329D01*
X93781992Y-50352242D01*
X94096104Y-50666903D01*
X94506720Y-50837406D01*
X94951329Y-50837793D01*
X95362242Y-50668008D01*
X95676903Y-50353896D01*
X95847406Y-49943280D01*
X95847793Y-49498671D01*
X95831815Y-49460000D01*
X96167842Y-49460000D01*
X96152594Y-49496720D01*
X96152207Y-49941329D01*
X96321992Y-50352242D01*
X96636104Y-50666903D01*
X97046720Y-50837406D01*
X97491329Y-50837793D01*
X97902242Y-50668008D01*
X98216903Y-50353896D01*
X98387406Y-49943280D01*
X98387793Y-49498671D01*
X98371815Y-49460000D01*
X98707842Y-49460000D01*
X98692594Y-49496720D01*
X98692207Y-49941329D01*
X98861992Y-50352242D01*
X99176104Y-50666903D01*
X99586720Y-50837406D01*
X100031329Y-50837793D01*
X100442242Y-50668008D01*
X100756903Y-50353896D01*
X100927406Y-49943280D01*
X100927793Y-49498671D01*
X100911815Y-49460000D01*
X101247842Y-49460000D01*
X101232594Y-49496720D01*
X101232207Y-49941329D01*
X101401992Y-50352242D01*
X101716104Y-50666903D01*
X102126720Y-50837406D01*
X102571329Y-50837793D01*
X102982242Y-50668008D01*
X103296903Y-50353896D01*
X103467406Y-49943280D01*
X103467793Y-49498671D01*
X103451815Y-49460000D01*
X103787842Y-49460000D01*
X103772594Y-49496720D01*
X103772207Y-49941329D01*
X103941992Y-50352242D01*
X104256104Y-50666903D01*
X104666720Y-50837406D01*
X105111329Y-50837793D01*
X105522242Y-50668008D01*
X105836903Y-50353896D01*
X106007406Y-49943280D01*
X106007793Y-49498671D01*
X105991815Y-49460000D01*
X106327842Y-49460000D01*
X106312594Y-49496720D01*
X106312207Y-49941329D01*
X106481992Y-50352242D01*
X106796104Y-50666903D01*
X107206720Y-50837406D01*
X107651329Y-50837793D01*
X108062242Y-50668008D01*
X108376903Y-50353896D01*
X108547406Y-49943280D01*
X108547793Y-49498671D01*
X108531815Y-49460000D01*
X108867842Y-49460000D01*
X108852594Y-49496720D01*
X108852207Y-49941329D01*
X109021992Y-50352242D01*
X109336104Y-50666903D01*
X109746720Y-50837406D01*
X110191329Y-50837793D01*
X110602242Y-50668008D01*
X110916903Y-50353896D01*
X111087406Y-49943280D01*
X111087793Y-49498671D01*
X111071815Y-49460000D01*
X111407842Y-49460000D01*
X111392594Y-49496720D01*
X111392207Y-49941329D01*
X111561992Y-50352242D01*
X111876104Y-50666903D01*
X112286720Y-50837406D01*
X112731329Y-50837793D01*
X113142242Y-50668008D01*
X113456903Y-50353896D01*
X113627406Y-49943280D01*
X113627793Y-49498671D01*
X113611815Y-49460000D01*
X113947842Y-49460000D01*
X113932594Y-49496720D01*
X113932207Y-49941329D01*
X114101992Y-50352242D01*
X114416104Y-50666903D01*
X114826720Y-50837406D01*
X115271329Y-50837793D01*
X115682242Y-50668008D01*
X115996903Y-50353896D01*
X116167406Y-49943280D01*
X116167793Y-49498671D01*
X116151815Y-49460000D01*
X116487842Y-49460000D01*
X116472594Y-49496720D01*
X116472207Y-49941329D01*
X116641992Y-50352242D01*
X116956104Y-50666903D01*
X117366720Y-50837406D01*
X117811329Y-50837793D01*
X118040000Y-50743309D01*
X118040000Y-52855916D01*
X117905180Y-52529628D01*
X117572125Y-52195991D01*
X117136745Y-52015206D01*
X116665323Y-52014794D01*
X116229628Y-52194820D01*
X116109238Y-52315000D01*
X109690926Y-52315000D01*
X109572125Y-52195991D01*
X109136745Y-52015206D01*
X108665323Y-52014794D01*
X108229628Y-52194820D01*
X107895991Y-52527875D01*
X107715206Y-52963255D01*
X107714794Y-53434677D01*
X107894820Y-53870372D01*
X108227875Y-54204009D01*
X108663255Y-54384794D01*
X109134677Y-54385206D01*
X109570372Y-54205180D01*
X109690762Y-54085000D01*
X116109074Y-54085000D01*
X116227875Y-54204009D01*
X116663255Y-54384794D01*
X117134677Y-54385206D01*
X117570372Y-54205180D01*
X117904009Y-53872125D01*
X118040000Y-53544621D01*
X118040000Y-57028742D01*
X117870672Y-57923762D01*
X117801343Y-57952408D01*
X117453629Y-58299515D01*
X117265215Y-58753266D01*
X117264891Y-59124837D01*
X116950849Y-59187304D01*
X116485302Y-59498373D01*
X116230000Y-59880459D01*
X115974698Y-59498373D01*
X115509151Y-59187304D01*
X114960000Y-59078071D01*
X114410849Y-59187304D01*
X113945302Y-59498373D01*
X113690000Y-59880459D01*
X113434698Y-59498373D01*
X112969151Y-59187304D01*
X112420000Y-59078071D01*
X111870849Y-59187304D01*
X111405302Y-59498373D01*
X111150000Y-59880459D01*
X110894698Y-59498373D01*
X110429151Y-59187304D01*
X109880000Y-59078071D01*
X109330849Y-59187304D01*
X108865302Y-59498373D01*
X108610000Y-59880459D01*
X108354698Y-59498373D01*
X107889151Y-59187304D01*
X107340000Y-59078071D01*
X106790849Y-59187304D01*
X106325302Y-59498373D01*
X106070000Y-59880459D01*
X105814698Y-59498373D01*
X105349151Y-59187304D01*
X104800000Y-59078071D01*
X104250849Y-59187304D01*
X103785302Y-59498373D01*
X103530000Y-59880459D01*
X103274698Y-59498373D01*
X102809151Y-59187304D01*
X102260000Y-59078071D01*
X101710849Y-59187304D01*
X101245302Y-59498373D01*
X100992136Y-59877262D01*
X100644896Y-59445500D01*
X100151819Y-59175633D01*
X100069039Y-59158096D01*
X99847000Y-59280085D01*
X99847000Y-60873000D01*
X99867000Y-60873000D01*
X99867000Y-61127000D01*
X99847000Y-61127000D01*
X99847000Y-62719915D01*
X100069039Y-62841904D01*
X100151819Y-62824367D01*
X100644896Y-62554500D01*
X100992136Y-62122738D01*
X101245302Y-62501627D01*
X101710849Y-62812696D01*
X102260000Y-62921929D01*
X102809151Y-62812696D01*
X103274698Y-62501627D01*
X103530000Y-62119541D01*
X103785302Y-62501627D01*
X104250849Y-62812696D01*
X104800000Y-62921929D01*
X105349151Y-62812696D01*
X105814698Y-62501627D01*
X106070000Y-62119541D01*
X106325302Y-62501627D01*
X106790849Y-62812696D01*
X107340000Y-62921929D01*
X107889151Y-62812696D01*
X108354698Y-62501627D01*
X108610000Y-62119541D01*
X108865302Y-62501627D01*
X109120000Y-62671811D01*
X109120000Y-64520000D01*
X109143382Y-64637549D01*
X109157745Y-64756532D01*
X109172132Y-64782082D01*
X109177852Y-64810839D01*
X109244434Y-64910487D01*
X109303240Y-65014922D01*
X110390000Y-66281382D01*
X110390000Y-66799516D01*
X109880000Y-66698071D01*
X109330849Y-66807304D01*
X108865302Y-67118373D01*
X108610000Y-67500459D01*
X108354698Y-67118373D01*
X107889151Y-66807304D01*
X107340000Y-66698071D01*
X106790849Y-66807304D01*
X106325302Y-67118373D01*
X106070000Y-67500459D01*
X105814698Y-67118373D01*
X105349151Y-66807304D01*
X104800000Y-66698071D01*
X104250849Y-66807304D01*
X103785302Y-67118373D01*
X103532136Y-67497262D01*
X103184896Y-67065500D01*
X102691819Y-66795633D01*
X102609039Y-66778096D01*
X102387000Y-66900085D01*
X102387000Y-68493000D01*
X102407000Y-68493000D01*
X102407000Y-68747000D01*
X102387000Y-68747000D01*
X102387000Y-70339915D01*
X102609039Y-70461904D01*
X102691819Y-70444367D01*
X103184896Y-70174500D01*
X103532136Y-69742738D01*
X103785302Y-70121627D01*
X103831728Y-70152648D01*
X103616371Y-70367630D01*
X103403243Y-70880900D01*
X103402758Y-71436661D01*
X103614990Y-71950303D01*
X104007630Y-72343629D01*
X104520900Y-72556757D01*
X105076661Y-72557242D01*
X105590303Y-72345010D01*
X105983629Y-71952370D01*
X106069949Y-71744488D01*
X106154990Y-71950303D01*
X106547630Y-72343629D01*
X107060900Y-72556757D01*
X107616661Y-72557242D01*
X108130303Y-72345010D01*
X108523629Y-71952370D01*
X108609949Y-71744488D01*
X108694990Y-71950303D01*
X109087630Y-72343629D01*
X109600900Y-72556757D01*
X110156661Y-72557242D01*
X110390000Y-72460829D01*
X110390000Y-80871407D01*
X105140352Y-84045612D01*
X104946734Y-83965215D01*
X104455421Y-83964786D01*
X104001343Y-84152408D01*
X103653629Y-84499515D01*
X103465215Y-84953266D01*
X103464786Y-85444579D01*
X103652408Y-85898657D01*
X103999515Y-86246371D01*
X104453266Y-86434785D01*
X104944579Y-86435214D01*
X105398657Y-86247592D01*
X105746371Y-85900485D01*
X105934785Y-85446734D01*
X105934877Y-85341459D01*
X111543239Y-81950356D01*
X111543628Y-81950000D01*
X119515000Y-81950000D01*
X119515000Y-96950000D01*
X119528162Y-97016170D01*
X119528162Y-97083636D01*
X119604282Y-97466319D01*
X119674152Y-97635000D01*
X119706563Y-97713248D01*
X119923336Y-98037672D01*
X120112328Y-98226664D01*
X120436751Y-98443437D01*
X120539032Y-98485803D01*
X120683681Y-98545718D01*
X121066364Y-98621838D01*
X121333636Y-98621838D01*
X121716319Y-98545718D01*
X121963248Y-98443437D01*
X121963249Y-98443436D01*
X122287672Y-98226664D01*
X122476664Y-98037672D01*
X122693437Y-97713249D01*
X122735803Y-97610968D01*
X122795718Y-97466319D01*
X122871838Y-97083636D01*
X122871838Y-97016170D01*
X122885000Y-96950000D01*
X122885000Y-81950000D01*
X122871838Y-81883830D01*
X122871838Y-81816364D01*
X122795718Y-81433681D01*
X122715594Y-81240243D01*
X122693437Y-81186751D01*
X122476664Y-80862328D01*
X122287672Y-80673336D01*
X121963248Y-80456563D01*
X121947403Y-80450000D01*
X121716319Y-80354282D01*
X121333636Y-80278162D01*
X121066364Y-80278162D01*
X120683681Y-80354282D01*
X120539032Y-80414197D01*
X120436751Y-80456563D01*
X120112328Y-80673336D01*
X119923336Y-80862328D01*
X119706564Y-81186751D01*
X119706563Y-81186752D01*
X119604282Y-81433681D01*
X119528162Y-81816364D01*
X119528162Y-81883830D01*
X119515000Y-81950000D01*
X111543628Y-81950000D01*
X111611045Y-81888421D01*
X111687401Y-81837401D01*
X111719512Y-81789344D01*
X111762185Y-81750365D01*
X111801127Y-81667197D01*
X111852148Y-81590839D01*
X111863424Y-81534153D01*
X111887933Y-81481809D01*
X111892084Y-81390071D01*
X111910000Y-81300000D01*
X111910000Y-77040000D01*
X133231009Y-77040000D01*
X133363078Y-77703956D01*
X133739179Y-78266830D01*
X134302053Y-78642931D01*
X134966009Y-78775000D01*
X135033991Y-78775000D01*
X135697947Y-78642931D01*
X136260821Y-78266830D01*
X136636922Y-77703956D01*
X136768991Y-77040000D01*
X136636922Y-76376044D01*
X136390611Y-76007414D01*
X136538327Y-75859699D01*
X136635000Y-75626310D01*
X136635000Y-74785750D01*
X136476250Y-74627000D01*
X135127000Y-74627000D01*
X135127000Y-74647000D01*
X134873000Y-74647000D01*
X134873000Y-74627000D01*
X133523750Y-74627000D01*
X133365000Y-74785750D01*
X133365000Y-75626310D01*
X133461673Y-75859699D01*
X133609389Y-76007414D01*
X133363078Y-76376044D01*
X133231009Y-77040000D01*
X111910000Y-77040000D01*
X111910000Y-73373690D01*
X133365000Y-73373690D01*
X133365000Y-74214250D01*
X133523750Y-74373000D01*
X134873000Y-74373000D01*
X134873000Y-73023750D01*
X135127000Y-73023750D01*
X135127000Y-74373000D01*
X136476250Y-74373000D01*
X136635000Y-74214250D01*
X136635000Y-73373690D01*
X136538327Y-73140301D01*
X136359698Y-72961673D01*
X136126309Y-72865000D01*
X135285750Y-72865000D01*
X135127000Y-73023750D01*
X134873000Y-73023750D01*
X134714250Y-72865000D01*
X133873691Y-72865000D01*
X133640302Y-72961673D01*
X133461673Y-73140301D01*
X133365000Y-73373690D01*
X111910000Y-73373690D01*
X111910000Y-72460879D01*
X112140900Y-72556757D01*
X112696661Y-72557242D01*
X113210303Y-72345010D01*
X113603629Y-71952370D01*
X113689949Y-71744488D01*
X113774990Y-71950303D01*
X114167630Y-72343629D01*
X114680900Y-72556757D01*
X115236661Y-72557242D01*
X115750303Y-72345010D01*
X116143629Y-71952370D01*
X116229949Y-71744488D01*
X116314990Y-71950303D01*
X116707630Y-72343629D01*
X117220900Y-72556757D01*
X117776661Y-72557242D01*
X118290303Y-72345010D01*
X118683629Y-71952370D01*
X118896757Y-71439100D01*
X118897242Y-70883339D01*
X118685010Y-70369697D01*
X118468312Y-70152621D01*
X118514698Y-70121627D01*
X118825767Y-69656080D01*
X118935000Y-69106929D01*
X118935000Y-68133071D01*
X118825767Y-67583920D01*
X118514698Y-67118373D01*
X118049151Y-66807304D01*
X117500000Y-66698071D01*
X116950849Y-66807304D01*
X116485302Y-67118373D01*
X116230000Y-67500459D01*
X115974698Y-67118373D01*
X115509151Y-66807304D01*
X114960000Y-66698071D01*
X114410849Y-66807304D01*
X113945302Y-67118373D01*
X113690000Y-67500459D01*
X113434698Y-67118373D01*
X112969151Y-66807304D01*
X112420000Y-66698071D01*
X111910000Y-66799516D01*
X111910000Y-66000000D01*
X111886616Y-65882443D01*
X111872254Y-65763468D01*
X111857869Y-65737920D01*
X111852148Y-65709161D01*
X111785563Y-65609510D01*
X111726760Y-65505078D01*
X110640000Y-64238618D01*
X110640000Y-62671811D01*
X110894698Y-62501627D01*
X111150000Y-62119541D01*
X111405302Y-62501627D01*
X111660415Y-62672089D01*
X111717852Y-62960839D01*
X111882599Y-63207401D01*
X112962599Y-64287401D01*
X113209161Y-64452148D01*
X113500000Y-64510000D01*
X121011852Y-64510000D01*
X120950262Y-64658325D01*
X120949738Y-65259040D01*
X121179138Y-65814229D01*
X121594536Y-66230353D01*
X121180630Y-66643537D01*
X120950262Y-67198325D01*
X120949738Y-67799040D01*
X121179138Y-68354229D01*
X121603537Y-68779370D01*
X122158325Y-69009738D01*
X122759040Y-69010262D01*
X123314229Y-68780862D01*
X123730353Y-68365464D01*
X124143537Y-68779370D01*
X124240000Y-68819425D01*
X124240000Y-69500000D01*
X124297852Y-69790839D01*
X124462599Y-70037401D01*
X124962599Y-70537401D01*
X125209161Y-70702148D01*
X125500000Y-70760000D01*
X132500000Y-70760000D01*
X132790839Y-70702148D01*
X133037401Y-70537401D01*
X136818298Y-66756504D01*
X137077954Y-66930000D01*
X136775237Y-67132269D01*
X136447910Y-67622148D01*
X136332968Y-68200000D01*
X136447910Y-68777852D01*
X136775237Y-69267731D01*
X137265116Y-69595058D01*
X137842968Y-69710000D01*
X138157032Y-69710000D01*
X138734884Y-69595058D01*
X139224763Y-69267731D01*
X139334663Y-69103254D01*
X139315783Y-78845204D01*
X135716004Y-81965013D01*
X135465323Y-81964794D01*
X135029628Y-82144820D01*
X134695991Y-82477875D01*
X134515206Y-82913255D01*
X134514794Y-83384677D01*
X134694820Y-83820372D01*
X135027875Y-84154009D01*
X135463255Y-84334794D01*
X135934677Y-84335206D01*
X136370372Y-84155180D01*
X136704009Y-83822125D01*
X136884794Y-83386745D01*
X136884875Y-83294226D01*
X140515000Y-80148117D01*
X140515000Y-93248999D01*
X140299991Y-93464008D01*
X139778298Y-93729824D01*
X139190008Y-93823000D01*
X137178427Y-93823000D01*
X137153651Y-93825440D01*
X136388284Y-93977681D01*
X136342503Y-93996644D01*
X135693657Y-94430189D01*
X135674411Y-94445983D01*
X134645983Y-95474411D01*
X134635030Y-95486901D01*
X134317193Y-95901114D01*
X134300616Y-95929826D01*
X134100815Y-96412188D01*
X134092234Y-96444212D01*
X134024086Y-96961850D01*
X134023000Y-96978427D01*
X134023000Y-98940008D01*
X133929824Y-99528298D01*
X133664008Y-100049991D01*
X133448999Y-100265000D01*
X132100180Y-100265000D01*
X132151000Y-100142309D01*
X132151000Y-99285750D01*
X131992250Y-99127000D01*
X130627000Y-99127000D01*
X130627000Y-99147000D01*
X130373000Y-99147000D01*
X130373000Y-99127000D01*
X130353000Y-99127000D01*
X130353000Y-98873000D01*
X130373000Y-98873000D01*
X130373000Y-97507750D01*
X130627000Y-97507750D01*
X130627000Y-98873000D01*
X131992250Y-98873000D01*
X132151000Y-98714250D01*
X132151000Y-97857691D01*
X132054327Y-97624302D01*
X131875699Y-97445673D01*
X131642310Y-97349000D01*
X130785750Y-97349000D01*
X130627000Y-97507750D01*
X130373000Y-97507750D01*
X130214250Y-97349000D01*
X129357690Y-97349000D01*
X129124301Y-97445673D01*
X128945673Y-97624302D01*
X128928001Y-97666966D01*
X128591810Y-97442330D01*
X127960000Y-97316655D01*
X127328190Y-97442330D01*
X126792567Y-97800222D01*
X126434675Y-98335845D01*
X126309000Y-98967655D01*
X126309000Y-99032345D01*
X126434675Y-99664155D01*
X126792567Y-100199778D01*
X126890179Y-100265000D01*
X117600180Y-100265000D01*
X117651000Y-100142309D01*
X117651000Y-99285750D01*
X117492250Y-99127000D01*
X116127000Y-99127000D01*
X116127000Y-99147000D01*
X115873000Y-99147000D01*
X115873000Y-99127000D01*
X115853000Y-99127000D01*
X115853000Y-98873000D01*
X115873000Y-98873000D01*
X115873000Y-97507750D01*
X116127000Y-97507750D01*
X116127000Y-98873000D01*
X117492250Y-98873000D01*
X117651000Y-98714250D01*
X117651000Y-97857691D01*
X117554327Y-97624302D01*
X117375699Y-97445673D01*
X117142310Y-97349000D01*
X116285750Y-97349000D01*
X116127000Y-97507750D01*
X115873000Y-97507750D01*
X115714250Y-97349000D01*
X114857690Y-97349000D01*
X114624301Y-97445673D01*
X114445673Y-97624302D01*
X114428001Y-97666966D01*
X114091810Y-97442330D01*
X113460000Y-97316655D01*
X112828190Y-97442330D01*
X112292567Y-97800222D01*
X111934675Y-98335845D01*
X111809000Y-98967655D01*
X111809000Y-99032345D01*
X111934675Y-99664155D01*
X112292567Y-100199778D01*
X112390179Y-100265000D01*
X84001001Y-100265000D01*
X83785992Y-100049991D01*
X83520176Y-99528298D01*
X83427000Y-98940008D01*
X83427000Y-97128427D01*
X83425914Y-97111850D01*
X83357766Y-96594212D01*
X83349185Y-96562188D01*
X83149384Y-96079826D01*
X83132807Y-96051114D01*
X82814970Y-95636901D01*
X82804017Y-95624411D01*
X81675589Y-94495983D01*
X81663099Y-94485030D01*
X81248886Y-94167193D01*
X81220174Y-94150616D01*
X80737812Y-93950815D01*
X80705788Y-93942234D01*
X80188150Y-93874086D01*
X80171573Y-93873000D01*
X78209992Y-93873000D01*
X77621702Y-93779824D01*
X77100009Y-93514008D01*
X76885000Y-93298999D01*
X76885000Y-82517466D01*
X76921376Y-82334591D01*
X76986751Y-82236750D01*
X77084590Y-82171376D01*
X77267466Y-82135000D01*
X80200000Y-82135000D01*
X80266170Y-82121838D01*
X80333636Y-82121838D01*
X80716319Y-82045718D01*
X80963248Y-81943437D01*
X80963249Y-81943436D01*
X81287672Y-81726664D01*
X81476664Y-81537672D01*
X81693437Y-81213249D01*
X81747123Y-81083637D01*
X81795718Y-80966319D01*
X81871838Y-80583636D01*
X81871838Y-80516170D01*
X81885000Y-80450000D01*
X81885000Y-74373305D01*
X96614674Y-74373305D01*
X96901043Y-75066372D01*
X97430839Y-75597093D01*
X98123405Y-75884672D01*
X98873305Y-75885326D01*
X99566372Y-75598957D01*
X100097093Y-75069161D01*
X100384672Y-74376595D01*
X100385326Y-73626695D01*
X100098957Y-72933628D01*
X99569161Y-72402907D01*
X98876595Y-72115328D01*
X98126695Y-72114674D01*
X97433628Y-72401043D01*
X96902907Y-72930839D01*
X96615328Y-73623405D01*
X96614674Y-74373305D01*
X81885000Y-74373305D01*
X81885000Y-68133071D01*
X83045000Y-68133071D01*
X83045000Y-69106929D01*
X83154233Y-69656080D01*
X83465302Y-70121627D01*
X83930849Y-70432696D01*
X84480000Y-70541929D01*
X85029151Y-70432696D01*
X85494698Y-70121627D01*
X85750000Y-69739541D01*
X86005302Y-70121627D01*
X86470849Y-70432696D01*
X87020000Y-70541929D01*
X87569151Y-70432696D01*
X88034698Y-70121627D01*
X88290000Y-69739541D01*
X88545302Y-70121627D01*
X89010849Y-70432696D01*
X89560000Y-70541929D01*
X90109151Y-70432696D01*
X90574698Y-70121627D01*
X90830000Y-69739541D01*
X91085302Y-70121627D01*
X91550849Y-70432696D01*
X92100000Y-70541929D01*
X92649151Y-70432696D01*
X93114698Y-70121627D01*
X93370000Y-69739541D01*
X93625302Y-70121627D01*
X94090849Y-70432696D01*
X94640000Y-70541929D01*
X95189151Y-70432696D01*
X95654698Y-70121627D01*
X95910000Y-69739541D01*
X96165302Y-70121627D01*
X96630849Y-70432696D01*
X97180000Y-70541929D01*
X97729151Y-70432696D01*
X98194698Y-70121627D01*
X98450000Y-69739541D01*
X98705302Y-70121627D01*
X99170849Y-70432696D01*
X99720000Y-70541929D01*
X100269151Y-70432696D01*
X100734698Y-70121627D01*
X100987864Y-69742738D01*
X101335104Y-70174500D01*
X101828181Y-70444367D01*
X101910961Y-70461904D01*
X102133000Y-70339915D01*
X102133000Y-68747000D01*
X102113000Y-68747000D01*
X102113000Y-68493000D01*
X102133000Y-68493000D01*
X102133000Y-66900085D01*
X101910961Y-66778096D01*
X101828181Y-66795633D01*
X101335104Y-67065500D01*
X100987864Y-67497262D01*
X100734698Y-67118373D01*
X100269151Y-66807304D01*
X99720000Y-66698071D01*
X99170849Y-66807304D01*
X98705302Y-67118373D01*
X98450000Y-67500459D01*
X98194698Y-67118373D01*
X97729151Y-66807304D01*
X97180000Y-66698071D01*
X96630849Y-66807304D01*
X96165302Y-67118373D01*
X95910000Y-67500459D01*
X95654698Y-67118373D01*
X95189151Y-66807304D01*
X94640000Y-66698071D01*
X94090849Y-66807304D01*
X93625302Y-67118373D01*
X93370000Y-67500459D01*
X93114698Y-67118373D01*
X92649151Y-66807304D01*
X92100000Y-66698071D01*
X91550849Y-66807304D01*
X91085302Y-67118373D01*
X90830000Y-67500459D01*
X90574698Y-67118373D01*
X90109151Y-66807304D01*
X89560000Y-66698071D01*
X89010849Y-66807304D01*
X88545302Y-67118373D01*
X88290000Y-67500459D01*
X88034698Y-67118373D01*
X87569151Y-66807304D01*
X87020000Y-66698071D01*
X86470849Y-66807304D01*
X86005302Y-67118373D01*
X85750000Y-67500459D01*
X85494698Y-67118373D01*
X85029151Y-66807304D01*
X84480000Y-66698071D01*
X83930849Y-66807304D01*
X83465302Y-67118373D01*
X83154233Y-67583920D01*
X83045000Y-68133071D01*
X81885000Y-68133071D01*
X81885000Y-65450000D01*
X81871838Y-65383830D01*
X81871838Y-65316364D01*
X81795718Y-64933681D01*
X81709969Y-64726663D01*
X81693437Y-64686751D01*
X81476664Y-64362328D01*
X81287672Y-64173336D01*
X80963248Y-63956563D01*
X80909664Y-63934368D01*
X80716319Y-63854282D01*
X80333636Y-63778162D01*
X80266170Y-63778162D01*
X80200000Y-63765000D01*
X77267466Y-63765000D01*
X77084590Y-63728624D01*
X76986751Y-63663250D01*
X76921376Y-63565409D01*
X76885000Y-63382534D01*
X76885000Y-60513071D01*
X83045000Y-60513071D01*
X83045000Y-61486929D01*
X83154233Y-62036080D01*
X83465302Y-62501627D01*
X83930849Y-62812696D01*
X84480000Y-62921929D01*
X85029151Y-62812696D01*
X85494698Y-62501627D01*
X85750000Y-62119541D01*
X86005302Y-62501627D01*
X86470849Y-62812696D01*
X87020000Y-62921929D01*
X87569151Y-62812696D01*
X88034698Y-62501627D01*
X88290000Y-62119541D01*
X88545302Y-62501627D01*
X89010849Y-62812696D01*
X89560000Y-62921929D01*
X90109151Y-62812696D01*
X90574698Y-62501627D01*
X90830000Y-62119541D01*
X91085302Y-62501627D01*
X91550849Y-62812696D01*
X92100000Y-62921929D01*
X92649151Y-62812696D01*
X93114698Y-62501627D01*
X93370000Y-62119541D01*
X93625302Y-62501627D01*
X94090849Y-62812696D01*
X94640000Y-62921929D01*
X95189151Y-62812696D01*
X95654698Y-62501627D01*
X95910000Y-62119541D01*
X96165302Y-62501627D01*
X96630849Y-62812696D01*
X97180000Y-62921929D01*
X97729151Y-62812696D01*
X98194698Y-62501627D01*
X98447864Y-62122738D01*
X98795104Y-62554500D01*
X99288181Y-62824367D01*
X99370961Y-62841904D01*
X99593000Y-62719915D01*
X99593000Y-61127000D01*
X99573000Y-61127000D01*
X99573000Y-60873000D01*
X99593000Y-60873000D01*
X99593000Y-59280085D01*
X99370961Y-59158096D01*
X99288181Y-59175633D01*
X98795104Y-59445500D01*
X98447864Y-59877262D01*
X98194698Y-59498373D01*
X97729151Y-59187304D01*
X97180000Y-59078071D01*
X96630849Y-59187304D01*
X96165302Y-59498373D01*
X95910000Y-59880459D01*
X95654698Y-59498373D01*
X95189151Y-59187304D01*
X94640000Y-59078071D01*
X94090849Y-59187304D01*
X93625302Y-59498373D01*
X93370000Y-59880459D01*
X93114698Y-59498373D01*
X92649151Y-59187304D01*
X92100000Y-59078071D01*
X91550849Y-59187304D01*
X91085302Y-59498373D01*
X90830000Y-59880459D01*
X90574698Y-59498373D01*
X90109151Y-59187304D01*
X89560000Y-59078071D01*
X89010849Y-59187304D01*
X88545302Y-59498373D01*
X88290000Y-59880459D01*
X88034698Y-59498373D01*
X87569151Y-59187304D01*
X87020000Y-59078071D01*
X86470849Y-59187304D01*
X86005302Y-59498373D01*
X85750000Y-59880459D01*
X85494698Y-59498373D01*
X85029151Y-59187304D01*
X84480000Y-59078071D01*
X83930849Y-59187304D01*
X83465302Y-59498373D01*
X83154233Y-59963920D01*
X83045000Y-60513071D01*
X76885000Y-60513071D01*
X76885000Y-53265000D01*
X86878690Y-53265000D01*
X86878690Y-56335000D01*
X98521310Y-56335000D01*
X98521310Y-53265000D01*
X86878690Y-53265000D01*
X76885000Y-53265000D01*
X76885000Y-50087544D01*
X76962687Y-50275561D01*
X77869664Y-51184123D01*
X79055294Y-51676439D01*
X79714966Y-51677015D01*
X80032345Y-51990373D01*
X80074535Y-52017968D01*
X80138150Y-52025914D01*
X80655788Y-51957766D01*
X80687812Y-51949185D01*
X81170174Y-51749384D01*
X81198886Y-51732807D01*
X81613099Y-51414970D01*
X81625589Y-51404017D01*
X82939803Y-50089803D01*
X82967666Y-50047789D01*
X82968609Y-50042777D01*
X82976887Y-50040917D01*
X83025755Y-50002313D01*
X83039320Y-49984635D01*
X83055898Y-49955923D01*
X83064425Y-49935337D01*
X83073006Y-49903311D01*
X83075914Y-49881220D01*
X83077000Y-49864645D01*
X83077000Y-47401329D01*
X83452207Y-47401329D01*
X83621992Y-47812242D01*
X83936104Y-48126903D01*
X84316144Y-48284710D01*
X84315855Y-48615766D01*
X83937758Y-48771992D01*
X83623097Y-49086104D01*
X83452594Y-49496720D01*
X83452207Y-49941329D01*
X83621992Y-50352242D01*
X83936104Y-50666903D01*
X84346720Y-50837406D01*
X84791329Y-50837793D01*
X85202242Y-50668008D01*
X85516903Y-50353896D01*
X85674710Y-49973856D01*
X86005766Y-49974145D01*
X86161992Y-50352242D01*
X86476104Y-50666903D01*
X86886720Y-50837406D01*
X87331329Y-50837793D01*
X87742242Y-50668008D01*
X88056903Y-50353896D01*
X88227406Y-49943280D01*
X88227793Y-49498671D01*
X88058008Y-49087758D01*
X87743896Y-48773097D01*
X87363856Y-48615290D01*
X87364145Y-48284234D01*
X87742242Y-48128008D01*
X88056903Y-47813896D01*
X88227406Y-47403280D01*
X88227793Y-46958671D01*
X88058008Y-46547758D01*
X87743896Y-46233097D01*
X87333280Y-46062594D01*
X86888671Y-46062207D01*
X86477758Y-46231992D01*
X86163097Y-46546104D01*
X86005290Y-46926144D01*
X85674234Y-46925855D01*
X85518008Y-46547758D01*
X85203896Y-46233097D01*
X84793280Y-46062594D01*
X84348671Y-46062207D01*
X83937758Y-46231992D01*
X83623097Y-46546104D01*
X83452594Y-46956720D01*
X83452207Y-47401329D01*
X83077000Y-47401329D01*
X83077000Y-46459992D01*
X83170176Y-45871702D01*
X83435992Y-45350009D01*
X83651001Y-45135000D01*
X133748999Y-45135000D01*
X133964008Y-45350009D01*
M02*
