M48
;DRILL file {KiCad 4.0.2-4+6225~38~ubuntu14.04.1-stable} date Fri 06 May 2016 01:00:37 BST
;FORMAT={-:-/ absolute / metric / decimal}
FMAT,2
METRIC,TZ
T1C0.762
T2C0.800
T3C1.000
T4C1.016
T5C0.965
T6C1.778
T7C2.750
%
G90
G05
M71
T1
X104.8Y-71.16
X107.34Y-71.16
X109.88Y-71.16
X112.42Y-71.16
X114.96Y-71.16
X117.5Y-71.16
T2
X82.65Y-88.75
X88.35Y-48.5
X90.9Y-47.95
X93.45Y-47.6
X103.45Y-89.95
X104.7Y-85.2
X108.6Y-52.85
X116.2Y-52.85
X116.85Y-56.85
X118.5Y-59.
X120.1Y-53.
X120.1Y-59.
X121.7Y-59.
X122.6Y-55.85
X125.Y-93.85
X127.2Y-58.85
X130.6Y-59.85
X131.Y-64.85
X131.65Y-58.
X134.6Y-59.4
X135.7Y-83.15
X137.6Y-89.85
T3
X84.48Y-61.
X84.48Y-68.62
X87.02Y-61.
X87.02Y-68.62
X89.56Y-61.
X89.56Y-68.62
X92.1Y-61.
X92.1Y-68.62
X94.64Y-61.
X94.64Y-68.62
X97.18Y-61.
X97.18Y-68.62
X98.5Y-74.
X99.72Y-61.
X99.72Y-68.62
X102.26Y-61.
X102.26Y-68.62
X104.8Y-61.
X104.8Y-68.62
X107.34Y-61.
X107.34Y-68.62
X109.88Y-61.
X109.88Y-68.62
X112.42Y-61.
X112.42Y-68.62
X114.96Y-61.
X114.96Y-68.62
X117.5Y-61.
X117.5Y-68.62
X122.46Y-62.42
X122.46Y-64.96
X122.46Y-67.5
X125.Y-62.42
X125.Y-64.96
X125.Y-67.5
X128.5Y-62.42
X128.5Y-64.96
X128.5Y-67.5
X135.Y-74.5
X135.Y-77.04
X138.Y-55.5
X138.Y-58.04
X138.Y-60.58
X138.Y-63.12
X138.Y-65.66
X138.Y-68.2
T4
X113.46Y-99.
X116.Y-99.
X127.96Y-99.
X130.5Y-99.
T5
X84.57Y-47.18
X84.57Y-49.72
X87.11Y-47.18
X87.11Y-49.72
X89.65Y-47.18
X89.65Y-49.72
X92.19Y-47.18
X92.19Y-49.72
X94.73Y-47.18
X94.73Y-49.72
X97.27Y-47.18
X97.27Y-49.72
X99.81Y-47.18
X99.81Y-49.72
X102.35Y-47.18
X102.35Y-49.72
X104.89Y-47.18
X104.89Y-49.72
X107.43Y-47.18
X107.43Y-49.72
X109.97Y-47.18
X109.97Y-49.72
X112.51Y-47.18
X112.51Y-49.72
X115.05Y-47.18
X115.05Y-49.72
X117.59Y-47.18
X117.59Y-49.72
X120.13Y-47.18
X120.13Y-49.72
X122.67Y-47.18
X122.67Y-49.72
X125.21Y-47.18
X125.21Y-49.72
X127.75Y-47.18
X127.75Y-49.72
X130.29Y-47.18
X130.29Y-49.72
X132.83Y-47.18
X132.83Y-49.72
T6
X85.84Y-48.45
X131.56Y-48.45
T7
X79.7Y-48.45
X79.7Y-97.45
X137.7Y-48.45
X137.7Y-97.45
T0
M30
