G04 #@! TF.FileFunction,Soldermask,Bot*
%FSLAX46Y46*%
G04 Gerber Fmt 4.6, Leading zero omitted, Abs format (unit mm)*
G04 Created by KiCad (PCBNEW 4.0.4+e1-6308~48~ubuntu14.04.1-stable) date Thu Jan 12 15:11:12 2017*
%MOMM*%
%LPD*%
G01*
G04 APERTURE LIST*
%ADD10C,0.100000*%
%ADD11R,1.200000X3.000000*%
%ADD12C,6.200000*%
%ADD13R,2.032000X1.727200*%
%ADD14O,2.032000X1.727200*%
%ADD15R,2.032000X2.032000*%
%ADD16O,2.032000X2.032000*%
%ADD17R,2.500000X2.500000*%
%ADD18C,2.500000*%
%ADD19R,2.235200X2.235200*%
%ADD20C,1.750000*%
%ADD21R,1.750000X1.750000*%
%ADD22C,1.500000*%
%ADD23R,0.889000X1.676400*%
%ADD24O,1.200000X1.400000*%
%ADD25C,1.778000*%
%ADD26R,1.750000X1.600000*%
%ADD27O,1.750000X1.600000*%
G04 APERTURE END LIST*
D10*
D11*
X99800000Y-94550000D03*
X97800000Y-94550000D03*
X95800000Y-94550000D03*
X93800000Y-94550000D03*
X91800000Y-94550000D03*
X89800000Y-94550000D03*
X87800000Y-94550000D03*
X85800000Y-94550000D03*
X85800000Y-75850000D03*
X87800000Y-75850000D03*
X89800000Y-75850000D03*
X91800000Y-75850000D03*
X93800000Y-75850000D03*
X95800000Y-75850000D03*
X97800000Y-75850000D03*
X99800000Y-75850000D03*
D12*
X137700000Y-48450000D03*
X137700000Y-97450000D03*
X79700000Y-97450000D03*
X79700000Y-48450000D03*
D13*
X138400000Y-55650000D03*
D14*
X138400000Y-58190000D03*
X138400000Y-60730000D03*
X138400000Y-63270000D03*
X138400000Y-65810000D03*
X138400000Y-68350000D03*
D15*
X118400000Y-99250000D03*
D16*
X115860000Y-99250000D03*
D15*
X129600000Y-99250000D03*
D16*
X127060000Y-99250000D03*
D17*
X135800000Y-73910000D03*
D18*
X135800000Y-78990000D03*
D19*
X80400000Y-88250000D03*
D20*
X79000000Y-56050000D03*
X81540000Y-56050000D03*
X79000000Y-58590000D03*
X81540000Y-58590000D03*
X79000000Y-61130000D03*
D21*
X81540000Y-61130000D03*
D22*
X117350000Y-68250000D03*
X117350000Y-66250000D03*
X117350000Y-64250000D03*
X117350000Y-62250000D03*
X117350000Y-60250000D03*
X117350000Y-58250000D03*
X119850000Y-68250000D03*
X119850000Y-66250000D03*
X119850000Y-64250000D03*
X119850000Y-62250000D03*
X119850000Y-60250000D03*
X119850000Y-58250000D03*
D23*
X99810000Y-45732200D03*
X104890000Y-45732200D03*
X107430000Y-45732200D03*
X109970000Y-45732200D03*
X112510000Y-45732200D03*
X115050000Y-45732200D03*
X117590000Y-45732200D03*
X120130000Y-45732200D03*
X122670000Y-45732200D03*
X125210000Y-45732200D03*
X127750000Y-45732200D03*
X130290000Y-45732200D03*
X132830000Y-45732200D03*
X132830000Y-51167800D03*
X130290000Y-51167800D03*
X127750000Y-51167800D03*
X125210000Y-51167800D03*
X122670000Y-51167800D03*
X120130000Y-51167800D03*
X117590000Y-51167800D03*
X115050000Y-51167800D03*
X112510000Y-51167800D03*
X109970000Y-51167800D03*
X107430000Y-51167800D03*
X104890000Y-51167800D03*
X102350000Y-51167800D03*
X99810000Y-51167800D03*
X84570000Y-45732200D03*
X87110000Y-45732200D03*
X89650000Y-45732200D03*
X92190000Y-45732200D03*
X94730000Y-45732200D03*
X97270000Y-45732200D03*
X97270000Y-51167800D03*
X92190000Y-51167800D03*
X89650000Y-51167800D03*
X87110000Y-51167800D03*
X102350000Y-45732200D03*
X84570000Y-51167800D03*
D24*
X112510000Y-49920000D03*
X109970000Y-49920000D03*
X115050000Y-49920000D03*
X117590000Y-49920000D03*
X127750000Y-49920000D03*
X125210000Y-49920000D03*
X120130000Y-49920000D03*
X122670000Y-49920000D03*
X130290000Y-49920000D03*
X132830000Y-49920000D03*
X107430000Y-49920000D03*
X104890000Y-49920000D03*
X97270000Y-49920000D03*
X94730000Y-49920000D03*
X99810000Y-49920000D03*
X102350000Y-49920000D03*
X92190000Y-49920000D03*
X89650000Y-49920000D03*
X84570000Y-49920000D03*
X87110000Y-49920000D03*
X87110000Y-46980000D03*
X84570000Y-46980000D03*
X89650000Y-46980000D03*
X92190000Y-46980000D03*
X102350000Y-46980000D03*
X99810000Y-46980000D03*
X94730000Y-46980000D03*
X97270000Y-46980000D03*
X104890000Y-46980000D03*
X107430000Y-46980000D03*
X132830000Y-46980000D03*
X130290000Y-46980000D03*
X122670000Y-46980000D03*
X120130000Y-46980000D03*
X125210000Y-46980000D03*
X127750000Y-46980000D03*
X117590000Y-46980000D03*
X115050000Y-46980000D03*
X109970000Y-46980000D03*
X112510000Y-46980000D03*
D23*
X94730000Y-51167800D03*
D25*
X85840000Y-48450000D03*
X131560000Y-48450000D03*
D26*
X104800000Y-84050000D03*
D27*
X107340000Y-84050000D03*
X109880000Y-84050000D03*
D26*
X104800000Y-86650000D03*
D27*
X107340000Y-86650000D03*
X109880000Y-86650000D03*
D26*
X104800000Y-89250000D03*
D27*
X107340000Y-89250000D03*
X109880000Y-89250000D03*
D26*
X104800000Y-91850000D03*
D27*
X107340000Y-91850000D03*
X109880000Y-91850000D03*
D26*
X104800000Y-94450000D03*
D27*
X107340000Y-94450000D03*
X109880000Y-94450000D03*
D26*
X104800000Y-97050000D03*
D27*
X107340000Y-97050000D03*
X109880000Y-97050000D03*
D26*
X104800000Y-81450000D03*
D27*
X107340000Y-81450000D03*
X109880000Y-81450000D03*
M02*
