M48
;DRILL file {KiCad 4.0.0-rc1-stable} date Tue 06 Oct 2015 13:37:16 BST
;FORMAT={-:-/ absolute / metric / decimal}
FMAT,2
METRIC,TZ
T1C0.762
T2C1.000
T3C1.016
%
G90
G05
M71
T1
X104.8Y-71.16
X107.34Y-71.16
X109.88Y-71.16
X112.42Y-71.16
X114.96Y-71.16
X117.5Y-71.16
T2
X82.65Y-88.75
X84.48Y-61.
X84.48Y-68.62
X87.02Y-61.
X87.02Y-68.62
X88.35Y-48.5
X89.56Y-61.
X89.56Y-68.62
X90.9Y-47.95
X92.1Y-61.
X92.1Y-68.62
X93.45Y-47.6
X94.64Y-61.
X94.64Y-68.62
X97.18Y-61.
X97.18Y-68.62
X98.5Y-74.
X99.72Y-61.
X99.72Y-68.62
X102.26Y-61.
X102.26Y-68.62
X103.45Y-89.95
X104.7Y-85.2
X104.8Y-61.
X104.8Y-68.62
X107.34Y-61.
X107.34Y-68.62
X108.9Y-53.2
X109.88Y-61.
X109.88Y-68.62
X112.42Y-61.
X112.42Y-68.62
X114.96Y-61.
X114.96Y-68.62
X116.85Y-56.85
X116.9Y-53.2
X117.5Y-61.
X117.5Y-68.62
X118.5Y-59.
X120.1Y-53.
X120.1Y-59.
X121.7Y-59.
X122.46Y-62.42
X122.46Y-64.96
X122.46Y-67.5
X125.Y-62.42
X125.Y-64.96
X125.Y-67.5
X128.5Y-62.42
X128.5Y-64.96
X128.5Y-67.5
X131.Y-64.95
X131.65Y-58.
X134.6Y-59.4
X135.Y-74.5
X135.Y-77.04
X135.7Y-83.15
X137.95Y-88.55
X138.Y-55.5
X138.Y-58.04
X138.Y-60.58
X138.Y-63.12
X138.Y-65.66
X138.Y-68.2
T3
X113.46Y-99.
X116.Y-99.
X127.96Y-99.
X130.5Y-99.
T0
M30
