G04 #@! TF.FileFunction,Soldermask,Top*
%FSLAX46Y46*%
G04 Gerber Fmt 4.6, Leading zero omitted, Abs format (unit mm)*
G04 Created by KiCad (PCBNEW 4.0.4+e1-6308~48~ubuntu14.04.1-stable) date Thu Jan 12 15:11:12 2017*
%MOMM*%
%LPD*%
G01*
G04 APERTURE LIST*
%ADD10C,0.100000*%
%ADD11R,0.550000X1.600000*%
%ADD12R,1.600000X0.550000*%
%ADD13C,6.200000*%
%ADD14R,1.250000X1.500000*%
%ADD15R,1.600000X2.000000*%
%ADD16R,2.000000X1.600000*%
%ADD17R,1.500000X1.250000*%
%ADD18R,1.800860X0.800100*%
%ADD19R,0.900000X1.200000*%
%ADD20R,2.032000X1.727200*%
%ADD21O,2.032000X1.727200*%
%ADD22R,2.032000X2.032000*%
%ADD23O,2.032000X2.032000*%
%ADD24R,2.500000X2.500000*%
%ADD25C,2.500000*%
%ADD26R,2.235200X2.235200*%
%ADD27C,1.750000*%
%ADD28R,1.750000X1.750000*%
%ADD29R,1.200000X0.900000*%
%ADD30C,1.500000*%
%ADD31R,0.600000X1.500000*%
%ADD32R,1.600200X2.199640*%
%ADD33R,1.800860X1.597660*%
%ADD34R,1.000000X3.100000*%
%ADD35R,2.000000X1.000000*%
%ADD36R,0.889000X1.676400*%
%ADD37O,1.200000X1.400000*%
%ADD38C,1.778000*%
%ADD39R,2.000000X3.800000*%
%ADD40R,2.000000X1.500000*%
%ADD41R,1.750000X1.600000*%
%ADD42O,1.750000X1.600000*%
%ADD43R,1.200000X2.150000*%
G04 APERTURE END LIST*
D10*
D11*
X109600000Y-61400000D03*
X108800000Y-61400000D03*
X108000000Y-61400000D03*
X107200000Y-61400000D03*
X106400000Y-61400000D03*
X105600000Y-61400000D03*
X104800000Y-61400000D03*
X104000000Y-61400000D03*
D12*
X102550000Y-62850000D03*
X102550000Y-63650000D03*
X102550000Y-64450000D03*
X102550000Y-65250000D03*
X102550000Y-66050000D03*
X102550000Y-66850000D03*
X102550000Y-67650000D03*
X102550000Y-68450000D03*
D11*
X104000000Y-69900000D03*
X104800000Y-69900000D03*
X105600000Y-69900000D03*
X106400000Y-69900000D03*
X107200000Y-69900000D03*
X108000000Y-69900000D03*
X108800000Y-69900000D03*
X109600000Y-69900000D03*
D12*
X111050000Y-68450000D03*
X111050000Y-67650000D03*
X111050000Y-66850000D03*
X111050000Y-66050000D03*
X111050000Y-65250000D03*
X111050000Y-64450000D03*
X111050000Y-63650000D03*
X111050000Y-62850000D03*
D13*
X137700000Y-48450000D03*
X137700000Y-97450000D03*
X79700000Y-97450000D03*
X79700000Y-48450000D03*
D14*
X102600000Y-57500000D03*
X102600000Y-55000000D03*
D15*
X129400000Y-74850000D03*
X129400000Y-78850000D03*
D16*
X124000000Y-70850000D03*
X128000000Y-70850000D03*
D14*
X95800000Y-71300000D03*
X95800000Y-68800000D03*
D17*
X106550000Y-73850000D03*
X109050000Y-73850000D03*
D18*
X125348860Y-62100000D03*
X125348860Y-64000000D03*
X128351140Y-63050000D03*
D19*
X118400000Y-87950000D03*
X118400000Y-90150000D03*
D20*
X138400000Y-55650000D03*
D21*
X138400000Y-58190000D03*
X138400000Y-60730000D03*
X138400000Y-63270000D03*
X138400000Y-65810000D03*
X138400000Y-68350000D03*
D22*
X118400000Y-99250000D03*
D23*
X115860000Y-99250000D03*
D22*
X129600000Y-99250000D03*
D23*
X127060000Y-99250000D03*
D24*
X135800000Y-73910000D03*
D25*
X135800000Y-78990000D03*
D26*
X80400000Y-88250000D03*
D27*
X79000000Y-56050000D03*
X81540000Y-56050000D03*
X79000000Y-58590000D03*
X81540000Y-58590000D03*
X79000000Y-61130000D03*
D28*
X81540000Y-61130000D03*
D29*
X128100000Y-55650000D03*
X125900000Y-55650000D03*
X96100000Y-86450000D03*
X93900000Y-86450000D03*
D30*
X117350000Y-68250000D03*
X117350000Y-66250000D03*
X117350000Y-64250000D03*
X117350000Y-62250000D03*
X117350000Y-60250000D03*
X117350000Y-58250000D03*
X119850000Y-68250000D03*
X119850000Y-66250000D03*
X119850000Y-64250000D03*
X119850000Y-62250000D03*
X119850000Y-60250000D03*
X119850000Y-58250000D03*
D29*
X128150000Y-58850000D03*
X125950000Y-58850000D03*
X133300000Y-60650000D03*
X131100000Y-60650000D03*
X124100000Y-83250000D03*
X126300000Y-83250000D03*
D19*
X95800000Y-65550000D03*
X95800000Y-63350000D03*
D31*
X101800000Y-60650000D03*
X100600000Y-60650000D03*
X99400000Y-60650000D03*
D32*
X106600000Y-57751140D03*
X106600000Y-54748860D03*
D33*
X118400000Y-92730140D03*
X118400000Y-95569860D03*
D34*
X130400000Y-86400000D03*
X130400000Y-95300000D03*
X126400000Y-95300000D03*
X126400000Y-86400000D03*
X87200000Y-66700000D03*
X87200000Y-57800000D03*
X91200000Y-57800000D03*
X91200000Y-66700000D03*
D35*
X115800000Y-95050000D03*
X115800000Y-96320000D03*
D29*
X88500000Y-87650000D03*
X86300000Y-87650000D03*
X91100000Y-85450000D03*
X88900000Y-85450000D03*
X93700000Y-83050000D03*
X91500000Y-83050000D03*
D36*
X102350000Y-45732200D03*
X94730000Y-51167800D03*
X84570000Y-51167800D03*
X125210000Y-45732200D03*
X127750000Y-45732200D03*
X132830000Y-45732200D03*
X130290000Y-45732200D03*
X104890000Y-45732200D03*
X107430000Y-45732200D03*
X112510000Y-45732200D03*
X109970000Y-45732200D03*
X120130000Y-45732200D03*
X122670000Y-45732200D03*
X117590000Y-45732200D03*
X115050000Y-45732200D03*
X94730000Y-45732200D03*
X97270000Y-45732200D03*
X99810000Y-45732200D03*
X89650000Y-45732200D03*
X92190000Y-45732200D03*
X87110000Y-45732200D03*
X84570000Y-45732200D03*
X132830000Y-51167800D03*
X130290000Y-51167800D03*
X125210000Y-51167800D03*
X127750000Y-51167800D03*
X117590000Y-51167800D03*
X115050000Y-51167800D03*
X120130000Y-51167800D03*
X122670000Y-51167800D03*
X112510000Y-51167800D03*
X109970000Y-51167800D03*
X104890000Y-51167800D03*
X107430000Y-51167800D03*
X87110000Y-51167800D03*
X89650000Y-51167800D03*
X92190000Y-51167800D03*
X102350000Y-51167800D03*
X99810000Y-51167800D03*
D37*
X112510000Y-49920000D03*
X109970000Y-49920000D03*
X115050000Y-49920000D03*
X117590000Y-49920000D03*
X127750000Y-49920000D03*
X125210000Y-49920000D03*
X120130000Y-49920000D03*
X122670000Y-49920000D03*
X130290000Y-49920000D03*
X132830000Y-49920000D03*
X107430000Y-49920000D03*
X104890000Y-49920000D03*
X97270000Y-49920000D03*
X94730000Y-49920000D03*
X99810000Y-49920000D03*
X102350000Y-49920000D03*
X92190000Y-49920000D03*
X89650000Y-49920000D03*
X84570000Y-49920000D03*
X87110000Y-49920000D03*
X87110000Y-46980000D03*
X84570000Y-46980000D03*
X89650000Y-46980000D03*
X92190000Y-46980000D03*
X102350000Y-46980000D03*
X99810000Y-46980000D03*
X94730000Y-46980000D03*
X97270000Y-46980000D03*
X104890000Y-46980000D03*
X107430000Y-46980000D03*
X132830000Y-46980000D03*
X130290000Y-46980000D03*
X122670000Y-46980000D03*
X120130000Y-46980000D03*
X125210000Y-46980000D03*
X127750000Y-46980000D03*
X117590000Y-46980000D03*
X115050000Y-46980000D03*
X109970000Y-46980000D03*
X112510000Y-46980000D03*
D36*
X97270000Y-51167800D03*
D38*
X85840000Y-48450000D03*
X131560000Y-48450000D03*
D19*
X99400000Y-91950000D03*
X99400000Y-89750000D03*
X99400000Y-87350000D03*
X99400000Y-85150000D03*
D39*
X119250000Y-76450000D03*
D40*
X125550000Y-76450000D03*
X125550000Y-74150000D03*
X125550000Y-78750000D03*
D41*
X104800000Y-84050000D03*
D42*
X107340000Y-84050000D03*
X109880000Y-84050000D03*
D41*
X104800000Y-86650000D03*
D42*
X107340000Y-86650000D03*
X109880000Y-86650000D03*
D41*
X104800000Y-89250000D03*
D42*
X107340000Y-89250000D03*
X109880000Y-89250000D03*
D41*
X104800000Y-91850000D03*
D42*
X107340000Y-91850000D03*
X109880000Y-91850000D03*
D41*
X104800000Y-94450000D03*
D42*
X107340000Y-94450000D03*
X109880000Y-94450000D03*
D41*
X104800000Y-97050000D03*
D42*
X107340000Y-97050000D03*
X109880000Y-97050000D03*
D41*
X104800000Y-81450000D03*
D42*
X107340000Y-81450000D03*
X109880000Y-81450000D03*
D43*
X93810000Y-90325000D03*
X91270000Y-90325000D03*
X88730000Y-90325000D03*
X86190000Y-90325000D03*
X86190000Y-98575000D03*
X88730000Y-98575000D03*
X91270000Y-98575000D03*
X93810000Y-98575000D03*
M02*
