G04 #@! TF.FileFunction,Copper,L1,Top,Signal*
%FSLAX46Y46*%
G04 Gerber Fmt 4.6, Leading zero omitted, Abs format (unit mm)*
G04 Created by KiCad (PCBNEW 4.0.2-4+6225~38~ubuntu14.04.1-stable) date Fri 06 May 2016 01:00:32 BST*
%MOMM*%
G01*
G04 APERTURE LIST*
%ADD10C,0.100000*%
%ADD11C,0.150000*%
%ADD12R,3.100000X1.000000*%
%ADD13C,1.750000*%
%ADD14R,2.000000X1.000000*%
%ADD15R,2.000000X2.000000*%
%ADD16O,2.200000X2.200000*%
%ADD17R,2.000000X1.727200*%
%ADD18O,2.000000X1.750000*%
%ADD19C,2.000000*%
%ADD20O,1.600000X2.500000*%
%ADD21C,1.524000*%
%ADD22C,2.500000*%
%ADD23R,0.889000X1.676400*%
%ADD24R,1.600200X2.600960*%
%ADD25R,1.250000X1.500000*%
%ADD26R,2.000000X1.600000*%
%ADD27R,1.500000X1.250000*%
%ADD28R,0.750000X1.200000*%
%ADD29R,1.800860X1.597660*%
%ADD30R,2.032000X3.657600*%
%ADD31R,2.032000X1.016000*%
%ADD32R,1.200000X3.000000*%
%ADD33R,2.032000X2.032000*%
%ADD34O,2.032000X2.032000*%
%ADD35R,0.800100X1.800860*%
%ADD36R,1.300000X1.500000*%
%ADD37R,0.900000X1.200000*%
%ADD38R,1.500000X1.300000*%
%ADD39R,5.499100X1.998980*%
%ADD40C,1.200000*%
%ADD41C,0.300000*%
%ADD42C,0.200000*%
%ADD43C,0.254000*%
G04 APERTURE END LIST*
D10*
X79188095Y-86152381D02*
X79721429Y-86152381D01*
X79569048Y-86152381D02*
X79645238Y-86190476D01*
X79683333Y-86228572D01*
X79721429Y-86304762D01*
X79721429Y-86380953D01*
X79226190Y-86952381D02*
X79188095Y-86876191D01*
X79188095Y-86723810D01*
X79226190Y-86647619D01*
X79302381Y-86609524D01*
X79607143Y-86609524D01*
X79683333Y-86647619D01*
X79721429Y-86723810D01*
X79721429Y-86876191D01*
X79683333Y-86952381D01*
X79607143Y-86990476D01*
X79530952Y-86990476D01*
X79454762Y-86609524D01*
X79721429Y-87257143D02*
X79188095Y-87447619D01*
X79721429Y-87638095D01*
X79264286Y-87942857D02*
X79226190Y-87980952D01*
X79188095Y-87942857D01*
X79226190Y-87904762D01*
X79264286Y-87942857D01*
X79188095Y-87942857D01*
X79188095Y-88742857D02*
X79188095Y-88285714D01*
X79188095Y-88514285D02*
X79988095Y-88514285D01*
X79873810Y-88438095D01*
X79797619Y-88361904D01*
X79759524Y-88285714D01*
X79264286Y-89085714D02*
X79226190Y-89123809D01*
X79188095Y-89085714D01*
X79226190Y-89047619D01*
X79264286Y-89085714D01*
X79188095Y-89085714D01*
X79911905Y-89428571D02*
X79950000Y-89466666D01*
X79988095Y-89542857D01*
X79988095Y-89733333D01*
X79950000Y-89809523D01*
X79911905Y-89847619D01*
X79835714Y-89885714D01*
X79759524Y-89885714D01*
X79645238Y-89847619D01*
X79188095Y-89390476D01*
X79188095Y-89885714D01*
D11*
X116000000Y-85700000D02*
X116000000Y-84430000D01*
D12*
X134100000Y-90950000D03*
X125200000Y-90950000D03*
X125200000Y-86950000D03*
X134100000Y-86950000D03*
D13*
X125000000Y-67500000D03*
X122460000Y-67500000D03*
X125000000Y-64960000D03*
X122460000Y-64960000D03*
X125000000Y-62420000D03*
X122460000Y-62420000D03*
D14*
X116000000Y-85700000D03*
X116000000Y-84430000D03*
D15*
X135000000Y-74500000D03*
D16*
X135000000Y-77040000D03*
D17*
X138000000Y-55500000D03*
D18*
X138000000Y-58040000D03*
X138000000Y-60580000D03*
X138000000Y-63120000D03*
X138000000Y-65660000D03*
X138000000Y-68200000D03*
D19*
X128500000Y-67500000D03*
X128500000Y-64960000D03*
X128500000Y-62420000D03*
D20*
X117500000Y-61000000D03*
X114960000Y-61000000D03*
X112420000Y-61000000D03*
X109880000Y-61000000D03*
X107340000Y-61000000D03*
X104800000Y-61000000D03*
X102260000Y-61000000D03*
X99720000Y-61000000D03*
X97180000Y-61000000D03*
X94640000Y-61000000D03*
X92100000Y-61000000D03*
X89560000Y-61000000D03*
X87020000Y-61000000D03*
X84480000Y-61000000D03*
X84480000Y-68620000D03*
X87020000Y-68620000D03*
X89560000Y-68620000D03*
X92100000Y-68620000D03*
X94640000Y-68620000D03*
X97180000Y-68620000D03*
X99720000Y-68620000D03*
X102260000Y-68620000D03*
X104800000Y-68620000D03*
X107340000Y-68620000D03*
X109880000Y-68620000D03*
X112420000Y-68620000D03*
X114960000Y-68620000D03*
X117500000Y-68620000D03*
D21*
X117500000Y-71160000D03*
X114960000Y-71160000D03*
X112420000Y-71160000D03*
X109880000Y-71160000D03*
X107340000Y-71160000D03*
X104800000Y-71160000D03*
D22*
X98500000Y-74000000D03*
D23*
X125210000Y-45732200D03*
X127750000Y-45732200D03*
X132830000Y-45732200D03*
X130290000Y-45732200D03*
X104890000Y-45732200D03*
X107430000Y-45732200D03*
X112510000Y-45732200D03*
X109970000Y-45732200D03*
X120130000Y-45732200D03*
X122670000Y-45732200D03*
X117590000Y-45732200D03*
X115050000Y-45732200D03*
X94730000Y-45732200D03*
X97270000Y-45732200D03*
X102350000Y-45732200D03*
X99810000Y-45732200D03*
X89650000Y-45732200D03*
X92190000Y-45732200D03*
X87110000Y-45732200D03*
X84570000Y-45732200D03*
X132830000Y-51167800D03*
X130290000Y-51167800D03*
X125210000Y-51167800D03*
X127750000Y-51167800D03*
X117590000Y-51167800D03*
X115050000Y-51167800D03*
X120130000Y-51167800D03*
X122670000Y-51167800D03*
X112510000Y-51167800D03*
X109970000Y-51167800D03*
X104890000Y-51167800D03*
X107430000Y-51167800D03*
X87110000Y-51167800D03*
X84570000Y-51167800D03*
X89650000Y-51167800D03*
X92190000Y-51167800D03*
X102350000Y-51167800D03*
X99810000Y-51167800D03*
X94730000Y-51167800D03*
X97270000Y-51167800D03*
D24*
X113400000Y-57800860D03*
X113400000Y-54199140D03*
D25*
X108900000Y-57650000D03*
X108900000Y-55150000D03*
D26*
X125400000Y-79050000D03*
X129400000Y-79050000D03*
X125500000Y-74200000D03*
X129500000Y-74200000D03*
D25*
X133000000Y-69250000D03*
X133000000Y-66750000D03*
D27*
X104150000Y-76000000D03*
X106650000Y-76000000D03*
D28*
X106000000Y-57950000D03*
X106000000Y-56050000D03*
X85700000Y-57850000D03*
X85700000Y-55950000D03*
D29*
X116000000Y-92730140D03*
X116000000Y-95569860D03*
D30*
X113748000Y-77250000D03*
D31*
X120352000Y-77250000D03*
X120352000Y-74964000D03*
X120352000Y-79536000D03*
D32*
X86500000Y-96400000D03*
X88500000Y-96400000D03*
X90500000Y-96400000D03*
X92500000Y-96400000D03*
X94500000Y-96400000D03*
X96500000Y-96400000D03*
X98500000Y-96400000D03*
X100500000Y-96400000D03*
X100500000Y-76700000D03*
X98500000Y-76700000D03*
X96500000Y-76700000D03*
X94500000Y-76700000D03*
X92500000Y-76700000D03*
X90500000Y-76700000D03*
X88500000Y-76700000D03*
X86500000Y-76700000D03*
D33*
X116000000Y-99000000D03*
D34*
X113460000Y-99000000D03*
D33*
X130500000Y-99000000D03*
D34*
X127960000Y-99000000D03*
D35*
X128150000Y-57201140D03*
X130050000Y-57201140D03*
X129100000Y-54198860D03*
D36*
X124900000Y-56850000D03*
X124900000Y-54150000D03*
X134000000Y-56950000D03*
X134000000Y-54250000D03*
D37*
X116000000Y-87950000D03*
X116000000Y-90150000D03*
D38*
X131050000Y-83150000D03*
X128350000Y-83150000D03*
D36*
X133000000Y-63850000D03*
X133000000Y-61150000D03*
D39*
X91301000Y-56000000D03*
X100699000Y-56000000D03*
D40*
X135700000Y-83150000D03*
X131650000Y-58000000D03*
X125000000Y-93850000D03*
X137600000Y-89850000D03*
X88350000Y-48500000D03*
X116850000Y-56850000D03*
X82650000Y-88750000D03*
X103450000Y-89950000D03*
X134600000Y-59400000D03*
X130600000Y-59850000D03*
X131000000Y-64850000D03*
X104700000Y-85200000D03*
X93450000Y-47600000D03*
X121700000Y-59000000D03*
X118500000Y-59000000D03*
X90900000Y-47950000D03*
X108600000Y-52850000D03*
X116200000Y-52850000D03*
X122600000Y-55850000D03*
X127200000Y-58850000D03*
X120100000Y-59000000D03*
X120100000Y-53000000D03*
D41*
X97180000Y-68620000D02*
X97180000Y-66900000D01*
X97180000Y-66900000D02*
X97830000Y-66250000D01*
X102000000Y-64850000D02*
X102000000Y-61260000D01*
X100600000Y-66250000D02*
X102000000Y-64850000D01*
X97830000Y-66250000D02*
X100600000Y-66250000D01*
X102000000Y-61260000D02*
X102260000Y-61000000D01*
X131050000Y-83150000D02*
X135700000Y-83150000D01*
X133000000Y-59500000D02*
X133000000Y-61150000D01*
X131650000Y-58000000D02*
X133000000Y-59500000D01*
X100500000Y-98750000D02*
X100500000Y-96400000D01*
X99500000Y-99750000D02*
X100500000Y-98750000D01*
X85900000Y-99750000D02*
X99500000Y-99750000D01*
X84500000Y-98350000D02*
X85900000Y-99750000D01*
X84500000Y-82250000D02*
X84500000Y-98350000D01*
X82750000Y-80500000D02*
X84500000Y-82250000D01*
X82750000Y-67500000D02*
X82750000Y-80500000D01*
X84000000Y-66250000D02*
X82750000Y-67500000D01*
X96360000Y-66250000D02*
X84000000Y-66250000D01*
X97180000Y-66900000D02*
X96360000Y-66250000D01*
X102260000Y-61000000D02*
X102260000Y-60490000D01*
X102260000Y-60490000D02*
X103500000Y-59250000D01*
X103500000Y-59250000D02*
X107100000Y-59300000D01*
X107100000Y-59300000D02*
X108900000Y-57650000D01*
X113400000Y-57800860D02*
X108950860Y-57700860D01*
X108950860Y-57700860D02*
X108900000Y-57650000D01*
X128500000Y-64960000D02*
X127960000Y-64960000D01*
X127960000Y-64960000D02*
X126750000Y-63750000D01*
X126750000Y-63750000D02*
X126750000Y-61724244D01*
X126750000Y-61724244D02*
X123720785Y-58603235D01*
X123720785Y-58603235D02*
X123197910Y-58604462D01*
X115922824Y-55500000D02*
X113400000Y-57800860D01*
X119780615Y-55500000D02*
X115922824Y-55500000D01*
X123197910Y-58604462D02*
X119780615Y-55500000D01*
X133000000Y-61150000D02*
X132850000Y-61150000D01*
X132850000Y-61150000D02*
X129040000Y-64960000D01*
X129040000Y-64960000D02*
X128500000Y-64960000D01*
X102260000Y-61000000D02*
X102260000Y-61740000D01*
X125200000Y-90950000D02*
X125200000Y-93650000D01*
X125200000Y-93650000D02*
X125000000Y-93850000D01*
X134100000Y-90950000D02*
X136500000Y-90950000D01*
X136500000Y-90950000D02*
X137600000Y-89850000D01*
X89650000Y-45732200D02*
X88617800Y-45732200D01*
X88350000Y-46000000D02*
X88350000Y-48500000D01*
X88617800Y-45732200D02*
X88350000Y-46000000D01*
X129400000Y-79050000D02*
X129400000Y-77050000D01*
X129400000Y-77050000D02*
X129500000Y-77050000D01*
X129500000Y-77050000D02*
X123800000Y-77050000D01*
X122514000Y-79536000D02*
X120352000Y-79536000D01*
X123200000Y-78850000D02*
X122514000Y-79536000D01*
X123200000Y-77650000D02*
X123200000Y-78850000D01*
X123800000Y-77050000D02*
X123200000Y-77650000D01*
X138000000Y-60580000D02*
X139580000Y-60580000D01*
X137360000Y-77040000D02*
X135000000Y-77040000D01*
X140000000Y-74400000D02*
X137360000Y-77040000D01*
X140000000Y-61000000D02*
X140000000Y-74400000D01*
X139580000Y-60580000D02*
X140000000Y-61000000D01*
X134600000Y-59400000D02*
X134000000Y-58800000D01*
X134000000Y-58800000D02*
X134000000Y-56950000D01*
X129500000Y-77050000D02*
X129500000Y-77040000D01*
X129500000Y-77040000D02*
X129500000Y-77000000D01*
X129500000Y-77000000D02*
X129500000Y-77040000D01*
X135000000Y-77040000D02*
X129500000Y-77040000D01*
X121264000Y-79536000D02*
X120352000Y-79536000D01*
X133450000Y-57001140D02*
X133450000Y-56450000D01*
X120352000Y-74964000D02*
X122486000Y-74964000D01*
X123250000Y-74200000D02*
X125500000Y-74200000D01*
X122486000Y-74964000D02*
X123250000Y-74200000D01*
X128150000Y-57201140D02*
X125251140Y-57201140D01*
X125251140Y-57201140D02*
X124900000Y-56850000D01*
X128150000Y-58200000D02*
X128150000Y-57201140D01*
X128800000Y-58850000D02*
X128150000Y-58200000D01*
X129600000Y-58850000D02*
X128800000Y-58850000D01*
X130600000Y-59850000D02*
X129600000Y-58850000D01*
X125500000Y-74200000D02*
X125500000Y-73700000D01*
X125500000Y-73700000D02*
X128500000Y-69500000D01*
X128500000Y-69500000D02*
X128500000Y-67500000D01*
X125286000Y-74414000D02*
X125500000Y-74200000D01*
X124900000Y-56850000D02*
X125000000Y-56850000D01*
X128250000Y-57950000D02*
X128150000Y-57201140D01*
D42*
X133000000Y-69250000D02*
X134750000Y-69250000D01*
X135800000Y-68200000D02*
X138000000Y-68200000D01*
X134750000Y-69250000D02*
X135800000Y-68200000D01*
X131000000Y-64850000D02*
X131000000Y-66000000D01*
X131750000Y-66750000D02*
X133000000Y-66750000D01*
X131000000Y-66000000D02*
X131750000Y-66750000D01*
X131000000Y-64850000D02*
X131000000Y-64850000D01*
X133000000Y-63850000D02*
X133000000Y-66750000D01*
X99720000Y-68620000D02*
X99870000Y-68620000D01*
X99870000Y-68620000D02*
X104150000Y-76000000D01*
X106000000Y-56050000D02*
X100749000Y-56050000D01*
X100749000Y-56050000D02*
X100699000Y-56000000D01*
X97180000Y-61000000D02*
X97180000Y-57820000D01*
X97180000Y-57820000D02*
X99000000Y-56000000D01*
X99000000Y-56000000D02*
X100699000Y-56000000D01*
X85700000Y-55950000D02*
X91251000Y-55950000D01*
X91251000Y-55950000D02*
X91301000Y-56000000D01*
X94640000Y-61000000D02*
X94640000Y-57640000D01*
X94640000Y-57640000D02*
X93000000Y-56000000D01*
X93000000Y-56000000D02*
X91301000Y-56000000D01*
X116000000Y-90150000D02*
X116000000Y-92730140D01*
X122460000Y-64960000D02*
X117210000Y-64960000D01*
X114960000Y-62710000D02*
X114960000Y-61000000D01*
X117210000Y-64960000D02*
X114960000Y-62710000D01*
X88500000Y-96400000D02*
X88500000Y-87600000D01*
X90900000Y-85200000D02*
X104700000Y-85200000D01*
X88500000Y-87600000D02*
X90900000Y-85200000D01*
X127960000Y-99000000D02*
X127960000Y-93490000D01*
X129600000Y-91850000D02*
X129600000Y-86950000D01*
X127960000Y-93490000D02*
X129600000Y-91850000D01*
X128350000Y-83150000D02*
X126700000Y-83150000D01*
X125200000Y-84650000D02*
X125200000Y-86950000D01*
X126700000Y-83150000D02*
X125200000Y-84650000D01*
X125200000Y-86950000D02*
X129600000Y-86950000D01*
X129600000Y-86950000D02*
X134100000Y-86950000D01*
X112400000Y-80700000D02*
X113000000Y-81350000D01*
X113000000Y-81350000D02*
X118600000Y-81300000D01*
X118600000Y-81300000D02*
X119200000Y-81900000D01*
X119200000Y-81900000D02*
X119200000Y-98050000D01*
X119200000Y-98050000D02*
X120150000Y-99000000D01*
X120150000Y-99000000D02*
X127960000Y-99000000D01*
X107340000Y-61000000D02*
X107340000Y-64940000D01*
X107340000Y-64940000D02*
X108600000Y-66200000D01*
X108600000Y-66200000D02*
X108600000Y-76900000D01*
X108600000Y-76900000D02*
X112400000Y-80700000D01*
X112760000Y-82960000D02*
X115460000Y-82960000D01*
X115460000Y-82960000D02*
X116000000Y-83500000D01*
X116000000Y-83500000D02*
X116000000Y-84430000D01*
X113460000Y-99000000D02*
X113460000Y-83940000D01*
X113450000Y-83650000D02*
X112760000Y-82960000D01*
X113450000Y-83930000D02*
X113450000Y-83650000D01*
X113460000Y-83940000D02*
X113450000Y-83930000D01*
X113460000Y-99000000D02*
X113460000Y-98960000D01*
X84480000Y-68620000D02*
X84480000Y-79480000D01*
X87960000Y-82960000D02*
X112760000Y-82960000D01*
X84480000Y-79480000D02*
X87960000Y-82960000D01*
X87020000Y-68620000D02*
X87020000Y-71370000D01*
X88500000Y-72850000D02*
X88500000Y-76700000D01*
X87020000Y-71370000D02*
X88500000Y-72850000D01*
X89560000Y-68620000D02*
X89560000Y-71160000D01*
X90500000Y-72100000D02*
X90500000Y-76700000D01*
X89560000Y-71160000D02*
X90500000Y-72100000D01*
X92100000Y-68620000D02*
X92100000Y-71150000D01*
X92500000Y-71550000D02*
X92500000Y-76700000D01*
X92100000Y-71150000D02*
X92500000Y-71550000D01*
X94640000Y-68620000D02*
X94640000Y-70960000D01*
X94500000Y-71100000D02*
X94500000Y-77700000D01*
X94640000Y-70960000D02*
X94500000Y-71100000D01*
X94100000Y-45750000D02*
X93450000Y-46500000D01*
X93450000Y-46500000D02*
X93450000Y-47600000D01*
X94730000Y-45732200D02*
X94100000Y-45750000D01*
X125000000Y-61100000D02*
X125000000Y-62420000D01*
X123300000Y-59400000D02*
X125000000Y-61100000D01*
X122200000Y-59400000D02*
X123300000Y-59400000D01*
X121700000Y-59000000D02*
X122200000Y-59400000D01*
X118500000Y-59000000D02*
X122460000Y-62260000D01*
X122460000Y-62260000D02*
X122460000Y-62420000D01*
X92190000Y-45732200D02*
X91567800Y-45732200D01*
X90900000Y-46300000D02*
X90900000Y-47950000D01*
X91567800Y-45732200D02*
X90900000Y-46300000D01*
D41*
X104890000Y-51167800D02*
X104890000Y-52850000D01*
X104890000Y-52850000D02*
X104800000Y-52850000D01*
X84570000Y-51167800D02*
X84570000Y-51820000D01*
X84570000Y-51820000D02*
X85600000Y-52850000D01*
X85600000Y-52850000D02*
X104800000Y-52850000D01*
X104800000Y-52850000D02*
X108600000Y-52850000D01*
X116200000Y-52850000D02*
X117800000Y-54450000D01*
X117800000Y-54450000D02*
X120200000Y-54450000D01*
X120200000Y-54450000D02*
X121600000Y-55850000D01*
X121600000Y-55850000D02*
X122600000Y-55850000D01*
X127200000Y-58850000D02*
X128500000Y-60150000D01*
X128500000Y-60150000D02*
X128500000Y-62420000D01*
D42*
X116000000Y-85700000D02*
X116000000Y-87950000D01*
X134000000Y-54250000D02*
X134750000Y-54250000D01*
X134750000Y-54250000D02*
X136000000Y-55500000D01*
X136000000Y-55500000D02*
X136000000Y-62300000D01*
X136000000Y-62300000D02*
X136200000Y-62500000D01*
X136200000Y-62500000D02*
X136200000Y-62500000D01*
X136200000Y-62500000D02*
X136820000Y-63120000D01*
X136820000Y-63120000D02*
X138000000Y-63120000D01*
X129100000Y-54198860D02*
X133948860Y-54198860D01*
X133948860Y-54198860D02*
X134000000Y-54250000D01*
X124900000Y-54150000D02*
X122950000Y-54150000D01*
X123750000Y-66260000D02*
X122460000Y-67500000D01*
X123750000Y-61177778D02*
X123750000Y-66260000D01*
X122875000Y-60400000D02*
X123750000Y-61177778D01*
X121800000Y-60400000D02*
X122875000Y-60400000D01*
X120100000Y-59200000D02*
X121800000Y-60400000D01*
X120100000Y-58700000D02*
X120100000Y-59200000D01*
X120100000Y-59000000D02*
X120100000Y-58700000D01*
X121800000Y-53000000D02*
X120100000Y-53000000D01*
X122950000Y-54150000D02*
X121800000Y-53000000D01*
X130050000Y-57201140D02*
X130050000Y-56750000D01*
X130050000Y-56750000D02*
X128900000Y-55600000D01*
X126150000Y-54150000D02*
X124900000Y-54150000D01*
X127600000Y-55600000D02*
X126150000Y-54150000D01*
X128900000Y-55600000D02*
X127600000Y-55600000D01*
X98500000Y-76700000D02*
X98500000Y-74000000D01*
D43*
G36*
X96178060Y-46570400D02*
X96220142Y-46794047D01*
X96152594Y-46956720D01*
X96152207Y-47401329D01*
X96321992Y-47812242D01*
X96636104Y-48126903D01*
X97046720Y-48297406D01*
X97491329Y-48297793D01*
X97902242Y-48128008D01*
X98216903Y-47813896D01*
X98387406Y-47403280D01*
X98387407Y-47401329D01*
X98692207Y-47401329D01*
X98861992Y-47812242D01*
X99176104Y-48126903D01*
X99586720Y-48297406D01*
X100031329Y-48297793D01*
X100442242Y-48128008D01*
X100756903Y-47813896D01*
X100927406Y-47403280D01*
X100927793Y-46958671D01*
X100854483Y-46781247D01*
X100889500Y-46696710D01*
X100889500Y-46017950D01*
X100730750Y-45859200D01*
X99937000Y-45859200D01*
X99937000Y-45879200D01*
X99683000Y-45879200D01*
X99683000Y-45859200D01*
X98889250Y-45859200D01*
X98730500Y-46017950D01*
X98730500Y-46696710D01*
X98765487Y-46781175D01*
X98692594Y-46956720D01*
X98692207Y-47401329D01*
X98387407Y-47401329D01*
X98387793Y-46958671D01*
X98317677Y-46788977D01*
X98361940Y-46570400D01*
X98361940Y-45135000D01*
X98730500Y-45135000D01*
X98730500Y-45446450D01*
X98889250Y-45605200D01*
X99683000Y-45605200D01*
X99683000Y-45585200D01*
X99937000Y-45585200D01*
X99937000Y-45605200D01*
X100730750Y-45605200D01*
X100889500Y-45446450D01*
X100889500Y-45135000D01*
X101258060Y-45135000D01*
X101258060Y-46570400D01*
X101300142Y-46794047D01*
X101232594Y-46956720D01*
X101232207Y-47401329D01*
X101401992Y-47812242D01*
X101716104Y-48126903D01*
X102126720Y-48297406D01*
X102571329Y-48297793D01*
X102982242Y-48128008D01*
X103296903Y-47813896D01*
X103467406Y-47403280D01*
X103467793Y-46958671D01*
X103397677Y-46788977D01*
X103441940Y-46570400D01*
X103441940Y-45135000D01*
X103798060Y-45135000D01*
X103798060Y-46570400D01*
X103840142Y-46794047D01*
X103772594Y-46956720D01*
X103772207Y-47401329D01*
X103941992Y-47812242D01*
X104256104Y-48126903D01*
X104666720Y-48297406D01*
X105111329Y-48297793D01*
X105522242Y-48128008D01*
X105836903Y-47813896D01*
X106007406Y-47403280D01*
X106007407Y-47401329D01*
X106312207Y-47401329D01*
X106481992Y-47812242D01*
X106796104Y-48126903D01*
X107206720Y-48297406D01*
X107651329Y-48297793D01*
X108062242Y-48128008D01*
X108376903Y-47813896D01*
X108547406Y-47403280D01*
X108547793Y-46958671D01*
X108474483Y-46781247D01*
X108509500Y-46696710D01*
X108509500Y-46017950D01*
X108350750Y-45859200D01*
X107557000Y-45859200D01*
X107557000Y-45879200D01*
X107303000Y-45879200D01*
X107303000Y-45859200D01*
X106509250Y-45859200D01*
X106350500Y-46017950D01*
X106350500Y-46696710D01*
X106385487Y-46781175D01*
X106312594Y-46956720D01*
X106312207Y-47401329D01*
X106007407Y-47401329D01*
X106007793Y-46958671D01*
X105937677Y-46788977D01*
X105981940Y-46570400D01*
X105981940Y-45135000D01*
X106350500Y-45135000D01*
X106350500Y-45446450D01*
X106509250Y-45605200D01*
X107303000Y-45605200D01*
X107303000Y-45585200D01*
X107557000Y-45585200D01*
X107557000Y-45605200D01*
X108350750Y-45605200D01*
X108509500Y-45446450D01*
X108509500Y-45135000D01*
X108878060Y-45135000D01*
X108878060Y-46570400D01*
X108920142Y-46794047D01*
X108852594Y-46956720D01*
X108852207Y-47401329D01*
X109021992Y-47812242D01*
X109336104Y-48126903D01*
X109746720Y-48297406D01*
X110191329Y-48297793D01*
X110602242Y-48128008D01*
X110916903Y-47813896D01*
X111087406Y-47403280D01*
X111087793Y-46958671D01*
X111017677Y-46788977D01*
X111061940Y-46570400D01*
X111061940Y-45135000D01*
X111418060Y-45135000D01*
X111418060Y-46570400D01*
X111460142Y-46794047D01*
X111392594Y-46956720D01*
X111392207Y-47401329D01*
X111561992Y-47812242D01*
X111876104Y-48126903D01*
X112286720Y-48297406D01*
X112731329Y-48297793D01*
X113142242Y-48128008D01*
X113456903Y-47813896D01*
X113627406Y-47403280D01*
X113627793Y-46958671D01*
X113557677Y-46788977D01*
X113601940Y-46570400D01*
X113601940Y-45135000D01*
X113958060Y-45135000D01*
X113958060Y-46570400D01*
X114000142Y-46794047D01*
X113932594Y-46956720D01*
X113932207Y-47401329D01*
X114101992Y-47812242D01*
X114416104Y-48126903D01*
X114826720Y-48297406D01*
X115271329Y-48297793D01*
X115682242Y-48128008D01*
X115996903Y-47813896D01*
X116167406Y-47403280D01*
X116167793Y-46958671D01*
X116097677Y-46788977D01*
X116141940Y-46570400D01*
X116141940Y-45135000D01*
X116498060Y-45135000D01*
X116498060Y-46570400D01*
X116540142Y-46794047D01*
X116472594Y-46956720D01*
X116472207Y-47401329D01*
X116641992Y-47812242D01*
X116956104Y-48126903D01*
X117366720Y-48297406D01*
X117811329Y-48297793D01*
X118222242Y-48128008D01*
X118536903Y-47813896D01*
X118707406Y-47403280D01*
X118707407Y-47401329D01*
X119012207Y-47401329D01*
X119181992Y-47812242D01*
X119496104Y-48126903D01*
X119906720Y-48297406D01*
X120351329Y-48297793D01*
X120762242Y-48128008D01*
X121076903Y-47813896D01*
X121247406Y-47403280D01*
X121247793Y-46958671D01*
X121174483Y-46781247D01*
X121209500Y-46696710D01*
X121209500Y-46017950D01*
X121050750Y-45859200D01*
X120257000Y-45859200D01*
X120257000Y-45879200D01*
X120003000Y-45879200D01*
X120003000Y-45859200D01*
X119209250Y-45859200D01*
X119050500Y-46017950D01*
X119050500Y-46696710D01*
X119085487Y-46781175D01*
X119012594Y-46956720D01*
X119012207Y-47401329D01*
X118707407Y-47401329D01*
X118707793Y-46958671D01*
X118637677Y-46788977D01*
X118681940Y-46570400D01*
X118681940Y-45135000D01*
X119050500Y-45135000D01*
X119050500Y-45446450D01*
X119209250Y-45605200D01*
X120003000Y-45605200D01*
X120003000Y-45585200D01*
X120257000Y-45585200D01*
X120257000Y-45605200D01*
X121050750Y-45605200D01*
X121209500Y-45446450D01*
X121209500Y-45135000D01*
X121578060Y-45135000D01*
X121578060Y-46570400D01*
X121620142Y-46794047D01*
X121552594Y-46956720D01*
X121552207Y-47401329D01*
X121721992Y-47812242D01*
X122036104Y-48126903D01*
X122446720Y-48297406D01*
X122891329Y-48297793D01*
X123302242Y-48128008D01*
X123616903Y-47813896D01*
X123787406Y-47403280D01*
X123787407Y-47401329D01*
X124092207Y-47401329D01*
X124261992Y-47812242D01*
X124576104Y-48126903D01*
X124986720Y-48297406D01*
X125431329Y-48297793D01*
X125842242Y-48128008D01*
X126156903Y-47813896D01*
X126327406Y-47403280D01*
X126327793Y-46958671D01*
X126254483Y-46781247D01*
X126289500Y-46696710D01*
X126289500Y-46017950D01*
X126130750Y-45859200D01*
X125337000Y-45859200D01*
X125337000Y-45879200D01*
X125083000Y-45879200D01*
X125083000Y-45859200D01*
X124289250Y-45859200D01*
X124130500Y-46017950D01*
X124130500Y-46696710D01*
X124165487Y-46781175D01*
X124092594Y-46956720D01*
X124092207Y-47401329D01*
X123787407Y-47401329D01*
X123787793Y-46958671D01*
X123717677Y-46788977D01*
X123761940Y-46570400D01*
X123761940Y-45135000D01*
X124130500Y-45135000D01*
X124130500Y-45446450D01*
X124289250Y-45605200D01*
X125083000Y-45605200D01*
X125083000Y-45585200D01*
X125337000Y-45585200D01*
X125337000Y-45605200D01*
X126130750Y-45605200D01*
X126289500Y-45446450D01*
X126289500Y-45135000D01*
X126658060Y-45135000D01*
X126658060Y-46570400D01*
X126700142Y-46794047D01*
X126632594Y-46956720D01*
X126632207Y-47401329D01*
X126801992Y-47812242D01*
X127116104Y-48126903D01*
X127526720Y-48297406D01*
X127971329Y-48297793D01*
X128382242Y-48128008D01*
X128696903Y-47813896D01*
X128867406Y-47403280D01*
X128867793Y-46958671D01*
X128797677Y-46788977D01*
X128841940Y-46570400D01*
X128841940Y-45135000D01*
X129198060Y-45135000D01*
X129198060Y-46570400D01*
X129240142Y-46794047D01*
X129172594Y-46956720D01*
X129172207Y-47401329D01*
X129341992Y-47812242D01*
X129656104Y-48126903D01*
X130036144Y-48284710D01*
X130035855Y-48615766D01*
X129657758Y-48771992D01*
X129343097Y-49086104D01*
X129172594Y-49496720D01*
X129172207Y-49941329D01*
X129242323Y-50111023D01*
X129198060Y-50329600D01*
X129198060Y-52006000D01*
X129242338Y-52241317D01*
X129381410Y-52457441D01*
X129593610Y-52602431D01*
X129845500Y-52653440D01*
X130734500Y-52653440D01*
X130969817Y-52609162D01*
X131185941Y-52470090D01*
X131330931Y-52257890D01*
X131381940Y-52006000D01*
X131381940Y-51453550D01*
X131750500Y-51453550D01*
X131750500Y-52132310D01*
X131847173Y-52365699D01*
X132025802Y-52544327D01*
X132259191Y-52641000D01*
X132544250Y-52641000D01*
X132703000Y-52482250D01*
X132703000Y-51294800D01*
X132957000Y-51294800D01*
X132957000Y-52482250D01*
X133115750Y-52641000D01*
X133400809Y-52641000D01*
X133634198Y-52544327D01*
X133812827Y-52365699D01*
X133909500Y-52132310D01*
X133909500Y-51453550D01*
X133750750Y-51294800D01*
X132957000Y-51294800D01*
X132703000Y-51294800D01*
X131909250Y-51294800D01*
X131750500Y-51453550D01*
X131381940Y-51453550D01*
X131381940Y-50329600D01*
X131339858Y-50105953D01*
X131394710Y-49973856D01*
X131725766Y-49974145D01*
X131785517Y-50118753D01*
X131750500Y-50203290D01*
X131750500Y-50882050D01*
X131909250Y-51040800D01*
X132703000Y-51040800D01*
X132703000Y-51020800D01*
X132957000Y-51020800D01*
X132957000Y-51040800D01*
X133750750Y-51040800D01*
X133909500Y-50882050D01*
X133909500Y-50203290D01*
X133874513Y-50118825D01*
X133947406Y-49943280D01*
X133947793Y-49498671D01*
X133778008Y-49087758D01*
X133463896Y-48773097D01*
X133083856Y-48615290D01*
X133084145Y-48284234D01*
X133462242Y-48128008D01*
X133776903Y-47813896D01*
X133947406Y-47403280D01*
X133947793Y-46958671D01*
X133877677Y-46788977D01*
X133921940Y-46570400D01*
X133921940Y-45350774D01*
X134178127Y-45734186D01*
X134323000Y-46462509D01*
X134323000Y-49421573D01*
X134325440Y-49446349D01*
X134477681Y-50211716D01*
X134496644Y-50257497D01*
X134930189Y-50906343D01*
X134945983Y-50925589D01*
X135324411Y-51304017D01*
X135336901Y-51314970D01*
X135751114Y-51632807D01*
X135779826Y-51649384D01*
X136262188Y-51849185D01*
X136294212Y-51857766D01*
X136811850Y-51925914D01*
X136828427Y-51927000D01*
X139187491Y-51927000D01*
X139915814Y-52071873D01*
X140515000Y-52472235D01*
X140515000Y-60404842D01*
X140135079Y-60024921D01*
X139880407Y-59854755D01*
X139580000Y-59795000D01*
X139413678Y-59795000D01*
X139224763Y-59512269D01*
X138922046Y-59310000D01*
X139224763Y-59107731D01*
X139552090Y-58617852D01*
X139667032Y-58040000D01*
X139552090Y-57462148D01*
X139224763Y-56972269D01*
X139211413Y-56963349D01*
X139359698Y-56901927D01*
X139538327Y-56723299D01*
X139635000Y-56489910D01*
X139635000Y-55785750D01*
X139476250Y-55627000D01*
X138127000Y-55627000D01*
X138127000Y-55647000D01*
X137873000Y-55647000D01*
X137873000Y-55627000D01*
X137853000Y-55627000D01*
X137853000Y-55373000D01*
X137873000Y-55373000D01*
X137873000Y-54160150D01*
X138127000Y-54160150D01*
X138127000Y-55373000D01*
X139476250Y-55373000D01*
X139635000Y-55214250D01*
X139635000Y-54510090D01*
X139538327Y-54276701D01*
X139359698Y-54098073D01*
X139126309Y-54001400D01*
X138285750Y-54001400D01*
X138127000Y-54160150D01*
X137873000Y-54160150D01*
X137714250Y-54001400D01*
X136873691Y-54001400D01*
X136640302Y-54098073D01*
X136461673Y-54276701D01*
X136365000Y-54510090D01*
X136365000Y-54825553D01*
X135297440Y-53757994D01*
X135297440Y-53500000D01*
X135253162Y-53264683D01*
X135114090Y-53048559D01*
X134901890Y-52903569D01*
X134650000Y-52852560D01*
X133350000Y-52852560D01*
X133114683Y-52896838D01*
X132898559Y-53035910D01*
X132753569Y-53248110D01*
X132709879Y-53463860D01*
X130147490Y-53463860D01*
X130147490Y-53298430D01*
X130103212Y-53063113D01*
X129964140Y-52846989D01*
X129751940Y-52701999D01*
X129500050Y-52650990D01*
X128699950Y-52650990D01*
X128464633Y-52695268D01*
X128248509Y-52834340D01*
X128103519Y-53046540D01*
X128052510Y-53298430D01*
X128052510Y-54865000D01*
X127904447Y-54865000D01*
X126669723Y-53630277D01*
X126431272Y-53470949D01*
X126197440Y-53424436D01*
X126197440Y-53400000D01*
X126153162Y-53164683D01*
X126014090Y-52948559D01*
X125801890Y-52803569D01*
X125550000Y-52752560D01*
X124250000Y-52752560D01*
X124014683Y-52796838D01*
X123798559Y-52935910D01*
X123653569Y-53148110D01*
X123602560Y-53400000D01*
X123602560Y-53415000D01*
X123254447Y-53415000D01*
X122492886Y-52653440D01*
X123114500Y-52653440D01*
X123349817Y-52609162D01*
X123565941Y-52470090D01*
X123710931Y-52257890D01*
X123761940Y-52006000D01*
X123761940Y-50329600D01*
X123719858Y-50105953D01*
X123787406Y-49943280D01*
X123787407Y-49941329D01*
X124092207Y-49941329D01*
X124162323Y-50111023D01*
X124118060Y-50329600D01*
X124118060Y-52006000D01*
X124162338Y-52241317D01*
X124301410Y-52457441D01*
X124513610Y-52602431D01*
X124765500Y-52653440D01*
X125654500Y-52653440D01*
X125889817Y-52609162D01*
X126105941Y-52470090D01*
X126250931Y-52257890D01*
X126301940Y-52006000D01*
X126301940Y-50329600D01*
X126259858Y-50105953D01*
X126327406Y-49943280D01*
X126327407Y-49941329D01*
X126632207Y-49941329D01*
X126702323Y-50111023D01*
X126658060Y-50329600D01*
X126658060Y-52006000D01*
X126702338Y-52241317D01*
X126841410Y-52457441D01*
X127053610Y-52602431D01*
X127305500Y-52653440D01*
X128194500Y-52653440D01*
X128429817Y-52609162D01*
X128645941Y-52470090D01*
X128790931Y-52257890D01*
X128841940Y-52006000D01*
X128841940Y-50329600D01*
X128799858Y-50105953D01*
X128867406Y-49943280D01*
X128867793Y-49498671D01*
X128698008Y-49087758D01*
X128383896Y-48773097D01*
X127973280Y-48602594D01*
X127528671Y-48602207D01*
X127117758Y-48771992D01*
X126803097Y-49086104D01*
X126632594Y-49496720D01*
X126632207Y-49941329D01*
X126327407Y-49941329D01*
X126327793Y-49498671D01*
X126158008Y-49087758D01*
X125843896Y-48773097D01*
X125433280Y-48602594D01*
X124988671Y-48602207D01*
X124577758Y-48771992D01*
X124263097Y-49086104D01*
X124092594Y-49496720D01*
X124092207Y-49941329D01*
X123787407Y-49941329D01*
X123787793Y-49498671D01*
X123618008Y-49087758D01*
X123303896Y-48773097D01*
X122893280Y-48602594D01*
X122448671Y-48602207D01*
X122037758Y-48771992D01*
X121723097Y-49086104D01*
X121552594Y-49496720D01*
X121552207Y-49941329D01*
X121622323Y-50111023D01*
X121578060Y-50329600D01*
X121578060Y-52006000D01*
X121622338Y-52241317D01*
X121637578Y-52265000D01*
X121166073Y-52265000D01*
X121170931Y-52257890D01*
X121221940Y-52006000D01*
X121221940Y-50329600D01*
X121179858Y-50105953D01*
X121247406Y-49943280D01*
X121247793Y-49498671D01*
X121078008Y-49087758D01*
X120763896Y-48773097D01*
X120353280Y-48602594D01*
X119908671Y-48602207D01*
X119497758Y-48771992D01*
X119183097Y-49086104D01*
X119012594Y-49496720D01*
X119012207Y-49941329D01*
X119082323Y-50111023D01*
X119038060Y-50329600D01*
X119038060Y-52006000D01*
X119082338Y-52241317D01*
X119093912Y-52259303D01*
X119053629Y-52299515D01*
X118865215Y-52753266D01*
X118864786Y-53244579D01*
X119038501Y-53665000D01*
X118125158Y-53665000D01*
X117434892Y-52974734D01*
X117435172Y-52653440D01*
X118034500Y-52653440D01*
X118269817Y-52609162D01*
X118485941Y-52470090D01*
X118630931Y-52257890D01*
X118681940Y-52006000D01*
X118681940Y-50329600D01*
X118639858Y-50105953D01*
X118707406Y-49943280D01*
X118707793Y-49498671D01*
X118538008Y-49087758D01*
X118223896Y-48773097D01*
X117813280Y-48602594D01*
X117368671Y-48602207D01*
X116957758Y-48771992D01*
X116643097Y-49086104D01*
X116472594Y-49496720D01*
X116472207Y-49941329D01*
X116542323Y-50111023D01*
X116498060Y-50329600D01*
X116498060Y-51636527D01*
X116446734Y-51615215D01*
X116129500Y-51614938D01*
X116129500Y-51453550D01*
X115970750Y-51294800D01*
X115177000Y-51294800D01*
X115177000Y-51314800D01*
X114923000Y-51314800D01*
X114923000Y-51294800D01*
X114129250Y-51294800D01*
X113970500Y-51453550D01*
X113970500Y-52132310D01*
X114024907Y-52263660D01*
X113685750Y-52263660D01*
X113527002Y-52422408D01*
X113527002Y-52292911D01*
X113550931Y-52257890D01*
X113601940Y-52006000D01*
X113601940Y-50329600D01*
X113559858Y-50105953D01*
X113627406Y-49943280D01*
X113627407Y-49941329D01*
X113932207Y-49941329D01*
X114005517Y-50118753D01*
X113970500Y-50203290D01*
X113970500Y-50882050D01*
X114129250Y-51040800D01*
X114923000Y-51040800D01*
X114923000Y-51020800D01*
X115177000Y-51020800D01*
X115177000Y-51040800D01*
X115970750Y-51040800D01*
X116129500Y-50882050D01*
X116129500Y-50203290D01*
X116094513Y-50118825D01*
X116167406Y-49943280D01*
X116167793Y-49498671D01*
X115998008Y-49087758D01*
X115683896Y-48773097D01*
X115273280Y-48602594D01*
X114828671Y-48602207D01*
X114417758Y-48771992D01*
X114103097Y-49086104D01*
X113932594Y-49496720D01*
X113932207Y-49941329D01*
X113627407Y-49941329D01*
X113627793Y-49498671D01*
X113458008Y-49087758D01*
X113143896Y-48773097D01*
X112733280Y-48602594D01*
X112288671Y-48602207D01*
X111877758Y-48771992D01*
X111563097Y-49086104D01*
X111392594Y-49496720D01*
X111392207Y-49941329D01*
X111462323Y-50111023D01*
X111418060Y-50329600D01*
X111418060Y-52006000D01*
X111462338Y-52241317D01*
X111601410Y-52457441D01*
X111813610Y-52602431D01*
X112018128Y-52643847D01*
X111964900Y-52772351D01*
X111964900Y-53913390D01*
X112123650Y-54072140D01*
X113273000Y-54072140D01*
X113273000Y-54052140D01*
X113527000Y-54052140D01*
X113527000Y-54072140D01*
X114676350Y-54072140D01*
X114835100Y-53913390D01*
X114835100Y-52772351D01*
X114775877Y-52629373D01*
X114922998Y-52482252D01*
X114922998Y-52641000D01*
X114965182Y-52641000D01*
X114964786Y-53094579D01*
X115152408Y-53548657D01*
X115499515Y-53896371D01*
X115953266Y-54084785D01*
X116324952Y-54085110D01*
X116954842Y-54715000D01*
X115922824Y-54715000D01*
X115789991Y-54741422D01*
X115656072Y-54761713D01*
X115640387Y-54771181D01*
X115622418Y-54774755D01*
X115509802Y-54850002D01*
X115393847Y-54919993D01*
X114835100Y-55429580D01*
X114835100Y-54484890D01*
X114676350Y-54326140D01*
X113527000Y-54326140D01*
X113527000Y-54346140D01*
X113273000Y-54346140D01*
X113273000Y-54326140D01*
X112123650Y-54326140D01*
X111964900Y-54484890D01*
X111964900Y-55625929D01*
X112061573Y-55859318D01*
X112203273Y-56001018D01*
X112148459Y-56036290D01*
X112003469Y-56248490D01*
X111952460Y-56500380D01*
X111952460Y-56983126D01*
X110172440Y-56943118D01*
X110172440Y-56900000D01*
X110128162Y-56664683D01*
X109989090Y-56448559D01*
X109920994Y-56402031D01*
X110063327Y-56259698D01*
X110160000Y-56026309D01*
X110160000Y-55435750D01*
X110001250Y-55277000D01*
X109027000Y-55277000D01*
X109027000Y-55297000D01*
X108773000Y-55297000D01*
X108773000Y-55277000D01*
X107798750Y-55277000D01*
X107640000Y-55435750D01*
X107640000Y-56026309D01*
X107736673Y-56259698D01*
X107877910Y-56400936D01*
X107823559Y-56435910D01*
X107678569Y-56648110D01*
X107627560Y-56900000D01*
X107627560Y-57751497D01*
X107010000Y-58317594D01*
X107010000Y-58235750D01*
X106851250Y-58077000D01*
X106127000Y-58077000D01*
X106127000Y-58097000D01*
X105873000Y-58097000D01*
X105873000Y-58077000D01*
X105148750Y-58077000D01*
X104990000Y-58235750D01*
X104990000Y-58485619D01*
X103510902Y-58465076D01*
X103505445Y-58466083D01*
X103500000Y-58465000D01*
X103355028Y-58493837D01*
X103209695Y-58520653D01*
X103205038Y-58523672D01*
X103199594Y-58524755D01*
X103076703Y-58606868D01*
X102952683Y-58687266D01*
X102949536Y-58691838D01*
X102944921Y-58694921D01*
X102511704Y-59128138D01*
X102260000Y-59078071D01*
X101710849Y-59187304D01*
X101245302Y-59498373D01*
X100992136Y-59877262D01*
X100644896Y-59445500D01*
X100151819Y-59175633D01*
X100069039Y-59158096D01*
X99847000Y-59280085D01*
X99847000Y-60873000D01*
X99867000Y-60873000D01*
X99867000Y-61127000D01*
X99847000Y-61127000D01*
X99847000Y-62719915D01*
X100069039Y-62841904D01*
X100151819Y-62824367D01*
X100644896Y-62554500D01*
X100992136Y-62122738D01*
X101215000Y-62456277D01*
X101215000Y-64524842D01*
X100274842Y-65465000D01*
X97830000Y-65465000D01*
X97529594Y-65524755D01*
X97274921Y-65694921D01*
X97119507Y-65850335D01*
X96847636Y-65634828D01*
X96750847Y-65585185D01*
X96660406Y-65524755D01*
X96615679Y-65515858D01*
X96575101Y-65495046D01*
X96466686Y-65486221D01*
X96360000Y-65465000D01*
X84000000Y-65465000D01*
X83699593Y-65524755D01*
X83444921Y-65694921D01*
X82194921Y-66944921D01*
X82024755Y-67199593D01*
X82024755Y-67199594D01*
X81965000Y-67500000D01*
X81965000Y-80500000D01*
X82024755Y-80800407D01*
X82194921Y-81055079D01*
X83715000Y-82575158D01*
X83715000Y-98350000D01*
X83774755Y-98650407D01*
X83944921Y-98905079D01*
X85304842Y-100265000D01*
X83972235Y-100265000D01*
X83571873Y-99665814D01*
X83427000Y-98937491D01*
X83427000Y-97128427D01*
X83424560Y-97103651D01*
X83272319Y-96338284D01*
X83253356Y-96292503D01*
X82819811Y-95643657D01*
X82804017Y-95624411D01*
X81675589Y-94495983D01*
X81656343Y-94480189D01*
X81007497Y-94046644D01*
X80961716Y-94027681D01*
X80196349Y-93875440D01*
X80171573Y-93873000D01*
X78212509Y-93873000D01*
X77484186Y-93728127D01*
X76885000Y-93327765D01*
X76885000Y-85276905D01*
X78305000Y-85276905D01*
X78305000Y-90723095D01*
X80895000Y-90723095D01*
X80895000Y-85276905D01*
X78305000Y-85276905D01*
X76885000Y-85276905D01*
X76885000Y-82517466D01*
X76921376Y-82334591D01*
X76986751Y-82236750D01*
X77084590Y-82171376D01*
X77267466Y-82135000D01*
X80200000Y-82135000D01*
X80266170Y-82121838D01*
X80333636Y-82121838D01*
X80716319Y-82045718D01*
X80963248Y-81943437D01*
X80963249Y-81943436D01*
X81287672Y-81726664D01*
X81476664Y-81537672D01*
X81693437Y-81213249D01*
X81747123Y-81083637D01*
X81795718Y-80966319D01*
X81871838Y-80583636D01*
X81871838Y-80516170D01*
X81885000Y-80450000D01*
X81885000Y-65450000D01*
X81871838Y-65383830D01*
X81871838Y-65316364D01*
X81795718Y-64933681D01*
X81709969Y-64726663D01*
X81693437Y-64686751D01*
X81476664Y-64362328D01*
X81287672Y-64173336D01*
X80963248Y-63956563D01*
X80909664Y-63934368D01*
X80716319Y-63854282D01*
X80333636Y-63778162D01*
X80266170Y-63778162D01*
X80200000Y-63765000D01*
X77267466Y-63765000D01*
X77084590Y-63728624D01*
X76986751Y-63663250D01*
X76921376Y-63565409D01*
X76885000Y-63382534D01*
X76885000Y-60513071D01*
X83045000Y-60513071D01*
X83045000Y-61486929D01*
X83154233Y-62036080D01*
X83465302Y-62501627D01*
X83930849Y-62812696D01*
X84480000Y-62921929D01*
X85029151Y-62812696D01*
X85494698Y-62501627D01*
X85750000Y-62119541D01*
X86005302Y-62501627D01*
X86470849Y-62812696D01*
X87020000Y-62921929D01*
X87569151Y-62812696D01*
X88034698Y-62501627D01*
X88290000Y-62119541D01*
X88545302Y-62501627D01*
X89010849Y-62812696D01*
X89560000Y-62921929D01*
X90109151Y-62812696D01*
X90574698Y-62501627D01*
X90830000Y-62119541D01*
X91085302Y-62501627D01*
X91550849Y-62812696D01*
X92100000Y-62921929D01*
X92649151Y-62812696D01*
X93114698Y-62501627D01*
X93370000Y-62119541D01*
X93625302Y-62501627D01*
X94090849Y-62812696D01*
X94640000Y-62921929D01*
X95189151Y-62812696D01*
X95654698Y-62501627D01*
X95910000Y-62119541D01*
X96165302Y-62501627D01*
X96630849Y-62812696D01*
X97180000Y-62921929D01*
X97729151Y-62812696D01*
X98194698Y-62501627D01*
X98447864Y-62122738D01*
X98795104Y-62554500D01*
X99288181Y-62824367D01*
X99370961Y-62841904D01*
X99593000Y-62719915D01*
X99593000Y-61127000D01*
X99573000Y-61127000D01*
X99573000Y-60873000D01*
X99593000Y-60873000D01*
X99593000Y-59280085D01*
X99370961Y-59158096D01*
X99288181Y-59175633D01*
X98795104Y-59445500D01*
X98447864Y-59877262D01*
X98194698Y-59498373D01*
X97915000Y-59311485D01*
X97915000Y-58124446D01*
X98392516Y-57646930D01*
X103448550Y-57646930D01*
X103683867Y-57602652D01*
X103899991Y-57463580D01*
X104044981Y-57251380D01*
X104095990Y-56999490D01*
X104095990Y-56785000D01*
X105002962Y-56785000D01*
X105021838Y-56885317D01*
X105088329Y-56988646D01*
X105086673Y-56990302D01*
X104990000Y-57223691D01*
X104990000Y-57664250D01*
X105148750Y-57823000D01*
X105873000Y-57823000D01*
X105873000Y-57803000D01*
X106127000Y-57803000D01*
X106127000Y-57823000D01*
X106851250Y-57823000D01*
X107010000Y-57664250D01*
X107010000Y-57223691D01*
X106913327Y-56990302D01*
X106911957Y-56988932D01*
X106971431Y-56901890D01*
X107022440Y-56650000D01*
X107022440Y-55450000D01*
X106978162Y-55214683D01*
X106839090Y-54998559D01*
X106626890Y-54853569D01*
X106375000Y-54802560D01*
X105625000Y-54802560D01*
X105389683Y-54846838D01*
X105173559Y-54985910D01*
X105028569Y-55198110D01*
X105004898Y-55315000D01*
X104095990Y-55315000D01*
X104095990Y-55000510D01*
X104051712Y-54765193D01*
X103912640Y-54549069D01*
X103700440Y-54404079D01*
X103448550Y-54353070D01*
X97949450Y-54353070D01*
X97714133Y-54397348D01*
X97498009Y-54536420D01*
X97353019Y-54748620D01*
X97302010Y-55000510D01*
X97302010Y-56658544D01*
X96660277Y-57300277D01*
X96500949Y-57538728D01*
X96445000Y-57820000D01*
X96445000Y-59311485D01*
X96165302Y-59498373D01*
X95910000Y-59880459D01*
X95654698Y-59498373D01*
X95375000Y-59311485D01*
X95375000Y-57640000D01*
X95319051Y-57358728D01*
X95312947Y-57349593D01*
X95159723Y-57120276D01*
X94697990Y-56658543D01*
X94697990Y-55000510D01*
X94653712Y-54765193D01*
X94514640Y-54549069D01*
X94302440Y-54404079D01*
X94050550Y-54353070D01*
X88551450Y-54353070D01*
X88316133Y-54397348D01*
X88100009Y-54536420D01*
X87955019Y-54748620D01*
X87904010Y-55000510D01*
X87904010Y-55215000D01*
X86697038Y-55215000D01*
X86678162Y-55114683D01*
X86539090Y-54898559D01*
X86326890Y-54753569D01*
X86075000Y-54702560D01*
X85325000Y-54702560D01*
X85089683Y-54746838D01*
X84873559Y-54885910D01*
X84728569Y-55098110D01*
X84677560Y-55350000D01*
X84677560Y-56550000D01*
X84721838Y-56785317D01*
X84788329Y-56888646D01*
X84786673Y-56890302D01*
X84690000Y-57123691D01*
X84690000Y-57564250D01*
X84848750Y-57723000D01*
X85573000Y-57723000D01*
X85573000Y-57703000D01*
X85827000Y-57703000D01*
X85827000Y-57723000D01*
X86551250Y-57723000D01*
X86710000Y-57564250D01*
X86710000Y-57123691D01*
X86613327Y-56890302D01*
X86611957Y-56888932D01*
X86671431Y-56801890D01*
X86695102Y-56685000D01*
X87904010Y-56685000D01*
X87904010Y-56999490D01*
X87948288Y-57234807D01*
X88087360Y-57450931D01*
X88299560Y-57595921D01*
X88551450Y-57646930D01*
X93607483Y-57646930D01*
X93905000Y-57944447D01*
X93905000Y-59311485D01*
X93625302Y-59498373D01*
X93370000Y-59880459D01*
X93114698Y-59498373D01*
X92649151Y-59187304D01*
X92100000Y-59078071D01*
X91550849Y-59187304D01*
X91085302Y-59498373D01*
X90830000Y-59880459D01*
X90574698Y-59498373D01*
X90109151Y-59187304D01*
X89560000Y-59078071D01*
X89010849Y-59187304D01*
X88545302Y-59498373D01*
X88290000Y-59880459D01*
X88034698Y-59498373D01*
X87569151Y-59187304D01*
X87020000Y-59078071D01*
X86470849Y-59187304D01*
X86005302Y-59498373D01*
X85750000Y-59880459D01*
X85494698Y-59498373D01*
X85029151Y-59187304D01*
X84480000Y-59078071D01*
X83930849Y-59187304D01*
X83465302Y-59498373D01*
X83154233Y-59963920D01*
X83045000Y-60513071D01*
X76885000Y-60513071D01*
X76885000Y-58135750D01*
X84690000Y-58135750D01*
X84690000Y-58576309D01*
X84786673Y-58809698D01*
X84965301Y-58988327D01*
X85198690Y-59085000D01*
X85414250Y-59085000D01*
X85573000Y-58926250D01*
X85573000Y-57977000D01*
X85827000Y-57977000D01*
X85827000Y-58926250D01*
X85985750Y-59085000D01*
X86201310Y-59085000D01*
X86434699Y-58988327D01*
X86613327Y-58809698D01*
X86710000Y-58576309D01*
X86710000Y-58135750D01*
X86551250Y-57977000D01*
X85827000Y-57977000D01*
X85573000Y-57977000D01*
X84848750Y-57977000D01*
X84690000Y-58135750D01*
X76885000Y-58135750D01*
X76885000Y-52572235D01*
X77484186Y-52171873D01*
X78212509Y-52027000D01*
X80121573Y-52027000D01*
X80138150Y-52025914D01*
X80655788Y-51957766D01*
X80687812Y-51949185D01*
X81170174Y-51749384D01*
X81198886Y-51732807D01*
X81613099Y-51414970D01*
X81625589Y-51404017D01*
X82454017Y-50575589D01*
X82469811Y-50556343D01*
X82903356Y-49907497D01*
X82922319Y-49861716D01*
X83074560Y-49096349D01*
X83077000Y-49071573D01*
X83077000Y-46462509D01*
X83221873Y-45734186D01*
X83478060Y-45350774D01*
X83478060Y-46570400D01*
X83520142Y-46794047D01*
X83452594Y-46956720D01*
X83452207Y-47401329D01*
X83621992Y-47812242D01*
X83936104Y-48126903D01*
X84316144Y-48284710D01*
X84315855Y-48615766D01*
X83937758Y-48771992D01*
X83623097Y-49086104D01*
X83452594Y-49496720D01*
X83452207Y-49941329D01*
X83522323Y-50111023D01*
X83478060Y-50329600D01*
X83478060Y-52006000D01*
X83522338Y-52241317D01*
X83661410Y-52457441D01*
X83873610Y-52602431D01*
X84125500Y-52653440D01*
X84293282Y-52653440D01*
X85044921Y-53405079D01*
X85299593Y-53575245D01*
X85600000Y-53635000D01*
X107638600Y-53635000D01*
X107890067Y-53886907D01*
X107736673Y-54040302D01*
X107640000Y-54273691D01*
X107640000Y-54864250D01*
X107798750Y-55023000D01*
X108773000Y-55023000D01*
X108773000Y-55003000D01*
X109027000Y-55003000D01*
X109027000Y-55023000D01*
X110001250Y-55023000D01*
X110160000Y-54864250D01*
X110160000Y-54273691D01*
X110063327Y-54040302D01*
X109884699Y-53861673D01*
X109651310Y-53765000D01*
X109431481Y-53765000D01*
X109646371Y-53550485D01*
X109834785Y-53096734D01*
X109835172Y-52653440D01*
X110414500Y-52653440D01*
X110649817Y-52609162D01*
X110865941Y-52470090D01*
X111010931Y-52257890D01*
X111061940Y-52006000D01*
X111061940Y-50329600D01*
X111019858Y-50105953D01*
X111087406Y-49943280D01*
X111087793Y-49498671D01*
X110918008Y-49087758D01*
X110603896Y-48773097D01*
X110193280Y-48602594D01*
X109748671Y-48602207D01*
X109337758Y-48771992D01*
X109023097Y-49086104D01*
X108852594Y-49496720D01*
X108852207Y-49941329D01*
X108922323Y-50111023D01*
X108878060Y-50329600D01*
X108878060Y-51628223D01*
X108846734Y-51615215D01*
X108521940Y-51614931D01*
X108521940Y-50329600D01*
X108479858Y-50105953D01*
X108547406Y-49943280D01*
X108547793Y-49498671D01*
X108378008Y-49087758D01*
X108063896Y-48773097D01*
X107653280Y-48602594D01*
X107208671Y-48602207D01*
X106797758Y-48771992D01*
X106483097Y-49086104D01*
X106312594Y-49496720D01*
X106312207Y-49941329D01*
X106382323Y-50111023D01*
X106338060Y-50329600D01*
X106338060Y-52006000D01*
X106349162Y-52065000D01*
X105969992Y-52065000D01*
X105981940Y-52006000D01*
X105981940Y-50329600D01*
X105939858Y-50105953D01*
X106007406Y-49943280D01*
X106007793Y-49498671D01*
X105838008Y-49087758D01*
X105523896Y-48773097D01*
X105113280Y-48602594D01*
X104668671Y-48602207D01*
X104257758Y-48771992D01*
X103943097Y-49086104D01*
X103772594Y-49496720D01*
X103772207Y-49941329D01*
X103842323Y-50111023D01*
X103798060Y-50329600D01*
X103798060Y-52006000D01*
X103809162Y-52065000D01*
X103429992Y-52065000D01*
X103441940Y-52006000D01*
X103441940Y-50329600D01*
X103399858Y-50105953D01*
X103467406Y-49943280D01*
X103467793Y-49498671D01*
X103298008Y-49087758D01*
X102983896Y-48773097D01*
X102573280Y-48602594D01*
X102128671Y-48602207D01*
X101717758Y-48771992D01*
X101403097Y-49086104D01*
X101232594Y-49496720D01*
X101232207Y-49941329D01*
X101302323Y-50111023D01*
X101258060Y-50329600D01*
X101258060Y-52006000D01*
X101269162Y-52065000D01*
X100889992Y-52065000D01*
X100901940Y-52006000D01*
X100901940Y-50329600D01*
X100859858Y-50105953D01*
X100927406Y-49943280D01*
X100927793Y-49498671D01*
X100758008Y-49087758D01*
X100443896Y-48773097D01*
X100033280Y-48602594D01*
X99588671Y-48602207D01*
X99177758Y-48771992D01*
X98863097Y-49086104D01*
X98692594Y-49496720D01*
X98692207Y-49941329D01*
X98762323Y-50111023D01*
X98718060Y-50329600D01*
X98718060Y-52006000D01*
X98729162Y-52065000D01*
X98349992Y-52065000D01*
X98361940Y-52006000D01*
X98361940Y-50329600D01*
X98319858Y-50105953D01*
X98387406Y-49943280D01*
X98387793Y-49498671D01*
X98218008Y-49087758D01*
X97903896Y-48773097D01*
X97493280Y-48602594D01*
X97048671Y-48602207D01*
X96637758Y-48771992D01*
X96323097Y-49086104D01*
X96152594Y-49496720D01*
X96152207Y-49941329D01*
X96222323Y-50111023D01*
X96178060Y-50329600D01*
X96178060Y-52006000D01*
X96189162Y-52065000D01*
X95809500Y-52065000D01*
X95809500Y-51453550D01*
X95650750Y-51294800D01*
X94857000Y-51294800D01*
X94857000Y-51314800D01*
X94603000Y-51314800D01*
X94603000Y-51294800D01*
X93809250Y-51294800D01*
X93650500Y-51453550D01*
X93650500Y-52065000D01*
X93269992Y-52065000D01*
X93281940Y-52006000D01*
X93281940Y-50329600D01*
X93239858Y-50105953D01*
X93307406Y-49943280D01*
X93307407Y-49941329D01*
X93612207Y-49941329D01*
X93685517Y-50118753D01*
X93650500Y-50203290D01*
X93650500Y-50882050D01*
X93809250Y-51040800D01*
X94603000Y-51040800D01*
X94603000Y-51020800D01*
X94857000Y-51020800D01*
X94857000Y-51040800D01*
X95650750Y-51040800D01*
X95809500Y-50882050D01*
X95809500Y-50203290D01*
X95774513Y-50118825D01*
X95847406Y-49943280D01*
X95847793Y-49498671D01*
X95678008Y-49087758D01*
X95363896Y-48773097D01*
X94953280Y-48602594D01*
X94508671Y-48602207D01*
X94097758Y-48771992D01*
X93783097Y-49086104D01*
X93612594Y-49496720D01*
X93612207Y-49941329D01*
X93307407Y-49941329D01*
X93307793Y-49498671D01*
X93138008Y-49087758D01*
X92823896Y-48773097D01*
X92413280Y-48602594D01*
X91968671Y-48602207D01*
X91965951Y-48603331D01*
X92092937Y-48297516D01*
X92402048Y-48297785D01*
X92402408Y-48298657D01*
X92749515Y-48646371D01*
X93203266Y-48834785D01*
X93694579Y-48835214D01*
X94148657Y-48647592D01*
X94496371Y-48300485D01*
X94498983Y-48294194D01*
X94506720Y-48297406D01*
X94951329Y-48297793D01*
X95362242Y-48128008D01*
X95676903Y-47813896D01*
X95847406Y-47403280D01*
X95847793Y-46958671D01*
X95777677Y-46788977D01*
X95821940Y-46570400D01*
X95821940Y-45135000D01*
X96178060Y-45135000D01*
X96178060Y-46570400D01*
X96178060Y-46570400D01*
G37*
X96178060Y-46570400D02*
X96220142Y-46794047D01*
X96152594Y-46956720D01*
X96152207Y-47401329D01*
X96321992Y-47812242D01*
X96636104Y-48126903D01*
X97046720Y-48297406D01*
X97491329Y-48297793D01*
X97902242Y-48128008D01*
X98216903Y-47813896D01*
X98387406Y-47403280D01*
X98387407Y-47401329D01*
X98692207Y-47401329D01*
X98861992Y-47812242D01*
X99176104Y-48126903D01*
X99586720Y-48297406D01*
X100031329Y-48297793D01*
X100442242Y-48128008D01*
X100756903Y-47813896D01*
X100927406Y-47403280D01*
X100927793Y-46958671D01*
X100854483Y-46781247D01*
X100889500Y-46696710D01*
X100889500Y-46017950D01*
X100730750Y-45859200D01*
X99937000Y-45859200D01*
X99937000Y-45879200D01*
X99683000Y-45879200D01*
X99683000Y-45859200D01*
X98889250Y-45859200D01*
X98730500Y-46017950D01*
X98730500Y-46696710D01*
X98765487Y-46781175D01*
X98692594Y-46956720D01*
X98692207Y-47401329D01*
X98387407Y-47401329D01*
X98387793Y-46958671D01*
X98317677Y-46788977D01*
X98361940Y-46570400D01*
X98361940Y-45135000D01*
X98730500Y-45135000D01*
X98730500Y-45446450D01*
X98889250Y-45605200D01*
X99683000Y-45605200D01*
X99683000Y-45585200D01*
X99937000Y-45585200D01*
X99937000Y-45605200D01*
X100730750Y-45605200D01*
X100889500Y-45446450D01*
X100889500Y-45135000D01*
X101258060Y-45135000D01*
X101258060Y-46570400D01*
X101300142Y-46794047D01*
X101232594Y-46956720D01*
X101232207Y-47401329D01*
X101401992Y-47812242D01*
X101716104Y-48126903D01*
X102126720Y-48297406D01*
X102571329Y-48297793D01*
X102982242Y-48128008D01*
X103296903Y-47813896D01*
X103467406Y-47403280D01*
X103467793Y-46958671D01*
X103397677Y-46788977D01*
X103441940Y-46570400D01*
X103441940Y-45135000D01*
X103798060Y-45135000D01*
X103798060Y-46570400D01*
X103840142Y-46794047D01*
X103772594Y-46956720D01*
X103772207Y-47401329D01*
X103941992Y-47812242D01*
X104256104Y-48126903D01*
X104666720Y-48297406D01*
X105111329Y-48297793D01*
X105522242Y-48128008D01*
X105836903Y-47813896D01*
X106007406Y-47403280D01*
X106007407Y-47401329D01*
X106312207Y-47401329D01*
X106481992Y-47812242D01*
X106796104Y-48126903D01*
X107206720Y-48297406D01*
X107651329Y-48297793D01*
X108062242Y-48128008D01*
X108376903Y-47813896D01*
X108547406Y-47403280D01*
X108547793Y-46958671D01*
X108474483Y-46781247D01*
X108509500Y-46696710D01*
X108509500Y-46017950D01*
X108350750Y-45859200D01*
X107557000Y-45859200D01*
X107557000Y-45879200D01*
X107303000Y-45879200D01*
X107303000Y-45859200D01*
X106509250Y-45859200D01*
X106350500Y-46017950D01*
X106350500Y-46696710D01*
X106385487Y-46781175D01*
X106312594Y-46956720D01*
X106312207Y-47401329D01*
X106007407Y-47401329D01*
X106007793Y-46958671D01*
X105937677Y-46788977D01*
X105981940Y-46570400D01*
X105981940Y-45135000D01*
X106350500Y-45135000D01*
X106350500Y-45446450D01*
X106509250Y-45605200D01*
X107303000Y-45605200D01*
X107303000Y-45585200D01*
X107557000Y-45585200D01*
X107557000Y-45605200D01*
X108350750Y-45605200D01*
X108509500Y-45446450D01*
X108509500Y-45135000D01*
X108878060Y-45135000D01*
X108878060Y-46570400D01*
X108920142Y-46794047D01*
X108852594Y-46956720D01*
X108852207Y-47401329D01*
X109021992Y-47812242D01*
X109336104Y-48126903D01*
X109746720Y-48297406D01*
X110191329Y-48297793D01*
X110602242Y-48128008D01*
X110916903Y-47813896D01*
X111087406Y-47403280D01*
X111087793Y-46958671D01*
X111017677Y-46788977D01*
X111061940Y-46570400D01*
X111061940Y-45135000D01*
X111418060Y-45135000D01*
X111418060Y-46570400D01*
X111460142Y-46794047D01*
X111392594Y-46956720D01*
X111392207Y-47401329D01*
X111561992Y-47812242D01*
X111876104Y-48126903D01*
X112286720Y-48297406D01*
X112731329Y-48297793D01*
X113142242Y-48128008D01*
X113456903Y-47813896D01*
X113627406Y-47403280D01*
X113627793Y-46958671D01*
X113557677Y-46788977D01*
X113601940Y-46570400D01*
X113601940Y-45135000D01*
X113958060Y-45135000D01*
X113958060Y-46570400D01*
X114000142Y-46794047D01*
X113932594Y-46956720D01*
X113932207Y-47401329D01*
X114101992Y-47812242D01*
X114416104Y-48126903D01*
X114826720Y-48297406D01*
X115271329Y-48297793D01*
X115682242Y-48128008D01*
X115996903Y-47813896D01*
X116167406Y-47403280D01*
X116167793Y-46958671D01*
X116097677Y-46788977D01*
X116141940Y-46570400D01*
X116141940Y-45135000D01*
X116498060Y-45135000D01*
X116498060Y-46570400D01*
X116540142Y-46794047D01*
X116472594Y-46956720D01*
X116472207Y-47401329D01*
X116641992Y-47812242D01*
X116956104Y-48126903D01*
X117366720Y-48297406D01*
X117811329Y-48297793D01*
X118222242Y-48128008D01*
X118536903Y-47813896D01*
X118707406Y-47403280D01*
X118707407Y-47401329D01*
X119012207Y-47401329D01*
X119181992Y-47812242D01*
X119496104Y-48126903D01*
X119906720Y-48297406D01*
X120351329Y-48297793D01*
X120762242Y-48128008D01*
X121076903Y-47813896D01*
X121247406Y-47403280D01*
X121247793Y-46958671D01*
X121174483Y-46781247D01*
X121209500Y-46696710D01*
X121209500Y-46017950D01*
X121050750Y-45859200D01*
X120257000Y-45859200D01*
X120257000Y-45879200D01*
X120003000Y-45879200D01*
X120003000Y-45859200D01*
X119209250Y-45859200D01*
X119050500Y-46017950D01*
X119050500Y-46696710D01*
X119085487Y-46781175D01*
X119012594Y-46956720D01*
X119012207Y-47401329D01*
X118707407Y-47401329D01*
X118707793Y-46958671D01*
X118637677Y-46788977D01*
X118681940Y-46570400D01*
X118681940Y-45135000D01*
X119050500Y-45135000D01*
X119050500Y-45446450D01*
X119209250Y-45605200D01*
X120003000Y-45605200D01*
X120003000Y-45585200D01*
X120257000Y-45585200D01*
X120257000Y-45605200D01*
X121050750Y-45605200D01*
X121209500Y-45446450D01*
X121209500Y-45135000D01*
X121578060Y-45135000D01*
X121578060Y-46570400D01*
X121620142Y-46794047D01*
X121552594Y-46956720D01*
X121552207Y-47401329D01*
X121721992Y-47812242D01*
X122036104Y-48126903D01*
X122446720Y-48297406D01*
X122891329Y-48297793D01*
X123302242Y-48128008D01*
X123616903Y-47813896D01*
X123787406Y-47403280D01*
X123787407Y-47401329D01*
X124092207Y-47401329D01*
X124261992Y-47812242D01*
X124576104Y-48126903D01*
X124986720Y-48297406D01*
X125431329Y-48297793D01*
X125842242Y-48128008D01*
X126156903Y-47813896D01*
X126327406Y-47403280D01*
X126327793Y-46958671D01*
X126254483Y-46781247D01*
X126289500Y-46696710D01*
X126289500Y-46017950D01*
X126130750Y-45859200D01*
X125337000Y-45859200D01*
X125337000Y-45879200D01*
X125083000Y-45879200D01*
X125083000Y-45859200D01*
X124289250Y-45859200D01*
X124130500Y-46017950D01*
X124130500Y-46696710D01*
X124165487Y-46781175D01*
X124092594Y-46956720D01*
X124092207Y-47401329D01*
X123787407Y-47401329D01*
X123787793Y-46958671D01*
X123717677Y-46788977D01*
X123761940Y-46570400D01*
X123761940Y-45135000D01*
X124130500Y-45135000D01*
X124130500Y-45446450D01*
X124289250Y-45605200D01*
X125083000Y-45605200D01*
X125083000Y-45585200D01*
X125337000Y-45585200D01*
X125337000Y-45605200D01*
X126130750Y-45605200D01*
X126289500Y-45446450D01*
X126289500Y-45135000D01*
X126658060Y-45135000D01*
X126658060Y-46570400D01*
X126700142Y-46794047D01*
X126632594Y-46956720D01*
X126632207Y-47401329D01*
X126801992Y-47812242D01*
X127116104Y-48126903D01*
X127526720Y-48297406D01*
X127971329Y-48297793D01*
X128382242Y-48128008D01*
X128696903Y-47813896D01*
X128867406Y-47403280D01*
X128867793Y-46958671D01*
X128797677Y-46788977D01*
X128841940Y-46570400D01*
X128841940Y-45135000D01*
X129198060Y-45135000D01*
X129198060Y-46570400D01*
X129240142Y-46794047D01*
X129172594Y-46956720D01*
X129172207Y-47401329D01*
X129341992Y-47812242D01*
X129656104Y-48126903D01*
X130036144Y-48284710D01*
X130035855Y-48615766D01*
X129657758Y-48771992D01*
X129343097Y-49086104D01*
X129172594Y-49496720D01*
X129172207Y-49941329D01*
X129242323Y-50111023D01*
X129198060Y-50329600D01*
X129198060Y-52006000D01*
X129242338Y-52241317D01*
X129381410Y-52457441D01*
X129593610Y-52602431D01*
X129845500Y-52653440D01*
X130734500Y-52653440D01*
X130969817Y-52609162D01*
X131185941Y-52470090D01*
X131330931Y-52257890D01*
X131381940Y-52006000D01*
X131381940Y-51453550D01*
X131750500Y-51453550D01*
X131750500Y-52132310D01*
X131847173Y-52365699D01*
X132025802Y-52544327D01*
X132259191Y-52641000D01*
X132544250Y-52641000D01*
X132703000Y-52482250D01*
X132703000Y-51294800D01*
X132957000Y-51294800D01*
X132957000Y-52482250D01*
X133115750Y-52641000D01*
X133400809Y-52641000D01*
X133634198Y-52544327D01*
X133812827Y-52365699D01*
X133909500Y-52132310D01*
X133909500Y-51453550D01*
X133750750Y-51294800D01*
X132957000Y-51294800D01*
X132703000Y-51294800D01*
X131909250Y-51294800D01*
X131750500Y-51453550D01*
X131381940Y-51453550D01*
X131381940Y-50329600D01*
X131339858Y-50105953D01*
X131394710Y-49973856D01*
X131725766Y-49974145D01*
X131785517Y-50118753D01*
X131750500Y-50203290D01*
X131750500Y-50882050D01*
X131909250Y-51040800D01*
X132703000Y-51040800D01*
X132703000Y-51020800D01*
X132957000Y-51020800D01*
X132957000Y-51040800D01*
X133750750Y-51040800D01*
X133909500Y-50882050D01*
X133909500Y-50203290D01*
X133874513Y-50118825D01*
X133947406Y-49943280D01*
X133947793Y-49498671D01*
X133778008Y-49087758D01*
X133463896Y-48773097D01*
X133083856Y-48615290D01*
X133084145Y-48284234D01*
X133462242Y-48128008D01*
X133776903Y-47813896D01*
X133947406Y-47403280D01*
X133947793Y-46958671D01*
X133877677Y-46788977D01*
X133921940Y-46570400D01*
X133921940Y-45350774D01*
X134178127Y-45734186D01*
X134323000Y-46462509D01*
X134323000Y-49421573D01*
X134325440Y-49446349D01*
X134477681Y-50211716D01*
X134496644Y-50257497D01*
X134930189Y-50906343D01*
X134945983Y-50925589D01*
X135324411Y-51304017D01*
X135336901Y-51314970D01*
X135751114Y-51632807D01*
X135779826Y-51649384D01*
X136262188Y-51849185D01*
X136294212Y-51857766D01*
X136811850Y-51925914D01*
X136828427Y-51927000D01*
X139187491Y-51927000D01*
X139915814Y-52071873D01*
X140515000Y-52472235D01*
X140515000Y-60404842D01*
X140135079Y-60024921D01*
X139880407Y-59854755D01*
X139580000Y-59795000D01*
X139413678Y-59795000D01*
X139224763Y-59512269D01*
X138922046Y-59310000D01*
X139224763Y-59107731D01*
X139552090Y-58617852D01*
X139667032Y-58040000D01*
X139552090Y-57462148D01*
X139224763Y-56972269D01*
X139211413Y-56963349D01*
X139359698Y-56901927D01*
X139538327Y-56723299D01*
X139635000Y-56489910D01*
X139635000Y-55785750D01*
X139476250Y-55627000D01*
X138127000Y-55627000D01*
X138127000Y-55647000D01*
X137873000Y-55647000D01*
X137873000Y-55627000D01*
X137853000Y-55627000D01*
X137853000Y-55373000D01*
X137873000Y-55373000D01*
X137873000Y-54160150D01*
X138127000Y-54160150D01*
X138127000Y-55373000D01*
X139476250Y-55373000D01*
X139635000Y-55214250D01*
X139635000Y-54510090D01*
X139538327Y-54276701D01*
X139359698Y-54098073D01*
X139126309Y-54001400D01*
X138285750Y-54001400D01*
X138127000Y-54160150D01*
X137873000Y-54160150D01*
X137714250Y-54001400D01*
X136873691Y-54001400D01*
X136640302Y-54098073D01*
X136461673Y-54276701D01*
X136365000Y-54510090D01*
X136365000Y-54825553D01*
X135297440Y-53757994D01*
X135297440Y-53500000D01*
X135253162Y-53264683D01*
X135114090Y-53048559D01*
X134901890Y-52903569D01*
X134650000Y-52852560D01*
X133350000Y-52852560D01*
X133114683Y-52896838D01*
X132898559Y-53035910D01*
X132753569Y-53248110D01*
X132709879Y-53463860D01*
X130147490Y-53463860D01*
X130147490Y-53298430D01*
X130103212Y-53063113D01*
X129964140Y-52846989D01*
X129751940Y-52701999D01*
X129500050Y-52650990D01*
X128699950Y-52650990D01*
X128464633Y-52695268D01*
X128248509Y-52834340D01*
X128103519Y-53046540D01*
X128052510Y-53298430D01*
X128052510Y-54865000D01*
X127904447Y-54865000D01*
X126669723Y-53630277D01*
X126431272Y-53470949D01*
X126197440Y-53424436D01*
X126197440Y-53400000D01*
X126153162Y-53164683D01*
X126014090Y-52948559D01*
X125801890Y-52803569D01*
X125550000Y-52752560D01*
X124250000Y-52752560D01*
X124014683Y-52796838D01*
X123798559Y-52935910D01*
X123653569Y-53148110D01*
X123602560Y-53400000D01*
X123602560Y-53415000D01*
X123254447Y-53415000D01*
X122492886Y-52653440D01*
X123114500Y-52653440D01*
X123349817Y-52609162D01*
X123565941Y-52470090D01*
X123710931Y-52257890D01*
X123761940Y-52006000D01*
X123761940Y-50329600D01*
X123719858Y-50105953D01*
X123787406Y-49943280D01*
X123787407Y-49941329D01*
X124092207Y-49941329D01*
X124162323Y-50111023D01*
X124118060Y-50329600D01*
X124118060Y-52006000D01*
X124162338Y-52241317D01*
X124301410Y-52457441D01*
X124513610Y-52602431D01*
X124765500Y-52653440D01*
X125654500Y-52653440D01*
X125889817Y-52609162D01*
X126105941Y-52470090D01*
X126250931Y-52257890D01*
X126301940Y-52006000D01*
X126301940Y-50329600D01*
X126259858Y-50105953D01*
X126327406Y-49943280D01*
X126327407Y-49941329D01*
X126632207Y-49941329D01*
X126702323Y-50111023D01*
X126658060Y-50329600D01*
X126658060Y-52006000D01*
X126702338Y-52241317D01*
X126841410Y-52457441D01*
X127053610Y-52602431D01*
X127305500Y-52653440D01*
X128194500Y-52653440D01*
X128429817Y-52609162D01*
X128645941Y-52470090D01*
X128790931Y-52257890D01*
X128841940Y-52006000D01*
X128841940Y-50329600D01*
X128799858Y-50105953D01*
X128867406Y-49943280D01*
X128867793Y-49498671D01*
X128698008Y-49087758D01*
X128383896Y-48773097D01*
X127973280Y-48602594D01*
X127528671Y-48602207D01*
X127117758Y-48771992D01*
X126803097Y-49086104D01*
X126632594Y-49496720D01*
X126632207Y-49941329D01*
X126327407Y-49941329D01*
X126327793Y-49498671D01*
X126158008Y-49087758D01*
X125843896Y-48773097D01*
X125433280Y-48602594D01*
X124988671Y-48602207D01*
X124577758Y-48771992D01*
X124263097Y-49086104D01*
X124092594Y-49496720D01*
X124092207Y-49941329D01*
X123787407Y-49941329D01*
X123787793Y-49498671D01*
X123618008Y-49087758D01*
X123303896Y-48773097D01*
X122893280Y-48602594D01*
X122448671Y-48602207D01*
X122037758Y-48771992D01*
X121723097Y-49086104D01*
X121552594Y-49496720D01*
X121552207Y-49941329D01*
X121622323Y-50111023D01*
X121578060Y-50329600D01*
X121578060Y-52006000D01*
X121622338Y-52241317D01*
X121637578Y-52265000D01*
X121166073Y-52265000D01*
X121170931Y-52257890D01*
X121221940Y-52006000D01*
X121221940Y-50329600D01*
X121179858Y-50105953D01*
X121247406Y-49943280D01*
X121247793Y-49498671D01*
X121078008Y-49087758D01*
X120763896Y-48773097D01*
X120353280Y-48602594D01*
X119908671Y-48602207D01*
X119497758Y-48771992D01*
X119183097Y-49086104D01*
X119012594Y-49496720D01*
X119012207Y-49941329D01*
X119082323Y-50111023D01*
X119038060Y-50329600D01*
X119038060Y-52006000D01*
X119082338Y-52241317D01*
X119093912Y-52259303D01*
X119053629Y-52299515D01*
X118865215Y-52753266D01*
X118864786Y-53244579D01*
X119038501Y-53665000D01*
X118125158Y-53665000D01*
X117434892Y-52974734D01*
X117435172Y-52653440D01*
X118034500Y-52653440D01*
X118269817Y-52609162D01*
X118485941Y-52470090D01*
X118630931Y-52257890D01*
X118681940Y-52006000D01*
X118681940Y-50329600D01*
X118639858Y-50105953D01*
X118707406Y-49943280D01*
X118707793Y-49498671D01*
X118538008Y-49087758D01*
X118223896Y-48773097D01*
X117813280Y-48602594D01*
X117368671Y-48602207D01*
X116957758Y-48771992D01*
X116643097Y-49086104D01*
X116472594Y-49496720D01*
X116472207Y-49941329D01*
X116542323Y-50111023D01*
X116498060Y-50329600D01*
X116498060Y-51636527D01*
X116446734Y-51615215D01*
X116129500Y-51614938D01*
X116129500Y-51453550D01*
X115970750Y-51294800D01*
X115177000Y-51294800D01*
X115177000Y-51314800D01*
X114923000Y-51314800D01*
X114923000Y-51294800D01*
X114129250Y-51294800D01*
X113970500Y-51453550D01*
X113970500Y-52132310D01*
X114024907Y-52263660D01*
X113685750Y-52263660D01*
X113527002Y-52422408D01*
X113527002Y-52292911D01*
X113550931Y-52257890D01*
X113601940Y-52006000D01*
X113601940Y-50329600D01*
X113559858Y-50105953D01*
X113627406Y-49943280D01*
X113627407Y-49941329D01*
X113932207Y-49941329D01*
X114005517Y-50118753D01*
X113970500Y-50203290D01*
X113970500Y-50882050D01*
X114129250Y-51040800D01*
X114923000Y-51040800D01*
X114923000Y-51020800D01*
X115177000Y-51020800D01*
X115177000Y-51040800D01*
X115970750Y-51040800D01*
X116129500Y-50882050D01*
X116129500Y-50203290D01*
X116094513Y-50118825D01*
X116167406Y-49943280D01*
X116167793Y-49498671D01*
X115998008Y-49087758D01*
X115683896Y-48773097D01*
X115273280Y-48602594D01*
X114828671Y-48602207D01*
X114417758Y-48771992D01*
X114103097Y-49086104D01*
X113932594Y-49496720D01*
X113932207Y-49941329D01*
X113627407Y-49941329D01*
X113627793Y-49498671D01*
X113458008Y-49087758D01*
X113143896Y-48773097D01*
X112733280Y-48602594D01*
X112288671Y-48602207D01*
X111877758Y-48771992D01*
X111563097Y-49086104D01*
X111392594Y-49496720D01*
X111392207Y-49941329D01*
X111462323Y-50111023D01*
X111418060Y-50329600D01*
X111418060Y-52006000D01*
X111462338Y-52241317D01*
X111601410Y-52457441D01*
X111813610Y-52602431D01*
X112018128Y-52643847D01*
X111964900Y-52772351D01*
X111964900Y-53913390D01*
X112123650Y-54072140D01*
X113273000Y-54072140D01*
X113273000Y-54052140D01*
X113527000Y-54052140D01*
X113527000Y-54072140D01*
X114676350Y-54072140D01*
X114835100Y-53913390D01*
X114835100Y-52772351D01*
X114775877Y-52629373D01*
X114922998Y-52482252D01*
X114922998Y-52641000D01*
X114965182Y-52641000D01*
X114964786Y-53094579D01*
X115152408Y-53548657D01*
X115499515Y-53896371D01*
X115953266Y-54084785D01*
X116324952Y-54085110D01*
X116954842Y-54715000D01*
X115922824Y-54715000D01*
X115789991Y-54741422D01*
X115656072Y-54761713D01*
X115640387Y-54771181D01*
X115622418Y-54774755D01*
X115509802Y-54850002D01*
X115393847Y-54919993D01*
X114835100Y-55429580D01*
X114835100Y-54484890D01*
X114676350Y-54326140D01*
X113527000Y-54326140D01*
X113527000Y-54346140D01*
X113273000Y-54346140D01*
X113273000Y-54326140D01*
X112123650Y-54326140D01*
X111964900Y-54484890D01*
X111964900Y-55625929D01*
X112061573Y-55859318D01*
X112203273Y-56001018D01*
X112148459Y-56036290D01*
X112003469Y-56248490D01*
X111952460Y-56500380D01*
X111952460Y-56983126D01*
X110172440Y-56943118D01*
X110172440Y-56900000D01*
X110128162Y-56664683D01*
X109989090Y-56448559D01*
X109920994Y-56402031D01*
X110063327Y-56259698D01*
X110160000Y-56026309D01*
X110160000Y-55435750D01*
X110001250Y-55277000D01*
X109027000Y-55277000D01*
X109027000Y-55297000D01*
X108773000Y-55297000D01*
X108773000Y-55277000D01*
X107798750Y-55277000D01*
X107640000Y-55435750D01*
X107640000Y-56026309D01*
X107736673Y-56259698D01*
X107877910Y-56400936D01*
X107823559Y-56435910D01*
X107678569Y-56648110D01*
X107627560Y-56900000D01*
X107627560Y-57751497D01*
X107010000Y-58317594D01*
X107010000Y-58235750D01*
X106851250Y-58077000D01*
X106127000Y-58077000D01*
X106127000Y-58097000D01*
X105873000Y-58097000D01*
X105873000Y-58077000D01*
X105148750Y-58077000D01*
X104990000Y-58235750D01*
X104990000Y-58485619D01*
X103510902Y-58465076D01*
X103505445Y-58466083D01*
X103500000Y-58465000D01*
X103355028Y-58493837D01*
X103209695Y-58520653D01*
X103205038Y-58523672D01*
X103199594Y-58524755D01*
X103076703Y-58606868D01*
X102952683Y-58687266D01*
X102949536Y-58691838D01*
X102944921Y-58694921D01*
X102511704Y-59128138D01*
X102260000Y-59078071D01*
X101710849Y-59187304D01*
X101245302Y-59498373D01*
X100992136Y-59877262D01*
X100644896Y-59445500D01*
X100151819Y-59175633D01*
X100069039Y-59158096D01*
X99847000Y-59280085D01*
X99847000Y-60873000D01*
X99867000Y-60873000D01*
X99867000Y-61127000D01*
X99847000Y-61127000D01*
X99847000Y-62719915D01*
X100069039Y-62841904D01*
X100151819Y-62824367D01*
X100644896Y-62554500D01*
X100992136Y-62122738D01*
X101215000Y-62456277D01*
X101215000Y-64524842D01*
X100274842Y-65465000D01*
X97830000Y-65465000D01*
X97529594Y-65524755D01*
X97274921Y-65694921D01*
X97119507Y-65850335D01*
X96847636Y-65634828D01*
X96750847Y-65585185D01*
X96660406Y-65524755D01*
X96615679Y-65515858D01*
X96575101Y-65495046D01*
X96466686Y-65486221D01*
X96360000Y-65465000D01*
X84000000Y-65465000D01*
X83699593Y-65524755D01*
X83444921Y-65694921D01*
X82194921Y-66944921D01*
X82024755Y-67199593D01*
X82024755Y-67199594D01*
X81965000Y-67500000D01*
X81965000Y-80500000D01*
X82024755Y-80800407D01*
X82194921Y-81055079D01*
X83715000Y-82575158D01*
X83715000Y-98350000D01*
X83774755Y-98650407D01*
X83944921Y-98905079D01*
X85304842Y-100265000D01*
X83972235Y-100265000D01*
X83571873Y-99665814D01*
X83427000Y-98937491D01*
X83427000Y-97128427D01*
X83424560Y-97103651D01*
X83272319Y-96338284D01*
X83253356Y-96292503D01*
X82819811Y-95643657D01*
X82804017Y-95624411D01*
X81675589Y-94495983D01*
X81656343Y-94480189D01*
X81007497Y-94046644D01*
X80961716Y-94027681D01*
X80196349Y-93875440D01*
X80171573Y-93873000D01*
X78212509Y-93873000D01*
X77484186Y-93728127D01*
X76885000Y-93327765D01*
X76885000Y-85276905D01*
X78305000Y-85276905D01*
X78305000Y-90723095D01*
X80895000Y-90723095D01*
X80895000Y-85276905D01*
X78305000Y-85276905D01*
X76885000Y-85276905D01*
X76885000Y-82517466D01*
X76921376Y-82334591D01*
X76986751Y-82236750D01*
X77084590Y-82171376D01*
X77267466Y-82135000D01*
X80200000Y-82135000D01*
X80266170Y-82121838D01*
X80333636Y-82121838D01*
X80716319Y-82045718D01*
X80963248Y-81943437D01*
X80963249Y-81943436D01*
X81287672Y-81726664D01*
X81476664Y-81537672D01*
X81693437Y-81213249D01*
X81747123Y-81083637D01*
X81795718Y-80966319D01*
X81871838Y-80583636D01*
X81871838Y-80516170D01*
X81885000Y-80450000D01*
X81885000Y-65450000D01*
X81871838Y-65383830D01*
X81871838Y-65316364D01*
X81795718Y-64933681D01*
X81709969Y-64726663D01*
X81693437Y-64686751D01*
X81476664Y-64362328D01*
X81287672Y-64173336D01*
X80963248Y-63956563D01*
X80909664Y-63934368D01*
X80716319Y-63854282D01*
X80333636Y-63778162D01*
X80266170Y-63778162D01*
X80200000Y-63765000D01*
X77267466Y-63765000D01*
X77084590Y-63728624D01*
X76986751Y-63663250D01*
X76921376Y-63565409D01*
X76885000Y-63382534D01*
X76885000Y-60513071D01*
X83045000Y-60513071D01*
X83045000Y-61486929D01*
X83154233Y-62036080D01*
X83465302Y-62501627D01*
X83930849Y-62812696D01*
X84480000Y-62921929D01*
X85029151Y-62812696D01*
X85494698Y-62501627D01*
X85750000Y-62119541D01*
X86005302Y-62501627D01*
X86470849Y-62812696D01*
X87020000Y-62921929D01*
X87569151Y-62812696D01*
X88034698Y-62501627D01*
X88290000Y-62119541D01*
X88545302Y-62501627D01*
X89010849Y-62812696D01*
X89560000Y-62921929D01*
X90109151Y-62812696D01*
X90574698Y-62501627D01*
X90830000Y-62119541D01*
X91085302Y-62501627D01*
X91550849Y-62812696D01*
X92100000Y-62921929D01*
X92649151Y-62812696D01*
X93114698Y-62501627D01*
X93370000Y-62119541D01*
X93625302Y-62501627D01*
X94090849Y-62812696D01*
X94640000Y-62921929D01*
X95189151Y-62812696D01*
X95654698Y-62501627D01*
X95910000Y-62119541D01*
X96165302Y-62501627D01*
X96630849Y-62812696D01*
X97180000Y-62921929D01*
X97729151Y-62812696D01*
X98194698Y-62501627D01*
X98447864Y-62122738D01*
X98795104Y-62554500D01*
X99288181Y-62824367D01*
X99370961Y-62841904D01*
X99593000Y-62719915D01*
X99593000Y-61127000D01*
X99573000Y-61127000D01*
X99573000Y-60873000D01*
X99593000Y-60873000D01*
X99593000Y-59280085D01*
X99370961Y-59158096D01*
X99288181Y-59175633D01*
X98795104Y-59445500D01*
X98447864Y-59877262D01*
X98194698Y-59498373D01*
X97915000Y-59311485D01*
X97915000Y-58124446D01*
X98392516Y-57646930D01*
X103448550Y-57646930D01*
X103683867Y-57602652D01*
X103899991Y-57463580D01*
X104044981Y-57251380D01*
X104095990Y-56999490D01*
X104095990Y-56785000D01*
X105002962Y-56785000D01*
X105021838Y-56885317D01*
X105088329Y-56988646D01*
X105086673Y-56990302D01*
X104990000Y-57223691D01*
X104990000Y-57664250D01*
X105148750Y-57823000D01*
X105873000Y-57823000D01*
X105873000Y-57803000D01*
X106127000Y-57803000D01*
X106127000Y-57823000D01*
X106851250Y-57823000D01*
X107010000Y-57664250D01*
X107010000Y-57223691D01*
X106913327Y-56990302D01*
X106911957Y-56988932D01*
X106971431Y-56901890D01*
X107022440Y-56650000D01*
X107022440Y-55450000D01*
X106978162Y-55214683D01*
X106839090Y-54998559D01*
X106626890Y-54853569D01*
X106375000Y-54802560D01*
X105625000Y-54802560D01*
X105389683Y-54846838D01*
X105173559Y-54985910D01*
X105028569Y-55198110D01*
X105004898Y-55315000D01*
X104095990Y-55315000D01*
X104095990Y-55000510D01*
X104051712Y-54765193D01*
X103912640Y-54549069D01*
X103700440Y-54404079D01*
X103448550Y-54353070D01*
X97949450Y-54353070D01*
X97714133Y-54397348D01*
X97498009Y-54536420D01*
X97353019Y-54748620D01*
X97302010Y-55000510D01*
X97302010Y-56658544D01*
X96660277Y-57300277D01*
X96500949Y-57538728D01*
X96445000Y-57820000D01*
X96445000Y-59311485D01*
X96165302Y-59498373D01*
X95910000Y-59880459D01*
X95654698Y-59498373D01*
X95375000Y-59311485D01*
X95375000Y-57640000D01*
X95319051Y-57358728D01*
X95312947Y-57349593D01*
X95159723Y-57120276D01*
X94697990Y-56658543D01*
X94697990Y-55000510D01*
X94653712Y-54765193D01*
X94514640Y-54549069D01*
X94302440Y-54404079D01*
X94050550Y-54353070D01*
X88551450Y-54353070D01*
X88316133Y-54397348D01*
X88100009Y-54536420D01*
X87955019Y-54748620D01*
X87904010Y-55000510D01*
X87904010Y-55215000D01*
X86697038Y-55215000D01*
X86678162Y-55114683D01*
X86539090Y-54898559D01*
X86326890Y-54753569D01*
X86075000Y-54702560D01*
X85325000Y-54702560D01*
X85089683Y-54746838D01*
X84873559Y-54885910D01*
X84728569Y-55098110D01*
X84677560Y-55350000D01*
X84677560Y-56550000D01*
X84721838Y-56785317D01*
X84788329Y-56888646D01*
X84786673Y-56890302D01*
X84690000Y-57123691D01*
X84690000Y-57564250D01*
X84848750Y-57723000D01*
X85573000Y-57723000D01*
X85573000Y-57703000D01*
X85827000Y-57703000D01*
X85827000Y-57723000D01*
X86551250Y-57723000D01*
X86710000Y-57564250D01*
X86710000Y-57123691D01*
X86613327Y-56890302D01*
X86611957Y-56888932D01*
X86671431Y-56801890D01*
X86695102Y-56685000D01*
X87904010Y-56685000D01*
X87904010Y-56999490D01*
X87948288Y-57234807D01*
X88087360Y-57450931D01*
X88299560Y-57595921D01*
X88551450Y-57646930D01*
X93607483Y-57646930D01*
X93905000Y-57944447D01*
X93905000Y-59311485D01*
X93625302Y-59498373D01*
X93370000Y-59880459D01*
X93114698Y-59498373D01*
X92649151Y-59187304D01*
X92100000Y-59078071D01*
X91550849Y-59187304D01*
X91085302Y-59498373D01*
X90830000Y-59880459D01*
X90574698Y-59498373D01*
X90109151Y-59187304D01*
X89560000Y-59078071D01*
X89010849Y-59187304D01*
X88545302Y-59498373D01*
X88290000Y-59880459D01*
X88034698Y-59498373D01*
X87569151Y-59187304D01*
X87020000Y-59078071D01*
X86470849Y-59187304D01*
X86005302Y-59498373D01*
X85750000Y-59880459D01*
X85494698Y-59498373D01*
X85029151Y-59187304D01*
X84480000Y-59078071D01*
X83930849Y-59187304D01*
X83465302Y-59498373D01*
X83154233Y-59963920D01*
X83045000Y-60513071D01*
X76885000Y-60513071D01*
X76885000Y-58135750D01*
X84690000Y-58135750D01*
X84690000Y-58576309D01*
X84786673Y-58809698D01*
X84965301Y-58988327D01*
X85198690Y-59085000D01*
X85414250Y-59085000D01*
X85573000Y-58926250D01*
X85573000Y-57977000D01*
X85827000Y-57977000D01*
X85827000Y-58926250D01*
X85985750Y-59085000D01*
X86201310Y-59085000D01*
X86434699Y-58988327D01*
X86613327Y-58809698D01*
X86710000Y-58576309D01*
X86710000Y-58135750D01*
X86551250Y-57977000D01*
X85827000Y-57977000D01*
X85573000Y-57977000D01*
X84848750Y-57977000D01*
X84690000Y-58135750D01*
X76885000Y-58135750D01*
X76885000Y-52572235D01*
X77484186Y-52171873D01*
X78212509Y-52027000D01*
X80121573Y-52027000D01*
X80138150Y-52025914D01*
X80655788Y-51957766D01*
X80687812Y-51949185D01*
X81170174Y-51749384D01*
X81198886Y-51732807D01*
X81613099Y-51414970D01*
X81625589Y-51404017D01*
X82454017Y-50575589D01*
X82469811Y-50556343D01*
X82903356Y-49907497D01*
X82922319Y-49861716D01*
X83074560Y-49096349D01*
X83077000Y-49071573D01*
X83077000Y-46462509D01*
X83221873Y-45734186D01*
X83478060Y-45350774D01*
X83478060Y-46570400D01*
X83520142Y-46794047D01*
X83452594Y-46956720D01*
X83452207Y-47401329D01*
X83621992Y-47812242D01*
X83936104Y-48126903D01*
X84316144Y-48284710D01*
X84315855Y-48615766D01*
X83937758Y-48771992D01*
X83623097Y-49086104D01*
X83452594Y-49496720D01*
X83452207Y-49941329D01*
X83522323Y-50111023D01*
X83478060Y-50329600D01*
X83478060Y-52006000D01*
X83522338Y-52241317D01*
X83661410Y-52457441D01*
X83873610Y-52602431D01*
X84125500Y-52653440D01*
X84293282Y-52653440D01*
X85044921Y-53405079D01*
X85299593Y-53575245D01*
X85600000Y-53635000D01*
X107638600Y-53635000D01*
X107890067Y-53886907D01*
X107736673Y-54040302D01*
X107640000Y-54273691D01*
X107640000Y-54864250D01*
X107798750Y-55023000D01*
X108773000Y-55023000D01*
X108773000Y-55003000D01*
X109027000Y-55003000D01*
X109027000Y-55023000D01*
X110001250Y-55023000D01*
X110160000Y-54864250D01*
X110160000Y-54273691D01*
X110063327Y-54040302D01*
X109884699Y-53861673D01*
X109651310Y-53765000D01*
X109431481Y-53765000D01*
X109646371Y-53550485D01*
X109834785Y-53096734D01*
X109835172Y-52653440D01*
X110414500Y-52653440D01*
X110649817Y-52609162D01*
X110865941Y-52470090D01*
X111010931Y-52257890D01*
X111061940Y-52006000D01*
X111061940Y-50329600D01*
X111019858Y-50105953D01*
X111087406Y-49943280D01*
X111087793Y-49498671D01*
X110918008Y-49087758D01*
X110603896Y-48773097D01*
X110193280Y-48602594D01*
X109748671Y-48602207D01*
X109337758Y-48771992D01*
X109023097Y-49086104D01*
X108852594Y-49496720D01*
X108852207Y-49941329D01*
X108922323Y-50111023D01*
X108878060Y-50329600D01*
X108878060Y-51628223D01*
X108846734Y-51615215D01*
X108521940Y-51614931D01*
X108521940Y-50329600D01*
X108479858Y-50105953D01*
X108547406Y-49943280D01*
X108547793Y-49498671D01*
X108378008Y-49087758D01*
X108063896Y-48773097D01*
X107653280Y-48602594D01*
X107208671Y-48602207D01*
X106797758Y-48771992D01*
X106483097Y-49086104D01*
X106312594Y-49496720D01*
X106312207Y-49941329D01*
X106382323Y-50111023D01*
X106338060Y-50329600D01*
X106338060Y-52006000D01*
X106349162Y-52065000D01*
X105969992Y-52065000D01*
X105981940Y-52006000D01*
X105981940Y-50329600D01*
X105939858Y-50105953D01*
X106007406Y-49943280D01*
X106007793Y-49498671D01*
X105838008Y-49087758D01*
X105523896Y-48773097D01*
X105113280Y-48602594D01*
X104668671Y-48602207D01*
X104257758Y-48771992D01*
X103943097Y-49086104D01*
X103772594Y-49496720D01*
X103772207Y-49941329D01*
X103842323Y-50111023D01*
X103798060Y-50329600D01*
X103798060Y-52006000D01*
X103809162Y-52065000D01*
X103429992Y-52065000D01*
X103441940Y-52006000D01*
X103441940Y-50329600D01*
X103399858Y-50105953D01*
X103467406Y-49943280D01*
X103467793Y-49498671D01*
X103298008Y-49087758D01*
X102983896Y-48773097D01*
X102573280Y-48602594D01*
X102128671Y-48602207D01*
X101717758Y-48771992D01*
X101403097Y-49086104D01*
X101232594Y-49496720D01*
X101232207Y-49941329D01*
X101302323Y-50111023D01*
X101258060Y-50329600D01*
X101258060Y-52006000D01*
X101269162Y-52065000D01*
X100889992Y-52065000D01*
X100901940Y-52006000D01*
X100901940Y-50329600D01*
X100859858Y-50105953D01*
X100927406Y-49943280D01*
X100927793Y-49498671D01*
X100758008Y-49087758D01*
X100443896Y-48773097D01*
X100033280Y-48602594D01*
X99588671Y-48602207D01*
X99177758Y-48771992D01*
X98863097Y-49086104D01*
X98692594Y-49496720D01*
X98692207Y-49941329D01*
X98762323Y-50111023D01*
X98718060Y-50329600D01*
X98718060Y-52006000D01*
X98729162Y-52065000D01*
X98349992Y-52065000D01*
X98361940Y-52006000D01*
X98361940Y-50329600D01*
X98319858Y-50105953D01*
X98387406Y-49943280D01*
X98387793Y-49498671D01*
X98218008Y-49087758D01*
X97903896Y-48773097D01*
X97493280Y-48602594D01*
X97048671Y-48602207D01*
X96637758Y-48771992D01*
X96323097Y-49086104D01*
X96152594Y-49496720D01*
X96152207Y-49941329D01*
X96222323Y-50111023D01*
X96178060Y-50329600D01*
X96178060Y-52006000D01*
X96189162Y-52065000D01*
X95809500Y-52065000D01*
X95809500Y-51453550D01*
X95650750Y-51294800D01*
X94857000Y-51294800D01*
X94857000Y-51314800D01*
X94603000Y-51314800D01*
X94603000Y-51294800D01*
X93809250Y-51294800D01*
X93650500Y-51453550D01*
X93650500Y-52065000D01*
X93269992Y-52065000D01*
X93281940Y-52006000D01*
X93281940Y-50329600D01*
X93239858Y-50105953D01*
X93307406Y-49943280D01*
X93307407Y-49941329D01*
X93612207Y-49941329D01*
X93685517Y-50118753D01*
X93650500Y-50203290D01*
X93650500Y-50882050D01*
X93809250Y-51040800D01*
X94603000Y-51040800D01*
X94603000Y-51020800D01*
X94857000Y-51020800D01*
X94857000Y-51040800D01*
X95650750Y-51040800D01*
X95809500Y-50882050D01*
X95809500Y-50203290D01*
X95774513Y-50118825D01*
X95847406Y-49943280D01*
X95847793Y-49498671D01*
X95678008Y-49087758D01*
X95363896Y-48773097D01*
X94953280Y-48602594D01*
X94508671Y-48602207D01*
X94097758Y-48771992D01*
X93783097Y-49086104D01*
X93612594Y-49496720D01*
X93612207Y-49941329D01*
X93307407Y-49941329D01*
X93307793Y-49498671D01*
X93138008Y-49087758D01*
X92823896Y-48773097D01*
X92413280Y-48602594D01*
X91968671Y-48602207D01*
X91965951Y-48603331D01*
X92092937Y-48297516D01*
X92402048Y-48297785D01*
X92402408Y-48298657D01*
X92749515Y-48646371D01*
X93203266Y-48834785D01*
X93694579Y-48835214D01*
X94148657Y-48647592D01*
X94496371Y-48300485D01*
X94498983Y-48294194D01*
X94506720Y-48297406D01*
X94951329Y-48297793D01*
X95362242Y-48128008D01*
X95676903Y-47813896D01*
X95847406Y-47403280D01*
X95847793Y-46958671D01*
X95777677Y-46788977D01*
X95821940Y-46570400D01*
X95821940Y-45135000D01*
X96178060Y-45135000D01*
X96178060Y-46570400D01*
G36*
X140515000Y-93277765D02*
X139915814Y-93678127D01*
X139187491Y-93823000D01*
X137178427Y-93823000D01*
X137153651Y-93825440D01*
X136388284Y-93977681D01*
X136342503Y-93996644D01*
X135693657Y-94430189D01*
X135674411Y-94445983D01*
X134645983Y-95474411D01*
X134630189Y-95493657D01*
X134196644Y-96142503D01*
X134177681Y-96188284D01*
X134025440Y-96953651D01*
X134023000Y-96978427D01*
X134023000Y-98937491D01*
X133878127Y-99665814D01*
X133477765Y-100265000D01*
X132100180Y-100265000D01*
X132151000Y-100142309D01*
X132151000Y-99285750D01*
X131992250Y-99127000D01*
X130627000Y-99127000D01*
X130627000Y-99147000D01*
X130373000Y-99147000D01*
X130373000Y-99127000D01*
X130353000Y-99127000D01*
X130353000Y-98873000D01*
X130373000Y-98873000D01*
X130373000Y-97507750D01*
X130627000Y-97507750D01*
X130627000Y-98873000D01*
X131992250Y-98873000D01*
X132151000Y-98714250D01*
X132151000Y-97857691D01*
X132054327Y-97624302D01*
X131875699Y-97445673D01*
X131642310Y-97349000D01*
X130785750Y-97349000D01*
X130627000Y-97507750D01*
X130373000Y-97507750D01*
X130214250Y-97349000D01*
X129357690Y-97349000D01*
X129124301Y-97445673D01*
X128945673Y-97624302D01*
X128928001Y-97666966D01*
X128695000Y-97511279D01*
X128695000Y-93794446D01*
X130119723Y-92369724D01*
X130279051Y-92131272D01*
X130288255Y-92085000D01*
X130335000Y-91850000D01*
X130335000Y-91235750D01*
X131915000Y-91235750D01*
X131915000Y-91576310D01*
X132011673Y-91809699D01*
X132190302Y-91988327D01*
X132423691Y-92085000D01*
X133814250Y-92085000D01*
X133973000Y-91926250D01*
X133973000Y-91077000D01*
X134227000Y-91077000D01*
X134227000Y-91926250D01*
X134385750Y-92085000D01*
X135776309Y-92085000D01*
X136009698Y-91988327D01*
X136188327Y-91809699D01*
X136285000Y-91576310D01*
X136285000Y-91235750D01*
X136126250Y-91077000D01*
X134227000Y-91077000D01*
X133973000Y-91077000D01*
X132073750Y-91077000D01*
X131915000Y-91235750D01*
X130335000Y-91235750D01*
X130335000Y-90323690D01*
X131915000Y-90323690D01*
X131915000Y-90664250D01*
X132073750Y-90823000D01*
X133973000Y-90823000D01*
X133973000Y-89973750D01*
X134227000Y-89973750D01*
X134227000Y-90823000D01*
X136126250Y-90823000D01*
X136285000Y-90664250D01*
X136285000Y-90323690D01*
X136188327Y-90090301D01*
X136009698Y-89911673D01*
X135776309Y-89815000D01*
X134385750Y-89815000D01*
X134227000Y-89973750D01*
X133973000Y-89973750D01*
X133814250Y-89815000D01*
X132423691Y-89815000D01*
X132190302Y-89911673D01*
X132011673Y-90090301D01*
X131915000Y-90323690D01*
X130335000Y-90323690D01*
X130335000Y-87685000D01*
X131946778Y-87685000D01*
X131946838Y-87685317D01*
X132085910Y-87901441D01*
X132298110Y-88046431D01*
X132550000Y-88097440D01*
X135650000Y-88097440D01*
X135885317Y-88053162D01*
X136101441Y-87914090D01*
X136246431Y-87701890D01*
X136297440Y-87450000D01*
X136297440Y-86450000D01*
X136253162Y-86214683D01*
X136114090Y-85998559D01*
X135901890Y-85853569D01*
X135650000Y-85802560D01*
X132550000Y-85802560D01*
X132314683Y-85846838D01*
X132098559Y-85985910D01*
X131953569Y-86198110D01*
X131950149Y-86215000D01*
X127353222Y-86215000D01*
X127353162Y-86214683D01*
X127214090Y-85998559D01*
X127001890Y-85853569D01*
X126750000Y-85802560D01*
X125935000Y-85802560D01*
X125935000Y-84954446D01*
X126974238Y-83915209D01*
X126996838Y-84035317D01*
X127135910Y-84251441D01*
X127348110Y-84396431D01*
X127600000Y-84447440D01*
X129100000Y-84447440D01*
X129335317Y-84403162D01*
X129551441Y-84264090D01*
X129696431Y-84051890D01*
X129699081Y-84038803D01*
X129835910Y-84251441D01*
X130048110Y-84396431D01*
X130300000Y-84447440D01*
X131800000Y-84447440D01*
X132035317Y-84403162D01*
X132251441Y-84264090D01*
X132396431Y-84051890D01*
X132420102Y-83935000D01*
X134738600Y-83935000D01*
X134999515Y-84196371D01*
X135453266Y-84384785D01*
X135944579Y-84385214D01*
X136398657Y-84197592D01*
X136746371Y-83850485D01*
X136934785Y-83396734D01*
X136935214Y-82905421D01*
X136747592Y-82451343D01*
X136400485Y-82103629D01*
X135946734Y-81915215D01*
X135455421Y-81914786D01*
X135001343Y-82102408D01*
X134738292Y-82365000D01*
X132422038Y-82365000D01*
X132403162Y-82264683D01*
X132264090Y-82048559D01*
X132051890Y-81903569D01*
X131800000Y-81852560D01*
X130300000Y-81852560D01*
X130064683Y-81896838D01*
X129848559Y-82035910D01*
X129703569Y-82248110D01*
X129700919Y-82261197D01*
X129564090Y-82048559D01*
X129351890Y-81903569D01*
X129100000Y-81852560D01*
X127600000Y-81852560D01*
X127364683Y-81896838D01*
X127148559Y-82035910D01*
X127003569Y-82248110D01*
X126969773Y-82415000D01*
X126700000Y-82415000D01*
X126418728Y-82470949D01*
X126180276Y-82630277D01*
X124680277Y-84130277D01*
X124520949Y-84368728D01*
X124465000Y-84650000D01*
X124465000Y-85802560D01*
X123650000Y-85802560D01*
X123414683Y-85846838D01*
X123198559Y-85985910D01*
X123053569Y-86198110D01*
X123002560Y-86450000D01*
X123002560Y-87450000D01*
X123046838Y-87685317D01*
X123185910Y-87901441D01*
X123398110Y-88046431D01*
X123650000Y-88097440D01*
X126750000Y-88097440D01*
X126985317Y-88053162D01*
X127201441Y-87914090D01*
X127346431Y-87701890D01*
X127349851Y-87685000D01*
X128865000Y-87685000D01*
X128865000Y-91545553D01*
X127440277Y-92970277D01*
X127280949Y-93208728D01*
X127225000Y-93490000D01*
X127225000Y-97511279D01*
X126792567Y-97800222D01*
X126482012Y-98265000D01*
X122230298Y-98265000D01*
X122287672Y-98226664D01*
X122476664Y-98037672D01*
X122693437Y-97713249D01*
X122735803Y-97610968D01*
X122795718Y-97466319D01*
X122871838Y-97083636D01*
X122871838Y-97016170D01*
X122885000Y-96950000D01*
X122885000Y-91235750D01*
X123015000Y-91235750D01*
X123015000Y-91576310D01*
X123111673Y-91809699D01*
X123290302Y-91988327D01*
X123523691Y-92085000D01*
X124914250Y-92085000D01*
X125073000Y-91926250D01*
X125073000Y-91077000D01*
X125327000Y-91077000D01*
X125327000Y-91926250D01*
X125485750Y-92085000D01*
X126876309Y-92085000D01*
X127109698Y-91988327D01*
X127288327Y-91809699D01*
X127385000Y-91576310D01*
X127385000Y-91235750D01*
X127226250Y-91077000D01*
X125327000Y-91077000D01*
X125073000Y-91077000D01*
X123173750Y-91077000D01*
X123015000Y-91235750D01*
X122885000Y-91235750D01*
X122885000Y-90323690D01*
X123015000Y-90323690D01*
X123015000Y-90664250D01*
X123173750Y-90823000D01*
X125073000Y-90823000D01*
X125073000Y-89973750D01*
X125327000Y-89973750D01*
X125327000Y-90823000D01*
X127226250Y-90823000D01*
X127385000Y-90664250D01*
X127385000Y-90323690D01*
X127288327Y-90090301D01*
X127109698Y-89911673D01*
X126876309Y-89815000D01*
X125485750Y-89815000D01*
X125327000Y-89973750D01*
X125073000Y-89973750D01*
X124914250Y-89815000D01*
X123523691Y-89815000D01*
X123290302Y-89911673D01*
X123111673Y-90090301D01*
X123015000Y-90323690D01*
X122885000Y-90323690D01*
X122885000Y-81950000D01*
X122871838Y-81883830D01*
X122871838Y-81816364D01*
X122795718Y-81433681D01*
X122715594Y-81240243D01*
X122693437Y-81186751D01*
X122476664Y-80862328D01*
X122287672Y-80673336D01*
X121963248Y-80456563D01*
X121938787Y-80446431D01*
X121878604Y-80421502D01*
X121947274Y-80321000D01*
X122514000Y-80321000D01*
X122814407Y-80261245D01*
X123069079Y-80091079D01*
X123755076Y-79405081D01*
X123755079Y-79405079D01*
X123765000Y-79390231D01*
X123765000Y-79976310D01*
X123861673Y-80209699D01*
X124040302Y-80388327D01*
X124273691Y-80485000D01*
X125114250Y-80485000D01*
X125273000Y-80326250D01*
X125273000Y-79177000D01*
X125527000Y-79177000D01*
X125527000Y-80326250D01*
X125685750Y-80485000D01*
X126526309Y-80485000D01*
X126759698Y-80388327D01*
X126938327Y-80209699D01*
X127035000Y-79976310D01*
X127035000Y-79335750D01*
X126876250Y-79177000D01*
X125527000Y-79177000D01*
X125273000Y-79177000D01*
X125253000Y-79177000D01*
X125253000Y-78923000D01*
X125273000Y-78923000D01*
X125273000Y-78903000D01*
X125527000Y-78903000D01*
X125527000Y-78923000D01*
X126876250Y-78923000D01*
X127035000Y-78764250D01*
X127035000Y-78123690D01*
X126938327Y-77890301D01*
X126883026Y-77835000D01*
X127915017Y-77835000D01*
X127803569Y-77998110D01*
X127752560Y-78250000D01*
X127752560Y-79850000D01*
X127796838Y-80085317D01*
X127935910Y-80301441D01*
X128148110Y-80446431D01*
X128400000Y-80497440D01*
X130400000Y-80497440D01*
X130635317Y-80453162D01*
X130851441Y-80314090D01*
X130996431Y-80101890D01*
X131047440Y-79850000D01*
X131047440Y-78250000D01*
X131003162Y-78014683D01*
X130881104Y-77825000D01*
X133443957Y-77825000D01*
X133739179Y-78266830D01*
X134302053Y-78642931D01*
X134966009Y-78775000D01*
X135033991Y-78775000D01*
X135697947Y-78642931D01*
X136260821Y-78266830D01*
X136556043Y-77825000D01*
X137360000Y-77825000D01*
X137660407Y-77765245D01*
X137915079Y-77595079D01*
X140515000Y-74995158D01*
X140515000Y-93277765D01*
X140515000Y-93277765D01*
G37*
X140515000Y-93277765D02*
X139915814Y-93678127D01*
X139187491Y-93823000D01*
X137178427Y-93823000D01*
X137153651Y-93825440D01*
X136388284Y-93977681D01*
X136342503Y-93996644D01*
X135693657Y-94430189D01*
X135674411Y-94445983D01*
X134645983Y-95474411D01*
X134630189Y-95493657D01*
X134196644Y-96142503D01*
X134177681Y-96188284D01*
X134025440Y-96953651D01*
X134023000Y-96978427D01*
X134023000Y-98937491D01*
X133878127Y-99665814D01*
X133477765Y-100265000D01*
X132100180Y-100265000D01*
X132151000Y-100142309D01*
X132151000Y-99285750D01*
X131992250Y-99127000D01*
X130627000Y-99127000D01*
X130627000Y-99147000D01*
X130373000Y-99147000D01*
X130373000Y-99127000D01*
X130353000Y-99127000D01*
X130353000Y-98873000D01*
X130373000Y-98873000D01*
X130373000Y-97507750D01*
X130627000Y-97507750D01*
X130627000Y-98873000D01*
X131992250Y-98873000D01*
X132151000Y-98714250D01*
X132151000Y-97857691D01*
X132054327Y-97624302D01*
X131875699Y-97445673D01*
X131642310Y-97349000D01*
X130785750Y-97349000D01*
X130627000Y-97507750D01*
X130373000Y-97507750D01*
X130214250Y-97349000D01*
X129357690Y-97349000D01*
X129124301Y-97445673D01*
X128945673Y-97624302D01*
X128928001Y-97666966D01*
X128695000Y-97511279D01*
X128695000Y-93794446D01*
X130119723Y-92369724D01*
X130279051Y-92131272D01*
X130288255Y-92085000D01*
X130335000Y-91850000D01*
X130335000Y-91235750D01*
X131915000Y-91235750D01*
X131915000Y-91576310D01*
X132011673Y-91809699D01*
X132190302Y-91988327D01*
X132423691Y-92085000D01*
X133814250Y-92085000D01*
X133973000Y-91926250D01*
X133973000Y-91077000D01*
X134227000Y-91077000D01*
X134227000Y-91926250D01*
X134385750Y-92085000D01*
X135776309Y-92085000D01*
X136009698Y-91988327D01*
X136188327Y-91809699D01*
X136285000Y-91576310D01*
X136285000Y-91235750D01*
X136126250Y-91077000D01*
X134227000Y-91077000D01*
X133973000Y-91077000D01*
X132073750Y-91077000D01*
X131915000Y-91235750D01*
X130335000Y-91235750D01*
X130335000Y-90323690D01*
X131915000Y-90323690D01*
X131915000Y-90664250D01*
X132073750Y-90823000D01*
X133973000Y-90823000D01*
X133973000Y-89973750D01*
X134227000Y-89973750D01*
X134227000Y-90823000D01*
X136126250Y-90823000D01*
X136285000Y-90664250D01*
X136285000Y-90323690D01*
X136188327Y-90090301D01*
X136009698Y-89911673D01*
X135776309Y-89815000D01*
X134385750Y-89815000D01*
X134227000Y-89973750D01*
X133973000Y-89973750D01*
X133814250Y-89815000D01*
X132423691Y-89815000D01*
X132190302Y-89911673D01*
X132011673Y-90090301D01*
X131915000Y-90323690D01*
X130335000Y-90323690D01*
X130335000Y-87685000D01*
X131946778Y-87685000D01*
X131946838Y-87685317D01*
X132085910Y-87901441D01*
X132298110Y-88046431D01*
X132550000Y-88097440D01*
X135650000Y-88097440D01*
X135885317Y-88053162D01*
X136101441Y-87914090D01*
X136246431Y-87701890D01*
X136297440Y-87450000D01*
X136297440Y-86450000D01*
X136253162Y-86214683D01*
X136114090Y-85998559D01*
X135901890Y-85853569D01*
X135650000Y-85802560D01*
X132550000Y-85802560D01*
X132314683Y-85846838D01*
X132098559Y-85985910D01*
X131953569Y-86198110D01*
X131950149Y-86215000D01*
X127353222Y-86215000D01*
X127353162Y-86214683D01*
X127214090Y-85998559D01*
X127001890Y-85853569D01*
X126750000Y-85802560D01*
X125935000Y-85802560D01*
X125935000Y-84954446D01*
X126974238Y-83915209D01*
X126996838Y-84035317D01*
X127135910Y-84251441D01*
X127348110Y-84396431D01*
X127600000Y-84447440D01*
X129100000Y-84447440D01*
X129335317Y-84403162D01*
X129551441Y-84264090D01*
X129696431Y-84051890D01*
X129699081Y-84038803D01*
X129835910Y-84251441D01*
X130048110Y-84396431D01*
X130300000Y-84447440D01*
X131800000Y-84447440D01*
X132035317Y-84403162D01*
X132251441Y-84264090D01*
X132396431Y-84051890D01*
X132420102Y-83935000D01*
X134738600Y-83935000D01*
X134999515Y-84196371D01*
X135453266Y-84384785D01*
X135944579Y-84385214D01*
X136398657Y-84197592D01*
X136746371Y-83850485D01*
X136934785Y-83396734D01*
X136935214Y-82905421D01*
X136747592Y-82451343D01*
X136400485Y-82103629D01*
X135946734Y-81915215D01*
X135455421Y-81914786D01*
X135001343Y-82102408D01*
X134738292Y-82365000D01*
X132422038Y-82365000D01*
X132403162Y-82264683D01*
X132264090Y-82048559D01*
X132051890Y-81903569D01*
X131800000Y-81852560D01*
X130300000Y-81852560D01*
X130064683Y-81896838D01*
X129848559Y-82035910D01*
X129703569Y-82248110D01*
X129700919Y-82261197D01*
X129564090Y-82048559D01*
X129351890Y-81903569D01*
X129100000Y-81852560D01*
X127600000Y-81852560D01*
X127364683Y-81896838D01*
X127148559Y-82035910D01*
X127003569Y-82248110D01*
X126969773Y-82415000D01*
X126700000Y-82415000D01*
X126418728Y-82470949D01*
X126180276Y-82630277D01*
X124680277Y-84130277D01*
X124520949Y-84368728D01*
X124465000Y-84650000D01*
X124465000Y-85802560D01*
X123650000Y-85802560D01*
X123414683Y-85846838D01*
X123198559Y-85985910D01*
X123053569Y-86198110D01*
X123002560Y-86450000D01*
X123002560Y-87450000D01*
X123046838Y-87685317D01*
X123185910Y-87901441D01*
X123398110Y-88046431D01*
X123650000Y-88097440D01*
X126750000Y-88097440D01*
X126985317Y-88053162D01*
X127201441Y-87914090D01*
X127346431Y-87701890D01*
X127349851Y-87685000D01*
X128865000Y-87685000D01*
X128865000Y-91545553D01*
X127440277Y-92970277D01*
X127280949Y-93208728D01*
X127225000Y-93490000D01*
X127225000Y-97511279D01*
X126792567Y-97800222D01*
X126482012Y-98265000D01*
X122230298Y-98265000D01*
X122287672Y-98226664D01*
X122476664Y-98037672D01*
X122693437Y-97713249D01*
X122735803Y-97610968D01*
X122795718Y-97466319D01*
X122871838Y-97083636D01*
X122871838Y-97016170D01*
X122885000Y-96950000D01*
X122885000Y-91235750D01*
X123015000Y-91235750D01*
X123015000Y-91576310D01*
X123111673Y-91809699D01*
X123290302Y-91988327D01*
X123523691Y-92085000D01*
X124914250Y-92085000D01*
X125073000Y-91926250D01*
X125073000Y-91077000D01*
X125327000Y-91077000D01*
X125327000Y-91926250D01*
X125485750Y-92085000D01*
X126876309Y-92085000D01*
X127109698Y-91988327D01*
X127288327Y-91809699D01*
X127385000Y-91576310D01*
X127385000Y-91235750D01*
X127226250Y-91077000D01*
X125327000Y-91077000D01*
X125073000Y-91077000D01*
X123173750Y-91077000D01*
X123015000Y-91235750D01*
X122885000Y-91235750D01*
X122885000Y-90323690D01*
X123015000Y-90323690D01*
X123015000Y-90664250D01*
X123173750Y-90823000D01*
X125073000Y-90823000D01*
X125073000Y-89973750D01*
X125327000Y-89973750D01*
X125327000Y-90823000D01*
X127226250Y-90823000D01*
X127385000Y-90664250D01*
X127385000Y-90323690D01*
X127288327Y-90090301D01*
X127109698Y-89911673D01*
X126876309Y-89815000D01*
X125485750Y-89815000D01*
X125327000Y-89973750D01*
X125073000Y-89973750D01*
X124914250Y-89815000D01*
X123523691Y-89815000D01*
X123290302Y-89911673D01*
X123111673Y-90090301D01*
X123015000Y-90323690D01*
X122885000Y-90323690D01*
X122885000Y-81950000D01*
X122871838Y-81883830D01*
X122871838Y-81816364D01*
X122795718Y-81433681D01*
X122715594Y-81240243D01*
X122693437Y-81186751D01*
X122476664Y-80862328D01*
X122287672Y-80673336D01*
X121963248Y-80456563D01*
X121938787Y-80446431D01*
X121878604Y-80421502D01*
X121947274Y-80321000D01*
X122514000Y-80321000D01*
X122814407Y-80261245D01*
X123069079Y-80091079D01*
X123755076Y-79405081D01*
X123755079Y-79405079D01*
X123765000Y-79390231D01*
X123765000Y-79976310D01*
X123861673Y-80209699D01*
X124040302Y-80388327D01*
X124273691Y-80485000D01*
X125114250Y-80485000D01*
X125273000Y-80326250D01*
X125273000Y-79177000D01*
X125527000Y-79177000D01*
X125527000Y-80326250D01*
X125685750Y-80485000D01*
X126526309Y-80485000D01*
X126759698Y-80388327D01*
X126938327Y-80209699D01*
X127035000Y-79976310D01*
X127035000Y-79335750D01*
X126876250Y-79177000D01*
X125527000Y-79177000D01*
X125273000Y-79177000D01*
X125253000Y-79177000D01*
X125253000Y-78923000D01*
X125273000Y-78923000D01*
X125273000Y-78903000D01*
X125527000Y-78903000D01*
X125527000Y-78923000D01*
X126876250Y-78923000D01*
X127035000Y-78764250D01*
X127035000Y-78123690D01*
X126938327Y-77890301D01*
X126883026Y-77835000D01*
X127915017Y-77835000D01*
X127803569Y-77998110D01*
X127752560Y-78250000D01*
X127752560Y-79850000D01*
X127796838Y-80085317D01*
X127935910Y-80301441D01*
X128148110Y-80446431D01*
X128400000Y-80497440D01*
X130400000Y-80497440D01*
X130635317Y-80453162D01*
X130851441Y-80314090D01*
X130996431Y-80101890D01*
X131047440Y-79850000D01*
X131047440Y-78250000D01*
X131003162Y-78014683D01*
X130881104Y-77825000D01*
X133443957Y-77825000D01*
X133739179Y-78266830D01*
X134302053Y-78642931D01*
X134966009Y-78775000D01*
X135033991Y-78775000D01*
X135697947Y-78642931D01*
X136260821Y-78266830D01*
X136556043Y-77825000D01*
X137360000Y-77825000D01*
X137660407Y-77765245D01*
X137915079Y-77595079D01*
X140515000Y-74995158D01*
X140515000Y-93277765D01*
G36*
X106325302Y-62501627D02*
X106605000Y-62688515D01*
X106605000Y-64940000D01*
X106657347Y-65203162D01*
X106660949Y-65221272D01*
X106820277Y-65459723D01*
X107865000Y-66504447D01*
X107865000Y-66802500D01*
X107340000Y-66698071D01*
X106790849Y-66807304D01*
X106325302Y-67118373D01*
X106070000Y-67500459D01*
X105814698Y-67118373D01*
X105349151Y-66807304D01*
X104800000Y-66698071D01*
X104250849Y-66807304D01*
X103785302Y-67118373D01*
X103532136Y-67497262D01*
X103184896Y-67065500D01*
X102691819Y-66795633D01*
X102609039Y-66778096D01*
X102387000Y-66900085D01*
X102387000Y-68493000D01*
X102407000Y-68493000D01*
X102407000Y-68747000D01*
X102387000Y-68747000D01*
X102387000Y-70339915D01*
X102609039Y-70461904D01*
X102691819Y-70444367D01*
X103184896Y-70174500D01*
X103532136Y-69742738D01*
X103785302Y-70121627D01*
X103831728Y-70152648D01*
X103616371Y-70367630D01*
X103403243Y-70880900D01*
X103402758Y-71436661D01*
X103614990Y-71950303D01*
X104007630Y-72343629D01*
X104520900Y-72556757D01*
X105076661Y-72557242D01*
X105590303Y-72345010D01*
X105983629Y-71952370D01*
X106069949Y-71744488D01*
X106154990Y-71950303D01*
X106547630Y-72343629D01*
X107060900Y-72556757D01*
X107616661Y-72557242D01*
X107865000Y-72454631D01*
X107865000Y-74941974D01*
X107759698Y-74836673D01*
X107526309Y-74740000D01*
X106935750Y-74740000D01*
X106777000Y-74898750D01*
X106777000Y-75873000D01*
X106797000Y-75873000D01*
X106797000Y-76127000D01*
X106777000Y-76127000D01*
X106777000Y-77101250D01*
X106935750Y-77260000D01*
X107526309Y-77260000D01*
X107759698Y-77163327D01*
X107891218Y-77031807D01*
X107920949Y-77181272D01*
X108080277Y-77419723D01*
X111869879Y-81209326D01*
X112459919Y-81848536D01*
X112474671Y-81859270D01*
X112484938Y-81874342D01*
X112590111Y-81943266D01*
X112691812Y-82017266D01*
X112709545Y-82021537D01*
X112724802Y-82031535D01*
X112848369Y-82054970D01*
X112970623Y-82084412D01*
X112988638Y-82081572D01*
X113006562Y-82084971D01*
X118298277Y-82037724D01*
X118465000Y-82204447D01*
X118465000Y-98050000D01*
X118493827Y-98194921D01*
X118520949Y-98331272D01*
X118680277Y-98569723D01*
X119630277Y-99519724D01*
X119851599Y-99667606D01*
X119868728Y-99679051D01*
X120150000Y-99735000D01*
X126482012Y-99735000D01*
X126792567Y-100199778D01*
X126890179Y-100265000D01*
X117600180Y-100265000D01*
X117651000Y-100142309D01*
X117651000Y-99285750D01*
X117492250Y-99127000D01*
X116127000Y-99127000D01*
X116127000Y-99147000D01*
X115873000Y-99147000D01*
X115873000Y-99127000D01*
X115853000Y-99127000D01*
X115853000Y-98873000D01*
X115873000Y-98873000D01*
X115873000Y-97507750D01*
X116127000Y-97507750D01*
X116127000Y-98873000D01*
X117492250Y-98873000D01*
X117651000Y-98714250D01*
X117651000Y-97857691D01*
X117554327Y-97624302D01*
X117375699Y-97445673D01*
X117142310Y-97349000D01*
X116285750Y-97349000D01*
X116127000Y-97507750D01*
X115873000Y-97507750D01*
X115714250Y-97349000D01*
X114857690Y-97349000D01*
X114624301Y-97445673D01*
X114445673Y-97624302D01*
X114428001Y-97666966D01*
X114195000Y-97511279D01*
X114195000Y-95855610D01*
X114464570Y-95855610D01*
X114464570Y-96494999D01*
X114561243Y-96728388D01*
X114739871Y-96907017D01*
X114973260Y-97003690D01*
X115714250Y-97003690D01*
X115873000Y-96844940D01*
X115873000Y-95696860D01*
X116127000Y-95696860D01*
X116127000Y-96844940D01*
X116285750Y-97003690D01*
X117026740Y-97003690D01*
X117260129Y-96907017D01*
X117438757Y-96728388D01*
X117535430Y-96494999D01*
X117535430Y-95855610D01*
X117376680Y-95696860D01*
X116127000Y-95696860D01*
X115873000Y-95696860D01*
X114623320Y-95696860D01*
X114464570Y-95855610D01*
X114195000Y-95855610D01*
X114195000Y-83940000D01*
X114185000Y-83889727D01*
X114185000Y-83695000D01*
X114400149Y-83695000D01*
X114352560Y-83930000D01*
X114352560Y-84930000D01*
X114378895Y-85069956D01*
X114352560Y-85200000D01*
X114352560Y-86200000D01*
X114396838Y-86435317D01*
X114535910Y-86651441D01*
X114748110Y-86796431D01*
X115000000Y-86847440D01*
X115158343Y-86847440D01*
X115098559Y-86885910D01*
X114953569Y-87098110D01*
X114902560Y-87350000D01*
X114902560Y-88550000D01*
X114946838Y-88785317D01*
X115085910Y-89001441D01*
X115155711Y-89049134D01*
X115098559Y-89085910D01*
X114953569Y-89298110D01*
X114902560Y-89550000D01*
X114902560Y-90750000D01*
X114946838Y-90985317D01*
X115085910Y-91201441D01*
X115206549Y-91283870D01*
X115099570Y-91283870D01*
X114864253Y-91328148D01*
X114648129Y-91467220D01*
X114503139Y-91679420D01*
X114452130Y-91931310D01*
X114452130Y-93528970D01*
X114496408Y-93764287D01*
X114635480Y-93980411D01*
X114847680Y-94125401D01*
X114949259Y-94145971D01*
X114739871Y-94232703D01*
X114561243Y-94411332D01*
X114464570Y-94644721D01*
X114464570Y-95284110D01*
X114623320Y-95442860D01*
X115873000Y-95442860D01*
X115873000Y-95422860D01*
X116127000Y-95422860D01*
X116127000Y-95442860D01*
X117376680Y-95442860D01*
X117535430Y-95284110D01*
X117535430Y-94644721D01*
X117438757Y-94411332D01*
X117260129Y-94232703D01*
X117054319Y-94147454D01*
X117135747Y-94132132D01*
X117351871Y-93993060D01*
X117496861Y-93780860D01*
X117547870Y-93528970D01*
X117547870Y-91931310D01*
X117503592Y-91695993D01*
X117364520Y-91479869D01*
X117152320Y-91334879D01*
X116900430Y-91283870D01*
X116793000Y-91283870D01*
X116901441Y-91214090D01*
X117046431Y-91001890D01*
X117097440Y-90750000D01*
X117097440Y-89550000D01*
X117053162Y-89314683D01*
X116914090Y-89098559D01*
X116844289Y-89050866D01*
X116901441Y-89014090D01*
X117046431Y-88801890D01*
X117097440Y-88550000D01*
X117097440Y-87350000D01*
X117053162Y-87114683D01*
X116914090Y-86898559D01*
X116839275Y-86847440D01*
X117000000Y-86847440D01*
X117235317Y-86803162D01*
X117451441Y-86664090D01*
X117596431Y-86451890D01*
X117647440Y-86200000D01*
X117647440Y-85200000D01*
X117621105Y-85060044D01*
X117647440Y-84930000D01*
X117647440Y-83930000D01*
X117603162Y-83694683D01*
X117464090Y-83478559D01*
X117251890Y-83333569D01*
X117000000Y-83282560D01*
X116691748Y-83282560D01*
X116679051Y-83218728D01*
X116663197Y-83195001D01*
X116519723Y-82980276D01*
X115979723Y-82440277D01*
X115741272Y-82280949D01*
X115460000Y-82225000D01*
X88264447Y-82225000D01*
X85215000Y-79175554D01*
X85215000Y-70308515D01*
X85494698Y-70121627D01*
X85750000Y-69739541D01*
X86005302Y-70121627D01*
X86285000Y-70308515D01*
X86285000Y-71370000D01*
X86338518Y-71639051D01*
X86340949Y-71651272D01*
X86500277Y-71889723D01*
X87765000Y-73154447D01*
X87765000Y-74577962D01*
X87664683Y-74596838D01*
X87498523Y-74703759D01*
X87351890Y-74603569D01*
X87100000Y-74552560D01*
X85900000Y-74552560D01*
X85664683Y-74596838D01*
X85448559Y-74735910D01*
X85303569Y-74948110D01*
X85252560Y-75200000D01*
X85252560Y-78200000D01*
X85296838Y-78435317D01*
X85435910Y-78651441D01*
X85648110Y-78796431D01*
X85900000Y-78847440D01*
X87100000Y-78847440D01*
X87335317Y-78803162D01*
X87501477Y-78696241D01*
X87648110Y-78796431D01*
X87900000Y-78847440D01*
X89100000Y-78847440D01*
X89335317Y-78803162D01*
X89501477Y-78696241D01*
X89648110Y-78796431D01*
X89900000Y-78847440D01*
X91100000Y-78847440D01*
X91335317Y-78803162D01*
X91501477Y-78696241D01*
X91648110Y-78796431D01*
X91900000Y-78847440D01*
X93100000Y-78847440D01*
X93335317Y-78803162D01*
X93501477Y-78696241D01*
X93648110Y-78796431D01*
X93900000Y-78847440D01*
X95100000Y-78847440D01*
X95335317Y-78803162D01*
X95499492Y-78697518D01*
X95540301Y-78738327D01*
X95773690Y-78835000D01*
X96214250Y-78835000D01*
X96373000Y-78676250D01*
X96373000Y-76827000D01*
X96353000Y-76827000D01*
X96353000Y-76573000D01*
X96373000Y-76573000D01*
X96373000Y-74723750D01*
X96214250Y-74565000D01*
X95773690Y-74565000D01*
X95540301Y-74661673D01*
X95498340Y-74703634D01*
X95351890Y-74603569D01*
X95235000Y-74579898D01*
X95235000Y-74373305D01*
X96614674Y-74373305D01*
X96720742Y-74630008D01*
X96627000Y-74723750D01*
X96627000Y-76573000D01*
X96647000Y-76573000D01*
X96647000Y-76827000D01*
X96627000Y-76827000D01*
X96627000Y-78676250D01*
X96785750Y-78835000D01*
X97226310Y-78835000D01*
X97459699Y-78738327D01*
X97501660Y-78696366D01*
X97648110Y-78796431D01*
X97900000Y-78847440D01*
X99100000Y-78847440D01*
X99335317Y-78803162D01*
X99499492Y-78697518D01*
X99540301Y-78738327D01*
X99773690Y-78835000D01*
X100214250Y-78835000D01*
X100373000Y-78676250D01*
X100373000Y-76827000D01*
X100627000Y-76827000D01*
X100627000Y-78676250D01*
X100785750Y-78835000D01*
X101226310Y-78835000D01*
X101459699Y-78738327D01*
X101638327Y-78559698D01*
X101735000Y-78326309D01*
X101735000Y-76985750D01*
X101576250Y-76827000D01*
X100627000Y-76827000D01*
X100373000Y-76827000D01*
X100353000Y-76827000D01*
X100353000Y-76573000D01*
X100373000Y-76573000D01*
X100373000Y-74723750D01*
X100627000Y-74723750D01*
X100627000Y-76573000D01*
X101576250Y-76573000D01*
X101735000Y-76414250D01*
X101735000Y-75073691D01*
X101638327Y-74840302D01*
X101459699Y-74661673D01*
X101226310Y-74565000D01*
X100785750Y-74565000D01*
X100627000Y-74723750D01*
X100373000Y-74723750D01*
X100279391Y-74630141D01*
X100384672Y-74376595D01*
X100385326Y-73626695D01*
X100098957Y-72933628D01*
X99569161Y-72402907D01*
X98876595Y-72115328D01*
X98126695Y-72114674D01*
X97433628Y-72401043D01*
X96902907Y-72930839D01*
X96615328Y-73623405D01*
X96614674Y-74373305D01*
X95235000Y-74373305D01*
X95235000Y-71367064D01*
X95319051Y-71241272D01*
X95349394Y-71088728D01*
X95375000Y-70960000D01*
X95375000Y-70308515D01*
X95654698Y-70121627D01*
X95910000Y-69739541D01*
X96165302Y-70121627D01*
X96630849Y-70432696D01*
X97180000Y-70541929D01*
X97729151Y-70432696D01*
X98194698Y-70121627D01*
X98450000Y-69739541D01*
X98705302Y-70121627D01*
X99170849Y-70432696D01*
X99720000Y-70541929D01*
X100092037Y-70467926D01*
X102800521Y-75138163D01*
X102752560Y-75375000D01*
X102752560Y-76625000D01*
X102796838Y-76860317D01*
X102935910Y-77076441D01*
X103148110Y-77221431D01*
X103400000Y-77272440D01*
X104900000Y-77272440D01*
X105135317Y-77228162D01*
X105351441Y-77089090D01*
X105397969Y-77020994D01*
X105540302Y-77163327D01*
X105773691Y-77260000D01*
X106364250Y-77260000D01*
X106523000Y-77101250D01*
X106523000Y-76127000D01*
X106503000Y-76127000D01*
X106503000Y-75873000D01*
X106523000Y-75873000D01*
X106523000Y-74898750D01*
X106364250Y-74740000D01*
X105773691Y-74740000D01*
X105540302Y-74836673D01*
X105399064Y-74977910D01*
X105364090Y-74923559D01*
X105151890Y-74778569D01*
X104900000Y-74727560D01*
X104261714Y-74727560D01*
X101754218Y-70403886D01*
X101828181Y-70444367D01*
X101910961Y-70461904D01*
X102133000Y-70339915D01*
X102133000Y-68747000D01*
X102113000Y-68747000D01*
X102113000Y-68493000D01*
X102133000Y-68493000D01*
X102133000Y-66900085D01*
X101910961Y-66778096D01*
X101828181Y-66795633D01*
X101335104Y-67065500D01*
X100987864Y-67497262D01*
X100734698Y-67118373D01*
X100607646Y-67033479D01*
X100900407Y-66975245D01*
X101155079Y-66805079D01*
X102555079Y-65405079D01*
X102725245Y-65150407D01*
X102785000Y-64850000D01*
X102785000Y-62817500D01*
X102809151Y-62812696D01*
X103274698Y-62501627D01*
X103530000Y-62119541D01*
X103785302Y-62501627D01*
X104250849Y-62812696D01*
X104800000Y-62921929D01*
X105349151Y-62812696D01*
X105814698Y-62501627D01*
X106070000Y-62119541D01*
X106325302Y-62501627D01*
X106325302Y-62501627D01*
G37*
X106325302Y-62501627D02*
X106605000Y-62688515D01*
X106605000Y-64940000D01*
X106657347Y-65203162D01*
X106660949Y-65221272D01*
X106820277Y-65459723D01*
X107865000Y-66504447D01*
X107865000Y-66802500D01*
X107340000Y-66698071D01*
X106790849Y-66807304D01*
X106325302Y-67118373D01*
X106070000Y-67500459D01*
X105814698Y-67118373D01*
X105349151Y-66807304D01*
X104800000Y-66698071D01*
X104250849Y-66807304D01*
X103785302Y-67118373D01*
X103532136Y-67497262D01*
X103184896Y-67065500D01*
X102691819Y-66795633D01*
X102609039Y-66778096D01*
X102387000Y-66900085D01*
X102387000Y-68493000D01*
X102407000Y-68493000D01*
X102407000Y-68747000D01*
X102387000Y-68747000D01*
X102387000Y-70339915D01*
X102609039Y-70461904D01*
X102691819Y-70444367D01*
X103184896Y-70174500D01*
X103532136Y-69742738D01*
X103785302Y-70121627D01*
X103831728Y-70152648D01*
X103616371Y-70367630D01*
X103403243Y-70880900D01*
X103402758Y-71436661D01*
X103614990Y-71950303D01*
X104007630Y-72343629D01*
X104520900Y-72556757D01*
X105076661Y-72557242D01*
X105590303Y-72345010D01*
X105983629Y-71952370D01*
X106069949Y-71744488D01*
X106154990Y-71950303D01*
X106547630Y-72343629D01*
X107060900Y-72556757D01*
X107616661Y-72557242D01*
X107865000Y-72454631D01*
X107865000Y-74941974D01*
X107759698Y-74836673D01*
X107526309Y-74740000D01*
X106935750Y-74740000D01*
X106777000Y-74898750D01*
X106777000Y-75873000D01*
X106797000Y-75873000D01*
X106797000Y-76127000D01*
X106777000Y-76127000D01*
X106777000Y-77101250D01*
X106935750Y-77260000D01*
X107526309Y-77260000D01*
X107759698Y-77163327D01*
X107891218Y-77031807D01*
X107920949Y-77181272D01*
X108080277Y-77419723D01*
X111869879Y-81209326D01*
X112459919Y-81848536D01*
X112474671Y-81859270D01*
X112484938Y-81874342D01*
X112590111Y-81943266D01*
X112691812Y-82017266D01*
X112709545Y-82021537D01*
X112724802Y-82031535D01*
X112848369Y-82054970D01*
X112970623Y-82084412D01*
X112988638Y-82081572D01*
X113006562Y-82084971D01*
X118298277Y-82037724D01*
X118465000Y-82204447D01*
X118465000Y-98050000D01*
X118493827Y-98194921D01*
X118520949Y-98331272D01*
X118680277Y-98569723D01*
X119630277Y-99519724D01*
X119851599Y-99667606D01*
X119868728Y-99679051D01*
X120150000Y-99735000D01*
X126482012Y-99735000D01*
X126792567Y-100199778D01*
X126890179Y-100265000D01*
X117600180Y-100265000D01*
X117651000Y-100142309D01*
X117651000Y-99285750D01*
X117492250Y-99127000D01*
X116127000Y-99127000D01*
X116127000Y-99147000D01*
X115873000Y-99147000D01*
X115873000Y-99127000D01*
X115853000Y-99127000D01*
X115853000Y-98873000D01*
X115873000Y-98873000D01*
X115873000Y-97507750D01*
X116127000Y-97507750D01*
X116127000Y-98873000D01*
X117492250Y-98873000D01*
X117651000Y-98714250D01*
X117651000Y-97857691D01*
X117554327Y-97624302D01*
X117375699Y-97445673D01*
X117142310Y-97349000D01*
X116285750Y-97349000D01*
X116127000Y-97507750D01*
X115873000Y-97507750D01*
X115714250Y-97349000D01*
X114857690Y-97349000D01*
X114624301Y-97445673D01*
X114445673Y-97624302D01*
X114428001Y-97666966D01*
X114195000Y-97511279D01*
X114195000Y-95855610D01*
X114464570Y-95855610D01*
X114464570Y-96494999D01*
X114561243Y-96728388D01*
X114739871Y-96907017D01*
X114973260Y-97003690D01*
X115714250Y-97003690D01*
X115873000Y-96844940D01*
X115873000Y-95696860D01*
X116127000Y-95696860D01*
X116127000Y-96844940D01*
X116285750Y-97003690D01*
X117026740Y-97003690D01*
X117260129Y-96907017D01*
X117438757Y-96728388D01*
X117535430Y-96494999D01*
X117535430Y-95855610D01*
X117376680Y-95696860D01*
X116127000Y-95696860D01*
X115873000Y-95696860D01*
X114623320Y-95696860D01*
X114464570Y-95855610D01*
X114195000Y-95855610D01*
X114195000Y-83940000D01*
X114185000Y-83889727D01*
X114185000Y-83695000D01*
X114400149Y-83695000D01*
X114352560Y-83930000D01*
X114352560Y-84930000D01*
X114378895Y-85069956D01*
X114352560Y-85200000D01*
X114352560Y-86200000D01*
X114396838Y-86435317D01*
X114535910Y-86651441D01*
X114748110Y-86796431D01*
X115000000Y-86847440D01*
X115158343Y-86847440D01*
X115098559Y-86885910D01*
X114953569Y-87098110D01*
X114902560Y-87350000D01*
X114902560Y-88550000D01*
X114946838Y-88785317D01*
X115085910Y-89001441D01*
X115155711Y-89049134D01*
X115098559Y-89085910D01*
X114953569Y-89298110D01*
X114902560Y-89550000D01*
X114902560Y-90750000D01*
X114946838Y-90985317D01*
X115085910Y-91201441D01*
X115206549Y-91283870D01*
X115099570Y-91283870D01*
X114864253Y-91328148D01*
X114648129Y-91467220D01*
X114503139Y-91679420D01*
X114452130Y-91931310D01*
X114452130Y-93528970D01*
X114496408Y-93764287D01*
X114635480Y-93980411D01*
X114847680Y-94125401D01*
X114949259Y-94145971D01*
X114739871Y-94232703D01*
X114561243Y-94411332D01*
X114464570Y-94644721D01*
X114464570Y-95284110D01*
X114623320Y-95442860D01*
X115873000Y-95442860D01*
X115873000Y-95422860D01*
X116127000Y-95422860D01*
X116127000Y-95442860D01*
X117376680Y-95442860D01*
X117535430Y-95284110D01*
X117535430Y-94644721D01*
X117438757Y-94411332D01*
X117260129Y-94232703D01*
X117054319Y-94147454D01*
X117135747Y-94132132D01*
X117351871Y-93993060D01*
X117496861Y-93780860D01*
X117547870Y-93528970D01*
X117547870Y-91931310D01*
X117503592Y-91695993D01*
X117364520Y-91479869D01*
X117152320Y-91334879D01*
X116900430Y-91283870D01*
X116793000Y-91283870D01*
X116901441Y-91214090D01*
X117046431Y-91001890D01*
X117097440Y-90750000D01*
X117097440Y-89550000D01*
X117053162Y-89314683D01*
X116914090Y-89098559D01*
X116844289Y-89050866D01*
X116901441Y-89014090D01*
X117046431Y-88801890D01*
X117097440Y-88550000D01*
X117097440Y-87350000D01*
X117053162Y-87114683D01*
X116914090Y-86898559D01*
X116839275Y-86847440D01*
X117000000Y-86847440D01*
X117235317Y-86803162D01*
X117451441Y-86664090D01*
X117596431Y-86451890D01*
X117647440Y-86200000D01*
X117647440Y-85200000D01*
X117621105Y-85060044D01*
X117647440Y-84930000D01*
X117647440Y-83930000D01*
X117603162Y-83694683D01*
X117464090Y-83478559D01*
X117251890Y-83333569D01*
X117000000Y-83282560D01*
X116691748Y-83282560D01*
X116679051Y-83218728D01*
X116663197Y-83195001D01*
X116519723Y-82980276D01*
X115979723Y-82440277D01*
X115741272Y-82280949D01*
X115460000Y-82225000D01*
X88264447Y-82225000D01*
X85215000Y-79175554D01*
X85215000Y-70308515D01*
X85494698Y-70121627D01*
X85750000Y-69739541D01*
X86005302Y-70121627D01*
X86285000Y-70308515D01*
X86285000Y-71370000D01*
X86338518Y-71639051D01*
X86340949Y-71651272D01*
X86500277Y-71889723D01*
X87765000Y-73154447D01*
X87765000Y-74577962D01*
X87664683Y-74596838D01*
X87498523Y-74703759D01*
X87351890Y-74603569D01*
X87100000Y-74552560D01*
X85900000Y-74552560D01*
X85664683Y-74596838D01*
X85448559Y-74735910D01*
X85303569Y-74948110D01*
X85252560Y-75200000D01*
X85252560Y-78200000D01*
X85296838Y-78435317D01*
X85435910Y-78651441D01*
X85648110Y-78796431D01*
X85900000Y-78847440D01*
X87100000Y-78847440D01*
X87335317Y-78803162D01*
X87501477Y-78696241D01*
X87648110Y-78796431D01*
X87900000Y-78847440D01*
X89100000Y-78847440D01*
X89335317Y-78803162D01*
X89501477Y-78696241D01*
X89648110Y-78796431D01*
X89900000Y-78847440D01*
X91100000Y-78847440D01*
X91335317Y-78803162D01*
X91501477Y-78696241D01*
X91648110Y-78796431D01*
X91900000Y-78847440D01*
X93100000Y-78847440D01*
X93335317Y-78803162D01*
X93501477Y-78696241D01*
X93648110Y-78796431D01*
X93900000Y-78847440D01*
X95100000Y-78847440D01*
X95335317Y-78803162D01*
X95499492Y-78697518D01*
X95540301Y-78738327D01*
X95773690Y-78835000D01*
X96214250Y-78835000D01*
X96373000Y-78676250D01*
X96373000Y-76827000D01*
X96353000Y-76827000D01*
X96353000Y-76573000D01*
X96373000Y-76573000D01*
X96373000Y-74723750D01*
X96214250Y-74565000D01*
X95773690Y-74565000D01*
X95540301Y-74661673D01*
X95498340Y-74703634D01*
X95351890Y-74603569D01*
X95235000Y-74579898D01*
X95235000Y-74373305D01*
X96614674Y-74373305D01*
X96720742Y-74630008D01*
X96627000Y-74723750D01*
X96627000Y-76573000D01*
X96647000Y-76573000D01*
X96647000Y-76827000D01*
X96627000Y-76827000D01*
X96627000Y-78676250D01*
X96785750Y-78835000D01*
X97226310Y-78835000D01*
X97459699Y-78738327D01*
X97501660Y-78696366D01*
X97648110Y-78796431D01*
X97900000Y-78847440D01*
X99100000Y-78847440D01*
X99335317Y-78803162D01*
X99499492Y-78697518D01*
X99540301Y-78738327D01*
X99773690Y-78835000D01*
X100214250Y-78835000D01*
X100373000Y-78676250D01*
X100373000Y-76827000D01*
X100627000Y-76827000D01*
X100627000Y-78676250D01*
X100785750Y-78835000D01*
X101226310Y-78835000D01*
X101459699Y-78738327D01*
X101638327Y-78559698D01*
X101735000Y-78326309D01*
X101735000Y-76985750D01*
X101576250Y-76827000D01*
X100627000Y-76827000D01*
X100373000Y-76827000D01*
X100353000Y-76827000D01*
X100353000Y-76573000D01*
X100373000Y-76573000D01*
X100373000Y-74723750D01*
X100627000Y-74723750D01*
X100627000Y-76573000D01*
X101576250Y-76573000D01*
X101735000Y-76414250D01*
X101735000Y-75073691D01*
X101638327Y-74840302D01*
X101459699Y-74661673D01*
X101226310Y-74565000D01*
X100785750Y-74565000D01*
X100627000Y-74723750D01*
X100373000Y-74723750D01*
X100279391Y-74630141D01*
X100384672Y-74376595D01*
X100385326Y-73626695D01*
X100098957Y-72933628D01*
X99569161Y-72402907D01*
X98876595Y-72115328D01*
X98126695Y-72114674D01*
X97433628Y-72401043D01*
X96902907Y-72930839D01*
X96615328Y-73623405D01*
X96614674Y-74373305D01*
X95235000Y-74373305D01*
X95235000Y-71367064D01*
X95319051Y-71241272D01*
X95349394Y-71088728D01*
X95375000Y-70960000D01*
X95375000Y-70308515D01*
X95654698Y-70121627D01*
X95910000Y-69739541D01*
X96165302Y-70121627D01*
X96630849Y-70432696D01*
X97180000Y-70541929D01*
X97729151Y-70432696D01*
X98194698Y-70121627D01*
X98450000Y-69739541D01*
X98705302Y-70121627D01*
X99170849Y-70432696D01*
X99720000Y-70541929D01*
X100092037Y-70467926D01*
X102800521Y-75138163D01*
X102752560Y-75375000D01*
X102752560Y-76625000D01*
X102796838Y-76860317D01*
X102935910Y-77076441D01*
X103148110Y-77221431D01*
X103400000Y-77272440D01*
X104900000Y-77272440D01*
X105135317Y-77228162D01*
X105351441Y-77089090D01*
X105397969Y-77020994D01*
X105540302Y-77163327D01*
X105773691Y-77260000D01*
X106364250Y-77260000D01*
X106523000Y-77101250D01*
X106523000Y-76127000D01*
X106503000Y-76127000D01*
X106503000Y-75873000D01*
X106523000Y-75873000D01*
X106523000Y-74898750D01*
X106364250Y-74740000D01*
X105773691Y-74740000D01*
X105540302Y-74836673D01*
X105399064Y-74977910D01*
X105364090Y-74923559D01*
X105151890Y-74778569D01*
X104900000Y-74727560D01*
X104261714Y-74727560D01*
X101754218Y-70403886D01*
X101828181Y-70444367D01*
X101910961Y-70461904D01*
X102133000Y-70339915D01*
X102133000Y-68747000D01*
X102113000Y-68747000D01*
X102113000Y-68493000D01*
X102133000Y-68493000D01*
X102133000Y-66900085D01*
X101910961Y-66778096D01*
X101828181Y-66795633D01*
X101335104Y-67065500D01*
X100987864Y-67497262D01*
X100734698Y-67118373D01*
X100607646Y-67033479D01*
X100900407Y-66975245D01*
X101155079Y-66805079D01*
X102555079Y-65405079D01*
X102725245Y-65150407D01*
X102785000Y-64850000D01*
X102785000Y-62817500D01*
X102809151Y-62812696D01*
X103274698Y-62501627D01*
X103530000Y-62119541D01*
X103785302Y-62501627D01*
X104250849Y-62812696D01*
X104800000Y-62921929D01*
X105349151Y-62812696D01*
X105814698Y-62501627D01*
X106070000Y-62119541D01*
X106325302Y-62501627D01*
G36*
X83745000Y-70308515D02*
X83745000Y-79480000D01*
X83785173Y-79681962D01*
X83800949Y-79761272D01*
X83960277Y-79999723D01*
X87440276Y-83479723D01*
X87678728Y-83639051D01*
X87960000Y-83695000D01*
X112455554Y-83695000D01*
X112721070Y-83960517D01*
X112725000Y-83980273D01*
X112725000Y-97511279D01*
X112292567Y-97800222D01*
X111934675Y-98335845D01*
X111809000Y-98967655D01*
X111809000Y-99032345D01*
X111934675Y-99664155D01*
X112292567Y-100199778D01*
X112390179Y-100265000D01*
X100095158Y-100265000D01*
X101055079Y-99305079D01*
X101225245Y-99050406D01*
X101285001Y-98750000D01*
X101285000Y-98749995D01*
X101285000Y-98512630D01*
X101335317Y-98503162D01*
X101551441Y-98364090D01*
X101696431Y-98151890D01*
X101747440Y-97900000D01*
X101747440Y-94900000D01*
X101703162Y-94664683D01*
X101564090Y-94448559D01*
X101351890Y-94303569D01*
X101100000Y-94252560D01*
X99900000Y-94252560D01*
X99664683Y-94296838D01*
X99498523Y-94403759D01*
X99351890Y-94303569D01*
X99100000Y-94252560D01*
X97900000Y-94252560D01*
X97664683Y-94296838D01*
X97498523Y-94403759D01*
X97351890Y-94303569D01*
X97100000Y-94252560D01*
X95900000Y-94252560D01*
X95664683Y-94296838D01*
X95498523Y-94403759D01*
X95351890Y-94303569D01*
X95100000Y-94252560D01*
X93900000Y-94252560D01*
X93664683Y-94296838D01*
X93498523Y-94403759D01*
X93351890Y-94303569D01*
X93100000Y-94252560D01*
X91900000Y-94252560D01*
X91664683Y-94296838D01*
X91498523Y-94403759D01*
X91351890Y-94303569D01*
X91100000Y-94252560D01*
X89900000Y-94252560D01*
X89664683Y-94296838D01*
X89498523Y-94403759D01*
X89351890Y-94303569D01*
X89235000Y-94279898D01*
X89235000Y-87904446D01*
X91204447Y-85935000D01*
X103688688Y-85935000D01*
X103999515Y-86246371D01*
X104453266Y-86434785D01*
X104944579Y-86435214D01*
X105398657Y-86247592D01*
X105746371Y-85900485D01*
X105934785Y-85446734D01*
X105935214Y-84955421D01*
X105747592Y-84501343D01*
X105400485Y-84153629D01*
X104946734Y-83965215D01*
X104455421Y-83964786D01*
X104001343Y-84152408D01*
X103688204Y-84465000D01*
X90900000Y-84465000D01*
X90618728Y-84520949D01*
X90380277Y-84680276D01*
X87980277Y-87080277D01*
X87820949Y-87318728D01*
X87765000Y-87600000D01*
X87765000Y-94277962D01*
X87664683Y-94296838D01*
X87498523Y-94403759D01*
X87351890Y-94303569D01*
X87100000Y-94252560D01*
X85900000Y-94252560D01*
X85664683Y-94296838D01*
X85448559Y-94435910D01*
X85303569Y-94648110D01*
X85285000Y-94739806D01*
X85285000Y-82250000D01*
X85225245Y-81949594D01*
X85055079Y-81694921D01*
X83535000Y-80174842D01*
X83535000Y-70168198D01*
X83745000Y-70308515D01*
X83745000Y-70308515D01*
G37*
X83745000Y-70308515D02*
X83745000Y-79480000D01*
X83785173Y-79681962D01*
X83800949Y-79761272D01*
X83960277Y-79999723D01*
X87440276Y-83479723D01*
X87678728Y-83639051D01*
X87960000Y-83695000D01*
X112455554Y-83695000D01*
X112721070Y-83960517D01*
X112725000Y-83980273D01*
X112725000Y-97511279D01*
X112292567Y-97800222D01*
X111934675Y-98335845D01*
X111809000Y-98967655D01*
X111809000Y-99032345D01*
X111934675Y-99664155D01*
X112292567Y-100199778D01*
X112390179Y-100265000D01*
X100095158Y-100265000D01*
X101055079Y-99305079D01*
X101225245Y-99050406D01*
X101285001Y-98750000D01*
X101285000Y-98749995D01*
X101285000Y-98512630D01*
X101335317Y-98503162D01*
X101551441Y-98364090D01*
X101696431Y-98151890D01*
X101747440Y-97900000D01*
X101747440Y-94900000D01*
X101703162Y-94664683D01*
X101564090Y-94448559D01*
X101351890Y-94303569D01*
X101100000Y-94252560D01*
X99900000Y-94252560D01*
X99664683Y-94296838D01*
X99498523Y-94403759D01*
X99351890Y-94303569D01*
X99100000Y-94252560D01*
X97900000Y-94252560D01*
X97664683Y-94296838D01*
X97498523Y-94403759D01*
X97351890Y-94303569D01*
X97100000Y-94252560D01*
X95900000Y-94252560D01*
X95664683Y-94296838D01*
X95498523Y-94403759D01*
X95351890Y-94303569D01*
X95100000Y-94252560D01*
X93900000Y-94252560D01*
X93664683Y-94296838D01*
X93498523Y-94403759D01*
X93351890Y-94303569D01*
X93100000Y-94252560D01*
X91900000Y-94252560D01*
X91664683Y-94296838D01*
X91498523Y-94403759D01*
X91351890Y-94303569D01*
X91100000Y-94252560D01*
X89900000Y-94252560D01*
X89664683Y-94296838D01*
X89498523Y-94403759D01*
X89351890Y-94303569D01*
X89235000Y-94279898D01*
X89235000Y-87904446D01*
X91204447Y-85935000D01*
X103688688Y-85935000D01*
X103999515Y-86246371D01*
X104453266Y-86434785D01*
X104944579Y-86435214D01*
X105398657Y-86247592D01*
X105746371Y-85900485D01*
X105934785Y-85446734D01*
X105935214Y-84955421D01*
X105747592Y-84501343D01*
X105400485Y-84153629D01*
X104946734Y-83965215D01*
X104455421Y-83964786D01*
X104001343Y-84152408D01*
X103688204Y-84465000D01*
X90900000Y-84465000D01*
X90618728Y-84520949D01*
X90380277Y-84680276D01*
X87980277Y-87080277D01*
X87820949Y-87318728D01*
X87765000Y-87600000D01*
X87765000Y-94277962D01*
X87664683Y-94296838D01*
X87498523Y-94403759D01*
X87351890Y-94303569D01*
X87100000Y-94252560D01*
X85900000Y-94252560D01*
X85664683Y-94296838D01*
X85448559Y-94435910D01*
X85303569Y-94648110D01*
X85285000Y-94739806D01*
X85285000Y-82250000D01*
X85225245Y-81949594D01*
X85055079Y-81694921D01*
X83535000Y-80174842D01*
X83535000Y-70168198D01*
X83745000Y-70308515D01*
G36*
X113945302Y-62501627D02*
X114225000Y-62688515D01*
X114225000Y-62710000D01*
X114255769Y-62864683D01*
X114280949Y-62991272D01*
X114440277Y-63229723D01*
X116690277Y-65479724D01*
X116928728Y-65639051D01*
X117210000Y-65695000D01*
X121129873Y-65695000D01*
X121179138Y-65814229D01*
X121594536Y-66230353D01*
X121180630Y-66643537D01*
X120950262Y-67198325D01*
X120949738Y-67799040D01*
X121179138Y-68354229D01*
X121603537Y-68779370D01*
X122158325Y-69009738D01*
X122759040Y-69010262D01*
X123314229Y-68780862D01*
X123730353Y-68365464D01*
X124143537Y-68779370D01*
X124698325Y-69009738D01*
X125299040Y-69010262D01*
X125854229Y-68780862D01*
X126279370Y-68356463D01*
X126509738Y-67801675D01*
X126510262Y-67200960D01*
X126280862Y-66645771D01*
X125865464Y-66229647D01*
X126279370Y-65816463D01*
X126509738Y-65261675D01*
X126510262Y-64660960D01*
X126481716Y-64591874D01*
X126864986Y-64975144D01*
X126864716Y-65283795D01*
X127113106Y-65884943D01*
X127457759Y-66230199D01*
X127114722Y-66572637D01*
X126865284Y-67173352D01*
X126864716Y-67823795D01*
X127113106Y-68424943D01*
X127572637Y-68885278D01*
X127715000Y-68944392D01*
X127715000Y-69248435D01*
X125212053Y-72752560D01*
X124500000Y-72752560D01*
X124264683Y-72796838D01*
X124048559Y-72935910D01*
X123903569Y-73148110D01*
X123852560Y-73400000D01*
X123852560Y-73415000D01*
X123250000Y-73415000D01*
X122949593Y-73474755D01*
X122694921Y-73644921D01*
X122160842Y-74179000D01*
X121944340Y-74179000D01*
X121832090Y-74004559D01*
X121619890Y-73859569D01*
X121368000Y-73808560D01*
X119336000Y-73808560D01*
X119100683Y-73852838D01*
X118884559Y-73991910D01*
X118739569Y-74204110D01*
X118688560Y-74456000D01*
X118688560Y-75472000D01*
X118732838Y-75707317D01*
X118871910Y-75923441D01*
X119084110Y-76068431D01*
X119274569Y-76107000D01*
X119209690Y-76107000D01*
X118976301Y-76203673D01*
X118797673Y-76382302D01*
X118701000Y-76615691D01*
X118701000Y-76964250D01*
X118859750Y-77123000D01*
X120225000Y-77123000D01*
X120225000Y-77103000D01*
X120479000Y-77103000D01*
X120479000Y-77123000D01*
X121844250Y-77123000D01*
X122003000Y-76964250D01*
X122003000Y-76615691D01*
X121906327Y-76382302D01*
X121727699Y-76203673D01*
X121494310Y-76107000D01*
X121434113Y-76107000D01*
X121603317Y-76075162D01*
X121819441Y-75936090D01*
X121947274Y-75749000D01*
X122486000Y-75749000D01*
X122786407Y-75689245D01*
X123041079Y-75519079D01*
X123575158Y-74985000D01*
X123852560Y-74985000D01*
X123852560Y-75000000D01*
X123896838Y-75235317D01*
X124035910Y-75451441D01*
X124248110Y-75596431D01*
X124500000Y-75647440D01*
X126500000Y-75647440D01*
X126735317Y-75603162D01*
X126951441Y-75464090D01*
X127096431Y-75251890D01*
X127147440Y-75000000D01*
X127147440Y-74485750D01*
X127865000Y-74485750D01*
X127865000Y-75126310D01*
X127961673Y-75359699D01*
X128140302Y-75538327D01*
X128373691Y-75635000D01*
X129214250Y-75635000D01*
X129373000Y-75476250D01*
X129373000Y-74327000D01*
X129627000Y-74327000D01*
X129627000Y-75476250D01*
X129785750Y-75635000D01*
X130626309Y-75635000D01*
X130859698Y-75538327D01*
X131038327Y-75359699D01*
X131135000Y-75126310D01*
X131135000Y-74485750D01*
X130976250Y-74327000D01*
X129627000Y-74327000D01*
X129373000Y-74327000D01*
X128023750Y-74327000D01*
X127865000Y-74485750D01*
X127147440Y-74485750D01*
X127147440Y-73400000D01*
X127123674Y-73273690D01*
X127865000Y-73273690D01*
X127865000Y-73914250D01*
X128023750Y-74073000D01*
X129373000Y-74073000D01*
X129373000Y-72923750D01*
X129627000Y-72923750D01*
X129627000Y-74073000D01*
X130976250Y-74073000D01*
X131135000Y-73914250D01*
X131135000Y-73373690D01*
X133365000Y-73373690D01*
X133365000Y-74214250D01*
X133523750Y-74373000D01*
X134873000Y-74373000D01*
X134873000Y-73023750D01*
X135127000Y-73023750D01*
X135127000Y-74373000D01*
X136476250Y-74373000D01*
X136635000Y-74214250D01*
X136635000Y-73373690D01*
X136538327Y-73140301D01*
X136359698Y-72961673D01*
X136126309Y-72865000D01*
X135285750Y-72865000D01*
X135127000Y-73023750D01*
X134873000Y-73023750D01*
X134714250Y-72865000D01*
X133873691Y-72865000D01*
X133640302Y-72961673D01*
X133461673Y-73140301D01*
X133365000Y-73373690D01*
X131135000Y-73373690D01*
X131135000Y-73273690D01*
X131038327Y-73040301D01*
X130859698Y-72861673D01*
X130626309Y-72765000D01*
X129785750Y-72765000D01*
X129627000Y-72923750D01*
X129373000Y-72923750D01*
X129214250Y-72765000D01*
X128373691Y-72765000D01*
X128140302Y-72861673D01*
X127961673Y-73040301D01*
X127865000Y-73273690D01*
X127123674Y-73273690D01*
X127103162Y-73164683D01*
X126981788Y-72976062D01*
X129138781Y-69956272D01*
X129175564Y-69874760D01*
X129225245Y-69800406D01*
X129237959Y-69736489D01*
X129264763Y-69677090D01*
X129267553Y-69587712D01*
X129285000Y-69500000D01*
X129285000Y-68944717D01*
X129424943Y-68886894D01*
X129885278Y-68427363D01*
X130134716Y-67826648D01*
X130135284Y-67176205D01*
X129886894Y-66575057D01*
X129542241Y-66229801D01*
X129885278Y-65887363D01*
X130004325Y-65600665D01*
X130265000Y-65861796D01*
X130265000Y-66000000D01*
X130312312Y-66237852D01*
X130320949Y-66281272D01*
X130480277Y-66519723D01*
X131230276Y-67269723D01*
X131406746Y-67387636D01*
X131468728Y-67429051D01*
X131727560Y-67480536D01*
X131727560Y-67500000D01*
X131771838Y-67735317D01*
X131910910Y-67951441D01*
X131980711Y-67999134D01*
X131923559Y-68035910D01*
X131778569Y-68248110D01*
X131727560Y-68500000D01*
X131727560Y-70000000D01*
X131771838Y-70235317D01*
X131910910Y-70451441D01*
X132123110Y-70596431D01*
X132375000Y-70647440D01*
X133625000Y-70647440D01*
X133860317Y-70603162D01*
X134076441Y-70464090D01*
X134221431Y-70251890D01*
X134272440Y-70000000D01*
X134272440Y-69985000D01*
X134750000Y-69985000D01*
X135031272Y-69929051D01*
X135269723Y-69769723D01*
X136104447Y-68935000D01*
X136552913Y-68935000D01*
X136775237Y-69267731D01*
X137265116Y-69595058D01*
X137842968Y-69710000D01*
X138157032Y-69710000D01*
X138734884Y-69595058D01*
X139215000Y-69274254D01*
X139215000Y-74074842D01*
X137034842Y-76255000D01*
X136556043Y-76255000D01*
X136390611Y-76007414D01*
X136538327Y-75859699D01*
X136635000Y-75626310D01*
X136635000Y-74785750D01*
X136476250Y-74627000D01*
X135127000Y-74627000D01*
X135127000Y-74647000D01*
X134873000Y-74647000D01*
X134873000Y-74627000D01*
X133523750Y-74627000D01*
X133365000Y-74785750D01*
X133365000Y-75626310D01*
X133461673Y-75859699D01*
X133609389Y-76007414D01*
X133443957Y-76255000D01*
X129701092Y-76255000D01*
X129500000Y-76215000D01*
X129248635Y-76265000D01*
X123800000Y-76265000D01*
X123499593Y-76324755D01*
X123244921Y-76494921D01*
X122644921Y-77094921D01*
X122474755Y-77349593D01*
X122437726Y-77535750D01*
X122415000Y-77650000D01*
X122415000Y-78524843D01*
X122188842Y-78751000D01*
X121944340Y-78751000D01*
X121832090Y-78576559D01*
X121619890Y-78431569D01*
X121429431Y-78393000D01*
X121494310Y-78393000D01*
X121727699Y-78296327D01*
X121906327Y-78117698D01*
X122003000Y-77884309D01*
X122003000Y-77535750D01*
X121844250Y-77377000D01*
X120479000Y-77377000D01*
X120479000Y-77397000D01*
X120225000Y-77397000D01*
X120225000Y-77377000D01*
X118859750Y-77377000D01*
X118701000Y-77535750D01*
X118701000Y-77884309D01*
X118797673Y-78117698D01*
X118976301Y-78296327D01*
X119209690Y-78393000D01*
X119269887Y-78393000D01*
X119100683Y-78424838D01*
X118884559Y-78563910D01*
X118739569Y-78776110D01*
X118688560Y-79028000D01*
X118688560Y-80044000D01*
X118732838Y-80279317D01*
X118871910Y-80495441D01*
X119084110Y-80640431D01*
X119336000Y-80691440D01*
X120094224Y-80691440D01*
X119923336Y-80862328D01*
X119706564Y-81186751D01*
X119706563Y-81186752D01*
X119653736Y-81314289D01*
X119119723Y-80780277D01*
X119116943Y-80778419D01*
X119115062Y-80775658D01*
X118997853Y-80698846D01*
X118881272Y-80620949D01*
X118877993Y-80620297D01*
X118875198Y-80618465D01*
X118737419Y-80592335D01*
X118600000Y-80565001D01*
X118596725Y-80565652D01*
X118593438Y-80565029D01*
X113319148Y-80612121D01*
X112940081Y-80201464D01*
X112928014Y-80192684D01*
X112919724Y-80180277D01*
X112273523Y-79534076D01*
X112480110Y-79675231D01*
X112732000Y-79726240D01*
X114764000Y-79726240D01*
X114999317Y-79681962D01*
X115215441Y-79542890D01*
X115360431Y-79330690D01*
X115411440Y-79078800D01*
X115411440Y-75421200D01*
X115367162Y-75185883D01*
X115228090Y-74969759D01*
X115015890Y-74824769D01*
X114764000Y-74773760D01*
X112732000Y-74773760D01*
X112496683Y-74818038D01*
X112280559Y-74957110D01*
X112135569Y-75169310D01*
X112084560Y-75421200D01*
X112084560Y-79078800D01*
X112128838Y-79314117D01*
X112264701Y-79525254D01*
X109335000Y-76595554D01*
X109335000Y-72446346D01*
X109600900Y-72556757D01*
X110156661Y-72557242D01*
X110670303Y-72345010D01*
X111063629Y-71952370D01*
X111149949Y-71744488D01*
X111234990Y-71950303D01*
X111627630Y-72343629D01*
X112140900Y-72556757D01*
X112696661Y-72557242D01*
X113210303Y-72345010D01*
X113603629Y-71952370D01*
X113689949Y-71744488D01*
X113774990Y-71950303D01*
X114167630Y-72343629D01*
X114680900Y-72556757D01*
X115236661Y-72557242D01*
X115750303Y-72345010D01*
X116143629Y-71952370D01*
X116229949Y-71744488D01*
X116314990Y-71950303D01*
X116707630Y-72343629D01*
X117220900Y-72556757D01*
X117776661Y-72557242D01*
X118290303Y-72345010D01*
X118683629Y-71952370D01*
X118896757Y-71439100D01*
X118897242Y-70883339D01*
X118685010Y-70369697D01*
X118468312Y-70152621D01*
X118514698Y-70121627D01*
X118825767Y-69656080D01*
X118935000Y-69106929D01*
X118935000Y-68133071D01*
X118825767Y-67583920D01*
X118514698Y-67118373D01*
X118049151Y-66807304D01*
X117500000Y-66698071D01*
X116950849Y-66807304D01*
X116485302Y-67118373D01*
X116230000Y-67500459D01*
X115974698Y-67118373D01*
X115509151Y-66807304D01*
X114960000Y-66698071D01*
X114410849Y-66807304D01*
X113945302Y-67118373D01*
X113690000Y-67500459D01*
X113434698Y-67118373D01*
X112969151Y-66807304D01*
X112420000Y-66698071D01*
X111870849Y-66807304D01*
X111405302Y-67118373D01*
X111150000Y-67500459D01*
X110894698Y-67118373D01*
X110429151Y-66807304D01*
X109880000Y-66698071D01*
X109335000Y-66806478D01*
X109335000Y-66200000D01*
X109279051Y-65918728D01*
X109220143Y-65830566D01*
X109119723Y-65680276D01*
X108075000Y-64635554D01*
X108075000Y-62688515D01*
X108354698Y-62501627D01*
X108610000Y-62119541D01*
X108865302Y-62501627D01*
X109330849Y-62812696D01*
X109880000Y-62921929D01*
X110429151Y-62812696D01*
X110894698Y-62501627D01*
X111150000Y-62119541D01*
X111405302Y-62501627D01*
X111870849Y-62812696D01*
X112420000Y-62921929D01*
X112969151Y-62812696D01*
X113434698Y-62501627D01*
X113690000Y-62119541D01*
X113945302Y-62501627D01*
X113945302Y-62501627D01*
G37*
X113945302Y-62501627D02*
X114225000Y-62688515D01*
X114225000Y-62710000D01*
X114255769Y-62864683D01*
X114280949Y-62991272D01*
X114440277Y-63229723D01*
X116690277Y-65479724D01*
X116928728Y-65639051D01*
X117210000Y-65695000D01*
X121129873Y-65695000D01*
X121179138Y-65814229D01*
X121594536Y-66230353D01*
X121180630Y-66643537D01*
X120950262Y-67198325D01*
X120949738Y-67799040D01*
X121179138Y-68354229D01*
X121603537Y-68779370D01*
X122158325Y-69009738D01*
X122759040Y-69010262D01*
X123314229Y-68780862D01*
X123730353Y-68365464D01*
X124143537Y-68779370D01*
X124698325Y-69009738D01*
X125299040Y-69010262D01*
X125854229Y-68780862D01*
X126279370Y-68356463D01*
X126509738Y-67801675D01*
X126510262Y-67200960D01*
X126280862Y-66645771D01*
X125865464Y-66229647D01*
X126279370Y-65816463D01*
X126509738Y-65261675D01*
X126510262Y-64660960D01*
X126481716Y-64591874D01*
X126864986Y-64975144D01*
X126864716Y-65283795D01*
X127113106Y-65884943D01*
X127457759Y-66230199D01*
X127114722Y-66572637D01*
X126865284Y-67173352D01*
X126864716Y-67823795D01*
X127113106Y-68424943D01*
X127572637Y-68885278D01*
X127715000Y-68944392D01*
X127715000Y-69248435D01*
X125212053Y-72752560D01*
X124500000Y-72752560D01*
X124264683Y-72796838D01*
X124048559Y-72935910D01*
X123903569Y-73148110D01*
X123852560Y-73400000D01*
X123852560Y-73415000D01*
X123250000Y-73415000D01*
X122949593Y-73474755D01*
X122694921Y-73644921D01*
X122160842Y-74179000D01*
X121944340Y-74179000D01*
X121832090Y-74004559D01*
X121619890Y-73859569D01*
X121368000Y-73808560D01*
X119336000Y-73808560D01*
X119100683Y-73852838D01*
X118884559Y-73991910D01*
X118739569Y-74204110D01*
X118688560Y-74456000D01*
X118688560Y-75472000D01*
X118732838Y-75707317D01*
X118871910Y-75923441D01*
X119084110Y-76068431D01*
X119274569Y-76107000D01*
X119209690Y-76107000D01*
X118976301Y-76203673D01*
X118797673Y-76382302D01*
X118701000Y-76615691D01*
X118701000Y-76964250D01*
X118859750Y-77123000D01*
X120225000Y-77123000D01*
X120225000Y-77103000D01*
X120479000Y-77103000D01*
X120479000Y-77123000D01*
X121844250Y-77123000D01*
X122003000Y-76964250D01*
X122003000Y-76615691D01*
X121906327Y-76382302D01*
X121727699Y-76203673D01*
X121494310Y-76107000D01*
X121434113Y-76107000D01*
X121603317Y-76075162D01*
X121819441Y-75936090D01*
X121947274Y-75749000D01*
X122486000Y-75749000D01*
X122786407Y-75689245D01*
X123041079Y-75519079D01*
X123575158Y-74985000D01*
X123852560Y-74985000D01*
X123852560Y-75000000D01*
X123896838Y-75235317D01*
X124035910Y-75451441D01*
X124248110Y-75596431D01*
X124500000Y-75647440D01*
X126500000Y-75647440D01*
X126735317Y-75603162D01*
X126951441Y-75464090D01*
X127096431Y-75251890D01*
X127147440Y-75000000D01*
X127147440Y-74485750D01*
X127865000Y-74485750D01*
X127865000Y-75126310D01*
X127961673Y-75359699D01*
X128140302Y-75538327D01*
X128373691Y-75635000D01*
X129214250Y-75635000D01*
X129373000Y-75476250D01*
X129373000Y-74327000D01*
X129627000Y-74327000D01*
X129627000Y-75476250D01*
X129785750Y-75635000D01*
X130626309Y-75635000D01*
X130859698Y-75538327D01*
X131038327Y-75359699D01*
X131135000Y-75126310D01*
X131135000Y-74485750D01*
X130976250Y-74327000D01*
X129627000Y-74327000D01*
X129373000Y-74327000D01*
X128023750Y-74327000D01*
X127865000Y-74485750D01*
X127147440Y-74485750D01*
X127147440Y-73400000D01*
X127123674Y-73273690D01*
X127865000Y-73273690D01*
X127865000Y-73914250D01*
X128023750Y-74073000D01*
X129373000Y-74073000D01*
X129373000Y-72923750D01*
X129627000Y-72923750D01*
X129627000Y-74073000D01*
X130976250Y-74073000D01*
X131135000Y-73914250D01*
X131135000Y-73373690D01*
X133365000Y-73373690D01*
X133365000Y-74214250D01*
X133523750Y-74373000D01*
X134873000Y-74373000D01*
X134873000Y-73023750D01*
X135127000Y-73023750D01*
X135127000Y-74373000D01*
X136476250Y-74373000D01*
X136635000Y-74214250D01*
X136635000Y-73373690D01*
X136538327Y-73140301D01*
X136359698Y-72961673D01*
X136126309Y-72865000D01*
X135285750Y-72865000D01*
X135127000Y-73023750D01*
X134873000Y-73023750D01*
X134714250Y-72865000D01*
X133873691Y-72865000D01*
X133640302Y-72961673D01*
X133461673Y-73140301D01*
X133365000Y-73373690D01*
X131135000Y-73373690D01*
X131135000Y-73273690D01*
X131038327Y-73040301D01*
X130859698Y-72861673D01*
X130626309Y-72765000D01*
X129785750Y-72765000D01*
X129627000Y-72923750D01*
X129373000Y-72923750D01*
X129214250Y-72765000D01*
X128373691Y-72765000D01*
X128140302Y-72861673D01*
X127961673Y-73040301D01*
X127865000Y-73273690D01*
X127123674Y-73273690D01*
X127103162Y-73164683D01*
X126981788Y-72976062D01*
X129138781Y-69956272D01*
X129175564Y-69874760D01*
X129225245Y-69800406D01*
X129237959Y-69736489D01*
X129264763Y-69677090D01*
X129267553Y-69587712D01*
X129285000Y-69500000D01*
X129285000Y-68944717D01*
X129424943Y-68886894D01*
X129885278Y-68427363D01*
X130134716Y-67826648D01*
X130135284Y-67176205D01*
X129886894Y-66575057D01*
X129542241Y-66229801D01*
X129885278Y-65887363D01*
X130004325Y-65600665D01*
X130265000Y-65861796D01*
X130265000Y-66000000D01*
X130312312Y-66237852D01*
X130320949Y-66281272D01*
X130480277Y-66519723D01*
X131230276Y-67269723D01*
X131406746Y-67387636D01*
X131468728Y-67429051D01*
X131727560Y-67480536D01*
X131727560Y-67500000D01*
X131771838Y-67735317D01*
X131910910Y-67951441D01*
X131980711Y-67999134D01*
X131923559Y-68035910D01*
X131778569Y-68248110D01*
X131727560Y-68500000D01*
X131727560Y-70000000D01*
X131771838Y-70235317D01*
X131910910Y-70451441D01*
X132123110Y-70596431D01*
X132375000Y-70647440D01*
X133625000Y-70647440D01*
X133860317Y-70603162D01*
X134076441Y-70464090D01*
X134221431Y-70251890D01*
X134272440Y-70000000D01*
X134272440Y-69985000D01*
X134750000Y-69985000D01*
X135031272Y-69929051D01*
X135269723Y-69769723D01*
X136104447Y-68935000D01*
X136552913Y-68935000D01*
X136775237Y-69267731D01*
X137265116Y-69595058D01*
X137842968Y-69710000D01*
X138157032Y-69710000D01*
X138734884Y-69595058D01*
X139215000Y-69274254D01*
X139215000Y-74074842D01*
X137034842Y-76255000D01*
X136556043Y-76255000D01*
X136390611Y-76007414D01*
X136538327Y-75859699D01*
X136635000Y-75626310D01*
X136635000Y-74785750D01*
X136476250Y-74627000D01*
X135127000Y-74627000D01*
X135127000Y-74647000D01*
X134873000Y-74647000D01*
X134873000Y-74627000D01*
X133523750Y-74627000D01*
X133365000Y-74785750D01*
X133365000Y-75626310D01*
X133461673Y-75859699D01*
X133609389Y-76007414D01*
X133443957Y-76255000D01*
X129701092Y-76255000D01*
X129500000Y-76215000D01*
X129248635Y-76265000D01*
X123800000Y-76265000D01*
X123499593Y-76324755D01*
X123244921Y-76494921D01*
X122644921Y-77094921D01*
X122474755Y-77349593D01*
X122437726Y-77535750D01*
X122415000Y-77650000D01*
X122415000Y-78524843D01*
X122188842Y-78751000D01*
X121944340Y-78751000D01*
X121832090Y-78576559D01*
X121619890Y-78431569D01*
X121429431Y-78393000D01*
X121494310Y-78393000D01*
X121727699Y-78296327D01*
X121906327Y-78117698D01*
X122003000Y-77884309D01*
X122003000Y-77535750D01*
X121844250Y-77377000D01*
X120479000Y-77377000D01*
X120479000Y-77397000D01*
X120225000Y-77397000D01*
X120225000Y-77377000D01*
X118859750Y-77377000D01*
X118701000Y-77535750D01*
X118701000Y-77884309D01*
X118797673Y-78117698D01*
X118976301Y-78296327D01*
X119209690Y-78393000D01*
X119269887Y-78393000D01*
X119100683Y-78424838D01*
X118884559Y-78563910D01*
X118739569Y-78776110D01*
X118688560Y-79028000D01*
X118688560Y-80044000D01*
X118732838Y-80279317D01*
X118871910Y-80495441D01*
X119084110Y-80640431D01*
X119336000Y-80691440D01*
X120094224Y-80691440D01*
X119923336Y-80862328D01*
X119706564Y-81186751D01*
X119706563Y-81186752D01*
X119653736Y-81314289D01*
X119119723Y-80780277D01*
X119116943Y-80778419D01*
X119115062Y-80775658D01*
X118997853Y-80698846D01*
X118881272Y-80620949D01*
X118877993Y-80620297D01*
X118875198Y-80618465D01*
X118737419Y-80592335D01*
X118600000Y-80565001D01*
X118596725Y-80565652D01*
X118593438Y-80565029D01*
X113319148Y-80612121D01*
X112940081Y-80201464D01*
X112928014Y-80192684D01*
X112919724Y-80180277D01*
X112273523Y-79534076D01*
X112480110Y-79675231D01*
X112732000Y-79726240D01*
X114764000Y-79726240D01*
X114999317Y-79681962D01*
X115215441Y-79542890D01*
X115360431Y-79330690D01*
X115411440Y-79078800D01*
X115411440Y-75421200D01*
X115367162Y-75185883D01*
X115228090Y-74969759D01*
X115015890Y-74824769D01*
X114764000Y-74773760D01*
X112732000Y-74773760D01*
X112496683Y-74818038D01*
X112280559Y-74957110D01*
X112135569Y-75169310D01*
X112084560Y-75421200D01*
X112084560Y-79078800D01*
X112128838Y-79314117D01*
X112264701Y-79525254D01*
X109335000Y-76595554D01*
X109335000Y-72446346D01*
X109600900Y-72556757D01*
X110156661Y-72557242D01*
X110670303Y-72345010D01*
X111063629Y-71952370D01*
X111149949Y-71744488D01*
X111234990Y-71950303D01*
X111627630Y-72343629D01*
X112140900Y-72556757D01*
X112696661Y-72557242D01*
X113210303Y-72345010D01*
X113603629Y-71952370D01*
X113689949Y-71744488D01*
X113774990Y-71950303D01*
X114167630Y-72343629D01*
X114680900Y-72556757D01*
X115236661Y-72557242D01*
X115750303Y-72345010D01*
X116143629Y-71952370D01*
X116229949Y-71744488D01*
X116314990Y-71950303D01*
X116707630Y-72343629D01*
X117220900Y-72556757D01*
X117776661Y-72557242D01*
X118290303Y-72345010D01*
X118683629Y-71952370D01*
X118896757Y-71439100D01*
X118897242Y-70883339D01*
X118685010Y-70369697D01*
X118468312Y-70152621D01*
X118514698Y-70121627D01*
X118825767Y-69656080D01*
X118935000Y-69106929D01*
X118935000Y-68133071D01*
X118825767Y-67583920D01*
X118514698Y-67118373D01*
X118049151Y-66807304D01*
X117500000Y-66698071D01*
X116950849Y-66807304D01*
X116485302Y-67118373D01*
X116230000Y-67500459D01*
X115974698Y-67118373D01*
X115509151Y-66807304D01*
X114960000Y-66698071D01*
X114410849Y-66807304D01*
X113945302Y-67118373D01*
X113690000Y-67500459D01*
X113434698Y-67118373D01*
X112969151Y-66807304D01*
X112420000Y-66698071D01*
X111870849Y-66807304D01*
X111405302Y-67118373D01*
X111150000Y-67500459D01*
X110894698Y-67118373D01*
X110429151Y-66807304D01*
X109880000Y-66698071D01*
X109335000Y-66806478D01*
X109335000Y-66200000D01*
X109279051Y-65918728D01*
X109220143Y-65830566D01*
X109119723Y-65680276D01*
X108075000Y-64635554D01*
X108075000Y-62688515D01*
X108354698Y-62501627D01*
X108610000Y-62119541D01*
X108865302Y-62501627D01*
X109330849Y-62812696D01*
X109880000Y-62921929D01*
X110429151Y-62812696D01*
X110894698Y-62501627D01*
X111150000Y-62119541D01*
X111405302Y-62501627D01*
X111870849Y-62812696D01*
X112420000Y-62921929D01*
X112969151Y-62812696D01*
X113434698Y-62501627D01*
X113690000Y-62119541D01*
X113945302Y-62501627D01*
G36*
X121215370Y-57863974D02*
X121001343Y-57952408D01*
X120900128Y-58053446D01*
X120800485Y-57953629D01*
X120346734Y-57765215D01*
X119855421Y-57764786D01*
X119401343Y-57952408D01*
X119300128Y-58053446D01*
X119200485Y-57953629D01*
X118746734Y-57765215D01*
X118255421Y-57764786D01*
X117801343Y-57952408D01*
X117453629Y-58299515D01*
X117265215Y-58753266D01*
X117264891Y-59124837D01*
X116950849Y-59187304D01*
X116485302Y-59498373D01*
X116230000Y-59880459D01*
X115974698Y-59498373D01*
X115509151Y-59187304D01*
X114960000Y-59078071D01*
X114847540Y-59100441D01*
X114847540Y-57543121D01*
X116227032Y-56285000D01*
X119477285Y-56285000D01*
X121215370Y-57863974D01*
X121215370Y-57863974D01*
G37*
X121215370Y-57863974D02*
X121001343Y-57952408D01*
X120900128Y-58053446D01*
X120800485Y-57953629D01*
X120346734Y-57765215D01*
X119855421Y-57764786D01*
X119401343Y-57952408D01*
X119300128Y-58053446D01*
X119200485Y-57953629D01*
X118746734Y-57765215D01*
X118255421Y-57764786D01*
X117801343Y-57952408D01*
X117453629Y-58299515D01*
X117265215Y-58753266D01*
X117264891Y-59124837D01*
X116950849Y-59187304D01*
X116485302Y-59498373D01*
X116230000Y-59880459D01*
X115974698Y-59498373D01*
X115509151Y-59187304D01*
X114960000Y-59078071D01*
X114847540Y-59100441D01*
X114847540Y-57543121D01*
X116227032Y-56285000D01*
X119477285Y-56285000D01*
X121215370Y-57863974D01*
G36*
X88570500Y-45446450D02*
X88729250Y-45605200D01*
X89523000Y-45605200D01*
X89523000Y-45585200D01*
X89777000Y-45585200D01*
X89777000Y-45605200D01*
X89797000Y-45605200D01*
X89797000Y-45859200D01*
X89777000Y-45859200D01*
X89777000Y-45879200D01*
X89523000Y-45879200D01*
X89523000Y-45859200D01*
X88729250Y-45859200D01*
X88570500Y-46017950D01*
X88570500Y-46696710D01*
X88605487Y-46781175D01*
X88532594Y-46956720D01*
X88532207Y-47401329D01*
X88701992Y-47812242D01*
X89016104Y-48126903D01*
X89426720Y-48297406D01*
X89707374Y-48297650D01*
X89833361Y-48602559D01*
X89428671Y-48602207D01*
X89017758Y-48771992D01*
X88703097Y-49086104D01*
X88532594Y-49496720D01*
X88532207Y-49941329D01*
X88602323Y-50111023D01*
X88558060Y-50329600D01*
X88558060Y-52006000D01*
X88569162Y-52065000D01*
X88189992Y-52065000D01*
X88201940Y-52006000D01*
X88201940Y-50329600D01*
X88159858Y-50105953D01*
X88227406Y-49943280D01*
X88227793Y-49498671D01*
X88058008Y-49087758D01*
X87743896Y-48773097D01*
X87363856Y-48615290D01*
X87364145Y-48284234D01*
X87742242Y-48128008D01*
X88056903Y-47813896D01*
X88227406Y-47403280D01*
X88227793Y-46958671D01*
X88157677Y-46788977D01*
X88201940Y-46570400D01*
X88201940Y-45135000D01*
X88570500Y-45135000D01*
X88570500Y-45446450D01*
X88570500Y-45446450D01*
G37*
X88570500Y-45446450D02*
X88729250Y-45605200D01*
X89523000Y-45605200D01*
X89523000Y-45585200D01*
X89777000Y-45585200D01*
X89777000Y-45605200D01*
X89797000Y-45605200D01*
X89797000Y-45859200D01*
X89777000Y-45859200D01*
X89777000Y-45879200D01*
X89523000Y-45879200D01*
X89523000Y-45859200D01*
X88729250Y-45859200D01*
X88570500Y-46017950D01*
X88570500Y-46696710D01*
X88605487Y-46781175D01*
X88532594Y-46956720D01*
X88532207Y-47401329D01*
X88701992Y-47812242D01*
X89016104Y-48126903D01*
X89426720Y-48297406D01*
X89707374Y-48297650D01*
X89833361Y-48602559D01*
X89428671Y-48602207D01*
X89017758Y-48771992D01*
X88703097Y-49086104D01*
X88532594Y-49496720D01*
X88532207Y-49941329D01*
X88602323Y-50111023D01*
X88558060Y-50329600D01*
X88558060Y-52006000D01*
X88569162Y-52065000D01*
X88189992Y-52065000D01*
X88201940Y-52006000D01*
X88201940Y-50329600D01*
X88159858Y-50105953D01*
X88227406Y-49943280D01*
X88227793Y-49498671D01*
X88058008Y-49087758D01*
X87743896Y-48773097D01*
X87363856Y-48615290D01*
X87364145Y-48284234D01*
X87742242Y-48128008D01*
X88056903Y-47813896D01*
X88227406Y-47403280D01*
X88227793Y-46958671D01*
X88157677Y-46788977D01*
X88201940Y-46570400D01*
X88201940Y-45135000D01*
X88570500Y-45135000D01*
X88570500Y-45446450D01*
M02*
