G04 #@! TF.FileFunction,Paste,Top*
%FSLAX46Y46*%
G04 Gerber Fmt 4.6, Leading zero omitted, Abs format (unit mm)*
G04 Created by KiCad (PCBNEW 4.0.0-rc1-stable) date Mon 12 Oct 2015 10:58:40 BST*
%MOMM*%
G01*
G04 APERTURE LIST*
%ADD10C,0.100000*%
%ADD11R,3.100000X1.000000*%
%ADD12R,2.000000X1.000000*%
%ADD13R,0.889000X1.676400*%
%ADD14R,1.600200X2.600960*%
%ADD15R,1.250000X1.500000*%
%ADD16R,2.000000X1.600000*%
%ADD17R,1.500000X1.250000*%
%ADD18R,0.750000X1.200000*%
%ADD19R,1.800860X1.597660*%
%ADD20R,2.032000X3.657600*%
%ADD21R,2.032000X1.016000*%
%ADD22R,1.200000X3.000000*%
%ADD23R,0.800100X1.800860*%
%ADD24R,1.300000X1.500000*%
%ADD25R,0.900000X1.200000*%
%ADD26R,1.500000X1.300000*%
%ADD27R,5.499100X1.998980*%
G04 APERTURE END LIST*
D10*
D11*
X134100000Y-90950000D03*
X125200000Y-90950000D03*
X125200000Y-86950000D03*
X134100000Y-86950000D03*
D12*
X116000000Y-85700000D03*
X116000000Y-84430000D03*
D13*
X125210000Y-45732200D03*
X127750000Y-45732200D03*
X132830000Y-45732200D03*
X130290000Y-45732200D03*
X104890000Y-45732200D03*
X107430000Y-45732200D03*
X112510000Y-45732200D03*
X109970000Y-45732200D03*
X120130000Y-45732200D03*
X122670000Y-45732200D03*
X117590000Y-45732200D03*
X115050000Y-45732200D03*
X94730000Y-45732200D03*
X97270000Y-45732200D03*
X102350000Y-45732200D03*
X99810000Y-45732200D03*
X89650000Y-45732200D03*
X92190000Y-45732200D03*
X87110000Y-45732200D03*
X84570000Y-45732200D03*
X132830000Y-51167800D03*
X130290000Y-51167800D03*
X125210000Y-51167800D03*
X127750000Y-51167800D03*
X117590000Y-51167800D03*
X115050000Y-51167800D03*
X120130000Y-51167800D03*
X122670000Y-51167800D03*
X112510000Y-51167800D03*
X109970000Y-51167800D03*
X104890000Y-51167800D03*
X107430000Y-51167800D03*
X87110000Y-51167800D03*
X84570000Y-51167800D03*
X89650000Y-51167800D03*
X92190000Y-51167800D03*
X102350000Y-51167800D03*
X99810000Y-51167800D03*
X94730000Y-51167800D03*
X97270000Y-51167800D03*
D14*
X113400000Y-57800860D03*
X113400000Y-54199140D03*
D15*
X108900000Y-57650000D03*
X108900000Y-55150000D03*
D16*
X125500000Y-78500000D03*
X129500000Y-78500000D03*
X125500000Y-74200000D03*
X129500000Y-74200000D03*
D15*
X133000000Y-69250000D03*
X133000000Y-66750000D03*
D17*
X104150000Y-76000000D03*
X106650000Y-76000000D03*
D18*
X106000000Y-57950000D03*
X106000000Y-56050000D03*
X85700000Y-57850000D03*
X85700000Y-55950000D03*
D19*
X116000000Y-92730140D03*
X116000000Y-95569860D03*
D20*
X113748000Y-77250000D03*
D21*
X120352000Y-77250000D03*
X120352000Y-74964000D03*
X120352000Y-79536000D03*
D22*
X86500000Y-96400000D03*
X88500000Y-96400000D03*
X90500000Y-96400000D03*
X92500000Y-96400000D03*
X94500000Y-96400000D03*
X96500000Y-96400000D03*
X98500000Y-96400000D03*
X100500000Y-96400000D03*
X100500000Y-76700000D03*
X98500000Y-76700000D03*
X96500000Y-76700000D03*
X94500000Y-76700000D03*
X92500000Y-76700000D03*
X90500000Y-76700000D03*
X88500000Y-76700000D03*
X86500000Y-76700000D03*
D23*
X128150000Y-57201140D03*
X130050000Y-57201140D03*
X129100000Y-54198860D03*
D24*
X124900000Y-56850000D03*
X124900000Y-54150000D03*
X134000000Y-56950000D03*
X134000000Y-54250000D03*
D25*
X116000000Y-87950000D03*
X116000000Y-90150000D03*
D26*
X131050000Y-83150000D03*
X128350000Y-83150000D03*
D24*
X133000000Y-63850000D03*
X133000000Y-61150000D03*
D27*
X91301000Y-56000000D03*
X100699000Y-56000000D03*
M02*
