G04 #@! TF.FileFunction,Copper,L1,Top,Signal*
%FSLAX46Y46*%
G04 Gerber Fmt 4.6, Leading zero omitted, Abs format (unit mm)*
G04 Created by KiCad (PCBNEW 4.0.2+e4-6225~38~ubuntu14.04.1-stable) date Thu 07 Jul 2016 12:55:47 BST*
%MOMM*%
G01*
G04 APERTURE LIST*
%ADD10C,0.100000*%
%ADD11C,0.150000*%
%ADD12R,0.550000X1.600000*%
%ADD13R,1.600000X0.550000*%
%ADD14R,1.250000X1.500000*%
%ADD15R,2.000000X1.600000*%
%ADD16R,1.500000X1.250000*%
%ADD17R,1.800860X0.800100*%
%ADD18R,0.900000X1.200000*%
%ADD19R,2.032000X1.727200*%
%ADD20O,2.032000X1.727200*%
%ADD21R,2.032000X2.032000*%
%ADD22O,2.032000X2.032000*%
%ADD23R,2.500000X2.500000*%
%ADD24C,2.500000*%
%ADD25R,2.235200X2.235200*%
%ADD26C,1.750000*%
%ADD27R,1.750000X1.750000*%
%ADD28R,1.200000X0.900000*%
%ADD29R,1.200000X2.150000*%
%ADD30R,0.600000X1.500000*%
%ADD31R,1.600200X2.199640*%
%ADD32R,1.800860X1.597660*%
%ADD33R,1.000000X3.100000*%
%ADD34R,2.000000X1.000000*%
%ADD35R,0.889000X1.676400*%
%ADD36O,1.200000X1.400000*%
%ADD37C,1.400000*%
%ADD38C,1.200000*%
%ADD39C,1.000000*%
%ADD40C,0.200000*%
%ADD41C,0.300000*%
%ADD42C,0.254000*%
G04 APERTURE END LIST*
D10*
X81638095Y-66773810D02*
X82171429Y-66773810D01*
X82019048Y-66773810D02*
X82095238Y-66811905D01*
X82133333Y-66850001D01*
X82171429Y-66926191D01*
X82171429Y-67002382D01*
X81676190Y-67573810D02*
X81638095Y-67497620D01*
X81638095Y-67345239D01*
X81676190Y-67269048D01*
X81752381Y-67230953D01*
X82057143Y-67230953D01*
X82133333Y-67269048D01*
X82171429Y-67345239D01*
X82171429Y-67497620D01*
X82133333Y-67573810D01*
X82057143Y-67611905D01*
X81980952Y-67611905D01*
X81904762Y-67230953D01*
X82171429Y-67878572D02*
X81638095Y-68069048D01*
X82171429Y-68259524D01*
X81714286Y-68564286D02*
X81676190Y-68602381D01*
X81638095Y-68564286D01*
X81676190Y-68526191D01*
X81714286Y-68564286D01*
X81638095Y-68564286D01*
X82361905Y-68907143D02*
X82400000Y-68945238D01*
X82438095Y-69021429D01*
X82438095Y-69211905D01*
X82400000Y-69288095D01*
X82361905Y-69326191D01*
X82285714Y-69364286D01*
X82209524Y-69364286D01*
X82095238Y-69326191D01*
X81638095Y-68869048D01*
X81638095Y-69364286D01*
D11*
X115800000Y-95050000D02*
X115800000Y-96320000D01*
D12*
X109600000Y-61400000D03*
X108800000Y-61400000D03*
X108000000Y-61400000D03*
X107200000Y-61400000D03*
X106400000Y-61400000D03*
X105600000Y-61400000D03*
X104800000Y-61400000D03*
X104000000Y-61400000D03*
D13*
X102550000Y-62850000D03*
X102550000Y-63650000D03*
X102550000Y-64450000D03*
X102550000Y-65250000D03*
X102550000Y-66050000D03*
X102550000Y-66850000D03*
X102550000Y-67650000D03*
X102550000Y-68450000D03*
D12*
X104000000Y-69900000D03*
X104800000Y-69900000D03*
X105600000Y-69900000D03*
X106400000Y-69900000D03*
X107200000Y-69900000D03*
X108000000Y-69900000D03*
X108800000Y-69900000D03*
X109600000Y-69900000D03*
D13*
X111050000Y-68450000D03*
X111050000Y-67650000D03*
X111050000Y-66850000D03*
X111050000Y-66050000D03*
X111050000Y-65250000D03*
X111050000Y-64450000D03*
X111050000Y-63650000D03*
X111050000Y-62850000D03*
D14*
X102600000Y-57500000D03*
X102600000Y-55000000D03*
D15*
X125800000Y-74050000D03*
X129800000Y-74050000D03*
X125600000Y-79250000D03*
X129600000Y-79250000D03*
D14*
X95800000Y-71300000D03*
X95800000Y-68800000D03*
D16*
X106550000Y-73850000D03*
X109050000Y-73850000D03*
D17*
X125348860Y-62100000D03*
X125348860Y-64000000D03*
X128351140Y-63050000D03*
D18*
X118400000Y-87950000D03*
X118400000Y-90150000D03*
D19*
X138400000Y-55650000D03*
D20*
X138400000Y-58190000D03*
X138400000Y-60730000D03*
X138400000Y-63270000D03*
X138400000Y-65810000D03*
X138400000Y-68350000D03*
D21*
X118400000Y-99250000D03*
D22*
X115860000Y-99250000D03*
D21*
X129600000Y-99250000D03*
D22*
X127060000Y-99250000D03*
D23*
X135800000Y-78990000D03*
D24*
X135800000Y-73910000D03*
D25*
X82800000Y-85050000D03*
D26*
X79000000Y-56050000D03*
X81540000Y-56050000D03*
X79000000Y-58590000D03*
X81540000Y-58590000D03*
X79000000Y-61130000D03*
D27*
X81540000Y-61130000D03*
D28*
X128100000Y-55650000D03*
X125900000Y-55650000D03*
X100500000Y-86050000D03*
X98300000Y-86050000D03*
D29*
X98210000Y-89925000D03*
X95670000Y-89925000D03*
X93130000Y-89925000D03*
X90590000Y-89925000D03*
X90590000Y-98175000D03*
X93130000Y-98175000D03*
X95670000Y-98175000D03*
X98210000Y-98175000D03*
D28*
X128150000Y-58850000D03*
X125950000Y-58850000D03*
X130500000Y-67050000D03*
X128300000Y-67050000D03*
X124100000Y-83250000D03*
X126300000Y-83250000D03*
D18*
X95800000Y-65550000D03*
X95800000Y-63350000D03*
D30*
X101800000Y-60650000D03*
X100600000Y-60650000D03*
X99400000Y-60650000D03*
D31*
X106600000Y-57751140D03*
X106600000Y-54748860D03*
D32*
X118400000Y-92730140D03*
X118400000Y-95569860D03*
D17*
X119098860Y-75300000D03*
X119098860Y-77200000D03*
X122101140Y-76250000D03*
D33*
X130400000Y-86400000D03*
X130400000Y-95300000D03*
X126400000Y-95300000D03*
X126400000Y-86400000D03*
X86800000Y-70900000D03*
X86800000Y-62000000D03*
X90800000Y-62000000D03*
X90800000Y-70900000D03*
D34*
X115800000Y-95050000D03*
X115800000Y-96320000D03*
D28*
X92900000Y-87250000D03*
X90700000Y-87250000D03*
X95500000Y-85050000D03*
X93300000Y-85050000D03*
X98100000Y-82650000D03*
X95900000Y-82650000D03*
D35*
X102350000Y-45732200D03*
X94730000Y-51167800D03*
X84570000Y-51167800D03*
X125210000Y-45732200D03*
X127750000Y-45732200D03*
X132830000Y-45732200D03*
X130290000Y-45732200D03*
X104890000Y-45732200D03*
X107430000Y-45732200D03*
X112510000Y-45732200D03*
X109970000Y-45732200D03*
X120130000Y-45732200D03*
X122670000Y-45732200D03*
X117590000Y-45732200D03*
X115050000Y-45732200D03*
X94730000Y-45732200D03*
X97270000Y-45732200D03*
X99810000Y-45732200D03*
X89650000Y-45732200D03*
X92190000Y-45732200D03*
X87110000Y-45732200D03*
X84570000Y-45732200D03*
X132830000Y-51167800D03*
X130290000Y-51167800D03*
X125210000Y-51167800D03*
X127750000Y-51167800D03*
X117590000Y-51167800D03*
X115050000Y-51167800D03*
X120130000Y-51167800D03*
X122670000Y-51167800D03*
X112510000Y-51167800D03*
X109970000Y-51167800D03*
X104890000Y-51167800D03*
X107430000Y-51167800D03*
X87110000Y-51167800D03*
X89650000Y-51167800D03*
X92190000Y-51167800D03*
X102350000Y-51167800D03*
X99810000Y-51167800D03*
D36*
X112510000Y-49920000D03*
X109970000Y-49920000D03*
X115050000Y-49920000D03*
X117590000Y-49920000D03*
X127750000Y-49920000D03*
X125210000Y-49920000D03*
X120130000Y-49920000D03*
X122670000Y-49920000D03*
X130290000Y-49920000D03*
X132830000Y-49920000D03*
X107430000Y-49920000D03*
X104890000Y-49920000D03*
X97270000Y-49920000D03*
X94730000Y-49920000D03*
X99810000Y-49920000D03*
X102350000Y-49920000D03*
X92190000Y-49920000D03*
X89650000Y-49920000D03*
X84570000Y-49920000D03*
X87110000Y-49920000D03*
X87110000Y-46980000D03*
X84570000Y-46980000D03*
X89650000Y-46980000D03*
X92190000Y-46980000D03*
X102350000Y-46980000D03*
X99810000Y-46980000D03*
X94730000Y-46980000D03*
X97270000Y-46980000D03*
X104890000Y-46980000D03*
X107430000Y-46980000D03*
X132830000Y-46980000D03*
X130290000Y-46980000D03*
X122670000Y-46980000D03*
X120130000Y-46980000D03*
X125210000Y-46980000D03*
X127750000Y-46980000D03*
X117590000Y-46980000D03*
X115050000Y-46980000D03*
X109970000Y-46980000D03*
X112510000Y-46980000D03*
D35*
X97270000Y-51167800D03*
D37*
X106200000Y-65050000D03*
D38*
X117600000Y-80250000D03*
D37*
X102000000Y-97650000D03*
X95600000Y-87250000D03*
X104600000Y-74450000D03*
X88400000Y-66450000D03*
X83600000Y-73050000D03*
X113400000Y-97450000D03*
X107400000Y-67250000D03*
X100400000Y-58850000D03*
X110000000Y-59250000D03*
X114400000Y-59650000D03*
D38*
X118200000Y-56450000D03*
X121000000Y-78050000D03*
D37*
X130400000Y-76650000D03*
X125400000Y-70850000D03*
X117600000Y-83450000D03*
X116600000Y-70650000D03*
D38*
X118600000Y-67250000D03*
X108600000Y-68250000D03*
X96800000Y-67050000D03*
X115000000Y-65450000D03*
X118600000Y-65250000D03*
X102600000Y-78850000D03*
X111000000Y-77650000D03*
X108600000Y-65250000D03*
X113600000Y-65650000D03*
X112400000Y-61450000D03*
X99400000Y-80450000D03*
X101800000Y-74650000D03*
D39*
X102000000Y-72850000D03*
D38*
X93400000Y-69050000D03*
X95800000Y-73250000D03*
D39*
X102800000Y-71850000D03*
D38*
X103400000Y-73250000D03*
X122800000Y-59650000D03*
X113000000Y-55250000D03*
X115400000Y-62650000D03*
X118600000Y-63250000D03*
X107600000Y-63850000D03*
X109600000Y-76050000D03*
X101600000Y-81650000D03*
X99600000Y-84250000D03*
X106200000Y-82650000D03*
X111600000Y-56850000D03*
X105800000Y-67250000D03*
X121800000Y-58450000D03*
X112400000Y-82450000D03*
X112400000Y-85050000D03*
X112400000Y-87850000D03*
X112400000Y-90250000D03*
X112400000Y-92850000D03*
X112400000Y-95450000D03*
X122000000Y-61850000D03*
X93000000Y-71300000D03*
D40*
X127750000Y-45732200D02*
X127750000Y-47180000D01*
X132830000Y-45732200D02*
X132830000Y-47180000D01*
X130290000Y-45732200D02*
X130290000Y-47180000D01*
X104890000Y-45732200D02*
X104890000Y-47180000D01*
X112510000Y-45732200D02*
X112510000Y-47180000D01*
X109970000Y-45732200D02*
X109970000Y-47180000D01*
X122670000Y-45732200D02*
X122670000Y-47180000D01*
X117590000Y-45732200D02*
X117590000Y-47180000D01*
X115050000Y-45732200D02*
X115050000Y-47180000D01*
X97270000Y-45732200D02*
X97270000Y-47180000D01*
X102350000Y-45732200D02*
X102350000Y-47180000D01*
X87110000Y-45732200D02*
X87110000Y-47180000D01*
X84570000Y-45732200D02*
X84570000Y-47180000D01*
X130290000Y-51167800D02*
X130290000Y-49720000D01*
X125210000Y-51167800D02*
X125210000Y-49720000D01*
X127750000Y-51167800D02*
X127750000Y-49720000D01*
X117590000Y-51167800D02*
X117590000Y-49720000D01*
X120130000Y-51167800D02*
X120130000Y-49720000D01*
X122670000Y-51167800D02*
X122670000Y-49720000D01*
X112510000Y-51167800D02*
X112510000Y-49720000D01*
X109970000Y-51167800D02*
X109970000Y-49720000D01*
X107430000Y-51167800D02*
X107430000Y-49720000D01*
X87110000Y-51167800D02*
X87110000Y-49720000D01*
X89650000Y-51167800D02*
X89650000Y-49720000D01*
X92190000Y-51167800D02*
X92190000Y-49720000D01*
X102350000Y-51167800D02*
X102350000Y-49720000D01*
X99810000Y-51167800D02*
X99810000Y-49720000D01*
X97270000Y-51167800D02*
X97270000Y-49720000D01*
D41*
X117800000Y-80050000D02*
X117600000Y-80250000D01*
X121600000Y-80050000D02*
X117800000Y-80050000D01*
X124100000Y-82550000D02*
X121600000Y-80050000D01*
X124100000Y-83250000D02*
X124100000Y-82550000D01*
X101400000Y-97050000D02*
X101400000Y-89850000D01*
X102000000Y-97650000D02*
X101400000Y-97050000D01*
X95600000Y-87250000D02*
X95500000Y-87250000D01*
X104800000Y-69900000D02*
X104800000Y-74250000D01*
X104800000Y-74250000D02*
X104600000Y-74450000D01*
X104800000Y-69900000D02*
X104800000Y-66450000D01*
X104800000Y-66450000D02*
X106200000Y-65050000D01*
X106200000Y-65050000D02*
X106200000Y-62850000D01*
X95500000Y-85050000D02*
X95500000Y-87250000D01*
X95500000Y-87250000D02*
X95600000Y-87250000D01*
X94800000Y-87250000D02*
X95600000Y-87250000D01*
X94800000Y-87250000D02*
X92900000Y-87250000D01*
X95600000Y-87250000D02*
X95800000Y-87250000D01*
X99400000Y-91850000D02*
X101400000Y-89850000D01*
X97600000Y-91850000D02*
X99400000Y-91850000D01*
X97000000Y-91250000D02*
X97600000Y-91850000D01*
X97000000Y-88450000D02*
X97000000Y-91250000D01*
X95800000Y-87250000D02*
X97000000Y-88450000D01*
X101400000Y-89850000D02*
X101400000Y-88050000D01*
X100500000Y-87150000D02*
X101400000Y-88050000D01*
X100500000Y-86050000D02*
X100500000Y-87150000D01*
X98100000Y-82650000D02*
X98100000Y-83750000D01*
X98100000Y-83750000D02*
X96800000Y-85050000D01*
X96800000Y-85050000D02*
X95500000Y-85050000D01*
X95800000Y-63350000D02*
X95800000Y-60050000D01*
X98350000Y-57500000D02*
X102600000Y-57500000D01*
X95800000Y-60050000D02*
X98350000Y-57500000D01*
X105600000Y-61400000D02*
X105600000Y-62450000D01*
X107200000Y-62450000D02*
X107200000Y-61400000D01*
X106800000Y-62850000D02*
X107200000Y-62450000D01*
X106000000Y-62850000D02*
X106200000Y-62850000D01*
X106200000Y-62850000D02*
X106800000Y-62850000D01*
X105600000Y-62450000D02*
X106000000Y-62850000D01*
X107200000Y-61400000D02*
X107200000Y-58351140D01*
X107200000Y-58351140D02*
X106600000Y-57751140D01*
X102600000Y-57500000D02*
X104250000Y-57500000D01*
X104501140Y-57751140D02*
X106600000Y-57751140D01*
X104250000Y-57500000D02*
X104501140Y-57751140D01*
X94730000Y-51167800D02*
X94730000Y-49720000D01*
X115050000Y-51167800D02*
X115050000Y-49720000D01*
X132830000Y-51167800D02*
X132830000Y-49720000D01*
X125210000Y-45732200D02*
X125210000Y-47180000D01*
X120130000Y-45732200D02*
X120130000Y-47180000D01*
X107430000Y-45732200D02*
X107430000Y-47180000D01*
X99810000Y-45732200D02*
X99810000Y-47180000D01*
X89650000Y-45732200D02*
X89650000Y-47180000D01*
X86800000Y-62000000D02*
X86800000Y-64850000D01*
X86800000Y-64850000D02*
X88400000Y-66450000D01*
X98210000Y-98175000D02*
X99925000Y-98175000D01*
X113200000Y-97450000D02*
X113400000Y-97450000D01*
X111400000Y-99250000D02*
X113200000Y-97450000D01*
X101000000Y-99250000D02*
X111400000Y-99250000D01*
X99925000Y-98175000D02*
X101000000Y-99250000D01*
X107200000Y-69900000D02*
X107200000Y-71650000D01*
X107200000Y-71650000D02*
X107400000Y-71850000D01*
X107200000Y-69900000D02*
X107200000Y-67450000D01*
X107200000Y-67450000D02*
X107400000Y-67250000D01*
X100600000Y-60650000D02*
X100600000Y-59050000D01*
X100600000Y-59050000D02*
X100400000Y-58850000D01*
X106400000Y-61400000D02*
X106400000Y-60050000D01*
X106400000Y-60050000D02*
X106200000Y-59850000D01*
X108000000Y-60450000D02*
X109200000Y-59250000D01*
X109200000Y-59250000D02*
X110000000Y-59250000D01*
X108000000Y-61400000D02*
X108000000Y-60450000D01*
X119098860Y-77200000D02*
X119950000Y-77200000D01*
X119950000Y-77200000D02*
X120800000Y-78050000D01*
X120800000Y-78050000D02*
X121000000Y-78050000D01*
X129600000Y-79250000D02*
X129600000Y-77450000D01*
X129600000Y-77450000D02*
X130400000Y-76650000D01*
X125800000Y-74050000D02*
X125800000Y-71250000D01*
X125800000Y-71250000D02*
X125400000Y-70850000D01*
X89650000Y-45732200D02*
X88617800Y-45732200D01*
X88617800Y-45732200D02*
X88350000Y-46000000D01*
X88350000Y-46000000D02*
X88350000Y-48500000D01*
X130500000Y-67050000D02*
X130500000Y-73350000D01*
X130500000Y-73350000D02*
X129800000Y-74050000D01*
X129800000Y-74050000D02*
X129800000Y-74850000D01*
X129800000Y-74850000D02*
X128800000Y-75850000D01*
X119548860Y-74850000D02*
X119098860Y-75300000D01*
X123400000Y-74850000D02*
X119548860Y-74850000D01*
X124400000Y-75850000D02*
X123400000Y-74850000D01*
X128800000Y-75850000D02*
X124400000Y-75850000D01*
X135800000Y-73910000D02*
X129940000Y-73910000D01*
X129940000Y-73910000D02*
X129800000Y-74050000D01*
X122101140Y-76250000D02*
X117600000Y-76250000D01*
X115800000Y-71450000D02*
X116600000Y-70650000D01*
X115800000Y-74450000D02*
X115800000Y-71450000D01*
X117600000Y-76250000D02*
X115800000Y-74450000D01*
X128100000Y-55650000D02*
X128100000Y-58800000D01*
X128100000Y-58800000D02*
X128150000Y-58850000D01*
X125348860Y-62100000D02*
X126950000Y-62100000D01*
X126950000Y-62100000D02*
X126900000Y-62150000D01*
X128150000Y-58850000D02*
X128150000Y-60900000D01*
X128150000Y-60900000D02*
X126900000Y-62150000D01*
X126900000Y-62150000D02*
X126900000Y-64550000D01*
X121400000Y-67250000D02*
X118600000Y-67250000D01*
X123400000Y-65250000D02*
X121400000Y-67250000D01*
X126200000Y-65250000D02*
X123400000Y-65250000D01*
X126900000Y-64550000D02*
X126200000Y-65250000D01*
X125600000Y-79250000D02*
X123400000Y-79250000D01*
X122101140Y-77951140D02*
X122101140Y-76250000D01*
X123400000Y-79250000D02*
X122101140Y-77951140D01*
X124600000Y-62200000D02*
X125348860Y-62100000D01*
D40*
X110200000Y-65250000D02*
X109800000Y-65650000D01*
X109800000Y-65650000D02*
X109800000Y-67850000D01*
X109800000Y-67850000D02*
X109400000Y-68250000D01*
X109400000Y-68250000D02*
X108600000Y-68250000D01*
X110200000Y-65250000D02*
X111050000Y-65250000D01*
X95800000Y-67050000D02*
X96800000Y-67050000D01*
X95800000Y-68800000D02*
X95800000Y-67050000D01*
X95800000Y-67050000D02*
X95800000Y-65550000D01*
X106400000Y-69900000D02*
X106400000Y-73700000D01*
X106400000Y-73700000D02*
X106550000Y-73850000D01*
X118400000Y-90150000D02*
X118400000Y-92730140D01*
X111050000Y-64450000D02*
X114000000Y-64450000D01*
X114000000Y-64450000D02*
X115000000Y-65450000D01*
X111050000Y-63650000D02*
X114600000Y-63650000D01*
X116200000Y-65250000D02*
X118600000Y-65250000D01*
X114600000Y-63650000D02*
X116200000Y-65250000D01*
X110000000Y-62850000D02*
X111050000Y-62850000D01*
X109800000Y-78850000D02*
X102600000Y-78850000D01*
X111000000Y-77650000D02*
X109800000Y-78850000D01*
X108600000Y-64250000D02*
X108600000Y-65250000D01*
X110000000Y-62850000D02*
X108600000Y-64250000D01*
X114800000Y-75050000D02*
X114800000Y-75250000D01*
X114800000Y-66850000D02*
X113600000Y-65650000D01*
X112400000Y-61450000D02*
X112350000Y-61400000D01*
X109600000Y-61400000D02*
X112350000Y-61400000D01*
X114800000Y-75050000D02*
X114800000Y-67650000D01*
X114800000Y-67650000D02*
X114800000Y-66850000D01*
X116600000Y-78450000D02*
X117400000Y-79250000D01*
X116600000Y-77050000D02*
X116600000Y-78450000D01*
X114800000Y-75250000D02*
X116600000Y-77050000D01*
X122000000Y-79250000D02*
X117400000Y-79250000D01*
X126000000Y-83250000D02*
X122000000Y-79250000D01*
X126300000Y-83250000D02*
X126000000Y-83250000D01*
X126400000Y-86400000D02*
X126400000Y-83350000D01*
X126400000Y-83350000D02*
X126300000Y-83250000D01*
X126400000Y-95300000D02*
X126400000Y-86400000D01*
X127060000Y-99250000D02*
X127060000Y-98510000D01*
X127060000Y-98510000D02*
X126400000Y-97850000D01*
X126400000Y-97850000D02*
X126400000Y-95300000D01*
X100600000Y-66050000D02*
X102550000Y-66050000D01*
X100600000Y-66050000D02*
X100200000Y-66450000D01*
X100200000Y-66450000D02*
X100200000Y-74850000D01*
X100200000Y-74850000D02*
X99400000Y-75650000D01*
X99400000Y-75650000D02*
X99400000Y-80450000D01*
X115800000Y-96320000D02*
X115800000Y-99190000D01*
X115800000Y-99190000D02*
X115860000Y-99250000D01*
X115060000Y-99000000D02*
X115060000Y-98960000D01*
X101200000Y-66850000D02*
X100800000Y-67250000D01*
X100800000Y-67250000D02*
X100800000Y-73450000D01*
X100800000Y-73450000D02*
X101800000Y-74450000D01*
X102550000Y-66850000D02*
X101200000Y-66850000D01*
X102000000Y-72850000D02*
X101400000Y-72250000D01*
X101400000Y-72250000D02*
X101400000Y-67850000D01*
X101400000Y-67850000D02*
X101600000Y-67650000D01*
X102550000Y-67650000D02*
X101600000Y-67650000D01*
X93400000Y-69050000D02*
X93400000Y-69450000D01*
X97000000Y-72050000D02*
X95800000Y-73250000D01*
X97000000Y-70450000D02*
X97000000Y-72050000D01*
X96600000Y-70050000D02*
X97000000Y-70450000D01*
X94000000Y-70050000D02*
X96600000Y-70050000D01*
X93400000Y-69450000D02*
X94000000Y-70050000D01*
X102550000Y-71600000D02*
X102550000Y-68450000D01*
X102800000Y-71850000D02*
X102550000Y-71600000D01*
X104000000Y-72650000D02*
X104000000Y-69900000D01*
X103400000Y-73250000D02*
X104000000Y-72650000D01*
X94730000Y-45732200D02*
X94730000Y-47180000D01*
X95500000Y-45750000D02*
X94747800Y-45750000D01*
X94747800Y-45750000D02*
X94730000Y-45732200D01*
X94730000Y-45732200D02*
X95082200Y-45732200D01*
X95482200Y-45732200D02*
X95500000Y-45750000D01*
X95500000Y-45750000D02*
X96000000Y-46250000D01*
X96000000Y-46250000D02*
X96000000Y-47450000D01*
X96000000Y-47450000D02*
X96600000Y-48050000D01*
X96600000Y-48050000D02*
X112400000Y-48050000D01*
X112400000Y-48050000D02*
X113800000Y-49450000D01*
X113800000Y-49450000D02*
X113800000Y-53250000D01*
X113800000Y-53250000D02*
X115400000Y-54850000D01*
X115400000Y-54850000D02*
X120800000Y-54850000D01*
X120800000Y-54850000D02*
X122800000Y-56850000D01*
X122800000Y-56850000D02*
X122800000Y-59650000D01*
X92190000Y-45732200D02*
X92190000Y-47180000D01*
X93082200Y-45732200D02*
X93400000Y-46050000D01*
X93400000Y-46050000D02*
X93400000Y-47250000D01*
X93400000Y-47250000D02*
X94800000Y-48650000D01*
X94800000Y-48650000D02*
X110200000Y-48650000D01*
X110200000Y-48650000D02*
X111200000Y-49650000D01*
X93082200Y-45732200D02*
X92190000Y-45732200D01*
X111200000Y-53450000D02*
X111200000Y-49650000D01*
X113000000Y-55250000D02*
X111200000Y-53450000D01*
D41*
X84570000Y-51167800D02*
X84570000Y-49720000D01*
X104890000Y-51167800D02*
X104890000Y-49720000D01*
X115400000Y-62650000D02*
X109800000Y-57050000D01*
X109800000Y-57050000D02*
X109800000Y-54450000D01*
X109800000Y-54450000D02*
X108200000Y-52850000D01*
X108200000Y-52850000D02*
X104890000Y-52850000D01*
X104890000Y-51167800D02*
X104890000Y-52850000D01*
X104890000Y-52850000D02*
X85600000Y-52850000D01*
X84570000Y-51167800D02*
X84570000Y-51820000D01*
X84570000Y-51820000D02*
X85600000Y-52850000D01*
D40*
X115800000Y-95050000D02*
X115800000Y-89050000D01*
X116900000Y-87950000D02*
X118400000Y-87950000D01*
X115800000Y-89050000D02*
X116900000Y-87950000D01*
X128351140Y-63050000D02*
X128351140Y-66798860D01*
X128351140Y-66798860D02*
X128100000Y-67050000D01*
X128351140Y-63050000D02*
X138180000Y-63050000D01*
X138180000Y-63050000D02*
X138400000Y-63270000D01*
X125950000Y-58850000D02*
X125950000Y-59100000D01*
X125950000Y-59100000D02*
X123200000Y-61850000D01*
X123200000Y-61850000D02*
X123200000Y-64000000D01*
X124550000Y-64000000D02*
X125348860Y-64000000D01*
X125700000Y-58850000D02*
X125700000Y-58950000D01*
X125348860Y-64000000D02*
X123200000Y-64000000D01*
X123200000Y-64000000D02*
X121350000Y-64000000D01*
X120600000Y-63250000D02*
X118600000Y-63250000D01*
X121350000Y-64000000D02*
X120600000Y-63250000D01*
X125348860Y-64000000D02*
X125800000Y-64000000D01*
X108800000Y-61400000D02*
X108800000Y-62650000D01*
X108800000Y-62650000D02*
X107600000Y-63850000D01*
X109600000Y-76050000D02*
X100600000Y-76050000D01*
X98300000Y-85550000D02*
X98300000Y-86050000D01*
X99600000Y-84250000D02*
X98300000Y-85550000D01*
X100400000Y-80450000D02*
X101600000Y-81650000D01*
X100400000Y-76250000D02*
X100400000Y-80450000D01*
X100600000Y-76050000D02*
X100400000Y-76250000D01*
X98210000Y-89925000D02*
X98210000Y-86160000D01*
X98210000Y-86160000D02*
X98100000Y-86050000D01*
X104800000Y-61400000D02*
X104800000Y-60450000D01*
X102400000Y-60050000D02*
X101800000Y-60650000D01*
X104400000Y-60050000D02*
X102400000Y-60050000D01*
X104800000Y-60450000D02*
X104400000Y-60050000D01*
X99400000Y-60650000D02*
X99400000Y-61650000D01*
X103250000Y-61400000D02*
X104000000Y-61400000D01*
X102800000Y-61850000D02*
X103250000Y-61400000D01*
X99600000Y-61850000D02*
X102800000Y-61850000D01*
X99400000Y-61650000D02*
X99600000Y-61850000D01*
X102550000Y-65250000D02*
X100200000Y-65250000D01*
X100200000Y-82650000D02*
X106200000Y-82650000D01*
X98400000Y-80850000D02*
X100200000Y-82650000D01*
X98400000Y-75650000D02*
X98400000Y-80850000D01*
X99600000Y-74450000D02*
X98400000Y-75650000D01*
X99600000Y-65850000D02*
X99600000Y-74450000D01*
X100200000Y-65250000D02*
X99600000Y-65850000D01*
X121800000Y-58450000D02*
X122200000Y-58050000D01*
X105800000Y-67250000D02*
X105600000Y-67450000D01*
X105600000Y-67450000D02*
X105600000Y-69900000D01*
X112800000Y-56850000D02*
X111600000Y-56850000D01*
X114200000Y-55450000D02*
X112800000Y-56850000D01*
X120600000Y-55450000D02*
X114200000Y-55450000D01*
X122200000Y-57050000D02*
X120600000Y-55450000D01*
X122200000Y-58050000D02*
X122200000Y-57050000D01*
X121800000Y-58450000D02*
X121600000Y-58250000D01*
X108800000Y-69900000D02*
X108800000Y-71250000D01*
X112400000Y-77650000D02*
X112400000Y-82450000D01*
X110800000Y-76050000D02*
X112400000Y-77650000D01*
X110800000Y-72050000D02*
X110800000Y-76050000D01*
X110400000Y-71650000D02*
X110800000Y-72050000D01*
X109200000Y-71650000D02*
X110400000Y-71650000D01*
X108800000Y-71250000D02*
X109200000Y-71650000D01*
X111400000Y-75850000D02*
X111400000Y-71850000D01*
X113400000Y-77850000D02*
X113400000Y-84050000D01*
X113400000Y-84050000D02*
X112400000Y-85050000D01*
X111400000Y-75850000D02*
X113400000Y-77850000D01*
X109400000Y-69850000D02*
X109650000Y-69850000D01*
X111400000Y-71850000D02*
X109400000Y-69850000D01*
X109650000Y-69850000D02*
X109600000Y-69900000D01*
X112000000Y-75650000D02*
X112000000Y-69400000D01*
X111050000Y-68450000D02*
X112000000Y-69400000D01*
X112400000Y-87650000D02*
X112400000Y-87850000D01*
X114000000Y-86050000D02*
X112400000Y-87650000D01*
X114000000Y-77650000D02*
X114000000Y-86050000D01*
X112000000Y-75650000D02*
X114000000Y-77650000D01*
X111050000Y-67650000D02*
X112200000Y-67650000D01*
X113400000Y-89250000D02*
X112400000Y-90250000D01*
X113400000Y-87450000D02*
X113400000Y-89250000D01*
X114600000Y-86250000D02*
X113400000Y-87450000D01*
X114600000Y-77450000D02*
X114600000Y-86250000D01*
X112600000Y-75450000D02*
X114600000Y-77450000D01*
X112600000Y-68050000D02*
X112600000Y-75450000D01*
X112200000Y-67650000D02*
X112600000Y-68050000D01*
X111050000Y-66850000D02*
X112400000Y-66850000D01*
X114000000Y-91250000D02*
X112400000Y-92850000D01*
X114000000Y-87650000D02*
X114000000Y-91250000D01*
X115200000Y-86450000D02*
X114000000Y-87650000D01*
X115200000Y-77250000D02*
X115200000Y-86450000D01*
X113200000Y-75250000D02*
X115200000Y-77250000D01*
X113200000Y-67650000D02*
X113200000Y-75250000D01*
X112400000Y-66850000D02*
X113200000Y-67650000D01*
X111050000Y-66050000D02*
X112600000Y-66050000D01*
X114600000Y-93250000D02*
X112400000Y-95450000D01*
X114600000Y-87850000D02*
X114600000Y-93250000D01*
X115800000Y-86650000D02*
X114600000Y-87850000D01*
X115800000Y-77050000D02*
X115800000Y-86650000D01*
X113800000Y-75050000D02*
X115800000Y-77050000D01*
X113800000Y-67250000D02*
X113800000Y-75050000D01*
X112600000Y-66050000D02*
X113800000Y-67250000D01*
X125900000Y-55650000D02*
X125600000Y-55650000D01*
X125600000Y-55650000D02*
X124400000Y-56850000D01*
X124400000Y-56850000D02*
X124400000Y-59450000D01*
X124400000Y-59450000D02*
X122000000Y-61850000D01*
X90000000Y-84250000D02*
X91600000Y-84250000D01*
X95670000Y-91180000D02*
X94600000Y-92250000D01*
X94600000Y-92250000D02*
X89400000Y-92250000D01*
X89400000Y-92250000D02*
X88000000Y-90850000D01*
X88000000Y-90850000D02*
X88000000Y-86250000D01*
X88000000Y-86250000D02*
X90000000Y-84250000D01*
X97800000Y-73650000D02*
X97800000Y-64050000D01*
X97800000Y-64050000D02*
X99000000Y-62850000D01*
X102550000Y-62850000D02*
X99000000Y-62850000D01*
X95670000Y-91180000D02*
X95670000Y-89925000D01*
X92600000Y-78850000D02*
X97800000Y-73650000D01*
X92600000Y-83250000D02*
X92600000Y-78850000D01*
X91600000Y-84250000D02*
X92600000Y-83250000D01*
X95670000Y-89925000D02*
X95670000Y-88920000D01*
X95670000Y-88920000D02*
X95000000Y-88250000D01*
X95000000Y-88250000D02*
X91700000Y-88250000D01*
X91700000Y-88250000D02*
X90700000Y-87250000D01*
X93300000Y-85050000D02*
X93300000Y-78950000D01*
X99400000Y-63650000D02*
X98400000Y-64650000D01*
X98400000Y-64650000D02*
X98400000Y-73850000D01*
X99400000Y-63650000D02*
X102550000Y-63650000D01*
X93300000Y-78950000D02*
X98400000Y-73850000D01*
X93130000Y-89925000D02*
X93130000Y-90520000D01*
X93130000Y-90520000D02*
X92200000Y-91450000D01*
X92200000Y-91450000D02*
X89600000Y-91450000D01*
X89600000Y-91450000D02*
X88600000Y-90450000D01*
X88600000Y-90450000D02*
X88600000Y-86450000D01*
X88600000Y-86450000D02*
X90000000Y-85050000D01*
X90000000Y-85050000D02*
X93300000Y-85050000D01*
X95900000Y-82650000D02*
X95900000Y-77150000D01*
X99800000Y-64450000D02*
X99000000Y-65250000D01*
X99000000Y-65250000D02*
X99000000Y-74050000D01*
X99800000Y-64450000D02*
X102550000Y-64450000D01*
X95900000Y-77150000D02*
X99000000Y-74050000D01*
X90590000Y-89925000D02*
X90275000Y-89925000D01*
X90275000Y-89925000D02*
X89200000Y-88850000D01*
X89200000Y-88850000D02*
X89200000Y-86850000D01*
X89200000Y-86850000D02*
X90000000Y-86050000D01*
X90000000Y-86050000D02*
X94000000Y-86050000D01*
X94000000Y-86050000D02*
X94400000Y-85650000D01*
X94400000Y-85650000D02*
X94400000Y-83650000D01*
X94400000Y-83650000D02*
X95400000Y-82650000D01*
X95400000Y-82650000D02*
X95900000Y-82650000D01*
X95800000Y-71300000D02*
X93000000Y-71300000D01*
X93000000Y-71300000D02*
X91200000Y-71300000D01*
X91200000Y-71300000D02*
X90800000Y-70900000D01*
X90800000Y-62000000D02*
X90800000Y-70900000D01*
D42*
G36*
X122896838Y-83935317D02*
X123035910Y-84151441D01*
X123248110Y-84296431D01*
X123500000Y-84347440D01*
X124700000Y-84347440D01*
X124935317Y-84303162D01*
X125151441Y-84164090D01*
X125199134Y-84094289D01*
X125235910Y-84151441D01*
X125448110Y-84296431D01*
X125554220Y-84317919D01*
X125448559Y-84385910D01*
X125303569Y-84598110D01*
X125252560Y-84850000D01*
X125252560Y-87950000D01*
X125296838Y-88185317D01*
X125435910Y-88401441D01*
X125648110Y-88546431D01*
X125665000Y-88549851D01*
X125665000Y-93146778D01*
X125664683Y-93146838D01*
X125448559Y-93285910D01*
X125303569Y-93498110D01*
X125252560Y-93750000D01*
X125252560Y-96850000D01*
X125296838Y-97085317D01*
X125435910Y-97301441D01*
X125648110Y-97446431D01*
X125665000Y-97449851D01*
X125665000Y-97850000D01*
X125702331Y-98037672D01*
X125720949Y-98131272D01*
X125779680Y-98219169D01*
X125534675Y-98585845D01*
X125409000Y-99217655D01*
X125409000Y-99282345D01*
X125534675Y-99914155D01*
X125769102Y-100265000D01*
X120051000Y-100265000D01*
X120051000Y-99535750D01*
X119892250Y-99377000D01*
X118527000Y-99377000D01*
X118527000Y-99397000D01*
X118273000Y-99397000D01*
X118273000Y-99377000D01*
X118253000Y-99377000D01*
X118253000Y-99123000D01*
X118273000Y-99123000D01*
X118273000Y-97757750D01*
X118114250Y-97599000D01*
X117257690Y-97599000D01*
X117024301Y-97695673D01*
X116845673Y-97874302D01*
X116828001Y-97916966D01*
X116535000Y-97721189D01*
X116535000Y-97467440D01*
X116800000Y-97467440D01*
X117035317Y-97423162D01*
X117251441Y-97284090D01*
X117396431Y-97071890D01*
X117410242Y-97003690D01*
X118114250Y-97003690D01*
X118273000Y-96844940D01*
X118273000Y-95696860D01*
X118253000Y-95696860D01*
X118253000Y-95442860D01*
X118273000Y-95442860D01*
X118273000Y-95422860D01*
X118527000Y-95422860D01*
X118527000Y-95442860D01*
X118547000Y-95442860D01*
X118547000Y-95696860D01*
X118527000Y-95696860D01*
X118527000Y-96844940D01*
X118685750Y-97003690D01*
X119426740Y-97003690D01*
X119518148Y-96965827D01*
X119528162Y-97016170D01*
X119528162Y-97083636D01*
X119604282Y-97466319D01*
X119674152Y-97635000D01*
X119683457Y-97657465D01*
X119542310Y-97599000D01*
X118685750Y-97599000D01*
X118527000Y-97757750D01*
X118527000Y-99123000D01*
X119892250Y-99123000D01*
X120051000Y-98964250D01*
X120051000Y-98165336D01*
X120112328Y-98226664D01*
X120436751Y-98443437D01*
X120478549Y-98460750D01*
X120683681Y-98545718D01*
X121066364Y-98621838D01*
X121333636Y-98621838D01*
X121716319Y-98545718D01*
X121963248Y-98443437D01*
X121963249Y-98443436D01*
X122287672Y-98226664D01*
X122476664Y-98037672D01*
X122693437Y-97713249D01*
X122740760Y-97599000D01*
X122795718Y-97466319D01*
X122871838Y-97083636D01*
X122871838Y-97016170D01*
X122885000Y-96950000D01*
X122885000Y-83872404D01*
X122896838Y-83935317D01*
X122896838Y-83935317D01*
G37*
X122896838Y-83935317D02*
X123035910Y-84151441D01*
X123248110Y-84296431D01*
X123500000Y-84347440D01*
X124700000Y-84347440D01*
X124935317Y-84303162D01*
X125151441Y-84164090D01*
X125199134Y-84094289D01*
X125235910Y-84151441D01*
X125448110Y-84296431D01*
X125554220Y-84317919D01*
X125448559Y-84385910D01*
X125303569Y-84598110D01*
X125252560Y-84850000D01*
X125252560Y-87950000D01*
X125296838Y-88185317D01*
X125435910Y-88401441D01*
X125648110Y-88546431D01*
X125665000Y-88549851D01*
X125665000Y-93146778D01*
X125664683Y-93146838D01*
X125448559Y-93285910D01*
X125303569Y-93498110D01*
X125252560Y-93750000D01*
X125252560Y-96850000D01*
X125296838Y-97085317D01*
X125435910Y-97301441D01*
X125648110Y-97446431D01*
X125665000Y-97449851D01*
X125665000Y-97850000D01*
X125702331Y-98037672D01*
X125720949Y-98131272D01*
X125779680Y-98219169D01*
X125534675Y-98585845D01*
X125409000Y-99217655D01*
X125409000Y-99282345D01*
X125534675Y-99914155D01*
X125769102Y-100265000D01*
X120051000Y-100265000D01*
X120051000Y-99535750D01*
X119892250Y-99377000D01*
X118527000Y-99377000D01*
X118527000Y-99397000D01*
X118273000Y-99397000D01*
X118273000Y-99377000D01*
X118253000Y-99377000D01*
X118253000Y-99123000D01*
X118273000Y-99123000D01*
X118273000Y-97757750D01*
X118114250Y-97599000D01*
X117257690Y-97599000D01*
X117024301Y-97695673D01*
X116845673Y-97874302D01*
X116828001Y-97916966D01*
X116535000Y-97721189D01*
X116535000Y-97467440D01*
X116800000Y-97467440D01*
X117035317Y-97423162D01*
X117251441Y-97284090D01*
X117396431Y-97071890D01*
X117410242Y-97003690D01*
X118114250Y-97003690D01*
X118273000Y-96844940D01*
X118273000Y-95696860D01*
X118253000Y-95696860D01*
X118253000Y-95442860D01*
X118273000Y-95442860D01*
X118273000Y-95422860D01*
X118527000Y-95422860D01*
X118527000Y-95442860D01*
X118547000Y-95442860D01*
X118547000Y-95696860D01*
X118527000Y-95696860D01*
X118527000Y-96844940D01*
X118685750Y-97003690D01*
X119426740Y-97003690D01*
X119518148Y-96965827D01*
X119528162Y-97016170D01*
X119528162Y-97083636D01*
X119604282Y-97466319D01*
X119674152Y-97635000D01*
X119683457Y-97657465D01*
X119542310Y-97599000D01*
X118685750Y-97599000D01*
X118527000Y-97757750D01*
X118527000Y-99123000D01*
X119892250Y-99123000D01*
X120051000Y-98964250D01*
X120051000Y-98165336D01*
X120112328Y-98226664D01*
X120436751Y-98443437D01*
X120478549Y-98460750D01*
X120683681Y-98545718D01*
X121066364Y-98621838D01*
X121333636Y-98621838D01*
X121716319Y-98545718D01*
X121963248Y-98443437D01*
X121963249Y-98443436D01*
X122287672Y-98226664D01*
X122476664Y-98037672D01*
X122693437Y-97713249D01*
X122740760Y-97599000D01*
X122795718Y-97466319D01*
X122871838Y-97083636D01*
X122871838Y-97016170D01*
X122885000Y-96950000D01*
X122885000Y-83872404D01*
X122896838Y-83935317D01*
G36*
X83478060Y-46307822D02*
X83429009Y-46381232D01*
X83335000Y-46853846D01*
X83335000Y-47106154D01*
X83429009Y-47578768D01*
X83696723Y-47979431D01*
X84097386Y-48247145D01*
X84316138Y-48290658D01*
X84315860Y-48609398D01*
X84097386Y-48652855D01*
X83696723Y-48920569D01*
X83429009Y-49321232D01*
X83335000Y-49793846D01*
X83335000Y-50046154D01*
X83429009Y-50518768D01*
X83478060Y-50592178D01*
X83478060Y-52006000D01*
X83522338Y-52241317D01*
X83661410Y-52457441D01*
X83873610Y-52602431D01*
X84125500Y-52653440D01*
X84293282Y-52653440D01*
X85044921Y-53405079D01*
X85299593Y-53575245D01*
X85600000Y-53635000D01*
X101800406Y-53635000D01*
X101615301Y-53711673D01*
X101436673Y-53890302D01*
X101340000Y-54123691D01*
X101340000Y-54714250D01*
X101498750Y-54873000D01*
X102473000Y-54873000D01*
X102473000Y-54853000D01*
X102727000Y-54853000D01*
X102727000Y-54873000D01*
X103701250Y-54873000D01*
X103860000Y-54714250D01*
X103860000Y-54123691D01*
X103763327Y-53890302D01*
X103584699Y-53711673D01*
X103399594Y-53635000D01*
X105164900Y-53635000D01*
X105164900Y-54463110D01*
X105323650Y-54621860D01*
X106473000Y-54621860D01*
X106473000Y-54601860D01*
X106727000Y-54601860D01*
X106727000Y-54621860D01*
X107876350Y-54621860D01*
X108035100Y-54463110D01*
X108035100Y-53795258D01*
X109015000Y-54775158D01*
X109015000Y-57050000D01*
X109074755Y-57350407D01*
X109244921Y-57605079D01*
X111942575Y-60302733D01*
X111701343Y-60402408D01*
X111438292Y-60665000D01*
X110522440Y-60665000D01*
X110522440Y-60600000D01*
X110478162Y-60364683D01*
X110339090Y-60148559D01*
X110126890Y-60003569D01*
X109875000Y-59952560D01*
X109325000Y-59952560D01*
X109195411Y-59976944D01*
X109075000Y-59952560D01*
X108525000Y-59952560D01*
X108419295Y-59972450D01*
X108401310Y-59965000D01*
X108285750Y-59965000D01*
X108189349Y-60061401D01*
X108073559Y-60135910D01*
X108000116Y-60243397D01*
X107985000Y-60219905D01*
X107985000Y-59119726D01*
X107996531Y-59102850D01*
X108047540Y-58850960D01*
X108047540Y-56651320D01*
X108003262Y-56416003D01*
X107896584Y-56250221D01*
X107938427Y-56208378D01*
X108035100Y-55974989D01*
X108035100Y-55034610D01*
X107876350Y-54875860D01*
X106727000Y-54875860D01*
X106727000Y-54895860D01*
X106473000Y-54895860D01*
X106473000Y-54875860D01*
X105323650Y-54875860D01*
X105164900Y-55034610D01*
X105164900Y-55974989D01*
X105261573Y-56208378D01*
X105304606Y-56251411D01*
X105203469Y-56399430D01*
X105152460Y-56651320D01*
X105152460Y-56966140D01*
X104826298Y-56966140D01*
X104805079Y-56944921D01*
X104550407Y-56774755D01*
X104250000Y-56715000D01*
X103865854Y-56715000D01*
X103828162Y-56514683D01*
X103689090Y-56298559D01*
X103620994Y-56252031D01*
X103763327Y-56109698D01*
X103860000Y-55876309D01*
X103860000Y-55285750D01*
X103701250Y-55127000D01*
X102727000Y-55127000D01*
X102727000Y-55147000D01*
X102473000Y-55147000D01*
X102473000Y-55127000D01*
X101498750Y-55127000D01*
X101340000Y-55285750D01*
X101340000Y-55876309D01*
X101436673Y-56109698D01*
X101577910Y-56250936D01*
X101523559Y-56285910D01*
X101378569Y-56498110D01*
X101334648Y-56715000D01*
X98350005Y-56715000D01*
X98350000Y-56714999D01*
X98049594Y-56774755D01*
X97794921Y-56944921D01*
X95244921Y-59494921D01*
X95074755Y-59749593D01*
X95054073Y-59853569D01*
X95015000Y-60050000D01*
X95015000Y-62210982D01*
X94898559Y-62285910D01*
X94753569Y-62498110D01*
X94702560Y-62750000D01*
X94702560Y-63950000D01*
X94746838Y-64185317D01*
X94885910Y-64401441D01*
X94955711Y-64449134D01*
X94898559Y-64485910D01*
X94753569Y-64698110D01*
X94702560Y-64950000D01*
X94702560Y-66150000D01*
X94746838Y-66385317D01*
X94885910Y-66601441D01*
X95065000Y-66723808D01*
X95065000Y-67423258D01*
X94939683Y-67446838D01*
X94723559Y-67585910D01*
X94578569Y-67798110D01*
X94527560Y-68050000D01*
X94527560Y-68544880D01*
X94447592Y-68351343D01*
X94100485Y-68003629D01*
X93646734Y-67815215D01*
X93155421Y-67814786D01*
X92701343Y-68002408D01*
X92353629Y-68349515D01*
X92165215Y-68803266D01*
X92164786Y-69294579D01*
X92352408Y-69748657D01*
X92693518Y-70090364D01*
X92301343Y-70252408D01*
X91988204Y-70565000D01*
X91947440Y-70565000D01*
X91947440Y-69350000D01*
X91903162Y-69114683D01*
X91764090Y-68898559D01*
X91551890Y-68753569D01*
X91535000Y-68750149D01*
X91535000Y-64153222D01*
X91535317Y-64153162D01*
X91751441Y-64014090D01*
X91896431Y-63801890D01*
X91947440Y-63550000D01*
X91947440Y-60450000D01*
X91903162Y-60214683D01*
X91764090Y-59998559D01*
X91551890Y-59853569D01*
X91300000Y-59802560D01*
X90300000Y-59802560D01*
X90064683Y-59846838D01*
X89848559Y-59985910D01*
X89703569Y-60198110D01*
X89652560Y-60450000D01*
X89652560Y-63550000D01*
X89696838Y-63785317D01*
X89835910Y-64001441D01*
X90048110Y-64146431D01*
X90065000Y-64149851D01*
X90065000Y-68746778D01*
X90064683Y-68746838D01*
X89848559Y-68885910D01*
X89703569Y-69098110D01*
X89652560Y-69350000D01*
X89652560Y-72450000D01*
X89696838Y-72685317D01*
X89835910Y-72901441D01*
X90048110Y-73046431D01*
X90300000Y-73097440D01*
X91300000Y-73097440D01*
X91535317Y-73053162D01*
X91751441Y-72914090D01*
X91896431Y-72701890D01*
X91947440Y-72450000D01*
X91947440Y-72035000D01*
X91988688Y-72035000D01*
X92299515Y-72346371D01*
X92753266Y-72534785D01*
X93244579Y-72535214D01*
X93698657Y-72347592D01*
X94011796Y-72035000D01*
X94527560Y-72035000D01*
X94527560Y-72050000D01*
X94571838Y-72285317D01*
X94710910Y-72501441D01*
X94764860Y-72538304D01*
X94753629Y-72549515D01*
X94565215Y-73003266D01*
X94564786Y-73494579D01*
X94752408Y-73948657D01*
X95099515Y-74296371D01*
X95553266Y-74484785D01*
X95925443Y-74485110D01*
X92080277Y-78330277D01*
X91920949Y-78568728D01*
X91865000Y-78850000D01*
X91865000Y-82945553D01*
X91295554Y-83515000D01*
X90000000Y-83515000D01*
X89718728Y-83570949D01*
X89480276Y-83730277D01*
X87480277Y-85730277D01*
X87320949Y-85968728D01*
X87265000Y-86250000D01*
X87265000Y-90850000D01*
X87302739Y-91039723D01*
X87320949Y-91131272D01*
X87480277Y-91369723D01*
X88880277Y-92769723D01*
X89118728Y-92929051D01*
X89400000Y-92985000D01*
X94600000Y-92985000D01*
X94881272Y-92929051D01*
X95119723Y-92769723D01*
X96189724Y-91699723D01*
X96224658Y-91647440D01*
X96270000Y-91647440D01*
X96331818Y-91635808D01*
X96444921Y-91805079D01*
X97044921Y-92405079D01*
X97299593Y-92575245D01*
X97600000Y-92635000D01*
X99400000Y-92635000D01*
X99700407Y-92575245D01*
X99955079Y-92405079D01*
X100615000Y-91745158D01*
X100615000Y-97050000D01*
X100674755Y-97350407D01*
X100677302Y-97354219D01*
X100665232Y-97383287D01*
X100664769Y-97914383D01*
X100867582Y-98405229D01*
X101242796Y-98781098D01*
X101733287Y-98984768D01*
X102264383Y-98985231D01*
X102755229Y-98782418D01*
X103131098Y-98407204D01*
X103334768Y-97916713D01*
X103335231Y-97385617D01*
X103148948Y-96934775D01*
X103744803Y-96934775D01*
X103917233Y-97352086D01*
X104236235Y-97671645D01*
X104653244Y-97844803D01*
X105104775Y-97845197D01*
X105522086Y-97672767D01*
X105841645Y-97353765D01*
X106014803Y-96936756D01*
X106014804Y-96934775D01*
X106284803Y-96934775D01*
X106457233Y-97352086D01*
X106776235Y-97671645D01*
X107193244Y-97844803D01*
X107644775Y-97845197D01*
X108062086Y-97672767D01*
X108381645Y-97353765D01*
X108554803Y-96936756D01*
X108554804Y-96934775D01*
X108824803Y-96934775D01*
X108997233Y-97352086D01*
X109316235Y-97671645D01*
X109733244Y-97844803D01*
X110184775Y-97845197D01*
X110602086Y-97672767D01*
X110921645Y-97353765D01*
X111094803Y-96936756D01*
X111095197Y-96485225D01*
X110922767Y-96067914D01*
X110603765Y-95748355D01*
X110186756Y-95575197D01*
X109735225Y-95574803D01*
X109317914Y-95747233D01*
X108998355Y-96066235D01*
X108825197Y-96483244D01*
X108824803Y-96934775D01*
X108554804Y-96934775D01*
X108555197Y-96485225D01*
X108382767Y-96067914D01*
X108063765Y-95748355D01*
X107646756Y-95575197D01*
X107195225Y-95574803D01*
X106777914Y-95747233D01*
X106458355Y-96066235D01*
X106285197Y-96483244D01*
X106284803Y-96934775D01*
X106014804Y-96934775D01*
X106015197Y-96485225D01*
X105842767Y-96067914D01*
X105523765Y-95748355D01*
X105106756Y-95575197D01*
X104655225Y-95574803D01*
X104237914Y-95747233D01*
X103918355Y-96066235D01*
X103745197Y-96483244D01*
X103744803Y-96934775D01*
X103148948Y-96934775D01*
X103132418Y-96894771D01*
X102757204Y-96518902D01*
X102266713Y-96315232D01*
X102185000Y-96315161D01*
X102185000Y-94394775D01*
X103744803Y-94394775D01*
X103917233Y-94812086D01*
X104236235Y-95131645D01*
X104653244Y-95304803D01*
X105104775Y-95305197D01*
X105522086Y-95132767D01*
X105841645Y-94813765D01*
X106014803Y-94396756D01*
X106014804Y-94394775D01*
X106284803Y-94394775D01*
X106457233Y-94812086D01*
X106776235Y-95131645D01*
X107193244Y-95304803D01*
X107644775Y-95305197D01*
X108062086Y-95132767D01*
X108381645Y-94813765D01*
X108554803Y-94396756D01*
X108554804Y-94394775D01*
X108824803Y-94394775D01*
X108997233Y-94812086D01*
X109316235Y-95131645D01*
X109733244Y-95304803D01*
X110184775Y-95305197D01*
X110602086Y-95132767D01*
X110921645Y-94813765D01*
X111094803Y-94396756D01*
X111095197Y-93945225D01*
X110922767Y-93527914D01*
X110603765Y-93208355D01*
X110186756Y-93035197D01*
X109735225Y-93034803D01*
X109317914Y-93207233D01*
X108998355Y-93526235D01*
X108825197Y-93943244D01*
X108824803Y-94394775D01*
X108554804Y-94394775D01*
X108555197Y-93945225D01*
X108382767Y-93527914D01*
X108063765Y-93208355D01*
X107646756Y-93035197D01*
X107195225Y-93034803D01*
X106777914Y-93207233D01*
X106458355Y-93526235D01*
X106285197Y-93943244D01*
X106284803Y-94394775D01*
X106014804Y-94394775D01*
X106015197Y-93945225D01*
X105842767Y-93527914D01*
X105523765Y-93208355D01*
X105106756Y-93035197D01*
X104655225Y-93034803D01*
X104237914Y-93207233D01*
X103918355Y-93526235D01*
X103745197Y-93943244D01*
X103744803Y-94394775D01*
X102185000Y-94394775D01*
X102185000Y-91854775D01*
X103744803Y-91854775D01*
X103917233Y-92272086D01*
X104236235Y-92591645D01*
X104653244Y-92764803D01*
X105104775Y-92765197D01*
X105522086Y-92592767D01*
X105841645Y-92273765D01*
X106014803Y-91856756D01*
X106014804Y-91854775D01*
X106284803Y-91854775D01*
X106457233Y-92272086D01*
X106776235Y-92591645D01*
X107193244Y-92764803D01*
X107644775Y-92765197D01*
X108062086Y-92592767D01*
X108381645Y-92273765D01*
X108554803Y-91856756D01*
X108554804Y-91854775D01*
X108824803Y-91854775D01*
X108997233Y-92272086D01*
X109316235Y-92591645D01*
X109733244Y-92764803D01*
X110184775Y-92765197D01*
X110602086Y-92592767D01*
X110921645Y-92273765D01*
X111094803Y-91856756D01*
X111095197Y-91405225D01*
X110922767Y-90987914D01*
X110603765Y-90668355D01*
X110186756Y-90495197D01*
X109735225Y-90494803D01*
X109317914Y-90667233D01*
X108998355Y-90986235D01*
X108825197Y-91403244D01*
X108824803Y-91854775D01*
X108554804Y-91854775D01*
X108555197Y-91405225D01*
X108382767Y-90987914D01*
X108063765Y-90668355D01*
X107646756Y-90495197D01*
X107195225Y-90494803D01*
X106777914Y-90667233D01*
X106458355Y-90986235D01*
X106285197Y-91403244D01*
X106284803Y-91854775D01*
X106014804Y-91854775D01*
X106015197Y-91405225D01*
X105842767Y-90987914D01*
X105523765Y-90668355D01*
X105106756Y-90495197D01*
X104655225Y-90494803D01*
X104237914Y-90667233D01*
X103918355Y-90986235D01*
X103745197Y-91403244D01*
X103744803Y-91854775D01*
X102185000Y-91854775D01*
X102185000Y-89314775D01*
X103744803Y-89314775D01*
X103917233Y-89732086D01*
X104236235Y-90051645D01*
X104653244Y-90224803D01*
X105104775Y-90225197D01*
X105522086Y-90052767D01*
X105841645Y-89733765D01*
X106014803Y-89316756D01*
X106014804Y-89314775D01*
X106284803Y-89314775D01*
X106457233Y-89732086D01*
X106776235Y-90051645D01*
X107193244Y-90224803D01*
X107644775Y-90225197D01*
X108062086Y-90052767D01*
X108381645Y-89733765D01*
X108554803Y-89316756D01*
X108554804Y-89314775D01*
X108824803Y-89314775D01*
X108997233Y-89732086D01*
X109316235Y-90051645D01*
X109733244Y-90224803D01*
X110184775Y-90225197D01*
X110602086Y-90052767D01*
X110921645Y-89733765D01*
X111094803Y-89316756D01*
X111095197Y-88865225D01*
X110922767Y-88447914D01*
X110603765Y-88128355D01*
X110186756Y-87955197D01*
X109735225Y-87954803D01*
X109317914Y-88127233D01*
X108998355Y-88446235D01*
X108825197Y-88863244D01*
X108824803Y-89314775D01*
X108554804Y-89314775D01*
X108555197Y-88865225D01*
X108382767Y-88447914D01*
X108063765Y-88128355D01*
X107646756Y-87955197D01*
X107195225Y-87954803D01*
X106777914Y-88127233D01*
X106458355Y-88446235D01*
X106285197Y-88863244D01*
X106284803Y-89314775D01*
X106014804Y-89314775D01*
X106015197Y-88865225D01*
X105842767Y-88447914D01*
X105523765Y-88128355D01*
X105106756Y-87955197D01*
X104655225Y-87954803D01*
X104237914Y-88127233D01*
X103918355Y-88446235D01*
X103745197Y-88863244D01*
X103744803Y-89314775D01*
X102185000Y-89314775D01*
X102185000Y-88050000D01*
X102125245Y-87749594D01*
X102125245Y-87749593D01*
X101955079Y-87494921D01*
X101474049Y-87013891D01*
X101551441Y-86964090D01*
X101680794Y-86774775D01*
X103744803Y-86774775D01*
X103917233Y-87192086D01*
X104236235Y-87511645D01*
X104653244Y-87684803D01*
X105104775Y-87685197D01*
X105522086Y-87512767D01*
X105841645Y-87193765D01*
X106014803Y-86776756D01*
X106014804Y-86774775D01*
X106284803Y-86774775D01*
X106457233Y-87192086D01*
X106776235Y-87511645D01*
X107193244Y-87684803D01*
X107644775Y-87685197D01*
X108062086Y-87512767D01*
X108381645Y-87193765D01*
X108554803Y-86776756D01*
X108554804Y-86774775D01*
X108824803Y-86774775D01*
X108997233Y-87192086D01*
X109316235Y-87511645D01*
X109733244Y-87684803D01*
X110184775Y-87685197D01*
X110602086Y-87512767D01*
X110921645Y-87193765D01*
X111094803Y-86776756D01*
X111095197Y-86325225D01*
X110922767Y-85907914D01*
X110603765Y-85588355D01*
X110186756Y-85415197D01*
X109735225Y-85414803D01*
X109317914Y-85587233D01*
X108998355Y-85906235D01*
X108825197Y-86323244D01*
X108824803Y-86774775D01*
X108554804Y-86774775D01*
X108555197Y-86325225D01*
X108382767Y-85907914D01*
X108063765Y-85588355D01*
X107646756Y-85415197D01*
X107195225Y-85414803D01*
X106777914Y-85587233D01*
X106458355Y-85906235D01*
X106285197Y-86323244D01*
X106284803Y-86774775D01*
X106014804Y-86774775D01*
X106015197Y-86325225D01*
X105842767Y-85907914D01*
X105523765Y-85588355D01*
X105106756Y-85415197D01*
X104655225Y-85414803D01*
X104237914Y-85587233D01*
X103918355Y-85906235D01*
X103745197Y-86323244D01*
X103744803Y-86774775D01*
X101680794Y-86774775D01*
X101696431Y-86751890D01*
X101747440Y-86500000D01*
X101747440Y-85600000D01*
X101703162Y-85364683D01*
X101564090Y-85148559D01*
X101351890Y-85003569D01*
X101100000Y-84952560D01*
X100644292Y-84952560D01*
X100646371Y-84950485D01*
X100834785Y-84496734D01*
X100835214Y-84005421D01*
X100647592Y-83551343D01*
X100481539Y-83385000D01*
X103910563Y-83385000D01*
X103745197Y-83783244D01*
X103744803Y-84234775D01*
X103917233Y-84652086D01*
X104236235Y-84971645D01*
X104653244Y-85144803D01*
X105104775Y-85145197D01*
X105522086Y-84972767D01*
X105841645Y-84653765D01*
X106014803Y-84236756D01*
X106015110Y-83884839D01*
X106285108Y-83885075D01*
X106284803Y-84234775D01*
X106457233Y-84652086D01*
X106776235Y-84971645D01*
X107193244Y-85144803D01*
X107644775Y-85145197D01*
X108062086Y-84972767D01*
X108381645Y-84653765D01*
X108554803Y-84236756D01*
X108554804Y-84234775D01*
X108824803Y-84234775D01*
X108997233Y-84652086D01*
X109316235Y-84971645D01*
X109733244Y-85144803D01*
X110184775Y-85145197D01*
X110602086Y-84972767D01*
X110921645Y-84653765D01*
X111094803Y-84236756D01*
X111095197Y-83785225D01*
X110922767Y-83367914D01*
X110603765Y-83048355D01*
X110186756Y-82875197D01*
X109735225Y-82874803D01*
X109317914Y-83047233D01*
X108998355Y-83366235D01*
X108825197Y-83783244D01*
X108824803Y-84234775D01*
X108554804Y-84234775D01*
X108555197Y-83785225D01*
X108382767Y-83367914D01*
X108063765Y-83048355D01*
X107646756Y-82875197D01*
X107434804Y-82875012D01*
X107435040Y-82605014D01*
X107644775Y-82605197D01*
X108062086Y-82432767D01*
X108381645Y-82113765D01*
X108554803Y-81696756D01*
X108554804Y-81694775D01*
X108824803Y-81694775D01*
X108997233Y-82112086D01*
X109316235Y-82431645D01*
X109733244Y-82604803D01*
X110184775Y-82605197D01*
X110602086Y-82432767D01*
X110921645Y-82113765D01*
X111094803Y-81696756D01*
X111095197Y-81245225D01*
X110922767Y-80827914D01*
X110603765Y-80508355D01*
X110186756Y-80335197D01*
X109735225Y-80334803D01*
X109317914Y-80507233D01*
X108998355Y-80826235D01*
X108825197Y-81243244D01*
X108824803Y-81694775D01*
X108554804Y-81694775D01*
X108555197Y-81245225D01*
X108382767Y-80827914D01*
X108063765Y-80508355D01*
X107646756Y-80335197D01*
X107195225Y-80334803D01*
X106777914Y-80507233D01*
X106458355Y-80826235D01*
X106285197Y-81243244D01*
X106285047Y-81415074D01*
X106015049Y-81414838D01*
X106015197Y-81245225D01*
X105842767Y-80827914D01*
X105523765Y-80508355D01*
X105106756Y-80335197D01*
X104655225Y-80334803D01*
X104237914Y-80507233D01*
X103918355Y-80826235D01*
X103745197Y-81243244D01*
X103744803Y-81694775D01*
X103835798Y-81915000D01*
X102827200Y-81915000D01*
X102834785Y-81896734D01*
X102835214Y-81405421D01*
X102647592Y-80951343D01*
X102300485Y-80603629D01*
X101846734Y-80415215D01*
X101404275Y-80414829D01*
X101135000Y-80145554D01*
X101135000Y-76785000D01*
X108588688Y-76785000D01*
X108899515Y-77096371D01*
X109353266Y-77284785D01*
X109814246Y-77285188D01*
X109765215Y-77403266D01*
X109764829Y-77845725D01*
X109495554Y-78115000D01*
X103611312Y-78115000D01*
X103300485Y-77803629D01*
X102846734Y-77615215D01*
X102355421Y-77614786D01*
X101901343Y-77802408D01*
X101553629Y-78149515D01*
X101365215Y-78603266D01*
X101364786Y-79094579D01*
X101552408Y-79548657D01*
X101899515Y-79896371D01*
X102353266Y-80084785D01*
X102844579Y-80085214D01*
X103298657Y-79897592D01*
X103611796Y-79585000D01*
X109800000Y-79585000D01*
X110081272Y-79529051D01*
X110319723Y-79369723D01*
X110804617Y-78884830D01*
X111244579Y-78885214D01*
X111665000Y-78711499D01*
X111665000Y-81438688D01*
X111353629Y-81749515D01*
X111165215Y-82203266D01*
X111164786Y-82694579D01*
X111352408Y-83148657D01*
X111699515Y-83496371D01*
X112153266Y-83684785D01*
X112644579Y-83685214D01*
X112665000Y-83676776D01*
X112665000Y-83745553D01*
X112595383Y-83815170D01*
X112155421Y-83814786D01*
X111701343Y-84002408D01*
X111353629Y-84349515D01*
X111165215Y-84803266D01*
X111164786Y-85294579D01*
X111352408Y-85748657D01*
X111699515Y-86096371D01*
X112153266Y-86284785D01*
X112644579Y-86285214D01*
X112782206Y-86228347D01*
X112395558Y-86614996D01*
X112155421Y-86614786D01*
X111701343Y-86802408D01*
X111353629Y-87149515D01*
X111165215Y-87603266D01*
X111164786Y-88094579D01*
X111352408Y-88548657D01*
X111699515Y-88896371D01*
X112069845Y-89050145D01*
X111701343Y-89202408D01*
X111353629Y-89549515D01*
X111165215Y-90003266D01*
X111164786Y-90494579D01*
X111352408Y-90948657D01*
X111699515Y-91296371D01*
X112153266Y-91484785D01*
X112644579Y-91485214D01*
X112782206Y-91428347D01*
X112595383Y-91615170D01*
X112155421Y-91614786D01*
X111701343Y-91802408D01*
X111353629Y-92149515D01*
X111165215Y-92603266D01*
X111164786Y-93094579D01*
X111352408Y-93548657D01*
X111699515Y-93896371D01*
X112153266Y-94084785D01*
X112644579Y-94085214D01*
X112782206Y-94028347D01*
X112595384Y-94215170D01*
X112155421Y-94214786D01*
X111701343Y-94402408D01*
X111353629Y-94749515D01*
X111165215Y-95203266D01*
X111164786Y-95694579D01*
X111352408Y-96148657D01*
X111699515Y-96496371D01*
X112153266Y-96684785D01*
X112644579Y-96685214D01*
X113098657Y-96497592D01*
X113446371Y-96150485D01*
X113634785Y-95696734D01*
X113635171Y-95254275D01*
X114152560Y-94736887D01*
X114152560Y-95550000D01*
X114178895Y-95689956D01*
X114152560Y-95820000D01*
X114152560Y-96820000D01*
X114196838Y-97055317D01*
X114335910Y-97271441D01*
X114548110Y-97416431D01*
X114800000Y-97467440D01*
X115065000Y-97467440D01*
X115065000Y-97801370D01*
X114692567Y-98050222D01*
X114334675Y-98585845D01*
X114209000Y-99217655D01*
X114209000Y-99282345D01*
X114334675Y-99914155D01*
X114569102Y-100265000D01*
X84001001Y-100265000D01*
X83785992Y-100049991D01*
X83520176Y-99528298D01*
X83427000Y-98940008D01*
X83427000Y-98460750D01*
X89355000Y-98460750D01*
X89355000Y-99376310D01*
X89451673Y-99609699D01*
X89630302Y-99788327D01*
X89863691Y-99885000D01*
X90304250Y-99885000D01*
X90463000Y-99726250D01*
X90463000Y-98302000D01*
X90717000Y-98302000D01*
X90717000Y-99726250D01*
X90875750Y-99885000D01*
X91316309Y-99885000D01*
X91549698Y-99788327D01*
X91728327Y-99609699D01*
X91825000Y-99376310D01*
X91825000Y-98460750D01*
X91895000Y-98460750D01*
X91895000Y-99376310D01*
X91991673Y-99609699D01*
X92170302Y-99788327D01*
X92403691Y-99885000D01*
X92844250Y-99885000D01*
X93003000Y-99726250D01*
X93003000Y-98302000D01*
X93257000Y-98302000D01*
X93257000Y-99726250D01*
X93415750Y-99885000D01*
X93856309Y-99885000D01*
X94089698Y-99788327D01*
X94268327Y-99609699D01*
X94365000Y-99376310D01*
X94365000Y-98460750D01*
X94435000Y-98460750D01*
X94435000Y-99376310D01*
X94531673Y-99609699D01*
X94710302Y-99788327D01*
X94943691Y-99885000D01*
X95384250Y-99885000D01*
X95543000Y-99726250D01*
X95543000Y-98302000D01*
X95797000Y-98302000D01*
X95797000Y-99726250D01*
X95955750Y-99885000D01*
X96396309Y-99885000D01*
X96629698Y-99788327D01*
X96808327Y-99609699D01*
X96905000Y-99376310D01*
X96905000Y-98460750D01*
X96975000Y-98460750D01*
X96975000Y-99376310D01*
X97071673Y-99609699D01*
X97250302Y-99788327D01*
X97483691Y-99885000D01*
X97924250Y-99885000D01*
X98083000Y-99726250D01*
X98083000Y-98302000D01*
X98337000Y-98302000D01*
X98337000Y-99726250D01*
X98495750Y-99885000D01*
X98936309Y-99885000D01*
X99169698Y-99788327D01*
X99348327Y-99609699D01*
X99445000Y-99376310D01*
X99445000Y-98460750D01*
X99286250Y-98302000D01*
X98337000Y-98302000D01*
X98083000Y-98302000D01*
X97133750Y-98302000D01*
X96975000Y-98460750D01*
X96905000Y-98460750D01*
X96746250Y-98302000D01*
X95797000Y-98302000D01*
X95543000Y-98302000D01*
X94593750Y-98302000D01*
X94435000Y-98460750D01*
X94365000Y-98460750D01*
X94206250Y-98302000D01*
X93257000Y-98302000D01*
X93003000Y-98302000D01*
X92053750Y-98302000D01*
X91895000Y-98460750D01*
X91825000Y-98460750D01*
X91666250Y-98302000D01*
X90717000Y-98302000D01*
X90463000Y-98302000D01*
X89513750Y-98302000D01*
X89355000Y-98460750D01*
X83427000Y-98460750D01*
X83427000Y-97128427D01*
X83425914Y-97111850D01*
X83407725Y-96973690D01*
X89355000Y-96973690D01*
X89355000Y-97889250D01*
X89513750Y-98048000D01*
X90463000Y-98048000D01*
X90463000Y-96623750D01*
X90717000Y-96623750D01*
X90717000Y-98048000D01*
X91666250Y-98048000D01*
X91825000Y-97889250D01*
X91825000Y-96973690D01*
X91895000Y-96973690D01*
X91895000Y-97889250D01*
X92053750Y-98048000D01*
X93003000Y-98048000D01*
X93003000Y-96623750D01*
X93257000Y-96623750D01*
X93257000Y-98048000D01*
X94206250Y-98048000D01*
X94365000Y-97889250D01*
X94365000Y-96973690D01*
X94435000Y-96973690D01*
X94435000Y-97889250D01*
X94593750Y-98048000D01*
X95543000Y-98048000D01*
X95543000Y-96623750D01*
X95797000Y-96623750D01*
X95797000Y-98048000D01*
X96746250Y-98048000D01*
X96905000Y-97889250D01*
X96905000Y-96973690D01*
X96975000Y-96973690D01*
X96975000Y-97889250D01*
X97133750Y-98048000D01*
X98083000Y-98048000D01*
X98083000Y-96623750D01*
X98337000Y-96623750D01*
X98337000Y-98048000D01*
X99286250Y-98048000D01*
X99445000Y-97889250D01*
X99445000Y-96973690D01*
X99348327Y-96740301D01*
X99169698Y-96561673D01*
X98936309Y-96465000D01*
X98495750Y-96465000D01*
X98337000Y-96623750D01*
X98083000Y-96623750D01*
X97924250Y-96465000D01*
X97483691Y-96465000D01*
X97250302Y-96561673D01*
X97071673Y-96740301D01*
X96975000Y-96973690D01*
X96905000Y-96973690D01*
X96808327Y-96740301D01*
X96629698Y-96561673D01*
X96396309Y-96465000D01*
X95955750Y-96465000D01*
X95797000Y-96623750D01*
X95543000Y-96623750D01*
X95384250Y-96465000D01*
X94943691Y-96465000D01*
X94710302Y-96561673D01*
X94531673Y-96740301D01*
X94435000Y-96973690D01*
X94365000Y-96973690D01*
X94268327Y-96740301D01*
X94089698Y-96561673D01*
X93856309Y-96465000D01*
X93415750Y-96465000D01*
X93257000Y-96623750D01*
X93003000Y-96623750D01*
X92844250Y-96465000D01*
X92403691Y-96465000D01*
X92170302Y-96561673D01*
X91991673Y-96740301D01*
X91895000Y-96973690D01*
X91825000Y-96973690D01*
X91728327Y-96740301D01*
X91549698Y-96561673D01*
X91316309Y-96465000D01*
X90875750Y-96465000D01*
X90717000Y-96623750D01*
X90463000Y-96623750D01*
X90304250Y-96465000D01*
X89863691Y-96465000D01*
X89630302Y-96561673D01*
X89451673Y-96740301D01*
X89355000Y-96973690D01*
X83407725Y-96973690D01*
X83357766Y-96594212D01*
X83349185Y-96562188D01*
X83149384Y-96079826D01*
X83132807Y-96051114D01*
X82814970Y-95636901D01*
X82804017Y-95624411D01*
X81675589Y-94495983D01*
X81663099Y-94485030D01*
X81248886Y-94167193D01*
X81220174Y-94150616D01*
X80737812Y-93950815D01*
X80705788Y-93942234D01*
X80188150Y-93874086D01*
X80171573Y-93873000D01*
X78209992Y-93873000D01*
X77621702Y-93779824D01*
X77100009Y-93514008D01*
X76885000Y-93298999D01*
X76885000Y-83932400D01*
X81034960Y-83932400D01*
X81034960Y-86167600D01*
X81079238Y-86402917D01*
X81218310Y-86619041D01*
X81430510Y-86764031D01*
X81682400Y-86815040D01*
X83917600Y-86815040D01*
X84152917Y-86770762D01*
X84369041Y-86631690D01*
X84514031Y-86419490D01*
X84565040Y-86167600D01*
X84565040Y-83932400D01*
X84520762Y-83697083D01*
X84381690Y-83480959D01*
X84169490Y-83335969D01*
X83917600Y-83284960D01*
X81682400Y-83284960D01*
X81447083Y-83329238D01*
X81230959Y-83468310D01*
X81085969Y-83680510D01*
X81034960Y-83932400D01*
X76885000Y-83932400D01*
X76885000Y-82517466D01*
X76921376Y-82334591D01*
X76986751Y-82236750D01*
X77084590Y-82171376D01*
X77267466Y-82135000D01*
X80200000Y-82135000D01*
X80266170Y-82121838D01*
X80333636Y-82121838D01*
X80716319Y-82045718D01*
X80963248Y-81943437D01*
X80963249Y-81943436D01*
X81287672Y-81726664D01*
X81476664Y-81537672D01*
X81693437Y-81213249D01*
X81747123Y-81083637D01*
X81795718Y-80966319D01*
X81871838Y-80583636D01*
X81871838Y-80516170D01*
X81885000Y-80450000D01*
X81885000Y-71185750D01*
X85665000Y-71185750D01*
X85665000Y-72576309D01*
X85761673Y-72809698D01*
X85940301Y-72988327D01*
X86173690Y-73085000D01*
X86514250Y-73085000D01*
X86673000Y-72926250D01*
X86673000Y-71027000D01*
X86927000Y-71027000D01*
X86927000Y-72926250D01*
X87085750Y-73085000D01*
X87426310Y-73085000D01*
X87659699Y-72988327D01*
X87838327Y-72809698D01*
X87935000Y-72576309D01*
X87935000Y-71185750D01*
X87776250Y-71027000D01*
X86927000Y-71027000D01*
X86673000Y-71027000D01*
X85823750Y-71027000D01*
X85665000Y-71185750D01*
X81885000Y-71185750D01*
X81885000Y-70201667D01*
X83345000Y-70201667D01*
X83345000Y-69223691D01*
X85665000Y-69223691D01*
X85665000Y-70614250D01*
X85823750Y-70773000D01*
X86673000Y-70773000D01*
X86673000Y-68873750D01*
X86927000Y-68873750D01*
X86927000Y-70773000D01*
X87776250Y-70773000D01*
X87935000Y-70614250D01*
X87935000Y-69223691D01*
X87838327Y-68990302D01*
X87659699Y-68811673D01*
X87426310Y-68715000D01*
X87085750Y-68715000D01*
X86927000Y-68873750D01*
X86673000Y-68873750D01*
X86514250Y-68715000D01*
X86173690Y-68715000D01*
X85940301Y-68811673D01*
X85761673Y-68990302D01*
X85665000Y-69223691D01*
X83345000Y-69223691D01*
X83345000Y-65898334D01*
X81885000Y-65898334D01*
X81885000Y-65450000D01*
X81871838Y-65383830D01*
X81871838Y-65316364D01*
X81795718Y-64933681D01*
X81727805Y-64769723D01*
X81693437Y-64686751D01*
X81476664Y-64362328D01*
X81287672Y-64173336D01*
X80963248Y-63956563D01*
X80909664Y-63934368D01*
X80716319Y-63854282D01*
X80333636Y-63778162D01*
X80266170Y-63778162D01*
X80200000Y-63765000D01*
X77267466Y-63765000D01*
X77084590Y-63728624D01*
X76986751Y-63663250D01*
X76921376Y-63565409D01*
X76885000Y-63382534D01*
X76885000Y-56349040D01*
X77489738Y-56349040D01*
X77719138Y-56904229D01*
X78134536Y-57320353D01*
X77720630Y-57733537D01*
X77490262Y-58288325D01*
X77489738Y-58889040D01*
X77719138Y-59444229D01*
X78134536Y-59860353D01*
X77720630Y-60273537D01*
X77490262Y-60828325D01*
X77489738Y-61429040D01*
X77719138Y-61984229D01*
X78143537Y-62409370D01*
X78698325Y-62639738D01*
X79299040Y-62640262D01*
X79854229Y-62410862D01*
X80060502Y-62204949D01*
X80126673Y-62364699D01*
X80305302Y-62543327D01*
X80538691Y-62640000D01*
X81254250Y-62640000D01*
X81413000Y-62481250D01*
X81413000Y-61257000D01*
X81667000Y-61257000D01*
X81667000Y-62481250D01*
X81825750Y-62640000D01*
X82541309Y-62640000D01*
X82774698Y-62543327D01*
X82953327Y-62364699D01*
X82986028Y-62285750D01*
X85665000Y-62285750D01*
X85665000Y-63676309D01*
X85761673Y-63909698D01*
X85940301Y-64088327D01*
X86173690Y-64185000D01*
X86514250Y-64185000D01*
X86673000Y-64026250D01*
X86673000Y-62127000D01*
X86927000Y-62127000D01*
X86927000Y-64026250D01*
X87085750Y-64185000D01*
X87426310Y-64185000D01*
X87659699Y-64088327D01*
X87838327Y-63909698D01*
X87935000Y-63676309D01*
X87935000Y-62285750D01*
X87776250Y-62127000D01*
X86927000Y-62127000D01*
X86673000Y-62127000D01*
X85823750Y-62127000D01*
X85665000Y-62285750D01*
X82986028Y-62285750D01*
X83050000Y-62131310D01*
X83050000Y-61415750D01*
X82891250Y-61257000D01*
X81667000Y-61257000D01*
X81413000Y-61257000D01*
X81393000Y-61257000D01*
X81393000Y-61003000D01*
X81413000Y-61003000D01*
X81413000Y-60983000D01*
X81667000Y-60983000D01*
X81667000Y-61003000D01*
X82891250Y-61003000D01*
X83050000Y-60844250D01*
X83050000Y-60323691D01*
X85665000Y-60323691D01*
X85665000Y-61714250D01*
X85823750Y-61873000D01*
X86673000Y-61873000D01*
X86673000Y-59973750D01*
X86927000Y-59973750D01*
X86927000Y-61873000D01*
X87776250Y-61873000D01*
X87935000Y-61714250D01*
X87935000Y-60323691D01*
X87838327Y-60090302D01*
X87659699Y-59911673D01*
X87426310Y-59815000D01*
X87085750Y-59815000D01*
X86927000Y-59973750D01*
X86673000Y-59973750D01*
X86514250Y-59815000D01*
X86173690Y-59815000D01*
X85940301Y-59911673D01*
X85761673Y-60090302D01*
X85665000Y-60323691D01*
X83050000Y-60323691D01*
X83050000Y-60128690D01*
X82953327Y-59895301D01*
X82774698Y-59716673D01*
X82614966Y-59650510D01*
X82819370Y-59446463D01*
X83049738Y-58891675D01*
X83050262Y-58290960D01*
X82820862Y-57735771D01*
X82405464Y-57319647D01*
X82819370Y-56906463D01*
X83049738Y-56351675D01*
X83050262Y-55750960D01*
X82820862Y-55195771D01*
X82396463Y-54770630D01*
X81841675Y-54540262D01*
X81240960Y-54539738D01*
X80685771Y-54769138D01*
X80269647Y-55184536D01*
X79856463Y-54770630D01*
X79301675Y-54540262D01*
X78700960Y-54539738D01*
X78145771Y-54769138D01*
X77720630Y-55193537D01*
X77490262Y-55748325D01*
X77489738Y-56349040D01*
X76885000Y-56349040D01*
X76885000Y-52601001D01*
X77100009Y-52385992D01*
X77621702Y-52120176D01*
X78209992Y-52027000D01*
X80121573Y-52027000D01*
X80138150Y-52025914D01*
X80655788Y-51957766D01*
X80687812Y-51949185D01*
X81170174Y-51749384D01*
X81198886Y-51732807D01*
X81613099Y-51414970D01*
X81625589Y-51404017D01*
X82454017Y-50575589D01*
X82464970Y-50563099D01*
X82782807Y-50148886D01*
X82799384Y-50120174D01*
X82999185Y-49637812D01*
X83007766Y-49605788D01*
X83075914Y-49088150D01*
X83077000Y-49071573D01*
X83077000Y-46459992D01*
X83170176Y-45871702D01*
X83435992Y-45350009D01*
X83478060Y-45307941D01*
X83478060Y-46307822D01*
X83478060Y-46307822D01*
G37*
X83478060Y-46307822D02*
X83429009Y-46381232D01*
X83335000Y-46853846D01*
X83335000Y-47106154D01*
X83429009Y-47578768D01*
X83696723Y-47979431D01*
X84097386Y-48247145D01*
X84316138Y-48290658D01*
X84315860Y-48609398D01*
X84097386Y-48652855D01*
X83696723Y-48920569D01*
X83429009Y-49321232D01*
X83335000Y-49793846D01*
X83335000Y-50046154D01*
X83429009Y-50518768D01*
X83478060Y-50592178D01*
X83478060Y-52006000D01*
X83522338Y-52241317D01*
X83661410Y-52457441D01*
X83873610Y-52602431D01*
X84125500Y-52653440D01*
X84293282Y-52653440D01*
X85044921Y-53405079D01*
X85299593Y-53575245D01*
X85600000Y-53635000D01*
X101800406Y-53635000D01*
X101615301Y-53711673D01*
X101436673Y-53890302D01*
X101340000Y-54123691D01*
X101340000Y-54714250D01*
X101498750Y-54873000D01*
X102473000Y-54873000D01*
X102473000Y-54853000D01*
X102727000Y-54853000D01*
X102727000Y-54873000D01*
X103701250Y-54873000D01*
X103860000Y-54714250D01*
X103860000Y-54123691D01*
X103763327Y-53890302D01*
X103584699Y-53711673D01*
X103399594Y-53635000D01*
X105164900Y-53635000D01*
X105164900Y-54463110D01*
X105323650Y-54621860D01*
X106473000Y-54621860D01*
X106473000Y-54601860D01*
X106727000Y-54601860D01*
X106727000Y-54621860D01*
X107876350Y-54621860D01*
X108035100Y-54463110D01*
X108035100Y-53795258D01*
X109015000Y-54775158D01*
X109015000Y-57050000D01*
X109074755Y-57350407D01*
X109244921Y-57605079D01*
X111942575Y-60302733D01*
X111701343Y-60402408D01*
X111438292Y-60665000D01*
X110522440Y-60665000D01*
X110522440Y-60600000D01*
X110478162Y-60364683D01*
X110339090Y-60148559D01*
X110126890Y-60003569D01*
X109875000Y-59952560D01*
X109325000Y-59952560D01*
X109195411Y-59976944D01*
X109075000Y-59952560D01*
X108525000Y-59952560D01*
X108419295Y-59972450D01*
X108401310Y-59965000D01*
X108285750Y-59965000D01*
X108189349Y-60061401D01*
X108073559Y-60135910D01*
X108000116Y-60243397D01*
X107985000Y-60219905D01*
X107985000Y-59119726D01*
X107996531Y-59102850D01*
X108047540Y-58850960D01*
X108047540Y-56651320D01*
X108003262Y-56416003D01*
X107896584Y-56250221D01*
X107938427Y-56208378D01*
X108035100Y-55974989D01*
X108035100Y-55034610D01*
X107876350Y-54875860D01*
X106727000Y-54875860D01*
X106727000Y-54895860D01*
X106473000Y-54895860D01*
X106473000Y-54875860D01*
X105323650Y-54875860D01*
X105164900Y-55034610D01*
X105164900Y-55974989D01*
X105261573Y-56208378D01*
X105304606Y-56251411D01*
X105203469Y-56399430D01*
X105152460Y-56651320D01*
X105152460Y-56966140D01*
X104826298Y-56966140D01*
X104805079Y-56944921D01*
X104550407Y-56774755D01*
X104250000Y-56715000D01*
X103865854Y-56715000D01*
X103828162Y-56514683D01*
X103689090Y-56298559D01*
X103620994Y-56252031D01*
X103763327Y-56109698D01*
X103860000Y-55876309D01*
X103860000Y-55285750D01*
X103701250Y-55127000D01*
X102727000Y-55127000D01*
X102727000Y-55147000D01*
X102473000Y-55147000D01*
X102473000Y-55127000D01*
X101498750Y-55127000D01*
X101340000Y-55285750D01*
X101340000Y-55876309D01*
X101436673Y-56109698D01*
X101577910Y-56250936D01*
X101523559Y-56285910D01*
X101378569Y-56498110D01*
X101334648Y-56715000D01*
X98350005Y-56715000D01*
X98350000Y-56714999D01*
X98049594Y-56774755D01*
X97794921Y-56944921D01*
X95244921Y-59494921D01*
X95074755Y-59749593D01*
X95054073Y-59853569D01*
X95015000Y-60050000D01*
X95015000Y-62210982D01*
X94898559Y-62285910D01*
X94753569Y-62498110D01*
X94702560Y-62750000D01*
X94702560Y-63950000D01*
X94746838Y-64185317D01*
X94885910Y-64401441D01*
X94955711Y-64449134D01*
X94898559Y-64485910D01*
X94753569Y-64698110D01*
X94702560Y-64950000D01*
X94702560Y-66150000D01*
X94746838Y-66385317D01*
X94885910Y-66601441D01*
X95065000Y-66723808D01*
X95065000Y-67423258D01*
X94939683Y-67446838D01*
X94723559Y-67585910D01*
X94578569Y-67798110D01*
X94527560Y-68050000D01*
X94527560Y-68544880D01*
X94447592Y-68351343D01*
X94100485Y-68003629D01*
X93646734Y-67815215D01*
X93155421Y-67814786D01*
X92701343Y-68002408D01*
X92353629Y-68349515D01*
X92165215Y-68803266D01*
X92164786Y-69294579D01*
X92352408Y-69748657D01*
X92693518Y-70090364D01*
X92301343Y-70252408D01*
X91988204Y-70565000D01*
X91947440Y-70565000D01*
X91947440Y-69350000D01*
X91903162Y-69114683D01*
X91764090Y-68898559D01*
X91551890Y-68753569D01*
X91535000Y-68750149D01*
X91535000Y-64153222D01*
X91535317Y-64153162D01*
X91751441Y-64014090D01*
X91896431Y-63801890D01*
X91947440Y-63550000D01*
X91947440Y-60450000D01*
X91903162Y-60214683D01*
X91764090Y-59998559D01*
X91551890Y-59853569D01*
X91300000Y-59802560D01*
X90300000Y-59802560D01*
X90064683Y-59846838D01*
X89848559Y-59985910D01*
X89703569Y-60198110D01*
X89652560Y-60450000D01*
X89652560Y-63550000D01*
X89696838Y-63785317D01*
X89835910Y-64001441D01*
X90048110Y-64146431D01*
X90065000Y-64149851D01*
X90065000Y-68746778D01*
X90064683Y-68746838D01*
X89848559Y-68885910D01*
X89703569Y-69098110D01*
X89652560Y-69350000D01*
X89652560Y-72450000D01*
X89696838Y-72685317D01*
X89835910Y-72901441D01*
X90048110Y-73046431D01*
X90300000Y-73097440D01*
X91300000Y-73097440D01*
X91535317Y-73053162D01*
X91751441Y-72914090D01*
X91896431Y-72701890D01*
X91947440Y-72450000D01*
X91947440Y-72035000D01*
X91988688Y-72035000D01*
X92299515Y-72346371D01*
X92753266Y-72534785D01*
X93244579Y-72535214D01*
X93698657Y-72347592D01*
X94011796Y-72035000D01*
X94527560Y-72035000D01*
X94527560Y-72050000D01*
X94571838Y-72285317D01*
X94710910Y-72501441D01*
X94764860Y-72538304D01*
X94753629Y-72549515D01*
X94565215Y-73003266D01*
X94564786Y-73494579D01*
X94752408Y-73948657D01*
X95099515Y-74296371D01*
X95553266Y-74484785D01*
X95925443Y-74485110D01*
X92080277Y-78330277D01*
X91920949Y-78568728D01*
X91865000Y-78850000D01*
X91865000Y-82945553D01*
X91295554Y-83515000D01*
X90000000Y-83515000D01*
X89718728Y-83570949D01*
X89480276Y-83730277D01*
X87480277Y-85730277D01*
X87320949Y-85968728D01*
X87265000Y-86250000D01*
X87265000Y-90850000D01*
X87302739Y-91039723D01*
X87320949Y-91131272D01*
X87480277Y-91369723D01*
X88880277Y-92769723D01*
X89118728Y-92929051D01*
X89400000Y-92985000D01*
X94600000Y-92985000D01*
X94881272Y-92929051D01*
X95119723Y-92769723D01*
X96189724Y-91699723D01*
X96224658Y-91647440D01*
X96270000Y-91647440D01*
X96331818Y-91635808D01*
X96444921Y-91805079D01*
X97044921Y-92405079D01*
X97299593Y-92575245D01*
X97600000Y-92635000D01*
X99400000Y-92635000D01*
X99700407Y-92575245D01*
X99955079Y-92405079D01*
X100615000Y-91745158D01*
X100615000Y-97050000D01*
X100674755Y-97350407D01*
X100677302Y-97354219D01*
X100665232Y-97383287D01*
X100664769Y-97914383D01*
X100867582Y-98405229D01*
X101242796Y-98781098D01*
X101733287Y-98984768D01*
X102264383Y-98985231D01*
X102755229Y-98782418D01*
X103131098Y-98407204D01*
X103334768Y-97916713D01*
X103335231Y-97385617D01*
X103148948Y-96934775D01*
X103744803Y-96934775D01*
X103917233Y-97352086D01*
X104236235Y-97671645D01*
X104653244Y-97844803D01*
X105104775Y-97845197D01*
X105522086Y-97672767D01*
X105841645Y-97353765D01*
X106014803Y-96936756D01*
X106014804Y-96934775D01*
X106284803Y-96934775D01*
X106457233Y-97352086D01*
X106776235Y-97671645D01*
X107193244Y-97844803D01*
X107644775Y-97845197D01*
X108062086Y-97672767D01*
X108381645Y-97353765D01*
X108554803Y-96936756D01*
X108554804Y-96934775D01*
X108824803Y-96934775D01*
X108997233Y-97352086D01*
X109316235Y-97671645D01*
X109733244Y-97844803D01*
X110184775Y-97845197D01*
X110602086Y-97672767D01*
X110921645Y-97353765D01*
X111094803Y-96936756D01*
X111095197Y-96485225D01*
X110922767Y-96067914D01*
X110603765Y-95748355D01*
X110186756Y-95575197D01*
X109735225Y-95574803D01*
X109317914Y-95747233D01*
X108998355Y-96066235D01*
X108825197Y-96483244D01*
X108824803Y-96934775D01*
X108554804Y-96934775D01*
X108555197Y-96485225D01*
X108382767Y-96067914D01*
X108063765Y-95748355D01*
X107646756Y-95575197D01*
X107195225Y-95574803D01*
X106777914Y-95747233D01*
X106458355Y-96066235D01*
X106285197Y-96483244D01*
X106284803Y-96934775D01*
X106014804Y-96934775D01*
X106015197Y-96485225D01*
X105842767Y-96067914D01*
X105523765Y-95748355D01*
X105106756Y-95575197D01*
X104655225Y-95574803D01*
X104237914Y-95747233D01*
X103918355Y-96066235D01*
X103745197Y-96483244D01*
X103744803Y-96934775D01*
X103148948Y-96934775D01*
X103132418Y-96894771D01*
X102757204Y-96518902D01*
X102266713Y-96315232D01*
X102185000Y-96315161D01*
X102185000Y-94394775D01*
X103744803Y-94394775D01*
X103917233Y-94812086D01*
X104236235Y-95131645D01*
X104653244Y-95304803D01*
X105104775Y-95305197D01*
X105522086Y-95132767D01*
X105841645Y-94813765D01*
X106014803Y-94396756D01*
X106014804Y-94394775D01*
X106284803Y-94394775D01*
X106457233Y-94812086D01*
X106776235Y-95131645D01*
X107193244Y-95304803D01*
X107644775Y-95305197D01*
X108062086Y-95132767D01*
X108381645Y-94813765D01*
X108554803Y-94396756D01*
X108554804Y-94394775D01*
X108824803Y-94394775D01*
X108997233Y-94812086D01*
X109316235Y-95131645D01*
X109733244Y-95304803D01*
X110184775Y-95305197D01*
X110602086Y-95132767D01*
X110921645Y-94813765D01*
X111094803Y-94396756D01*
X111095197Y-93945225D01*
X110922767Y-93527914D01*
X110603765Y-93208355D01*
X110186756Y-93035197D01*
X109735225Y-93034803D01*
X109317914Y-93207233D01*
X108998355Y-93526235D01*
X108825197Y-93943244D01*
X108824803Y-94394775D01*
X108554804Y-94394775D01*
X108555197Y-93945225D01*
X108382767Y-93527914D01*
X108063765Y-93208355D01*
X107646756Y-93035197D01*
X107195225Y-93034803D01*
X106777914Y-93207233D01*
X106458355Y-93526235D01*
X106285197Y-93943244D01*
X106284803Y-94394775D01*
X106014804Y-94394775D01*
X106015197Y-93945225D01*
X105842767Y-93527914D01*
X105523765Y-93208355D01*
X105106756Y-93035197D01*
X104655225Y-93034803D01*
X104237914Y-93207233D01*
X103918355Y-93526235D01*
X103745197Y-93943244D01*
X103744803Y-94394775D01*
X102185000Y-94394775D01*
X102185000Y-91854775D01*
X103744803Y-91854775D01*
X103917233Y-92272086D01*
X104236235Y-92591645D01*
X104653244Y-92764803D01*
X105104775Y-92765197D01*
X105522086Y-92592767D01*
X105841645Y-92273765D01*
X106014803Y-91856756D01*
X106014804Y-91854775D01*
X106284803Y-91854775D01*
X106457233Y-92272086D01*
X106776235Y-92591645D01*
X107193244Y-92764803D01*
X107644775Y-92765197D01*
X108062086Y-92592767D01*
X108381645Y-92273765D01*
X108554803Y-91856756D01*
X108554804Y-91854775D01*
X108824803Y-91854775D01*
X108997233Y-92272086D01*
X109316235Y-92591645D01*
X109733244Y-92764803D01*
X110184775Y-92765197D01*
X110602086Y-92592767D01*
X110921645Y-92273765D01*
X111094803Y-91856756D01*
X111095197Y-91405225D01*
X110922767Y-90987914D01*
X110603765Y-90668355D01*
X110186756Y-90495197D01*
X109735225Y-90494803D01*
X109317914Y-90667233D01*
X108998355Y-90986235D01*
X108825197Y-91403244D01*
X108824803Y-91854775D01*
X108554804Y-91854775D01*
X108555197Y-91405225D01*
X108382767Y-90987914D01*
X108063765Y-90668355D01*
X107646756Y-90495197D01*
X107195225Y-90494803D01*
X106777914Y-90667233D01*
X106458355Y-90986235D01*
X106285197Y-91403244D01*
X106284803Y-91854775D01*
X106014804Y-91854775D01*
X106015197Y-91405225D01*
X105842767Y-90987914D01*
X105523765Y-90668355D01*
X105106756Y-90495197D01*
X104655225Y-90494803D01*
X104237914Y-90667233D01*
X103918355Y-90986235D01*
X103745197Y-91403244D01*
X103744803Y-91854775D01*
X102185000Y-91854775D01*
X102185000Y-89314775D01*
X103744803Y-89314775D01*
X103917233Y-89732086D01*
X104236235Y-90051645D01*
X104653244Y-90224803D01*
X105104775Y-90225197D01*
X105522086Y-90052767D01*
X105841645Y-89733765D01*
X106014803Y-89316756D01*
X106014804Y-89314775D01*
X106284803Y-89314775D01*
X106457233Y-89732086D01*
X106776235Y-90051645D01*
X107193244Y-90224803D01*
X107644775Y-90225197D01*
X108062086Y-90052767D01*
X108381645Y-89733765D01*
X108554803Y-89316756D01*
X108554804Y-89314775D01*
X108824803Y-89314775D01*
X108997233Y-89732086D01*
X109316235Y-90051645D01*
X109733244Y-90224803D01*
X110184775Y-90225197D01*
X110602086Y-90052767D01*
X110921645Y-89733765D01*
X111094803Y-89316756D01*
X111095197Y-88865225D01*
X110922767Y-88447914D01*
X110603765Y-88128355D01*
X110186756Y-87955197D01*
X109735225Y-87954803D01*
X109317914Y-88127233D01*
X108998355Y-88446235D01*
X108825197Y-88863244D01*
X108824803Y-89314775D01*
X108554804Y-89314775D01*
X108555197Y-88865225D01*
X108382767Y-88447914D01*
X108063765Y-88128355D01*
X107646756Y-87955197D01*
X107195225Y-87954803D01*
X106777914Y-88127233D01*
X106458355Y-88446235D01*
X106285197Y-88863244D01*
X106284803Y-89314775D01*
X106014804Y-89314775D01*
X106015197Y-88865225D01*
X105842767Y-88447914D01*
X105523765Y-88128355D01*
X105106756Y-87955197D01*
X104655225Y-87954803D01*
X104237914Y-88127233D01*
X103918355Y-88446235D01*
X103745197Y-88863244D01*
X103744803Y-89314775D01*
X102185000Y-89314775D01*
X102185000Y-88050000D01*
X102125245Y-87749594D01*
X102125245Y-87749593D01*
X101955079Y-87494921D01*
X101474049Y-87013891D01*
X101551441Y-86964090D01*
X101680794Y-86774775D01*
X103744803Y-86774775D01*
X103917233Y-87192086D01*
X104236235Y-87511645D01*
X104653244Y-87684803D01*
X105104775Y-87685197D01*
X105522086Y-87512767D01*
X105841645Y-87193765D01*
X106014803Y-86776756D01*
X106014804Y-86774775D01*
X106284803Y-86774775D01*
X106457233Y-87192086D01*
X106776235Y-87511645D01*
X107193244Y-87684803D01*
X107644775Y-87685197D01*
X108062086Y-87512767D01*
X108381645Y-87193765D01*
X108554803Y-86776756D01*
X108554804Y-86774775D01*
X108824803Y-86774775D01*
X108997233Y-87192086D01*
X109316235Y-87511645D01*
X109733244Y-87684803D01*
X110184775Y-87685197D01*
X110602086Y-87512767D01*
X110921645Y-87193765D01*
X111094803Y-86776756D01*
X111095197Y-86325225D01*
X110922767Y-85907914D01*
X110603765Y-85588355D01*
X110186756Y-85415197D01*
X109735225Y-85414803D01*
X109317914Y-85587233D01*
X108998355Y-85906235D01*
X108825197Y-86323244D01*
X108824803Y-86774775D01*
X108554804Y-86774775D01*
X108555197Y-86325225D01*
X108382767Y-85907914D01*
X108063765Y-85588355D01*
X107646756Y-85415197D01*
X107195225Y-85414803D01*
X106777914Y-85587233D01*
X106458355Y-85906235D01*
X106285197Y-86323244D01*
X106284803Y-86774775D01*
X106014804Y-86774775D01*
X106015197Y-86325225D01*
X105842767Y-85907914D01*
X105523765Y-85588355D01*
X105106756Y-85415197D01*
X104655225Y-85414803D01*
X104237914Y-85587233D01*
X103918355Y-85906235D01*
X103745197Y-86323244D01*
X103744803Y-86774775D01*
X101680794Y-86774775D01*
X101696431Y-86751890D01*
X101747440Y-86500000D01*
X101747440Y-85600000D01*
X101703162Y-85364683D01*
X101564090Y-85148559D01*
X101351890Y-85003569D01*
X101100000Y-84952560D01*
X100644292Y-84952560D01*
X100646371Y-84950485D01*
X100834785Y-84496734D01*
X100835214Y-84005421D01*
X100647592Y-83551343D01*
X100481539Y-83385000D01*
X103910563Y-83385000D01*
X103745197Y-83783244D01*
X103744803Y-84234775D01*
X103917233Y-84652086D01*
X104236235Y-84971645D01*
X104653244Y-85144803D01*
X105104775Y-85145197D01*
X105522086Y-84972767D01*
X105841645Y-84653765D01*
X106014803Y-84236756D01*
X106015110Y-83884839D01*
X106285108Y-83885075D01*
X106284803Y-84234775D01*
X106457233Y-84652086D01*
X106776235Y-84971645D01*
X107193244Y-85144803D01*
X107644775Y-85145197D01*
X108062086Y-84972767D01*
X108381645Y-84653765D01*
X108554803Y-84236756D01*
X108554804Y-84234775D01*
X108824803Y-84234775D01*
X108997233Y-84652086D01*
X109316235Y-84971645D01*
X109733244Y-85144803D01*
X110184775Y-85145197D01*
X110602086Y-84972767D01*
X110921645Y-84653765D01*
X111094803Y-84236756D01*
X111095197Y-83785225D01*
X110922767Y-83367914D01*
X110603765Y-83048355D01*
X110186756Y-82875197D01*
X109735225Y-82874803D01*
X109317914Y-83047233D01*
X108998355Y-83366235D01*
X108825197Y-83783244D01*
X108824803Y-84234775D01*
X108554804Y-84234775D01*
X108555197Y-83785225D01*
X108382767Y-83367914D01*
X108063765Y-83048355D01*
X107646756Y-82875197D01*
X107434804Y-82875012D01*
X107435040Y-82605014D01*
X107644775Y-82605197D01*
X108062086Y-82432767D01*
X108381645Y-82113765D01*
X108554803Y-81696756D01*
X108554804Y-81694775D01*
X108824803Y-81694775D01*
X108997233Y-82112086D01*
X109316235Y-82431645D01*
X109733244Y-82604803D01*
X110184775Y-82605197D01*
X110602086Y-82432767D01*
X110921645Y-82113765D01*
X111094803Y-81696756D01*
X111095197Y-81245225D01*
X110922767Y-80827914D01*
X110603765Y-80508355D01*
X110186756Y-80335197D01*
X109735225Y-80334803D01*
X109317914Y-80507233D01*
X108998355Y-80826235D01*
X108825197Y-81243244D01*
X108824803Y-81694775D01*
X108554804Y-81694775D01*
X108555197Y-81245225D01*
X108382767Y-80827914D01*
X108063765Y-80508355D01*
X107646756Y-80335197D01*
X107195225Y-80334803D01*
X106777914Y-80507233D01*
X106458355Y-80826235D01*
X106285197Y-81243244D01*
X106285047Y-81415074D01*
X106015049Y-81414838D01*
X106015197Y-81245225D01*
X105842767Y-80827914D01*
X105523765Y-80508355D01*
X105106756Y-80335197D01*
X104655225Y-80334803D01*
X104237914Y-80507233D01*
X103918355Y-80826235D01*
X103745197Y-81243244D01*
X103744803Y-81694775D01*
X103835798Y-81915000D01*
X102827200Y-81915000D01*
X102834785Y-81896734D01*
X102835214Y-81405421D01*
X102647592Y-80951343D01*
X102300485Y-80603629D01*
X101846734Y-80415215D01*
X101404275Y-80414829D01*
X101135000Y-80145554D01*
X101135000Y-76785000D01*
X108588688Y-76785000D01*
X108899515Y-77096371D01*
X109353266Y-77284785D01*
X109814246Y-77285188D01*
X109765215Y-77403266D01*
X109764829Y-77845725D01*
X109495554Y-78115000D01*
X103611312Y-78115000D01*
X103300485Y-77803629D01*
X102846734Y-77615215D01*
X102355421Y-77614786D01*
X101901343Y-77802408D01*
X101553629Y-78149515D01*
X101365215Y-78603266D01*
X101364786Y-79094579D01*
X101552408Y-79548657D01*
X101899515Y-79896371D01*
X102353266Y-80084785D01*
X102844579Y-80085214D01*
X103298657Y-79897592D01*
X103611796Y-79585000D01*
X109800000Y-79585000D01*
X110081272Y-79529051D01*
X110319723Y-79369723D01*
X110804617Y-78884830D01*
X111244579Y-78885214D01*
X111665000Y-78711499D01*
X111665000Y-81438688D01*
X111353629Y-81749515D01*
X111165215Y-82203266D01*
X111164786Y-82694579D01*
X111352408Y-83148657D01*
X111699515Y-83496371D01*
X112153266Y-83684785D01*
X112644579Y-83685214D01*
X112665000Y-83676776D01*
X112665000Y-83745553D01*
X112595383Y-83815170D01*
X112155421Y-83814786D01*
X111701343Y-84002408D01*
X111353629Y-84349515D01*
X111165215Y-84803266D01*
X111164786Y-85294579D01*
X111352408Y-85748657D01*
X111699515Y-86096371D01*
X112153266Y-86284785D01*
X112644579Y-86285214D01*
X112782206Y-86228347D01*
X112395558Y-86614996D01*
X112155421Y-86614786D01*
X111701343Y-86802408D01*
X111353629Y-87149515D01*
X111165215Y-87603266D01*
X111164786Y-88094579D01*
X111352408Y-88548657D01*
X111699515Y-88896371D01*
X112069845Y-89050145D01*
X111701343Y-89202408D01*
X111353629Y-89549515D01*
X111165215Y-90003266D01*
X111164786Y-90494579D01*
X111352408Y-90948657D01*
X111699515Y-91296371D01*
X112153266Y-91484785D01*
X112644579Y-91485214D01*
X112782206Y-91428347D01*
X112595383Y-91615170D01*
X112155421Y-91614786D01*
X111701343Y-91802408D01*
X111353629Y-92149515D01*
X111165215Y-92603266D01*
X111164786Y-93094579D01*
X111352408Y-93548657D01*
X111699515Y-93896371D01*
X112153266Y-94084785D01*
X112644579Y-94085214D01*
X112782206Y-94028347D01*
X112595384Y-94215170D01*
X112155421Y-94214786D01*
X111701343Y-94402408D01*
X111353629Y-94749515D01*
X111165215Y-95203266D01*
X111164786Y-95694579D01*
X111352408Y-96148657D01*
X111699515Y-96496371D01*
X112153266Y-96684785D01*
X112644579Y-96685214D01*
X113098657Y-96497592D01*
X113446371Y-96150485D01*
X113634785Y-95696734D01*
X113635171Y-95254275D01*
X114152560Y-94736887D01*
X114152560Y-95550000D01*
X114178895Y-95689956D01*
X114152560Y-95820000D01*
X114152560Y-96820000D01*
X114196838Y-97055317D01*
X114335910Y-97271441D01*
X114548110Y-97416431D01*
X114800000Y-97467440D01*
X115065000Y-97467440D01*
X115065000Y-97801370D01*
X114692567Y-98050222D01*
X114334675Y-98585845D01*
X114209000Y-99217655D01*
X114209000Y-99282345D01*
X114334675Y-99914155D01*
X114569102Y-100265000D01*
X84001001Y-100265000D01*
X83785992Y-100049991D01*
X83520176Y-99528298D01*
X83427000Y-98940008D01*
X83427000Y-98460750D01*
X89355000Y-98460750D01*
X89355000Y-99376310D01*
X89451673Y-99609699D01*
X89630302Y-99788327D01*
X89863691Y-99885000D01*
X90304250Y-99885000D01*
X90463000Y-99726250D01*
X90463000Y-98302000D01*
X90717000Y-98302000D01*
X90717000Y-99726250D01*
X90875750Y-99885000D01*
X91316309Y-99885000D01*
X91549698Y-99788327D01*
X91728327Y-99609699D01*
X91825000Y-99376310D01*
X91825000Y-98460750D01*
X91895000Y-98460750D01*
X91895000Y-99376310D01*
X91991673Y-99609699D01*
X92170302Y-99788327D01*
X92403691Y-99885000D01*
X92844250Y-99885000D01*
X93003000Y-99726250D01*
X93003000Y-98302000D01*
X93257000Y-98302000D01*
X93257000Y-99726250D01*
X93415750Y-99885000D01*
X93856309Y-99885000D01*
X94089698Y-99788327D01*
X94268327Y-99609699D01*
X94365000Y-99376310D01*
X94365000Y-98460750D01*
X94435000Y-98460750D01*
X94435000Y-99376310D01*
X94531673Y-99609699D01*
X94710302Y-99788327D01*
X94943691Y-99885000D01*
X95384250Y-99885000D01*
X95543000Y-99726250D01*
X95543000Y-98302000D01*
X95797000Y-98302000D01*
X95797000Y-99726250D01*
X95955750Y-99885000D01*
X96396309Y-99885000D01*
X96629698Y-99788327D01*
X96808327Y-99609699D01*
X96905000Y-99376310D01*
X96905000Y-98460750D01*
X96975000Y-98460750D01*
X96975000Y-99376310D01*
X97071673Y-99609699D01*
X97250302Y-99788327D01*
X97483691Y-99885000D01*
X97924250Y-99885000D01*
X98083000Y-99726250D01*
X98083000Y-98302000D01*
X98337000Y-98302000D01*
X98337000Y-99726250D01*
X98495750Y-99885000D01*
X98936309Y-99885000D01*
X99169698Y-99788327D01*
X99348327Y-99609699D01*
X99445000Y-99376310D01*
X99445000Y-98460750D01*
X99286250Y-98302000D01*
X98337000Y-98302000D01*
X98083000Y-98302000D01*
X97133750Y-98302000D01*
X96975000Y-98460750D01*
X96905000Y-98460750D01*
X96746250Y-98302000D01*
X95797000Y-98302000D01*
X95543000Y-98302000D01*
X94593750Y-98302000D01*
X94435000Y-98460750D01*
X94365000Y-98460750D01*
X94206250Y-98302000D01*
X93257000Y-98302000D01*
X93003000Y-98302000D01*
X92053750Y-98302000D01*
X91895000Y-98460750D01*
X91825000Y-98460750D01*
X91666250Y-98302000D01*
X90717000Y-98302000D01*
X90463000Y-98302000D01*
X89513750Y-98302000D01*
X89355000Y-98460750D01*
X83427000Y-98460750D01*
X83427000Y-97128427D01*
X83425914Y-97111850D01*
X83407725Y-96973690D01*
X89355000Y-96973690D01*
X89355000Y-97889250D01*
X89513750Y-98048000D01*
X90463000Y-98048000D01*
X90463000Y-96623750D01*
X90717000Y-96623750D01*
X90717000Y-98048000D01*
X91666250Y-98048000D01*
X91825000Y-97889250D01*
X91825000Y-96973690D01*
X91895000Y-96973690D01*
X91895000Y-97889250D01*
X92053750Y-98048000D01*
X93003000Y-98048000D01*
X93003000Y-96623750D01*
X93257000Y-96623750D01*
X93257000Y-98048000D01*
X94206250Y-98048000D01*
X94365000Y-97889250D01*
X94365000Y-96973690D01*
X94435000Y-96973690D01*
X94435000Y-97889250D01*
X94593750Y-98048000D01*
X95543000Y-98048000D01*
X95543000Y-96623750D01*
X95797000Y-96623750D01*
X95797000Y-98048000D01*
X96746250Y-98048000D01*
X96905000Y-97889250D01*
X96905000Y-96973690D01*
X96975000Y-96973690D01*
X96975000Y-97889250D01*
X97133750Y-98048000D01*
X98083000Y-98048000D01*
X98083000Y-96623750D01*
X98337000Y-96623750D01*
X98337000Y-98048000D01*
X99286250Y-98048000D01*
X99445000Y-97889250D01*
X99445000Y-96973690D01*
X99348327Y-96740301D01*
X99169698Y-96561673D01*
X98936309Y-96465000D01*
X98495750Y-96465000D01*
X98337000Y-96623750D01*
X98083000Y-96623750D01*
X97924250Y-96465000D01*
X97483691Y-96465000D01*
X97250302Y-96561673D01*
X97071673Y-96740301D01*
X96975000Y-96973690D01*
X96905000Y-96973690D01*
X96808327Y-96740301D01*
X96629698Y-96561673D01*
X96396309Y-96465000D01*
X95955750Y-96465000D01*
X95797000Y-96623750D01*
X95543000Y-96623750D01*
X95384250Y-96465000D01*
X94943691Y-96465000D01*
X94710302Y-96561673D01*
X94531673Y-96740301D01*
X94435000Y-96973690D01*
X94365000Y-96973690D01*
X94268327Y-96740301D01*
X94089698Y-96561673D01*
X93856309Y-96465000D01*
X93415750Y-96465000D01*
X93257000Y-96623750D01*
X93003000Y-96623750D01*
X92844250Y-96465000D01*
X92403691Y-96465000D01*
X92170302Y-96561673D01*
X91991673Y-96740301D01*
X91895000Y-96973690D01*
X91825000Y-96973690D01*
X91728327Y-96740301D01*
X91549698Y-96561673D01*
X91316309Y-96465000D01*
X90875750Y-96465000D01*
X90717000Y-96623750D01*
X90463000Y-96623750D01*
X90304250Y-96465000D01*
X89863691Y-96465000D01*
X89630302Y-96561673D01*
X89451673Y-96740301D01*
X89355000Y-96973690D01*
X83407725Y-96973690D01*
X83357766Y-96594212D01*
X83349185Y-96562188D01*
X83149384Y-96079826D01*
X83132807Y-96051114D01*
X82814970Y-95636901D01*
X82804017Y-95624411D01*
X81675589Y-94495983D01*
X81663099Y-94485030D01*
X81248886Y-94167193D01*
X81220174Y-94150616D01*
X80737812Y-93950815D01*
X80705788Y-93942234D01*
X80188150Y-93874086D01*
X80171573Y-93873000D01*
X78209992Y-93873000D01*
X77621702Y-93779824D01*
X77100009Y-93514008D01*
X76885000Y-93298999D01*
X76885000Y-83932400D01*
X81034960Y-83932400D01*
X81034960Y-86167600D01*
X81079238Y-86402917D01*
X81218310Y-86619041D01*
X81430510Y-86764031D01*
X81682400Y-86815040D01*
X83917600Y-86815040D01*
X84152917Y-86770762D01*
X84369041Y-86631690D01*
X84514031Y-86419490D01*
X84565040Y-86167600D01*
X84565040Y-83932400D01*
X84520762Y-83697083D01*
X84381690Y-83480959D01*
X84169490Y-83335969D01*
X83917600Y-83284960D01*
X81682400Y-83284960D01*
X81447083Y-83329238D01*
X81230959Y-83468310D01*
X81085969Y-83680510D01*
X81034960Y-83932400D01*
X76885000Y-83932400D01*
X76885000Y-82517466D01*
X76921376Y-82334591D01*
X76986751Y-82236750D01*
X77084590Y-82171376D01*
X77267466Y-82135000D01*
X80200000Y-82135000D01*
X80266170Y-82121838D01*
X80333636Y-82121838D01*
X80716319Y-82045718D01*
X80963248Y-81943437D01*
X80963249Y-81943436D01*
X81287672Y-81726664D01*
X81476664Y-81537672D01*
X81693437Y-81213249D01*
X81747123Y-81083637D01*
X81795718Y-80966319D01*
X81871838Y-80583636D01*
X81871838Y-80516170D01*
X81885000Y-80450000D01*
X81885000Y-71185750D01*
X85665000Y-71185750D01*
X85665000Y-72576309D01*
X85761673Y-72809698D01*
X85940301Y-72988327D01*
X86173690Y-73085000D01*
X86514250Y-73085000D01*
X86673000Y-72926250D01*
X86673000Y-71027000D01*
X86927000Y-71027000D01*
X86927000Y-72926250D01*
X87085750Y-73085000D01*
X87426310Y-73085000D01*
X87659699Y-72988327D01*
X87838327Y-72809698D01*
X87935000Y-72576309D01*
X87935000Y-71185750D01*
X87776250Y-71027000D01*
X86927000Y-71027000D01*
X86673000Y-71027000D01*
X85823750Y-71027000D01*
X85665000Y-71185750D01*
X81885000Y-71185750D01*
X81885000Y-70201667D01*
X83345000Y-70201667D01*
X83345000Y-69223691D01*
X85665000Y-69223691D01*
X85665000Y-70614250D01*
X85823750Y-70773000D01*
X86673000Y-70773000D01*
X86673000Y-68873750D01*
X86927000Y-68873750D01*
X86927000Y-70773000D01*
X87776250Y-70773000D01*
X87935000Y-70614250D01*
X87935000Y-69223691D01*
X87838327Y-68990302D01*
X87659699Y-68811673D01*
X87426310Y-68715000D01*
X87085750Y-68715000D01*
X86927000Y-68873750D01*
X86673000Y-68873750D01*
X86514250Y-68715000D01*
X86173690Y-68715000D01*
X85940301Y-68811673D01*
X85761673Y-68990302D01*
X85665000Y-69223691D01*
X83345000Y-69223691D01*
X83345000Y-65898334D01*
X81885000Y-65898334D01*
X81885000Y-65450000D01*
X81871838Y-65383830D01*
X81871838Y-65316364D01*
X81795718Y-64933681D01*
X81727805Y-64769723D01*
X81693437Y-64686751D01*
X81476664Y-64362328D01*
X81287672Y-64173336D01*
X80963248Y-63956563D01*
X80909664Y-63934368D01*
X80716319Y-63854282D01*
X80333636Y-63778162D01*
X80266170Y-63778162D01*
X80200000Y-63765000D01*
X77267466Y-63765000D01*
X77084590Y-63728624D01*
X76986751Y-63663250D01*
X76921376Y-63565409D01*
X76885000Y-63382534D01*
X76885000Y-56349040D01*
X77489738Y-56349040D01*
X77719138Y-56904229D01*
X78134536Y-57320353D01*
X77720630Y-57733537D01*
X77490262Y-58288325D01*
X77489738Y-58889040D01*
X77719138Y-59444229D01*
X78134536Y-59860353D01*
X77720630Y-60273537D01*
X77490262Y-60828325D01*
X77489738Y-61429040D01*
X77719138Y-61984229D01*
X78143537Y-62409370D01*
X78698325Y-62639738D01*
X79299040Y-62640262D01*
X79854229Y-62410862D01*
X80060502Y-62204949D01*
X80126673Y-62364699D01*
X80305302Y-62543327D01*
X80538691Y-62640000D01*
X81254250Y-62640000D01*
X81413000Y-62481250D01*
X81413000Y-61257000D01*
X81667000Y-61257000D01*
X81667000Y-62481250D01*
X81825750Y-62640000D01*
X82541309Y-62640000D01*
X82774698Y-62543327D01*
X82953327Y-62364699D01*
X82986028Y-62285750D01*
X85665000Y-62285750D01*
X85665000Y-63676309D01*
X85761673Y-63909698D01*
X85940301Y-64088327D01*
X86173690Y-64185000D01*
X86514250Y-64185000D01*
X86673000Y-64026250D01*
X86673000Y-62127000D01*
X86927000Y-62127000D01*
X86927000Y-64026250D01*
X87085750Y-64185000D01*
X87426310Y-64185000D01*
X87659699Y-64088327D01*
X87838327Y-63909698D01*
X87935000Y-63676309D01*
X87935000Y-62285750D01*
X87776250Y-62127000D01*
X86927000Y-62127000D01*
X86673000Y-62127000D01*
X85823750Y-62127000D01*
X85665000Y-62285750D01*
X82986028Y-62285750D01*
X83050000Y-62131310D01*
X83050000Y-61415750D01*
X82891250Y-61257000D01*
X81667000Y-61257000D01*
X81413000Y-61257000D01*
X81393000Y-61257000D01*
X81393000Y-61003000D01*
X81413000Y-61003000D01*
X81413000Y-60983000D01*
X81667000Y-60983000D01*
X81667000Y-61003000D01*
X82891250Y-61003000D01*
X83050000Y-60844250D01*
X83050000Y-60323691D01*
X85665000Y-60323691D01*
X85665000Y-61714250D01*
X85823750Y-61873000D01*
X86673000Y-61873000D01*
X86673000Y-59973750D01*
X86927000Y-59973750D01*
X86927000Y-61873000D01*
X87776250Y-61873000D01*
X87935000Y-61714250D01*
X87935000Y-60323691D01*
X87838327Y-60090302D01*
X87659699Y-59911673D01*
X87426310Y-59815000D01*
X87085750Y-59815000D01*
X86927000Y-59973750D01*
X86673000Y-59973750D01*
X86514250Y-59815000D01*
X86173690Y-59815000D01*
X85940301Y-59911673D01*
X85761673Y-60090302D01*
X85665000Y-60323691D01*
X83050000Y-60323691D01*
X83050000Y-60128690D01*
X82953327Y-59895301D01*
X82774698Y-59716673D01*
X82614966Y-59650510D01*
X82819370Y-59446463D01*
X83049738Y-58891675D01*
X83050262Y-58290960D01*
X82820862Y-57735771D01*
X82405464Y-57319647D01*
X82819370Y-56906463D01*
X83049738Y-56351675D01*
X83050262Y-55750960D01*
X82820862Y-55195771D01*
X82396463Y-54770630D01*
X81841675Y-54540262D01*
X81240960Y-54539738D01*
X80685771Y-54769138D01*
X80269647Y-55184536D01*
X79856463Y-54770630D01*
X79301675Y-54540262D01*
X78700960Y-54539738D01*
X78145771Y-54769138D01*
X77720630Y-55193537D01*
X77490262Y-55748325D01*
X77489738Y-56349040D01*
X76885000Y-56349040D01*
X76885000Y-52601001D01*
X77100009Y-52385992D01*
X77621702Y-52120176D01*
X78209992Y-52027000D01*
X80121573Y-52027000D01*
X80138150Y-52025914D01*
X80655788Y-51957766D01*
X80687812Y-51949185D01*
X81170174Y-51749384D01*
X81198886Y-51732807D01*
X81613099Y-51414970D01*
X81625589Y-51404017D01*
X82454017Y-50575589D01*
X82464970Y-50563099D01*
X82782807Y-50148886D01*
X82799384Y-50120174D01*
X82999185Y-49637812D01*
X83007766Y-49605788D01*
X83075914Y-49088150D01*
X83077000Y-49071573D01*
X83077000Y-46459992D01*
X83170176Y-45871702D01*
X83435992Y-45350009D01*
X83478060Y-45307941D01*
X83478060Y-46307822D01*
G36*
X113958060Y-46307822D02*
X113909009Y-46381232D01*
X113815000Y-46853846D01*
X113815000Y-47106154D01*
X113909009Y-47578768D01*
X114176723Y-47979431D01*
X114577386Y-48247145D01*
X115050000Y-48341154D01*
X115522614Y-48247145D01*
X115923277Y-47979431D01*
X116190991Y-47578768D01*
X116285000Y-47106154D01*
X116285000Y-46853846D01*
X116190991Y-46381232D01*
X116141940Y-46307822D01*
X116141940Y-45135000D01*
X116498060Y-45135000D01*
X116498060Y-46307822D01*
X116449009Y-46381232D01*
X116355000Y-46853846D01*
X116355000Y-47106154D01*
X116449009Y-47578768D01*
X116716723Y-47979431D01*
X117117386Y-48247145D01*
X117590000Y-48341154D01*
X118062614Y-48247145D01*
X118463277Y-47979431D01*
X118730991Y-47578768D01*
X118825000Y-47106154D01*
X118825000Y-46853846D01*
X118786512Y-46660353D01*
X118915799Y-46660353D01*
X119055137Y-46853000D01*
X119115238Y-46853000D01*
X119147173Y-46930099D01*
X119324075Y-47107000D01*
X119055137Y-47107000D01*
X118915799Y-47299647D01*
X119092280Y-47747582D01*
X119426744Y-48093884D01*
X119812391Y-48273462D01*
X120003000Y-48148731D01*
X120003000Y-47107000D01*
X119942650Y-47107000D01*
X120003000Y-47046650D01*
X120003000Y-45811269D01*
X120257000Y-45811269D01*
X120257000Y-47046650D01*
X120317350Y-47107000D01*
X120257000Y-47107000D01*
X120257000Y-48148731D01*
X120447609Y-48273462D01*
X120833256Y-48093884D01*
X121167720Y-47747582D01*
X121344201Y-47299647D01*
X121204863Y-47107000D01*
X120935925Y-47107000D01*
X121112827Y-46930099D01*
X121144762Y-46853000D01*
X121204863Y-46853000D01*
X121344201Y-46660353D01*
X121209500Y-46318462D01*
X121209500Y-46017950D01*
X121050750Y-45859200D01*
X120818404Y-45859200D01*
X120447609Y-45686538D01*
X120257000Y-45811269D01*
X120003000Y-45811269D01*
X119812391Y-45686538D01*
X119441596Y-45859200D01*
X119209250Y-45859200D01*
X119050500Y-46017950D01*
X119050500Y-46318462D01*
X118915799Y-46660353D01*
X118786512Y-46660353D01*
X118730991Y-46381232D01*
X118681940Y-46307822D01*
X118681940Y-45135000D01*
X119050500Y-45135000D01*
X119050500Y-45446450D01*
X119209250Y-45605200D01*
X120003000Y-45605200D01*
X120003000Y-45585200D01*
X120257000Y-45585200D01*
X120257000Y-45605200D01*
X121050750Y-45605200D01*
X121209500Y-45446450D01*
X121209500Y-45135000D01*
X121578060Y-45135000D01*
X121578060Y-46307822D01*
X121529009Y-46381232D01*
X121435000Y-46853846D01*
X121435000Y-47106154D01*
X121529009Y-47578768D01*
X121796723Y-47979431D01*
X122197386Y-48247145D01*
X122670000Y-48341154D01*
X123142614Y-48247145D01*
X123543277Y-47979431D01*
X123810991Y-47578768D01*
X123905000Y-47106154D01*
X123905000Y-46853846D01*
X123866512Y-46660353D01*
X123995799Y-46660353D01*
X124135137Y-46853000D01*
X124195238Y-46853000D01*
X124227173Y-46930099D01*
X124404075Y-47107000D01*
X124135137Y-47107000D01*
X123995799Y-47299647D01*
X124172280Y-47747582D01*
X124506744Y-48093884D01*
X124892391Y-48273462D01*
X125083000Y-48148731D01*
X125083000Y-47107000D01*
X125022650Y-47107000D01*
X125083000Y-47046650D01*
X125083000Y-45811269D01*
X125337000Y-45811269D01*
X125337000Y-47046650D01*
X125397350Y-47107000D01*
X125337000Y-47107000D01*
X125337000Y-48148731D01*
X125527609Y-48273462D01*
X125913256Y-48093884D01*
X126247720Y-47747582D01*
X126424201Y-47299647D01*
X126284863Y-47107000D01*
X126015925Y-47107000D01*
X126192827Y-46930099D01*
X126224762Y-46853000D01*
X126284863Y-46853000D01*
X126424201Y-46660353D01*
X126289500Y-46318462D01*
X126289500Y-46017950D01*
X126130750Y-45859200D01*
X125898404Y-45859200D01*
X125527609Y-45686538D01*
X125337000Y-45811269D01*
X125083000Y-45811269D01*
X124892391Y-45686538D01*
X124521596Y-45859200D01*
X124289250Y-45859200D01*
X124130500Y-46017950D01*
X124130500Y-46318462D01*
X123995799Y-46660353D01*
X123866512Y-46660353D01*
X123810991Y-46381232D01*
X123761940Y-46307822D01*
X123761940Y-45135000D01*
X124130500Y-45135000D01*
X124130500Y-45446450D01*
X124289250Y-45605200D01*
X125083000Y-45605200D01*
X125083000Y-45585200D01*
X125337000Y-45585200D01*
X125337000Y-45605200D01*
X126130750Y-45605200D01*
X126289500Y-45446450D01*
X126289500Y-45135000D01*
X126658060Y-45135000D01*
X126658060Y-46307822D01*
X126609009Y-46381232D01*
X126515000Y-46853846D01*
X126515000Y-47106154D01*
X126609009Y-47578768D01*
X126876723Y-47979431D01*
X127277386Y-48247145D01*
X127750000Y-48341154D01*
X128222614Y-48247145D01*
X128623277Y-47979431D01*
X128890991Y-47578768D01*
X128985000Y-47106154D01*
X128985000Y-46853846D01*
X128890991Y-46381232D01*
X128841940Y-46307822D01*
X128841940Y-45135000D01*
X129198060Y-45135000D01*
X129198060Y-46307822D01*
X129149009Y-46381232D01*
X129055000Y-46853846D01*
X129055000Y-47106154D01*
X129149009Y-47578768D01*
X129416723Y-47979431D01*
X129817386Y-48247145D01*
X130036138Y-48290658D01*
X130035860Y-48609398D01*
X129817386Y-48652855D01*
X129416723Y-48920569D01*
X129149009Y-49321232D01*
X129055000Y-49793846D01*
X129055000Y-50046154D01*
X129149009Y-50518768D01*
X129198060Y-50592178D01*
X129198060Y-52006000D01*
X129242338Y-52241317D01*
X129381410Y-52457441D01*
X129593610Y-52602431D01*
X129845500Y-52653440D01*
X130734500Y-52653440D01*
X130969817Y-52609162D01*
X131185941Y-52470090D01*
X131330931Y-52257890D01*
X131381940Y-52006000D01*
X131381940Y-51453550D01*
X131750500Y-51453550D01*
X131750500Y-52132310D01*
X131847173Y-52365699D01*
X132025802Y-52544327D01*
X132259191Y-52641000D01*
X132544250Y-52641000D01*
X132703000Y-52482250D01*
X132703000Y-51294800D01*
X132957000Y-51294800D01*
X132957000Y-52482250D01*
X133115750Y-52641000D01*
X133400809Y-52641000D01*
X133634198Y-52544327D01*
X133812827Y-52365699D01*
X133909500Y-52132310D01*
X133909500Y-51453550D01*
X133750750Y-51294800D01*
X132957000Y-51294800D01*
X132703000Y-51294800D01*
X131909250Y-51294800D01*
X131750500Y-51453550D01*
X131381940Y-51453550D01*
X131381940Y-50592178D01*
X131430991Y-50518768D01*
X131525000Y-50046154D01*
X131525000Y-49973970D01*
X131595000Y-49974031D01*
X131595000Y-50047002D01*
X131755136Y-50047002D01*
X131615799Y-50239647D01*
X131750500Y-50581538D01*
X131750500Y-50882050D01*
X131909250Y-51040800D01*
X132141596Y-51040800D01*
X132512391Y-51213462D01*
X132703000Y-51088731D01*
X132703000Y-49853350D01*
X132683000Y-49833350D01*
X132683000Y-49793000D01*
X132703000Y-49793000D01*
X132703000Y-49773000D01*
X132957000Y-49773000D01*
X132957000Y-49793000D01*
X133017350Y-49793000D01*
X132957000Y-49853350D01*
X132957000Y-51088731D01*
X133147609Y-51213462D01*
X133518404Y-51040800D01*
X133750750Y-51040800D01*
X133909500Y-50882050D01*
X133909500Y-50581538D01*
X134044201Y-50239647D01*
X133904863Y-50047000D01*
X133844762Y-50047000D01*
X133812827Y-49969901D01*
X133635925Y-49793000D01*
X133904863Y-49793000D01*
X134044201Y-49600353D01*
X133867720Y-49152418D01*
X133533256Y-48806116D01*
X133147609Y-48626538D01*
X133083810Y-48668287D01*
X133084140Y-48290602D01*
X133302614Y-48247145D01*
X133703277Y-47979431D01*
X133970991Y-47578768D01*
X134065000Y-47106154D01*
X134065000Y-46853846D01*
X133970991Y-46381232D01*
X133921940Y-46307822D01*
X133921940Y-45307941D01*
X133964008Y-45350009D01*
X134229824Y-45871702D01*
X134323000Y-46459992D01*
X134323000Y-49421573D01*
X134324086Y-49438150D01*
X134392234Y-49955788D01*
X134400815Y-49987812D01*
X134600616Y-50470174D01*
X134617193Y-50498886D01*
X134935030Y-50913099D01*
X134945983Y-50925589D01*
X135324411Y-51304017D01*
X135343657Y-51319811D01*
X135992503Y-51753356D01*
X136038284Y-51772319D01*
X136803651Y-51924560D01*
X136828427Y-51927000D01*
X139190008Y-51927000D01*
X139778298Y-52020176D01*
X140299991Y-52285992D01*
X140515000Y-52501001D01*
X140515000Y-93248999D01*
X140299991Y-93464008D01*
X139778298Y-93729824D01*
X139190008Y-93823000D01*
X137178427Y-93823000D01*
X137153651Y-93825440D01*
X136388284Y-93977681D01*
X136342503Y-93996644D01*
X135693657Y-94430189D01*
X135674411Y-94445983D01*
X134645983Y-95474411D01*
X134635030Y-95486901D01*
X134317193Y-95901114D01*
X134300616Y-95929826D01*
X134100815Y-96412188D01*
X134092234Y-96444212D01*
X134024086Y-96961850D01*
X134023000Y-96978427D01*
X134023000Y-98940008D01*
X133929824Y-99528298D01*
X133664008Y-100049991D01*
X133448999Y-100265000D01*
X131251000Y-100265000D01*
X131251000Y-99535750D01*
X131092250Y-99377000D01*
X129727000Y-99377000D01*
X129727000Y-99397000D01*
X129473000Y-99397000D01*
X129473000Y-99377000D01*
X129453000Y-99377000D01*
X129453000Y-99123000D01*
X129473000Y-99123000D01*
X129473000Y-97757750D01*
X129727000Y-97757750D01*
X129727000Y-99123000D01*
X131092250Y-99123000D01*
X131251000Y-98964250D01*
X131251000Y-98107691D01*
X131154327Y-97874302D01*
X130975699Y-97695673D01*
X130742310Y-97599000D01*
X129885750Y-97599000D01*
X129727000Y-97757750D01*
X129473000Y-97757750D01*
X129314250Y-97599000D01*
X128457690Y-97599000D01*
X128224301Y-97695673D01*
X128045673Y-97874302D01*
X128028001Y-97916966D01*
X127691810Y-97692330D01*
X127179964Y-97590517D01*
X127135000Y-97545554D01*
X127135000Y-97453222D01*
X127135317Y-97453162D01*
X127351441Y-97314090D01*
X127496431Y-97101890D01*
X127547440Y-96850000D01*
X127547440Y-95585750D01*
X129265000Y-95585750D01*
X129265000Y-96976309D01*
X129361673Y-97209698D01*
X129540301Y-97388327D01*
X129773690Y-97485000D01*
X130114250Y-97485000D01*
X130273000Y-97326250D01*
X130273000Y-95427000D01*
X130527000Y-95427000D01*
X130527000Y-97326250D01*
X130685750Y-97485000D01*
X131026310Y-97485000D01*
X131259699Y-97388327D01*
X131438327Y-97209698D01*
X131535000Y-96976309D01*
X131535000Y-95585750D01*
X131376250Y-95427000D01*
X130527000Y-95427000D01*
X130273000Y-95427000D01*
X129423750Y-95427000D01*
X129265000Y-95585750D01*
X127547440Y-95585750D01*
X127547440Y-93750000D01*
X127523674Y-93623691D01*
X129265000Y-93623691D01*
X129265000Y-95014250D01*
X129423750Y-95173000D01*
X130273000Y-95173000D01*
X130273000Y-93273750D01*
X130527000Y-93273750D01*
X130527000Y-95173000D01*
X131376250Y-95173000D01*
X131535000Y-95014250D01*
X131535000Y-93623691D01*
X131438327Y-93390302D01*
X131259699Y-93211673D01*
X131026310Y-93115000D01*
X130685750Y-93115000D01*
X130527000Y-93273750D01*
X130273000Y-93273750D01*
X130114250Y-93115000D01*
X129773690Y-93115000D01*
X129540301Y-93211673D01*
X129361673Y-93390302D01*
X129265000Y-93623691D01*
X127523674Y-93623691D01*
X127503162Y-93514683D01*
X127364090Y-93298559D01*
X127151890Y-93153569D01*
X127135000Y-93150149D01*
X127135000Y-88553222D01*
X127135317Y-88553162D01*
X127351441Y-88414090D01*
X127496431Y-88201890D01*
X127547440Y-87950000D01*
X127547440Y-86685750D01*
X129265000Y-86685750D01*
X129265000Y-88076309D01*
X129361673Y-88309698D01*
X129540301Y-88488327D01*
X129773690Y-88585000D01*
X130114250Y-88585000D01*
X130273000Y-88426250D01*
X130273000Y-86527000D01*
X130527000Y-86527000D01*
X130527000Y-88426250D01*
X130685750Y-88585000D01*
X131026310Y-88585000D01*
X131259699Y-88488327D01*
X131438327Y-88309698D01*
X131535000Y-88076309D01*
X131535000Y-86685750D01*
X131376250Y-86527000D01*
X130527000Y-86527000D01*
X130273000Y-86527000D01*
X129423750Y-86527000D01*
X129265000Y-86685750D01*
X127547440Y-86685750D01*
X127547440Y-84850000D01*
X127523674Y-84723691D01*
X129265000Y-84723691D01*
X129265000Y-86114250D01*
X129423750Y-86273000D01*
X130273000Y-86273000D01*
X130273000Y-84373750D01*
X130527000Y-84373750D01*
X130527000Y-86273000D01*
X131376250Y-86273000D01*
X131535000Y-86114250D01*
X131535000Y-84723691D01*
X131438327Y-84490302D01*
X131259699Y-84311673D01*
X131026310Y-84215000D01*
X130685750Y-84215000D01*
X130527000Y-84373750D01*
X130273000Y-84373750D01*
X130114250Y-84215000D01*
X129773690Y-84215000D01*
X129540301Y-84311673D01*
X129361673Y-84490302D01*
X129265000Y-84723691D01*
X127523674Y-84723691D01*
X127503162Y-84614683D01*
X127364090Y-84398559D01*
X127181231Y-84273617D01*
X127351441Y-84164090D01*
X127496431Y-83951890D01*
X127547440Y-83700000D01*
X127547440Y-82800000D01*
X127503162Y-82564683D01*
X127364090Y-82348559D01*
X127151890Y-82203569D01*
X126900000Y-82152560D01*
X125942007Y-82152560D01*
X124458164Y-80668717D01*
X124600000Y-80697440D01*
X126600000Y-80697440D01*
X126835317Y-80653162D01*
X127051441Y-80514090D01*
X127196431Y-80301890D01*
X127247440Y-80050000D01*
X127247440Y-79535750D01*
X127965000Y-79535750D01*
X127965000Y-80176310D01*
X128061673Y-80409699D01*
X128240302Y-80588327D01*
X128473691Y-80685000D01*
X129314250Y-80685000D01*
X129473000Y-80526250D01*
X129473000Y-79377000D01*
X129727000Y-79377000D01*
X129727000Y-80526250D01*
X129885750Y-80685000D01*
X130726309Y-80685000D01*
X130959698Y-80588327D01*
X131138327Y-80409699D01*
X131235000Y-80176310D01*
X131235000Y-79535750D01*
X131076250Y-79377000D01*
X129727000Y-79377000D01*
X129473000Y-79377000D01*
X128123750Y-79377000D01*
X127965000Y-79535750D01*
X127247440Y-79535750D01*
X127247440Y-79275750D01*
X133915000Y-79275750D01*
X133915000Y-80366309D01*
X134011673Y-80599698D01*
X134190301Y-80778327D01*
X134423690Y-80875000D01*
X135514250Y-80875000D01*
X135673000Y-80716250D01*
X135673000Y-79117000D01*
X135927000Y-79117000D01*
X135927000Y-80716250D01*
X136085750Y-80875000D01*
X137176310Y-80875000D01*
X137409699Y-80778327D01*
X137588327Y-80599698D01*
X137685000Y-80366309D01*
X137685000Y-79275750D01*
X137526250Y-79117000D01*
X135927000Y-79117000D01*
X135673000Y-79117000D01*
X134073750Y-79117000D01*
X133915000Y-79275750D01*
X127247440Y-79275750D01*
X127247440Y-78450000D01*
X127223674Y-78323690D01*
X127965000Y-78323690D01*
X127965000Y-78964250D01*
X128123750Y-79123000D01*
X129473000Y-79123000D01*
X129473000Y-77973750D01*
X129727000Y-77973750D01*
X129727000Y-79123000D01*
X131076250Y-79123000D01*
X131235000Y-78964250D01*
X131235000Y-78323690D01*
X131138327Y-78090301D01*
X130959698Y-77911673D01*
X130726309Y-77815000D01*
X129885750Y-77815000D01*
X129727000Y-77973750D01*
X129473000Y-77973750D01*
X129314250Y-77815000D01*
X128473691Y-77815000D01*
X128240302Y-77911673D01*
X128061673Y-78090301D01*
X127965000Y-78323690D01*
X127223674Y-78323690D01*
X127203162Y-78214683D01*
X127064090Y-77998559D01*
X126851890Y-77853569D01*
X126600000Y-77802560D01*
X124600000Y-77802560D01*
X124364683Y-77846838D01*
X124148559Y-77985910D01*
X124003569Y-78198110D01*
X123952560Y-78450000D01*
X123952560Y-78465000D01*
X123725158Y-78465000D01*
X122886140Y-77625982D01*
X122886140Y-77613691D01*
X133915000Y-77613691D01*
X133915000Y-78704250D01*
X134073750Y-78863000D01*
X135673000Y-78863000D01*
X135673000Y-77263750D01*
X135927000Y-77263750D01*
X135927000Y-78863000D01*
X137526250Y-78863000D01*
X137685000Y-78704250D01*
X137685000Y-77613691D01*
X137588327Y-77380302D01*
X137409699Y-77201673D01*
X137176310Y-77105000D01*
X136085750Y-77105000D01*
X135927000Y-77263750D01*
X135673000Y-77263750D01*
X135514250Y-77105000D01*
X134423690Y-77105000D01*
X134190301Y-77201673D01*
X134011673Y-77380302D01*
X133915000Y-77613691D01*
X122886140Y-77613691D01*
X122886140Y-77297490D01*
X123001570Y-77297490D01*
X123236887Y-77253212D01*
X123453011Y-77114140D01*
X123598001Y-76901940D01*
X123649010Y-76650050D01*
X123649010Y-76209168D01*
X123844921Y-76405079D01*
X124099594Y-76575245D01*
X124400000Y-76635001D01*
X124400005Y-76635000D01*
X128800000Y-76635000D01*
X129100407Y-76575245D01*
X129355079Y-76405079D01*
X130262718Y-75497440D01*
X130800000Y-75497440D01*
X131035317Y-75453162D01*
X131251441Y-75314090D01*
X131396431Y-75101890D01*
X131447440Y-74850000D01*
X131447440Y-74695000D01*
X134084783Y-74695000D01*
X134201043Y-74976372D01*
X134730839Y-75507093D01*
X135423405Y-75794672D01*
X136173305Y-75795326D01*
X136866372Y-75508957D01*
X137397093Y-74979161D01*
X137684672Y-74286595D01*
X137685326Y-73536695D01*
X137398957Y-72843628D01*
X136869161Y-72312907D01*
X136176595Y-72025328D01*
X135426695Y-72024674D01*
X134733628Y-72311043D01*
X134202907Y-72840839D01*
X134084913Y-73125000D01*
X131423920Y-73125000D01*
X131403162Y-73014683D01*
X131285000Y-72831054D01*
X131285000Y-68112630D01*
X131335317Y-68103162D01*
X131551441Y-67964090D01*
X131696431Y-67751890D01*
X131747440Y-67500000D01*
X131747440Y-66600000D01*
X131703162Y-66364683D01*
X131564090Y-66148559D01*
X131351890Y-66003569D01*
X131100000Y-65952560D01*
X129900000Y-65952560D01*
X129664683Y-65996838D01*
X129448559Y-66135910D01*
X129400866Y-66205711D01*
X129364090Y-66148559D01*
X129151890Y-66003569D01*
X129086140Y-65990254D01*
X129086140Y-64097490D01*
X129251570Y-64097490D01*
X129486887Y-64053212D01*
X129703011Y-63914140D01*
X129791249Y-63785000D01*
X136819095Y-63785000D01*
X136830729Y-63843489D01*
X137155585Y-64329670D01*
X137470366Y-64540000D01*
X137155585Y-64750330D01*
X136830729Y-65236511D01*
X136716655Y-65810000D01*
X136830729Y-66383489D01*
X137155585Y-66869670D01*
X137470366Y-67080000D01*
X137155585Y-67290330D01*
X136830729Y-67776511D01*
X136716655Y-68350000D01*
X136830729Y-68923489D01*
X137155585Y-69409670D01*
X137641766Y-69734526D01*
X138215255Y-69848600D01*
X138584745Y-69848600D01*
X139158234Y-69734526D01*
X139644415Y-69409670D01*
X139969271Y-68923489D01*
X140083345Y-68350000D01*
X139969271Y-67776511D01*
X139644415Y-67290330D01*
X139329634Y-67080000D01*
X139644415Y-66869670D01*
X139969271Y-66383489D01*
X140083345Y-65810000D01*
X139969271Y-65236511D01*
X139644415Y-64750330D01*
X139329634Y-64540000D01*
X139644415Y-64329670D01*
X139969271Y-63843489D01*
X140083345Y-63270000D01*
X139969271Y-62696511D01*
X139644415Y-62210330D01*
X139329634Y-62000000D01*
X139644415Y-61789670D01*
X139969271Y-61303489D01*
X140083345Y-60730000D01*
X139969271Y-60156511D01*
X139644415Y-59670330D01*
X139329634Y-59460000D01*
X139644415Y-59249670D01*
X139969271Y-58763489D01*
X140083345Y-58190000D01*
X139969271Y-57616511D01*
X139644415Y-57130330D01*
X139622220Y-57115500D01*
X139775698Y-57051927D01*
X139954327Y-56873299D01*
X140051000Y-56639910D01*
X140051000Y-55935750D01*
X139892250Y-55777000D01*
X138527000Y-55777000D01*
X138527000Y-55797000D01*
X138273000Y-55797000D01*
X138273000Y-55777000D01*
X136907750Y-55777000D01*
X136749000Y-55935750D01*
X136749000Y-56639910D01*
X136845673Y-56873299D01*
X137024302Y-57051927D01*
X137177780Y-57115500D01*
X137155585Y-57130330D01*
X136830729Y-57616511D01*
X136716655Y-58190000D01*
X136830729Y-58763489D01*
X137155585Y-59249670D01*
X137470366Y-59460000D01*
X137155585Y-59670330D01*
X136830729Y-60156511D01*
X136716655Y-60730000D01*
X136830729Y-61303489D01*
X137155585Y-61789670D01*
X137470366Y-62000000D01*
X137155585Y-62210330D01*
X137085647Y-62315000D01*
X129790620Y-62315000D01*
X129715660Y-62198509D01*
X129503460Y-62053519D01*
X129251570Y-62002510D01*
X128157648Y-62002510D01*
X128705079Y-61455079D01*
X128875245Y-61200407D01*
X128935000Y-60900000D01*
X128935000Y-59912630D01*
X128985317Y-59903162D01*
X129201441Y-59764090D01*
X129346431Y-59551890D01*
X129397440Y-59300000D01*
X129397440Y-58400000D01*
X129353162Y-58164683D01*
X129214090Y-57948559D01*
X129001890Y-57803569D01*
X128885000Y-57779898D01*
X128885000Y-56712630D01*
X128935317Y-56703162D01*
X129151441Y-56564090D01*
X129296431Y-56351890D01*
X129347440Y-56100000D01*
X129347440Y-55200000D01*
X129303162Y-54964683D01*
X129164090Y-54748559D01*
X129034612Y-54660090D01*
X136749000Y-54660090D01*
X136749000Y-55364250D01*
X136907750Y-55523000D01*
X138273000Y-55523000D01*
X138273000Y-54310150D01*
X138527000Y-54310150D01*
X138527000Y-55523000D01*
X139892250Y-55523000D01*
X140051000Y-55364250D01*
X140051000Y-54660090D01*
X139954327Y-54426701D01*
X139775698Y-54248073D01*
X139542309Y-54151400D01*
X138685750Y-54151400D01*
X138527000Y-54310150D01*
X138273000Y-54310150D01*
X138114250Y-54151400D01*
X137257691Y-54151400D01*
X137024302Y-54248073D01*
X136845673Y-54426701D01*
X136749000Y-54660090D01*
X129034612Y-54660090D01*
X128951890Y-54603569D01*
X128700000Y-54552560D01*
X127500000Y-54552560D01*
X127264683Y-54596838D01*
X127048559Y-54735910D01*
X127000866Y-54805711D01*
X126964090Y-54748559D01*
X126751890Y-54603569D01*
X126500000Y-54552560D01*
X125300000Y-54552560D01*
X125064683Y-54596838D01*
X124848559Y-54735910D01*
X124703569Y-54948110D01*
X124652560Y-55200000D01*
X124652560Y-55557993D01*
X123880278Y-56330276D01*
X123880277Y-56330277D01*
X123720949Y-56568728D01*
X123665000Y-56850000D01*
X123665000Y-58768432D01*
X123535000Y-58638204D01*
X123535000Y-56850000D01*
X123479051Y-56568728D01*
X123422224Y-56483680D01*
X123319723Y-56330276D01*
X121319723Y-54330277D01*
X121081272Y-54170949D01*
X120800000Y-54115000D01*
X115704447Y-54115000D01*
X114535000Y-52945554D01*
X114535000Y-52641000D01*
X114764250Y-52641000D01*
X114923000Y-52482250D01*
X114923000Y-51294800D01*
X115177000Y-51294800D01*
X115177000Y-52482250D01*
X115335750Y-52641000D01*
X115620809Y-52641000D01*
X115854198Y-52544327D01*
X116032827Y-52365699D01*
X116129500Y-52132310D01*
X116129500Y-51453550D01*
X115970750Y-51294800D01*
X115177000Y-51294800D01*
X114923000Y-51294800D01*
X114903000Y-51294800D01*
X114903000Y-51101819D01*
X114923000Y-51088731D01*
X114923000Y-49853350D01*
X114903000Y-49833350D01*
X114903000Y-49793000D01*
X114923000Y-49793000D01*
X114923000Y-48751269D01*
X115177000Y-48751269D01*
X115177000Y-49793000D01*
X115237350Y-49793000D01*
X115177000Y-49853350D01*
X115177000Y-51088731D01*
X115367609Y-51213462D01*
X115738404Y-51040800D01*
X115970750Y-51040800D01*
X116129500Y-50882050D01*
X116129500Y-50581538D01*
X116264201Y-50239647D01*
X116124863Y-50047000D01*
X116064762Y-50047000D01*
X116032827Y-49969901D01*
X115856772Y-49793846D01*
X116355000Y-49793846D01*
X116355000Y-50046154D01*
X116449009Y-50518768D01*
X116498060Y-50592178D01*
X116498060Y-52006000D01*
X116542338Y-52241317D01*
X116681410Y-52457441D01*
X116893610Y-52602431D01*
X117145500Y-52653440D01*
X118034500Y-52653440D01*
X118269817Y-52609162D01*
X118485941Y-52470090D01*
X118630931Y-52257890D01*
X118681940Y-52006000D01*
X118681940Y-50592178D01*
X118730991Y-50518768D01*
X118825000Y-50046154D01*
X118825000Y-49793846D01*
X118895000Y-49793846D01*
X118895000Y-50046154D01*
X118989009Y-50518768D01*
X119038060Y-50592178D01*
X119038060Y-52006000D01*
X119082338Y-52241317D01*
X119221410Y-52457441D01*
X119433610Y-52602431D01*
X119685500Y-52653440D01*
X120574500Y-52653440D01*
X120809817Y-52609162D01*
X121025941Y-52470090D01*
X121170931Y-52257890D01*
X121221940Y-52006000D01*
X121221940Y-50592178D01*
X121270991Y-50518768D01*
X121365000Y-50046154D01*
X121365000Y-49793846D01*
X121435000Y-49793846D01*
X121435000Y-50046154D01*
X121529009Y-50518768D01*
X121578060Y-50592178D01*
X121578060Y-52006000D01*
X121622338Y-52241317D01*
X121761410Y-52457441D01*
X121973610Y-52602431D01*
X122225500Y-52653440D01*
X123114500Y-52653440D01*
X123349817Y-52609162D01*
X123565941Y-52470090D01*
X123710931Y-52257890D01*
X123761940Y-52006000D01*
X123761940Y-50592178D01*
X123810991Y-50518768D01*
X123905000Y-50046154D01*
X123905000Y-49793846D01*
X123975000Y-49793846D01*
X123975000Y-50046154D01*
X124069009Y-50518768D01*
X124118060Y-50592178D01*
X124118060Y-52006000D01*
X124162338Y-52241317D01*
X124301410Y-52457441D01*
X124513610Y-52602431D01*
X124765500Y-52653440D01*
X125654500Y-52653440D01*
X125889817Y-52609162D01*
X126105941Y-52470090D01*
X126250931Y-52257890D01*
X126301940Y-52006000D01*
X126301940Y-50592178D01*
X126350991Y-50518768D01*
X126445000Y-50046154D01*
X126445000Y-49793846D01*
X126515000Y-49793846D01*
X126515000Y-50046154D01*
X126609009Y-50518768D01*
X126658060Y-50592178D01*
X126658060Y-52006000D01*
X126702338Y-52241317D01*
X126841410Y-52457441D01*
X127053610Y-52602431D01*
X127305500Y-52653440D01*
X128194500Y-52653440D01*
X128429817Y-52609162D01*
X128645941Y-52470090D01*
X128790931Y-52257890D01*
X128841940Y-52006000D01*
X128841940Y-50592178D01*
X128890991Y-50518768D01*
X128985000Y-50046154D01*
X128985000Y-49793846D01*
X128890991Y-49321232D01*
X128623277Y-48920569D01*
X128222614Y-48652855D01*
X127750000Y-48558846D01*
X127277386Y-48652855D01*
X126876723Y-48920569D01*
X126609009Y-49321232D01*
X126515000Y-49793846D01*
X126445000Y-49793846D01*
X126350991Y-49321232D01*
X126083277Y-48920569D01*
X125682614Y-48652855D01*
X125210000Y-48558846D01*
X124737386Y-48652855D01*
X124336723Y-48920569D01*
X124069009Y-49321232D01*
X123975000Y-49793846D01*
X123905000Y-49793846D01*
X123810991Y-49321232D01*
X123543277Y-48920569D01*
X123142614Y-48652855D01*
X122670000Y-48558846D01*
X122197386Y-48652855D01*
X121796723Y-48920569D01*
X121529009Y-49321232D01*
X121435000Y-49793846D01*
X121365000Y-49793846D01*
X121270991Y-49321232D01*
X121003277Y-48920569D01*
X120602614Y-48652855D01*
X120130000Y-48558846D01*
X119657386Y-48652855D01*
X119256723Y-48920569D01*
X118989009Y-49321232D01*
X118895000Y-49793846D01*
X118825000Y-49793846D01*
X118730991Y-49321232D01*
X118463277Y-48920569D01*
X118062614Y-48652855D01*
X117590000Y-48558846D01*
X117117386Y-48652855D01*
X116716723Y-48920569D01*
X116449009Y-49321232D01*
X116355000Y-49793846D01*
X115856772Y-49793846D01*
X115855925Y-49793000D01*
X116124863Y-49793000D01*
X116264201Y-49600353D01*
X116087720Y-49152418D01*
X115753256Y-48806116D01*
X115367609Y-48626538D01*
X115177000Y-48751269D01*
X114923000Y-48751269D01*
X114732391Y-48626538D01*
X114346744Y-48806116D01*
X114272467Y-48883021D01*
X113374645Y-47985199D01*
X113383277Y-47979431D01*
X113650991Y-47578768D01*
X113745000Y-47106154D01*
X113745000Y-46853846D01*
X113650991Y-46381232D01*
X113601940Y-46307822D01*
X113601940Y-45135000D01*
X113958060Y-45135000D01*
X113958060Y-46307822D01*
X113958060Y-46307822D01*
G37*
X113958060Y-46307822D02*
X113909009Y-46381232D01*
X113815000Y-46853846D01*
X113815000Y-47106154D01*
X113909009Y-47578768D01*
X114176723Y-47979431D01*
X114577386Y-48247145D01*
X115050000Y-48341154D01*
X115522614Y-48247145D01*
X115923277Y-47979431D01*
X116190991Y-47578768D01*
X116285000Y-47106154D01*
X116285000Y-46853846D01*
X116190991Y-46381232D01*
X116141940Y-46307822D01*
X116141940Y-45135000D01*
X116498060Y-45135000D01*
X116498060Y-46307822D01*
X116449009Y-46381232D01*
X116355000Y-46853846D01*
X116355000Y-47106154D01*
X116449009Y-47578768D01*
X116716723Y-47979431D01*
X117117386Y-48247145D01*
X117590000Y-48341154D01*
X118062614Y-48247145D01*
X118463277Y-47979431D01*
X118730991Y-47578768D01*
X118825000Y-47106154D01*
X118825000Y-46853846D01*
X118786512Y-46660353D01*
X118915799Y-46660353D01*
X119055137Y-46853000D01*
X119115238Y-46853000D01*
X119147173Y-46930099D01*
X119324075Y-47107000D01*
X119055137Y-47107000D01*
X118915799Y-47299647D01*
X119092280Y-47747582D01*
X119426744Y-48093884D01*
X119812391Y-48273462D01*
X120003000Y-48148731D01*
X120003000Y-47107000D01*
X119942650Y-47107000D01*
X120003000Y-47046650D01*
X120003000Y-45811269D01*
X120257000Y-45811269D01*
X120257000Y-47046650D01*
X120317350Y-47107000D01*
X120257000Y-47107000D01*
X120257000Y-48148731D01*
X120447609Y-48273462D01*
X120833256Y-48093884D01*
X121167720Y-47747582D01*
X121344201Y-47299647D01*
X121204863Y-47107000D01*
X120935925Y-47107000D01*
X121112827Y-46930099D01*
X121144762Y-46853000D01*
X121204863Y-46853000D01*
X121344201Y-46660353D01*
X121209500Y-46318462D01*
X121209500Y-46017950D01*
X121050750Y-45859200D01*
X120818404Y-45859200D01*
X120447609Y-45686538D01*
X120257000Y-45811269D01*
X120003000Y-45811269D01*
X119812391Y-45686538D01*
X119441596Y-45859200D01*
X119209250Y-45859200D01*
X119050500Y-46017950D01*
X119050500Y-46318462D01*
X118915799Y-46660353D01*
X118786512Y-46660353D01*
X118730991Y-46381232D01*
X118681940Y-46307822D01*
X118681940Y-45135000D01*
X119050500Y-45135000D01*
X119050500Y-45446450D01*
X119209250Y-45605200D01*
X120003000Y-45605200D01*
X120003000Y-45585200D01*
X120257000Y-45585200D01*
X120257000Y-45605200D01*
X121050750Y-45605200D01*
X121209500Y-45446450D01*
X121209500Y-45135000D01*
X121578060Y-45135000D01*
X121578060Y-46307822D01*
X121529009Y-46381232D01*
X121435000Y-46853846D01*
X121435000Y-47106154D01*
X121529009Y-47578768D01*
X121796723Y-47979431D01*
X122197386Y-48247145D01*
X122670000Y-48341154D01*
X123142614Y-48247145D01*
X123543277Y-47979431D01*
X123810991Y-47578768D01*
X123905000Y-47106154D01*
X123905000Y-46853846D01*
X123866512Y-46660353D01*
X123995799Y-46660353D01*
X124135137Y-46853000D01*
X124195238Y-46853000D01*
X124227173Y-46930099D01*
X124404075Y-47107000D01*
X124135137Y-47107000D01*
X123995799Y-47299647D01*
X124172280Y-47747582D01*
X124506744Y-48093884D01*
X124892391Y-48273462D01*
X125083000Y-48148731D01*
X125083000Y-47107000D01*
X125022650Y-47107000D01*
X125083000Y-47046650D01*
X125083000Y-45811269D01*
X125337000Y-45811269D01*
X125337000Y-47046650D01*
X125397350Y-47107000D01*
X125337000Y-47107000D01*
X125337000Y-48148731D01*
X125527609Y-48273462D01*
X125913256Y-48093884D01*
X126247720Y-47747582D01*
X126424201Y-47299647D01*
X126284863Y-47107000D01*
X126015925Y-47107000D01*
X126192827Y-46930099D01*
X126224762Y-46853000D01*
X126284863Y-46853000D01*
X126424201Y-46660353D01*
X126289500Y-46318462D01*
X126289500Y-46017950D01*
X126130750Y-45859200D01*
X125898404Y-45859200D01*
X125527609Y-45686538D01*
X125337000Y-45811269D01*
X125083000Y-45811269D01*
X124892391Y-45686538D01*
X124521596Y-45859200D01*
X124289250Y-45859200D01*
X124130500Y-46017950D01*
X124130500Y-46318462D01*
X123995799Y-46660353D01*
X123866512Y-46660353D01*
X123810991Y-46381232D01*
X123761940Y-46307822D01*
X123761940Y-45135000D01*
X124130500Y-45135000D01*
X124130500Y-45446450D01*
X124289250Y-45605200D01*
X125083000Y-45605200D01*
X125083000Y-45585200D01*
X125337000Y-45585200D01*
X125337000Y-45605200D01*
X126130750Y-45605200D01*
X126289500Y-45446450D01*
X126289500Y-45135000D01*
X126658060Y-45135000D01*
X126658060Y-46307822D01*
X126609009Y-46381232D01*
X126515000Y-46853846D01*
X126515000Y-47106154D01*
X126609009Y-47578768D01*
X126876723Y-47979431D01*
X127277386Y-48247145D01*
X127750000Y-48341154D01*
X128222614Y-48247145D01*
X128623277Y-47979431D01*
X128890991Y-47578768D01*
X128985000Y-47106154D01*
X128985000Y-46853846D01*
X128890991Y-46381232D01*
X128841940Y-46307822D01*
X128841940Y-45135000D01*
X129198060Y-45135000D01*
X129198060Y-46307822D01*
X129149009Y-46381232D01*
X129055000Y-46853846D01*
X129055000Y-47106154D01*
X129149009Y-47578768D01*
X129416723Y-47979431D01*
X129817386Y-48247145D01*
X130036138Y-48290658D01*
X130035860Y-48609398D01*
X129817386Y-48652855D01*
X129416723Y-48920569D01*
X129149009Y-49321232D01*
X129055000Y-49793846D01*
X129055000Y-50046154D01*
X129149009Y-50518768D01*
X129198060Y-50592178D01*
X129198060Y-52006000D01*
X129242338Y-52241317D01*
X129381410Y-52457441D01*
X129593610Y-52602431D01*
X129845500Y-52653440D01*
X130734500Y-52653440D01*
X130969817Y-52609162D01*
X131185941Y-52470090D01*
X131330931Y-52257890D01*
X131381940Y-52006000D01*
X131381940Y-51453550D01*
X131750500Y-51453550D01*
X131750500Y-52132310D01*
X131847173Y-52365699D01*
X132025802Y-52544327D01*
X132259191Y-52641000D01*
X132544250Y-52641000D01*
X132703000Y-52482250D01*
X132703000Y-51294800D01*
X132957000Y-51294800D01*
X132957000Y-52482250D01*
X133115750Y-52641000D01*
X133400809Y-52641000D01*
X133634198Y-52544327D01*
X133812827Y-52365699D01*
X133909500Y-52132310D01*
X133909500Y-51453550D01*
X133750750Y-51294800D01*
X132957000Y-51294800D01*
X132703000Y-51294800D01*
X131909250Y-51294800D01*
X131750500Y-51453550D01*
X131381940Y-51453550D01*
X131381940Y-50592178D01*
X131430991Y-50518768D01*
X131525000Y-50046154D01*
X131525000Y-49973970D01*
X131595000Y-49974031D01*
X131595000Y-50047002D01*
X131755136Y-50047002D01*
X131615799Y-50239647D01*
X131750500Y-50581538D01*
X131750500Y-50882050D01*
X131909250Y-51040800D01*
X132141596Y-51040800D01*
X132512391Y-51213462D01*
X132703000Y-51088731D01*
X132703000Y-49853350D01*
X132683000Y-49833350D01*
X132683000Y-49793000D01*
X132703000Y-49793000D01*
X132703000Y-49773000D01*
X132957000Y-49773000D01*
X132957000Y-49793000D01*
X133017350Y-49793000D01*
X132957000Y-49853350D01*
X132957000Y-51088731D01*
X133147609Y-51213462D01*
X133518404Y-51040800D01*
X133750750Y-51040800D01*
X133909500Y-50882050D01*
X133909500Y-50581538D01*
X134044201Y-50239647D01*
X133904863Y-50047000D01*
X133844762Y-50047000D01*
X133812827Y-49969901D01*
X133635925Y-49793000D01*
X133904863Y-49793000D01*
X134044201Y-49600353D01*
X133867720Y-49152418D01*
X133533256Y-48806116D01*
X133147609Y-48626538D01*
X133083810Y-48668287D01*
X133084140Y-48290602D01*
X133302614Y-48247145D01*
X133703277Y-47979431D01*
X133970991Y-47578768D01*
X134065000Y-47106154D01*
X134065000Y-46853846D01*
X133970991Y-46381232D01*
X133921940Y-46307822D01*
X133921940Y-45307941D01*
X133964008Y-45350009D01*
X134229824Y-45871702D01*
X134323000Y-46459992D01*
X134323000Y-49421573D01*
X134324086Y-49438150D01*
X134392234Y-49955788D01*
X134400815Y-49987812D01*
X134600616Y-50470174D01*
X134617193Y-50498886D01*
X134935030Y-50913099D01*
X134945983Y-50925589D01*
X135324411Y-51304017D01*
X135343657Y-51319811D01*
X135992503Y-51753356D01*
X136038284Y-51772319D01*
X136803651Y-51924560D01*
X136828427Y-51927000D01*
X139190008Y-51927000D01*
X139778298Y-52020176D01*
X140299991Y-52285992D01*
X140515000Y-52501001D01*
X140515000Y-93248999D01*
X140299991Y-93464008D01*
X139778298Y-93729824D01*
X139190008Y-93823000D01*
X137178427Y-93823000D01*
X137153651Y-93825440D01*
X136388284Y-93977681D01*
X136342503Y-93996644D01*
X135693657Y-94430189D01*
X135674411Y-94445983D01*
X134645983Y-95474411D01*
X134635030Y-95486901D01*
X134317193Y-95901114D01*
X134300616Y-95929826D01*
X134100815Y-96412188D01*
X134092234Y-96444212D01*
X134024086Y-96961850D01*
X134023000Y-96978427D01*
X134023000Y-98940008D01*
X133929824Y-99528298D01*
X133664008Y-100049991D01*
X133448999Y-100265000D01*
X131251000Y-100265000D01*
X131251000Y-99535750D01*
X131092250Y-99377000D01*
X129727000Y-99377000D01*
X129727000Y-99397000D01*
X129473000Y-99397000D01*
X129473000Y-99377000D01*
X129453000Y-99377000D01*
X129453000Y-99123000D01*
X129473000Y-99123000D01*
X129473000Y-97757750D01*
X129727000Y-97757750D01*
X129727000Y-99123000D01*
X131092250Y-99123000D01*
X131251000Y-98964250D01*
X131251000Y-98107691D01*
X131154327Y-97874302D01*
X130975699Y-97695673D01*
X130742310Y-97599000D01*
X129885750Y-97599000D01*
X129727000Y-97757750D01*
X129473000Y-97757750D01*
X129314250Y-97599000D01*
X128457690Y-97599000D01*
X128224301Y-97695673D01*
X128045673Y-97874302D01*
X128028001Y-97916966D01*
X127691810Y-97692330D01*
X127179964Y-97590517D01*
X127135000Y-97545554D01*
X127135000Y-97453222D01*
X127135317Y-97453162D01*
X127351441Y-97314090D01*
X127496431Y-97101890D01*
X127547440Y-96850000D01*
X127547440Y-95585750D01*
X129265000Y-95585750D01*
X129265000Y-96976309D01*
X129361673Y-97209698D01*
X129540301Y-97388327D01*
X129773690Y-97485000D01*
X130114250Y-97485000D01*
X130273000Y-97326250D01*
X130273000Y-95427000D01*
X130527000Y-95427000D01*
X130527000Y-97326250D01*
X130685750Y-97485000D01*
X131026310Y-97485000D01*
X131259699Y-97388327D01*
X131438327Y-97209698D01*
X131535000Y-96976309D01*
X131535000Y-95585750D01*
X131376250Y-95427000D01*
X130527000Y-95427000D01*
X130273000Y-95427000D01*
X129423750Y-95427000D01*
X129265000Y-95585750D01*
X127547440Y-95585750D01*
X127547440Y-93750000D01*
X127523674Y-93623691D01*
X129265000Y-93623691D01*
X129265000Y-95014250D01*
X129423750Y-95173000D01*
X130273000Y-95173000D01*
X130273000Y-93273750D01*
X130527000Y-93273750D01*
X130527000Y-95173000D01*
X131376250Y-95173000D01*
X131535000Y-95014250D01*
X131535000Y-93623691D01*
X131438327Y-93390302D01*
X131259699Y-93211673D01*
X131026310Y-93115000D01*
X130685750Y-93115000D01*
X130527000Y-93273750D01*
X130273000Y-93273750D01*
X130114250Y-93115000D01*
X129773690Y-93115000D01*
X129540301Y-93211673D01*
X129361673Y-93390302D01*
X129265000Y-93623691D01*
X127523674Y-93623691D01*
X127503162Y-93514683D01*
X127364090Y-93298559D01*
X127151890Y-93153569D01*
X127135000Y-93150149D01*
X127135000Y-88553222D01*
X127135317Y-88553162D01*
X127351441Y-88414090D01*
X127496431Y-88201890D01*
X127547440Y-87950000D01*
X127547440Y-86685750D01*
X129265000Y-86685750D01*
X129265000Y-88076309D01*
X129361673Y-88309698D01*
X129540301Y-88488327D01*
X129773690Y-88585000D01*
X130114250Y-88585000D01*
X130273000Y-88426250D01*
X130273000Y-86527000D01*
X130527000Y-86527000D01*
X130527000Y-88426250D01*
X130685750Y-88585000D01*
X131026310Y-88585000D01*
X131259699Y-88488327D01*
X131438327Y-88309698D01*
X131535000Y-88076309D01*
X131535000Y-86685750D01*
X131376250Y-86527000D01*
X130527000Y-86527000D01*
X130273000Y-86527000D01*
X129423750Y-86527000D01*
X129265000Y-86685750D01*
X127547440Y-86685750D01*
X127547440Y-84850000D01*
X127523674Y-84723691D01*
X129265000Y-84723691D01*
X129265000Y-86114250D01*
X129423750Y-86273000D01*
X130273000Y-86273000D01*
X130273000Y-84373750D01*
X130527000Y-84373750D01*
X130527000Y-86273000D01*
X131376250Y-86273000D01*
X131535000Y-86114250D01*
X131535000Y-84723691D01*
X131438327Y-84490302D01*
X131259699Y-84311673D01*
X131026310Y-84215000D01*
X130685750Y-84215000D01*
X130527000Y-84373750D01*
X130273000Y-84373750D01*
X130114250Y-84215000D01*
X129773690Y-84215000D01*
X129540301Y-84311673D01*
X129361673Y-84490302D01*
X129265000Y-84723691D01*
X127523674Y-84723691D01*
X127503162Y-84614683D01*
X127364090Y-84398559D01*
X127181231Y-84273617D01*
X127351441Y-84164090D01*
X127496431Y-83951890D01*
X127547440Y-83700000D01*
X127547440Y-82800000D01*
X127503162Y-82564683D01*
X127364090Y-82348559D01*
X127151890Y-82203569D01*
X126900000Y-82152560D01*
X125942007Y-82152560D01*
X124458164Y-80668717D01*
X124600000Y-80697440D01*
X126600000Y-80697440D01*
X126835317Y-80653162D01*
X127051441Y-80514090D01*
X127196431Y-80301890D01*
X127247440Y-80050000D01*
X127247440Y-79535750D01*
X127965000Y-79535750D01*
X127965000Y-80176310D01*
X128061673Y-80409699D01*
X128240302Y-80588327D01*
X128473691Y-80685000D01*
X129314250Y-80685000D01*
X129473000Y-80526250D01*
X129473000Y-79377000D01*
X129727000Y-79377000D01*
X129727000Y-80526250D01*
X129885750Y-80685000D01*
X130726309Y-80685000D01*
X130959698Y-80588327D01*
X131138327Y-80409699D01*
X131235000Y-80176310D01*
X131235000Y-79535750D01*
X131076250Y-79377000D01*
X129727000Y-79377000D01*
X129473000Y-79377000D01*
X128123750Y-79377000D01*
X127965000Y-79535750D01*
X127247440Y-79535750D01*
X127247440Y-79275750D01*
X133915000Y-79275750D01*
X133915000Y-80366309D01*
X134011673Y-80599698D01*
X134190301Y-80778327D01*
X134423690Y-80875000D01*
X135514250Y-80875000D01*
X135673000Y-80716250D01*
X135673000Y-79117000D01*
X135927000Y-79117000D01*
X135927000Y-80716250D01*
X136085750Y-80875000D01*
X137176310Y-80875000D01*
X137409699Y-80778327D01*
X137588327Y-80599698D01*
X137685000Y-80366309D01*
X137685000Y-79275750D01*
X137526250Y-79117000D01*
X135927000Y-79117000D01*
X135673000Y-79117000D01*
X134073750Y-79117000D01*
X133915000Y-79275750D01*
X127247440Y-79275750D01*
X127247440Y-78450000D01*
X127223674Y-78323690D01*
X127965000Y-78323690D01*
X127965000Y-78964250D01*
X128123750Y-79123000D01*
X129473000Y-79123000D01*
X129473000Y-77973750D01*
X129727000Y-77973750D01*
X129727000Y-79123000D01*
X131076250Y-79123000D01*
X131235000Y-78964250D01*
X131235000Y-78323690D01*
X131138327Y-78090301D01*
X130959698Y-77911673D01*
X130726309Y-77815000D01*
X129885750Y-77815000D01*
X129727000Y-77973750D01*
X129473000Y-77973750D01*
X129314250Y-77815000D01*
X128473691Y-77815000D01*
X128240302Y-77911673D01*
X128061673Y-78090301D01*
X127965000Y-78323690D01*
X127223674Y-78323690D01*
X127203162Y-78214683D01*
X127064090Y-77998559D01*
X126851890Y-77853569D01*
X126600000Y-77802560D01*
X124600000Y-77802560D01*
X124364683Y-77846838D01*
X124148559Y-77985910D01*
X124003569Y-78198110D01*
X123952560Y-78450000D01*
X123952560Y-78465000D01*
X123725158Y-78465000D01*
X122886140Y-77625982D01*
X122886140Y-77613691D01*
X133915000Y-77613691D01*
X133915000Y-78704250D01*
X134073750Y-78863000D01*
X135673000Y-78863000D01*
X135673000Y-77263750D01*
X135927000Y-77263750D01*
X135927000Y-78863000D01*
X137526250Y-78863000D01*
X137685000Y-78704250D01*
X137685000Y-77613691D01*
X137588327Y-77380302D01*
X137409699Y-77201673D01*
X137176310Y-77105000D01*
X136085750Y-77105000D01*
X135927000Y-77263750D01*
X135673000Y-77263750D01*
X135514250Y-77105000D01*
X134423690Y-77105000D01*
X134190301Y-77201673D01*
X134011673Y-77380302D01*
X133915000Y-77613691D01*
X122886140Y-77613691D01*
X122886140Y-77297490D01*
X123001570Y-77297490D01*
X123236887Y-77253212D01*
X123453011Y-77114140D01*
X123598001Y-76901940D01*
X123649010Y-76650050D01*
X123649010Y-76209168D01*
X123844921Y-76405079D01*
X124099594Y-76575245D01*
X124400000Y-76635001D01*
X124400005Y-76635000D01*
X128800000Y-76635000D01*
X129100407Y-76575245D01*
X129355079Y-76405079D01*
X130262718Y-75497440D01*
X130800000Y-75497440D01*
X131035317Y-75453162D01*
X131251441Y-75314090D01*
X131396431Y-75101890D01*
X131447440Y-74850000D01*
X131447440Y-74695000D01*
X134084783Y-74695000D01*
X134201043Y-74976372D01*
X134730839Y-75507093D01*
X135423405Y-75794672D01*
X136173305Y-75795326D01*
X136866372Y-75508957D01*
X137397093Y-74979161D01*
X137684672Y-74286595D01*
X137685326Y-73536695D01*
X137398957Y-72843628D01*
X136869161Y-72312907D01*
X136176595Y-72025328D01*
X135426695Y-72024674D01*
X134733628Y-72311043D01*
X134202907Y-72840839D01*
X134084913Y-73125000D01*
X131423920Y-73125000D01*
X131403162Y-73014683D01*
X131285000Y-72831054D01*
X131285000Y-68112630D01*
X131335317Y-68103162D01*
X131551441Y-67964090D01*
X131696431Y-67751890D01*
X131747440Y-67500000D01*
X131747440Y-66600000D01*
X131703162Y-66364683D01*
X131564090Y-66148559D01*
X131351890Y-66003569D01*
X131100000Y-65952560D01*
X129900000Y-65952560D01*
X129664683Y-65996838D01*
X129448559Y-66135910D01*
X129400866Y-66205711D01*
X129364090Y-66148559D01*
X129151890Y-66003569D01*
X129086140Y-65990254D01*
X129086140Y-64097490D01*
X129251570Y-64097490D01*
X129486887Y-64053212D01*
X129703011Y-63914140D01*
X129791249Y-63785000D01*
X136819095Y-63785000D01*
X136830729Y-63843489D01*
X137155585Y-64329670D01*
X137470366Y-64540000D01*
X137155585Y-64750330D01*
X136830729Y-65236511D01*
X136716655Y-65810000D01*
X136830729Y-66383489D01*
X137155585Y-66869670D01*
X137470366Y-67080000D01*
X137155585Y-67290330D01*
X136830729Y-67776511D01*
X136716655Y-68350000D01*
X136830729Y-68923489D01*
X137155585Y-69409670D01*
X137641766Y-69734526D01*
X138215255Y-69848600D01*
X138584745Y-69848600D01*
X139158234Y-69734526D01*
X139644415Y-69409670D01*
X139969271Y-68923489D01*
X140083345Y-68350000D01*
X139969271Y-67776511D01*
X139644415Y-67290330D01*
X139329634Y-67080000D01*
X139644415Y-66869670D01*
X139969271Y-66383489D01*
X140083345Y-65810000D01*
X139969271Y-65236511D01*
X139644415Y-64750330D01*
X139329634Y-64540000D01*
X139644415Y-64329670D01*
X139969271Y-63843489D01*
X140083345Y-63270000D01*
X139969271Y-62696511D01*
X139644415Y-62210330D01*
X139329634Y-62000000D01*
X139644415Y-61789670D01*
X139969271Y-61303489D01*
X140083345Y-60730000D01*
X139969271Y-60156511D01*
X139644415Y-59670330D01*
X139329634Y-59460000D01*
X139644415Y-59249670D01*
X139969271Y-58763489D01*
X140083345Y-58190000D01*
X139969271Y-57616511D01*
X139644415Y-57130330D01*
X139622220Y-57115500D01*
X139775698Y-57051927D01*
X139954327Y-56873299D01*
X140051000Y-56639910D01*
X140051000Y-55935750D01*
X139892250Y-55777000D01*
X138527000Y-55777000D01*
X138527000Y-55797000D01*
X138273000Y-55797000D01*
X138273000Y-55777000D01*
X136907750Y-55777000D01*
X136749000Y-55935750D01*
X136749000Y-56639910D01*
X136845673Y-56873299D01*
X137024302Y-57051927D01*
X137177780Y-57115500D01*
X137155585Y-57130330D01*
X136830729Y-57616511D01*
X136716655Y-58190000D01*
X136830729Y-58763489D01*
X137155585Y-59249670D01*
X137470366Y-59460000D01*
X137155585Y-59670330D01*
X136830729Y-60156511D01*
X136716655Y-60730000D01*
X136830729Y-61303489D01*
X137155585Y-61789670D01*
X137470366Y-62000000D01*
X137155585Y-62210330D01*
X137085647Y-62315000D01*
X129790620Y-62315000D01*
X129715660Y-62198509D01*
X129503460Y-62053519D01*
X129251570Y-62002510D01*
X128157648Y-62002510D01*
X128705079Y-61455079D01*
X128875245Y-61200407D01*
X128935000Y-60900000D01*
X128935000Y-59912630D01*
X128985317Y-59903162D01*
X129201441Y-59764090D01*
X129346431Y-59551890D01*
X129397440Y-59300000D01*
X129397440Y-58400000D01*
X129353162Y-58164683D01*
X129214090Y-57948559D01*
X129001890Y-57803569D01*
X128885000Y-57779898D01*
X128885000Y-56712630D01*
X128935317Y-56703162D01*
X129151441Y-56564090D01*
X129296431Y-56351890D01*
X129347440Y-56100000D01*
X129347440Y-55200000D01*
X129303162Y-54964683D01*
X129164090Y-54748559D01*
X129034612Y-54660090D01*
X136749000Y-54660090D01*
X136749000Y-55364250D01*
X136907750Y-55523000D01*
X138273000Y-55523000D01*
X138273000Y-54310150D01*
X138527000Y-54310150D01*
X138527000Y-55523000D01*
X139892250Y-55523000D01*
X140051000Y-55364250D01*
X140051000Y-54660090D01*
X139954327Y-54426701D01*
X139775698Y-54248073D01*
X139542309Y-54151400D01*
X138685750Y-54151400D01*
X138527000Y-54310150D01*
X138273000Y-54310150D01*
X138114250Y-54151400D01*
X137257691Y-54151400D01*
X137024302Y-54248073D01*
X136845673Y-54426701D01*
X136749000Y-54660090D01*
X129034612Y-54660090D01*
X128951890Y-54603569D01*
X128700000Y-54552560D01*
X127500000Y-54552560D01*
X127264683Y-54596838D01*
X127048559Y-54735910D01*
X127000866Y-54805711D01*
X126964090Y-54748559D01*
X126751890Y-54603569D01*
X126500000Y-54552560D01*
X125300000Y-54552560D01*
X125064683Y-54596838D01*
X124848559Y-54735910D01*
X124703569Y-54948110D01*
X124652560Y-55200000D01*
X124652560Y-55557993D01*
X123880278Y-56330276D01*
X123880277Y-56330277D01*
X123720949Y-56568728D01*
X123665000Y-56850000D01*
X123665000Y-58768432D01*
X123535000Y-58638204D01*
X123535000Y-56850000D01*
X123479051Y-56568728D01*
X123422224Y-56483680D01*
X123319723Y-56330276D01*
X121319723Y-54330277D01*
X121081272Y-54170949D01*
X120800000Y-54115000D01*
X115704447Y-54115000D01*
X114535000Y-52945554D01*
X114535000Y-52641000D01*
X114764250Y-52641000D01*
X114923000Y-52482250D01*
X114923000Y-51294800D01*
X115177000Y-51294800D01*
X115177000Y-52482250D01*
X115335750Y-52641000D01*
X115620809Y-52641000D01*
X115854198Y-52544327D01*
X116032827Y-52365699D01*
X116129500Y-52132310D01*
X116129500Y-51453550D01*
X115970750Y-51294800D01*
X115177000Y-51294800D01*
X114923000Y-51294800D01*
X114903000Y-51294800D01*
X114903000Y-51101819D01*
X114923000Y-51088731D01*
X114923000Y-49853350D01*
X114903000Y-49833350D01*
X114903000Y-49793000D01*
X114923000Y-49793000D01*
X114923000Y-48751269D01*
X115177000Y-48751269D01*
X115177000Y-49793000D01*
X115237350Y-49793000D01*
X115177000Y-49853350D01*
X115177000Y-51088731D01*
X115367609Y-51213462D01*
X115738404Y-51040800D01*
X115970750Y-51040800D01*
X116129500Y-50882050D01*
X116129500Y-50581538D01*
X116264201Y-50239647D01*
X116124863Y-50047000D01*
X116064762Y-50047000D01*
X116032827Y-49969901D01*
X115856772Y-49793846D01*
X116355000Y-49793846D01*
X116355000Y-50046154D01*
X116449009Y-50518768D01*
X116498060Y-50592178D01*
X116498060Y-52006000D01*
X116542338Y-52241317D01*
X116681410Y-52457441D01*
X116893610Y-52602431D01*
X117145500Y-52653440D01*
X118034500Y-52653440D01*
X118269817Y-52609162D01*
X118485941Y-52470090D01*
X118630931Y-52257890D01*
X118681940Y-52006000D01*
X118681940Y-50592178D01*
X118730991Y-50518768D01*
X118825000Y-50046154D01*
X118825000Y-49793846D01*
X118895000Y-49793846D01*
X118895000Y-50046154D01*
X118989009Y-50518768D01*
X119038060Y-50592178D01*
X119038060Y-52006000D01*
X119082338Y-52241317D01*
X119221410Y-52457441D01*
X119433610Y-52602431D01*
X119685500Y-52653440D01*
X120574500Y-52653440D01*
X120809817Y-52609162D01*
X121025941Y-52470090D01*
X121170931Y-52257890D01*
X121221940Y-52006000D01*
X121221940Y-50592178D01*
X121270991Y-50518768D01*
X121365000Y-50046154D01*
X121365000Y-49793846D01*
X121435000Y-49793846D01*
X121435000Y-50046154D01*
X121529009Y-50518768D01*
X121578060Y-50592178D01*
X121578060Y-52006000D01*
X121622338Y-52241317D01*
X121761410Y-52457441D01*
X121973610Y-52602431D01*
X122225500Y-52653440D01*
X123114500Y-52653440D01*
X123349817Y-52609162D01*
X123565941Y-52470090D01*
X123710931Y-52257890D01*
X123761940Y-52006000D01*
X123761940Y-50592178D01*
X123810991Y-50518768D01*
X123905000Y-50046154D01*
X123905000Y-49793846D01*
X123975000Y-49793846D01*
X123975000Y-50046154D01*
X124069009Y-50518768D01*
X124118060Y-50592178D01*
X124118060Y-52006000D01*
X124162338Y-52241317D01*
X124301410Y-52457441D01*
X124513610Y-52602431D01*
X124765500Y-52653440D01*
X125654500Y-52653440D01*
X125889817Y-52609162D01*
X126105941Y-52470090D01*
X126250931Y-52257890D01*
X126301940Y-52006000D01*
X126301940Y-50592178D01*
X126350991Y-50518768D01*
X126445000Y-50046154D01*
X126445000Y-49793846D01*
X126515000Y-49793846D01*
X126515000Y-50046154D01*
X126609009Y-50518768D01*
X126658060Y-50592178D01*
X126658060Y-52006000D01*
X126702338Y-52241317D01*
X126841410Y-52457441D01*
X127053610Y-52602431D01*
X127305500Y-52653440D01*
X128194500Y-52653440D01*
X128429817Y-52609162D01*
X128645941Y-52470090D01*
X128790931Y-52257890D01*
X128841940Y-52006000D01*
X128841940Y-50592178D01*
X128890991Y-50518768D01*
X128985000Y-50046154D01*
X128985000Y-49793846D01*
X128890991Y-49321232D01*
X128623277Y-48920569D01*
X128222614Y-48652855D01*
X127750000Y-48558846D01*
X127277386Y-48652855D01*
X126876723Y-48920569D01*
X126609009Y-49321232D01*
X126515000Y-49793846D01*
X126445000Y-49793846D01*
X126350991Y-49321232D01*
X126083277Y-48920569D01*
X125682614Y-48652855D01*
X125210000Y-48558846D01*
X124737386Y-48652855D01*
X124336723Y-48920569D01*
X124069009Y-49321232D01*
X123975000Y-49793846D01*
X123905000Y-49793846D01*
X123810991Y-49321232D01*
X123543277Y-48920569D01*
X123142614Y-48652855D01*
X122670000Y-48558846D01*
X122197386Y-48652855D01*
X121796723Y-48920569D01*
X121529009Y-49321232D01*
X121435000Y-49793846D01*
X121365000Y-49793846D01*
X121270991Y-49321232D01*
X121003277Y-48920569D01*
X120602614Y-48652855D01*
X120130000Y-48558846D01*
X119657386Y-48652855D01*
X119256723Y-48920569D01*
X118989009Y-49321232D01*
X118895000Y-49793846D01*
X118825000Y-49793846D01*
X118730991Y-49321232D01*
X118463277Y-48920569D01*
X118062614Y-48652855D01*
X117590000Y-48558846D01*
X117117386Y-48652855D01*
X116716723Y-48920569D01*
X116449009Y-49321232D01*
X116355000Y-49793846D01*
X115856772Y-49793846D01*
X115855925Y-49793000D01*
X116124863Y-49793000D01*
X116264201Y-49600353D01*
X116087720Y-49152418D01*
X115753256Y-48806116D01*
X115367609Y-48626538D01*
X115177000Y-48751269D01*
X114923000Y-48751269D01*
X114732391Y-48626538D01*
X114346744Y-48806116D01*
X114272467Y-48883021D01*
X113374645Y-47985199D01*
X113383277Y-47979431D01*
X113650991Y-47578768D01*
X113745000Y-47106154D01*
X113745000Y-46853846D01*
X113650991Y-46381232D01*
X113601940Y-46307822D01*
X113601940Y-45135000D01*
X113958060Y-45135000D01*
X113958060Y-46307822D01*
G36*
X119923336Y-80862328D02*
X119706564Y-81186751D01*
X119706563Y-81186752D01*
X119604282Y-81433681D01*
X119528162Y-81816364D01*
X119528162Y-81883830D01*
X119515000Y-81950000D01*
X119515000Y-91327322D01*
X119300430Y-91283870D01*
X119193000Y-91283870D01*
X119301441Y-91214090D01*
X119446431Y-91001890D01*
X119497440Y-90750000D01*
X119497440Y-89550000D01*
X119453162Y-89314683D01*
X119314090Y-89098559D01*
X119244289Y-89050866D01*
X119301441Y-89014090D01*
X119446431Y-88801890D01*
X119497440Y-88550000D01*
X119497440Y-87350000D01*
X119453162Y-87114683D01*
X119314090Y-86898559D01*
X119101890Y-86753569D01*
X118850000Y-86702560D01*
X117950000Y-86702560D01*
X117714683Y-86746838D01*
X117498559Y-86885910D01*
X117353569Y-87098110D01*
X117329898Y-87215000D01*
X116900000Y-87215000D01*
X116618728Y-87270949D01*
X116380277Y-87430276D01*
X115335000Y-88475554D01*
X115335000Y-88154446D01*
X116319723Y-87169724D01*
X116479051Y-86931272D01*
X116504441Y-86803629D01*
X116535000Y-86650000D01*
X116535000Y-80906527D01*
X116552408Y-80948657D01*
X116899515Y-81296371D01*
X117353266Y-81484785D01*
X117844579Y-81485214D01*
X118298657Y-81297592D01*
X118646371Y-80950485D01*
X118694325Y-80835000D01*
X119950664Y-80835000D01*
X119923336Y-80862328D01*
X119923336Y-80862328D01*
G37*
X119923336Y-80862328D02*
X119706564Y-81186751D01*
X119706563Y-81186752D01*
X119604282Y-81433681D01*
X119528162Y-81816364D01*
X119528162Y-81883830D01*
X119515000Y-81950000D01*
X119515000Y-91327322D01*
X119300430Y-91283870D01*
X119193000Y-91283870D01*
X119301441Y-91214090D01*
X119446431Y-91001890D01*
X119497440Y-90750000D01*
X119497440Y-89550000D01*
X119453162Y-89314683D01*
X119314090Y-89098559D01*
X119244289Y-89050866D01*
X119301441Y-89014090D01*
X119446431Y-88801890D01*
X119497440Y-88550000D01*
X119497440Y-87350000D01*
X119453162Y-87114683D01*
X119314090Y-86898559D01*
X119101890Y-86753569D01*
X118850000Y-86702560D01*
X117950000Y-86702560D01*
X117714683Y-86746838D01*
X117498559Y-86885910D01*
X117353569Y-87098110D01*
X117329898Y-87215000D01*
X116900000Y-87215000D01*
X116618728Y-87270949D01*
X116380277Y-87430276D01*
X115335000Y-88475554D01*
X115335000Y-88154446D01*
X116319723Y-87169724D01*
X116479051Y-86931272D01*
X116504441Y-86803629D01*
X116535000Y-86650000D01*
X116535000Y-80906527D01*
X116552408Y-80948657D01*
X116899515Y-81296371D01*
X117353266Y-81484785D01*
X117844579Y-81485214D01*
X118298657Y-81297592D01*
X118646371Y-80950485D01*
X118694325Y-80835000D01*
X119950664Y-80835000D01*
X119923336Y-80862328D01*
G36*
X117600000Y-77035000D02*
X117684180Y-77035000D01*
X117722180Y-77073000D01*
X118971860Y-77073000D01*
X118971860Y-77053000D01*
X119225860Y-77053000D01*
X119225860Y-77073000D01*
X120475540Y-77073000D01*
X120513540Y-77035000D01*
X120693834Y-77035000D01*
X120736620Y-77101491D01*
X120948820Y-77246481D01*
X121200710Y-77297490D01*
X121316140Y-77297490D01*
X121316140Y-77951140D01*
X121375895Y-78251547D01*
X121546061Y-78506219D01*
X121554842Y-78515000D01*
X117704447Y-78515000D01*
X117335000Y-78145554D01*
X117335000Y-77485750D01*
X117563430Y-77485750D01*
X117563430Y-77726359D01*
X117660103Y-77959748D01*
X117838731Y-78138377D01*
X118072120Y-78235050D01*
X118813110Y-78235050D01*
X118971860Y-78076300D01*
X118971860Y-77327000D01*
X119225860Y-77327000D01*
X119225860Y-78076300D01*
X119384610Y-78235050D01*
X120125600Y-78235050D01*
X120358989Y-78138377D01*
X120537617Y-77959748D01*
X120634290Y-77726359D01*
X120634290Y-77485750D01*
X120475540Y-77327000D01*
X119225860Y-77327000D01*
X118971860Y-77327000D01*
X117722180Y-77327000D01*
X117563430Y-77485750D01*
X117335000Y-77485750D01*
X117335000Y-77050000D01*
X117320976Y-76979498D01*
X117600000Y-77035000D01*
X117600000Y-77035000D01*
G37*
X117600000Y-77035000D02*
X117684180Y-77035000D01*
X117722180Y-77073000D01*
X118971860Y-77073000D01*
X118971860Y-77053000D01*
X119225860Y-77053000D01*
X119225860Y-77073000D01*
X120475540Y-77073000D01*
X120513540Y-77035000D01*
X120693834Y-77035000D01*
X120736620Y-77101491D01*
X120948820Y-77246481D01*
X121200710Y-77297490D01*
X121316140Y-77297490D01*
X121316140Y-77951140D01*
X121375895Y-78251547D01*
X121546061Y-78506219D01*
X121554842Y-78515000D01*
X117704447Y-78515000D01*
X117335000Y-78145554D01*
X117335000Y-77485750D01*
X117563430Y-77485750D01*
X117563430Y-77726359D01*
X117660103Y-77959748D01*
X117838731Y-78138377D01*
X118072120Y-78235050D01*
X118813110Y-78235050D01*
X118971860Y-78076300D01*
X118971860Y-77327000D01*
X119225860Y-77327000D01*
X119225860Y-78076300D01*
X119384610Y-78235050D01*
X120125600Y-78235050D01*
X120358989Y-78138377D01*
X120537617Y-77959748D01*
X120634290Y-77726359D01*
X120634290Y-77485750D01*
X120475540Y-77327000D01*
X119225860Y-77327000D01*
X118971860Y-77327000D01*
X117722180Y-77327000D01*
X117563430Y-77485750D01*
X117335000Y-77485750D01*
X117335000Y-77050000D01*
X117320976Y-76979498D01*
X117600000Y-77035000D01*
G36*
X127616140Y-65968339D02*
X127464683Y-65996838D01*
X127248559Y-66135910D01*
X127103569Y-66348110D01*
X127052560Y-66600000D01*
X127052560Y-67500000D01*
X127096838Y-67735317D01*
X127235910Y-67951441D01*
X127448110Y-68096431D01*
X127700000Y-68147440D01*
X128900000Y-68147440D01*
X129135317Y-68103162D01*
X129351441Y-67964090D01*
X129399134Y-67894289D01*
X129435910Y-67951441D01*
X129648110Y-68096431D01*
X129715000Y-68109977D01*
X129715000Y-72602560D01*
X128800000Y-72602560D01*
X128564683Y-72646838D01*
X128348559Y-72785910D01*
X128203569Y-72998110D01*
X128152560Y-73250000D01*
X128152560Y-74850000D01*
X128193015Y-75065000D01*
X127398263Y-75065000D01*
X127435000Y-74976310D01*
X127435000Y-74335750D01*
X127276250Y-74177000D01*
X125927000Y-74177000D01*
X125927000Y-74197000D01*
X125673000Y-74197000D01*
X125673000Y-74177000D01*
X124323750Y-74177000D01*
X124165000Y-74335750D01*
X124165000Y-74504842D01*
X123955079Y-74294921D01*
X123700407Y-74124755D01*
X123400000Y-74065000D01*
X119548860Y-74065000D01*
X119248453Y-74124755D01*
X119057254Y-74252510D01*
X118198430Y-74252510D01*
X117963113Y-74296788D01*
X117746989Y-74435860D01*
X117601999Y-74648060D01*
X117550990Y-74899950D01*
X117550990Y-75090832D01*
X116585000Y-74124842D01*
X116585000Y-73123690D01*
X124165000Y-73123690D01*
X124165000Y-73764250D01*
X124323750Y-73923000D01*
X125673000Y-73923000D01*
X125673000Y-72773750D01*
X125927000Y-72773750D01*
X125927000Y-73923000D01*
X127276250Y-73923000D01*
X127435000Y-73764250D01*
X127435000Y-73123690D01*
X127338327Y-72890301D01*
X127159698Y-72711673D01*
X126926309Y-72615000D01*
X126085750Y-72615000D01*
X125927000Y-72773750D01*
X125673000Y-72773750D01*
X125514250Y-72615000D01*
X124673691Y-72615000D01*
X124440302Y-72711673D01*
X124261673Y-72890301D01*
X124165000Y-73123690D01*
X116585000Y-73123690D01*
X116585000Y-71984987D01*
X116864383Y-71985231D01*
X117355229Y-71782418D01*
X117731098Y-71407204D01*
X117934768Y-70916713D01*
X117935231Y-70385617D01*
X117732418Y-69894771D01*
X117357204Y-69518902D01*
X116866713Y-69315232D01*
X116335617Y-69314769D01*
X115844771Y-69517582D01*
X115535000Y-69826813D01*
X115535000Y-66850000D01*
X115482654Y-66586843D01*
X115698657Y-66497592D01*
X116046371Y-66150485D01*
X116121565Y-65969398D01*
X116200000Y-65985000D01*
X116339356Y-65985000D01*
X116315180Y-66043223D01*
X116314821Y-66454971D01*
X116472058Y-66835515D01*
X116762954Y-67126919D01*
X117059627Y-67250108D01*
X116764485Y-67372058D01*
X116473081Y-67662954D01*
X116315180Y-68043223D01*
X116314821Y-68454971D01*
X116472058Y-68835515D01*
X116762954Y-69126919D01*
X117143223Y-69284820D01*
X117554971Y-69285179D01*
X117935515Y-69127942D01*
X118226919Y-68837046D01*
X118373183Y-68484802D01*
X118827311Y-68485199D01*
X118972058Y-68835515D01*
X119262954Y-69126919D01*
X119643223Y-69284820D01*
X120054971Y-69285179D01*
X120435515Y-69127942D01*
X120726919Y-68837046D01*
X120884820Y-68456777D01*
X120885179Y-68045029D01*
X120881035Y-68035000D01*
X121400000Y-68035000D01*
X121700407Y-67975245D01*
X121955079Y-67805079D01*
X123725158Y-66035000D01*
X126200000Y-66035000D01*
X126500407Y-65975245D01*
X126755079Y-65805079D01*
X127455076Y-65105081D01*
X127455079Y-65105079D01*
X127616140Y-64864033D01*
X127616140Y-65968339D01*
X127616140Y-65968339D01*
G37*
X127616140Y-65968339D02*
X127464683Y-65996838D01*
X127248559Y-66135910D01*
X127103569Y-66348110D01*
X127052560Y-66600000D01*
X127052560Y-67500000D01*
X127096838Y-67735317D01*
X127235910Y-67951441D01*
X127448110Y-68096431D01*
X127700000Y-68147440D01*
X128900000Y-68147440D01*
X129135317Y-68103162D01*
X129351441Y-67964090D01*
X129399134Y-67894289D01*
X129435910Y-67951441D01*
X129648110Y-68096431D01*
X129715000Y-68109977D01*
X129715000Y-72602560D01*
X128800000Y-72602560D01*
X128564683Y-72646838D01*
X128348559Y-72785910D01*
X128203569Y-72998110D01*
X128152560Y-73250000D01*
X128152560Y-74850000D01*
X128193015Y-75065000D01*
X127398263Y-75065000D01*
X127435000Y-74976310D01*
X127435000Y-74335750D01*
X127276250Y-74177000D01*
X125927000Y-74177000D01*
X125927000Y-74197000D01*
X125673000Y-74197000D01*
X125673000Y-74177000D01*
X124323750Y-74177000D01*
X124165000Y-74335750D01*
X124165000Y-74504842D01*
X123955079Y-74294921D01*
X123700407Y-74124755D01*
X123400000Y-74065000D01*
X119548860Y-74065000D01*
X119248453Y-74124755D01*
X119057254Y-74252510D01*
X118198430Y-74252510D01*
X117963113Y-74296788D01*
X117746989Y-74435860D01*
X117601999Y-74648060D01*
X117550990Y-74899950D01*
X117550990Y-75090832D01*
X116585000Y-74124842D01*
X116585000Y-73123690D01*
X124165000Y-73123690D01*
X124165000Y-73764250D01*
X124323750Y-73923000D01*
X125673000Y-73923000D01*
X125673000Y-72773750D01*
X125927000Y-72773750D01*
X125927000Y-73923000D01*
X127276250Y-73923000D01*
X127435000Y-73764250D01*
X127435000Y-73123690D01*
X127338327Y-72890301D01*
X127159698Y-72711673D01*
X126926309Y-72615000D01*
X126085750Y-72615000D01*
X125927000Y-72773750D01*
X125673000Y-72773750D01*
X125514250Y-72615000D01*
X124673691Y-72615000D01*
X124440302Y-72711673D01*
X124261673Y-72890301D01*
X124165000Y-73123690D01*
X116585000Y-73123690D01*
X116585000Y-71984987D01*
X116864383Y-71985231D01*
X117355229Y-71782418D01*
X117731098Y-71407204D01*
X117934768Y-70916713D01*
X117935231Y-70385617D01*
X117732418Y-69894771D01*
X117357204Y-69518902D01*
X116866713Y-69315232D01*
X116335617Y-69314769D01*
X115844771Y-69517582D01*
X115535000Y-69826813D01*
X115535000Y-66850000D01*
X115482654Y-66586843D01*
X115698657Y-66497592D01*
X116046371Y-66150485D01*
X116121565Y-65969398D01*
X116200000Y-65985000D01*
X116339356Y-65985000D01*
X116315180Y-66043223D01*
X116314821Y-66454971D01*
X116472058Y-66835515D01*
X116762954Y-67126919D01*
X117059627Y-67250108D01*
X116764485Y-67372058D01*
X116473081Y-67662954D01*
X116315180Y-68043223D01*
X116314821Y-68454971D01*
X116472058Y-68835515D01*
X116762954Y-69126919D01*
X117143223Y-69284820D01*
X117554971Y-69285179D01*
X117935515Y-69127942D01*
X118226919Y-68837046D01*
X118373183Y-68484802D01*
X118827311Y-68485199D01*
X118972058Y-68835515D01*
X119262954Y-69126919D01*
X119643223Y-69284820D01*
X120054971Y-69285179D01*
X120435515Y-69127942D01*
X120726919Y-68837046D01*
X120884820Y-68456777D01*
X120885179Y-68045029D01*
X120881035Y-68035000D01*
X121400000Y-68035000D01*
X121700407Y-67975245D01*
X121955079Y-67805079D01*
X123725158Y-66035000D01*
X126200000Y-66035000D01*
X126500407Y-65975245D01*
X126755079Y-65805079D01*
X127455076Y-65105081D01*
X127455079Y-65105079D01*
X127616140Y-64864033D01*
X127616140Y-65968339D01*
G36*
X107260910Y-71151441D02*
X107391245Y-71240495D01*
X107485750Y-71335000D01*
X107601310Y-71335000D01*
X107621753Y-71326532D01*
X107725000Y-71347440D01*
X108084382Y-71347440D01*
X108120751Y-71530276D01*
X108120949Y-71531272D01*
X108280277Y-71769723D01*
X108680276Y-72169723D01*
X108918727Y-72329051D01*
X108948635Y-72335000D01*
X109200000Y-72385000D01*
X110065000Y-72385000D01*
X110065000Y-72647448D01*
X109926309Y-72590000D01*
X109335750Y-72590000D01*
X109177000Y-72748750D01*
X109177000Y-73723000D01*
X109197000Y-73723000D01*
X109197000Y-73977000D01*
X109177000Y-73977000D01*
X109177000Y-73997000D01*
X108923000Y-73997000D01*
X108923000Y-73977000D01*
X108903000Y-73977000D01*
X108903000Y-73723000D01*
X108923000Y-73723000D01*
X108923000Y-72748750D01*
X108764250Y-72590000D01*
X108173691Y-72590000D01*
X107940302Y-72686673D01*
X107799064Y-72827910D01*
X107764090Y-72773559D01*
X107551890Y-72628569D01*
X107300000Y-72577560D01*
X107135000Y-72577560D01*
X107135000Y-71151563D01*
X107199884Y-71056603D01*
X107260910Y-71151441D01*
X107260910Y-71151441D01*
G37*
X107260910Y-71151441D02*
X107391245Y-71240495D01*
X107485750Y-71335000D01*
X107601310Y-71335000D01*
X107621753Y-71326532D01*
X107725000Y-71347440D01*
X108084382Y-71347440D01*
X108120751Y-71530276D01*
X108120949Y-71531272D01*
X108280277Y-71769723D01*
X108680276Y-72169723D01*
X108918727Y-72329051D01*
X108948635Y-72335000D01*
X109200000Y-72385000D01*
X110065000Y-72385000D01*
X110065000Y-72647448D01*
X109926309Y-72590000D01*
X109335750Y-72590000D01*
X109177000Y-72748750D01*
X109177000Y-73723000D01*
X109197000Y-73723000D01*
X109197000Y-73977000D01*
X109177000Y-73977000D01*
X109177000Y-73997000D01*
X108923000Y-73997000D01*
X108923000Y-73977000D01*
X108903000Y-73977000D01*
X108903000Y-73723000D01*
X108923000Y-73723000D01*
X108923000Y-72748750D01*
X108764250Y-72590000D01*
X108173691Y-72590000D01*
X107940302Y-72686673D01*
X107799064Y-72827910D01*
X107764090Y-72773559D01*
X107551890Y-72628569D01*
X107300000Y-72577560D01*
X107135000Y-72577560D01*
X107135000Y-71151563D01*
X107199884Y-71056603D01*
X107260910Y-71151441D01*
G36*
X107552408Y-65948657D02*
X107899515Y-66296371D01*
X108353266Y-66484785D01*
X108844579Y-66485214D01*
X109065000Y-66394138D01*
X109065000Y-67105847D01*
X108846734Y-67015215D01*
X108355421Y-67014786D01*
X107901343Y-67202408D01*
X107553629Y-67549515D01*
X107365215Y-68003266D01*
X107364786Y-68494579D01*
X107391505Y-68559245D01*
X107389349Y-68561401D01*
X107273559Y-68635910D01*
X107200116Y-68743397D01*
X107139090Y-68648559D01*
X107008755Y-68559505D01*
X106914250Y-68465000D01*
X106798690Y-68465000D01*
X106778247Y-68473468D01*
X106675000Y-68452560D01*
X106335000Y-68452560D01*
X106335000Y-68365214D01*
X106498657Y-68297592D01*
X106846371Y-67950485D01*
X107034785Y-67496734D01*
X107035214Y-67005421D01*
X106847592Y-66551343D01*
X106618289Y-66321639D01*
X106955229Y-66182418D01*
X107331098Y-65807204D01*
X107412730Y-65610612D01*
X107552408Y-65948657D01*
X107552408Y-65948657D01*
G37*
X107552408Y-65948657D02*
X107899515Y-66296371D01*
X108353266Y-66484785D01*
X108844579Y-66485214D01*
X109065000Y-66394138D01*
X109065000Y-67105847D01*
X108846734Y-67015215D01*
X108355421Y-67014786D01*
X107901343Y-67202408D01*
X107553629Y-67549515D01*
X107365215Y-68003266D01*
X107364786Y-68494579D01*
X107391505Y-68559245D01*
X107389349Y-68561401D01*
X107273559Y-68635910D01*
X107200116Y-68743397D01*
X107139090Y-68648559D01*
X107008755Y-68559505D01*
X106914250Y-68465000D01*
X106798690Y-68465000D01*
X106778247Y-68473468D01*
X106675000Y-68452560D01*
X106335000Y-68452560D01*
X106335000Y-68365214D01*
X106498657Y-68297592D01*
X106846371Y-67950485D01*
X107034785Y-67496734D01*
X107035214Y-67005421D01*
X106847592Y-66551343D01*
X106618289Y-66321639D01*
X106955229Y-66182418D01*
X107331098Y-65807204D01*
X107412730Y-65610612D01*
X107552408Y-65948657D01*
G36*
X101371838Y-58485317D02*
X101510910Y-58701441D01*
X101723110Y-58846431D01*
X101975000Y-58897440D01*
X103225000Y-58897440D01*
X103460317Y-58853162D01*
X103676441Y-58714090D01*
X103821431Y-58501890D01*
X103865352Y-58285000D01*
X103924842Y-58285000D01*
X103946061Y-58306219D01*
X104200734Y-58476385D01*
X104501140Y-58536141D01*
X104501145Y-58536140D01*
X105152460Y-58536140D01*
X105152460Y-58850960D01*
X105196738Y-59086277D01*
X105335810Y-59302401D01*
X105548010Y-59447391D01*
X105799900Y-59498400D01*
X106415000Y-59498400D01*
X106415000Y-60221614D01*
X106400116Y-60243397D01*
X106339090Y-60148559D01*
X106208755Y-60059505D01*
X106114250Y-59965000D01*
X105998690Y-59965000D01*
X105978247Y-59973468D01*
X105875000Y-59952560D01*
X105334613Y-59952560D01*
X105319723Y-59930276D01*
X104919723Y-59530277D01*
X104681272Y-59370949D01*
X104400000Y-59315000D01*
X102400000Y-59315000D01*
X102375695Y-59319835D01*
X102351890Y-59303569D01*
X102100000Y-59252560D01*
X101500000Y-59252560D01*
X101264683Y-59296838D01*
X101201432Y-59337539D01*
X101026309Y-59265000D01*
X100885750Y-59265000D01*
X100727000Y-59423750D01*
X100727000Y-60523000D01*
X100747000Y-60523000D01*
X100747000Y-60777000D01*
X100727000Y-60777000D01*
X100727000Y-60797000D01*
X100473000Y-60797000D01*
X100473000Y-60777000D01*
X100453000Y-60777000D01*
X100453000Y-60523000D01*
X100473000Y-60523000D01*
X100473000Y-59423750D01*
X100314250Y-59265000D01*
X100173691Y-59265000D01*
X100000459Y-59336755D01*
X99951890Y-59303569D01*
X99700000Y-59252560D01*
X99100000Y-59252560D01*
X98864683Y-59296838D01*
X98648559Y-59435910D01*
X98503569Y-59648110D01*
X98452560Y-59900000D01*
X98452560Y-61400000D01*
X98496838Y-61635317D01*
X98635910Y-61851441D01*
X98715948Y-61906128D01*
X98718652Y-61919723D01*
X98720949Y-61931272D01*
X98862048Y-62142441D01*
X98718728Y-62170949D01*
X98480276Y-62330277D01*
X97280277Y-63530277D01*
X97120949Y-63768728D01*
X97065000Y-64050000D01*
X97065000Y-65822800D01*
X97046734Y-65815215D01*
X96897440Y-65815085D01*
X96897440Y-64950000D01*
X96853162Y-64714683D01*
X96714090Y-64498559D01*
X96644289Y-64450866D01*
X96701441Y-64414090D01*
X96846431Y-64201890D01*
X96897440Y-63950000D01*
X96897440Y-62750000D01*
X96853162Y-62514683D01*
X96714090Y-62298559D01*
X96585000Y-62210356D01*
X96585000Y-60375158D01*
X98675158Y-58285000D01*
X101334146Y-58285000D01*
X101371838Y-58485317D01*
X101371838Y-58485317D01*
G37*
X101371838Y-58485317D02*
X101510910Y-58701441D01*
X101723110Y-58846431D01*
X101975000Y-58897440D01*
X103225000Y-58897440D01*
X103460317Y-58853162D01*
X103676441Y-58714090D01*
X103821431Y-58501890D01*
X103865352Y-58285000D01*
X103924842Y-58285000D01*
X103946061Y-58306219D01*
X104200734Y-58476385D01*
X104501140Y-58536141D01*
X104501145Y-58536140D01*
X105152460Y-58536140D01*
X105152460Y-58850960D01*
X105196738Y-59086277D01*
X105335810Y-59302401D01*
X105548010Y-59447391D01*
X105799900Y-59498400D01*
X106415000Y-59498400D01*
X106415000Y-60221614D01*
X106400116Y-60243397D01*
X106339090Y-60148559D01*
X106208755Y-60059505D01*
X106114250Y-59965000D01*
X105998690Y-59965000D01*
X105978247Y-59973468D01*
X105875000Y-59952560D01*
X105334613Y-59952560D01*
X105319723Y-59930276D01*
X104919723Y-59530277D01*
X104681272Y-59370949D01*
X104400000Y-59315000D01*
X102400000Y-59315000D01*
X102375695Y-59319835D01*
X102351890Y-59303569D01*
X102100000Y-59252560D01*
X101500000Y-59252560D01*
X101264683Y-59296838D01*
X101201432Y-59337539D01*
X101026309Y-59265000D01*
X100885750Y-59265000D01*
X100727000Y-59423750D01*
X100727000Y-60523000D01*
X100747000Y-60523000D01*
X100747000Y-60777000D01*
X100727000Y-60777000D01*
X100727000Y-60797000D01*
X100473000Y-60797000D01*
X100473000Y-60777000D01*
X100453000Y-60777000D01*
X100453000Y-60523000D01*
X100473000Y-60523000D01*
X100473000Y-59423750D01*
X100314250Y-59265000D01*
X100173691Y-59265000D01*
X100000459Y-59336755D01*
X99951890Y-59303569D01*
X99700000Y-59252560D01*
X99100000Y-59252560D01*
X98864683Y-59296838D01*
X98648559Y-59435910D01*
X98503569Y-59648110D01*
X98452560Y-59900000D01*
X98452560Y-61400000D01*
X98496838Y-61635317D01*
X98635910Y-61851441D01*
X98715948Y-61906128D01*
X98718652Y-61919723D01*
X98720949Y-61931272D01*
X98862048Y-62142441D01*
X98718728Y-62170949D01*
X98480276Y-62330277D01*
X97280277Y-63530277D01*
X97120949Y-63768728D01*
X97065000Y-64050000D01*
X97065000Y-65822800D01*
X97046734Y-65815215D01*
X96897440Y-65815085D01*
X96897440Y-64950000D01*
X96853162Y-64714683D01*
X96714090Y-64498559D01*
X96644289Y-64450866D01*
X96701441Y-64414090D01*
X96846431Y-64201890D01*
X96897440Y-63950000D01*
X96897440Y-62750000D01*
X96853162Y-62514683D01*
X96714090Y-62298559D01*
X96585000Y-62210356D01*
X96585000Y-60375158D01*
X98675158Y-58285000D01*
X101334146Y-58285000D01*
X101371838Y-58485317D01*
G36*
X121392611Y-57282058D02*
X121101343Y-57402408D01*
X120760317Y-57742839D01*
X120727942Y-57664485D01*
X120437046Y-57373081D01*
X120056777Y-57215180D01*
X119645029Y-57214821D01*
X119264485Y-57372058D01*
X118973081Y-57662954D01*
X118815180Y-58043223D01*
X118814821Y-58454971D01*
X118972058Y-58835515D01*
X119262954Y-59126919D01*
X119559627Y-59250108D01*
X119264485Y-59372058D01*
X118973081Y-59662954D01*
X118815180Y-60043223D01*
X118814821Y-60454971D01*
X118972058Y-60835515D01*
X119262954Y-61126919D01*
X119559627Y-61250108D01*
X119264485Y-61372058D01*
X118973081Y-61662954D01*
X118826817Y-62015198D01*
X118372689Y-62014801D01*
X118227942Y-61664485D01*
X117937046Y-61373081D01*
X117640373Y-61249892D01*
X117935515Y-61127942D01*
X118226919Y-60837046D01*
X118384820Y-60456777D01*
X118385179Y-60045029D01*
X118227942Y-59664485D01*
X117937046Y-59373081D01*
X117640373Y-59249892D01*
X117935515Y-59127942D01*
X118226919Y-58837046D01*
X118384820Y-58456777D01*
X118385179Y-58045029D01*
X118227942Y-57664485D01*
X117937046Y-57373081D01*
X117556777Y-57215180D01*
X117145029Y-57214821D01*
X116764485Y-57372058D01*
X116473081Y-57662954D01*
X116315180Y-58043223D01*
X116314821Y-58454971D01*
X116472058Y-58835515D01*
X116762954Y-59126919D01*
X117059627Y-59250108D01*
X116764485Y-59372058D01*
X116473081Y-59662954D01*
X116315180Y-60043223D01*
X116314821Y-60454971D01*
X116472058Y-60835515D01*
X116762954Y-61126919D01*
X117059627Y-61250108D01*
X116764485Y-61372058D01*
X116473081Y-61662954D01*
X116381022Y-61884657D01*
X116100485Y-61603629D01*
X115646734Y-61415215D01*
X115275048Y-61414890D01*
X111915902Y-58055744D01*
X112298657Y-57897592D01*
X112611796Y-57585000D01*
X112800000Y-57585000D01*
X113081272Y-57529051D01*
X113319723Y-57369723D01*
X114504446Y-56185000D01*
X120295554Y-56185000D01*
X121392611Y-57282058D01*
X121392611Y-57282058D01*
G37*
X121392611Y-57282058D02*
X121101343Y-57402408D01*
X120760317Y-57742839D01*
X120727942Y-57664485D01*
X120437046Y-57373081D01*
X120056777Y-57215180D01*
X119645029Y-57214821D01*
X119264485Y-57372058D01*
X118973081Y-57662954D01*
X118815180Y-58043223D01*
X118814821Y-58454971D01*
X118972058Y-58835515D01*
X119262954Y-59126919D01*
X119559627Y-59250108D01*
X119264485Y-59372058D01*
X118973081Y-59662954D01*
X118815180Y-60043223D01*
X118814821Y-60454971D01*
X118972058Y-60835515D01*
X119262954Y-61126919D01*
X119559627Y-61250108D01*
X119264485Y-61372058D01*
X118973081Y-61662954D01*
X118826817Y-62015198D01*
X118372689Y-62014801D01*
X118227942Y-61664485D01*
X117937046Y-61373081D01*
X117640373Y-61249892D01*
X117935515Y-61127942D01*
X118226919Y-60837046D01*
X118384820Y-60456777D01*
X118385179Y-60045029D01*
X118227942Y-59664485D01*
X117937046Y-59373081D01*
X117640373Y-59249892D01*
X117935515Y-59127942D01*
X118226919Y-58837046D01*
X118384820Y-58456777D01*
X118385179Y-58045029D01*
X118227942Y-57664485D01*
X117937046Y-57373081D01*
X117556777Y-57215180D01*
X117145029Y-57214821D01*
X116764485Y-57372058D01*
X116473081Y-57662954D01*
X116315180Y-58043223D01*
X116314821Y-58454971D01*
X116472058Y-58835515D01*
X116762954Y-59126919D01*
X117059627Y-59250108D01*
X116764485Y-59372058D01*
X116473081Y-59662954D01*
X116315180Y-60043223D01*
X116314821Y-60454971D01*
X116472058Y-60835515D01*
X116762954Y-61126919D01*
X117059627Y-61250108D01*
X116764485Y-61372058D01*
X116473081Y-61662954D01*
X116381022Y-61884657D01*
X116100485Y-61603629D01*
X115646734Y-61415215D01*
X115275048Y-61414890D01*
X111915902Y-58055744D01*
X112298657Y-57897592D01*
X112611796Y-57585000D01*
X112800000Y-57585000D01*
X113081272Y-57529051D01*
X113319723Y-57369723D01*
X114504446Y-56185000D01*
X120295554Y-56185000D01*
X121392611Y-57282058D01*
G36*
X88570500Y-45446450D02*
X88729250Y-45605200D01*
X89523000Y-45605200D01*
X89523000Y-45585200D01*
X89777000Y-45585200D01*
X89777000Y-45605200D01*
X90570750Y-45605200D01*
X90729500Y-45446450D01*
X90729500Y-45135000D01*
X91098060Y-45135000D01*
X91098060Y-46307822D01*
X91049009Y-46381232D01*
X90955000Y-46853846D01*
X90955000Y-47106154D01*
X91049009Y-47578768D01*
X91316723Y-47979431D01*
X91717386Y-48247145D01*
X92190000Y-48341154D01*
X92662614Y-48247145D01*
X93063277Y-47979431D01*
X93073975Y-47963421D01*
X93972664Y-48862110D01*
X93692280Y-49152418D01*
X93515799Y-49600353D01*
X93655137Y-49793000D01*
X93924075Y-49793000D01*
X93747173Y-49969901D01*
X93715238Y-50047000D01*
X93655137Y-50047000D01*
X93515799Y-50239647D01*
X93650500Y-50581538D01*
X93650500Y-50882050D01*
X93809250Y-51040800D01*
X94041596Y-51040800D01*
X94412391Y-51213462D01*
X94603000Y-51088731D01*
X94603000Y-49853350D01*
X94542650Y-49793000D01*
X94603000Y-49793000D01*
X94603000Y-49773000D01*
X94857000Y-49773000D01*
X94857000Y-49793000D01*
X94917350Y-49793000D01*
X94857000Y-49853350D01*
X94857000Y-51088731D01*
X95047609Y-51213462D01*
X95418404Y-51040800D01*
X95650750Y-51040800D01*
X95809500Y-50882050D01*
X95809500Y-50581538D01*
X95944201Y-50239647D01*
X95804863Y-50047000D01*
X95744762Y-50047000D01*
X95712827Y-49969901D01*
X95535925Y-49793000D01*
X95804863Y-49793000D01*
X95944201Y-49600353D01*
X95859355Y-49385000D01*
X96116325Y-49385000D01*
X96035000Y-49793846D01*
X96035000Y-50046154D01*
X96129009Y-50518768D01*
X96178060Y-50592178D01*
X96178060Y-52006000D01*
X96189162Y-52065000D01*
X95809500Y-52065000D01*
X95809500Y-51453550D01*
X95650750Y-51294800D01*
X94857000Y-51294800D01*
X94857000Y-51314800D01*
X94603000Y-51314800D01*
X94603000Y-51294800D01*
X93809250Y-51294800D01*
X93650500Y-51453550D01*
X93650500Y-52065000D01*
X93269992Y-52065000D01*
X93281940Y-52006000D01*
X93281940Y-50592178D01*
X93330991Y-50518768D01*
X93425000Y-50046154D01*
X93425000Y-49793846D01*
X93330991Y-49321232D01*
X93063277Y-48920569D01*
X92662614Y-48652855D01*
X92190000Y-48558846D01*
X91717386Y-48652855D01*
X91316723Y-48920569D01*
X91049009Y-49321232D01*
X90955000Y-49793846D01*
X90955000Y-50046154D01*
X91049009Y-50518768D01*
X91098060Y-50592178D01*
X91098060Y-52006000D01*
X91109162Y-52065000D01*
X90729992Y-52065000D01*
X90741940Y-52006000D01*
X90741940Y-50592178D01*
X90790991Y-50518768D01*
X90885000Y-50046154D01*
X90885000Y-49793846D01*
X90790991Y-49321232D01*
X90523277Y-48920569D01*
X90122614Y-48652855D01*
X89650000Y-48558846D01*
X89177386Y-48652855D01*
X88776723Y-48920569D01*
X88509009Y-49321232D01*
X88415000Y-49793846D01*
X88415000Y-50046154D01*
X88509009Y-50518768D01*
X88558060Y-50592178D01*
X88558060Y-52006000D01*
X88569162Y-52065000D01*
X88189992Y-52065000D01*
X88201940Y-52006000D01*
X88201940Y-50592178D01*
X88250991Y-50518768D01*
X88345000Y-50046154D01*
X88345000Y-49793846D01*
X88250991Y-49321232D01*
X87983277Y-48920569D01*
X87582614Y-48652855D01*
X87363862Y-48609342D01*
X87364140Y-48290602D01*
X87582614Y-48247145D01*
X87983277Y-47979431D01*
X88250991Y-47578768D01*
X88345000Y-47106154D01*
X88345000Y-46853846D01*
X88306512Y-46660353D01*
X88435799Y-46660353D01*
X88575137Y-46853000D01*
X88635238Y-46853000D01*
X88667173Y-46930099D01*
X88844075Y-47107000D01*
X88575137Y-47107000D01*
X88435799Y-47299647D01*
X88612280Y-47747582D01*
X88946744Y-48093884D01*
X89332391Y-48273462D01*
X89523000Y-48148731D01*
X89523000Y-47107000D01*
X89462650Y-47107000D01*
X89523000Y-47046650D01*
X89523000Y-45811269D01*
X89777000Y-45811269D01*
X89777000Y-47046650D01*
X89837350Y-47107000D01*
X89777000Y-47107000D01*
X89777000Y-48148731D01*
X89967609Y-48273462D01*
X90353256Y-48093884D01*
X90687720Y-47747582D01*
X90864201Y-47299647D01*
X90724863Y-47107000D01*
X90455925Y-47107000D01*
X90632827Y-46930099D01*
X90664762Y-46853000D01*
X90724863Y-46853000D01*
X90864201Y-46660353D01*
X90729500Y-46318462D01*
X90729500Y-46017950D01*
X90570750Y-45859200D01*
X90338404Y-45859200D01*
X89967609Y-45686538D01*
X89777000Y-45811269D01*
X89523000Y-45811269D01*
X89332391Y-45686538D01*
X88961596Y-45859200D01*
X88729250Y-45859200D01*
X88570500Y-46017950D01*
X88570500Y-46318462D01*
X88435799Y-46660353D01*
X88306512Y-46660353D01*
X88250991Y-46381232D01*
X88201940Y-46307822D01*
X88201940Y-45135000D01*
X88570500Y-45135000D01*
X88570500Y-45446450D01*
X88570500Y-45446450D01*
G37*
X88570500Y-45446450D02*
X88729250Y-45605200D01*
X89523000Y-45605200D01*
X89523000Y-45585200D01*
X89777000Y-45585200D01*
X89777000Y-45605200D01*
X90570750Y-45605200D01*
X90729500Y-45446450D01*
X90729500Y-45135000D01*
X91098060Y-45135000D01*
X91098060Y-46307822D01*
X91049009Y-46381232D01*
X90955000Y-46853846D01*
X90955000Y-47106154D01*
X91049009Y-47578768D01*
X91316723Y-47979431D01*
X91717386Y-48247145D01*
X92190000Y-48341154D01*
X92662614Y-48247145D01*
X93063277Y-47979431D01*
X93073975Y-47963421D01*
X93972664Y-48862110D01*
X93692280Y-49152418D01*
X93515799Y-49600353D01*
X93655137Y-49793000D01*
X93924075Y-49793000D01*
X93747173Y-49969901D01*
X93715238Y-50047000D01*
X93655137Y-50047000D01*
X93515799Y-50239647D01*
X93650500Y-50581538D01*
X93650500Y-50882050D01*
X93809250Y-51040800D01*
X94041596Y-51040800D01*
X94412391Y-51213462D01*
X94603000Y-51088731D01*
X94603000Y-49853350D01*
X94542650Y-49793000D01*
X94603000Y-49793000D01*
X94603000Y-49773000D01*
X94857000Y-49773000D01*
X94857000Y-49793000D01*
X94917350Y-49793000D01*
X94857000Y-49853350D01*
X94857000Y-51088731D01*
X95047609Y-51213462D01*
X95418404Y-51040800D01*
X95650750Y-51040800D01*
X95809500Y-50882050D01*
X95809500Y-50581538D01*
X95944201Y-50239647D01*
X95804863Y-50047000D01*
X95744762Y-50047000D01*
X95712827Y-49969901D01*
X95535925Y-49793000D01*
X95804863Y-49793000D01*
X95944201Y-49600353D01*
X95859355Y-49385000D01*
X96116325Y-49385000D01*
X96035000Y-49793846D01*
X96035000Y-50046154D01*
X96129009Y-50518768D01*
X96178060Y-50592178D01*
X96178060Y-52006000D01*
X96189162Y-52065000D01*
X95809500Y-52065000D01*
X95809500Y-51453550D01*
X95650750Y-51294800D01*
X94857000Y-51294800D01*
X94857000Y-51314800D01*
X94603000Y-51314800D01*
X94603000Y-51294800D01*
X93809250Y-51294800D01*
X93650500Y-51453550D01*
X93650500Y-52065000D01*
X93269992Y-52065000D01*
X93281940Y-52006000D01*
X93281940Y-50592178D01*
X93330991Y-50518768D01*
X93425000Y-50046154D01*
X93425000Y-49793846D01*
X93330991Y-49321232D01*
X93063277Y-48920569D01*
X92662614Y-48652855D01*
X92190000Y-48558846D01*
X91717386Y-48652855D01*
X91316723Y-48920569D01*
X91049009Y-49321232D01*
X90955000Y-49793846D01*
X90955000Y-50046154D01*
X91049009Y-50518768D01*
X91098060Y-50592178D01*
X91098060Y-52006000D01*
X91109162Y-52065000D01*
X90729992Y-52065000D01*
X90741940Y-52006000D01*
X90741940Y-50592178D01*
X90790991Y-50518768D01*
X90885000Y-50046154D01*
X90885000Y-49793846D01*
X90790991Y-49321232D01*
X90523277Y-48920569D01*
X90122614Y-48652855D01*
X89650000Y-48558846D01*
X89177386Y-48652855D01*
X88776723Y-48920569D01*
X88509009Y-49321232D01*
X88415000Y-49793846D01*
X88415000Y-50046154D01*
X88509009Y-50518768D01*
X88558060Y-50592178D01*
X88558060Y-52006000D01*
X88569162Y-52065000D01*
X88189992Y-52065000D01*
X88201940Y-52006000D01*
X88201940Y-50592178D01*
X88250991Y-50518768D01*
X88345000Y-50046154D01*
X88345000Y-49793846D01*
X88250991Y-49321232D01*
X87983277Y-48920569D01*
X87582614Y-48652855D01*
X87363862Y-48609342D01*
X87364140Y-48290602D01*
X87582614Y-48247145D01*
X87983277Y-47979431D01*
X88250991Y-47578768D01*
X88345000Y-47106154D01*
X88345000Y-46853846D01*
X88306512Y-46660353D01*
X88435799Y-46660353D01*
X88575137Y-46853000D01*
X88635238Y-46853000D01*
X88667173Y-46930099D01*
X88844075Y-47107000D01*
X88575137Y-47107000D01*
X88435799Y-47299647D01*
X88612280Y-47747582D01*
X88946744Y-48093884D01*
X89332391Y-48273462D01*
X89523000Y-48148731D01*
X89523000Y-47107000D01*
X89462650Y-47107000D01*
X89523000Y-47046650D01*
X89523000Y-45811269D01*
X89777000Y-45811269D01*
X89777000Y-47046650D01*
X89837350Y-47107000D01*
X89777000Y-47107000D01*
X89777000Y-48148731D01*
X89967609Y-48273462D01*
X90353256Y-48093884D01*
X90687720Y-47747582D01*
X90864201Y-47299647D01*
X90724863Y-47107000D01*
X90455925Y-47107000D01*
X90632827Y-46930099D01*
X90664762Y-46853000D01*
X90724863Y-46853000D01*
X90864201Y-46660353D01*
X90729500Y-46318462D01*
X90729500Y-46017950D01*
X90570750Y-45859200D01*
X90338404Y-45859200D01*
X89967609Y-45686538D01*
X89777000Y-45811269D01*
X89523000Y-45811269D01*
X89332391Y-45686538D01*
X88961596Y-45859200D01*
X88729250Y-45859200D01*
X88570500Y-46017950D01*
X88570500Y-46318462D01*
X88435799Y-46660353D01*
X88306512Y-46660353D01*
X88250991Y-46381232D01*
X88201940Y-46307822D01*
X88201940Y-45135000D01*
X88570500Y-45135000D01*
X88570500Y-45446450D01*
G36*
X98730500Y-45446450D02*
X98889250Y-45605200D01*
X99683000Y-45605200D01*
X99683000Y-45585200D01*
X99937000Y-45585200D01*
X99937000Y-45605200D01*
X100730750Y-45605200D01*
X100889500Y-45446450D01*
X100889500Y-45135000D01*
X101258060Y-45135000D01*
X101258060Y-46307822D01*
X101209009Y-46381232D01*
X101115000Y-46853846D01*
X101115000Y-47106154D01*
X101156542Y-47315000D01*
X101018152Y-47315000D01*
X101024201Y-47299647D01*
X100884863Y-47107000D01*
X100615925Y-47107000D01*
X100792827Y-46930099D01*
X100824762Y-46853000D01*
X100884863Y-46853000D01*
X101024201Y-46660353D01*
X100889500Y-46318462D01*
X100889500Y-46017950D01*
X100730750Y-45859200D01*
X100498404Y-45859200D01*
X100127609Y-45686538D01*
X99937000Y-45811269D01*
X99937000Y-47046650D01*
X99997350Y-47107000D01*
X99937000Y-47107000D01*
X99937000Y-47127000D01*
X99683000Y-47127000D01*
X99683000Y-47107000D01*
X99622650Y-47107000D01*
X99683000Y-47046650D01*
X99683000Y-45811269D01*
X99492391Y-45686538D01*
X99121596Y-45859200D01*
X98889250Y-45859200D01*
X98730500Y-46017950D01*
X98730500Y-46318462D01*
X98595799Y-46660353D01*
X98735137Y-46853000D01*
X98795238Y-46853000D01*
X98827173Y-46930099D01*
X99004075Y-47107000D01*
X98735137Y-47107000D01*
X98595799Y-47299647D01*
X98601848Y-47315000D01*
X98463458Y-47315000D01*
X98505000Y-47106154D01*
X98505000Y-46853846D01*
X98410991Y-46381232D01*
X98361940Y-46307822D01*
X98361940Y-45135000D01*
X98730500Y-45135000D01*
X98730500Y-45446450D01*
X98730500Y-45446450D01*
G37*
X98730500Y-45446450D02*
X98889250Y-45605200D01*
X99683000Y-45605200D01*
X99683000Y-45585200D01*
X99937000Y-45585200D01*
X99937000Y-45605200D01*
X100730750Y-45605200D01*
X100889500Y-45446450D01*
X100889500Y-45135000D01*
X101258060Y-45135000D01*
X101258060Y-46307822D01*
X101209009Y-46381232D01*
X101115000Y-46853846D01*
X101115000Y-47106154D01*
X101156542Y-47315000D01*
X101018152Y-47315000D01*
X101024201Y-47299647D01*
X100884863Y-47107000D01*
X100615925Y-47107000D01*
X100792827Y-46930099D01*
X100824762Y-46853000D01*
X100884863Y-46853000D01*
X101024201Y-46660353D01*
X100889500Y-46318462D01*
X100889500Y-46017950D01*
X100730750Y-45859200D01*
X100498404Y-45859200D01*
X100127609Y-45686538D01*
X99937000Y-45811269D01*
X99937000Y-47046650D01*
X99997350Y-47107000D01*
X99937000Y-47107000D01*
X99937000Y-47127000D01*
X99683000Y-47127000D01*
X99683000Y-47107000D01*
X99622650Y-47107000D01*
X99683000Y-47046650D01*
X99683000Y-45811269D01*
X99492391Y-45686538D01*
X99121596Y-45859200D01*
X98889250Y-45859200D01*
X98730500Y-46017950D01*
X98730500Y-46318462D01*
X98595799Y-46660353D01*
X98735137Y-46853000D01*
X98795238Y-46853000D01*
X98827173Y-46930099D01*
X99004075Y-47107000D01*
X98735137Y-47107000D01*
X98595799Y-47299647D01*
X98601848Y-47315000D01*
X98463458Y-47315000D01*
X98505000Y-47106154D01*
X98505000Y-46853846D01*
X98410991Y-46381232D01*
X98361940Y-46307822D01*
X98361940Y-45135000D01*
X98730500Y-45135000D01*
X98730500Y-45446450D01*
G36*
X106350500Y-45446450D02*
X106509250Y-45605200D01*
X107303000Y-45605200D01*
X107303000Y-45585200D01*
X107557000Y-45585200D01*
X107557000Y-45605200D01*
X108350750Y-45605200D01*
X108509500Y-45446450D01*
X108509500Y-45135000D01*
X108878060Y-45135000D01*
X108878060Y-46307822D01*
X108829009Y-46381232D01*
X108735000Y-46853846D01*
X108735000Y-47106154D01*
X108776542Y-47315000D01*
X108638152Y-47315000D01*
X108644201Y-47299647D01*
X108504863Y-47107000D01*
X108235925Y-47107000D01*
X108412827Y-46930099D01*
X108444762Y-46853000D01*
X108504863Y-46853000D01*
X108644201Y-46660353D01*
X108509500Y-46318462D01*
X108509500Y-46017950D01*
X108350750Y-45859200D01*
X108118404Y-45859200D01*
X107747609Y-45686538D01*
X107557000Y-45811269D01*
X107557000Y-47046650D01*
X107617350Y-47107000D01*
X107557000Y-47107000D01*
X107557000Y-47127000D01*
X107303000Y-47127000D01*
X107303000Y-47107000D01*
X107242650Y-47107000D01*
X107303000Y-47046650D01*
X107303000Y-45811269D01*
X107112391Y-45686538D01*
X106741596Y-45859200D01*
X106509250Y-45859200D01*
X106350500Y-46017950D01*
X106350500Y-46318462D01*
X106215799Y-46660353D01*
X106355137Y-46853000D01*
X106415238Y-46853000D01*
X106447173Y-46930099D01*
X106624075Y-47107000D01*
X106355137Y-47107000D01*
X106215799Y-47299647D01*
X106221848Y-47315000D01*
X106083458Y-47315000D01*
X106125000Y-47106154D01*
X106125000Y-46853846D01*
X106030991Y-46381232D01*
X105981940Y-46307822D01*
X105981940Y-45135000D01*
X106350500Y-45135000D01*
X106350500Y-45446450D01*
X106350500Y-45446450D01*
G37*
X106350500Y-45446450D02*
X106509250Y-45605200D01*
X107303000Y-45605200D01*
X107303000Y-45585200D01*
X107557000Y-45585200D01*
X107557000Y-45605200D01*
X108350750Y-45605200D01*
X108509500Y-45446450D01*
X108509500Y-45135000D01*
X108878060Y-45135000D01*
X108878060Y-46307822D01*
X108829009Y-46381232D01*
X108735000Y-46853846D01*
X108735000Y-47106154D01*
X108776542Y-47315000D01*
X108638152Y-47315000D01*
X108644201Y-47299647D01*
X108504863Y-47107000D01*
X108235925Y-47107000D01*
X108412827Y-46930099D01*
X108444762Y-46853000D01*
X108504863Y-46853000D01*
X108644201Y-46660353D01*
X108509500Y-46318462D01*
X108509500Y-46017950D01*
X108350750Y-45859200D01*
X108118404Y-45859200D01*
X107747609Y-45686538D01*
X107557000Y-45811269D01*
X107557000Y-47046650D01*
X107617350Y-47107000D01*
X107557000Y-47107000D01*
X107557000Y-47127000D01*
X107303000Y-47127000D01*
X107303000Y-47107000D01*
X107242650Y-47107000D01*
X107303000Y-47046650D01*
X107303000Y-45811269D01*
X107112391Y-45686538D01*
X106741596Y-45859200D01*
X106509250Y-45859200D01*
X106350500Y-46017950D01*
X106350500Y-46318462D01*
X106215799Y-46660353D01*
X106355137Y-46853000D01*
X106415238Y-46853000D01*
X106447173Y-46930099D01*
X106624075Y-47107000D01*
X106355137Y-47107000D01*
X106215799Y-47299647D01*
X106221848Y-47315000D01*
X106083458Y-47315000D01*
X106125000Y-47106154D01*
X106125000Y-46853846D01*
X106030991Y-46381232D01*
X105981940Y-46307822D01*
X105981940Y-45135000D01*
X106350500Y-45135000D01*
X106350500Y-45446450D01*
M02*
