G04 #@! TF.FileFunction,Copper,L2,Bot,Signal*
%FSLAX46Y46*%
G04 Gerber Fmt 4.6, Leading zero omitted, Abs format (unit mm)*
G04 Created by KiCad (PCBNEW 4.0.4+e1-6308~48~ubuntu14.04.1-stable) date Thu Jan 12 15:11:12 2017*
%MOMM*%
%LPD*%
G01*
G04 APERTURE LIST*
%ADD10C,0.100000*%
%ADD11C,0.200000*%
%ADD12R,1.200000X3.000000*%
%ADD13R,2.032000X1.727200*%
%ADD14O,2.032000X1.727200*%
%ADD15R,2.032000X2.032000*%
%ADD16O,2.032000X2.032000*%
%ADD17R,2.500000X2.500000*%
%ADD18C,2.500000*%
%ADD19R,2.235200X2.235200*%
%ADD20C,1.750000*%
%ADD21R,1.750000X1.750000*%
%ADD22C,1.500000*%
%ADD23R,0.889000X1.676400*%
%ADD24O,1.200000X1.400000*%
%ADD25R,1.750000X1.600000*%
%ADD26O,1.750000X1.600000*%
%ADD27C,1.400000*%
%ADD28C,1.200000*%
%ADD29C,1.000000*%
%ADD30C,0.300000*%
%ADD31C,0.500000*%
%ADD32C,0.254000*%
G04 APERTURE END LIST*
D10*
D11*
X77102381Y-92905059D02*
X78202381Y-92767559D01*
X77154762Y-92898512D02*
X77102381Y-93009821D01*
X77102381Y-93219344D01*
X77154762Y-93317559D01*
X77207143Y-93363392D01*
X77311905Y-93402678D01*
X77626190Y-93363392D01*
X77730952Y-93297916D01*
X77783333Y-93238987D01*
X77835714Y-93127678D01*
X77835714Y-92918155D01*
X77783333Y-92819940D01*
X77154762Y-91955655D02*
X77102381Y-92066964D01*
X77102381Y-92276487D01*
X77154762Y-92374702D01*
X77259524Y-92413987D01*
X77678571Y-92361607D01*
X77783333Y-92296130D01*
X77835714Y-92184821D01*
X77835714Y-91975298D01*
X77783333Y-91877083D01*
X77678571Y-91837798D01*
X77573810Y-91850893D01*
X77469048Y-92387797D01*
X77835714Y-91503869D02*
X77835714Y-91084821D01*
X77102381Y-91438392D02*
X78045238Y-91320535D01*
X78150000Y-91255059D01*
X78202381Y-91143749D01*
X78202381Y-91038987D01*
X77835714Y-90718155D02*
X76735714Y-90855655D01*
X77783333Y-90724702D02*
X77835714Y-90613393D01*
X77835714Y-90403870D01*
X77783333Y-90305655D01*
X77730952Y-90259822D01*
X77626190Y-90220536D01*
X77311905Y-90259822D01*
X77207143Y-90325298D01*
X77154762Y-90384227D01*
X77102381Y-90495536D01*
X77102381Y-90705059D01*
X77154762Y-90803274D01*
X77102381Y-89814583D02*
X77835714Y-89722917D01*
X77626190Y-89749107D02*
X77730952Y-89683631D01*
X77783333Y-89624702D01*
X77835714Y-89513393D01*
X77835714Y-89408632D01*
X77102381Y-88976488D02*
X77154762Y-89074703D01*
X77207143Y-89120536D01*
X77311905Y-89159822D01*
X77626190Y-89120536D01*
X77730952Y-89055060D01*
X77783333Y-88996131D01*
X77835714Y-88884822D01*
X77835714Y-88727680D01*
X77783333Y-88629465D01*
X77730952Y-88583632D01*
X77626190Y-88544346D01*
X77311905Y-88583632D01*
X77207143Y-88649108D01*
X77154762Y-88708037D01*
X77102381Y-88819346D01*
X77102381Y-88976488D01*
X77154762Y-87660418D02*
X77102381Y-87771727D01*
X77102381Y-87981250D01*
X77154762Y-88079465D01*
X77207143Y-88125298D01*
X77311905Y-88164584D01*
X77626190Y-88125298D01*
X77730952Y-88059822D01*
X77783333Y-88000893D01*
X77835714Y-87889584D01*
X77835714Y-87680061D01*
X77783333Y-87581846D01*
X77207143Y-87182441D02*
X77154762Y-87136608D01*
X77102381Y-87195536D01*
X77154762Y-87241370D01*
X77207143Y-87182441D01*
X77102381Y-87195536D01*
X77154762Y-86193751D02*
X77102381Y-86305060D01*
X77102381Y-86514583D01*
X77154762Y-86612798D01*
X77207143Y-86658631D01*
X77311905Y-86697917D01*
X77626190Y-86658631D01*
X77730952Y-86593155D01*
X77783333Y-86534226D01*
X77835714Y-86422917D01*
X77835714Y-86213394D01*
X77783333Y-86115179D01*
X77102381Y-85571726D02*
X77154762Y-85669941D01*
X77207143Y-85715774D01*
X77311905Y-85755060D01*
X77626190Y-85715774D01*
X77730952Y-85650298D01*
X77783333Y-85591369D01*
X77835714Y-85480060D01*
X77835714Y-85322918D01*
X77783333Y-85224703D01*
X77730952Y-85178870D01*
X77626190Y-85139584D01*
X77311905Y-85178870D01*
X77207143Y-85244346D01*
X77154762Y-85303275D01*
X77102381Y-85414584D01*
X77102381Y-85571726D01*
X77207143Y-84720536D02*
X77154762Y-84674703D01*
X77102381Y-84733631D01*
X77154762Y-84779465D01*
X77207143Y-84720536D01*
X77102381Y-84733631D01*
X77835714Y-83646727D02*
X77102381Y-83738393D01*
X77835714Y-84118155D02*
X77259524Y-84190178D01*
X77154762Y-84150893D01*
X77102381Y-84052678D01*
X77102381Y-83895536D01*
X77154762Y-83784227D01*
X77207143Y-83725298D01*
X77102381Y-83214583D02*
X78202381Y-83077083D01*
X77521429Y-83057440D02*
X77102381Y-82795536D01*
X77835714Y-82703870D02*
X77416667Y-83175298D01*
D12*
X99800000Y-94550000D03*
X97800000Y-94550000D03*
X95800000Y-94550000D03*
X93800000Y-94550000D03*
X91800000Y-94550000D03*
X89800000Y-94550000D03*
X87800000Y-94550000D03*
X85800000Y-94550000D03*
X85800000Y-75850000D03*
X87800000Y-75850000D03*
X89800000Y-75850000D03*
X91800000Y-75850000D03*
X93800000Y-75850000D03*
X95800000Y-75850000D03*
X97800000Y-75850000D03*
X99800000Y-75850000D03*
D13*
X138400000Y-55650000D03*
D14*
X138400000Y-58190000D03*
X138400000Y-60730000D03*
X138400000Y-63270000D03*
X138400000Y-65810000D03*
X138400000Y-68350000D03*
D15*
X118400000Y-99250000D03*
D16*
X115860000Y-99250000D03*
D15*
X129600000Y-99250000D03*
D16*
X127060000Y-99250000D03*
D17*
X135800000Y-73910000D03*
D18*
X135800000Y-78990000D03*
D19*
X80400000Y-88250000D03*
D20*
X79000000Y-56050000D03*
X81540000Y-56050000D03*
X79000000Y-58590000D03*
X81540000Y-58590000D03*
X79000000Y-61130000D03*
D21*
X81540000Y-61130000D03*
D22*
X117350000Y-68250000D03*
X117350000Y-66250000D03*
X117350000Y-64250000D03*
X117350000Y-62250000D03*
X117350000Y-60250000D03*
X117350000Y-58250000D03*
X119850000Y-68250000D03*
X119850000Y-66250000D03*
X119850000Y-64250000D03*
X119850000Y-62250000D03*
X119850000Y-60250000D03*
X119850000Y-58250000D03*
D23*
X99810000Y-45732200D03*
X104890000Y-45732200D03*
X107430000Y-45732200D03*
X109970000Y-45732200D03*
X112510000Y-45732200D03*
X115050000Y-45732200D03*
X117590000Y-45732200D03*
X120130000Y-45732200D03*
X122670000Y-45732200D03*
X125210000Y-45732200D03*
X127750000Y-45732200D03*
X130290000Y-45732200D03*
X132830000Y-45732200D03*
X132830000Y-51167800D03*
X130290000Y-51167800D03*
X127750000Y-51167800D03*
X125210000Y-51167800D03*
X122670000Y-51167800D03*
X120130000Y-51167800D03*
X117590000Y-51167800D03*
X115050000Y-51167800D03*
X112510000Y-51167800D03*
X109970000Y-51167800D03*
X107430000Y-51167800D03*
X104890000Y-51167800D03*
X102350000Y-51167800D03*
X99810000Y-51167800D03*
X84570000Y-45732200D03*
X87110000Y-45732200D03*
X89650000Y-45732200D03*
X92190000Y-45732200D03*
X94730000Y-45732200D03*
X97270000Y-45732200D03*
X97270000Y-51167800D03*
X92190000Y-51167800D03*
X89650000Y-51167800D03*
X87110000Y-51167800D03*
X102350000Y-45732200D03*
X84570000Y-51167800D03*
D24*
X112510000Y-49920000D03*
X109970000Y-49920000D03*
X115050000Y-49920000D03*
X117590000Y-49920000D03*
X127750000Y-49920000D03*
X125210000Y-49920000D03*
X120130000Y-49920000D03*
X122670000Y-49920000D03*
X130290000Y-49920000D03*
X132830000Y-49920000D03*
X107430000Y-49920000D03*
X104890000Y-49920000D03*
X97270000Y-49920000D03*
X94730000Y-49920000D03*
X99810000Y-49920000D03*
X102350000Y-49920000D03*
X92190000Y-49920000D03*
X89650000Y-49920000D03*
X84570000Y-49920000D03*
X87110000Y-49920000D03*
X87110000Y-46980000D03*
X84570000Y-46980000D03*
X89650000Y-46980000D03*
X92190000Y-46980000D03*
X102350000Y-46980000D03*
X99810000Y-46980000D03*
X94730000Y-46980000D03*
X97270000Y-46980000D03*
X104890000Y-46980000D03*
X107430000Y-46980000D03*
X132830000Y-46980000D03*
X130290000Y-46980000D03*
X122670000Y-46980000D03*
X120130000Y-46980000D03*
X125210000Y-46980000D03*
X127750000Y-46980000D03*
X117590000Y-46980000D03*
X115050000Y-46980000D03*
X109970000Y-46980000D03*
X112510000Y-46980000D03*
D23*
X94730000Y-51167800D03*
D25*
X104800000Y-84050000D03*
D26*
X107340000Y-84050000D03*
X109880000Y-84050000D03*
D25*
X104800000Y-86650000D03*
D26*
X107340000Y-86650000D03*
X109880000Y-86650000D03*
D25*
X104800000Y-89250000D03*
D26*
X107340000Y-89250000D03*
X109880000Y-89250000D03*
D25*
X104800000Y-91850000D03*
D26*
X107340000Y-91850000D03*
X109880000Y-91850000D03*
D25*
X104800000Y-94450000D03*
D26*
X107340000Y-94450000D03*
X109880000Y-94450000D03*
D25*
X104800000Y-97050000D03*
D26*
X107340000Y-97050000D03*
X109880000Y-97050000D03*
D25*
X104800000Y-81450000D03*
D26*
X107340000Y-81450000D03*
X109880000Y-81450000D03*
D27*
X91200000Y-87650000D03*
D28*
X116800000Y-80250000D03*
D27*
X106200000Y-65050000D03*
X104600000Y-74450000D03*
X89200000Y-62250000D03*
X132800000Y-68650000D03*
X104400000Y-55450000D03*
X83600000Y-71450000D03*
X107400000Y-67250000D03*
X100400000Y-58850000D03*
X110000000Y-59250000D03*
X114400000Y-59650000D03*
D28*
X118200000Y-56450000D03*
D27*
X121400000Y-71850000D03*
D28*
X118600000Y-67250000D03*
X108600000Y-68250000D03*
X96800000Y-67050000D03*
X115000000Y-65450000D03*
X118600000Y-65250000D03*
X108600000Y-65250000D03*
X111000000Y-77650000D03*
X103400000Y-78050000D03*
X113600000Y-65650000D03*
X112400000Y-61450000D03*
X99600000Y-80850000D03*
X101800000Y-74650000D03*
X95800000Y-83250000D03*
X95800000Y-80250000D03*
D29*
X102000000Y-72850000D03*
D28*
X93400000Y-69050000D03*
X95800000Y-73250000D03*
D29*
X102800000Y-71850000D03*
D28*
X103400000Y-73250000D03*
X122800000Y-59650000D03*
X113000000Y-55250000D03*
X115400000Y-62650000D03*
X118600000Y-63250000D03*
X97200000Y-79650000D03*
X109600000Y-76050000D03*
X95800000Y-90450000D03*
X107600000Y-63850000D03*
X111600000Y-56850000D03*
X105800000Y-67250000D03*
X121800000Y-58450000D03*
X122000000Y-61850000D03*
X93000000Y-71300000D03*
D11*
X127750000Y-45732200D02*
X127750000Y-47180000D01*
X132830000Y-45732200D02*
X132830000Y-47180000D01*
X130290000Y-45732200D02*
X130290000Y-47180000D01*
X104890000Y-45732200D02*
X104890000Y-47180000D01*
X112510000Y-45732200D02*
X112510000Y-47180000D01*
X109970000Y-45732200D02*
X109970000Y-47180000D01*
X122670000Y-45732200D02*
X122670000Y-47180000D01*
X117590000Y-45732200D02*
X117590000Y-47180000D01*
X115050000Y-45732200D02*
X115050000Y-47180000D01*
X97270000Y-45732200D02*
X97270000Y-47180000D01*
X102350000Y-45732200D02*
X102350000Y-47180000D01*
X87110000Y-45732200D02*
X87110000Y-47180000D01*
X84570000Y-45732200D02*
X84570000Y-47180000D01*
X130290000Y-51167800D02*
X130290000Y-49720000D01*
X125210000Y-51167800D02*
X125210000Y-49720000D01*
X127750000Y-51167800D02*
X127750000Y-49720000D01*
X117590000Y-51167800D02*
X117590000Y-49720000D01*
X120130000Y-51167800D02*
X120130000Y-49720000D01*
X122670000Y-51167800D02*
X122670000Y-49720000D01*
X112510000Y-51167800D02*
X112510000Y-49720000D01*
X109970000Y-51167800D02*
X109970000Y-49720000D01*
X107430000Y-51167800D02*
X107430000Y-49720000D01*
X87110000Y-51167800D02*
X87110000Y-49720000D01*
X89650000Y-51167800D02*
X89650000Y-49720000D01*
X92190000Y-51167800D02*
X92190000Y-49720000D01*
X102350000Y-51167800D02*
X102350000Y-49720000D01*
X99810000Y-51167800D02*
X99810000Y-49720000D01*
X97270000Y-51167800D02*
X97270000Y-49720000D01*
D30*
X88500000Y-87550000D02*
X91100000Y-87550000D01*
X85800000Y-90250000D02*
X88500000Y-87550000D01*
X85800000Y-94550000D02*
X85800000Y-90250000D01*
X91100000Y-87550000D02*
X91200000Y-87650000D01*
X116800000Y-80250000D02*
X116600000Y-80250000D01*
X116000000Y-79650000D02*
X106540000Y-79650000D01*
X116600000Y-80250000D02*
X116000000Y-79650000D01*
X104600000Y-74450000D02*
X104600000Y-77050000D01*
X106540000Y-79790000D02*
X106540000Y-79650000D01*
X106540000Y-79650000D02*
X107340000Y-81450000D01*
X104600000Y-77050000D02*
X106540000Y-79790000D01*
X107340000Y-81450000D02*
X107340000Y-84050000D01*
X107340000Y-84050000D02*
X107340000Y-86650000D01*
X107340000Y-86650000D02*
X107340000Y-89250000D01*
X107340000Y-89250000D02*
X107340000Y-91850000D01*
X107340000Y-91850000D02*
X107340000Y-94450000D01*
X107340000Y-94450000D02*
X107340000Y-97050000D01*
X108400000Y-62850000D02*
X112400000Y-66850000D01*
X116400000Y-66250000D02*
X115800000Y-66850000D01*
X115800000Y-66850000D02*
X112400000Y-66850000D01*
X116400000Y-66250000D02*
X117350000Y-66250000D01*
X106200000Y-65050000D02*
X106200000Y-65050000D01*
X106200000Y-63450000D02*
X106200000Y-65050000D01*
X106800000Y-62850000D02*
X106200000Y-63450000D01*
X108400000Y-62850000D02*
X106800000Y-62850000D01*
X108400000Y-62850000D02*
X108400000Y-62850000D01*
X104800000Y-74450000D02*
X104600000Y-74450000D01*
X117350000Y-66250000D02*
X117000000Y-66250000D01*
X104600000Y-74450000D02*
X104880000Y-74730000D01*
D11*
X107420000Y-96630000D02*
X107420000Y-96710000D01*
X107380000Y-81470000D02*
X107420000Y-81470000D01*
X107760000Y-89090000D02*
X107420000Y-89090000D01*
X107420000Y-91430000D02*
X107420000Y-91630000D01*
D30*
X107430000Y-45732200D02*
X107430000Y-47180000D01*
X104800000Y-81450000D02*
X104800000Y-84050000D01*
X104800000Y-89250000D02*
X104800000Y-91850000D01*
X104800000Y-91850000D02*
X104800000Y-94450000D01*
X104800000Y-94450000D02*
X104800000Y-97050000D01*
X104800000Y-84050000D02*
X104800000Y-86650000D01*
X104800000Y-86650000D02*
X104800000Y-89250000D01*
X94730000Y-51167800D02*
X94730000Y-49720000D01*
X115050000Y-51167800D02*
X115050000Y-49720000D01*
X132830000Y-51167800D02*
X132830000Y-49720000D01*
X125210000Y-45732200D02*
X125210000Y-47180000D01*
X120130000Y-45732200D02*
X120130000Y-47180000D01*
X99810000Y-45732200D02*
X99810000Y-47180000D01*
X89650000Y-45732200D02*
X89650000Y-47180000D01*
X85800000Y-75850000D02*
X84200000Y-75850000D01*
X83600000Y-75250000D02*
X83600000Y-71450000D01*
X84200000Y-75850000D02*
X83600000Y-75250000D01*
X110000000Y-59250000D02*
X114000000Y-59250000D01*
X114000000Y-59250000D02*
X114400000Y-59650000D01*
X119850000Y-58250000D02*
X119850000Y-58100000D01*
X119850000Y-58100000D02*
X118200000Y-56450000D01*
X136740000Y-73910000D02*
X135800000Y-73910000D01*
X138400000Y-60730000D02*
X138880000Y-60730000D01*
X138880000Y-60730000D02*
X140200000Y-62050000D01*
X140200000Y-74590000D02*
X135800000Y-78990000D01*
X140200000Y-62050000D02*
X140200000Y-74590000D01*
X138400000Y-60730000D02*
X139280000Y-60730000D01*
X81540000Y-56050000D02*
X81540000Y-54710000D01*
X131320000Y-53650000D02*
X138400000Y-60730000D01*
X82600000Y-53650000D02*
X131320000Y-53650000D01*
X81540000Y-54710000D02*
X82600000Y-53650000D01*
X117350000Y-68250000D02*
X117350000Y-69600000D01*
X119600000Y-71850000D02*
X121400000Y-71850000D01*
X117350000Y-69600000D02*
X119600000Y-71850000D01*
X118600000Y-67250000D02*
X117600000Y-68250000D01*
X117600000Y-68250000D02*
X117350000Y-68250000D01*
D11*
X97000000Y-70250000D02*
X98400000Y-70250000D01*
X108600000Y-68250000D02*
X108600000Y-69450000D01*
X108600000Y-69450000D02*
X107800000Y-70250000D01*
X107800000Y-70250000D02*
X98400000Y-70250000D01*
X97000000Y-67250000D02*
X97000000Y-70250000D01*
X96800000Y-67050000D02*
X97000000Y-67250000D01*
X97000000Y-70250000D02*
X86400000Y-70250000D01*
X86400000Y-70250000D02*
X83800000Y-67650000D01*
X83800000Y-67650000D02*
X83800000Y-65050000D01*
X83800000Y-65050000D02*
X81600000Y-62850000D01*
X81600000Y-62850000D02*
X79600000Y-62850000D01*
X79600000Y-62850000D02*
X79000000Y-62250000D01*
X79000000Y-62250000D02*
X79000000Y-61130000D01*
X115600000Y-60250000D02*
X117350000Y-60250000D01*
X114400000Y-61450000D02*
X115600000Y-60250000D01*
X114400000Y-64850000D02*
X114400000Y-61450000D01*
X115000000Y-65450000D02*
X114400000Y-64850000D01*
X118600000Y-65250000D02*
X119600000Y-66250000D01*
X119600000Y-66250000D02*
X119850000Y-66250000D01*
X108600000Y-65250000D02*
X110600000Y-67250000D01*
X110600000Y-67250000D02*
X110600000Y-77250000D01*
X110600000Y-77250000D02*
X111000000Y-77650000D01*
X103400000Y-78050000D02*
X102000000Y-79450000D01*
X99000000Y-79450000D02*
X102000000Y-79450000D01*
X97800000Y-80650000D02*
X99000000Y-79450000D01*
X97800000Y-80650000D02*
X97800000Y-94550000D01*
X113600000Y-65650000D02*
X113600000Y-61850000D01*
X113600000Y-61850000D02*
X113200000Y-61450000D01*
X113200000Y-61450000D02*
X112400000Y-61450000D01*
X102800000Y-82850000D02*
X102800000Y-94850000D01*
X100800000Y-80850000D02*
X102800000Y-82850000D01*
X99600000Y-80850000D02*
X100800000Y-80850000D01*
X103800000Y-99250000D02*
X102800000Y-98250000D01*
X102800000Y-98250000D02*
X102800000Y-94850000D01*
X102800000Y-94850000D02*
X102800000Y-94850000D01*
X103800000Y-99250000D02*
X115860000Y-99250000D01*
X101000000Y-78050000D02*
X101800000Y-77250000D01*
X101800000Y-77250000D02*
X101800000Y-74650000D01*
X97800000Y-77250000D02*
X98600000Y-78050000D01*
X98600000Y-78050000D02*
X101000000Y-78050000D01*
X95800000Y-80250000D02*
X95800000Y-83250000D01*
X97800000Y-77250000D02*
X97800000Y-75850000D01*
X97000000Y-72050000D02*
X101200000Y-72050000D01*
X101200000Y-72050000D02*
X102000000Y-72850000D01*
X97000000Y-72050000D02*
X95800000Y-73250000D01*
X86400000Y-69050000D02*
X93400000Y-69050000D01*
X84600000Y-67250000D02*
X86400000Y-69050000D01*
X84600000Y-64250000D02*
X84600000Y-67250000D01*
X83200000Y-62850000D02*
X84600000Y-64250000D01*
X83200000Y-59450000D02*
X83200000Y-62850000D01*
X82340000Y-58590000D02*
X83200000Y-59450000D01*
X95800000Y-73250000D02*
X95800000Y-75850000D01*
X81540000Y-58590000D02*
X82340000Y-58590000D01*
X91800000Y-72250000D02*
X93800000Y-72250000D01*
X81400000Y-63450000D02*
X83000000Y-65050000D01*
X83000000Y-65050000D02*
X83000000Y-67850000D01*
X83000000Y-67850000D02*
X86200000Y-71050000D01*
X86200000Y-71050000D02*
X90600000Y-71050000D01*
X90600000Y-71050000D02*
X91800000Y-72250000D01*
X79000000Y-55650000D02*
X80200000Y-56850000D01*
X80200000Y-56850000D02*
X80200000Y-59450000D01*
X80200000Y-59450000D02*
X79800000Y-59850000D01*
X79800000Y-59850000D02*
X78000000Y-59850000D01*
X78000000Y-59850000D02*
X77600000Y-60250000D01*
X77600000Y-60250000D02*
X77600000Y-61850000D01*
X77600000Y-61850000D02*
X79200000Y-63450000D01*
X79200000Y-63450000D02*
X81400000Y-63450000D01*
X102400000Y-71450000D02*
X102800000Y-71850000D01*
X94600000Y-71450000D02*
X102400000Y-71450000D01*
X93800000Y-72250000D02*
X94600000Y-71450000D01*
X93800000Y-72250000D02*
X93800000Y-75850000D01*
X79000000Y-56050000D02*
X79000000Y-55650000D01*
X91800000Y-75850000D02*
X91800000Y-78050000D01*
X103400000Y-76650000D02*
X103400000Y-73250000D01*
X101400000Y-78650000D02*
X103400000Y-76650000D01*
X92400000Y-78650000D02*
X101400000Y-78650000D01*
X91800000Y-78050000D02*
X92400000Y-78650000D01*
X79000000Y-58590000D02*
X78460000Y-58590000D01*
X78460000Y-58590000D02*
X77000000Y-60050000D01*
X77000000Y-60050000D02*
X77000000Y-62050000D01*
X77000000Y-62050000D02*
X79000000Y-64050000D01*
X79000000Y-64050000D02*
X81200000Y-64050000D01*
X81200000Y-64050000D02*
X82200000Y-65050000D01*
X82200000Y-65050000D02*
X82200000Y-68050000D01*
X82200000Y-68050000D02*
X86000000Y-71850000D01*
X86000000Y-71850000D02*
X90600000Y-71850000D01*
X90600000Y-71850000D02*
X91800000Y-73050000D01*
X91800000Y-73050000D02*
X91800000Y-75850000D01*
D31*
X87800000Y-75850000D02*
X87800000Y-83250000D01*
X82800000Y-88250000D02*
X80600000Y-88250000D01*
X87800000Y-83250000D02*
X82800000Y-88250000D01*
D11*
X94730000Y-45732200D02*
X94730000Y-47180000D01*
X122800000Y-59650000D02*
X123700000Y-60550000D01*
X123700000Y-60550000D02*
X123700000Y-63150000D01*
X123700000Y-63150000D02*
X122600000Y-64250000D01*
X122600000Y-64250000D02*
X119850000Y-64250000D01*
X92190000Y-45732200D02*
X92190000Y-47180000D01*
X117350000Y-58250000D02*
X114000000Y-58250000D01*
X113000000Y-57250000D02*
X113000000Y-55250000D01*
X114000000Y-58250000D02*
X113000000Y-57250000D01*
D30*
X84570000Y-51167800D02*
X84570000Y-49720000D01*
X104890000Y-51167800D02*
X104890000Y-49720000D01*
X117350000Y-64250000D02*
X117000000Y-64250000D01*
X117000000Y-64250000D02*
X115400000Y-62650000D01*
D11*
X138400000Y-65810000D02*
X125240000Y-65810000D01*
X122800000Y-68250000D02*
X119850000Y-68250000D01*
X125240000Y-65810000D02*
X122800000Y-68250000D01*
X118600000Y-63250000D02*
X117600000Y-62250000D01*
X117600000Y-62250000D02*
X117350000Y-62250000D01*
X96400000Y-90450000D02*
X95800000Y-90450000D01*
X97200000Y-89650000D02*
X96400000Y-90450000D01*
X97200000Y-88250000D02*
X97200000Y-89650000D01*
X97200000Y-79650000D02*
X97200000Y-88250000D01*
X109600000Y-67650000D02*
X109600000Y-76050000D01*
X107400000Y-65450000D02*
X109600000Y-67650000D01*
X107400000Y-64050000D02*
X107400000Y-65450000D01*
X107600000Y-63850000D02*
X107400000Y-64050000D01*
X109400000Y-75850000D02*
X109600000Y-76050000D01*
X110800000Y-56850000D02*
X104800000Y-62850000D01*
X104800000Y-62850000D02*
X104800000Y-66250000D01*
X104800000Y-66250000D02*
X105800000Y-67250000D01*
X111600000Y-56850000D02*
X110800000Y-56850000D01*
X121800000Y-58450000D02*
X120000000Y-60250000D01*
X119850000Y-60250000D02*
X120000000Y-60250000D01*
X122000000Y-61850000D02*
X121600000Y-62250000D01*
X121600000Y-62250000D02*
X119850000Y-62250000D01*
X93450000Y-70850000D02*
X93425000Y-70875000D01*
X93425000Y-70875000D02*
X93000000Y-71300000D01*
X93425000Y-70875000D02*
X106625000Y-70875000D01*
X107800000Y-77650000D02*
X109200000Y-79050000D01*
X107800000Y-72050000D02*
X107800000Y-77650000D01*
X106625000Y-70875000D02*
X107800000Y-72050000D01*
X130400000Y-79050000D02*
X133400000Y-76050000D01*
X109200000Y-79050000D02*
X130400000Y-79050000D01*
X133400000Y-76050000D02*
X133400000Y-72150000D01*
X137200000Y-68350000D02*
X133400000Y-72150000D01*
X137200000Y-68350000D02*
X138400000Y-68350000D01*
D32*
G36*
X137641766Y-69734526D02*
X138215255Y-69848600D01*
X138584745Y-69848600D01*
X139158234Y-69734526D01*
X139415000Y-69562960D01*
X139415000Y-74264842D01*
X136457763Y-77222079D01*
X136176595Y-77105328D01*
X135426695Y-77104674D01*
X134733628Y-77391043D01*
X134202907Y-77920839D01*
X133915328Y-78613405D01*
X133914674Y-79363305D01*
X134201043Y-80056372D01*
X134730839Y-80587093D01*
X135423405Y-80874672D01*
X136173305Y-80875326D01*
X136866372Y-80588957D01*
X137397093Y-80059161D01*
X137684672Y-79366595D01*
X137685326Y-78616695D01*
X137567829Y-78332329D01*
X140515000Y-75385158D01*
X140515000Y-93248999D01*
X140299991Y-93464008D01*
X139778298Y-93729824D01*
X139190008Y-93823000D01*
X137178427Y-93823000D01*
X137153651Y-93825440D01*
X136388284Y-93977681D01*
X136342503Y-93996644D01*
X135693657Y-94430189D01*
X135674411Y-94445983D01*
X134645983Y-95474411D01*
X134635030Y-95486901D01*
X134317193Y-95901114D01*
X134300616Y-95929826D01*
X134100815Y-96412188D01*
X134092234Y-96444212D01*
X134024086Y-96961850D01*
X134023000Y-96978427D01*
X134023000Y-98940008D01*
X133929824Y-99528298D01*
X133664008Y-100049991D01*
X133448999Y-100265000D01*
X131251000Y-100265000D01*
X131251000Y-99535750D01*
X131092250Y-99377000D01*
X129727000Y-99377000D01*
X129727000Y-99397000D01*
X129473000Y-99397000D01*
X129473000Y-99377000D01*
X129453000Y-99377000D01*
X129453000Y-99123000D01*
X129473000Y-99123000D01*
X129473000Y-97757750D01*
X129727000Y-97757750D01*
X129727000Y-99123000D01*
X131092250Y-99123000D01*
X131251000Y-98964250D01*
X131251000Y-98107691D01*
X131154327Y-97874302D01*
X130975699Y-97695673D01*
X130742310Y-97599000D01*
X129885750Y-97599000D01*
X129727000Y-97757750D01*
X129473000Y-97757750D01*
X129314250Y-97599000D01*
X128457690Y-97599000D01*
X128224301Y-97695673D01*
X128045673Y-97874302D01*
X128028001Y-97916966D01*
X127691810Y-97692330D01*
X127060000Y-97566655D01*
X126428190Y-97692330D01*
X125892567Y-98050222D01*
X125534675Y-98585845D01*
X125409000Y-99217655D01*
X125409000Y-99282345D01*
X125534675Y-99914155D01*
X125769102Y-100265000D01*
X120051000Y-100265000D01*
X120051000Y-99535750D01*
X119892250Y-99377000D01*
X118527000Y-99377000D01*
X118527000Y-99397000D01*
X118273000Y-99397000D01*
X118273000Y-99377000D01*
X118253000Y-99377000D01*
X118253000Y-99123000D01*
X118273000Y-99123000D01*
X118273000Y-97757750D01*
X118527000Y-97757750D01*
X118527000Y-99123000D01*
X119892250Y-99123000D01*
X120051000Y-98964250D01*
X120051000Y-98165336D01*
X120112328Y-98226664D01*
X120436751Y-98443437D01*
X120537094Y-98485000D01*
X120683681Y-98545718D01*
X121066364Y-98621838D01*
X121333636Y-98621838D01*
X121716319Y-98545718D01*
X121963248Y-98443437D01*
X121963249Y-98443436D01*
X122287672Y-98226664D01*
X122476664Y-98037672D01*
X122693437Y-97713249D01*
X122740760Y-97599000D01*
X122795718Y-97466319D01*
X122871838Y-97083636D01*
X122871838Y-97016170D01*
X122885000Y-96950000D01*
X122885000Y-81950000D01*
X122871838Y-81883830D01*
X122871838Y-81816364D01*
X122795718Y-81433681D01*
X122715594Y-81240243D01*
X122693437Y-81186751D01*
X122476664Y-80862328D01*
X122287672Y-80673336D01*
X121963248Y-80456563D01*
X121911190Y-80435000D01*
X121716319Y-80354282D01*
X121333636Y-80278162D01*
X121200000Y-80278162D01*
X120683681Y-80354282D01*
X120539032Y-80414197D01*
X120436751Y-80456563D01*
X120112328Y-80673336D01*
X119923336Y-80862328D01*
X119706564Y-81186751D01*
X119706563Y-81186752D01*
X119604282Y-81433681D01*
X119528162Y-81816364D01*
X119528162Y-81883830D01*
X119515000Y-81950000D01*
X119515000Y-96950000D01*
X119528162Y-97016170D01*
X119528162Y-97083636D01*
X119604282Y-97466319D01*
X119674152Y-97635000D01*
X119683457Y-97657465D01*
X119542310Y-97599000D01*
X118685750Y-97599000D01*
X118527000Y-97757750D01*
X118273000Y-97757750D01*
X118114250Y-97599000D01*
X117257690Y-97599000D01*
X117024301Y-97695673D01*
X116845673Y-97874302D01*
X116828001Y-97916966D01*
X116491810Y-97692330D01*
X115860000Y-97566655D01*
X115228190Y-97692330D01*
X114692567Y-98050222D01*
X114382012Y-98515000D01*
X104104447Y-98515000D01*
X104074447Y-98485000D01*
X104514250Y-98485000D01*
X104673000Y-98326250D01*
X104673000Y-97177000D01*
X104653000Y-97177000D01*
X104653000Y-96923000D01*
X104673000Y-96923000D01*
X104673000Y-95773750D01*
X104649250Y-95750000D01*
X104673000Y-95726250D01*
X104673000Y-94577000D01*
X104653000Y-94577000D01*
X104653000Y-94323000D01*
X104673000Y-94323000D01*
X104673000Y-93173750D01*
X104649250Y-93150000D01*
X104673000Y-93126250D01*
X104673000Y-91977000D01*
X104653000Y-91977000D01*
X104653000Y-91723000D01*
X104673000Y-91723000D01*
X104673000Y-90573750D01*
X104649250Y-90550000D01*
X104673000Y-90526250D01*
X104673000Y-89377000D01*
X104653000Y-89377000D01*
X104653000Y-89123000D01*
X104673000Y-89123000D01*
X104673000Y-87973750D01*
X104649250Y-87950000D01*
X104673000Y-87926250D01*
X104673000Y-86777000D01*
X104653000Y-86777000D01*
X104653000Y-86523000D01*
X104673000Y-86523000D01*
X104673000Y-85373750D01*
X104649250Y-85350000D01*
X104673000Y-85326250D01*
X104673000Y-84177000D01*
X104653000Y-84177000D01*
X104653000Y-83923000D01*
X104673000Y-83923000D01*
X104673000Y-82773750D01*
X104649250Y-82750000D01*
X104673000Y-82726250D01*
X104673000Y-81577000D01*
X103448750Y-81577000D01*
X103290000Y-81735750D01*
X103290000Y-82300553D01*
X101513138Y-80523691D01*
X103290000Y-80523691D01*
X103290000Y-81164250D01*
X103448750Y-81323000D01*
X104673000Y-81323000D01*
X104673000Y-80173750D01*
X104514250Y-80015000D01*
X103798690Y-80015000D01*
X103565301Y-80111673D01*
X103386673Y-80290302D01*
X103290000Y-80523691D01*
X101513138Y-80523691D01*
X101319723Y-80330277D01*
X101102301Y-80185000D01*
X102000000Y-80185000D01*
X102281272Y-80129051D01*
X102519723Y-79969723D01*
X103204616Y-79284830D01*
X103644579Y-79285214D01*
X104098657Y-79097592D01*
X104446371Y-78750485D01*
X104592678Y-78398138D01*
X105737464Y-80015000D01*
X105085750Y-80015000D01*
X104927000Y-80173750D01*
X104927000Y-81323000D01*
X104947000Y-81323000D01*
X104947000Y-81577000D01*
X104927000Y-81577000D01*
X104927000Y-82726250D01*
X104950750Y-82750000D01*
X104927000Y-82773750D01*
X104927000Y-83923000D01*
X104947000Y-83923000D01*
X104947000Y-84177000D01*
X104927000Y-84177000D01*
X104927000Y-85326250D01*
X104950750Y-85350000D01*
X104927000Y-85373750D01*
X104927000Y-86523000D01*
X104947000Y-86523000D01*
X104947000Y-86777000D01*
X104927000Y-86777000D01*
X104927000Y-87926250D01*
X104950750Y-87950000D01*
X104927000Y-87973750D01*
X104927000Y-89123000D01*
X104947000Y-89123000D01*
X104947000Y-89377000D01*
X104927000Y-89377000D01*
X104927000Y-90526250D01*
X104950750Y-90550000D01*
X104927000Y-90573750D01*
X104927000Y-91723000D01*
X104947000Y-91723000D01*
X104947000Y-91977000D01*
X104927000Y-91977000D01*
X104927000Y-93126250D01*
X104950750Y-93150000D01*
X104927000Y-93173750D01*
X104927000Y-94323000D01*
X104947000Y-94323000D01*
X104947000Y-94577000D01*
X104927000Y-94577000D01*
X104927000Y-95726250D01*
X104950750Y-95750000D01*
X104927000Y-95773750D01*
X104927000Y-96923000D01*
X104947000Y-96923000D01*
X104947000Y-97177000D01*
X104927000Y-97177000D01*
X104927000Y-98326250D01*
X105085750Y-98485000D01*
X105801310Y-98485000D01*
X106034699Y-98388327D01*
X106213327Y-98209698D01*
X106261971Y-98092262D01*
X106686266Y-98375767D01*
X107235417Y-98485000D01*
X107444583Y-98485000D01*
X107993734Y-98375767D01*
X108459281Y-98064698D01*
X108610000Y-97839131D01*
X108760719Y-98064698D01*
X109226266Y-98375767D01*
X109775417Y-98485000D01*
X109984583Y-98485000D01*
X110533734Y-98375767D01*
X110999281Y-98064698D01*
X111310350Y-97599151D01*
X111419583Y-97050000D01*
X111310350Y-96500849D01*
X110999281Y-96035302D01*
X110572297Y-95750000D01*
X110999281Y-95464698D01*
X111310350Y-94999151D01*
X111419583Y-94450000D01*
X111310350Y-93900849D01*
X110999281Y-93435302D01*
X110572297Y-93150000D01*
X110999281Y-92864698D01*
X111310350Y-92399151D01*
X111419583Y-91850000D01*
X111310350Y-91300849D01*
X110999281Y-90835302D01*
X110572297Y-90550000D01*
X110999281Y-90264698D01*
X111310350Y-89799151D01*
X111419583Y-89250000D01*
X111310350Y-88700849D01*
X110999281Y-88235302D01*
X110572297Y-87950000D01*
X110999281Y-87664698D01*
X111310350Y-87199151D01*
X111419583Y-86650000D01*
X111310350Y-86100849D01*
X110999281Y-85635302D01*
X110572297Y-85350000D01*
X110999281Y-85064698D01*
X111310350Y-84599151D01*
X111419583Y-84050000D01*
X111310350Y-83500849D01*
X110999281Y-83035302D01*
X110572297Y-82750000D01*
X110999281Y-82464698D01*
X111310350Y-81999151D01*
X111419583Y-81450000D01*
X111310350Y-80900849D01*
X110999281Y-80435302D01*
X110998829Y-80435000D01*
X115564838Y-80435000D01*
X115564786Y-80494579D01*
X115752408Y-80948657D01*
X116099515Y-81296371D01*
X116553266Y-81484785D01*
X117044579Y-81485214D01*
X117498657Y-81297592D01*
X117846371Y-80950485D01*
X118034785Y-80496734D01*
X118035214Y-80005421D01*
X117944138Y-79785000D01*
X130400000Y-79785000D01*
X130681272Y-79729051D01*
X130919723Y-79569723D01*
X133919724Y-76569723D01*
X134079051Y-76331272D01*
X134135000Y-76050000D01*
X134135000Y-75643026D01*
X134190301Y-75698327D01*
X134423690Y-75795000D01*
X135514250Y-75795000D01*
X135673000Y-75636250D01*
X135673000Y-74037000D01*
X135927000Y-74037000D01*
X135927000Y-75636250D01*
X136085750Y-75795000D01*
X137176310Y-75795000D01*
X137409699Y-75698327D01*
X137588327Y-75519698D01*
X137685000Y-75286309D01*
X137685000Y-74195750D01*
X137526250Y-74037000D01*
X135927000Y-74037000D01*
X135673000Y-74037000D01*
X135653000Y-74037000D01*
X135653000Y-73783000D01*
X135673000Y-73783000D01*
X135673000Y-72183750D01*
X135927000Y-72183750D01*
X135927000Y-73783000D01*
X137526250Y-73783000D01*
X137685000Y-73624250D01*
X137685000Y-72533691D01*
X137588327Y-72300302D01*
X137409699Y-72121673D01*
X137176310Y-72025000D01*
X136085750Y-72025000D01*
X135927000Y-72183750D01*
X135673000Y-72183750D01*
X135514250Y-72025000D01*
X134564446Y-72025000D01*
X137170087Y-69419360D01*
X137641766Y-69734526D01*
X137641766Y-69734526D01*
G37*
X137641766Y-69734526D02*
X138215255Y-69848600D01*
X138584745Y-69848600D01*
X139158234Y-69734526D01*
X139415000Y-69562960D01*
X139415000Y-74264842D01*
X136457763Y-77222079D01*
X136176595Y-77105328D01*
X135426695Y-77104674D01*
X134733628Y-77391043D01*
X134202907Y-77920839D01*
X133915328Y-78613405D01*
X133914674Y-79363305D01*
X134201043Y-80056372D01*
X134730839Y-80587093D01*
X135423405Y-80874672D01*
X136173305Y-80875326D01*
X136866372Y-80588957D01*
X137397093Y-80059161D01*
X137684672Y-79366595D01*
X137685326Y-78616695D01*
X137567829Y-78332329D01*
X140515000Y-75385158D01*
X140515000Y-93248999D01*
X140299991Y-93464008D01*
X139778298Y-93729824D01*
X139190008Y-93823000D01*
X137178427Y-93823000D01*
X137153651Y-93825440D01*
X136388284Y-93977681D01*
X136342503Y-93996644D01*
X135693657Y-94430189D01*
X135674411Y-94445983D01*
X134645983Y-95474411D01*
X134635030Y-95486901D01*
X134317193Y-95901114D01*
X134300616Y-95929826D01*
X134100815Y-96412188D01*
X134092234Y-96444212D01*
X134024086Y-96961850D01*
X134023000Y-96978427D01*
X134023000Y-98940008D01*
X133929824Y-99528298D01*
X133664008Y-100049991D01*
X133448999Y-100265000D01*
X131251000Y-100265000D01*
X131251000Y-99535750D01*
X131092250Y-99377000D01*
X129727000Y-99377000D01*
X129727000Y-99397000D01*
X129473000Y-99397000D01*
X129473000Y-99377000D01*
X129453000Y-99377000D01*
X129453000Y-99123000D01*
X129473000Y-99123000D01*
X129473000Y-97757750D01*
X129727000Y-97757750D01*
X129727000Y-99123000D01*
X131092250Y-99123000D01*
X131251000Y-98964250D01*
X131251000Y-98107691D01*
X131154327Y-97874302D01*
X130975699Y-97695673D01*
X130742310Y-97599000D01*
X129885750Y-97599000D01*
X129727000Y-97757750D01*
X129473000Y-97757750D01*
X129314250Y-97599000D01*
X128457690Y-97599000D01*
X128224301Y-97695673D01*
X128045673Y-97874302D01*
X128028001Y-97916966D01*
X127691810Y-97692330D01*
X127060000Y-97566655D01*
X126428190Y-97692330D01*
X125892567Y-98050222D01*
X125534675Y-98585845D01*
X125409000Y-99217655D01*
X125409000Y-99282345D01*
X125534675Y-99914155D01*
X125769102Y-100265000D01*
X120051000Y-100265000D01*
X120051000Y-99535750D01*
X119892250Y-99377000D01*
X118527000Y-99377000D01*
X118527000Y-99397000D01*
X118273000Y-99397000D01*
X118273000Y-99377000D01*
X118253000Y-99377000D01*
X118253000Y-99123000D01*
X118273000Y-99123000D01*
X118273000Y-97757750D01*
X118527000Y-97757750D01*
X118527000Y-99123000D01*
X119892250Y-99123000D01*
X120051000Y-98964250D01*
X120051000Y-98165336D01*
X120112328Y-98226664D01*
X120436751Y-98443437D01*
X120537094Y-98485000D01*
X120683681Y-98545718D01*
X121066364Y-98621838D01*
X121333636Y-98621838D01*
X121716319Y-98545718D01*
X121963248Y-98443437D01*
X121963249Y-98443436D01*
X122287672Y-98226664D01*
X122476664Y-98037672D01*
X122693437Y-97713249D01*
X122740760Y-97599000D01*
X122795718Y-97466319D01*
X122871838Y-97083636D01*
X122871838Y-97016170D01*
X122885000Y-96950000D01*
X122885000Y-81950000D01*
X122871838Y-81883830D01*
X122871838Y-81816364D01*
X122795718Y-81433681D01*
X122715594Y-81240243D01*
X122693437Y-81186751D01*
X122476664Y-80862328D01*
X122287672Y-80673336D01*
X121963248Y-80456563D01*
X121911190Y-80435000D01*
X121716319Y-80354282D01*
X121333636Y-80278162D01*
X121200000Y-80278162D01*
X120683681Y-80354282D01*
X120539032Y-80414197D01*
X120436751Y-80456563D01*
X120112328Y-80673336D01*
X119923336Y-80862328D01*
X119706564Y-81186751D01*
X119706563Y-81186752D01*
X119604282Y-81433681D01*
X119528162Y-81816364D01*
X119528162Y-81883830D01*
X119515000Y-81950000D01*
X119515000Y-96950000D01*
X119528162Y-97016170D01*
X119528162Y-97083636D01*
X119604282Y-97466319D01*
X119674152Y-97635000D01*
X119683457Y-97657465D01*
X119542310Y-97599000D01*
X118685750Y-97599000D01*
X118527000Y-97757750D01*
X118273000Y-97757750D01*
X118114250Y-97599000D01*
X117257690Y-97599000D01*
X117024301Y-97695673D01*
X116845673Y-97874302D01*
X116828001Y-97916966D01*
X116491810Y-97692330D01*
X115860000Y-97566655D01*
X115228190Y-97692330D01*
X114692567Y-98050222D01*
X114382012Y-98515000D01*
X104104447Y-98515000D01*
X104074447Y-98485000D01*
X104514250Y-98485000D01*
X104673000Y-98326250D01*
X104673000Y-97177000D01*
X104653000Y-97177000D01*
X104653000Y-96923000D01*
X104673000Y-96923000D01*
X104673000Y-95773750D01*
X104649250Y-95750000D01*
X104673000Y-95726250D01*
X104673000Y-94577000D01*
X104653000Y-94577000D01*
X104653000Y-94323000D01*
X104673000Y-94323000D01*
X104673000Y-93173750D01*
X104649250Y-93150000D01*
X104673000Y-93126250D01*
X104673000Y-91977000D01*
X104653000Y-91977000D01*
X104653000Y-91723000D01*
X104673000Y-91723000D01*
X104673000Y-90573750D01*
X104649250Y-90550000D01*
X104673000Y-90526250D01*
X104673000Y-89377000D01*
X104653000Y-89377000D01*
X104653000Y-89123000D01*
X104673000Y-89123000D01*
X104673000Y-87973750D01*
X104649250Y-87950000D01*
X104673000Y-87926250D01*
X104673000Y-86777000D01*
X104653000Y-86777000D01*
X104653000Y-86523000D01*
X104673000Y-86523000D01*
X104673000Y-85373750D01*
X104649250Y-85350000D01*
X104673000Y-85326250D01*
X104673000Y-84177000D01*
X104653000Y-84177000D01*
X104653000Y-83923000D01*
X104673000Y-83923000D01*
X104673000Y-82773750D01*
X104649250Y-82750000D01*
X104673000Y-82726250D01*
X104673000Y-81577000D01*
X103448750Y-81577000D01*
X103290000Y-81735750D01*
X103290000Y-82300553D01*
X101513138Y-80523691D01*
X103290000Y-80523691D01*
X103290000Y-81164250D01*
X103448750Y-81323000D01*
X104673000Y-81323000D01*
X104673000Y-80173750D01*
X104514250Y-80015000D01*
X103798690Y-80015000D01*
X103565301Y-80111673D01*
X103386673Y-80290302D01*
X103290000Y-80523691D01*
X101513138Y-80523691D01*
X101319723Y-80330277D01*
X101102301Y-80185000D01*
X102000000Y-80185000D01*
X102281272Y-80129051D01*
X102519723Y-79969723D01*
X103204616Y-79284830D01*
X103644579Y-79285214D01*
X104098657Y-79097592D01*
X104446371Y-78750485D01*
X104592678Y-78398138D01*
X105737464Y-80015000D01*
X105085750Y-80015000D01*
X104927000Y-80173750D01*
X104927000Y-81323000D01*
X104947000Y-81323000D01*
X104947000Y-81577000D01*
X104927000Y-81577000D01*
X104927000Y-82726250D01*
X104950750Y-82750000D01*
X104927000Y-82773750D01*
X104927000Y-83923000D01*
X104947000Y-83923000D01*
X104947000Y-84177000D01*
X104927000Y-84177000D01*
X104927000Y-85326250D01*
X104950750Y-85350000D01*
X104927000Y-85373750D01*
X104927000Y-86523000D01*
X104947000Y-86523000D01*
X104947000Y-86777000D01*
X104927000Y-86777000D01*
X104927000Y-87926250D01*
X104950750Y-87950000D01*
X104927000Y-87973750D01*
X104927000Y-89123000D01*
X104947000Y-89123000D01*
X104947000Y-89377000D01*
X104927000Y-89377000D01*
X104927000Y-90526250D01*
X104950750Y-90550000D01*
X104927000Y-90573750D01*
X104927000Y-91723000D01*
X104947000Y-91723000D01*
X104947000Y-91977000D01*
X104927000Y-91977000D01*
X104927000Y-93126250D01*
X104950750Y-93150000D01*
X104927000Y-93173750D01*
X104927000Y-94323000D01*
X104947000Y-94323000D01*
X104947000Y-94577000D01*
X104927000Y-94577000D01*
X104927000Y-95726250D01*
X104950750Y-95750000D01*
X104927000Y-95773750D01*
X104927000Y-96923000D01*
X104947000Y-96923000D01*
X104947000Y-97177000D01*
X104927000Y-97177000D01*
X104927000Y-98326250D01*
X105085750Y-98485000D01*
X105801310Y-98485000D01*
X106034699Y-98388327D01*
X106213327Y-98209698D01*
X106261971Y-98092262D01*
X106686266Y-98375767D01*
X107235417Y-98485000D01*
X107444583Y-98485000D01*
X107993734Y-98375767D01*
X108459281Y-98064698D01*
X108610000Y-97839131D01*
X108760719Y-98064698D01*
X109226266Y-98375767D01*
X109775417Y-98485000D01*
X109984583Y-98485000D01*
X110533734Y-98375767D01*
X110999281Y-98064698D01*
X111310350Y-97599151D01*
X111419583Y-97050000D01*
X111310350Y-96500849D01*
X110999281Y-96035302D01*
X110572297Y-95750000D01*
X110999281Y-95464698D01*
X111310350Y-94999151D01*
X111419583Y-94450000D01*
X111310350Y-93900849D01*
X110999281Y-93435302D01*
X110572297Y-93150000D01*
X110999281Y-92864698D01*
X111310350Y-92399151D01*
X111419583Y-91850000D01*
X111310350Y-91300849D01*
X110999281Y-90835302D01*
X110572297Y-90550000D01*
X110999281Y-90264698D01*
X111310350Y-89799151D01*
X111419583Y-89250000D01*
X111310350Y-88700849D01*
X110999281Y-88235302D01*
X110572297Y-87950000D01*
X110999281Y-87664698D01*
X111310350Y-87199151D01*
X111419583Y-86650000D01*
X111310350Y-86100849D01*
X110999281Y-85635302D01*
X110572297Y-85350000D01*
X110999281Y-85064698D01*
X111310350Y-84599151D01*
X111419583Y-84050000D01*
X111310350Y-83500849D01*
X110999281Y-83035302D01*
X110572297Y-82750000D01*
X110999281Y-82464698D01*
X111310350Y-81999151D01*
X111419583Y-81450000D01*
X111310350Y-80900849D01*
X110999281Y-80435302D01*
X110998829Y-80435000D01*
X115564838Y-80435000D01*
X115564786Y-80494579D01*
X115752408Y-80948657D01*
X116099515Y-81296371D01*
X116553266Y-81484785D01*
X117044579Y-81485214D01*
X117498657Y-81297592D01*
X117846371Y-80950485D01*
X118034785Y-80496734D01*
X118035214Y-80005421D01*
X117944138Y-79785000D01*
X130400000Y-79785000D01*
X130681272Y-79729051D01*
X130919723Y-79569723D01*
X133919724Y-76569723D01*
X134079051Y-76331272D01*
X134135000Y-76050000D01*
X134135000Y-75643026D01*
X134190301Y-75698327D01*
X134423690Y-75795000D01*
X135514250Y-75795000D01*
X135673000Y-75636250D01*
X135673000Y-74037000D01*
X135927000Y-74037000D01*
X135927000Y-75636250D01*
X136085750Y-75795000D01*
X137176310Y-75795000D01*
X137409699Y-75698327D01*
X137588327Y-75519698D01*
X137685000Y-75286309D01*
X137685000Y-74195750D01*
X137526250Y-74037000D01*
X135927000Y-74037000D01*
X135673000Y-74037000D01*
X135653000Y-74037000D01*
X135653000Y-73783000D01*
X135673000Y-73783000D01*
X135673000Y-72183750D01*
X135927000Y-72183750D01*
X135927000Y-73783000D01*
X137526250Y-73783000D01*
X137685000Y-73624250D01*
X137685000Y-72533691D01*
X137588327Y-72300302D01*
X137409699Y-72121673D01*
X137176310Y-72025000D01*
X136085750Y-72025000D01*
X135927000Y-72183750D01*
X135673000Y-72183750D01*
X135514250Y-72025000D01*
X134564446Y-72025000D01*
X137170087Y-69419360D01*
X137641766Y-69734526D01*
G36*
X85480277Y-72369724D02*
X85697699Y-72515000D01*
X85718728Y-72529051D01*
X86000000Y-72585000D01*
X90295554Y-72585000D01*
X91065000Y-73354447D01*
X91065000Y-73727962D01*
X90964683Y-73746838D01*
X90800508Y-73852482D01*
X90759699Y-73811673D01*
X90526310Y-73715000D01*
X90085750Y-73715000D01*
X89927000Y-73873750D01*
X89927000Y-75723000D01*
X89947000Y-75723000D01*
X89947000Y-75977000D01*
X89927000Y-75977000D01*
X89927000Y-77826250D01*
X90085750Y-77985000D01*
X90526310Y-77985000D01*
X90759699Y-77888327D01*
X90801660Y-77846366D01*
X90948110Y-77946431D01*
X91065000Y-77970102D01*
X91065000Y-78050000D01*
X91088815Y-78169723D01*
X91120949Y-78331272D01*
X91280277Y-78569723D01*
X91880276Y-79169723D01*
X92052479Y-79284785D01*
X92118728Y-79329051D01*
X92400000Y-79385000D01*
X94918432Y-79385000D01*
X94753629Y-79549515D01*
X94565215Y-80003266D01*
X94564786Y-80494579D01*
X94752408Y-80948657D01*
X95065000Y-81261796D01*
X95065000Y-82238688D01*
X94753629Y-82549515D01*
X94565215Y-83003266D01*
X94564786Y-83494579D01*
X94752408Y-83948657D01*
X95099515Y-84296371D01*
X95553266Y-84484785D01*
X96044579Y-84485214D01*
X96465000Y-84311499D01*
X96465000Y-89345553D01*
X96434375Y-89376178D01*
X96046734Y-89215215D01*
X95555421Y-89214786D01*
X95101343Y-89402408D01*
X94753629Y-89749515D01*
X94565215Y-90203266D01*
X94564786Y-90694579D01*
X94752408Y-91148657D01*
X95099515Y-91496371D01*
X95553266Y-91684785D01*
X96044579Y-91685214D01*
X96498657Y-91497592D01*
X96846371Y-91150485D01*
X96922642Y-90966804D01*
X97065000Y-90824446D01*
X97065000Y-92427962D01*
X96964683Y-92446838D01*
X96798523Y-92553759D01*
X96651890Y-92453569D01*
X96400000Y-92402560D01*
X95200000Y-92402560D01*
X94964683Y-92446838D01*
X94798523Y-92553759D01*
X94651890Y-92453569D01*
X94400000Y-92402560D01*
X93200000Y-92402560D01*
X92964683Y-92446838D01*
X92798523Y-92553759D01*
X92651890Y-92453569D01*
X92400000Y-92402560D01*
X91200000Y-92402560D01*
X90964683Y-92446838D01*
X90798523Y-92553759D01*
X90651890Y-92453569D01*
X90400000Y-92402560D01*
X89200000Y-92402560D01*
X88964683Y-92446838D01*
X88798523Y-92553759D01*
X88651890Y-92453569D01*
X88400000Y-92402560D01*
X87200000Y-92402560D01*
X86964683Y-92446838D01*
X86798523Y-92553759D01*
X86651890Y-92453569D01*
X86585000Y-92440023D01*
X86585000Y-90575158D01*
X88825158Y-88335000D01*
X90038564Y-88335000D01*
X90067582Y-88405229D01*
X90442796Y-88781098D01*
X90933287Y-88984768D01*
X91464383Y-88985231D01*
X91955229Y-88782418D01*
X92331098Y-88407204D01*
X92534768Y-87916713D01*
X92535231Y-87385617D01*
X92332418Y-86894771D01*
X91957204Y-86518902D01*
X91466713Y-86315232D01*
X90935617Y-86314769D01*
X90444771Y-86517582D01*
X90196921Y-86765000D01*
X88500005Y-86765000D01*
X88500000Y-86764999D01*
X88199594Y-86824755D01*
X87944921Y-86994921D01*
X85244921Y-89694921D01*
X85074755Y-89949593D01*
X85031166Y-90168728D01*
X85015000Y-90250000D01*
X85015000Y-92437370D01*
X84964683Y-92446838D01*
X84748559Y-92585910D01*
X84603569Y-92798110D01*
X84552560Y-93050000D01*
X84552560Y-96050000D01*
X84596838Y-96285317D01*
X84735910Y-96501441D01*
X84948110Y-96646431D01*
X85200000Y-96697440D01*
X86400000Y-96697440D01*
X86635317Y-96653162D01*
X86801477Y-96546241D01*
X86948110Y-96646431D01*
X87200000Y-96697440D01*
X88400000Y-96697440D01*
X88635317Y-96653162D01*
X88801477Y-96546241D01*
X88948110Y-96646431D01*
X89200000Y-96697440D01*
X90400000Y-96697440D01*
X90635317Y-96653162D01*
X90801477Y-96546241D01*
X90948110Y-96646431D01*
X91200000Y-96697440D01*
X92400000Y-96697440D01*
X92635317Y-96653162D01*
X92801477Y-96546241D01*
X92948110Y-96646431D01*
X93200000Y-96697440D01*
X94400000Y-96697440D01*
X94635317Y-96653162D01*
X94801477Y-96546241D01*
X94948110Y-96646431D01*
X95200000Y-96697440D01*
X96400000Y-96697440D01*
X96635317Y-96653162D01*
X96801477Y-96546241D01*
X96948110Y-96646431D01*
X97200000Y-96697440D01*
X98400000Y-96697440D01*
X98635317Y-96653162D01*
X98801477Y-96546241D01*
X98948110Y-96646431D01*
X99200000Y-96697440D01*
X100400000Y-96697440D01*
X100635317Y-96653162D01*
X100851441Y-96514090D01*
X100996431Y-96301890D01*
X101047440Y-96050000D01*
X101047440Y-93050000D01*
X101003162Y-92814683D01*
X100864090Y-92598559D01*
X100651890Y-92453569D01*
X100400000Y-92402560D01*
X99200000Y-92402560D01*
X98964683Y-92446838D01*
X98798523Y-92553759D01*
X98651890Y-92453569D01*
X98535000Y-92429898D01*
X98535000Y-81506527D01*
X98552408Y-81548657D01*
X98899515Y-81896371D01*
X99353266Y-82084785D01*
X99844579Y-82085214D01*
X100298657Y-81897592D01*
X100553624Y-81643070D01*
X102065000Y-83154447D01*
X102065000Y-98250000D01*
X102111745Y-98485000D01*
X102120949Y-98531272D01*
X102280277Y-98769723D01*
X103280277Y-99769724D01*
X103518728Y-99929051D01*
X103800000Y-99985000D01*
X114382012Y-99985000D01*
X114569102Y-100265000D01*
X84001001Y-100265000D01*
X83785992Y-100049991D01*
X83520176Y-99528298D01*
X83427000Y-98940008D01*
X83427000Y-97128427D01*
X83425914Y-97111850D01*
X83357766Y-96594212D01*
X83349185Y-96562188D01*
X83149384Y-96079826D01*
X83132807Y-96051114D01*
X82814970Y-95636901D01*
X82804017Y-95624411D01*
X81675589Y-94495983D01*
X81663099Y-94485030D01*
X81248886Y-94167193D01*
X81220174Y-94150616D01*
X80737812Y-93950815D01*
X80705788Y-93942234D01*
X80188150Y-93874086D01*
X80171573Y-93873000D01*
X79105000Y-93873000D01*
X79105000Y-89979116D01*
X79282400Y-90015040D01*
X81517600Y-90015040D01*
X81752917Y-89970762D01*
X81969041Y-89831690D01*
X82114031Y-89619490D01*
X82165040Y-89367600D01*
X82165040Y-89135000D01*
X82799995Y-89135000D01*
X82800000Y-89135001D01*
X83082484Y-89078810D01*
X83138675Y-89067633D01*
X83425790Y-88875790D01*
X88425787Y-83875792D01*
X88425790Y-83875790D01*
X88617633Y-83588675D01*
X88636350Y-83494579D01*
X88685001Y-83250000D01*
X88685000Y-83249995D01*
X88685000Y-77921192D01*
X88799492Y-77847518D01*
X88840301Y-77888327D01*
X89073690Y-77985000D01*
X89514250Y-77985000D01*
X89673000Y-77826250D01*
X89673000Y-75977000D01*
X89653000Y-75977000D01*
X89653000Y-75723000D01*
X89673000Y-75723000D01*
X89673000Y-73873750D01*
X89514250Y-73715000D01*
X89073690Y-73715000D01*
X88840301Y-73811673D01*
X88798340Y-73853634D01*
X88651890Y-73753569D01*
X88400000Y-73702560D01*
X87200000Y-73702560D01*
X86964683Y-73746838D01*
X86800508Y-73852482D01*
X86759699Y-73811673D01*
X86526310Y-73715000D01*
X86085750Y-73715000D01*
X85927000Y-73873750D01*
X85927000Y-75723000D01*
X85947000Y-75723000D01*
X85947000Y-75977000D01*
X85927000Y-75977000D01*
X85927000Y-77826250D01*
X86085750Y-77985000D01*
X86526310Y-77985000D01*
X86759699Y-77888327D01*
X86801660Y-77846366D01*
X86915000Y-77923808D01*
X86915000Y-82883421D01*
X82433420Y-87365000D01*
X82165040Y-87365000D01*
X82165040Y-87132400D01*
X82120762Y-86897083D01*
X81981690Y-86680959D01*
X81769490Y-86535969D01*
X81517600Y-86484960D01*
X79282400Y-86484960D01*
X79105000Y-86518340D01*
X79105000Y-82135000D01*
X80200000Y-82135000D01*
X80266170Y-82121838D01*
X80333636Y-82121838D01*
X80716319Y-82045718D01*
X80963248Y-81943437D01*
X80963249Y-81943436D01*
X81287672Y-81726664D01*
X81476664Y-81537672D01*
X81693437Y-81213249D01*
X81736512Y-81109256D01*
X81795718Y-80966319D01*
X81871838Y-80583636D01*
X81871838Y-80516170D01*
X81885000Y-80450000D01*
X81885000Y-76135750D01*
X84565000Y-76135750D01*
X84565000Y-77476309D01*
X84661673Y-77709698D01*
X84840301Y-77888327D01*
X85073690Y-77985000D01*
X85514250Y-77985000D01*
X85673000Y-77826250D01*
X85673000Y-75977000D01*
X84723750Y-75977000D01*
X84565000Y-76135750D01*
X81885000Y-76135750D01*
X81885000Y-74223691D01*
X84565000Y-74223691D01*
X84565000Y-75564250D01*
X84723750Y-75723000D01*
X85673000Y-75723000D01*
X85673000Y-73873750D01*
X85514250Y-73715000D01*
X85073690Y-73715000D01*
X84840301Y-73811673D01*
X84661673Y-73990302D01*
X84565000Y-74223691D01*
X81885000Y-74223691D01*
X81885000Y-68774446D01*
X85480277Y-72369724D01*
X85480277Y-72369724D01*
G37*
X85480277Y-72369724D02*
X85697699Y-72515000D01*
X85718728Y-72529051D01*
X86000000Y-72585000D01*
X90295554Y-72585000D01*
X91065000Y-73354447D01*
X91065000Y-73727962D01*
X90964683Y-73746838D01*
X90800508Y-73852482D01*
X90759699Y-73811673D01*
X90526310Y-73715000D01*
X90085750Y-73715000D01*
X89927000Y-73873750D01*
X89927000Y-75723000D01*
X89947000Y-75723000D01*
X89947000Y-75977000D01*
X89927000Y-75977000D01*
X89927000Y-77826250D01*
X90085750Y-77985000D01*
X90526310Y-77985000D01*
X90759699Y-77888327D01*
X90801660Y-77846366D01*
X90948110Y-77946431D01*
X91065000Y-77970102D01*
X91065000Y-78050000D01*
X91088815Y-78169723D01*
X91120949Y-78331272D01*
X91280277Y-78569723D01*
X91880276Y-79169723D01*
X92052479Y-79284785D01*
X92118728Y-79329051D01*
X92400000Y-79385000D01*
X94918432Y-79385000D01*
X94753629Y-79549515D01*
X94565215Y-80003266D01*
X94564786Y-80494579D01*
X94752408Y-80948657D01*
X95065000Y-81261796D01*
X95065000Y-82238688D01*
X94753629Y-82549515D01*
X94565215Y-83003266D01*
X94564786Y-83494579D01*
X94752408Y-83948657D01*
X95099515Y-84296371D01*
X95553266Y-84484785D01*
X96044579Y-84485214D01*
X96465000Y-84311499D01*
X96465000Y-89345553D01*
X96434375Y-89376178D01*
X96046734Y-89215215D01*
X95555421Y-89214786D01*
X95101343Y-89402408D01*
X94753629Y-89749515D01*
X94565215Y-90203266D01*
X94564786Y-90694579D01*
X94752408Y-91148657D01*
X95099515Y-91496371D01*
X95553266Y-91684785D01*
X96044579Y-91685214D01*
X96498657Y-91497592D01*
X96846371Y-91150485D01*
X96922642Y-90966804D01*
X97065000Y-90824446D01*
X97065000Y-92427962D01*
X96964683Y-92446838D01*
X96798523Y-92553759D01*
X96651890Y-92453569D01*
X96400000Y-92402560D01*
X95200000Y-92402560D01*
X94964683Y-92446838D01*
X94798523Y-92553759D01*
X94651890Y-92453569D01*
X94400000Y-92402560D01*
X93200000Y-92402560D01*
X92964683Y-92446838D01*
X92798523Y-92553759D01*
X92651890Y-92453569D01*
X92400000Y-92402560D01*
X91200000Y-92402560D01*
X90964683Y-92446838D01*
X90798523Y-92553759D01*
X90651890Y-92453569D01*
X90400000Y-92402560D01*
X89200000Y-92402560D01*
X88964683Y-92446838D01*
X88798523Y-92553759D01*
X88651890Y-92453569D01*
X88400000Y-92402560D01*
X87200000Y-92402560D01*
X86964683Y-92446838D01*
X86798523Y-92553759D01*
X86651890Y-92453569D01*
X86585000Y-92440023D01*
X86585000Y-90575158D01*
X88825158Y-88335000D01*
X90038564Y-88335000D01*
X90067582Y-88405229D01*
X90442796Y-88781098D01*
X90933287Y-88984768D01*
X91464383Y-88985231D01*
X91955229Y-88782418D01*
X92331098Y-88407204D01*
X92534768Y-87916713D01*
X92535231Y-87385617D01*
X92332418Y-86894771D01*
X91957204Y-86518902D01*
X91466713Y-86315232D01*
X90935617Y-86314769D01*
X90444771Y-86517582D01*
X90196921Y-86765000D01*
X88500005Y-86765000D01*
X88500000Y-86764999D01*
X88199594Y-86824755D01*
X87944921Y-86994921D01*
X85244921Y-89694921D01*
X85074755Y-89949593D01*
X85031166Y-90168728D01*
X85015000Y-90250000D01*
X85015000Y-92437370D01*
X84964683Y-92446838D01*
X84748559Y-92585910D01*
X84603569Y-92798110D01*
X84552560Y-93050000D01*
X84552560Y-96050000D01*
X84596838Y-96285317D01*
X84735910Y-96501441D01*
X84948110Y-96646431D01*
X85200000Y-96697440D01*
X86400000Y-96697440D01*
X86635317Y-96653162D01*
X86801477Y-96546241D01*
X86948110Y-96646431D01*
X87200000Y-96697440D01*
X88400000Y-96697440D01*
X88635317Y-96653162D01*
X88801477Y-96546241D01*
X88948110Y-96646431D01*
X89200000Y-96697440D01*
X90400000Y-96697440D01*
X90635317Y-96653162D01*
X90801477Y-96546241D01*
X90948110Y-96646431D01*
X91200000Y-96697440D01*
X92400000Y-96697440D01*
X92635317Y-96653162D01*
X92801477Y-96546241D01*
X92948110Y-96646431D01*
X93200000Y-96697440D01*
X94400000Y-96697440D01*
X94635317Y-96653162D01*
X94801477Y-96546241D01*
X94948110Y-96646431D01*
X95200000Y-96697440D01*
X96400000Y-96697440D01*
X96635317Y-96653162D01*
X96801477Y-96546241D01*
X96948110Y-96646431D01*
X97200000Y-96697440D01*
X98400000Y-96697440D01*
X98635317Y-96653162D01*
X98801477Y-96546241D01*
X98948110Y-96646431D01*
X99200000Y-96697440D01*
X100400000Y-96697440D01*
X100635317Y-96653162D01*
X100851441Y-96514090D01*
X100996431Y-96301890D01*
X101047440Y-96050000D01*
X101047440Y-93050000D01*
X101003162Y-92814683D01*
X100864090Y-92598559D01*
X100651890Y-92453569D01*
X100400000Y-92402560D01*
X99200000Y-92402560D01*
X98964683Y-92446838D01*
X98798523Y-92553759D01*
X98651890Y-92453569D01*
X98535000Y-92429898D01*
X98535000Y-81506527D01*
X98552408Y-81548657D01*
X98899515Y-81896371D01*
X99353266Y-82084785D01*
X99844579Y-82085214D01*
X100298657Y-81897592D01*
X100553624Y-81643070D01*
X102065000Y-83154447D01*
X102065000Y-98250000D01*
X102111745Y-98485000D01*
X102120949Y-98531272D01*
X102280277Y-98769723D01*
X103280277Y-99769724D01*
X103518728Y-99929051D01*
X103800000Y-99985000D01*
X114382012Y-99985000D01*
X114569102Y-100265000D01*
X84001001Y-100265000D01*
X83785992Y-100049991D01*
X83520176Y-99528298D01*
X83427000Y-98940008D01*
X83427000Y-97128427D01*
X83425914Y-97111850D01*
X83357766Y-96594212D01*
X83349185Y-96562188D01*
X83149384Y-96079826D01*
X83132807Y-96051114D01*
X82814970Y-95636901D01*
X82804017Y-95624411D01*
X81675589Y-94495983D01*
X81663099Y-94485030D01*
X81248886Y-94167193D01*
X81220174Y-94150616D01*
X80737812Y-93950815D01*
X80705788Y-93942234D01*
X80188150Y-93874086D01*
X80171573Y-93873000D01*
X79105000Y-93873000D01*
X79105000Y-89979116D01*
X79282400Y-90015040D01*
X81517600Y-90015040D01*
X81752917Y-89970762D01*
X81969041Y-89831690D01*
X82114031Y-89619490D01*
X82165040Y-89367600D01*
X82165040Y-89135000D01*
X82799995Y-89135000D01*
X82800000Y-89135001D01*
X83082484Y-89078810D01*
X83138675Y-89067633D01*
X83425790Y-88875790D01*
X88425787Y-83875792D01*
X88425790Y-83875790D01*
X88617633Y-83588675D01*
X88636350Y-83494579D01*
X88685001Y-83250000D01*
X88685000Y-83249995D01*
X88685000Y-77921192D01*
X88799492Y-77847518D01*
X88840301Y-77888327D01*
X89073690Y-77985000D01*
X89514250Y-77985000D01*
X89673000Y-77826250D01*
X89673000Y-75977000D01*
X89653000Y-75977000D01*
X89653000Y-75723000D01*
X89673000Y-75723000D01*
X89673000Y-73873750D01*
X89514250Y-73715000D01*
X89073690Y-73715000D01*
X88840301Y-73811673D01*
X88798340Y-73853634D01*
X88651890Y-73753569D01*
X88400000Y-73702560D01*
X87200000Y-73702560D01*
X86964683Y-73746838D01*
X86800508Y-73852482D01*
X86759699Y-73811673D01*
X86526310Y-73715000D01*
X86085750Y-73715000D01*
X85927000Y-73873750D01*
X85927000Y-75723000D01*
X85947000Y-75723000D01*
X85947000Y-75977000D01*
X85927000Y-75977000D01*
X85927000Y-77826250D01*
X86085750Y-77985000D01*
X86526310Y-77985000D01*
X86759699Y-77888327D01*
X86801660Y-77846366D01*
X86915000Y-77923808D01*
X86915000Y-82883421D01*
X82433420Y-87365000D01*
X82165040Y-87365000D01*
X82165040Y-87132400D01*
X82120762Y-86897083D01*
X81981690Y-86680959D01*
X81769490Y-86535969D01*
X81517600Y-86484960D01*
X79282400Y-86484960D01*
X79105000Y-86518340D01*
X79105000Y-82135000D01*
X80200000Y-82135000D01*
X80266170Y-82121838D01*
X80333636Y-82121838D01*
X80716319Y-82045718D01*
X80963248Y-81943437D01*
X80963249Y-81943436D01*
X81287672Y-81726664D01*
X81476664Y-81537672D01*
X81693437Y-81213249D01*
X81736512Y-81109256D01*
X81795718Y-80966319D01*
X81871838Y-80583636D01*
X81871838Y-80516170D01*
X81885000Y-80450000D01*
X81885000Y-76135750D01*
X84565000Y-76135750D01*
X84565000Y-77476309D01*
X84661673Y-77709698D01*
X84840301Y-77888327D01*
X85073690Y-77985000D01*
X85514250Y-77985000D01*
X85673000Y-77826250D01*
X85673000Y-75977000D01*
X84723750Y-75977000D01*
X84565000Y-76135750D01*
X81885000Y-76135750D01*
X81885000Y-74223691D01*
X84565000Y-74223691D01*
X84565000Y-75564250D01*
X84723750Y-75723000D01*
X85673000Y-75723000D01*
X85673000Y-73873750D01*
X85514250Y-73715000D01*
X85073690Y-73715000D01*
X84840301Y-73811673D01*
X84661673Y-73990302D01*
X84565000Y-74223691D01*
X81885000Y-74223691D01*
X81885000Y-68774446D01*
X85480277Y-72369724D01*
G36*
X111844921Y-67405079D02*
X112099593Y-67575245D01*
X112400000Y-67635000D01*
X115800000Y-67635000D01*
X116100407Y-67575245D01*
X116142093Y-67547391D01*
X115965241Y-67973298D01*
X115964760Y-68524285D01*
X116175169Y-69033515D01*
X116564436Y-69423461D01*
X116565000Y-69423695D01*
X116565000Y-69600000D01*
X116624755Y-69900407D01*
X116794921Y-70155079D01*
X119044919Y-72405076D01*
X119044921Y-72405079D01*
X119237404Y-72533691D01*
X119299594Y-72575245D01*
X119600000Y-72635001D01*
X119600005Y-72635000D01*
X120297301Y-72635000D01*
X120642796Y-72981098D01*
X121133287Y-73184768D01*
X121664383Y-73185231D01*
X122155229Y-72982418D01*
X122531098Y-72607204D01*
X122734768Y-72116713D01*
X122735231Y-71585617D01*
X122532418Y-71094771D01*
X122157204Y-70718902D01*
X121666713Y-70515232D01*
X121135617Y-70514769D01*
X120644771Y-70717582D01*
X120296747Y-71065000D01*
X119925157Y-71065000D01*
X118209318Y-69349160D01*
X118523461Y-69035564D01*
X118599927Y-68851414D01*
X118675169Y-69033515D01*
X119064436Y-69423461D01*
X119573298Y-69634759D01*
X120124285Y-69635240D01*
X120633515Y-69424831D01*
X121023461Y-69035564D01*
X121044457Y-68985000D01*
X122800000Y-68985000D01*
X123081272Y-68929051D01*
X123319723Y-68769723D01*
X125544447Y-66545000D01*
X136938647Y-66545000D01*
X137155585Y-66869670D01*
X137470366Y-67080000D01*
X137155585Y-67290330D01*
X136887177Y-67692031D01*
X136680277Y-67830276D01*
X132880277Y-71630277D01*
X132720949Y-71868728D01*
X132665000Y-72150000D01*
X132665000Y-75745553D01*
X130095554Y-78315000D01*
X112061106Y-78315000D01*
X112234785Y-77896734D01*
X112235214Y-77405421D01*
X112047592Y-76951343D01*
X111700485Y-76603629D01*
X111335000Y-76451866D01*
X111335000Y-67250000D01*
X111279051Y-66968728D01*
X111200655Y-66851400D01*
X111119723Y-66730276D01*
X109834830Y-65445383D01*
X109834874Y-65395032D01*
X111844921Y-67405079D01*
X111844921Y-67405079D01*
G37*
X111844921Y-67405079D02*
X112099593Y-67575245D01*
X112400000Y-67635000D01*
X115800000Y-67635000D01*
X116100407Y-67575245D01*
X116142093Y-67547391D01*
X115965241Y-67973298D01*
X115964760Y-68524285D01*
X116175169Y-69033515D01*
X116564436Y-69423461D01*
X116565000Y-69423695D01*
X116565000Y-69600000D01*
X116624755Y-69900407D01*
X116794921Y-70155079D01*
X119044919Y-72405076D01*
X119044921Y-72405079D01*
X119237404Y-72533691D01*
X119299594Y-72575245D01*
X119600000Y-72635001D01*
X119600005Y-72635000D01*
X120297301Y-72635000D01*
X120642796Y-72981098D01*
X121133287Y-73184768D01*
X121664383Y-73185231D01*
X122155229Y-72982418D01*
X122531098Y-72607204D01*
X122734768Y-72116713D01*
X122735231Y-71585617D01*
X122532418Y-71094771D01*
X122157204Y-70718902D01*
X121666713Y-70515232D01*
X121135617Y-70514769D01*
X120644771Y-70717582D01*
X120296747Y-71065000D01*
X119925157Y-71065000D01*
X118209318Y-69349160D01*
X118523461Y-69035564D01*
X118599927Y-68851414D01*
X118675169Y-69033515D01*
X119064436Y-69423461D01*
X119573298Y-69634759D01*
X120124285Y-69635240D01*
X120633515Y-69424831D01*
X121023461Y-69035564D01*
X121044457Y-68985000D01*
X122800000Y-68985000D01*
X123081272Y-68929051D01*
X123319723Y-68769723D01*
X125544447Y-66545000D01*
X136938647Y-66545000D01*
X137155585Y-66869670D01*
X137470366Y-67080000D01*
X137155585Y-67290330D01*
X136887177Y-67692031D01*
X136680277Y-67830276D01*
X132880277Y-71630277D01*
X132720949Y-71868728D01*
X132665000Y-72150000D01*
X132665000Y-75745553D01*
X130095554Y-78315000D01*
X112061106Y-78315000D01*
X112234785Y-77896734D01*
X112235214Y-77405421D01*
X112047592Y-76951343D01*
X111700485Y-76603629D01*
X111335000Y-76451866D01*
X111335000Y-67250000D01*
X111279051Y-66968728D01*
X111200655Y-66851400D01*
X111119723Y-66730276D01*
X109834830Y-65445383D01*
X109834874Y-65395032D01*
X111844921Y-67405079D01*
G36*
X111953629Y-54549515D02*
X111765215Y-55003266D01*
X111764786Y-55494579D01*
X111814620Y-55615187D01*
X111355421Y-55614786D01*
X110901343Y-55802408D01*
X110553629Y-56149515D01*
X110547070Y-56165311D01*
X110518728Y-56170949D01*
X110280276Y-56330277D01*
X104280278Y-62330276D01*
X104280277Y-62330277D01*
X104120949Y-62568728D01*
X104065000Y-62850000D01*
X104065000Y-66250000D01*
X104119559Y-66524285D01*
X104120949Y-66531272D01*
X104280277Y-66769723D01*
X104565170Y-67054616D01*
X104564786Y-67494579D01*
X104752408Y-67948657D01*
X105099515Y-68296371D01*
X105553266Y-68484785D01*
X106044579Y-68485214D01*
X106498657Y-68297592D01*
X106846371Y-67950485D01*
X107034785Y-67496734D01*
X107035214Y-67005421D01*
X106847592Y-66551343D01*
X106618289Y-66321639D01*
X106955229Y-66182418D01*
X107024161Y-66113607D01*
X108051088Y-67140534D01*
X107901343Y-67202408D01*
X107553629Y-67549515D01*
X107365215Y-68003266D01*
X107364786Y-68494579D01*
X107552408Y-68948657D01*
X107806930Y-69203624D01*
X107495554Y-69515000D01*
X97735000Y-69515000D01*
X97735000Y-67861662D01*
X97846371Y-67750485D01*
X98034785Y-67296734D01*
X98035214Y-66805421D01*
X97847592Y-66351343D01*
X97500485Y-66003629D01*
X97046734Y-65815215D01*
X96555421Y-65814786D01*
X96101343Y-66002408D01*
X95753629Y-66349515D01*
X95565215Y-66803266D01*
X95564786Y-67294579D01*
X95752408Y-67748657D01*
X96099515Y-68096371D01*
X96265000Y-68165086D01*
X96265000Y-69515000D01*
X94544153Y-69515000D01*
X94634785Y-69296734D01*
X94635214Y-68805421D01*
X94447592Y-68351343D01*
X94100485Y-68003629D01*
X93646734Y-67815215D01*
X93155421Y-67814786D01*
X92701343Y-68002408D01*
X92388204Y-68315000D01*
X86704447Y-68315000D01*
X85335000Y-66945554D01*
X85335000Y-64250000D01*
X85279051Y-63968728D01*
X85119723Y-63730277D01*
X83935000Y-62545554D01*
X83935000Y-59450000D01*
X83879051Y-59168728D01*
X83839625Y-59109723D01*
X83719724Y-58930277D01*
X83029036Y-58239590D01*
X82820862Y-57735771D01*
X82405464Y-57319647D01*
X82819370Y-56906463D01*
X83049738Y-56351675D01*
X83050262Y-55750960D01*
X82820862Y-55195771D01*
X82492911Y-54867247D01*
X82925158Y-54435000D01*
X112068344Y-54435000D01*
X111953629Y-54549515D01*
X111953629Y-54549515D01*
G37*
X111953629Y-54549515D02*
X111765215Y-55003266D01*
X111764786Y-55494579D01*
X111814620Y-55615187D01*
X111355421Y-55614786D01*
X110901343Y-55802408D01*
X110553629Y-56149515D01*
X110547070Y-56165311D01*
X110518728Y-56170949D01*
X110280276Y-56330277D01*
X104280278Y-62330276D01*
X104280277Y-62330277D01*
X104120949Y-62568728D01*
X104065000Y-62850000D01*
X104065000Y-66250000D01*
X104119559Y-66524285D01*
X104120949Y-66531272D01*
X104280277Y-66769723D01*
X104565170Y-67054616D01*
X104564786Y-67494579D01*
X104752408Y-67948657D01*
X105099515Y-68296371D01*
X105553266Y-68484785D01*
X106044579Y-68485214D01*
X106498657Y-68297592D01*
X106846371Y-67950485D01*
X107034785Y-67496734D01*
X107035214Y-67005421D01*
X106847592Y-66551343D01*
X106618289Y-66321639D01*
X106955229Y-66182418D01*
X107024161Y-66113607D01*
X108051088Y-67140534D01*
X107901343Y-67202408D01*
X107553629Y-67549515D01*
X107365215Y-68003266D01*
X107364786Y-68494579D01*
X107552408Y-68948657D01*
X107806930Y-69203624D01*
X107495554Y-69515000D01*
X97735000Y-69515000D01*
X97735000Y-67861662D01*
X97846371Y-67750485D01*
X98034785Y-67296734D01*
X98035214Y-66805421D01*
X97847592Y-66351343D01*
X97500485Y-66003629D01*
X97046734Y-65815215D01*
X96555421Y-65814786D01*
X96101343Y-66002408D01*
X95753629Y-66349515D01*
X95565215Y-66803266D01*
X95564786Y-67294579D01*
X95752408Y-67748657D01*
X96099515Y-68096371D01*
X96265000Y-68165086D01*
X96265000Y-69515000D01*
X94544153Y-69515000D01*
X94634785Y-69296734D01*
X94635214Y-68805421D01*
X94447592Y-68351343D01*
X94100485Y-68003629D01*
X93646734Y-67815215D01*
X93155421Y-67814786D01*
X92701343Y-68002408D01*
X92388204Y-68315000D01*
X86704447Y-68315000D01*
X85335000Y-66945554D01*
X85335000Y-64250000D01*
X85279051Y-63968728D01*
X85119723Y-63730277D01*
X83935000Y-62545554D01*
X83935000Y-59450000D01*
X83879051Y-59168728D01*
X83839625Y-59109723D01*
X83719724Y-58930277D01*
X83029036Y-58239590D01*
X82820862Y-57735771D01*
X82405464Y-57319647D01*
X82819370Y-56906463D01*
X83049738Y-56351675D01*
X83050262Y-55750960D01*
X82820862Y-55195771D01*
X82492911Y-54867247D01*
X82925158Y-54435000D01*
X112068344Y-54435000D01*
X111953629Y-54549515D01*
G36*
X136811753Y-60251911D02*
X136716655Y-60730000D01*
X136830729Y-61303489D01*
X137155585Y-61789670D01*
X137470366Y-62000000D01*
X137155585Y-62210330D01*
X136830729Y-62696511D01*
X136716655Y-63270000D01*
X136830729Y-63843489D01*
X137155585Y-64329670D01*
X137470366Y-64540000D01*
X137155585Y-64750330D01*
X136938647Y-65075000D01*
X125240000Y-65075000D01*
X124958728Y-65130949D01*
X124720276Y-65290277D01*
X122495554Y-67515000D01*
X121044877Y-67515000D01*
X121024831Y-67466485D01*
X120808687Y-67249964D01*
X121023461Y-67035564D01*
X121234759Y-66526702D01*
X121235240Y-65975715D01*
X121024831Y-65466485D01*
X120808687Y-65249964D01*
X121023461Y-65035564D01*
X121044457Y-64985000D01*
X122600000Y-64985000D01*
X122881272Y-64929051D01*
X123119723Y-64769723D01*
X124219724Y-63669723D01*
X124379051Y-63431272D01*
X124391294Y-63369723D01*
X124435000Y-63150000D01*
X124435000Y-60550000D01*
X124379051Y-60268728D01*
X124304070Y-60156511D01*
X124219723Y-60030276D01*
X124034830Y-59845383D01*
X124035214Y-59405421D01*
X123847592Y-58951343D01*
X123500485Y-58603629D01*
X123046734Y-58415215D01*
X123035031Y-58415205D01*
X123035214Y-58205421D01*
X122847592Y-57751343D01*
X122500485Y-57403629D01*
X122046734Y-57215215D01*
X121555421Y-57214786D01*
X121101343Y-57402408D01*
X120996190Y-57507377D01*
X120821517Y-57458088D01*
X120029605Y-58250000D01*
X120043748Y-58264143D01*
X119864143Y-58443748D01*
X119850000Y-58429605D01*
X119301572Y-58978033D01*
X119066485Y-59075169D01*
X118676539Y-59464436D01*
X118600073Y-59648586D01*
X118524831Y-59466485D01*
X118308687Y-59249964D01*
X118523461Y-59035564D01*
X118593353Y-58867246D01*
X118637540Y-58973923D01*
X118878483Y-59041912D01*
X119670395Y-58250000D01*
X118878483Y-57458088D01*
X118637540Y-57526077D01*
X118596778Y-57640611D01*
X118524831Y-57466485D01*
X118337157Y-57278483D01*
X119058088Y-57278483D01*
X119850000Y-58070395D01*
X120641912Y-57278483D01*
X120573923Y-57037540D01*
X120054829Y-56852799D01*
X119504552Y-56880770D01*
X119126077Y-57037540D01*
X119058088Y-57278483D01*
X118337157Y-57278483D01*
X118135564Y-57076539D01*
X117626702Y-56865241D01*
X117075715Y-56864760D01*
X116566485Y-57075169D01*
X116176539Y-57464436D01*
X116155543Y-57515000D01*
X114304447Y-57515000D01*
X113735000Y-56945554D01*
X113735000Y-56261312D01*
X114046371Y-55950485D01*
X114234785Y-55496734D01*
X114235214Y-55005421D01*
X114047592Y-54551343D01*
X113931452Y-54435000D01*
X130994842Y-54435000D01*
X136811753Y-60251911D01*
X136811753Y-60251911D01*
G37*
X136811753Y-60251911D02*
X136716655Y-60730000D01*
X136830729Y-61303489D01*
X137155585Y-61789670D01*
X137470366Y-62000000D01*
X137155585Y-62210330D01*
X136830729Y-62696511D01*
X136716655Y-63270000D01*
X136830729Y-63843489D01*
X137155585Y-64329670D01*
X137470366Y-64540000D01*
X137155585Y-64750330D01*
X136938647Y-65075000D01*
X125240000Y-65075000D01*
X124958728Y-65130949D01*
X124720276Y-65290277D01*
X122495554Y-67515000D01*
X121044877Y-67515000D01*
X121024831Y-67466485D01*
X120808687Y-67249964D01*
X121023461Y-67035564D01*
X121234759Y-66526702D01*
X121235240Y-65975715D01*
X121024831Y-65466485D01*
X120808687Y-65249964D01*
X121023461Y-65035564D01*
X121044457Y-64985000D01*
X122600000Y-64985000D01*
X122881272Y-64929051D01*
X123119723Y-64769723D01*
X124219724Y-63669723D01*
X124379051Y-63431272D01*
X124391294Y-63369723D01*
X124435000Y-63150000D01*
X124435000Y-60550000D01*
X124379051Y-60268728D01*
X124304070Y-60156511D01*
X124219723Y-60030276D01*
X124034830Y-59845383D01*
X124035214Y-59405421D01*
X123847592Y-58951343D01*
X123500485Y-58603629D01*
X123046734Y-58415215D01*
X123035031Y-58415205D01*
X123035214Y-58205421D01*
X122847592Y-57751343D01*
X122500485Y-57403629D01*
X122046734Y-57215215D01*
X121555421Y-57214786D01*
X121101343Y-57402408D01*
X120996190Y-57507377D01*
X120821517Y-57458088D01*
X120029605Y-58250000D01*
X120043748Y-58264143D01*
X119864143Y-58443748D01*
X119850000Y-58429605D01*
X119301572Y-58978033D01*
X119066485Y-59075169D01*
X118676539Y-59464436D01*
X118600073Y-59648586D01*
X118524831Y-59466485D01*
X118308687Y-59249964D01*
X118523461Y-59035564D01*
X118593353Y-58867246D01*
X118637540Y-58973923D01*
X118878483Y-59041912D01*
X119670395Y-58250000D01*
X118878483Y-57458088D01*
X118637540Y-57526077D01*
X118596778Y-57640611D01*
X118524831Y-57466485D01*
X118337157Y-57278483D01*
X119058088Y-57278483D01*
X119850000Y-58070395D01*
X120641912Y-57278483D01*
X120573923Y-57037540D01*
X120054829Y-56852799D01*
X119504552Y-56880770D01*
X119126077Y-57037540D01*
X119058088Y-57278483D01*
X118337157Y-57278483D01*
X118135564Y-57076539D01*
X117626702Y-56865241D01*
X117075715Y-56864760D01*
X116566485Y-57075169D01*
X116176539Y-57464436D01*
X116155543Y-57515000D01*
X114304447Y-57515000D01*
X113735000Y-56945554D01*
X113735000Y-56261312D01*
X114046371Y-55950485D01*
X114234785Y-55496734D01*
X114235214Y-55005421D01*
X114047592Y-54551343D01*
X113931452Y-54435000D01*
X130994842Y-54435000D01*
X136811753Y-60251911D01*
G36*
X112480277Y-57769723D02*
X113480277Y-58769724D01*
X113658847Y-58889040D01*
X113718728Y-58929051D01*
X114000000Y-58985000D01*
X116155123Y-58985000D01*
X116175169Y-59033515D01*
X116391313Y-59250036D01*
X116176539Y-59464436D01*
X116155543Y-59515000D01*
X115600000Y-59515000D01*
X115329894Y-59568728D01*
X115318728Y-59570949D01*
X115080276Y-59730277D01*
X113880277Y-60930277D01*
X113815968Y-61026522D01*
X113719723Y-60930277D01*
X113481272Y-60770949D01*
X113453402Y-60765405D01*
X113447592Y-60751343D01*
X113100485Y-60403629D01*
X112646734Y-60215215D01*
X112155421Y-60214786D01*
X111701343Y-60402408D01*
X111353629Y-60749515D01*
X111165215Y-61203266D01*
X111164786Y-61694579D01*
X111352408Y-62148657D01*
X111699515Y-62496371D01*
X112153266Y-62684785D01*
X112644579Y-62685214D01*
X112865000Y-62594138D01*
X112865000Y-64638688D01*
X112553629Y-64949515D01*
X112365215Y-65403266D01*
X112364952Y-65704794D01*
X108955079Y-62294921D01*
X108700407Y-62124755D01*
X108400000Y-62065000D01*
X106800000Y-62065000D01*
X106580855Y-62108591D01*
X110846342Y-57843105D01*
X110899515Y-57896371D01*
X111353266Y-58084785D01*
X111844579Y-58085214D01*
X112298657Y-57897592D01*
X112458859Y-57737669D01*
X112480277Y-57769723D01*
X112480277Y-57769723D01*
G37*
X112480277Y-57769723D02*
X113480277Y-58769724D01*
X113658847Y-58889040D01*
X113718728Y-58929051D01*
X114000000Y-58985000D01*
X116155123Y-58985000D01*
X116175169Y-59033515D01*
X116391313Y-59250036D01*
X116176539Y-59464436D01*
X116155543Y-59515000D01*
X115600000Y-59515000D01*
X115329894Y-59568728D01*
X115318728Y-59570949D01*
X115080276Y-59730277D01*
X113880277Y-60930277D01*
X113815968Y-61026522D01*
X113719723Y-60930277D01*
X113481272Y-60770949D01*
X113453402Y-60765405D01*
X113447592Y-60751343D01*
X113100485Y-60403629D01*
X112646734Y-60215215D01*
X112155421Y-60214786D01*
X111701343Y-60402408D01*
X111353629Y-60749515D01*
X111165215Y-61203266D01*
X111164786Y-61694579D01*
X111352408Y-62148657D01*
X111699515Y-62496371D01*
X112153266Y-62684785D01*
X112644579Y-62685214D01*
X112865000Y-62594138D01*
X112865000Y-64638688D01*
X112553629Y-64949515D01*
X112365215Y-65403266D01*
X112364952Y-65704794D01*
X108955079Y-62294921D01*
X108700407Y-62124755D01*
X108400000Y-62065000D01*
X106800000Y-62065000D01*
X106580855Y-62108591D01*
X110846342Y-57843105D01*
X110899515Y-57896371D01*
X111353266Y-58084785D01*
X111844579Y-58085214D01*
X112298657Y-57897592D01*
X112458859Y-57737669D01*
X112480277Y-57769723D01*
G36*
X81667000Y-61003000D02*
X81687000Y-61003000D01*
X81687000Y-61257000D01*
X81667000Y-61257000D01*
X81667000Y-61277000D01*
X81413000Y-61277000D01*
X81413000Y-61257000D01*
X81393000Y-61257000D01*
X81393000Y-61003000D01*
X81413000Y-61003000D01*
X81413000Y-60983000D01*
X81667000Y-60983000D01*
X81667000Y-61003000D01*
X81667000Y-61003000D01*
G37*
X81667000Y-61003000D02*
X81687000Y-61003000D01*
X81687000Y-61257000D01*
X81667000Y-61257000D01*
X81667000Y-61277000D01*
X81413000Y-61277000D01*
X81413000Y-61257000D01*
X81393000Y-61257000D01*
X81393000Y-61003000D01*
X81413000Y-61003000D01*
X81413000Y-60983000D01*
X81667000Y-60983000D01*
X81667000Y-61003000D01*
G36*
X88570500Y-45446450D02*
X88729250Y-45605200D01*
X89523000Y-45605200D01*
X89523000Y-45585200D01*
X89777000Y-45585200D01*
X89777000Y-45605200D01*
X90570750Y-45605200D01*
X90729500Y-45446450D01*
X90729500Y-45135000D01*
X91098060Y-45135000D01*
X91098060Y-46307822D01*
X91049009Y-46381232D01*
X90955000Y-46853846D01*
X90955000Y-47106154D01*
X91049009Y-47578768D01*
X91316723Y-47979431D01*
X91717386Y-48247145D01*
X92190000Y-48341154D01*
X92662614Y-48247145D01*
X93063277Y-47979431D01*
X93330991Y-47578768D01*
X93425000Y-47106154D01*
X93425000Y-46853846D01*
X93330991Y-46381232D01*
X93281940Y-46307822D01*
X93281940Y-45135000D01*
X93638060Y-45135000D01*
X93638060Y-46307822D01*
X93589009Y-46381232D01*
X93495000Y-46853846D01*
X93495000Y-47106154D01*
X93589009Y-47578768D01*
X93856723Y-47979431D01*
X94257386Y-48247145D01*
X94730000Y-48341154D01*
X95202614Y-48247145D01*
X95603277Y-47979431D01*
X95870991Y-47578768D01*
X95965000Y-47106154D01*
X95965000Y-46853846D01*
X95870991Y-46381232D01*
X95821940Y-46307822D01*
X95821940Y-45135000D01*
X96178060Y-45135000D01*
X96178060Y-46307822D01*
X96129009Y-46381232D01*
X96035000Y-46853846D01*
X96035000Y-47106154D01*
X96129009Y-47578768D01*
X96396723Y-47979431D01*
X96797386Y-48247145D01*
X97270000Y-48341154D01*
X97742614Y-48247145D01*
X98143277Y-47979431D01*
X98410991Y-47578768D01*
X98505000Y-47106154D01*
X98505000Y-46853846D01*
X98466512Y-46660353D01*
X98595799Y-46660353D01*
X98735137Y-46853000D01*
X98795238Y-46853000D01*
X98827173Y-46930099D01*
X99004075Y-47107000D01*
X98735137Y-47107000D01*
X98595799Y-47299647D01*
X98772280Y-47747582D01*
X99106744Y-48093884D01*
X99492391Y-48273462D01*
X99683000Y-48148731D01*
X99683000Y-47107000D01*
X99622650Y-47107000D01*
X99683000Y-47046650D01*
X99683000Y-45811269D01*
X99937000Y-45811269D01*
X99937000Y-47046650D01*
X99997350Y-47107000D01*
X99937000Y-47107000D01*
X99937000Y-48148731D01*
X100127609Y-48273462D01*
X100513256Y-48093884D01*
X100847720Y-47747582D01*
X101024201Y-47299647D01*
X100884863Y-47107000D01*
X100615925Y-47107000D01*
X100792827Y-46930099D01*
X100824762Y-46853000D01*
X100884863Y-46853000D01*
X101024201Y-46660353D01*
X100889500Y-46318462D01*
X100889500Y-46017950D01*
X100730750Y-45859200D01*
X100498404Y-45859200D01*
X100127609Y-45686538D01*
X99937000Y-45811269D01*
X99683000Y-45811269D01*
X99492391Y-45686538D01*
X99121596Y-45859200D01*
X98889250Y-45859200D01*
X98730500Y-46017950D01*
X98730500Y-46318462D01*
X98595799Y-46660353D01*
X98466512Y-46660353D01*
X98410991Y-46381232D01*
X98361940Y-46307822D01*
X98361940Y-45135000D01*
X98730500Y-45135000D01*
X98730500Y-45446450D01*
X98889250Y-45605200D01*
X99683000Y-45605200D01*
X99683000Y-45585200D01*
X99937000Y-45585200D01*
X99937000Y-45605200D01*
X100730750Y-45605200D01*
X100889500Y-45446450D01*
X100889500Y-45135000D01*
X101258060Y-45135000D01*
X101258060Y-46307822D01*
X101209009Y-46381232D01*
X101115000Y-46853846D01*
X101115000Y-47106154D01*
X101209009Y-47578768D01*
X101476723Y-47979431D01*
X101877386Y-48247145D01*
X102350000Y-48341154D01*
X102822614Y-48247145D01*
X103223277Y-47979431D01*
X103490991Y-47578768D01*
X103585000Y-47106154D01*
X103585000Y-46853846D01*
X103490991Y-46381232D01*
X103441940Y-46307822D01*
X103441940Y-45135000D01*
X103798060Y-45135000D01*
X103798060Y-46307822D01*
X103749009Y-46381232D01*
X103655000Y-46853846D01*
X103655000Y-47106154D01*
X103749009Y-47578768D01*
X104016723Y-47979431D01*
X104417386Y-48247145D01*
X104890000Y-48341154D01*
X105362614Y-48247145D01*
X105763277Y-47979431D01*
X106030991Y-47578768D01*
X106125000Y-47106154D01*
X106125000Y-46853846D01*
X106086512Y-46660353D01*
X106215799Y-46660353D01*
X106355137Y-46853000D01*
X106415238Y-46853000D01*
X106447173Y-46930099D01*
X106624075Y-47107000D01*
X106355137Y-47107000D01*
X106215799Y-47299647D01*
X106392280Y-47747582D01*
X106726744Y-48093884D01*
X107112391Y-48273462D01*
X107303000Y-48148731D01*
X107303000Y-47107000D01*
X107242650Y-47107000D01*
X107303000Y-47046650D01*
X107303000Y-45811269D01*
X107557000Y-45811269D01*
X107557000Y-47046650D01*
X107617350Y-47107000D01*
X107557000Y-47107000D01*
X107557000Y-48148731D01*
X107747609Y-48273462D01*
X108133256Y-48093884D01*
X108467720Y-47747582D01*
X108644201Y-47299647D01*
X108504863Y-47107000D01*
X108235925Y-47107000D01*
X108412827Y-46930099D01*
X108444762Y-46853000D01*
X108504863Y-46853000D01*
X108644201Y-46660353D01*
X108509500Y-46318462D01*
X108509500Y-46017950D01*
X108350750Y-45859200D01*
X108118404Y-45859200D01*
X107747609Y-45686538D01*
X107557000Y-45811269D01*
X107303000Y-45811269D01*
X107112391Y-45686538D01*
X106741596Y-45859200D01*
X106509250Y-45859200D01*
X106350500Y-46017950D01*
X106350500Y-46318462D01*
X106215799Y-46660353D01*
X106086512Y-46660353D01*
X106030991Y-46381232D01*
X105981940Y-46307822D01*
X105981940Y-45135000D01*
X106350500Y-45135000D01*
X106350500Y-45446450D01*
X106509250Y-45605200D01*
X107303000Y-45605200D01*
X107303000Y-45585200D01*
X107557000Y-45585200D01*
X107557000Y-45605200D01*
X108350750Y-45605200D01*
X108509500Y-45446450D01*
X108509500Y-45135000D01*
X108878060Y-45135000D01*
X108878060Y-46307822D01*
X108829009Y-46381232D01*
X108735000Y-46853846D01*
X108735000Y-47106154D01*
X108829009Y-47578768D01*
X109096723Y-47979431D01*
X109497386Y-48247145D01*
X109970000Y-48341154D01*
X110442614Y-48247145D01*
X110843277Y-47979431D01*
X111110991Y-47578768D01*
X111205000Y-47106154D01*
X111205000Y-46853846D01*
X111110991Y-46381232D01*
X111061940Y-46307822D01*
X111061940Y-45135000D01*
X111418060Y-45135000D01*
X111418060Y-46307822D01*
X111369009Y-46381232D01*
X111275000Y-46853846D01*
X111275000Y-47106154D01*
X111369009Y-47578768D01*
X111636723Y-47979431D01*
X112037386Y-48247145D01*
X112510000Y-48341154D01*
X112982614Y-48247145D01*
X113383277Y-47979431D01*
X113650991Y-47578768D01*
X113745000Y-47106154D01*
X113745000Y-46853846D01*
X113650991Y-46381232D01*
X113601940Y-46307822D01*
X113601940Y-45135000D01*
X113958060Y-45135000D01*
X113958060Y-46307822D01*
X113909009Y-46381232D01*
X113815000Y-46853846D01*
X113815000Y-47106154D01*
X113909009Y-47578768D01*
X114176723Y-47979431D01*
X114577386Y-48247145D01*
X115050000Y-48341154D01*
X115522614Y-48247145D01*
X115923277Y-47979431D01*
X116190991Y-47578768D01*
X116285000Y-47106154D01*
X116285000Y-46853846D01*
X116190991Y-46381232D01*
X116141940Y-46307822D01*
X116141940Y-45135000D01*
X116498060Y-45135000D01*
X116498060Y-46307822D01*
X116449009Y-46381232D01*
X116355000Y-46853846D01*
X116355000Y-47106154D01*
X116449009Y-47578768D01*
X116716723Y-47979431D01*
X117117386Y-48247145D01*
X117590000Y-48341154D01*
X118062614Y-48247145D01*
X118463277Y-47979431D01*
X118730991Y-47578768D01*
X118825000Y-47106154D01*
X118825000Y-46853846D01*
X118786512Y-46660353D01*
X118915799Y-46660353D01*
X119055137Y-46853000D01*
X119115238Y-46853000D01*
X119147173Y-46930099D01*
X119324075Y-47107000D01*
X119055137Y-47107000D01*
X118915799Y-47299647D01*
X119092280Y-47747582D01*
X119426744Y-48093884D01*
X119812391Y-48273462D01*
X120003000Y-48148731D01*
X120003000Y-47107000D01*
X119942650Y-47107000D01*
X120003000Y-47046650D01*
X120003000Y-45811269D01*
X120257000Y-45811269D01*
X120257000Y-47046650D01*
X120317350Y-47107000D01*
X120257000Y-47107000D01*
X120257000Y-48148731D01*
X120447609Y-48273462D01*
X120833256Y-48093884D01*
X121167720Y-47747582D01*
X121344201Y-47299647D01*
X121204863Y-47107000D01*
X120935925Y-47107000D01*
X121112827Y-46930099D01*
X121144762Y-46853000D01*
X121204863Y-46853000D01*
X121344201Y-46660353D01*
X121209500Y-46318462D01*
X121209500Y-46017950D01*
X121050750Y-45859200D01*
X120818404Y-45859200D01*
X120447609Y-45686538D01*
X120257000Y-45811269D01*
X120003000Y-45811269D01*
X119812391Y-45686538D01*
X119441596Y-45859200D01*
X119209250Y-45859200D01*
X119050500Y-46017950D01*
X119050500Y-46318462D01*
X118915799Y-46660353D01*
X118786512Y-46660353D01*
X118730991Y-46381232D01*
X118681940Y-46307822D01*
X118681940Y-45135000D01*
X119050500Y-45135000D01*
X119050500Y-45446450D01*
X119209250Y-45605200D01*
X120003000Y-45605200D01*
X120003000Y-45585200D01*
X120257000Y-45585200D01*
X120257000Y-45605200D01*
X121050750Y-45605200D01*
X121209500Y-45446450D01*
X121209500Y-45135000D01*
X121578060Y-45135000D01*
X121578060Y-46307822D01*
X121529009Y-46381232D01*
X121435000Y-46853846D01*
X121435000Y-47106154D01*
X121529009Y-47578768D01*
X121796723Y-47979431D01*
X122197386Y-48247145D01*
X122670000Y-48341154D01*
X123142614Y-48247145D01*
X123543277Y-47979431D01*
X123810991Y-47578768D01*
X123905000Y-47106154D01*
X123905000Y-46853846D01*
X123866512Y-46660353D01*
X123995799Y-46660353D01*
X124135137Y-46853000D01*
X124195238Y-46853000D01*
X124227173Y-46930099D01*
X124404075Y-47107000D01*
X124135137Y-47107000D01*
X123995799Y-47299647D01*
X124172280Y-47747582D01*
X124506744Y-48093884D01*
X124892391Y-48273462D01*
X125083000Y-48148731D01*
X125083000Y-47107000D01*
X125022650Y-47107000D01*
X125083000Y-47046650D01*
X125083000Y-45811269D01*
X125337000Y-45811269D01*
X125337000Y-47046650D01*
X125397350Y-47107000D01*
X125337000Y-47107000D01*
X125337000Y-48148731D01*
X125527609Y-48273462D01*
X125913256Y-48093884D01*
X126247720Y-47747582D01*
X126424201Y-47299647D01*
X126284863Y-47107000D01*
X126015925Y-47107000D01*
X126192827Y-46930099D01*
X126224762Y-46853000D01*
X126284863Y-46853000D01*
X126424201Y-46660353D01*
X126289500Y-46318462D01*
X126289500Y-46017950D01*
X126130750Y-45859200D01*
X125898404Y-45859200D01*
X125527609Y-45686538D01*
X125337000Y-45811269D01*
X125083000Y-45811269D01*
X124892391Y-45686538D01*
X124521596Y-45859200D01*
X124289250Y-45859200D01*
X124130500Y-46017950D01*
X124130500Y-46318462D01*
X123995799Y-46660353D01*
X123866512Y-46660353D01*
X123810991Y-46381232D01*
X123761940Y-46307822D01*
X123761940Y-45135000D01*
X124130500Y-45135000D01*
X124130500Y-45446450D01*
X124289250Y-45605200D01*
X125083000Y-45605200D01*
X125083000Y-45585200D01*
X125337000Y-45585200D01*
X125337000Y-45605200D01*
X126130750Y-45605200D01*
X126289500Y-45446450D01*
X126289500Y-45135000D01*
X126658060Y-45135000D01*
X126658060Y-46307822D01*
X126609009Y-46381232D01*
X126515000Y-46853846D01*
X126515000Y-47106154D01*
X126609009Y-47578768D01*
X126876723Y-47979431D01*
X127277386Y-48247145D01*
X127750000Y-48341154D01*
X128222614Y-48247145D01*
X128623277Y-47979431D01*
X128890991Y-47578768D01*
X128985000Y-47106154D01*
X128985000Y-46853846D01*
X128890991Y-46381232D01*
X128841940Y-46307822D01*
X128841940Y-45135000D01*
X129198060Y-45135000D01*
X129198060Y-46307822D01*
X129149009Y-46381232D01*
X129055000Y-46853846D01*
X129055000Y-47106154D01*
X129149009Y-47578768D01*
X129416723Y-47979431D01*
X129817386Y-48247145D01*
X130036138Y-48290658D01*
X130035860Y-48609398D01*
X129817386Y-48652855D01*
X129416723Y-48920569D01*
X129149009Y-49321232D01*
X129055000Y-49793846D01*
X129055000Y-50046154D01*
X129149009Y-50518768D01*
X129198060Y-50592178D01*
X129198060Y-52006000D01*
X129242338Y-52241317D01*
X129381410Y-52457441D01*
X129593610Y-52602431D01*
X129845500Y-52653440D01*
X130734500Y-52653440D01*
X130969817Y-52609162D01*
X131185941Y-52470090D01*
X131330931Y-52257890D01*
X131381940Y-52006000D01*
X131381940Y-51453550D01*
X131750500Y-51453550D01*
X131750500Y-52132310D01*
X131847173Y-52365699D01*
X132025802Y-52544327D01*
X132259191Y-52641000D01*
X132544250Y-52641000D01*
X132703000Y-52482250D01*
X132703000Y-51294800D01*
X132957000Y-51294800D01*
X132957000Y-52482250D01*
X133115750Y-52641000D01*
X133400809Y-52641000D01*
X133634198Y-52544327D01*
X133812827Y-52365699D01*
X133909500Y-52132310D01*
X133909500Y-51453550D01*
X133750750Y-51294800D01*
X132957000Y-51294800D01*
X132703000Y-51294800D01*
X131909250Y-51294800D01*
X131750500Y-51453550D01*
X131381940Y-51453550D01*
X131381940Y-50592178D01*
X131430991Y-50518768D01*
X131525000Y-50046154D01*
X131525000Y-49973970D01*
X131595000Y-49974031D01*
X131595000Y-50047002D01*
X131755136Y-50047002D01*
X131615799Y-50239647D01*
X131750500Y-50581538D01*
X131750500Y-50882050D01*
X131909250Y-51040800D01*
X132141596Y-51040800D01*
X132512391Y-51213462D01*
X132703000Y-51088731D01*
X132703000Y-49853350D01*
X132683000Y-49833350D01*
X132683000Y-49793000D01*
X132703000Y-49793000D01*
X132703000Y-49773000D01*
X132957000Y-49773000D01*
X132957000Y-49793000D01*
X133017350Y-49793000D01*
X132957000Y-49853350D01*
X132957000Y-51088731D01*
X133147609Y-51213462D01*
X133518404Y-51040800D01*
X133750750Y-51040800D01*
X133909500Y-50882050D01*
X133909500Y-50581538D01*
X134044201Y-50239647D01*
X133904863Y-50047000D01*
X133844762Y-50047000D01*
X133812827Y-49969901D01*
X133635925Y-49793000D01*
X133904863Y-49793000D01*
X134044201Y-49600353D01*
X133867720Y-49152418D01*
X133533256Y-48806116D01*
X133147609Y-48626538D01*
X133083810Y-48668287D01*
X133084140Y-48290602D01*
X133302614Y-48247145D01*
X133703277Y-47979431D01*
X133970991Y-47578768D01*
X134065000Y-47106154D01*
X134065000Y-46853846D01*
X133970991Y-46381232D01*
X133921940Y-46307822D01*
X133921940Y-45307941D01*
X133964008Y-45350009D01*
X134229824Y-45871702D01*
X134323000Y-46459992D01*
X134323000Y-49421573D01*
X134324086Y-49438150D01*
X134392234Y-49955788D01*
X134400815Y-49987812D01*
X134600616Y-50470174D01*
X134617193Y-50498886D01*
X134935030Y-50913099D01*
X134945983Y-50925589D01*
X135324411Y-51304017D01*
X135343657Y-51319811D01*
X135992503Y-51753356D01*
X136038284Y-51772319D01*
X136803651Y-51924560D01*
X136828427Y-51927000D01*
X139190008Y-51927000D01*
X139778298Y-52020176D01*
X140299991Y-52285992D01*
X140515000Y-52501001D01*
X140515000Y-61254842D01*
X140067884Y-60807726D01*
X140083345Y-60730000D01*
X139969271Y-60156511D01*
X139644415Y-59670330D01*
X139329634Y-59460000D01*
X139644415Y-59249670D01*
X139969271Y-58763489D01*
X140083345Y-58190000D01*
X139969271Y-57616511D01*
X139644415Y-57130330D01*
X139622220Y-57115500D01*
X139775698Y-57051927D01*
X139954327Y-56873299D01*
X140051000Y-56639910D01*
X140051000Y-55935750D01*
X139892250Y-55777000D01*
X138527000Y-55777000D01*
X138527000Y-55797000D01*
X138273000Y-55797000D01*
X138273000Y-55777000D01*
X136907750Y-55777000D01*
X136749000Y-55935750D01*
X136749000Y-56639910D01*
X136845673Y-56873299D01*
X137024302Y-57051927D01*
X137177780Y-57115500D01*
X137155585Y-57130330D01*
X136830729Y-57616511D01*
X136758714Y-57978556D01*
X133440248Y-54660090D01*
X136749000Y-54660090D01*
X136749000Y-55364250D01*
X136907750Y-55523000D01*
X138273000Y-55523000D01*
X138273000Y-54310150D01*
X138527000Y-54310150D01*
X138527000Y-55523000D01*
X139892250Y-55523000D01*
X140051000Y-55364250D01*
X140051000Y-54660090D01*
X139954327Y-54426701D01*
X139775698Y-54248073D01*
X139542309Y-54151400D01*
X138685750Y-54151400D01*
X138527000Y-54310150D01*
X138273000Y-54310150D01*
X138114250Y-54151400D01*
X137257691Y-54151400D01*
X137024302Y-54248073D01*
X136845673Y-54426701D01*
X136749000Y-54660090D01*
X133440248Y-54660090D01*
X131875079Y-53094921D01*
X131620407Y-52924755D01*
X131320000Y-52865000D01*
X82600000Y-52865000D01*
X82299593Y-52924755D01*
X82044921Y-53094921D01*
X80984921Y-54154921D01*
X80814755Y-54409593D01*
X80788763Y-54540262D01*
X80755000Y-54710000D01*
X80755000Y-54740533D01*
X80685771Y-54769138D01*
X80269647Y-55184536D01*
X79856463Y-54770630D01*
X79301675Y-54540262D01*
X78700960Y-54539738D01*
X78145771Y-54769138D01*
X77720630Y-55193537D01*
X77490262Y-55748325D01*
X77489738Y-56349040D01*
X77719138Y-56904229D01*
X78134536Y-57320353D01*
X77720630Y-57733537D01*
X77490262Y-58288325D01*
X77490059Y-58520494D01*
X76885000Y-59125554D01*
X76885000Y-52027000D01*
X80121573Y-52027000D01*
X80138150Y-52025914D01*
X80655788Y-51957766D01*
X80687812Y-51949185D01*
X81170174Y-51749384D01*
X81198886Y-51732807D01*
X81613099Y-51414970D01*
X81625589Y-51404017D01*
X82939803Y-50089803D01*
X82967666Y-50047789D01*
X82968609Y-50042777D01*
X82976887Y-50040917D01*
X83025755Y-50002313D01*
X83039320Y-49984635D01*
X83055898Y-49955923D01*
X83064425Y-49935337D01*
X83073006Y-49903311D01*
X83075914Y-49881220D01*
X83077000Y-49864645D01*
X83077000Y-46459992D01*
X83170176Y-45871702D01*
X83435992Y-45350009D01*
X83478060Y-45307941D01*
X83478060Y-46307822D01*
X83429009Y-46381232D01*
X83335000Y-46853846D01*
X83335000Y-47106154D01*
X83429009Y-47578768D01*
X83696723Y-47979431D01*
X84097386Y-48247145D01*
X84316138Y-48290658D01*
X84315860Y-48609398D01*
X84097386Y-48652855D01*
X83696723Y-48920569D01*
X83429009Y-49321232D01*
X83335000Y-49793846D01*
X83335000Y-50046154D01*
X83429009Y-50518768D01*
X83478060Y-50592178D01*
X83478060Y-52006000D01*
X83522338Y-52241317D01*
X83661410Y-52457441D01*
X83873610Y-52602431D01*
X84125500Y-52653440D01*
X85014500Y-52653440D01*
X85249817Y-52609162D01*
X85465941Y-52470090D01*
X85610931Y-52257890D01*
X85661940Y-52006000D01*
X85661940Y-50592178D01*
X85710991Y-50518768D01*
X85805000Y-50046154D01*
X85805000Y-49973970D01*
X85875000Y-49974031D01*
X85875000Y-50046154D01*
X85969009Y-50518768D01*
X86018060Y-50592178D01*
X86018060Y-52006000D01*
X86062338Y-52241317D01*
X86201410Y-52457441D01*
X86413610Y-52602431D01*
X86665500Y-52653440D01*
X87554500Y-52653440D01*
X87789817Y-52609162D01*
X88005941Y-52470090D01*
X88150931Y-52257890D01*
X88201940Y-52006000D01*
X88201940Y-50592178D01*
X88250991Y-50518768D01*
X88345000Y-50046154D01*
X88345000Y-49793846D01*
X88415000Y-49793846D01*
X88415000Y-50046154D01*
X88509009Y-50518768D01*
X88558060Y-50592178D01*
X88558060Y-52006000D01*
X88602338Y-52241317D01*
X88741410Y-52457441D01*
X88953610Y-52602431D01*
X89205500Y-52653440D01*
X90094500Y-52653440D01*
X90329817Y-52609162D01*
X90545941Y-52470090D01*
X90690931Y-52257890D01*
X90741940Y-52006000D01*
X90741940Y-50592178D01*
X90790991Y-50518768D01*
X90885000Y-50046154D01*
X90885000Y-49793846D01*
X90955000Y-49793846D01*
X90955000Y-50046154D01*
X91049009Y-50518768D01*
X91098060Y-50592178D01*
X91098060Y-52006000D01*
X91142338Y-52241317D01*
X91281410Y-52457441D01*
X91493610Y-52602431D01*
X91745500Y-52653440D01*
X92634500Y-52653440D01*
X92869817Y-52609162D01*
X93085941Y-52470090D01*
X93230931Y-52257890D01*
X93281940Y-52006000D01*
X93281940Y-51453550D01*
X93650500Y-51453550D01*
X93650500Y-52132310D01*
X93747173Y-52365699D01*
X93925802Y-52544327D01*
X94159191Y-52641000D01*
X94444250Y-52641000D01*
X94603000Y-52482250D01*
X94603000Y-51294800D01*
X94857000Y-51294800D01*
X94857000Y-52482250D01*
X95015750Y-52641000D01*
X95300809Y-52641000D01*
X95534198Y-52544327D01*
X95712827Y-52365699D01*
X95809500Y-52132310D01*
X95809500Y-51453550D01*
X95650750Y-51294800D01*
X94857000Y-51294800D01*
X94603000Y-51294800D01*
X93809250Y-51294800D01*
X93650500Y-51453550D01*
X93281940Y-51453550D01*
X93281940Y-50592178D01*
X93330991Y-50518768D01*
X93425000Y-50046154D01*
X93425000Y-49793846D01*
X93386512Y-49600353D01*
X93515799Y-49600353D01*
X93655137Y-49793000D01*
X93924075Y-49793000D01*
X93747173Y-49969901D01*
X93715238Y-50047000D01*
X93655137Y-50047000D01*
X93515799Y-50239647D01*
X93650500Y-50581538D01*
X93650500Y-50882050D01*
X93809250Y-51040800D01*
X94041596Y-51040800D01*
X94412391Y-51213462D01*
X94603000Y-51088731D01*
X94603000Y-49853350D01*
X94542650Y-49793000D01*
X94603000Y-49793000D01*
X94603000Y-48751269D01*
X94857000Y-48751269D01*
X94857000Y-49793000D01*
X94917350Y-49793000D01*
X94857000Y-49853350D01*
X94857000Y-51088731D01*
X95047609Y-51213462D01*
X95418404Y-51040800D01*
X95650750Y-51040800D01*
X95809500Y-50882050D01*
X95809500Y-50581538D01*
X95944201Y-50239647D01*
X95804863Y-50047000D01*
X95744762Y-50047000D01*
X95712827Y-49969901D01*
X95536772Y-49793846D01*
X96035000Y-49793846D01*
X96035000Y-50046154D01*
X96129009Y-50518768D01*
X96178060Y-50592178D01*
X96178060Y-52006000D01*
X96222338Y-52241317D01*
X96361410Y-52457441D01*
X96573610Y-52602431D01*
X96825500Y-52653440D01*
X97714500Y-52653440D01*
X97949817Y-52609162D01*
X98165941Y-52470090D01*
X98310931Y-52257890D01*
X98361940Y-52006000D01*
X98361940Y-50592178D01*
X98410991Y-50518768D01*
X98505000Y-50046154D01*
X98505000Y-49793846D01*
X98575000Y-49793846D01*
X98575000Y-50046154D01*
X98669009Y-50518768D01*
X98718060Y-50592178D01*
X98718060Y-52006000D01*
X98762338Y-52241317D01*
X98901410Y-52457441D01*
X99113610Y-52602431D01*
X99365500Y-52653440D01*
X100254500Y-52653440D01*
X100489817Y-52609162D01*
X100705941Y-52470090D01*
X100850931Y-52257890D01*
X100901940Y-52006000D01*
X100901940Y-50592178D01*
X100950991Y-50518768D01*
X101045000Y-50046154D01*
X101045000Y-49793846D01*
X101115000Y-49793846D01*
X101115000Y-50046154D01*
X101209009Y-50518768D01*
X101258060Y-50592178D01*
X101258060Y-52006000D01*
X101302338Y-52241317D01*
X101441410Y-52457441D01*
X101653610Y-52602431D01*
X101905500Y-52653440D01*
X102794500Y-52653440D01*
X103029817Y-52609162D01*
X103245941Y-52470090D01*
X103390931Y-52257890D01*
X103441940Y-52006000D01*
X103441940Y-50592178D01*
X103490991Y-50518768D01*
X103585000Y-50046154D01*
X103585000Y-49793846D01*
X103655000Y-49793846D01*
X103655000Y-50046154D01*
X103749009Y-50518768D01*
X103798060Y-50592178D01*
X103798060Y-52006000D01*
X103842338Y-52241317D01*
X103981410Y-52457441D01*
X104193610Y-52602431D01*
X104445500Y-52653440D01*
X105334500Y-52653440D01*
X105569817Y-52609162D01*
X105785941Y-52470090D01*
X105930931Y-52257890D01*
X105981940Y-52006000D01*
X105981940Y-50592178D01*
X106030991Y-50518768D01*
X106125000Y-50046154D01*
X106125000Y-49793846D01*
X106195000Y-49793846D01*
X106195000Y-50046154D01*
X106289009Y-50518768D01*
X106338060Y-50592178D01*
X106338060Y-52006000D01*
X106382338Y-52241317D01*
X106521410Y-52457441D01*
X106733610Y-52602431D01*
X106985500Y-52653440D01*
X107874500Y-52653440D01*
X108109817Y-52609162D01*
X108325941Y-52470090D01*
X108470931Y-52257890D01*
X108521940Y-52006000D01*
X108521940Y-50592178D01*
X108570991Y-50518768D01*
X108665000Y-50046154D01*
X108665000Y-49793846D01*
X108735000Y-49793846D01*
X108735000Y-50046154D01*
X108829009Y-50518768D01*
X108878060Y-50592178D01*
X108878060Y-52006000D01*
X108922338Y-52241317D01*
X109061410Y-52457441D01*
X109273610Y-52602431D01*
X109525500Y-52653440D01*
X110414500Y-52653440D01*
X110649817Y-52609162D01*
X110865941Y-52470090D01*
X111010931Y-52257890D01*
X111061940Y-52006000D01*
X111061940Y-50592178D01*
X111110991Y-50518768D01*
X111205000Y-50046154D01*
X111205000Y-49793846D01*
X111275000Y-49793846D01*
X111275000Y-50046154D01*
X111369009Y-50518768D01*
X111418060Y-50592178D01*
X111418060Y-52006000D01*
X111462338Y-52241317D01*
X111601410Y-52457441D01*
X111813610Y-52602431D01*
X112065500Y-52653440D01*
X112954500Y-52653440D01*
X113189817Y-52609162D01*
X113405941Y-52470090D01*
X113550931Y-52257890D01*
X113601940Y-52006000D01*
X113601940Y-51453550D01*
X113970500Y-51453550D01*
X113970500Y-52132310D01*
X114067173Y-52365699D01*
X114245802Y-52544327D01*
X114479191Y-52641000D01*
X114764250Y-52641000D01*
X114923000Y-52482250D01*
X114923000Y-51294800D01*
X115177000Y-51294800D01*
X115177000Y-52482250D01*
X115335750Y-52641000D01*
X115620809Y-52641000D01*
X115854198Y-52544327D01*
X116032827Y-52365699D01*
X116129500Y-52132310D01*
X116129500Y-51453550D01*
X115970750Y-51294800D01*
X115177000Y-51294800D01*
X114923000Y-51294800D01*
X114129250Y-51294800D01*
X113970500Y-51453550D01*
X113601940Y-51453550D01*
X113601940Y-50592178D01*
X113650991Y-50518768D01*
X113745000Y-50046154D01*
X113745000Y-49793846D01*
X113706512Y-49600353D01*
X113835799Y-49600353D01*
X113975137Y-49793000D01*
X114244075Y-49793000D01*
X114067173Y-49969901D01*
X114035238Y-50047000D01*
X113975137Y-50047000D01*
X113835799Y-50239647D01*
X113970500Y-50581538D01*
X113970500Y-50882050D01*
X114129250Y-51040800D01*
X114361596Y-51040800D01*
X114732391Y-51213462D01*
X114923000Y-51088731D01*
X114923000Y-49853350D01*
X114862650Y-49793000D01*
X114923000Y-49793000D01*
X114923000Y-48751269D01*
X115177000Y-48751269D01*
X115177000Y-49793000D01*
X115237350Y-49793000D01*
X115177000Y-49853350D01*
X115177000Y-51088731D01*
X115367609Y-51213462D01*
X115738404Y-51040800D01*
X115970750Y-51040800D01*
X116129500Y-50882050D01*
X116129500Y-50581538D01*
X116264201Y-50239647D01*
X116124863Y-50047000D01*
X116064762Y-50047000D01*
X116032827Y-49969901D01*
X115856772Y-49793846D01*
X116355000Y-49793846D01*
X116355000Y-50046154D01*
X116449009Y-50518768D01*
X116498060Y-50592178D01*
X116498060Y-52006000D01*
X116542338Y-52241317D01*
X116681410Y-52457441D01*
X116893610Y-52602431D01*
X117145500Y-52653440D01*
X118034500Y-52653440D01*
X118269817Y-52609162D01*
X118485941Y-52470090D01*
X118630931Y-52257890D01*
X118681940Y-52006000D01*
X118681940Y-50592178D01*
X118730991Y-50518768D01*
X118825000Y-50046154D01*
X118825000Y-49793846D01*
X118895000Y-49793846D01*
X118895000Y-50046154D01*
X118989009Y-50518768D01*
X119038060Y-50592178D01*
X119038060Y-52006000D01*
X119082338Y-52241317D01*
X119221410Y-52457441D01*
X119433610Y-52602431D01*
X119685500Y-52653440D01*
X120574500Y-52653440D01*
X120809817Y-52609162D01*
X121025941Y-52470090D01*
X121170931Y-52257890D01*
X121221940Y-52006000D01*
X121221940Y-50592178D01*
X121270991Y-50518768D01*
X121365000Y-50046154D01*
X121365000Y-49793846D01*
X121435000Y-49793846D01*
X121435000Y-50046154D01*
X121529009Y-50518768D01*
X121578060Y-50592178D01*
X121578060Y-52006000D01*
X121622338Y-52241317D01*
X121761410Y-52457441D01*
X121973610Y-52602431D01*
X122225500Y-52653440D01*
X123114500Y-52653440D01*
X123349817Y-52609162D01*
X123565941Y-52470090D01*
X123710931Y-52257890D01*
X123761940Y-52006000D01*
X123761940Y-50592178D01*
X123810991Y-50518768D01*
X123905000Y-50046154D01*
X123905000Y-49793846D01*
X123975000Y-49793846D01*
X123975000Y-50046154D01*
X124069009Y-50518768D01*
X124118060Y-50592178D01*
X124118060Y-52006000D01*
X124162338Y-52241317D01*
X124301410Y-52457441D01*
X124513610Y-52602431D01*
X124765500Y-52653440D01*
X125654500Y-52653440D01*
X125889817Y-52609162D01*
X126105941Y-52470090D01*
X126250931Y-52257890D01*
X126301940Y-52006000D01*
X126301940Y-50592178D01*
X126350991Y-50518768D01*
X126445000Y-50046154D01*
X126445000Y-49793846D01*
X126515000Y-49793846D01*
X126515000Y-50046154D01*
X126609009Y-50518768D01*
X126658060Y-50592178D01*
X126658060Y-52006000D01*
X126702338Y-52241317D01*
X126841410Y-52457441D01*
X127053610Y-52602431D01*
X127305500Y-52653440D01*
X128194500Y-52653440D01*
X128429817Y-52609162D01*
X128645941Y-52470090D01*
X128790931Y-52257890D01*
X128841940Y-52006000D01*
X128841940Y-50592178D01*
X128890991Y-50518768D01*
X128985000Y-50046154D01*
X128985000Y-49793846D01*
X128890991Y-49321232D01*
X128623277Y-48920569D01*
X128222614Y-48652855D01*
X127750000Y-48558846D01*
X127277386Y-48652855D01*
X126876723Y-48920569D01*
X126609009Y-49321232D01*
X126515000Y-49793846D01*
X126445000Y-49793846D01*
X126350991Y-49321232D01*
X126083277Y-48920569D01*
X125682614Y-48652855D01*
X125210000Y-48558846D01*
X124737386Y-48652855D01*
X124336723Y-48920569D01*
X124069009Y-49321232D01*
X123975000Y-49793846D01*
X123905000Y-49793846D01*
X123810991Y-49321232D01*
X123543277Y-48920569D01*
X123142614Y-48652855D01*
X122670000Y-48558846D01*
X122197386Y-48652855D01*
X121796723Y-48920569D01*
X121529009Y-49321232D01*
X121435000Y-49793846D01*
X121365000Y-49793846D01*
X121270991Y-49321232D01*
X121003277Y-48920569D01*
X120602614Y-48652855D01*
X120130000Y-48558846D01*
X119657386Y-48652855D01*
X119256723Y-48920569D01*
X118989009Y-49321232D01*
X118895000Y-49793846D01*
X118825000Y-49793846D01*
X118730991Y-49321232D01*
X118463277Y-48920569D01*
X118062614Y-48652855D01*
X117590000Y-48558846D01*
X117117386Y-48652855D01*
X116716723Y-48920569D01*
X116449009Y-49321232D01*
X116355000Y-49793846D01*
X115856772Y-49793846D01*
X115855925Y-49793000D01*
X116124863Y-49793000D01*
X116264201Y-49600353D01*
X116087720Y-49152418D01*
X115753256Y-48806116D01*
X115367609Y-48626538D01*
X115177000Y-48751269D01*
X114923000Y-48751269D01*
X114732391Y-48626538D01*
X114346744Y-48806116D01*
X114012280Y-49152418D01*
X113835799Y-49600353D01*
X113706512Y-49600353D01*
X113650991Y-49321232D01*
X113383277Y-48920569D01*
X112982614Y-48652855D01*
X112510000Y-48558846D01*
X112037386Y-48652855D01*
X111636723Y-48920569D01*
X111369009Y-49321232D01*
X111275000Y-49793846D01*
X111205000Y-49793846D01*
X111110991Y-49321232D01*
X110843277Y-48920569D01*
X110442614Y-48652855D01*
X109970000Y-48558846D01*
X109497386Y-48652855D01*
X109096723Y-48920569D01*
X108829009Y-49321232D01*
X108735000Y-49793846D01*
X108665000Y-49793846D01*
X108570991Y-49321232D01*
X108303277Y-48920569D01*
X107902614Y-48652855D01*
X107430000Y-48558846D01*
X106957386Y-48652855D01*
X106556723Y-48920569D01*
X106289009Y-49321232D01*
X106195000Y-49793846D01*
X106125000Y-49793846D01*
X106030991Y-49321232D01*
X105763277Y-48920569D01*
X105362614Y-48652855D01*
X104890000Y-48558846D01*
X104417386Y-48652855D01*
X104016723Y-48920569D01*
X103749009Y-49321232D01*
X103655000Y-49793846D01*
X103585000Y-49793846D01*
X103490991Y-49321232D01*
X103223277Y-48920569D01*
X102822614Y-48652855D01*
X102350000Y-48558846D01*
X101877386Y-48652855D01*
X101476723Y-48920569D01*
X101209009Y-49321232D01*
X101115000Y-49793846D01*
X101045000Y-49793846D01*
X100950991Y-49321232D01*
X100683277Y-48920569D01*
X100282614Y-48652855D01*
X99810000Y-48558846D01*
X99337386Y-48652855D01*
X98936723Y-48920569D01*
X98669009Y-49321232D01*
X98575000Y-49793846D01*
X98505000Y-49793846D01*
X98410991Y-49321232D01*
X98143277Y-48920569D01*
X97742614Y-48652855D01*
X97270000Y-48558846D01*
X96797386Y-48652855D01*
X96396723Y-48920569D01*
X96129009Y-49321232D01*
X96035000Y-49793846D01*
X95536772Y-49793846D01*
X95535925Y-49793000D01*
X95804863Y-49793000D01*
X95944201Y-49600353D01*
X95767720Y-49152418D01*
X95433256Y-48806116D01*
X95047609Y-48626538D01*
X94857000Y-48751269D01*
X94603000Y-48751269D01*
X94412391Y-48626538D01*
X94026744Y-48806116D01*
X93692280Y-49152418D01*
X93515799Y-49600353D01*
X93386512Y-49600353D01*
X93330991Y-49321232D01*
X93063277Y-48920569D01*
X92662614Y-48652855D01*
X92190000Y-48558846D01*
X91717386Y-48652855D01*
X91316723Y-48920569D01*
X91049009Y-49321232D01*
X90955000Y-49793846D01*
X90885000Y-49793846D01*
X90790991Y-49321232D01*
X90523277Y-48920569D01*
X90122614Y-48652855D01*
X89650000Y-48558846D01*
X89177386Y-48652855D01*
X88776723Y-48920569D01*
X88509009Y-49321232D01*
X88415000Y-49793846D01*
X88345000Y-49793846D01*
X88250991Y-49321232D01*
X87983277Y-48920569D01*
X87582614Y-48652855D01*
X87363862Y-48609342D01*
X87364140Y-48290602D01*
X87582614Y-48247145D01*
X87983277Y-47979431D01*
X88250991Y-47578768D01*
X88345000Y-47106154D01*
X88345000Y-46853846D01*
X88306512Y-46660353D01*
X88435799Y-46660353D01*
X88575137Y-46853000D01*
X88635238Y-46853000D01*
X88667173Y-46930099D01*
X88844075Y-47107000D01*
X88575137Y-47107000D01*
X88435799Y-47299647D01*
X88612280Y-47747582D01*
X88946744Y-48093884D01*
X89332391Y-48273462D01*
X89523000Y-48148731D01*
X89523000Y-47107000D01*
X89462650Y-47107000D01*
X89523000Y-47046650D01*
X89523000Y-45811269D01*
X89777000Y-45811269D01*
X89777000Y-47046650D01*
X89837350Y-47107000D01*
X89777000Y-47107000D01*
X89777000Y-48148731D01*
X89967609Y-48273462D01*
X90353256Y-48093884D01*
X90687720Y-47747582D01*
X90864201Y-47299647D01*
X90724863Y-47107000D01*
X90455925Y-47107000D01*
X90632827Y-46930099D01*
X90664762Y-46853000D01*
X90724863Y-46853000D01*
X90864201Y-46660353D01*
X90729500Y-46318462D01*
X90729500Y-46017950D01*
X90570750Y-45859200D01*
X90338404Y-45859200D01*
X89967609Y-45686538D01*
X89777000Y-45811269D01*
X89523000Y-45811269D01*
X89332391Y-45686538D01*
X88961596Y-45859200D01*
X88729250Y-45859200D01*
X88570500Y-46017950D01*
X88570500Y-46318462D01*
X88435799Y-46660353D01*
X88306512Y-46660353D01*
X88250991Y-46381232D01*
X88201940Y-46307822D01*
X88201940Y-45135000D01*
X88570500Y-45135000D01*
X88570500Y-45446450D01*
X88570500Y-45446450D01*
G37*
X88570500Y-45446450D02*
X88729250Y-45605200D01*
X89523000Y-45605200D01*
X89523000Y-45585200D01*
X89777000Y-45585200D01*
X89777000Y-45605200D01*
X90570750Y-45605200D01*
X90729500Y-45446450D01*
X90729500Y-45135000D01*
X91098060Y-45135000D01*
X91098060Y-46307822D01*
X91049009Y-46381232D01*
X90955000Y-46853846D01*
X90955000Y-47106154D01*
X91049009Y-47578768D01*
X91316723Y-47979431D01*
X91717386Y-48247145D01*
X92190000Y-48341154D01*
X92662614Y-48247145D01*
X93063277Y-47979431D01*
X93330991Y-47578768D01*
X93425000Y-47106154D01*
X93425000Y-46853846D01*
X93330991Y-46381232D01*
X93281940Y-46307822D01*
X93281940Y-45135000D01*
X93638060Y-45135000D01*
X93638060Y-46307822D01*
X93589009Y-46381232D01*
X93495000Y-46853846D01*
X93495000Y-47106154D01*
X93589009Y-47578768D01*
X93856723Y-47979431D01*
X94257386Y-48247145D01*
X94730000Y-48341154D01*
X95202614Y-48247145D01*
X95603277Y-47979431D01*
X95870991Y-47578768D01*
X95965000Y-47106154D01*
X95965000Y-46853846D01*
X95870991Y-46381232D01*
X95821940Y-46307822D01*
X95821940Y-45135000D01*
X96178060Y-45135000D01*
X96178060Y-46307822D01*
X96129009Y-46381232D01*
X96035000Y-46853846D01*
X96035000Y-47106154D01*
X96129009Y-47578768D01*
X96396723Y-47979431D01*
X96797386Y-48247145D01*
X97270000Y-48341154D01*
X97742614Y-48247145D01*
X98143277Y-47979431D01*
X98410991Y-47578768D01*
X98505000Y-47106154D01*
X98505000Y-46853846D01*
X98466512Y-46660353D01*
X98595799Y-46660353D01*
X98735137Y-46853000D01*
X98795238Y-46853000D01*
X98827173Y-46930099D01*
X99004075Y-47107000D01*
X98735137Y-47107000D01*
X98595799Y-47299647D01*
X98772280Y-47747582D01*
X99106744Y-48093884D01*
X99492391Y-48273462D01*
X99683000Y-48148731D01*
X99683000Y-47107000D01*
X99622650Y-47107000D01*
X99683000Y-47046650D01*
X99683000Y-45811269D01*
X99937000Y-45811269D01*
X99937000Y-47046650D01*
X99997350Y-47107000D01*
X99937000Y-47107000D01*
X99937000Y-48148731D01*
X100127609Y-48273462D01*
X100513256Y-48093884D01*
X100847720Y-47747582D01*
X101024201Y-47299647D01*
X100884863Y-47107000D01*
X100615925Y-47107000D01*
X100792827Y-46930099D01*
X100824762Y-46853000D01*
X100884863Y-46853000D01*
X101024201Y-46660353D01*
X100889500Y-46318462D01*
X100889500Y-46017950D01*
X100730750Y-45859200D01*
X100498404Y-45859200D01*
X100127609Y-45686538D01*
X99937000Y-45811269D01*
X99683000Y-45811269D01*
X99492391Y-45686538D01*
X99121596Y-45859200D01*
X98889250Y-45859200D01*
X98730500Y-46017950D01*
X98730500Y-46318462D01*
X98595799Y-46660353D01*
X98466512Y-46660353D01*
X98410991Y-46381232D01*
X98361940Y-46307822D01*
X98361940Y-45135000D01*
X98730500Y-45135000D01*
X98730500Y-45446450D01*
X98889250Y-45605200D01*
X99683000Y-45605200D01*
X99683000Y-45585200D01*
X99937000Y-45585200D01*
X99937000Y-45605200D01*
X100730750Y-45605200D01*
X100889500Y-45446450D01*
X100889500Y-45135000D01*
X101258060Y-45135000D01*
X101258060Y-46307822D01*
X101209009Y-46381232D01*
X101115000Y-46853846D01*
X101115000Y-47106154D01*
X101209009Y-47578768D01*
X101476723Y-47979431D01*
X101877386Y-48247145D01*
X102350000Y-48341154D01*
X102822614Y-48247145D01*
X103223277Y-47979431D01*
X103490991Y-47578768D01*
X103585000Y-47106154D01*
X103585000Y-46853846D01*
X103490991Y-46381232D01*
X103441940Y-46307822D01*
X103441940Y-45135000D01*
X103798060Y-45135000D01*
X103798060Y-46307822D01*
X103749009Y-46381232D01*
X103655000Y-46853846D01*
X103655000Y-47106154D01*
X103749009Y-47578768D01*
X104016723Y-47979431D01*
X104417386Y-48247145D01*
X104890000Y-48341154D01*
X105362614Y-48247145D01*
X105763277Y-47979431D01*
X106030991Y-47578768D01*
X106125000Y-47106154D01*
X106125000Y-46853846D01*
X106086512Y-46660353D01*
X106215799Y-46660353D01*
X106355137Y-46853000D01*
X106415238Y-46853000D01*
X106447173Y-46930099D01*
X106624075Y-47107000D01*
X106355137Y-47107000D01*
X106215799Y-47299647D01*
X106392280Y-47747582D01*
X106726744Y-48093884D01*
X107112391Y-48273462D01*
X107303000Y-48148731D01*
X107303000Y-47107000D01*
X107242650Y-47107000D01*
X107303000Y-47046650D01*
X107303000Y-45811269D01*
X107557000Y-45811269D01*
X107557000Y-47046650D01*
X107617350Y-47107000D01*
X107557000Y-47107000D01*
X107557000Y-48148731D01*
X107747609Y-48273462D01*
X108133256Y-48093884D01*
X108467720Y-47747582D01*
X108644201Y-47299647D01*
X108504863Y-47107000D01*
X108235925Y-47107000D01*
X108412827Y-46930099D01*
X108444762Y-46853000D01*
X108504863Y-46853000D01*
X108644201Y-46660353D01*
X108509500Y-46318462D01*
X108509500Y-46017950D01*
X108350750Y-45859200D01*
X108118404Y-45859200D01*
X107747609Y-45686538D01*
X107557000Y-45811269D01*
X107303000Y-45811269D01*
X107112391Y-45686538D01*
X106741596Y-45859200D01*
X106509250Y-45859200D01*
X106350500Y-46017950D01*
X106350500Y-46318462D01*
X106215799Y-46660353D01*
X106086512Y-46660353D01*
X106030991Y-46381232D01*
X105981940Y-46307822D01*
X105981940Y-45135000D01*
X106350500Y-45135000D01*
X106350500Y-45446450D01*
X106509250Y-45605200D01*
X107303000Y-45605200D01*
X107303000Y-45585200D01*
X107557000Y-45585200D01*
X107557000Y-45605200D01*
X108350750Y-45605200D01*
X108509500Y-45446450D01*
X108509500Y-45135000D01*
X108878060Y-45135000D01*
X108878060Y-46307822D01*
X108829009Y-46381232D01*
X108735000Y-46853846D01*
X108735000Y-47106154D01*
X108829009Y-47578768D01*
X109096723Y-47979431D01*
X109497386Y-48247145D01*
X109970000Y-48341154D01*
X110442614Y-48247145D01*
X110843277Y-47979431D01*
X111110991Y-47578768D01*
X111205000Y-47106154D01*
X111205000Y-46853846D01*
X111110991Y-46381232D01*
X111061940Y-46307822D01*
X111061940Y-45135000D01*
X111418060Y-45135000D01*
X111418060Y-46307822D01*
X111369009Y-46381232D01*
X111275000Y-46853846D01*
X111275000Y-47106154D01*
X111369009Y-47578768D01*
X111636723Y-47979431D01*
X112037386Y-48247145D01*
X112510000Y-48341154D01*
X112982614Y-48247145D01*
X113383277Y-47979431D01*
X113650991Y-47578768D01*
X113745000Y-47106154D01*
X113745000Y-46853846D01*
X113650991Y-46381232D01*
X113601940Y-46307822D01*
X113601940Y-45135000D01*
X113958060Y-45135000D01*
X113958060Y-46307822D01*
X113909009Y-46381232D01*
X113815000Y-46853846D01*
X113815000Y-47106154D01*
X113909009Y-47578768D01*
X114176723Y-47979431D01*
X114577386Y-48247145D01*
X115050000Y-48341154D01*
X115522614Y-48247145D01*
X115923277Y-47979431D01*
X116190991Y-47578768D01*
X116285000Y-47106154D01*
X116285000Y-46853846D01*
X116190991Y-46381232D01*
X116141940Y-46307822D01*
X116141940Y-45135000D01*
X116498060Y-45135000D01*
X116498060Y-46307822D01*
X116449009Y-46381232D01*
X116355000Y-46853846D01*
X116355000Y-47106154D01*
X116449009Y-47578768D01*
X116716723Y-47979431D01*
X117117386Y-48247145D01*
X117590000Y-48341154D01*
X118062614Y-48247145D01*
X118463277Y-47979431D01*
X118730991Y-47578768D01*
X118825000Y-47106154D01*
X118825000Y-46853846D01*
X118786512Y-46660353D01*
X118915799Y-46660353D01*
X119055137Y-46853000D01*
X119115238Y-46853000D01*
X119147173Y-46930099D01*
X119324075Y-47107000D01*
X119055137Y-47107000D01*
X118915799Y-47299647D01*
X119092280Y-47747582D01*
X119426744Y-48093884D01*
X119812391Y-48273462D01*
X120003000Y-48148731D01*
X120003000Y-47107000D01*
X119942650Y-47107000D01*
X120003000Y-47046650D01*
X120003000Y-45811269D01*
X120257000Y-45811269D01*
X120257000Y-47046650D01*
X120317350Y-47107000D01*
X120257000Y-47107000D01*
X120257000Y-48148731D01*
X120447609Y-48273462D01*
X120833256Y-48093884D01*
X121167720Y-47747582D01*
X121344201Y-47299647D01*
X121204863Y-47107000D01*
X120935925Y-47107000D01*
X121112827Y-46930099D01*
X121144762Y-46853000D01*
X121204863Y-46853000D01*
X121344201Y-46660353D01*
X121209500Y-46318462D01*
X121209500Y-46017950D01*
X121050750Y-45859200D01*
X120818404Y-45859200D01*
X120447609Y-45686538D01*
X120257000Y-45811269D01*
X120003000Y-45811269D01*
X119812391Y-45686538D01*
X119441596Y-45859200D01*
X119209250Y-45859200D01*
X119050500Y-46017950D01*
X119050500Y-46318462D01*
X118915799Y-46660353D01*
X118786512Y-46660353D01*
X118730991Y-46381232D01*
X118681940Y-46307822D01*
X118681940Y-45135000D01*
X119050500Y-45135000D01*
X119050500Y-45446450D01*
X119209250Y-45605200D01*
X120003000Y-45605200D01*
X120003000Y-45585200D01*
X120257000Y-45585200D01*
X120257000Y-45605200D01*
X121050750Y-45605200D01*
X121209500Y-45446450D01*
X121209500Y-45135000D01*
X121578060Y-45135000D01*
X121578060Y-46307822D01*
X121529009Y-46381232D01*
X121435000Y-46853846D01*
X121435000Y-47106154D01*
X121529009Y-47578768D01*
X121796723Y-47979431D01*
X122197386Y-48247145D01*
X122670000Y-48341154D01*
X123142614Y-48247145D01*
X123543277Y-47979431D01*
X123810991Y-47578768D01*
X123905000Y-47106154D01*
X123905000Y-46853846D01*
X123866512Y-46660353D01*
X123995799Y-46660353D01*
X124135137Y-46853000D01*
X124195238Y-46853000D01*
X124227173Y-46930099D01*
X124404075Y-47107000D01*
X124135137Y-47107000D01*
X123995799Y-47299647D01*
X124172280Y-47747582D01*
X124506744Y-48093884D01*
X124892391Y-48273462D01*
X125083000Y-48148731D01*
X125083000Y-47107000D01*
X125022650Y-47107000D01*
X125083000Y-47046650D01*
X125083000Y-45811269D01*
X125337000Y-45811269D01*
X125337000Y-47046650D01*
X125397350Y-47107000D01*
X125337000Y-47107000D01*
X125337000Y-48148731D01*
X125527609Y-48273462D01*
X125913256Y-48093884D01*
X126247720Y-47747582D01*
X126424201Y-47299647D01*
X126284863Y-47107000D01*
X126015925Y-47107000D01*
X126192827Y-46930099D01*
X126224762Y-46853000D01*
X126284863Y-46853000D01*
X126424201Y-46660353D01*
X126289500Y-46318462D01*
X126289500Y-46017950D01*
X126130750Y-45859200D01*
X125898404Y-45859200D01*
X125527609Y-45686538D01*
X125337000Y-45811269D01*
X125083000Y-45811269D01*
X124892391Y-45686538D01*
X124521596Y-45859200D01*
X124289250Y-45859200D01*
X124130500Y-46017950D01*
X124130500Y-46318462D01*
X123995799Y-46660353D01*
X123866512Y-46660353D01*
X123810991Y-46381232D01*
X123761940Y-46307822D01*
X123761940Y-45135000D01*
X124130500Y-45135000D01*
X124130500Y-45446450D01*
X124289250Y-45605200D01*
X125083000Y-45605200D01*
X125083000Y-45585200D01*
X125337000Y-45585200D01*
X125337000Y-45605200D01*
X126130750Y-45605200D01*
X126289500Y-45446450D01*
X126289500Y-45135000D01*
X126658060Y-45135000D01*
X126658060Y-46307822D01*
X126609009Y-46381232D01*
X126515000Y-46853846D01*
X126515000Y-47106154D01*
X126609009Y-47578768D01*
X126876723Y-47979431D01*
X127277386Y-48247145D01*
X127750000Y-48341154D01*
X128222614Y-48247145D01*
X128623277Y-47979431D01*
X128890991Y-47578768D01*
X128985000Y-47106154D01*
X128985000Y-46853846D01*
X128890991Y-46381232D01*
X128841940Y-46307822D01*
X128841940Y-45135000D01*
X129198060Y-45135000D01*
X129198060Y-46307822D01*
X129149009Y-46381232D01*
X129055000Y-46853846D01*
X129055000Y-47106154D01*
X129149009Y-47578768D01*
X129416723Y-47979431D01*
X129817386Y-48247145D01*
X130036138Y-48290658D01*
X130035860Y-48609398D01*
X129817386Y-48652855D01*
X129416723Y-48920569D01*
X129149009Y-49321232D01*
X129055000Y-49793846D01*
X129055000Y-50046154D01*
X129149009Y-50518768D01*
X129198060Y-50592178D01*
X129198060Y-52006000D01*
X129242338Y-52241317D01*
X129381410Y-52457441D01*
X129593610Y-52602431D01*
X129845500Y-52653440D01*
X130734500Y-52653440D01*
X130969817Y-52609162D01*
X131185941Y-52470090D01*
X131330931Y-52257890D01*
X131381940Y-52006000D01*
X131381940Y-51453550D01*
X131750500Y-51453550D01*
X131750500Y-52132310D01*
X131847173Y-52365699D01*
X132025802Y-52544327D01*
X132259191Y-52641000D01*
X132544250Y-52641000D01*
X132703000Y-52482250D01*
X132703000Y-51294800D01*
X132957000Y-51294800D01*
X132957000Y-52482250D01*
X133115750Y-52641000D01*
X133400809Y-52641000D01*
X133634198Y-52544327D01*
X133812827Y-52365699D01*
X133909500Y-52132310D01*
X133909500Y-51453550D01*
X133750750Y-51294800D01*
X132957000Y-51294800D01*
X132703000Y-51294800D01*
X131909250Y-51294800D01*
X131750500Y-51453550D01*
X131381940Y-51453550D01*
X131381940Y-50592178D01*
X131430991Y-50518768D01*
X131525000Y-50046154D01*
X131525000Y-49973970D01*
X131595000Y-49974031D01*
X131595000Y-50047002D01*
X131755136Y-50047002D01*
X131615799Y-50239647D01*
X131750500Y-50581538D01*
X131750500Y-50882050D01*
X131909250Y-51040800D01*
X132141596Y-51040800D01*
X132512391Y-51213462D01*
X132703000Y-51088731D01*
X132703000Y-49853350D01*
X132683000Y-49833350D01*
X132683000Y-49793000D01*
X132703000Y-49793000D01*
X132703000Y-49773000D01*
X132957000Y-49773000D01*
X132957000Y-49793000D01*
X133017350Y-49793000D01*
X132957000Y-49853350D01*
X132957000Y-51088731D01*
X133147609Y-51213462D01*
X133518404Y-51040800D01*
X133750750Y-51040800D01*
X133909500Y-50882050D01*
X133909500Y-50581538D01*
X134044201Y-50239647D01*
X133904863Y-50047000D01*
X133844762Y-50047000D01*
X133812827Y-49969901D01*
X133635925Y-49793000D01*
X133904863Y-49793000D01*
X134044201Y-49600353D01*
X133867720Y-49152418D01*
X133533256Y-48806116D01*
X133147609Y-48626538D01*
X133083810Y-48668287D01*
X133084140Y-48290602D01*
X133302614Y-48247145D01*
X133703277Y-47979431D01*
X133970991Y-47578768D01*
X134065000Y-47106154D01*
X134065000Y-46853846D01*
X133970991Y-46381232D01*
X133921940Y-46307822D01*
X133921940Y-45307941D01*
X133964008Y-45350009D01*
X134229824Y-45871702D01*
X134323000Y-46459992D01*
X134323000Y-49421573D01*
X134324086Y-49438150D01*
X134392234Y-49955788D01*
X134400815Y-49987812D01*
X134600616Y-50470174D01*
X134617193Y-50498886D01*
X134935030Y-50913099D01*
X134945983Y-50925589D01*
X135324411Y-51304017D01*
X135343657Y-51319811D01*
X135992503Y-51753356D01*
X136038284Y-51772319D01*
X136803651Y-51924560D01*
X136828427Y-51927000D01*
X139190008Y-51927000D01*
X139778298Y-52020176D01*
X140299991Y-52285992D01*
X140515000Y-52501001D01*
X140515000Y-61254842D01*
X140067884Y-60807726D01*
X140083345Y-60730000D01*
X139969271Y-60156511D01*
X139644415Y-59670330D01*
X139329634Y-59460000D01*
X139644415Y-59249670D01*
X139969271Y-58763489D01*
X140083345Y-58190000D01*
X139969271Y-57616511D01*
X139644415Y-57130330D01*
X139622220Y-57115500D01*
X139775698Y-57051927D01*
X139954327Y-56873299D01*
X140051000Y-56639910D01*
X140051000Y-55935750D01*
X139892250Y-55777000D01*
X138527000Y-55777000D01*
X138527000Y-55797000D01*
X138273000Y-55797000D01*
X138273000Y-55777000D01*
X136907750Y-55777000D01*
X136749000Y-55935750D01*
X136749000Y-56639910D01*
X136845673Y-56873299D01*
X137024302Y-57051927D01*
X137177780Y-57115500D01*
X137155585Y-57130330D01*
X136830729Y-57616511D01*
X136758714Y-57978556D01*
X133440248Y-54660090D01*
X136749000Y-54660090D01*
X136749000Y-55364250D01*
X136907750Y-55523000D01*
X138273000Y-55523000D01*
X138273000Y-54310150D01*
X138527000Y-54310150D01*
X138527000Y-55523000D01*
X139892250Y-55523000D01*
X140051000Y-55364250D01*
X140051000Y-54660090D01*
X139954327Y-54426701D01*
X139775698Y-54248073D01*
X139542309Y-54151400D01*
X138685750Y-54151400D01*
X138527000Y-54310150D01*
X138273000Y-54310150D01*
X138114250Y-54151400D01*
X137257691Y-54151400D01*
X137024302Y-54248073D01*
X136845673Y-54426701D01*
X136749000Y-54660090D01*
X133440248Y-54660090D01*
X131875079Y-53094921D01*
X131620407Y-52924755D01*
X131320000Y-52865000D01*
X82600000Y-52865000D01*
X82299593Y-52924755D01*
X82044921Y-53094921D01*
X80984921Y-54154921D01*
X80814755Y-54409593D01*
X80788763Y-54540262D01*
X80755000Y-54710000D01*
X80755000Y-54740533D01*
X80685771Y-54769138D01*
X80269647Y-55184536D01*
X79856463Y-54770630D01*
X79301675Y-54540262D01*
X78700960Y-54539738D01*
X78145771Y-54769138D01*
X77720630Y-55193537D01*
X77490262Y-55748325D01*
X77489738Y-56349040D01*
X77719138Y-56904229D01*
X78134536Y-57320353D01*
X77720630Y-57733537D01*
X77490262Y-58288325D01*
X77490059Y-58520494D01*
X76885000Y-59125554D01*
X76885000Y-52027000D01*
X80121573Y-52027000D01*
X80138150Y-52025914D01*
X80655788Y-51957766D01*
X80687812Y-51949185D01*
X81170174Y-51749384D01*
X81198886Y-51732807D01*
X81613099Y-51414970D01*
X81625589Y-51404017D01*
X82939803Y-50089803D01*
X82967666Y-50047789D01*
X82968609Y-50042777D01*
X82976887Y-50040917D01*
X83025755Y-50002313D01*
X83039320Y-49984635D01*
X83055898Y-49955923D01*
X83064425Y-49935337D01*
X83073006Y-49903311D01*
X83075914Y-49881220D01*
X83077000Y-49864645D01*
X83077000Y-46459992D01*
X83170176Y-45871702D01*
X83435992Y-45350009D01*
X83478060Y-45307941D01*
X83478060Y-46307822D01*
X83429009Y-46381232D01*
X83335000Y-46853846D01*
X83335000Y-47106154D01*
X83429009Y-47578768D01*
X83696723Y-47979431D01*
X84097386Y-48247145D01*
X84316138Y-48290658D01*
X84315860Y-48609398D01*
X84097386Y-48652855D01*
X83696723Y-48920569D01*
X83429009Y-49321232D01*
X83335000Y-49793846D01*
X83335000Y-50046154D01*
X83429009Y-50518768D01*
X83478060Y-50592178D01*
X83478060Y-52006000D01*
X83522338Y-52241317D01*
X83661410Y-52457441D01*
X83873610Y-52602431D01*
X84125500Y-52653440D01*
X85014500Y-52653440D01*
X85249817Y-52609162D01*
X85465941Y-52470090D01*
X85610931Y-52257890D01*
X85661940Y-52006000D01*
X85661940Y-50592178D01*
X85710991Y-50518768D01*
X85805000Y-50046154D01*
X85805000Y-49973970D01*
X85875000Y-49974031D01*
X85875000Y-50046154D01*
X85969009Y-50518768D01*
X86018060Y-50592178D01*
X86018060Y-52006000D01*
X86062338Y-52241317D01*
X86201410Y-52457441D01*
X86413610Y-52602431D01*
X86665500Y-52653440D01*
X87554500Y-52653440D01*
X87789817Y-52609162D01*
X88005941Y-52470090D01*
X88150931Y-52257890D01*
X88201940Y-52006000D01*
X88201940Y-50592178D01*
X88250991Y-50518768D01*
X88345000Y-50046154D01*
X88345000Y-49793846D01*
X88415000Y-49793846D01*
X88415000Y-50046154D01*
X88509009Y-50518768D01*
X88558060Y-50592178D01*
X88558060Y-52006000D01*
X88602338Y-52241317D01*
X88741410Y-52457441D01*
X88953610Y-52602431D01*
X89205500Y-52653440D01*
X90094500Y-52653440D01*
X90329817Y-52609162D01*
X90545941Y-52470090D01*
X90690931Y-52257890D01*
X90741940Y-52006000D01*
X90741940Y-50592178D01*
X90790991Y-50518768D01*
X90885000Y-50046154D01*
X90885000Y-49793846D01*
X90955000Y-49793846D01*
X90955000Y-50046154D01*
X91049009Y-50518768D01*
X91098060Y-50592178D01*
X91098060Y-52006000D01*
X91142338Y-52241317D01*
X91281410Y-52457441D01*
X91493610Y-52602431D01*
X91745500Y-52653440D01*
X92634500Y-52653440D01*
X92869817Y-52609162D01*
X93085941Y-52470090D01*
X93230931Y-52257890D01*
X93281940Y-52006000D01*
X93281940Y-51453550D01*
X93650500Y-51453550D01*
X93650500Y-52132310D01*
X93747173Y-52365699D01*
X93925802Y-52544327D01*
X94159191Y-52641000D01*
X94444250Y-52641000D01*
X94603000Y-52482250D01*
X94603000Y-51294800D01*
X94857000Y-51294800D01*
X94857000Y-52482250D01*
X95015750Y-52641000D01*
X95300809Y-52641000D01*
X95534198Y-52544327D01*
X95712827Y-52365699D01*
X95809500Y-52132310D01*
X95809500Y-51453550D01*
X95650750Y-51294800D01*
X94857000Y-51294800D01*
X94603000Y-51294800D01*
X93809250Y-51294800D01*
X93650500Y-51453550D01*
X93281940Y-51453550D01*
X93281940Y-50592178D01*
X93330991Y-50518768D01*
X93425000Y-50046154D01*
X93425000Y-49793846D01*
X93386512Y-49600353D01*
X93515799Y-49600353D01*
X93655137Y-49793000D01*
X93924075Y-49793000D01*
X93747173Y-49969901D01*
X93715238Y-50047000D01*
X93655137Y-50047000D01*
X93515799Y-50239647D01*
X93650500Y-50581538D01*
X93650500Y-50882050D01*
X93809250Y-51040800D01*
X94041596Y-51040800D01*
X94412391Y-51213462D01*
X94603000Y-51088731D01*
X94603000Y-49853350D01*
X94542650Y-49793000D01*
X94603000Y-49793000D01*
X94603000Y-48751269D01*
X94857000Y-48751269D01*
X94857000Y-49793000D01*
X94917350Y-49793000D01*
X94857000Y-49853350D01*
X94857000Y-51088731D01*
X95047609Y-51213462D01*
X95418404Y-51040800D01*
X95650750Y-51040800D01*
X95809500Y-50882050D01*
X95809500Y-50581538D01*
X95944201Y-50239647D01*
X95804863Y-50047000D01*
X95744762Y-50047000D01*
X95712827Y-49969901D01*
X95536772Y-49793846D01*
X96035000Y-49793846D01*
X96035000Y-50046154D01*
X96129009Y-50518768D01*
X96178060Y-50592178D01*
X96178060Y-52006000D01*
X96222338Y-52241317D01*
X96361410Y-52457441D01*
X96573610Y-52602431D01*
X96825500Y-52653440D01*
X97714500Y-52653440D01*
X97949817Y-52609162D01*
X98165941Y-52470090D01*
X98310931Y-52257890D01*
X98361940Y-52006000D01*
X98361940Y-50592178D01*
X98410991Y-50518768D01*
X98505000Y-50046154D01*
X98505000Y-49793846D01*
X98575000Y-49793846D01*
X98575000Y-50046154D01*
X98669009Y-50518768D01*
X98718060Y-50592178D01*
X98718060Y-52006000D01*
X98762338Y-52241317D01*
X98901410Y-52457441D01*
X99113610Y-52602431D01*
X99365500Y-52653440D01*
X100254500Y-52653440D01*
X100489817Y-52609162D01*
X100705941Y-52470090D01*
X100850931Y-52257890D01*
X100901940Y-52006000D01*
X100901940Y-50592178D01*
X100950991Y-50518768D01*
X101045000Y-50046154D01*
X101045000Y-49793846D01*
X101115000Y-49793846D01*
X101115000Y-50046154D01*
X101209009Y-50518768D01*
X101258060Y-50592178D01*
X101258060Y-52006000D01*
X101302338Y-52241317D01*
X101441410Y-52457441D01*
X101653610Y-52602431D01*
X101905500Y-52653440D01*
X102794500Y-52653440D01*
X103029817Y-52609162D01*
X103245941Y-52470090D01*
X103390931Y-52257890D01*
X103441940Y-52006000D01*
X103441940Y-50592178D01*
X103490991Y-50518768D01*
X103585000Y-50046154D01*
X103585000Y-49793846D01*
X103655000Y-49793846D01*
X103655000Y-50046154D01*
X103749009Y-50518768D01*
X103798060Y-50592178D01*
X103798060Y-52006000D01*
X103842338Y-52241317D01*
X103981410Y-52457441D01*
X104193610Y-52602431D01*
X104445500Y-52653440D01*
X105334500Y-52653440D01*
X105569817Y-52609162D01*
X105785941Y-52470090D01*
X105930931Y-52257890D01*
X105981940Y-52006000D01*
X105981940Y-50592178D01*
X106030991Y-50518768D01*
X106125000Y-50046154D01*
X106125000Y-49793846D01*
X106195000Y-49793846D01*
X106195000Y-50046154D01*
X106289009Y-50518768D01*
X106338060Y-50592178D01*
X106338060Y-52006000D01*
X106382338Y-52241317D01*
X106521410Y-52457441D01*
X106733610Y-52602431D01*
X106985500Y-52653440D01*
X107874500Y-52653440D01*
X108109817Y-52609162D01*
X108325941Y-52470090D01*
X108470931Y-52257890D01*
X108521940Y-52006000D01*
X108521940Y-50592178D01*
X108570991Y-50518768D01*
X108665000Y-50046154D01*
X108665000Y-49793846D01*
X108735000Y-49793846D01*
X108735000Y-50046154D01*
X108829009Y-50518768D01*
X108878060Y-50592178D01*
X108878060Y-52006000D01*
X108922338Y-52241317D01*
X109061410Y-52457441D01*
X109273610Y-52602431D01*
X109525500Y-52653440D01*
X110414500Y-52653440D01*
X110649817Y-52609162D01*
X110865941Y-52470090D01*
X111010931Y-52257890D01*
X111061940Y-52006000D01*
X111061940Y-50592178D01*
X111110991Y-50518768D01*
X111205000Y-50046154D01*
X111205000Y-49793846D01*
X111275000Y-49793846D01*
X111275000Y-50046154D01*
X111369009Y-50518768D01*
X111418060Y-50592178D01*
X111418060Y-52006000D01*
X111462338Y-52241317D01*
X111601410Y-52457441D01*
X111813610Y-52602431D01*
X112065500Y-52653440D01*
X112954500Y-52653440D01*
X113189817Y-52609162D01*
X113405941Y-52470090D01*
X113550931Y-52257890D01*
X113601940Y-52006000D01*
X113601940Y-51453550D01*
X113970500Y-51453550D01*
X113970500Y-52132310D01*
X114067173Y-52365699D01*
X114245802Y-52544327D01*
X114479191Y-52641000D01*
X114764250Y-52641000D01*
X114923000Y-52482250D01*
X114923000Y-51294800D01*
X115177000Y-51294800D01*
X115177000Y-52482250D01*
X115335750Y-52641000D01*
X115620809Y-52641000D01*
X115854198Y-52544327D01*
X116032827Y-52365699D01*
X116129500Y-52132310D01*
X116129500Y-51453550D01*
X115970750Y-51294800D01*
X115177000Y-51294800D01*
X114923000Y-51294800D01*
X114129250Y-51294800D01*
X113970500Y-51453550D01*
X113601940Y-51453550D01*
X113601940Y-50592178D01*
X113650991Y-50518768D01*
X113745000Y-50046154D01*
X113745000Y-49793846D01*
X113706512Y-49600353D01*
X113835799Y-49600353D01*
X113975137Y-49793000D01*
X114244075Y-49793000D01*
X114067173Y-49969901D01*
X114035238Y-50047000D01*
X113975137Y-50047000D01*
X113835799Y-50239647D01*
X113970500Y-50581538D01*
X113970500Y-50882050D01*
X114129250Y-51040800D01*
X114361596Y-51040800D01*
X114732391Y-51213462D01*
X114923000Y-51088731D01*
X114923000Y-49853350D01*
X114862650Y-49793000D01*
X114923000Y-49793000D01*
X114923000Y-48751269D01*
X115177000Y-48751269D01*
X115177000Y-49793000D01*
X115237350Y-49793000D01*
X115177000Y-49853350D01*
X115177000Y-51088731D01*
X115367609Y-51213462D01*
X115738404Y-51040800D01*
X115970750Y-51040800D01*
X116129500Y-50882050D01*
X116129500Y-50581538D01*
X116264201Y-50239647D01*
X116124863Y-50047000D01*
X116064762Y-50047000D01*
X116032827Y-49969901D01*
X115856772Y-49793846D01*
X116355000Y-49793846D01*
X116355000Y-50046154D01*
X116449009Y-50518768D01*
X116498060Y-50592178D01*
X116498060Y-52006000D01*
X116542338Y-52241317D01*
X116681410Y-52457441D01*
X116893610Y-52602431D01*
X117145500Y-52653440D01*
X118034500Y-52653440D01*
X118269817Y-52609162D01*
X118485941Y-52470090D01*
X118630931Y-52257890D01*
X118681940Y-52006000D01*
X118681940Y-50592178D01*
X118730991Y-50518768D01*
X118825000Y-50046154D01*
X118825000Y-49793846D01*
X118895000Y-49793846D01*
X118895000Y-50046154D01*
X118989009Y-50518768D01*
X119038060Y-50592178D01*
X119038060Y-52006000D01*
X119082338Y-52241317D01*
X119221410Y-52457441D01*
X119433610Y-52602431D01*
X119685500Y-52653440D01*
X120574500Y-52653440D01*
X120809817Y-52609162D01*
X121025941Y-52470090D01*
X121170931Y-52257890D01*
X121221940Y-52006000D01*
X121221940Y-50592178D01*
X121270991Y-50518768D01*
X121365000Y-50046154D01*
X121365000Y-49793846D01*
X121435000Y-49793846D01*
X121435000Y-50046154D01*
X121529009Y-50518768D01*
X121578060Y-50592178D01*
X121578060Y-52006000D01*
X121622338Y-52241317D01*
X121761410Y-52457441D01*
X121973610Y-52602431D01*
X122225500Y-52653440D01*
X123114500Y-52653440D01*
X123349817Y-52609162D01*
X123565941Y-52470090D01*
X123710931Y-52257890D01*
X123761940Y-52006000D01*
X123761940Y-50592178D01*
X123810991Y-50518768D01*
X123905000Y-50046154D01*
X123905000Y-49793846D01*
X123975000Y-49793846D01*
X123975000Y-50046154D01*
X124069009Y-50518768D01*
X124118060Y-50592178D01*
X124118060Y-52006000D01*
X124162338Y-52241317D01*
X124301410Y-52457441D01*
X124513610Y-52602431D01*
X124765500Y-52653440D01*
X125654500Y-52653440D01*
X125889817Y-52609162D01*
X126105941Y-52470090D01*
X126250931Y-52257890D01*
X126301940Y-52006000D01*
X126301940Y-50592178D01*
X126350991Y-50518768D01*
X126445000Y-50046154D01*
X126445000Y-49793846D01*
X126515000Y-49793846D01*
X126515000Y-50046154D01*
X126609009Y-50518768D01*
X126658060Y-50592178D01*
X126658060Y-52006000D01*
X126702338Y-52241317D01*
X126841410Y-52457441D01*
X127053610Y-52602431D01*
X127305500Y-52653440D01*
X128194500Y-52653440D01*
X128429817Y-52609162D01*
X128645941Y-52470090D01*
X128790931Y-52257890D01*
X128841940Y-52006000D01*
X128841940Y-50592178D01*
X128890991Y-50518768D01*
X128985000Y-50046154D01*
X128985000Y-49793846D01*
X128890991Y-49321232D01*
X128623277Y-48920569D01*
X128222614Y-48652855D01*
X127750000Y-48558846D01*
X127277386Y-48652855D01*
X126876723Y-48920569D01*
X126609009Y-49321232D01*
X126515000Y-49793846D01*
X126445000Y-49793846D01*
X126350991Y-49321232D01*
X126083277Y-48920569D01*
X125682614Y-48652855D01*
X125210000Y-48558846D01*
X124737386Y-48652855D01*
X124336723Y-48920569D01*
X124069009Y-49321232D01*
X123975000Y-49793846D01*
X123905000Y-49793846D01*
X123810991Y-49321232D01*
X123543277Y-48920569D01*
X123142614Y-48652855D01*
X122670000Y-48558846D01*
X122197386Y-48652855D01*
X121796723Y-48920569D01*
X121529009Y-49321232D01*
X121435000Y-49793846D01*
X121365000Y-49793846D01*
X121270991Y-49321232D01*
X121003277Y-48920569D01*
X120602614Y-48652855D01*
X120130000Y-48558846D01*
X119657386Y-48652855D01*
X119256723Y-48920569D01*
X118989009Y-49321232D01*
X118895000Y-49793846D01*
X118825000Y-49793846D01*
X118730991Y-49321232D01*
X118463277Y-48920569D01*
X118062614Y-48652855D01*
X117590000Y-48558846D01*
X117117386Y-48652855D01*
X116716723Y-48920569D01*
X116449009Y-49321232D01*
X116355000Y-49793846D01*
X115856772Y-49793846D01*
X115855925Y-49793000D01*
X116124863Y-49793000D01*
X116264201Y-49600353D01*
X116087720Y-49152418D01*
X115753256Y-48806116D01*
X115367609Y-48626538D01*
X115177000Y-48751269D01*
X114923000Y-48751269D01*
X114732391Y-48626538D01*
X114346744Y-48806116D01*
X114012280Y-49152418D01*
X113835799Y-49600353D01*
X113706512Y-49600353D01*
X113650991Y-49321232D01*
X113383277Y-48920569D01*
X112982614Y-48652855D01*
X112510000Y-48558846D01*
X112037386Y-48652855D01*
X111636723Y-48920569D01*
X111369009Y-49321232D01*
X111275000Y-49793846D01*
X111205000Y-49793846D01*
X111110991Y-49321232D01*
X110843277Y-48920569D01*
X110442614Y-48652855D01*
X109970000Y-48558846D01*
X109497386Y-48652855D01*
X109096723Y-48920569D01*
X108829009Y-49321232D01*
X108735000Y-49793846D01*
X108665000Y-49793846D01*
X108570991Y-49321232D01*
X108303277Y-48920569D01*
X107902614Y-48652855D01*
X107430000Y-48558846D01*
X106957386Y-48652855D01*
X106556723Y-48920569D01*
X106289009Y-49321232D01*
X106195000Y-49793846D01*
X106125000Y-49793846D01*
X106030991Y-49321232D01*
X105763277Y-48920569D01*
X105362614Y-48652855D01*
X104890000Y-48558846D01*
X104417386Y-48652855D01*
X104016723Y-48920569D01*
X103749009Y-49321232D01*
X103655000Y-49793846D01*
X103585000Y-49793846D01*
X103490991Y-49321232D01*
X103223277Y-48920569D01*
X102822614Y-48652855D01*
X102350000Y-48558846D01*
X101877386Y-48652855D01*
X101476723Y-48920569D01*
X101209009Y-49321232D01*
X101115000Y-49793846D01*
X101045000Y-49793846D01*
X100950991Y-49321232D01*
X100683277Y-48920569D01*
X100282614Y-48652855D01*
X99810000Y-48558846D01*
X99337386Y-48652855D01*
X98936723Y-48920569D01*
X98669009Y-49321232D01*
X98575000Y-49793846D01*
X98505000Y-49793846D01*
X98410991Y-49321232D01*
X98143277Y-48920569D01*
X97742614Y-48652855D01*
X97270000Y-48558846D01*
X96797386Y-48652855D01*
X96396723Y-48920569D01*
X96129009Y-49321232D01*
X96035000Y-49793846D01*
X95536772Y-49793846D01*
X95535925Y-49793000D01*
X95804863Y-49793000D01*
X95944201Y-49600353D01*
X95767720Y-49152418D01*
X95433256Y-48806116D01*
X95047609Y-48626538D01*
X94857000Y-48751269D01*
X94603000Y-48751269D01*
X94412391Y-48626538D01*
X94026744Y-48806116D01*
X93692280Y-49152418D01*
X93515799Y-49600353D01*
X93386512Y-49600353D01*
X93330991Y-49321232D01*
X93063277Y-48920569D01*
X92662614Y-48652855D01*
X92190000Y-48558846D01*
X91717386Y-48652855D01*
X91316723Y-48920569D01*
X91049009Y-49321232D01*
X90955000Y-49793846D01*
X90885000Y-49793846D01*
X90790991Y-49321232D01*
X90523277Y-48920569D01*
X90122614Y-48652855D01*
X89650000Y-48558846D01*
X89177386Y-48652855D01*
X88776723Y-48920569D01*
X88509009Y-49321232D01*
X88415000Y-49793846D01*
X88345000Y-49793846D01*
X88250991Y-49321232D01*
X87983277Y-48920569D01*
X87582614Y-48652855D01*
X87363862Y-48609342D01*
X87364140Y-48290602D01*
X87582614Y-48247145D01*
X87983277Y-47979431D01*
X88250991Y-47578768D01*
X88345000Y-47106154D01*
X88345000Y-46853846D01*
X88306512Y-46660353D01*
X88435799Y-46660353D01*
X88575137Y-46853000D01*
X88635238Y-46853000D01*
X88667173Y-46930099D01*
X88844075Y-47107000D01*
X88575137Y-47107000D01*
X88435799Y-47299647D01*
X88612280Y-47747582D01*
X88946744Y-48093884D01*
X89332391Y-48273462D01*
X89523000Y-48148731D01*
X89523000Y-47107000D01*
X89462650Y-47107000D01*
X89523000Y-47046650D01*
X89523000Y-45811269D01*
X89777000Y-45811269D01*
X89777000Y-47046650D01*
X89837350Y-47107000D01*
X89777000Y-47107000D01*
X89777000Y-48148731D01*
X89967609Y-48273462D01*
X90353256Y-48093884D01*
X90687720Y-47747582D01*
X90864201Y-47299647D01*
X90724863Y-47107000D01*
X90455925Y-47107000D01*
X90632827Y-46930099D01*
X90664762Y-46853000D01*
X90724863Y-46853000D01*
X90864201Y-46660353D01*
X90729500Y-46318462D01*
X90729500Y-46017950D01*
X90570750Y-45859200D01*
X90338404Y-45859200D01*
X89967609Y-45686538D01*
X89777000Y-45811269D01*
X89523000Y-45811269D01*
X89332391Y-45686538D01*
X88961596Y-45859200D01*
X88729250Y-45859200D01*
X88570500Y-46017950D01*
X88570500Y-46318462D01*
X88435799Y-46660353D01*
X88306512Y-46660353D01*
X88250991Y-46381232D01*
X88201940Y-46307822D01*
X88201940Y-45135000D01*
X88570500Y-45135000D01*
X88570500Y-45446450D01*
M02*
