G04 #@! TF.FileFunction,Paste,Top*
%FSLAX46Y46*%
G04 Gerber Fmt 4.6, Leading zero omitted, Abs format (unit mm)*
G04 Created by KiCad (PCBNEW 4.0.4+e1-6308~48~ubuntu14.04.1-stable) date Thu Jan 12 15:11:12 2017*
%MOMM*%
%LPD*%
G01*
G04 APERTURE LIST*
%ADD10C,0.100000*%
%ADD11R,0.550000X1.600000*%
%ADD12R,1.600000X0.550000*%
%ADD13R,1.250000X1.500000*%
%ADD14R,1.600000X2.000000*%
%ADD15R,2.000000X1.600000*%
%ADD16R,1.500000X1.250000*%
%ADD17R,1.800860X0.800100*%
%ADD18R,0.900000X1.200000*%
%ADD19R,1.200000X0.900000*%
%ADD20R,0.600000X1.500000*%
%ADD21R,1.600200X2.199640*%
%ADD22R,1.800860X1.597660*%
%ADD23R,1.000000X3.100000*%
%ADD24R,2.000000X1.000000*%
%ADD25R,0.889000X1.676400*%
%ADD26R,2.000000X3.800000*%
%ADD27R,2.000000X1.500000*%
%ADD28R,1.200000X2.150000*%
G04 APERTURE END LIST*
D10*
D11*
X109600000Y-61400000D03*
X108800000Y-61400000D03*
X108000000Y-61400000D03*
X107200000Y-61400000D03*
X106400000Y-61400000D03*
X105600000Y-61400000D03*
X104800000Y-61400000D03*
X104000000Y-61400000D03*
D12*
X102550000Y-62850000D03*
X102550000Y-63650000D03*
X102550000Y-64450000D03*
X102550000Y-65250000D03*
X102550000Y-66050000D03*
X102550000Y-66850000D03*
X102550000Y-67650000D03*
X102550000Y-68450000D03*
D11*
X104000000Y-69900000D03*
X104800000Y-69900000D03*
X105600000Y-69900000D03*
X106400000Y-69900000D03*
X107200000Y-69900000D03*
X108000000Y-69900000D03*
X108800000Y-69900000D03*
X109600000Y-69900000D03*
D12*
X111050000Y-68450000D03*
X111050000Y-67650000D03*
X111050000Y-66850000D03*
X111050000Y-66050000D03*
X111050000Y-65250000D03*
X111050000Y-64450000D03*
X111050000Y-63650000D03*
X111050000Y-62850000D03*
D13*
X102600000Y-57500000D03*
X102600000Y-55000000D03*
D14*
X129400000Y-74850000D03*
X129400000Y-78850000D03*
D15*
X124000000Y-70850000D03*
X128000000Y-70850000D03*
D13*
X95800000Y-71300000D03*
X95800000Y-68800000D03*
D16*
X106550000Y-73850000D03*
X109050000Y-73850000D03*
D17*
X125348860Y-62100000D03*
X125348860Y-64000000D03*
X128351140Y-63050000D03*
D18*
X118400000Y-87950000D03*
X118400000Y-90150000D03*
D19*
X128100000Y-55650000D03*
X125900000Y-55650000D03*
X96100000Y-86450000D03*
X93900000Y-86450000D03*
X128150000Y-58850000D03*
X125950000Y-58850000D03*
X133300000Y-60650000D03*
X131100000Y-60650000D03*
X124100000Y-83250000D03*
X126300000Y-83250000D03*
D18*
X95800000Y-65550000D03*
X95800000Y-63350000D03*
D20*
X101800000Y-60650000D03*
X100600000Y-60650000D03*
X99400000Y-60650000D03*
D21*
X106600000Y-57751140D03*
X106600000Y-54748860D03*
D22*
X118400000Y-92730140D03*
X118400000Y-95569860D03*
D23*
X130400000Y-86400000D03*
X130400000Y-95300000D03*
X126400000Y-95300000D03*
X126400000Y-86400000D03*
X87200000Y-66700000D03*
X87200000Y-57800000D03*
X91200000Y-57800000D03*
X91200000Y-66700000D03*
D24*
X115800000Y-95050000D03*
X115800000Y-96320000D03*
D19*
X88500000Y-87650000D03*
X86300000Y-87650000D03*
X91100000Y-85450000D03*
X88900000Y-85450000D03*
X93700000Y-83050000D03*
X91500000Y-83050000D03*
D25*
X102350000Y-45732200D03*
X94730000Y-51167800D03*
X84570000Y-51167800D03*
X125210000Y-45732200D03*
X127750000Y-45732200D03*
X132830000Y-45732200D03*
X130290000Y-45732200D03*
X104890000Y-45732200D03*
X107430000Y-45732200D03*
X112510000Y-45732200D03*
X109970000Y-45732200D03*
X120130000Y-45732200D03*
X122670000Y-45732200D03*
X117590000Y-45732200D03*
X115050000Y-45732200D03*
X94730000Y-45732200D03*
X97270000Y-45732200D03*
X99810000Y-45732200D03*
X89650000Y-45732200D03*
X92190000Y-45732200D03*
X87110000Y-45732200D03*
X84570000Y-45732200D03*
X132830000Y-51167800D03*
X130290000Y-51167800D03*
X125210000Y-51167800D03*
X127750000Y-51167800D03*
X117590000Y-51167800D03*
X115050000Y-51167800D03*
X120130000Y-51167800D03*
X122670000Y-51167800D03*
X112510000Y-51167800D03*
X109970000Y-51167800D03*
X104890000Y-51167800D03*
X107430000Y-51167800D03*
X87110000Y-51167800D03*
X89650000Y-51167800D03*
X92190000Y-51167800D03*
X102350000Y-51167800D03*
X99810000Y-51167800D03*
X97270000Y-51167800D03*
D18*
X99400000Y-91950000D03*
X99400000Y-89750000D03*
X99400000Y-87350000D03*
X99400000Y-85150000D03*
D26*
X119250000Y-76450000D03*
D27*
X125550000Y-76450000D03*
X125550000Y-74150000D03*
X125550000Y-78750000D03*
D28*
X93810000Y-90325000D03*
X91270000Y-90325000D03*
X88730000Y-90325000D03*
X86190000Y-90325000D03*
X86190000Y-98575000D03*
X88730000Y-98575000D03*
X91270000Y-98575000D03*
X93810000Y-98575000D03*
M02*
