G04 #@! TF.FileFunction,Copper,L2,Bot,Signal*
%FSLAX46Y46*%
G04 Gerber Fmt 4.6, Leading zero omitted, Abs format (unit mm)*
G04 Created by KiCad (PCBNEW 4.0.2+e4-6225~38~ubuntu14.04.1-stable) date Thu 07 Jul 2016 12:55:47 BST*
%MOMM*%
G01*
G04 APERTURE LIST*
%ADD10C,0.100000*%
%ADD11C,0.200000*%
%ADD12R,1.200000X3.000000*%
%ADD13R,2.032000X1.727200*%
%ADD14O,2.032000X1.727200*%
%ADD15R,2.032000X2.032000*%
%ADD16O,2.032000X2.032000*%
%ADD17R,2.500000X2.500000*%
%ADD18C,2.500000*%
%ADD19R,2.235200X2.235200*%
%ADD20C,1.750000*%
%ADD21R,1.750000X1.750000*%
%ADD22C,1.500000*%
%ADD23R,1.750000X1.600000*%
%ADD24O,1.750000X1.600000*%
%ADD25R,0.889000X1.676400*%
%ADD26O,1.200000X1.400000*%
%ADD27C,1.400000*%
%ADD28C,1.200000*%
%ADD29C,1.000000*%
%ADD30C,0.300000*%
%ADD31C,0.500000*%
%ADD32C,0.254000*%
G04 APERTURE END LIST*
D10*
D11*
X76947619Y-92463691D02*
X77947619Y-92338691D01*
X76995238Y-92457738D02*
X76947619Y-92558929D01*
X76947619Y-92749406D01*
X76995238Y-92838691D01*
X77042857Y-92880358D01*
X77138095Y-92916072D01*
X77423810Y-92880358D01*
X77519048Y-92820834D01*
X77566667Y-92767263D01*
X77614286Y-92666072D01*
X77614286Y-92475595D01*
X77566667Y-92386310D01*
X76995238Y-91600595D02*
X76947619Y-91701786D01*
X76947619Y-91892263D01*
X76995238Y-91981548D01*
X77090476Y-92017262D01*
X77471429Y-91969643D01*
X77566667Y-91910120D01*
X77614286Y-91808929D01*
X77614286Y-91618452D01*
X77566667Y-91529167D01*
X77471429Y-91493452D01*
X77376190Y-91505357D01*
X77280952Y-91993453D01*
X77614286Y-91189881D02*
X77614286Y-90808929D01*
X76947619Y-91130358D02*
X77804762Y-91023215D01*
X77900000Y-90963691D01*
X77947619Y-90862501D01*
X77947619Y-90767263D01*
X77614286Y-90475595D02*
X76614286Y-90600595D01*
X77566667Y-90481548D02*
X77614286Y-90380357D01*
X77614286Y-90189880D01*
X77566667Y-90100595D01*
X77519048Y-90058928D01*
X77423810Y-90023214D01*
X77138095Y-90058928D01*
X77042857Y-90118452D01*
X76995238Y-90172023D01*
X76947619Y-90273214D01*
X76947619Y-90463691D01*
X76995238Y-90552976D01*
X76947619Y-89654167D02*
X77614286Y-89570833D01*
X77423810Y-89594643D02*
X77519048Y-89535119D01*
X77566667Y-89481548D01*
X77614286Y-89380357D01*
X77614286Y-89285118D01*
X76947619Y-88892262D02*
X76995238Y-88981547D01*
X77042857Y-89023214D01*
X77138095Y-89058928D01*
X77423810Y-89023214D01*
X77519048Y-88963690D01*
X77566667Y-88910119D01*
X77614286Y-88808928D01*
X77614286Y-88666070D01*
X77566667Y-88576785D01*
X77519048Y-88535118D01*
X77423810Y-88499404D01*
X77138095Y-88535118D01*
X77042857Y-88594642D01*
X76995238Y-88648213D01*
X76947619Y-88749404D01*
X76947619Y-88892262D01*
X76995238Y-87695832D02*
X76947619Y-87797023D01*
X76947619Y-87987500D01*
X76995238Y-88076785D01*
X77042857Y-88118452D01*
X77138095Y-88154166D01*
X77423810Y-88118452D01*
X77519048Y-88058928D01*
X77566667Y-88005357D01*
X77614286Y-87904166D01*
X77614286Y-87713689D01*
X77566667Y-87624404D01*
X77042857Y-87261309D02*
X76995238Y-87219642D01*
X76947619Y-87273214D01*
X76995238Y-87314880D01*
X77042857Y-87261309D01*
X76947619Y-87273214D01*
X76995238Y-86362499D02*
X76947619Y-86463690D01*
X76947619Y-86654167D01*
X76995238Y-86743452D01*
X77042857Y-86785119D01*
X77138095Y-86820833D01*
X77423810Y-86785119D01*
X77519048Y-86725595D01*
X77566667Y-86672024D01*
X77614286Y-86570833D01*
X77614286Y-86380356D01*
X77566667Y-86291071D01*
X76947619Y-85797024D02*
X76995238Y-85886309D01*
X77042857Y-85927976D01*
X77138095Y-85963690D01*
X77423810Y-85927976D01*
X77519048Y-85868452D01*
X77566667Y-85814881D01*
X77614286Y-85713690D01*
X77614286Y-85570832D01*
X77566667Y-85481547D01*
X77519048Y-85439880D01*
X77423810Y-85404166D01*
X77138095Y-85439880D01*
X77042857Y-85499404D01*
X76995238Y-85552975D01*
X76947619Y-85654166D01*
X76947619Y-85797024D01*
X77042857Y-85023214D02*
X76995238Y-84981547D01*
X76947619Y-85035119D01*
X76995238Y-85076785D01*
X77042857Y-85023214D01*
X76947619Y-85035119D01*
X77614286Y-84047023D02*
X76947619Y-84130357D01*
X77614286Y-84475595D02*
X77090476Y-84541071D01*
X76995238Y-84505357D01*
X76947619Y-84416072D01*
X76947619Y-84273214D01*
X76995238Y-84172023D01*
X77042857Y-84118452D01*
X76947619Y-83654167D02*
X77947619Y-83529167D01*
X77328571Y-83511310D02*
X76947619Y-83273214D01*
X77614286Y-83189880D02*
X77233333Y-83618452D01*
D12*
X99800000Y-94550000D03*
X97800000Y-94550000D03*
X95800000Y-94550000D03*
X93800000Y-94550000D03*
X91800000Y-94550000D03*
X89800000Y-94550000D03*
X87800000Y-94550000D03*
X85800000Y-94550000D03*
X85800000Y-75850000D03*
X87800000Y-75850000D03*
X89800000Y-75850000D03*
X91800000Y-75850000D03*
X93800000Y-75850000D03*
X95800000Y-75850000D03*
X97800000Y-75850000D03*
X99800000Y-75850000D03*
D13*
X138400000Y-55650000D03*
D14*
X138400000Y-58190000D03*
X138400000Y-60730000D03*
X138400000Y-63270000D03*
X138400000Y-65810000D03*
X138400000Y-68350000D03*
D15*
X118400000Y-99250000D03*
D16*
X115860000Y-99250000D03*
D15*
X129600000Y-99250000D03*
D16*
X127060000Y-99250000D03*
D17*
X135800000Y-78990000D03*
D18*
X135800000Y-73910000D03*
D19*
X82800000Y-85050000D03*
D20*
X79000000Y-56050000D03*
X81540000Y-56050000D03*
X79000000Y-58590000D03*
X81540000Y-58590000D03*
X79000000Y-61130000D03*
D21*
X81540000Y-61130000D03*
D22*
X117350000Y-68250000D03*
X117350000Y-66250000D03*
X117350000Y-64250000D03*
X117350000Y-62250000D03*
X117350000Y-60250000D03*
X117350000Y-58250000D03*
X119850000Y-68250000D03*
X119850000Y-66250000D03*
X119850000Y-64250000D03*
X119850000Y-62250000D03*
X119850000Y-60250000D03*
X119850000Y-58250000D03*
D23*
X109960000Y-81470000D03*
D24*
X107420000Y-81470000D03*
X104880000Y-81470000D03*
D23*
X109960000Y-84010000D03*
D24*
X107420000Y-84010000D03*
X104880000Y-84010000D03*
D23*
X109960000Y-86550000D03*
D24*
X107420000Y-86550000D03*
X104880000Y-86550000D03*
D23*
X109960000Y-89090000D03*
D24*
X107420000Y-89090000D03*
X104880000Y-89090000D03*
D23*
X109960000Y-91630000D03*
D24*
X107420000Y-91630000D03*
X104880000Y-91630000D03*
D23*
X109960000Y-94170000D03*
D24*
X107420000Y-94170000D03*
X104880000Y-94170000D03*
D23*
X109960000Y-96710000D03*
D24*
X107420000Y-96710000D03*
X104880000Y-96710000D03*
D25*
X99810000Y-45732200D03*
X104890000Y-45732200D03*
X107430000Y-45732200D03*
X109970000Y-45732200D03*
X112510000Y-45732200D03*
X115050000Y-45732200D03*
X117590000Y-45732200D03*
X120130000Y-45732200D03*
X122670000Y-45732200D03*
X125210000Y-45732200D03*
X127750000Y-45732200D03*
X130290000Y-45732200D03*
X132830000Y-45732200D03*
X132830000Y-51167800D03*
X130290000Y-51167800D03*
X127750000Y-51167800D03*
X125210000Y-51167800D03*
X122670000Y-51167800D03*
X120130000Y-51167800D03*
X117590000Y-51167800D03*
X115050000Y-51167800D03*
X112510000Y-51167800D03*
X109970000Y-51167800D03*
X107430000Y-51167800D03*
X104890000Y-51167800D03*
X102350000Y-51167800D03*
X99810000Y-51167800D03*
X84570000Y-45732200D03*
X87110000Y-45732200D03*
X89650000Y-45732200D03*
X92190000Y-45732200D03*
X94730000Y-45732200D03*
X97270000Y-45732200D03*
X97270000Y-51167800D03*
X92190000Y-51167800D03*
X89650000Y-51167800D03*
X87110000Y-51167800D03*
X102350000Y-45732200D03*
X84570000Y-51167800D03*
D26*
X112510000Y-49920000D03*
X109970000Y-49920000D03*
X115050000Y-49920000D03*
X117590000Y-49920000D03*
X127750000Y-49920000D03*
X125210000Y-49920000D03*
X120130000Y-49920000D03*
X122670000Y-49920000D03*
X130290000Y-49920000D03*
X132830000Y-49920000D03*
X107430000Y-49920000D03*
X104890000Y-49920000D03*
X97270000Y-49920000D03*
X94730000Y-49920000D03*
X99810000Y-49920000D03*
X102350000Y-49920000D03*
X92190000Y-49920000D03*
X89650000Y-49920000D03*
X84570000Y-49920000D03*
X87110000Y-49920000D03*
X87110000Y-46980000D03*
X84570000Y-46980000D03*
X89650000Y-46980000D03*
X92190000Y-46980000D03*
X102350000Y-46980000D03*
X99810000Y-46980000D03*
X94730000Y-46980000D03*
X97270000Y-46980000D03*
X104890000Y-46980000D03*
X107430000Y-46980000D03*
X132830000Y-46980000D03*
X130290000Y-46980000D03*
X122670000Y-46980000D03*
X120130000Y-46980000D03*
X125210000Y-46980000D03*
X127750000Y-46980000D03*
X117590000Y-46980000D03*
X115050000Y-46980000D03*
X109970000Y-46980000D03*
X112510000Y-46980000D03*
D25*
X94730000Y-51167800D03*
D27*
X106200000Y-65050000D03*
D28*
X117600000Y-80250000D03*
D27*
X102000000Y-97650000D03*
X95600000Y-87250000D03*
X104600000Y-74450000D03*
X88400000Y-66450000D03*
X83600000Y-73050000D03*
X113400000Y-97450000D03*
X107400000Y-67250000D03*
X100400000Y-58850000D03*
X110000000Y-59250000D03*
X114400000Y-59650000D03*
D28*
X118200000Y-56450000D03*
X121000000Y-78050000D03*
D27*
X130400000Y-76650000D03*
X125400000Y-70850000D03*
X117600000Y-83450000D03*
X116600000Y-70650000D03*
D28*
X118600000Y-67250000D03*
X108600000Y-68250000D03*
X96800000Y-67050000D03*
X115000000Y-65450000D03*
X118600000Y-65250000D03*
X102600000Y-78850000D03*
X111000000Y-77650000D03*
X108600000Y-65250000D03*
X113600000Y-65650000D03*
X112400000Y-61450000D03*
X99400000Y-80450000D03*
X101800000Y-74650000D03*
D29*
X102000000Y-72850000D03*
D28*
X93400000Y-69050000D03*
X95800000Y-73250000D03*
D29*
X102800000Y-71850000D03*
D28*
X103400000Y-73250000D03*
X122800000Y-59650000D03*
X113000000Y-55250000D03*
X115400000Y-62650000D03*
X118600000Y-63250000D03*
X107600000Y-63850000D03*
X109600000Y-76050000D03*
X101600000Y-81650000D03*
X99600000Y-84250000D03*
X106200000Y-82650000D03*
X111600000Y-56850000D03*
X105800000Y-67250000D03*
X121800000Y-58450000D03*
X112400000Y-82450000D03*
X112400000Y-85050000D03*
X112400000Y-87850000D03*
X112400000Y-90250000D03*
X112400000Y-92850000D03*
X112400000Y-95450000D03*
X122000000Y-61850000D03*
X93000000Y-71300000D03*
D11*
X127750000Y-45732200D02*
X127750000Y-47180000D01*
X132830000Y-45732200D02*
X132830000Y-47180000D01*
X130290000Y-45732200D02*
X130290000Y-47180000D01*
X104890000Y-45732200D02*
X104890000Y-47180000D01*
X112510000Y-45732200D02*
X112510000Y-47180000D01*
X109970000Y-45732200D02*
X109970000Y-47180000D01*
X122670000Y-45732200D02*
X122670000Y-47180000D01*
X117590000Y-45732200D02*
X117590000Y-47180000D01*
X115050000Y-45732200D02*
X115050000Y-47180000D01*
X97270000Y-45732200D02*
X97270000Y-47180000D01*
X102350000Y-45732200D02*
X102350000Y-47180000D01*
X87110000Y-45732200D02*
X87110000Y-47180000D01*
X84570000Y-45732200D02*
X84570000Y-47180000D01*
X130290000Y-51167800D02*
X130290000Y-49720000D01*
X125210000Y-51167800D02*
X125210000Y-49720000D01*
X127750000Y-51167800D02*
X127750000Y-49720000D01*
X117590000Y-51167800D02*
X117590000Y-49720000D01*
X120130000Y-51167800D02*
X120130000Y-49720000D01*
X122670000Y-51167800D02*
X122670000Y-49720000D01*
X112510000Y-51167800D02*
X112510000Y-49720000D01*
X109970000Y-51167800D02*
X109970000Y-49720000D01*
X107430000Y-51167800D02*
X107430000Y-49720000D01*
X87110000Y-51167800D02*
X87110000Y-49720000D01*
X89650000Y-51167800D02*
X89650000Y-49720000D01*
X92190000Y-51167800D02*
X92190000Y-49720000D01*
X102350000Y-51167800D02*
X102350000Y-49720000D01*
X99810000Y-51167800D02*
X99810000Y-49720000D01*
X97270000Y-51167800D02*
X97270000Y-49720000D01*
D30*
X108400000Y-62850000D02*
X112400000Y-66850000D01*
X116400000Y-66250000D02*
X115800000Y-66850000D01*
X115800000Y-66850000D02*
X112400000Y-66850000D01*
X116400000Y-66250000D02*
X117350000Y-66250000D01*
X106200000Y-65050000D02*
X106200000Y-65050000D01*
X106200000Y-63450000D02*
X106200000Y-65050000D01*
X106800000Y-62850000D02*
X106200000Y-63450000D01*
X108400000Y-62850000D02*
X106800000Y-62850000D01*
X108400000Y-62850000D02*
X108400000Y-62850000D01*
X108800000Y-79650000D02*
X108800000Y-78450000D01*
X104800000Y-74450000D02*
X108800000Y-78450000D01*
X104800000Y-74450000D02*
X104600000Y-74450000D01*
X117000000Y-79650000D02*
X108800000Y-79650000D01*
X108800000Y-79650000D02*
X106700000Y-79650000D01*
X117600000Y-80250000D02*
X117000000Y-79650000D01*
X106700000Y-79650000D02*
X104880000Y-81470000D01*
X104880000Y-81470000D02*
X104620000Y-81470000D01*
X104880000Y-96710000D02*
X102940000Y-96710000D01*
X102940000Y-96710000D02*
X102000000Y-97650000D01*
X117350000Y-66250000D02*
X117000000Y-66250000D01*
X85800000Y-94550000D02*
X85800000Y-90250000D01*
X88800000Y-87250000D02*
X95600000Y-87250000D01*
X85800000Y-90250000D02*
X88800000Y-87250000D01*
X104600000Y-74450000D02*
X104880000Y-74730000D01*
X104880000Y-81470000D02*
X104880000Y-84010000D01*
X104880000Y-84010000D02*
X104880000Y-86550000D01*
X104880000Y-86550000D02*
X104880000Y-89090000D01*
X104880000Y-89090000D02*
X104880000Y-91630000D01*
X104880000Y-91630000D02*
X104880000Y-94170000D01*
X104880000Y-94170000D02*
X104880000Y-96710000D01*
X94730000Y-51167800D02*
X94730000Y-49720000D01*
X115050000Y-51167800D02*
X115050000Y-49720000D01*
X132830000Y-51167800D02*
X132830000Y-49720000D01*
X125210000Y-45732200D02*
X125210000Y-47180000D01*
X120130000Y-45732200D02*
X120130000Y-47180000D01*
X107430000Y-45732200D02*
X107430000Y-47180000D01*
X99810000Y-45732200D02*
X99810000Y-47180000D01*
X89650000Y-45732200D02*
X89650000Y-47180000D01*
X109960000Y-89090000D02*
X113960000Y-89090000D01*
X113960000Y-89090000D02*
X114200000Y-88850000D01*
X85800000Y-75850000D02*
X84200000Y-75850000D01*
X83600000Y-75250000D02*
X83600000Y-73050000D01*
X84200000Y-75850000D02*
X83600000Y-75250000D01*
X110000000Y-59250000D02*
X114000000Y-59250000D01*
X114000000Y-59250000D02*
X114400000Y-59650000D01*
X119850000Y-58250000D02*
X119850000Y-58100000D01*
X119850000Y-58100000D02*
X118200000Y-56450000D01*
X109960000Y-81470000D02*
X111380000Y-81470000D01*
X115200000Y-81050000D02*
X117600000Y-83450000D01*
X111800000Y-81050000D02*
X115200000Y-81050000D01*
X111380000Y-81470000D02*
X111800000Y-81050000D01*
X138400000Y-60730000D02*
X139280000Y-60730000D01*
X139280000Y-60730000D02*
X140400000Y-61850000D01*
X140400000Y-70250000D02*
X136740000Y-73910000D01*
X140400000Y-61850000D02*
X140400000Y-70250000D01*
X136740000Y-73910000D02*
X135800000Y-73910000D01*
X81540000Y-56050000D02*
X81540000Y-54710000D01*
X131320000Y-53650000D02*
X138400000Y-60730000D01*
X82600000Y-53650000D02*
X131320000Y-53650000D01*
X81540000Y-54710000D02*
X82600000Y-53650000D01*
X117350000Y-69900000D02*
X117350000Y-68250000D01*
X116600000Y-70650000D02*
X117350000Y-69900000D01*
X118600000Y-67250000D02*
X117600000Y-68250000D01*
X117600000Y-68250000D02*
X117350000Y-68250000D01*
D11*
X97000000Y-70250000D02*
X98400000Y-70250000D01*
X108600000Y-68250000D02*
X108600000Y-69450000D01*
X108600000Y-69450000D02*
X107800000Y-70250000D01*
X107800000Y-70250000D02*
X98400000Y-70250000D01*
X97000000Y-67250000D02*
X97000000Y-70250000D01*
X96800000Y-67050000D02*
X97000000Y-67250000D01*
X97000000Y-70250000D02*
X86400000Y-70250000D01*
X86400000Y-70250000D02*
X83800000Y-67650000D01*
X83800000Y-67650000D02*
X83800000Y-65050000D01*
X83800000Y-65050000D02*
X81600000Y-62850000D01*
X81600000Y-62850000D02*
X80000000Y-62850000D01*
X80000000Y-62850000D02*
X79000000Y-61850000D01*
X79000000Y-61850000D02*
X79000000Y-61130000D01*
X115600000Y-60250000D02*
X117350000Y-60250000D01*
X114400000Y-61450000D02*
X115600000Y-60250000D01*
X114400000Y-64850000D02*
X114400000Y-61450000D01*
X115000000Y-65450000D02*
X114400000Y-64850000D01*
X118600000Y-65250000D02*
X119600000Y-66250000D01*
X119600000Y-66250000D02*
X119850000Y-66250000D01*
X97800000Y-94550000D02*
X97800000Y-80650000D01*
X97800000Y-80650000D02*
X99000000Y-79450000D01*
X99000000Y-79450000D02*
X102000000Y-79450000D01*
X102600000Y-78850000D02*
X102000000Y-79450000D01*
X110600000Y-77250000D02*
X111000000Y-77650000D01*
X110600000Y-67250000D02*
X110600000Y-77250000D01*
X108600000Y-65250000D02*
X110600000Y-67250000D01*
X113600000Y-65650000D02*
X113600000Y-61850000D01*
X113600000Y-61850000D02*
X113200000Y-61450000D01*
X113200000Y-61450000D02*
X112400000Y-61450000D01*
X115860000Y-99250000D02*
X101600000Y-99250000D01*
X99400000Y-80450000D02*
X99400000Y-80450000D01*
X101800000Y-80450000D02*
X99400000Y-80450000D01*
X102800000Y-81450000D02*
X101800000Y-80450000D01*
X102800000Y-94850000D02*
X102800000Y-81450000D01*
X100800000Y-96850000D02*
X102800000Y-94850000D01*
X100800000Y-98450000D02*
X100800000Y-96850000D01*
X101600000Y-99250000D02*
X100800000Y-98450000D01*
X98600000Y-78050000D02*
X101000000Y-78050000D01*
X97800000Y-77250000D02*
X98600000Y-78050000D01*
X101800000Y-77250000D02*
X101800000Y-74650000D01*
X101000000Y-78050000D02*
X101800000Y-77250000D01*
X97800000Y-77250000D02*
X97800000Y-75850000D01*
X97000000Y-72050000D02*
X101200000Y-72050000D01*
X101200000Y-72050000D02*
X102000000Y-72850000D01*
X97000000Y-72050000D02*
X95800000Y-73250000D01*
X86400000Y-69050000D02*
X93400000Y-69050000D01*
X84600000Y-67250000D02*
X86400000Y-69050000D01*
X84600000Y-64250000D02*
X84600000Y-67250000D01*
X83200000Y-62850000D02*
X84600000Y-64250000D01*
X83200000Y-59450000D02*
X83200000Y-62850000D01*
X82340000Y-58590000D02*
X83200000Y-59450000D01*
X95800000Y-73250000D02*
X95800000Y-75850000D01*
X81540000Y-58590000D02*
X82340000Y-58590000D01*
X91800000Y-72250000D02*
X93800000Y-72250000D01*
X81400000Y-63450000D02*
X83000000Y-65050000D01*
X83000000Y-65050000D02*
X83000000Y-67850000D01*
X83000000Y-67850000D02*
X86200000Y-71050000D01*
X86200000Y-71050000D02*
X90600000Y-71050000D01*
X90600000Y-71050000D02*
X91800000Y-72250000D01*
X79000000Y-56250000D02*
X80200000Y-57450000D01*
X80200000Y-57450000D02*
X80200000Y-59450000D01*
X80200000Y-59450000D02*
X79800000Y-59850000D01*
X79800000Y-59850000D02*
X78400000Y-59850000D01*
X78400000Y-59850000D02*
X77600000Y-60650000D01*
X77600000Y-60650000D02*
X77600000Y-61650000D01*
X77600000Y-61650000D02*
X79400000Y-63450000D01*
X79400000Y-63450000D02*
X81400000Y-63450000D01*
X102400000Y-71450000D02*
X102800000Y-71850000D01*
X94600000Y-71450000D02*
X102400000Y-71450000D01*
X93800000Y-72250000D02*
X94600000Y-71450000D01*
X93800000Y-72250000D02*
X93800000Y-75850000D01*
X79000000Y-56050000D02*
X79000000Y-56250000D01*
X91800000Y-75850000D02*
X91800000Y-78050000D01*
X103400000Y-76650000D02*
X103400000Y-73250000D01*
X101400000Y-78650000D02*
X103400000Y-76650000D01*
X92400000Y-78650000D02*
X101400000Y-78650000D01*
X91800000Y-78050000D02*
X92400000Y-78650000D01*
X79000000Y-58590000D02*
X78460000Y-58590000D01*
X78460000Y-58590000D02*
X77000000Y-60050000D01*
X77000000Y-60050000D02*
X77000000Y-61850000D01*
X77000000Y-61850000D02*
X79200000Y-64050000D01*
X79200000Y-64050000D02*
X81200000Y-64050000D01*
X81200000Y-64050000D02*
X82200000Y-65050000D01*
X82200000Y-65050000D02*
X82200000Y-68050000D01*
X82200000Y-68050000D02*
X86000000Y-71850000D01*
X86000000Y-71850000D02*
X90600000Y-71850000D01*
X90600000Y-71850000D02*
X91800000Y-73050000D01*
X91800000Y-73050000D02*
X91800000Y-75850000D01*
D31*
X87800000Y-75850000D02*
X87800000Y-82450000D01*
X85200000Y-85050000D02*
X82800000Y-85050000D01*
X87800000Y-82450000D02*
X85200000Y-85050000D01*
D11*
X94730000Y-45732200D02*
X94730000Y-47180000D01*
X122800000Y-59650000D02*
X123700000Y-60550000D01*
X123700000Y-60550000D02*
X123700000Y-63150000D01*
X123700000Y-63150000D02*
X122600000Y-64250000D01*
X122600000Y-64250000D02*
X119850000Y-64250000D01*
X92190000Y-45732200D02*
X92190000Y-47180000D01*
X117350000Y-58250000D02*
X114000000Y-58250000D01*
X113000000Y-57250000D02*
X113000000Y-55250000D01*
X114000000Y-58250000D02*
X113000000Y-57250000D01*
D30*
X84570000Y-51167800D02*
X84570000Y-49720000D01*
X104890000Y-51167800D02*
X104890000Y-49720000D01*
X117350000Y-64250000D02*
X117000000Y-64250000D01*
X117000000Y-64250000D02*
X115400000Y-62650000D01*
D11*
X138400000Y-65810000D02*
X124240000Y-65810000D01*
X121800000Y-68250000D02*
X119850000Y-68250000D01*
X124240000Y-65810000D02*
X121800000Y-68250000D01*
X118600000Y-63250000D02*
X117600000Y-62250000D01*
X117600000Y-62250000D02*
X117350000Y-62250000D01*
X109600000Y-67650000D02*
X109600000Y-76050000D01*
X107400000Y-65450000D02*
X109600000Y-67650000D01*
X107400000Y-64050000D02*
X107400000Y-65450000D01*
X107600000Y-63850000D02*
X107400000Y-64050000D01*
X109400000Y-75850000D02*
X109600000Y-76050000D01*
X101600000Y-81650000D02*
X101600000Y-82250000D01*
X101600000Y-82250000D02*
X99600000Y-84250000D01*
X106200000Y-82650000D02*
X107380000Y-81470000D01*
X107380000Y-81470000D02*
X107420000Y-81470000D01*
X110800000Y-56850000D02*
X104800000Y-62850000D01*
X104800000Y-62850000D02*
X104800000Y-66250000D01*
X104800000Y-66250000D02*
X105800000Y-67250000D01*
X111600000Y-56850000D02*
X110800000Y-56850000D01*
X121800000Y-58450000D02*
X120000000Y-60250000D01*
X119850000Y-60250000D02*
X120000000Y-60250000D01*
X108780000Y-82650000D02*
X107420000Y-84010000D01*
X112200000Y-82650000D02*
X108780000Y-82650000D01*
X112400000Y-82450000D02*
X112200000Y-82650000D01*
X112400000Y-85050000D02*
X112200000Y-85250000D01*
X112200000Y-85250000D02*
X108720000Y-85250000D01*
X107420000Y-86550000D02*
X108720000Y-85250000D01*
X109000000Y-87850000D02*
X107760000Y-89090000D01*
X112400000Y-87850000D02*
X109000000Y-87850000D01*
X107760000Y-89090000D02*
X107420000Y-89090000D01*
X108600000Y-90250000D02*
X107420000Y-91430000D01*
X112400000Y-90250000D02*
X108600000Y-90250000D01*
X107420000Y-91430000D02*
X107420000Y-91630000D01*
X108540000Y-93050000D02*
X107420000Y-94170000D01*
X112200000Y-93050000D02*
X108540000Y-93050000D01*
X112400000Y-92850000D02*
X112200000Y-93050000D01*
X108600000Y-95450000D02*
X107420000Y-96630000D01*
X112400000Y-95450000D02*
X108600000Y-95450000D01*
X107420000Y-96630000D02*
X107420000Y-96710000D01*
X122000000Y-61850000D02*
X121600000Y-62250000D01*
X121600000Y-62250000D02*
X119850000Y-62250000D01*
X93425000Y-70875000D02*
X107225000Y-70875000D01*
X133400000Y-73350000D02*
X138400000Y-68350000D01*
X133400000Y-76050000D02*
X133400000Y-73350000D01*
X130400000Y-79050000D02*
X133400000Y-76050000D01*
X110800000Y-79050000D02*
X130400000Y-79050000D01*
X108400000Y-76650000D02*
X110800000Y-79050000D01*
X108400000Y-72050000D02*
X108400000Y-76650000D01*
X107225000Y-70875000D02*
X108400000Y-72050000D01*
X93450000Y-70850000D02*
X93425000Y-70875000D01*
X93425000Y-70875000D02*
X93000000Y-71300000D01*
D32*
G36*
X140515000Y-93248999D02*
X140299991Y-93464008D01*
X139778298Y-93729824D01*
X139190008Y-93823000D01*
X137178427Y-93823000D01*
X137153651Y-93825440D01*
X136388284Y-93977681D01*
X136342503Y-93996644D01*
X135693657Y-94430189D01*
X135674411Y-94445983D01*
X134645983Y-95474411D01*
X134635030Y-95486901D01*
X134317193Y-95901114D01*
X134300616Y-95929826D01*
X134100815Y-96412188D01*
X134092234Y-96444212D01*
X134024086Y-96961850D01*
X134023000Y-96978427D01*
X134023000Y-98940008D01*
X133929824Y-99528298D01*
X133664008Y-100049991D01*
X133448999Y-100265000D01*
X131251000Y-100265000D01*
X131251000Y-99535750D01*
X131092250Y-99377000D01*
X129727000Y-99377000D01*
X129727000Y-99397000D01*
X129473000Y-99397000D01*
X129473000Y-99377000D01*
X129453000Y-99377000D01*
X129453000Y-99123000D01*
X129473000Y-99123000D01*
X129473000Y-97757750D01*
X129727000Y-97757750D01*
X129727000Y-99123000D01*
X131092250Y-99123000D01*
X131251000Y-98964250D01*
X131251000Y-98107691D01*
X131154327Y-97874302D01*
X130975699Y-97695673D01*
X130742310Y-97599000D01*
X129885750Y-97599000D01*
X129727000Y-97757750D01*
X129473000Y-97757750D01*
X129314250Y-97599000D01*
X128457690Y-97599000D01*
X128224301Y-97695673D01*
X128045673Y-97874302D01*
X128028001Y-97916966D01*
X127691810Y-97692330D01*
X127060000Y-97566655D01*
X126428190Y-97692330D01*
X125892567Y-98050222D01*
X125534675Y-98585845D01*
X125409000Y-99217655D01*
X125409000Y-99282345D01*
X125534675Y-99914155D01*
X125769102Y-100265000D01*
X120051000Y-100265000D01*
X120051000Y-99535750D01*
X119892250Y-99377000D01*
X118527000Y-99377000D01*
X118527000Y-99397000D01*
X118273000Y-99397000D01*
X118273000Y-99377000D01*
X118253000Y-99377000D01*
X118253000Y-99123000D01*
X118273000Y-99123000D01*
X118273000Y-97757750D01*
X118527000Y-97757750D01*
X118527000Y-99123000D01*
X119892250Y-99123000D01*
X120051000Y-98964250D01*
X120051000Y-98165336D01*
X120112328Y-98226664D01*
X120436751Y-98443437D01*
X120539032Y-98485803D01*
X120683681Y-98545718D01*
X121066364Y-98621838D01*
X121333636Y-98621838D01*
X121716319Y-98545718D01*
X121963248Y-98443437D01*
X121963249Y-98443436D01*
X122287672Y-98226664D01*
X122476664Y-98037672D01*
X122693437Y-97713249D01*
X122746559Y-97584999D01*
X122795718Y-97466319D01*
X122871838Y-97083636D01*
X122871838Y-97016170D01*
X122885000Y-96950000D01*
X122885000Y-81950000D01*
X122871838Y-81883830D01*
X122871838Y-81816364D01*
X122795718Y-81433681D01*
X122705049Y-81214786D01*
X122693437Y-81186751D01*
X122476664Y-80862328D01*
X122287672Y-80673336D01*
X121963248Y-80456563D01*
X121911190Y-80435000D01*
X121716319Y-80354282D01*
X121333636Y-80278162D01*
X121200000Y-80278162D01*
X120683681Y-80354282D01*
X120539032Y-80414197D01*
X120436751Y-80456563D01*
X120112328Y-80673336D01*
X119923336Y-80862328D01*
X119706564Y-81186751D01*
X119706563Y-81186752D01*
X119604282Y-81433681D01*
X119528162Y-81816364D01*
X119528162Y-81883830D01*
X119515000Y-81950000D01*
X119515000Y-96950000D01*
X119528162Y-97016170D01*
X119528162Y-97083636D01*
X119604282Y-97466319D01*
X119674152Y-97635000D01*
X119683457Y-97657465D01*
X119542310Y-97599000D01*
X118685750Y-97599000D01*
X118527000Y-97757750D01*
X118273000Y-97757750D01*
X118114250Y-97599000D01*
X117257690Y-97599000D01*
X117024301Y-97695673D01*
X116845673Y-97874302D01*
X116828001Y-97916966D01*
X116491810Y-97692330D01*
X115860000Y-97566655D01*
X115228190Y-97692330D01*
X114692567Y-98050222D01*
X114382012Y-98515000D01*
X103023114Y-98515000D01*
X103131098Y-98407204D01*
X103334768Y-97916713D01*
X103335136Y-97495000D01*
X103607239Y-97495000D01*
X103760719Y-97724698D01*
X104226266Y-98035767D01*
X104775417Y-98145000D01*
X104984583Y-98145000D01*
X105533734Y-98035767D01*
X105999281Y-97724698D01*
X106150000Y-97499131D01*
X106300719Y-97724698D01*
X106766266Y-98035767D01*
X107315417Y-98145000D01*
X107524583Y-98145000D01*
X108073734Y-98035767D01*
X108498029Y-97752262D01*
X108546673Y-97869698D01*
X108725301Y-98048327D01*
X108958690Y-98145000D01*
X109674250Y-98145000D01*
X109833000Y-97986250D01*
X109833000Y-96837000D01*
X110087000Y-96837000D01*
X110087000Y-97986250D01*
X110245750Y-98145000D01*
X110961310Y-98145000D01*
X111194699Y-98048327D01*
X111373327Y-97869698D01*
X111470000Y-97636309D01*
X111470000Y-96995750D01*
X111311250Y-96837000D01*
X110087000Y-96837000D01*
X109833000Y-96837000D01*
X109813000Y-96837000D01*
X109813000Y-96583000D01*
X109833000Y-96583000D01*
X109833000Y-96563000D01*
X110087000Y-96563000D01*
X110087000Y-96583000D01*
X111311250Y-96583000D01*
X111470000Y-96424250D01*
X111470000Y-96266455D01*
X111699515Y-96496371D01*
X112153266Y-96684785D01*
X112644579Y-96685214D01*
X113098657Y-96497592D01*
X113446371Y-96150485D01*
X113634785Y-95696734D01*
X113635214Y-95205421D01*
X113447592Y-94751343D01*
X113100485Y-94403629D01*
X112646734Y-94215215D01*
X112155421Y-94214786D01*
X111701343Y-94402408D01*
X111470000Y-94633347D01*
X111470000Y-94455750D01*
X111311250Y-94297000D01*
X110087000Y-94297000D01*
X110087000Y-94317000D01*
X109833000Y-94317000D01*
X109833000Y-94297000D01*
X109813000Y-94297000D01*
X109813000Y-94043000D01*
X109833000Y-94043000D01*
X109833000Y-94023000D01*
X110087000Y-94023000D01*
X110087000Y-94043000D01*
X111311250Y-94043000D01*
X111470000Y-93884250D01*
X111470000Y-93785000D01*
X111588338Y-93785000D01*
X111699515Y-93896371D01*
X112153266Y-94084785D01*
X112644579Y-94085214D01*
X113098657Y-93897592D01*
X113446371Y-93550485D01*
X113634785Y-93096734D01*
X113635214Y-92605421D01*
X113447592Y-92151343D01*
X113100485Y-91803629D01*
X112646734Y-91615215D01*
X112155421Y-91614786D01*
X111701343Y-91802408D01*
X111470000Y-92033347D01*
X111470000Y-91915750D01*
X111311250Y-91757000D01*
X110087000Y-91757000D01*
X110087000Y-91777000D01*
X109833000Y-91777000D01*
X109833000Y-91757000D01*
X109813000Y-91757000D01*
X109813000Y-91503000D01*
X109833000Y-91503000D01*
X109833000Y-91483000D01*
X110087000Y-91483000D01*
X110087000Y-91503000D01*
X111311250Y-91503000D01*
X111470000Y-91344250D01*
X111470000Y-91066455D01*
X111699515Y-91296371D01*
X112153266Y-91484785D01*
X112644579Y-91485214D01*
X113098657Y-91297592D01*
X113446371Y-90950485D01*
X113634785Y-90496734D01*
X113635214Y-90005421D01*
X113447592Y-89551343D01*
X113100485Y-89203629D01*
X112730155Y-89049855D01*
X113098657Y-88897592D01*
X113446371Y-88550485D01*
X113634785Y-88096734D01*
X113635214Y-87605421D01*
X113447592Y-87151343D01*
X113100485Y-86803629D01*
X112646734Y-86615215D01*
X112155421Y-86614786D01*
X111701343Y-86802408D01*
X111470000Y-87033347D01*
X111470000Y-86835750D01*
X111311250Y-86677000D01*
X110087000Y-86677000D01*
X110087000Y-86697000D01*
X109833000Y-86697000D01*
X109833000Y-86677000D01*
X109813000Y-86677000D01*
X109813000Y-86423000D01*
X109833000Y-86423000D01*
X109833000Y-86403000D01*
X110087000Y-86403000D01*
X110087000Y-86423000D01*
X111311250Y-86423000D01*
X111470000Y-86264250D01*
X111470000Y-85985000D01*
X111588338Y-85985000D01*
X111699515Y-86096371D01*
X112153266Y-86284785D01*
X112644579Y-86285214D01*
X113098657Y-86097592D01*
X113446371Y-85750485D01*
X113634785Y-85296734D01*
X113635214Y-84805421D01*
X113447592Y-84351343D01*
X113100485Y-84003629D01*
X112646734Y-83815215D01*
X112155421Y-83814786D01*
X111701343Y-84002408D01*
X111438771Y-84264521D01*
X111311250Y-84137000D01*
X110087000Y-84137000D01*
X110087000Y-84157000D01*
X109833000Y-84157000D01*
X109833000Y-84137000D01*
X109813000Y-84137000D01*
X109813000Y-83883000D01*
X109833000Y-83883000D01*
X109833000Y-83863000D01*
X110087000Y-83863000D01*
X110087000Y-83883000D01*
X111311250Y-83883000D01*
X111470000Y-83724250D01*
X111470000Y-83385000D01*
X111588338Y-83385000D01*
X111699515Y-83496371D01*
X112153266Y-83684785D01*
X112644579Y-83685214D01*
X113098657Y-83497592D01*
X113446371Y-83150485D01*
X113634785Y-82696734D01*
X113635214Y-82205421D01*
X113447592Y-81751343D01*
X113100485Y-81403629D01*
X112646734Y-81215215D01*
X112155421Y-81214786D01*
X111701343Y-81402408D01*
X111408745Y-81694495D01*
X111311250Y-81597000D01*
X110087000Y-81597000D01*
X110087000Y-81617000D01*
X109833000Y-81617000D01*
X109833000Y-81597000D01*
X109813000Y-81597000D01*
X109813000Y-81343000D01*
X109833000Y-81343000D01*
X109833000Y-81323000D01*
X110087000Y-81323000D01*
X110087000Y-81343000D01*
X111311250Y-81343000D01*
X111470000Y-81184250D01*
X111470000Y-80543691D01*
X111424979Y-80435000D01*
X116364838Y-80435000D01*
X116364786Y-80494579D01*
X116552408Y-80948657D01*
X116899515Y-81296371D01*
X117353266Y-81484785D01*
X117844579Y-81485214D01*
X118298657Y-81297592D01*
X118646371Y-80950485D01*
X118834785Y-80496734D01*
X118835214Y-80005421D01*
X118744138Y-79785000D01*
X130400000Y-79785000D01*
X130681272Y-79729051D01*
X130919723Y-79569723D01*
X131213696Y-79275750D01*
X133915000Y-79275750D01*
X133915000Y-80366309D01*
X134011673Y-80599698D01*
X134190301Y-80778327D01*
X134423690Y-80875000D01*
X135514250Y-80875000D01*
X135673000Y-80716250D01*
X135673000Y-79117000D01*
X135927000Y-79117000D01*
X135927000Y-80716250D01*
X136085750Y-80875000D01*
X137176310Y-80875000D01*
X137409699Y-80778327D01*
X137588327Y-80599698D01*
X137685000Y-80366309D01*
X137685000Y-79275750D01*
X137526250Y-79117000D01*
X135927000Y-79117000D01*
X135673000Y-79117000D01*
X134073750Y-79117000D01*
X133915000Y-79275750D01*
X131213696Y-79275750D01*
X132875755Y-77613691D01*
X133915000Y-77613691D01*
X133915000Y-78704250D01*
X134073750Y-78863000D01*
X135673000Y-78863000D01*
X135673000Y-77263750D01*
X135927000Y-77263750D01*
X135927000Y-78863000D01*
X137526250Y-78863000D01*
X137685000Y-78704250D01*
X137685000Y-77613691D01*
X137588327Y-77380302D01*
X137409699Y-77201673D01*
X137176310Y-77105000D01*
X136085750Y-77105000D01*
X135927000Y-77263750D01*
X135673000Y-77263750D01*
X135514250Y-77105000D01*
X134423690Y-77105000D01*
X134190301Y-77201673D01*
X134011673Y-77380302D01*
X133915000Y-77613691D01*
X132875755Y-77613691D01*
X133919724Y-76569723D01*
X134079051Y-76331272D01*
X134135000Y-76050000D01*
X134135000Y-74816535D01*
X134201043Y-74976372D01*
X134730839Y-75507093D01*
X135423405Y-75794672D01*
X136173305Y-75795326D01*
X136866372Y-75508957D01*
X137397093Y-74979161D01*
X137684672Y-74286595D01*
X137684856Y-74075302D01*
X140515000Y-71245158D01*
X140515000Y-93248999D01*
X140515000Y-93248999D01*
G37*
X140515000Y-93248999D02*
X140299991Y-93464008D01*
X139778298Y-93729824D01*
X139190008Y-93823000D01*
X137178427Y-93823000D01*
X137153651Y-93825440D01*
X136388284Y-93977681D01*
X136342503Y-93996644D01*
X135693657Y-94430189D01*
X135674411Y-94445983D01*
X134645983Y-95474411D01*
X134635030Y-95486901D01*
X134317193Y-95901114D01*
X134300616Y-95929826D01*
X134100815Y-96412188D01*
X134092234Y-96444212D01*
X134024086Y-96961850D01*
X134023000Y-96978427D01*
X134023000Y-98940008D01*
X133929824Y-99528298D01*
X133664008Y-100049991D01*
X133448999Y-100265000D01*
X131251000Y-100265000D01*
X131251000Y-99535750D01*
X131092250Y-99377000D01*
X129727000Y-99377000D01*
X129727000Y-99397000D01*
X129473000Y-99397000D01*
X129473000Y-99377000D01*
X129453000Y-99377000D01*
X129453000Y-99123000D01*
X129473000Y-99123000D01*
X129473000Y-97757750D01*
X129727000Y-97757750D01*
X129727000Y-99123000D01*
X131092250Y-99123000D01*
X131251000Y-98964250D01*
X131251000Y-98107691D01*
X131154327Y-97874302D01*
X130975699Y-97695673D01*
X130742310Y-97599000D01*
X129885750Y-97599000D01*
X129727000Y-97757750D01*
X129473000Y-97757750D01*
X129314250Y-97599000D01*
X128457690Y-97599000D01*
X128224301Y-97695673D01*
X128045673Y-97874302D01*
X128028001Y-97916966D01*
X127691810Y-97692330D01*
X127060000Y-97566655D01*
X126428190Y-97692330D01*
X125892567Y-98050222D01*
X125534675Y-98585845D01*
X125409000Y-99217655D01*
X125409000Y-99282345D01*
X125534675Y-99914155D01*
X125769102Y-100265000D01*
X120051000Y-100265000D01*
X120051000Y-99535750D01*
X119892250Y-99377000D01*
X118527000Y-99377000D01*
X118527000Y-99397000D01*
X118273000Y-99397000D01*
X118273000Y-99377000D01*
X118253000Y-99377000D01*
X118253000Y-99123000D01*
X118273000Y-99123000D01*
X118273000Y-97757750D01*
X118527000Y-97757750D01*
X118527000Y-99123000D01*
X119892250Y-99123000D01*
X120051000Y-98964250D01*
X120051000Y-98165336D01*
X120112328Y-98226664D01*
X120436751Y-98443437D01*
X120539032Y-98485803D01*
X120683681Y-98545718D01*
X121066364Y-98621838D01*
X121333636Y-98621838D01*
X121716319Y-98545718D01*
X121963248Y-98443437D01*
X121963249Y-98443436D01*
X122287672Y-98226664D01*
X122476664Y-98037672D01*
X122693437Y-97713249D01*
X122746559Y-97584999D01*
X122795718Y-97466319D01*
X122871838Y-97083636D01*
X122871838Y-97016170D01*
X122885000Y-96950000D01*
X122885000Y-81950000D01*
X122871838Y-81883830D01*
X122871838Y-81816364D01*
X122795718Y-81433681D01*
X122705049Y-81214786D01*
X122693437Y-81186751D01*
X122476664Y-80862328D01*
X122287672Y-80673336D01*
X121963248Y-80456563D01*
X121911190Y-80435000D01*
X121716319Y-80354282D01*
X121333636Y-80278162D01*
X121200000Y-80278162D01*
X120683681Y-80354282D01*
X120539032Y-80414197D01*
X120436751Y-80456563D01*
X120112328Y-80673336D01*
X119923336Y-80862328D01*
X119706564Y-81186751D01*
X119706563Y-81186752D01*
X119604282Y-81433681D01*
X119528162Y-81816364D01*
X119528162Y-81883830D01*
X119515000Y-81950000D01*
X119515000Y-96950000D01*
X119528162Y-97016170D01*
X119528162Y-97083636D01*
X119604282Y-97466319D01*
X119674152Y-97635000D01*
X119683457Y-97657465D01*
X119542310Y-97599000D01*
X118685750Y-97599000D01*
X118527000Y-97757750D01*
X118273000Y-97757750D01*
X118114250Y-97599000D01*
X117257690Y-97599000D01*
X117024301Y-97695673D01*
X116845673Y-97874302D01*
X116828001Y-97916966D01*
X116491810Y-97692330D01*
X115860000Y-97566655D01*
X115228190Y-97692330D01*
X114692567Y-98050222D01*
X114382012Y-98515000D01*
X103023114Y-98515000D01*
X103131098Y-98407204D01*
X103334768Y-97916713D01*
X103335136Y-97495000D01*
X103607239Y-97495000D01*
X103760719Y-97724698D01*
X104226266Y-98035767D01*
X104775417Y-98145000D01*
X104984583Y-98145000D01*
X105533734Y-98035767D01*
X105999281Y-97724698D01*
X106150000Y-97499131D01*
X106300719Y-97724698D01*
X106766266Y-98035767D01*
X107315417Y-98145000D01*
X107524583Y-98145000D01*
X108073734Y-98035767D01*
X108498029Y-97752262D01*
X108546673Y-97869698D01*
X108725301Y-98048327D01*
X108958690Y-98145000D01*
X109674250Y-98145000D01*
X109833000Y-97986250D01*
X109833000Y-96837000D01*
X110087000Y-96837000D01*
X110087000Y-97986250D01*
X110245750Y-98145000D01*
X110961310Y-98145000D01*
X111194699Y-98048327D01*
X111373327Y-97869698D01*
X111470000Y-97636309D01*
X111470000Y-96995750D01*
X111311250Y-96837000D01*
X110087000Y-96837000D01*
X109833000Y-96837000D01*
X109813000Y-96837000D01*
X109813000Y-96583000D01*
X109833000Y-96583000D01*
X109833000Y-96563000D01*
X110087000Y-96563000D01*
X110087000Y-96583000D01*
X111311250Y-96583000D01*
X111470000Y-96424250D01*
X111470000Y-96266455D01*
X111699515Y-96496371D01*
X112153266Y-96684785D01*
X112644579Y-96685214D01*
X113098657Y-96497592D01*
X113446371Y-96150485D01*
X113634785Y-95696734D01*
X113635214Y-95205421D01*
X113447592Y-94751343D01*
X113100485Y-94403629D01*
X112646734Y-94215215D01*
X112155421Y-94214786D01*
X111701343Y-94402408D01*
X111470000Y-94633347D01*
X111470000Y-94455750D01*
X111311250Y-94297000D01*
X110087000Y-94297000D01*
X110087000Y-94317000D01*
X109833000Y-94317000D01*
X109833000Y-94297000D01*
X109813000Y-94297000D01*
X109813000Y-94043000D01*
X109833000Y-94043000D01*
X109833000Y-94023000D01*
X110087000Y-94023000D01*
X110087000Y-94043000D01*
X111311250Y-94043000D01*
X111470000Y-93884250D01*
X111470000Y-93785000D01*
X111588338Y-93785000D01*
X111699515Y-93896371D01*
X112153266Y-94084785D01*
X112644579Y-94085214D01*
X113098657Y-93897592D01*
X113446371Y-93550485D01*
X113634785Y-93096734D01*
X113635214Y-92605421D01*
X113447592Y-92151343D01*
X113100485Y-91803629D01*
X112646734Y-91615215D01*
X112155421Y-91614786D01*
X111701343Y-91802408D01*
X111470000Y-92033347D01*
X111470000Y-91915750D01*
X111311250Y-91757000D01*
X110087000Y-91757000D01*
X110087000Y-91777000D01*
X109833000Y-91777000D01*
X109833000Y-91757000D01*
X109813000Y-91757000D01*
X109813000Y-91503000D01*
X109833000Y-91503000D01*
X109833000Y-91483000D01*
X110087000Y-91483000D01*
X110087000Y-91503000D01*
X111311250Y-91503000D01*
X111470000Y-91344250D01*
X111470000Y-91066455D01*
X111699515Y-91296371D01*
X112153266Y-91484785D01*
X112644579Y-91485214D01*
X113098657Y-91297592D01*
X113446371Y-90950485D01*
X113634785Y-90496734D01*
X113635214Y-90005421D01*
X113447592Y-89551343D01*
X113100485Y-89203629D01*
X112730155Y-89049855D01*
X113098657Y-88897592D01*
X113446371Y-88550485D01*
X113634785Y-88096734D01*
X113635214Y-87605421D01*
X113447592Y-87151343D01*
X113100485Y-86803629D01*
X112646734Y-86615215D01*
X112155421Y-86614786D01*
X111701343Y-86802408D01*
X111470000Y-87033347D01*
X111470000Y-86835750D01*
X111311250Y-86677000D01*
X110087000Y-86677000D01*
X110087000Y-86697000D01*
X109833000Y-86697000D01*
X109833000Y-86677000D01*
X109813000Y-86677000D01*
X109813000Y-86423000D01*
X109833000Y-86423000D01*
X109833000Y-86403000D01*
X110087000Y-86403000D01*
X110087000Y-86423000D01*
X111311250Y-86423000D01*
X111470000Y-86264250D01*
X111470000Y-85985000D01*
X111588338Y-85985000D01*
X111699515Y-86096371D01*
X112153266Y-86284785D01*
X112644579Y-86285214D01*
X113098657Y-86097592D01*
X113446371Y-85750485D01*
X113634785Y-85296734D01*
X113635214Y-84805421D01*
X113447592Y-84351343D01*
X113100485Y-84003629D01*
X112646734Y-83815215D01*
X112155421Y-83814786D01*
X111701343Y-84002408D01*
X111438771Y-84264521D01*
X111311250Y-84137000D01*
X110087000Y-84137000D01*
X110087000Y-84157000D01*
X109833000Y-84157000D01*
X109833000Y-84137000D01*
X109813000Y-84137000D01*
X109813000Y-83883000D01*
X109833000Y-83883000D01*
X109833000Y-83863000D01*
X110087000Y-83863000D01*
X110087000Y-83883000D01*
X111311250Y-83883000D01*
X111470000Y-83724250D01*
X111470000Y-83385000D01*
X111588338Y-83385000D01*
X111699515Y-83496371D01*
X112153266Y-83684785D01*
X112644579Y-83685214D01*
X113098657Y-83497592D01*
X113446371Y-83150485D01*
X113634785Y-82696734D01*
X113635214Y-82205421D01*
X113447592Y-81751343D01*
X113100485Y-81403629D01*
X112646734Y-81215215D01*
X112155421Y-81214786D01*
X111701343Y-81402408D01*
X111408745Y-81694495D01*
X111311250Y-81597000D01*
X110087000Y-81597000D01*
X110087000Y-81617000D01*
X109833000Y-81617000D01*
X109833000Y-81597000D01*
X109813000Y-81597000D01*
X109813000Y-81343000D01*
X109833000Y-81343000D01*
X109833000Y-81323000D01*
X110087000Y-81323000D01*
X110087000Y-81343000D01*
X111311250Y-81343000D01*
X111470000Y-81184250D01*
X111470000Y-80543691D01*
X111424979Y-80435000D01*
X116364838Y-80435000D01*
X116364786Y-80494579D01*
X116552408Y-80948657D01*
X116899515Y-81296371D01*
X117353266Y-81484785D01*
X117844579Y-81485214D01*
X118298657Y-81297592D01*
X118646371Y-80950485D01*
X118834785Y-80496734D01*
X118835214Y-80005421D01*
X118744138Y-79785000D01*
X130400000Y-79785000D01*
X130681272Y-79729051D01*
X130919723Y-79569723D01*
X131213696Y-79275750D01*
X133915000Y-79275750D01*
X133915000Y-80366309D01*
X134011673Y-80599698D01*
X134190301Y-80778327D01*
X134423690Y-80875000D01*
X135514250Y-80875000D01*
X135673000Y-80716250D01*
X135673000Y-79117000D01*
X135927000Y-79117000D01*
X135927000Y-80716250D01*
X136085750Y-80875000D01*
X137176310Y-80875000D01*
X137409699Y-80778327D01*
X137588327Y-80599698D01*
X137685000Y-80366309D01*
X137685000Y-79275750D01*
X137526250Y-79117000D01*
X135927000Y-79117000D01*
X135673000Y-79117000D01*
X134073750Y-79117000D01*
X133915000Y-79275750D01*
X131213696Y-79275750D01*
X132875755Y-77613691D01*
X133915000Y-77613691D01*
X133915000Y-78704250D01*
X134073750Y-78863000D01*
X135673000Y-78863000D01*
X135673000Y-77263750D01*
X135927000Y-77263750D01*
X135927000Y-78863000D01*
X137526250Y-78863000D01*
X137685000Y-78704250D01*
X137685000Y-77613691D01*
X137588327Y-77380302D01*
X137409699Y-77201673D01*
X137176310Y-77105000D01*
X136085750Y-77105000D01*
X135927000Y-77263750D01*
X135673000Y-77263750D01*
X135514250Y-77105000D01*
X134423690Y-77105000D01*
X134190301Y-77201673D01*
X134011673Y-77380302D01*
X133915000Y-77613691D01*
X132875755Y-77613691D01*
X133919724Y-76569723D01*
X134079051Y-76331272D01*
X134135000Y-76050000D01*
X134135000Y-74816535D01*
X134201043Y-74976372D01*
X134730839Y-75507093D01*
X135423405Y-75794672D01*
X136173305Y-75795326D01*
X136866372Y-75508957D01*
X137397093Y-74979161D01*
X137684672Y-74286595D01*
X137684856Y-74075302D01*
X140515000Y-71245158D01*
X140515000Y-93248999D01*
G36*
X85480277Y-72369724D02*
X85697699Y-72515000D01*
X85718728Y-72529051D01*
X86000000Y-72585000D01*
X90295554Y-72585000D01*
X91065000Y-73354447D01*
X91065000Y-73727962D01*
X90964683Y-73746838D01*
X90800508Y-73852482D01*
X90759699Y-73811673D01*
X90526310Y-73715000D01*
X90085750Y-73715000D01*
X89927000Y-73873750D01*
X89927000Y-75723000D01*
X89947000Y-75723000D01*
X89947000Y-75977000D01*
X89927000Y-75977000D01*
X89927000Y-77826250D01*
X90085750Y-77985000D01*
X90526310Y-77985000D01*
X90759699Y-77888327D01*
X90801660Y-77846366D01*
X90948110Y-77946431D01*
X91065000Y-77970102D01*
X91065000Y-78050000D01*
X91117712Y-78315000D01*
X91120949Y-78331272D01*
X91280277Y-78569723D01*
X91880276Y-79169723D01*
X92038957Y-79275750D01*
X92118728Y-79329051D01*
X92400000Y-79385000D01*
X98025553Y-79385000D01*
X97280277Y-80130277D01*
X97120949Y-80368728D01*
X97065000Y-80650000D01*
X97065000Y-92427962D01*
X96964683Y-92446838D01*
X96798523Y-92553759D01*
X96651890Y-92453569D01*
X96400000Y-92402560D01*
X95200000Y-92402560D01*
X94964683Y-92446838D01*
X94798523Y-92553759D01*
X94651890Y-92453569D01*
X94400000Y-92402560D01*
X93200000Y-92402560D01*
X92964683Y-92446838D01*
X92798523Y-92553759D01*
X92651890Y-92453569D01*
X92400000Y-92402560D01*
X91200000Y-92402560D01*
X90964683Y-92446838D01*
X90798523Y-92553759D01*
X90651890Y-92453569D01*
X90400000Y-92402560D01*
X89200000Y-92402560D01*
X88964683Y-92446838D01*
X88798523Y-92553759D01*
X88651890Y-92453569D01*
X88400000Y-92402560D01*
X87200000Y-92402560D01*
X86964683Y-92446838D01*
X86798523Y-92553759D01*
X86651890Y-92453569D01*
X86585000Y-92440023D01*
X86585000Y-90575158D01*
X89125158Y-88035000D01*
X94497301Y-88035000D01*
X94842796Y-88381098D01*
X95333287Y-88584768D01*
X95864383Y-88585231D01*
X96355229Y-88382418D01*
X96731098Y-88007204D01*
X96934768Y-87516713D01*
X96935231Y-86985617D01*
X96732418Y-86494771D01*
X96357204Y-86118902D01*
X95866713Y-85915232D01*
X95335617Y-85914769D01*
X94844771Y-86117582D01*
X94496747Y-86465000D01*
X88800000Y-86465000D01*
X88499594Y-86524755D01*
X88244921Y-86694921D01*
X85244921Y-89694921D01*
X85074755Y-89949593D01*
X85074755Y-89949594D01*
X85015000Y-90250000D01*
X85015000Y-92437370D01*
X84964683Y-92446838D01*
X84748559Y-92585910D01*
X84603569Y-92798110D01*
X84552560Y-93050000D01*
X84552560Y-96050000D01*
X84596838Y-96285317D01*
X84735910Y-96501441D01*
X84948110Y-96646431D01*
X85200000Y-96697440D01*
X86400000Y-96697440D01*
X86635317Y-96653162D01*
X86801477Y-96546241D01*
X86948110Y-96646431D01*
X87200000Y-96697440D01*
X88400000Y-96697440D01*
X88635317Y-96653162D01*
X88801477Y-96546241D01*
X88948110Y-96646431D01*
X89200000Y-96697440D01*
X90400000Y-96697440D01*
X90635317Y-96653162D01*
X90801477Y-96546241D01*
X90948110Y-96646431D01*
X91200000Y-96697440D01*
X92400000Y-96697440D01*
X92635317Y-96653162D01*
X92801477Y-96546241D01*
X92948110Y-96646431D01*
X93200000Y-96697440D01*
X94400000Y-96697440D01*
X94635317Y-96653162D01*
X94801477Y-96546241D01*
X94948110Y-96646431D01*
X95200000Y-96697440D01*
X96400000Y-96697440D01*
X96635317Y-96653162D01*
X96801477Y-96546241D01*
X96948110Y-96646431D01*
X97200000Y-96697440D01*
X98400000Y-96697440D01*
X98635317Y-96653162D01*
X98801477Y-96546241D01*
X98948110Y-96646431D01*
X99200000Y-96697440D01*
X100095346Y-96697440D01*
X100065000Y-96850000D01*
X100065000Y-98450000D01*
X100092022Y-98585845D01*
X100120949Y-98731272D01*
X100280277Y-98969723D01*
X101080277Y-99769724D01*
X101318728Y-99929051D01*
X101600000Y-99985000D01*
X114382012Y-99985000D01*
X114569102Y-100265000D01*
X84001001Y-100265000D01*
X83785992Y-100049991D01*
X83520176Y-99528298D01*
X83427000Y-98940008D01*
X83427000Y-97128427D01*
X83425914Y-97111850D01*
X83357766Y-96594212D01*
X83349185Y-96562188D01*
X83149384Y-96079826D01*
X83132807Y-96051114D01*
X82814970Y-95636901D01*
X82804017Y-95624411D01*
X81675589Y-94495983D01*
X81663099Y-94485030D01*
X81248886Y-94167193D01*
X81220174Y-94150616D01*
X80737812Y-93950815D01*
X80705788Y-93942234D01*
X80188150Y-93874086D01*
X80171573Y-93873000D01*
X78209992Y-93873000D01*
X78199322Y-93871310D01*
X79035000Y-93871310D01*
X79035000Y-83932400D01*
X81034960Y-83932400D01*
X81034960Y-86167600D01*
X81079238Y-86402917D01*
X81218310Y-86619041D01*
X81430510Y-86764031D01*
X81682400Y-86815040D01*
X83917600Y-86815040D01*
X84152917Y-86770762D01*
X84369041Y-86631690D01*
X84514031Y-86419490D01*
X84565040Y-86167600D01*
X84565040Y-85935000D01*
X85199995Y-85935000D01*
X85200000Y-85935001D01*
X85482484Y-85878810D01*
X85538675Y-85867633D01*
X85825790Y-85675790D01*
X88425787Y-83075792D01*
X88425790Y-83075790D01*
X88617633Y-82788675D01*
X88627483Y-82739155D01*
X88685001Y-82450000D01*
X88685000Y-82449995D01*
X88685000Y-77921192D01*
X88799492Y-77847518D01*
X88840301Y-77888327D01*
X89073690Y-77985000D01*
X89514250Y-77985000D01*
X89673000Y-77826250D01*
X89673000Y-75977000D01*
X89653000Y-75977000D01*
X89653000Y-75723000D01*
X89673000Y-75723000D01*
X89673000Y-73873750D01*
X89514250Y-73715000D01*
X89073690Y-73715000D01*
X88840301Y-73811673D01*
X88798340Y-73853634D01*
X88651890Y-73753569D01*
X88400000Y-73702560D01*
X87200000Y-73702560D01*
X86964683Y-73746838D01*
X86800508Y-73852482D01*
X86759699Y-73811673D01*
X86526310Y-73715000D01*
X86085750Y-73715000D01*
X85927000Y-73873750D01*
X85927000Y-75723000D01*
X85947000Y-75723000D01*
X85947000Y-75977000D01*
X85927000Y-75977000D01*
X85927000Y-77826250D01*
X86085750Y-77985000D01*
X86526310Y-77985000D01*
X86759699Y-77888327D01*
X86801660Y-77846366D01*
X86915000Y-77923808D01*
X86915000Y-82083421D01*
X84833420Y-84165000D01*
X84565040Y-84165000D01*
X84565040Y-83932400D01*
X84520762Y-83697083D01*
X84381690Y-83480959D01*
X84169490Y-83335969D01*
X83917600Y-83284960D01*
X81682400Y-83284960D01*
X81447083Y-83329238D01*
X81230959Y-83468310D01*
X81085969Y-83680510D01*
X81034960Y-83932400D01*
X79035000Y-83932400D01*
X79035000Y-82228690D01*
X76998814Y-82228690D01*
X77084590Y-82171376D01*
X77267466Y-82135000D01*
X80200000Y-82135000D01*
X80266170Y-82121838D01*
X80333636Y-82121838D01*
X80716319Y-82045718D01*
X80963248Y-81943437D01*
X80963249Y-81943436D01*
X81287672Y-81726664D01*
X81476664Y-81537672D01*
X81693437Y-81213249D01*
X81747123Y-81083637D01*
X81795718Y-80966319D01*
X81871838Y-80583636D01*
X81871838Y-80516170D01*
X81885000Y-80450000D01*
X81885000Y-76135750D01*
X84565000Y-76135750D01*
X84565000Y-77476309D01*
X84661673Y-77709698D01*
X84840301Y-77888327D01*
X85073690Y-77985000D01*
X85514250Y-77985000D01*
X85673000Y-77826250D01*
X85673000Y-75977000D01*
X84723750Y-75977000D01*
X84565000Y-76135750D01*
X81885000Y-76135750D01*
X81885000Y-74223691D01*
X84565000Y-74223691D01*
X84565000Y-75564250D01*
X84723750Y-75723000D01*
X85673000Y-75723000D01*
X85673000Y-73873750D01*
X85514250Y-73715000D01*
X85073690Y-73715000D01*
X84840301Y-73811673D01*
X84661673Y-73990302D01*
X84565000Y-74223691D01*
X81885000Y-74223691D01*
X81885000Y-68774446D01*
X85480277Y-72369724D01*
X85480277Y-72369724D01*
G37*
X85480277Y-72369724D02*
X85697699Y-72515000D01*
X85718728Y-72529051D01*
X86000000Y-72585000D01*
X90295554Y-72585000D01*
X91065000Y-73354447D01*
X91065000Y-73727962D01*
X90964683Y-73746838D01*
X90800508Y-73852482D01*
X90759699Y-73811673D01*
X90526310Y-73715000D01*
X90085750Y-73715000D01*
X89927000Y-73873750D01*
X89927000Y-75723000D01*
X89947000Y-75723000D01*
X89947000Y-75977000D01*
X89927000Y-75977000D01*
X89927000Y-77826250D01*
X90085750Y-77985000D01*
X90526310Y-77985000D01*
X90759699Y-77888327D01*
X90801660Y-77846366D01*
X90948110Y-77946431D01*
X91065000Y-77970102D01*
X91065000Y-78050000D01*
X91117712Y-78315000D01*
X91120949Y-78331272D01*
X91280277Y-78569723D01*
X91880276Y-79169723D01*
X92038957Y-79275750D01*
X92118728Y-79329051D01*
X92400000Y-79385000D01*
X98025553Y-79385000D01*
X97280277Y-80130277D01*
X97120949Y-80368728D01*
X97065000Y-80650000D01*
X97065000Y-92427962D01*
X96964683Y-92446838D01*
X96798523Y-92553759D01*
X96651890Y-92453569D01*
X96400000Y-92402560D01*
X95200000Y-92402560D01*
X94964683Y-92446838D01*
X94798523Y-92553759D01*
X94651890Y-92453569D01*
X94400000Y-92402560D01*
X93200000Y-92402560D01*
X92964683Y-92446838D01*
X92798523Y-92553759D01*
X92651890Y-92453569D01*
X92400000Y-92402560D01*
X91200000Y-92402560D01*
X90964683Y-92446838D01*
X90798523Y-92553759D01*
X90651890Y-92453569D01*
X90400000Y-92402560D01*
X89200000Y-92402560D01*
X88964683Y-92446838D01*
X88798523Y-92553759D01*
X88651890Y-92453569D01*
X88400000Y-92402560D01*
X87200000Y-92402560D01*
X86964683Y-92446838D01*
X86798523Y-92553759D01*
X86651890Y-92453569D01*
X86585000Y-92440023D01*
X86585000Y-90575158D01*
X89125158Y-88035000D01*
X94497301Y-88035000D01*
X94842796Y-88381098D01*
X95333287Y-88584768D01*
X95864383Y-88585231D01*
X96355229Y-88382418D01*
X96731098Y-88007204D01*
X96934768Y-87516713D01*
X96935231Y-86985617D01*
X96732418Y-86494771D01*
X96357204Y-86118902D01*
X95866713Y-85915232D01*
X95335617Y-85914769D01*
X94844771Y-86117582D01*
X94496747Y-86465000D01*
X88800000Y-86465000D01*
X88499594Y-86524755D01*
X88244921Y-86694921D01*
X85244921Y-89694921D01*
X85074755Y-89949593D01*
X85074755Y-89949594D01*
X85015000Y-90250000D01*
X85015000Y-92437370D01*
X84964683Y-92446838D01*
X84748559Y-92585910D01*
X84603569Y-92798110D01*
X84552560Y-93050000D01*
X84552560Y-96050000D01*
X84596838Y-96285317D01*
X84735910Y-96501441D01*
X84948110Y-96646431D01*
X85200000Y-96697440D01*
X86400000Y-96697440D01*
X86635317Y-96653162D01*
X86801477Y-96546241D01*
X86948110Y-96646431D01*
X87200000Y-96697440D01*
X88400000Y-96697440D01*
X88635317Y-96653162D01*
X88801477Y-96546241D01*
X88948110Y-96646431D01*
X89200000Y-96697440D01*
X90400000Y-96697440D01*
X90635317Y-96653162D01*
X90801477Y-96546241D01*
X90948110Y-96646431D01*
X91200000Y-96697440D01*
X92400000Y-96697440D01*
X92635317Y-96653162D01*
X92801477Y-96546241D01*
X92948110Y-96646431D01*
X93200000Y-96697440D01*
X94400000Y-96697440D01*
X94635317Y-96653162D01*
X94801477Y-96546241D01*
X94948110Y-96646431D01*
X95200000Y-96697440D01*
X96400000Y-96697440D01*
X96635317Y-96653162D01*
X96801477Y-96546241D01*
X96948110Y-96646431D01*
X97200000Y-96697440D01*
X98400000Y-96697440D01*
X98635317Y-96653162D01*
X98801477Y-96546241D01*
X98948110Y-96646431D01*
X99200000Y-96697440D01*
X100095346Y-96697440D01*
X100065000Y-96850000D01*
X100065000Y-98450000D01*
X100092022Y-98585845D01*
X100120949Y-98731272D01*
X100280277Y-98969723D01*
X101080277Y-99769724D01*
X101318728Y-99929051D01*
X101600000Y-99985000D01*
X114382012Y-99985000D01*
X114569102Y-100265000D01*
X84001001Y-100265000D01*
X83785992Y-100049991D01*
X83520176Y-99528298D01*
X83427000Y-98940008D01*
X83427000Y-97128427D01*
X83425914Y-97111850D01*
X83357766Y-96594212D01*
X83349185Y-96562188D01*
X83149384Y-96079826D01*
X83132807Y-96051114D01*
X82814970Y-95636901D01*
X82804017Y-95624411D01*
X81675589Y-94495983D01*
X81663099Y-94485030D01*
X81248886Y-94167193D01*
X81220174Y-94150616D01*
X80737812Y-93950815D01*
X80705788Y-93942234D01*
X80188150Y-93874086D01*
X80171573Y-93873000D01*
X78209992Y-93873000D01*
X78199322Y-93871310D01*
X79035000Y-93871310D01*
X79035000Y-83932400D01*
X81034960Y-83932400D01*
X81034960Y-86167600D01*
X81079238Y-86402917D01*
X81218310Y-86619041D01*
X81430510Y-86764031D01*
X81682400Y-86815040D01*
X83917600Y-86815040D01*
X84152917Y-86770762D01*
X84369041Y-86631690D01*
X84514031Y-86419490D01*
X84565040Y-86167600D01*
X84565040Y-85935000D01*
X85199995Y-85935000D01*
X85200000Y-85935001D01*
X85482484Y-85878810D01*
X85538675Y-85867633D01*
X85825790Y-85675790D01*
X88425787Y-83075792D01*
X88425790Y-83075790D01*
X88617633Y-82788675D01*
X88627483Y-82739155D01*
X88685001Y-82450000D01*
X88685000Y-82449995D01*
X88685000Y-77921192D01*
X88799492Y-77847518D01*
X88840301Y-77888327D01*
X89073690Y-77985000D01*
X89514250Y-77985000D01*
X89673000Y-77826250D01*
X89673000Y-75977000D01*
X89653000Y-75977000D01*
X89653000Y-75723000D01*
X89673000Y-75723000D01*
X89673000Y-73873750D01*
X89514250Y-73715000D01*
X89073690Y-73715000D01*
X88840301Y-73811673D01*
X88798340Y-73853634D01*
X88651890Y-73753569D01*
X88400000Y-73702560D01*
X87200000Y-73702560D01*
X86964683Y-73746838D01*
X86800508Y-73852482D01*
X86759699Y-73811673D01*
X86526310Y-73715000D01*
X86085750Y-73715000D01*
X85927000Y-73873750D01*
X85927000Y-75723000D01*
X85947000Y-75723000D01*
X85947000Y-75977000D01*
X85927000Y-75977000D01*
X85927000Y-77826250D01*
X86085750Y-77985000D01*
X86526310Y-77985000D01*
X86759699Y-77888327D01*
X86801660Y-77846366D01*
X86915000Y-77923808D01*
X86915000Y-82083421D01*
X84833420Y-84165000D01*
X84565040Y-84165000D01*
X84565040Y-83932400D01*
X84520762Y-83697083D01*
X84381690Y-83480959D01*
X84169490Y-83335969D01*
X83917600Y-83284960D01*
X81682400Y-83284960D01*
X81447083Y-83329238D01*
X81230959Y-83468310D01*
X81085969Y-83680510D01*
X81034960Y-83932400D01*
X79035000Y-83932400D01*
X79035000Y-82228690D01*
X76998814Y-82228690D01*
X77084590Y-82171376D01*
X77267466Y-82135000D01*
X80200000Y-82135000D01*
X80266170Y-82121838D01*
X80333636Y-82121838D01*
X80716319Y-82045718D01*
X80963248Y-81943437D01*
X80963249Y-81943436D01*
X81287672Y-81726664D01*
X81476664Y-81537672D01*
X81693437Y-81213249D01*
X81747123Y-81083637D01*
X81795718Y-80966319D01*
X81871838Y-80583636D01*
X81871838Y-80516170D01*
X81885000Y-80450000D01*
X81885000Y-76135750D01*
X84565000Y-76135750D01*
X84565000Y-77476309D01*
X84661673Y-77709698D01*
X84840301Y-77888327D01*
X85073690Y-77985000D01*
X85514250Y-77985000D01*
X85673000Y-77826250D01*
X85673000Y-75977000D01*
X84723750Y-75977000D01*
X84565000Y-76135750D01*
X81885000Y-76135750D01*
X81885000Y-74223691D01*
X84565000Y-74223691D01*
X84565000Y-75564250D01*
X84723750Y-75723000D01*
X85673000Y-75723000D01*
X85673000Y-73873750D01*
X85514250Y-73715000D01*
X85073690Y-73715000D01*
X84840301Y-73811673D01*
X84661673Y-73990302D01*
X84565000Y-74223691D01*
X81885000Y-74223691D01*
X81885000Y-68774446D01*
X85480277Y-72369724D01*
G36*
X111699515Y-88896371D02*
X112069845Y-89050145D01*
X111701343Y-89202408D01*
X111470000Y-89433347D01*
X111470000Y-89375750D01*
X111311250Y-89217000D01*
X110087000Y-89217000D01*
X110087000Y-89237000D01*
X109833000Y-89237000D01*
X109833000Y-89217000D01*
X109813000Y-89217000D01*
X109813000Y-88963000D01*
X109833000Y-88963000D01*
X109833000Y-88943000D01*
X110087000Y-88943000D01*
X110087000Y-88963000D01*
X111311250Y-88963000D01*
X111470000Y-88804250D01*
X111470000Y-88666455D01*
X111699515Y-88896371D01*
X111699515Y-88896371D01*
G37*
X111699515Y-88896371D02*
X112069845Y-89050145D01*
X111701343Y-89202408D01*
X111470000Y-89433347D01*
X111470000Y-89375750D01*
X111311250Y-89217000D01*
X110087000Y-89217000D01*
X110087000Y-89237000D01*
X109833000Y-89237000D01*
X109833000Y-89217000D01*
X109813000Y-89217000D01*
X109813000Y-88963000D01*
X109833000Y-88963000D01*
X109833000Y-88943000D01*
X110087000Y-88943000D01*
X110087000Y-88963000D01*
X111311250Y-88963000D01*
X111470000Y-88804250D01*
X111470000Y-88666455D01*
X111699515Y-88896371D01*
G36*
X111844921Y-67405079D02*
X112099593Y-67575245D01*
X112400000Y-67635000D01*
X115800000Y-67635000D01*
X116100407Y-67575245D01*
X116142093Y-67547391D01*
X115965241Y-67973298D01*
X115964760Y-68524285D01*
X116175169Y-69033515D01*
X116456038Y-69314874D01*
X116335617Y-69314769D01*
X115844771Y-69517582D01*
X115468902Y-69892796D01*
X115265232Y-70383287D01*
X115264769Y-70914383D01*
X115467582Y-71405229D01*
X115842796Y-71781098D01*
X116333287Y-71984768D01*
X116864383Y-71985231D01*
X117355229Y-71782418D01*
X117731098Y-71407204D01*
X117934768Y-70916713D01*
X117935210Y-70409985D01*
X118075245Y-70200407D01*
X118135000Y-69900000D01*
X118135000Y-69423349D01*
X118523461Y-69035564D01*
X118599927Y-68851414D01*
X118675169Y-69033515D01*
X119064436Y-69423461D01*
X119573298Y-69634759D01*
X120124285Y-69635240D01*
X120633515Y-69424831D01*
X121023461Y-69035564D01*
X121044457Y-68985000D01*
X121800000Y-68985000D01*
X122081272Y-68929051D01*
X122319723Y-68769723D01*
X124544447Y-66545000D01*
X136938647Y-66545000D01*
X137155585Y-66869670D01*
X137470366Y-67080000D01*
X137155585Y-67290330D01*
X136830729Y-67776511D01*
X136716655Y-68350000D01*
X136823485Y-68887069D01*
X132880277Y-72830277D01*
X132720949Y-73068728D01*
X132665000Y-73350000D01*
X132665000Y-75745553D01*
X130095554Y-78315000D01*
X112061106Y-78315000D01*
X112234785Y-77896734D01*
X112235214Y-77405421D01*
X112047592Y-76951343D01*
X111700485Y-76603629D01*
X111335000Y-76451866D01*
X111335000Y-67250000D01*
X111279051Y-66968728D01*
X111200655Y-66851400D01*
X111119723Y-66730276D01*
X109834830Y-65445383D01*
X109834874Y-65395032D01*
X111844921Y-67405079D01*
X111844921Y-67405079D01*
G37*
X111844921Y-67405079D02*
X112099593Y-67575245D01*
X112400000Y-67635000D01*
X115800000Y-67635000D01*
X116100407Y-67575245D01*
X116142093Y-67547391D01*
X115965241Y-67973298D01*
X115964760Y-68524285D01*
X116175169Y-69033515D01*
X116456038Y-69314874D01*
X116335617Y-69314769D01*
X115844771Y-69517582D01*
X115468902Y-69892796D01*
X115265232Y-70383287D01*
X115264769Y-70914383D01*
X115467582Y-71405229D01*
X115842796Y-71781098D01*
X116333287Y-71984768D01*
X116864383Y-71985231D01*
X117355229Y-71782418D01*
X117731098Y-71407204D01*
X117934768Y-70916713D01*
X117935210Y-70409985D01*
X118075245Y-70200407D01*
X118135000Y-69900000D01*
X118135000Y-69423349D01*
X118523461Y-69035564D01*
X118599927Y-68851414D01*
X118675169Y-69033515D01*
X119064436Y-69423461D01*
X119573298Y-69634759D01*
X120124285Y-69635240D01*
X120633515Y-69424831D01*
X121023461Y-69035564D01*
X121044457Y-68985000D01*
X121800000Y-68985000D01*
X122081272Y-68929051D01*
X122319723Y-68769723D01*
X124544447Y-66545000D01*
X136938647Y-66545000D01*
X137155585Y-66869670D01*
X137470366Y-67080000D01*
X137155585Y-67290330D01*
X136830729Y-67776511D01*
X136716655Y-68350000D01*
X136823485Y-68887069D01*
X132880277Y-72830277D01*
X132720949Y-73068728D01*
X132665000Y-73350000D01*
X132665000Y-75745553D01*
X130095554Y-78315000D01*
X112061106Y-78315000D01*
X112234785Y-77896734D01*
X112235214Y-77405421D01*
X112047592Y-76951343D01*
X111700485Y-76603629D01*
X111335000Y-76451866D01*
X111335000Y-67250000D01*
X111279051Y-66968728D01*
X111200655Y-66851400D01*
X111119723Y-66730276D01*
X109834830Y-65445383D01*
X109834874Y-65395032D01*
X111844921Y-67405079D01*
G36*
X111953629Y-54549515D02*
X111765215Y-55003266D01*
X111764786Y-55494579D01*
X111814620Y-55615187D01*
X111355421Y-55614786D01*
X110901343Y-55802408D01*
X110553629Y-56149515D01*
X110547070Y-56165311D01*
X110518728Y-56170949D01*
X110280276Y-56330277D01*
X104280277Y-62330277D01*
X104120949Y-62568728D01*
X104065000Y-62850000D01*
X104065000Y-66250000D01*
X104119559Y-66524285D01*
X104120949Y-66531272D01*
X104280277Y-66769723D01*
X104565170Y-67054616D01*
X104564786Y-67494579D01*
X104752408Y-67948657D01*
X105099515Y-68296371D01*
X105553266Y-68484785D01*
X106044579Y-68485214D01*
X106498657Y-68297592D01*
X106846371Y-67950485D01*
X107034785Y-67496734D01*
X107035214Y-67005421D01*
X106847592Y-66551343D01*
X106618289Y-66321639D01*
X106955229Y-66182418D01*
X107024161Y-66113607D01*
X108051088Y-67140534D01*
X107901343Y-67202408D01*
X107553629Y-67549515D01*
X107365215Y-68003266D01*
X107364786Y-68494579D01*
X107552408Y-68948657D01*
X107806930Y-69203624D01*
X107495554Y-69515000D01*
X97735000Y-69515000D01*
X97735000Y-67861662D01*
X97846371Y-67750485D01*
X98034785Y-67296734D01*
X98035214Y-66805421D01*
X97847592Y-66351343D01*
X97500485Y-66003629D01*
X97046734Y-65815215D01*
X96555421Y-65814786D01*
X96101343Y-66002408D01*
X95753629Y-66349515D01*
X95565215Y-66803266D01*
X95564786Y-67294579D01*
X95752408Y-67748657D01*
X96099515Y-68096371D01*
X96265000Y-68165086D01*
X96265000Y-69515000D01*
X94544153Y-69515000D01*
X94634785Y-69296734D01*
X94635214Y-68805421D01*
X94447592Y-68351343D01*
X94100485Y-68003629D01*
X93646734Y-67815215D01*
X93155421Y-67814786D01*
X92701343Y-68002408D01*
X92388204Y-68315000D01*
X86704447Y-68315000D01*
X85335000Y-66945554D01*
X85335000Y-64250000D01*
X85279051Y-63968728D01*
X85119723Y-63730277D01*
X83935000Y-62545554D01*
X83935000Y-59450000D01*
X83879051Y-59168728D01*
X83839625Y-59109723D01*
X83719724Y-58930277D01*
X83029036Y-58239590D01*
X82820862Y-57735771D01*
X82405464Y-57319647D01*
X82819370Y-56906463D01*
X83049738Y-56351675D01*
X83050262Y-55750960D01*
X82820862Y-55195771D01*
X82492911Y-54867247D01*
X82925158Y-54435000D01*
X112068344Y-54435000D01*
X111953629Y-54549515D01*
X111953629Y-54549515D01*
G37*
X111953629Y-54549515D02*
X111765215Y-55003266D01*
X111764786Y-55494579D01*
X111814620Y-55615187D01*
X111355421Y-55614786D01*
X110901343Y-55802408D01*
X110553629Y-56149515D01*
X110547070Y-56165311D01*
X110518728Y-56170949D01*
X110280276Y-56330277D01*
X104280277Y-62330277D01*
X104120949Y-62568728D01*
X104065000Y-62850000D01*
X104065000Y-66250000D01*
X104119559Y-66524285D01*
X104120949Y-66531272D01*
X104280277Y-66769723D01*
X104565170Y-67054616D01*
X104564786Y-67494579D01*
X104752408Y-67948657D01*
X105099515Y-68296371D01*
X105553266Y-68484785D01*
X106044579Y-68485214D01*
X106498657Y-68297592D01*
X106846371Y-67950485D01*
X107034785Y-67496734D01*
X107035214Y-67005421D01*
X106847592Y-66551343D01*
X106618289Y-66321639D01*
X106955229Y-66182418D01*
X107024161Y-66113607D01*
X108051088Y-67140534D01*
X107901343Y-67202408D01*
X107553629Y-67549515D01*
X107365215Y-68003266D01*
X107364786Y-68494579D01*
X107552408Y-68948657D01*
X107806930Y-69203624D01*
X107495554Y-69515000D01*
X97735000Y-69515000D01*
X97735000Y-67861662D01*
X97846371Y-67750485D01*
X98034785Y-67296734D01*
X98035214Y-66805421D01*
X97847592Y-66351343D01*
X97500485Y-66003629D01*
X97046734Y-65815215D01*
X96555421Y-65814786D01*
X96101343Y-66002408D01*
X95753629Y-66349515D01*
X95565215Y-66803266D01*
X95564786Y-67294579D01*
X95752408Y-67748657D01*
X96099515Y-68096371D01*
X96265000Y-68165086D01*
X96265000Y-69515000D01*
X94544153Y-69515000D01*
X94634785Y-69296734D01*
X94635214Y-68805421D01*
X94447592Y-68351343D01*
X94100485Y-68003629D01*
X93646734Y-67815215D01*
X93155421Y-67814786D01*
X92701343Y-68002408D01*
X92388204Y-68315000D01*
X86704447Y-68315000D01*
X85335000Y-66945554D01*
X85335000Y-64250000D01*
X85279051Y-63968728D01*
X85119723Y-63730277D01*
X83935000Y-62545554D01*
X83935000Y-59450000D01*
X83879051Y-59168728D01*
X83839625Y-59109723D01*
X83719724Y-58930277D01*
X83029036Y-58239590D01*
X82820862Y-57735771D01*
X82405464Y-57319647D01*
X82819370Y-56906463D01*
X83049738Y-56351675D01*
X83050262Y-55750960D01*
X82820862Y-55195771D01*
X82492911Y-54867247D01*
X82925158Y-54435000D01*
X112068344Y-54435000D01*
X111953629Y-54549515D01*
G36*
X136811753Y-60251911D02*
X136716655Y-60730000D01*
X136830729Y-61303489D01*
X137155585Y-61789670D01*
X137470366Y-62000000D01*
X137155585Y-62210330D01*
X136830729Y-62696511D01*
X136716655Y-63270000D01*
X136830729Y-63843489D01*
X137155585Y-64329670D01*
X137470366Y-64540000D01*
X137155585Y-64750330D01*
X136938647Y-65075000D01*
X124240000Y-65075000D01*
X123958728Y-65130949D01*
X123720276Y-65290277D01*
X121495554Y-67515000D01*
X121044877Y-67515000D01*
X121024831Y-67466485D01*
X120808687Y-67249964D01*
X121023461Y-67035564D01*
X121234759Y-66526702D01*
X121235240Y-65975715D01*
X121024831Y-65466485D01*
X120808687Y-65249964D01*
X121023461Y-65035564D01*
X121044457Y-64985000D01*
X122600000Y-64985000D01*
X122881272Y-64929051D01*
X123119723Y-64769723D01*
X124219724Y-63669723D01*
X124379051Y-63431272D01*
X124391294Y-63369723D01*
X124435000Y-63150000D01*
X124435000Y-60550000D01*
X124379051Y-60268728D01*
X124266486Y-60100262D01*
X124219723Y-60030276D01*
X124034830Y-59845383D01*
X124035214Y-59405421D01*
X123847592Y-58951343D01*
X123500485Y-58603629D01*
X123046734Y-58415215D01*
X123035031Y-58415205D01*
X123035214Y-58205421D01*
X122847592Y-57751343D01*
X122500485Y-57403629D01*
X122046734Y-57215215D01*
X121555421Y-57214786D01*
X121101343Y-57402408D01*
X120996190Y-57507377D01*
X120821517Y-57458088D01*
X120029605Y-58250000D01*
X120043748Y-58264143D01*
X119864143Y-58443748D01*
X119850000Y-58429605D01*
X119301572Y-58978033D01*
X119066485Y-59075169D01*
X118676539Y-59464436D01*
X118600073Y-59648586D01*
X118524831Y-59466485D01*
X118308687Y-59249964D01*
X118523461Y-59035564D01*
X118593353Y-58867246D01*
X118637540Y-58973923D01*
X118878483Y-59041912D01*
X119670395Y-58250000D01*
X118878483Y-57458088D01*
X118637540Y-57526077D01*
X118596778Y-57640611D01*
X118524831Y-57466485D01*
X118337157Y-57278483D01*
X119058088Y-57278483D01*
X119850000Y-58070395D01*
X120641912Y-57278483D01*
X120573923Y-57037540D01*
X120054829Y-56852799D01*
X119504552Y-56880770D01*
X119126077Y-57037540D01*
X119058088Y-57278483D01*
X118337157Y-57278483D01*
X118135564Y-57076539D01*
X117626702Y-56865241D01*
X117075715Y-56864760D01*
X116566485Y-57075169D01*
X116176539Y-57464436D01*
X116155543Y-57515000D01*
X114304447Y-57515000D01*
X113735000Y-56945554D01*
X113735000Y-56261312D01*
X114046371Y-55950485D01*
X114234785Y-55496734D01*
X114235214Y-55005421D01*
X114047592Y-54551343D01*
X113931452Y-54435000D01*
X130994842Y-54435000D01*
X136811753Y-60251911D01*
X136811753Y-60251911D01*
G37*
X136811753Y-60251911D02*
X136716655Y-60730000D01*
X136830729Y-61303489D01*
X137155585Y-61789670D01*
X137470366Y-62000000D01*
X137155585Y-62210330D01*
X136830729Y-62696511D01*
X136716655Y-63270000D01*
X136830729Y-63843489D01*
X137155585Y-64329670D01*
X137470366Y-64540000D01*
X137155585Y-64750330D01*
X136938647Y-65075000D01*
X124240000Y-65075000D01*
X123958728Y-65130949D01*
X123720276Y-65290277D01*
X121495554Y-67515000D01*
X121044877Y-67515000D01*
X121024831Y-67466485D01*
X120808687Y-67249964D01*
X121023461Y-67035564D01*
X121234759Y-66526702D01*
X121235240Y-65975715D01*
X121024831Y-65466485D01*
X120808687Y-65249964D01*
X121023461Y-65035564D01*
X121044457Y-64985000D01*
X122600000Y-64985000D01*
X122881272Y-64929051D01*
X123119723Y-64769723D01*
X124219724Y-63669723D01*
X124379051Y-63431272D01*
X124391294Y-63369723D01*
X124435000Y-63150000D01*
X124435000Y-60550000D01*
X124379051Y-60268728D01*
X124266486Y-60100262D01*
X124219723Y-60030276D01*
X124034830Y-59845383D01*
X124035214Y-59405421D01*
X123847592Y-58951343D01*
X123500485Y-58603629D01*
X123046734Y-58415215D01*
X123035031Y-58415205D01*
X123035214Y-58205421D01*
X122847592Y-57751343D01*
X122500485Y-57403629D01*
X122046734Y-57215215D01*
X121555421Y-57214786D01*
X121101343Y-57402408D01*
X120996190Y-57507377D01*
X120821517Y-57458088D01*
X120029605Y-58250000D01*
X120043748Y-58264143D01*
X119864143Y-58443748D01*
X119850000Y-58429605D01*
X119301572Y-58978033D01*
X119066485Y-59075169D01*
X118676539Y-59464436D01*
X118600073Y-59648586D01*
X118524831Y-59466485D01*
X118308687Y-59249964D01*
X118523461Y-59035564D01*
X118593353Y-58867246D01*
X118637540Y-58973923D01*
X118878483Y-59041912D01*
X119670395Y-58250000D01*
X118878483Y-57458088D01*
X118637540Y-57526077D01*
X118596778Y-57640611D01*
X118524831Y-57466485D01*
X118337157Y-57278483D01*
X119058088Y-57278483D01*
X119850000Y-58070395D01*
X120641912Y-57278483D01*
X120573923Y-57037540D01*
X120054829Y-56852799D01*
X119504552Y-56880770D01*
X119126077Y-57037540D01*
X119058088Y-57278483D01*
X118337157Y-57278483D01*
X118135564Y-57076539D01*
X117626702Y-56865241D01*
X117075715Y-56864760D01*
X116566485Y-57075169D01*
X116176539Y-57464436D01*
X116155543Y-57515000D01*
X114304447Y-57515000D01*
X113735000Y-56945554D01*
X113735000Y-56261312D01*
X114046371Y-55950485D01*
X114234785Y-55496734D01*
X114235214Y-55005421D01*
X114047592Y-54551343D01*
X113931452Y-54435000D01*
X130994842Y-54435000D01*
X136811753Y-60251911D01*
G36*
X112480277Y-57769723D02*
X113480277Y-58769724D01*
X113718728Y-58929051D01*
X114000000Y-58985000D01*
X116155123Y-58985000D01*
X116175169Y-59033515D01*
X116391313Y-59250036D01*
X116176539Y-59464436D01*
X116155543Y-59515000D01*
X115600000Y-59515000D01*
X115329894Y-59568728D01*
X115318728Y-59570949D01*
X115080276Y-59730277D01*
X113880277Y-60930277D01*
X113815968Y-61026522D01*
X113719723Y-60930277D01*
X113481272Y-60770949D01*
X113453402Y-60765405D01*
X113447592Y-60751343D01*
X113100485Y-60403629D01*
X112646734Y-60215215D01*
X112155421Y-60214786D01*
X111701343Y-60402408D01*
X111353629Y-60749515D01*
X111165215Y-61203266D01*
X111164786Y-61694579D01*
X111352408Y-62148657D01*
X111699515Y-62496371D01*
X112153266Y-62684785D01*
X112644579Y-62685214D01*
X112865000Y-62594138D01*
X112865000Y-64638688D01*
X112553629Y-64949515D01*
X112365215Y-65403266D01*
X112364952Y-65704794D01*
X108955079Y-62294921D01*
X108700407Y-62124755D01*
X108400000Y-62065000D01*
X106800000Y-62065000D01*
X106580855Y-62108591D01*
X110846342Y-57843105D01*
X110899515Y-57896371D01*
X111353266Y-58084785D01*
X111844579Y-58085214D01*
X112298657Y-57897592D01*
X112458859Y-57737669D01*
X112480277Y-57769723D01*
X112480277Y-57769723D01*
G37*
X112480277Y-57769723D02*
X113480277Y-58769724D01*
X113718728Y-58929051D01*
X114000000Y-58985000D01*
X116155123Y-58985000D01*
X116175169Y-59033515D01*
X116391313Y-59250036D01*
X116176539Y-59464436D01*
X116155543Y-59515000D01*
X115600000Y-59515000D01*
X115329894Y-59568728D01*
X115318728Y-59570949D01*
X115080276Y-59730277D01*
X113880277Y-60930277D01*
X113815968Y-61026522D01*
X113719723Y-60930277D01*
X113481272Y-60770949D01*
X113453402Y-60765405D01*
X113447592Y-60751343D01*
X113100485Y-60403629D01*
X112646734Y-60215215D01*
X112155421Y-60214786D01*
X111701343Y-60402408D01*
X111353629Y-60749515D01*
X111165215Y-61203266D01*
X111164786Y-61694579D01*
X111352408Y-62148657D01*
X111699515Y-62496371D01*
X112153266Y-62684785D01*
X112644579Y-62685214D01*
X112865000Y-62594138D01*
X112865000Y-64638688D01*
X112553629Y-64949515D01*
X112365215Y-65403266D01*
X112364952Y-65704794D01*
X108955079Y-62294921D01*
X108700407Y-62124755D01*
X108400000Y-62065000D01*
X106800000Y-62065000D01*
X106580855Y-62108591D01*
X110846342Y-57843105D01*
X110899515Y-57896371D01*
X111353266Y-58084785D01*
X111844579Y-58085214D01*
X112298657Y-57897592D01*
X112458859Y-57737669D01*
X112480277Y-57769723D01*
G36*
X81667000Y-61003000D02*
X81687000Y-61003000D01*
X81687000Y-61257000D01*
X81667000Y-61257000D01*
X81667000Y-61277000D01*
X81413000Y-61277000D01*
X81413000Y-61257000D01*
X81393000Y-61257000D01*
X81393000Y-61003000D01*
X81413000Y-61003000D01*
X81413000Y-60983000D01*
X81667000Y-60983000D01*
X81667000Y-61003000D01*
X81667000Y-61003000D01*
G37*
X81667000Y-61003000D02*
X81687000Y-61003000D01*
X81687000Y-61257000D01*
X81667000Y-61257000D01*
X81667000Y-61277000D01*
X81413000Y-61277000D01*
X81413000Y-61257000D01*
X81393000Y-61257000D01*
X81393000Y-61003000D01*
X81413000Y-61003000D01*
X81413000Y-60983000D01*
X81667000Y-60983000D01*
X81667000Y-61003000D01*
G36*
X88570500Y-45446450D02*
X88729250Y-45605200D01*
X89523000Y-45605200D01*
X89523000Y-45585200D01*
X89777000Y-45585200D01*
X89777000Y-45605200D01*
X90570750Y-45605200D01*
X90729500Y-45446450D01*
X90729500Y-45135000D01*
X91098060Y-45135000D01*
X91098060Y-46307822D01*
X91049009Y-46381232D01*
X90955000Y-46853846D01*
X90955000Y-47106154D01*
X91049009Y-47578768D01*
X91316723Y-47979431D01*
X91717386Y-48247145D01*
X92190000Y-48341154D01*
X92662614Y-48247145D01*
X93063277Y-47979431D01*
X93330991Y-47578768D01*
X93425000Y-47106154D01*
X93425000Y-46853846D01*
X93330991Y-46381232D01*
X93281940Y-46307822D01*
X93281940Y-45135000D01*
X93638060Y-45135000D01*
X93638060Y-46307822D01*
X93589009Y-46381232D01*
X93495000Y-46853846D01*
X93495000Y-47106154D01*
X93589009Y-47578768D01*
X93856723Y-47979431D01*
X94257386Y-48247145D01*
X94730000Y-48341154D01*
X95202614Y-48247145D01*
X95603277Y-47979431D01*
X95870991Y-47578768D01*
X95965000Y-47106154D01*
X95965000Y-46853846D01*
X95870991Y-46381232D01*
X95821940Y-46307822D01*
X95821940Y-45135000D01*
X96178060Y-45135000D01*
X96178060Y-46307822D01*
X96129009Y-46381232D01*
X96035000Y-46853846D01*
X96035000Y-47106154D01*
X96129009Y-47578768D01*
X96396723Y-47979431D01*
X96797386Y-48247145D01*
X97270000Y-48341154D01*
X97742614Y-48247145D01*
X98143277Y-47979431D01*
X98410991Y-47578768D01*
X98505000Y-47106154D01*
X98505000Y-46853846D01*
X98466512Y-46660353D01*
X98595799Y-46660353D01*
X98735137Y-46853000D01*
X98795238Y-46853000D01*
X98827173Y-46930099D01*
X99004075Y-47107000D01*
X98735137Y-47107000D01*
X98595799Y-47299647D01*
X98772280Y-47747582D01*
X99106744Y-48093884D01*
X99492391Y-48273462D01*
X99683000Y-48148731D01*
X99683000Y-47107000D01*
X99622650Y-47107000D01*
X99683000Y-47046650D01*
X99683000Y-45811269D01*
X99937000Y-45811269D01*
X99937000Y-47046650D01*
X99997350Y-47107000D01*
X99937000Y-47107000D01*
X99937000Y-48148731D01*
X100127609Y-48273462D01*
X100513256Y-48093884D01*
X100847720Y-47747582D01*
X101024201Y-47299647D01*
X100884863Y-47107000D01*
X100615925Y-47107000D01*
X100792827Y-46930099D01*
X100824762Y-46853000D01*
X100884863Y-46853000D01*
X101024201Y-46660353D01*
X100889500Y-46318462D01*
X100889500Y-46017950D01*
X100730750Y-45859200D01*
X100498404Y-45859200D01*
X100127609Y-45686538D01*
X99937000Y-45811269D01*
X99683000Y-45811269D01*
X99492391Y-45686538D01*
X99121596Y-45859200D01*
X98889250Y-45859200D01*
X98730500Y-46017950D01*
X98730500Y-46318462D01*
X98595799Y-46660353D01*
X98466512Y-46660353D01*
X98410991Y-46381232D01*
X98361940Y-46307822D01*
X98361940Y-45135000D01*
X98730500Y-45135000D01*
X98730500Y-45446450D01*
X98889250Y-45605200D01*
X99683000Y-45605200D01*
X99683000Y-45585200D01*
X99937000Y-45585200D01*
X99937000Y-45605200D01*
X100730750Y-45605200D01*
X100889500Y-45446450D01*
X100889500Y-45135000D01*
X101258060Y-45135000D01*
X101258060Y-46307822D01*
X101209009Y-46381232D01*
X101115000Y-46853846D01*
X101115000Y-47106154D01*
X101209009Y-47578768D01*
X101476723Y-47979431D01*
X101877386Y-48247145D01*
X102350000Y-48341154D01*
X102822614Y-48247145D01*
X103223277Y-47979431D01*
X103490991Y-47578768D01*
X103585000Y-47106154D01*
X103585000Y-46853846D01*
X103490991Y-46381232D01*
X103441940Y-46307822D01*
X103441940Y-45135000D01*
X103798060Y-45135000D01*
X103798060Y-46307822D01*
X103749009Y-46381232D01*
X103655000Y-46853846D01*
X103655000Y-47106154D01*
X103749009Y-47578768D01*
X104016723Y-47979431D01*
X104417386Y-48247145D01*
X104890000Y-48341154D01*
X105362614Y-48247145D01*
X105763277Y-47979431D01*
X106030991Y-47578768D01*
X106125000Y-47106154D01*
X106125000Y-46853846D01*
X106086512Y-46660353D01*
X106215799Y-46660353D01*
X106355137Y-46853000D01*
X106415238Y-46853000D01*
X106447173Y-46930099D01*
X106624075Y-47107000D01*
X106355137Y-47107000D01*
X106215799Y-47299647D01*
X106392280Y-47747582D01*
X106726744Y-48093884D01*
X107112391Y-48273462D01*
X107303000Y-48148731D01*
X107303000Y-47107000D01*
X107242650Y-47107000D01*
X107303000Y-47046650D01*
X107303000Y-45811269D01*
X107557000Y-45811269D01*
X107557000Y-47046650D01*
X107617350Y-47107000D01*
X107557000Y-47107000D01*
X107557000Y-48148731D01*
X107747609Y-48273462D01*
X108133256Y-48093884D01*
X108467720Y-47747582D01*
X108644201Y-47299647D01*
X108504863Y-47107000D01*
X108235925Y-47107000D01*
X108412827Y-46930099D01*
X108444762Y-46853000D01*
X108504863Y-46853000D01*
X108644201Y-46660353D01*
X108509500Y-46318462D01*
X108509500Y-46017950D01*
X108350750Y-45859200D01*
X108118404Y-45859200D01*
X107747609Y-45686538D01*
X107557000Y-45811269D01*
X107303000Y-45811269D01*
X107112391Y-45686538D01*
X106741596Y-45859200D01*
X106509250Y-45859200D01*
X106350500Y-46017950D01*
X106350500Y-46318462D01*
X106215799Y-46660353D01*
X106086512Y-46660353D01*
X106030991Y-46381232D01*
X105981940Y-46307822D01*
X105981940Y-45135000D01*
X106350500Y-45135000D01*
X106350500Y-45446450D01*
X106509250Y-45605200D01*
X107303000Y-45605200D01*
X107303000Y-45585200D01*
X107557000Y-45585200D01*
X107557000Y-45605200D01*
X108350750Y-45605200D01*
X108509500Y-45446450D01*
X108509500Y-45135000D01*
X108878060Y-45135000D01*
X108878060Y-46307822D01*
X108829009Y-46381232D01*
X108735000Y-46853846D01*
X108735000Y-47106154D01*
X108829009Y-47578768D01*
X109096723Y-47979431D01*
X109497386Y-48247145D01*
X109970000Y-48341154D01*
X110442614Y-48247145D01*
X110843277Y-47979431D01*
X111110991Y-47578768D01*
X111205000Y-47106154D01*
X111205000Y-46853846D01*
X111110991Y-46381232D01*
X111061940Y-46307822D01*
X111061940Y-45135000D01*
X111418060Y-45135000D01*
X111418060Y-46307822D01*
X111369009Y-46381232D01*
X111275000Y-46853846D01*
X111275000Y-47106154D01*
X111369009Y-47578768D01*
X111636723Y-47979431D01*
X112037386Y-48247145D01*
X112510000Y-48341154D01*
X112982614Y-48247145D01*
X113383277Y-47979431D01*
X113650991Y-47578768D01*
X113745000Y-47106154D01*
X113745000Y-46853846D01*
X113650991Y-46381232D01*
X113601940Y-46307822D01*
X113601940Y-45135000D01*
X113958060Y-45135000D01*
X113958060Y-46307822D01*
X113909009Y-46381232D01*
X113815000Y-46853846D01*
X113815000Y-47106154D01*
X113909009Y-47578768D01*
X114176723Y-47979431D01*
X114577386Y-48247145D01*
X115050000Y-48341154D01*
X115522614Y-48247145D01*
X115923277Y-47979431D01*
X116190991Y-47578768D01*
X116285000Y-47106154D01*
X116285000Y-46853846D01*
X116190991Y-46381232D01*
X116141940Y-46307822D01*
X116141940Y-45135000D01*
X116498060Y-45135000D01*
X116498060Y-46307822D01*
X116449009Y-46381232D01*
X116355000Y-46853846D01*
X116355000Y-47106154D01*
X116449009Y-47578768D01*
X116716723Y-47979431D01*
X117117386Y-48247145D01*
X117590000Y-48341154D01*
X118062614Y-48247145D01*
X118463277Y-47979431D01*
X118730991Y-47578768D01*
X118825000Y-47106154D01*
X118825000Y-46853846D01*
X118786512Y-46660353D01*
X118915799Y-46660353D01*
X119055137Y-46853000D01*
X119115238Y-46853000D01*
X119147173Y-46930099D01*
X119324075Y-47107000D01*
X119055137Y-47107000D01*
X118915799Y-47299647D01*
X119092280Y-47747582D01*
X119426744Y-48093884D01*
X119812391Y-48273462D01*
X120003000Y-48148731D01*
X120003000Y-47107000D01*
X119942650Y-47107000D01*
X120003000Y-47046650D01*
X120003000Y-45811269D01*
X120257000Y-45811269D01*
X120257000Y-47046650D01*
X120317350Y-47107000D01*
X120257000Y-47107000D01*
X120257000Y-48148731D01*
X120447609Y-48273462D01*
X120833256Y-48093884D01*
X121167720Y-47747582D01*
X121344201Y-47299647D01*
X121204863Y-47107000D01*
X120935925Y-47107000D01*
X121112827Y-46930099D01*
X121144762Y-46853000D01*
X121204863Y-46853000D01*
X121344201Y-46660353D01*
X121209500Y-46318462D01*
X121209500Y-46017950D01*
X121050750Y-45859200D01*
X120818404Y-45859200D01*
X120447609Y-45686538D01*
X120257000Y-45811269D01*
X120003000Y-45811269D01*
X119812391Y-45686538D01*
X119441596Y-45859200D01*
X119209250Y-45859200D01*
X119050500Y-46017950D01*
X119050500Y-46318462D01*
X118915799Y-46660353D01*
X118786512Y-46660353D01*
X118730991Y-46381232D01*
X118681940Y-46307822D01*
X118681940Y-45135000D01*
X119050500Y-45135000D01*
X119050500Y-45446450D01*
X119209250Y-45605200D01*
X120003000Y-45605200D01*
X120003000Y-45585200D01*
X120257000Y-45585200D01*
X120257000Y-45605200D01*
X121050750Y-45605200D01*
X121209500Y-45446450D01*
X121209500Y-45135000D01*
X121578060Y-45135000D01*
X121578060Y-46307822D01*
X121529009Y-46381232D01*
X121435000Y-46853846D01*
X121435000Y-47106154D01*
X121529009Y-47578768D01*
X121796723Y-47979431D01*
X122197386Y-48247145D01*
X122670000Y-48341154D01*
X123142614Y-48247145D01*
X123543277Y-47979431D01*
X123810991Y-47578768D01*
X123905000Y-47106154D01*
X123905000Y-46853846D01*
X123866512Y-46660353D01*
X123995799Y-46660353D01*
X124135137Y-46853000D01*
X124195238Y-46853000D01*
X124227173Y-46930099D01*
X124404075Y-47107000D01*
X124135137Y-47107000D01*
X123995799Y-47299647D01*
X124172280Y-47747582D01*
X124506744Y-48093884D01*
X124892391Y-48273462D01*
X125083000Y-48148731D01*
X125083000Y-47107000D01*
X125022650Y-47107000D01*
X125083000Y-47046650D01*
X125083000Y-45811269D01*
X125337000Y-45811269D01*
X125337000Y-47046650D01*
X125397350Y-47107000D01*
X125337000Y-47107000D01*
X125337000Y-48148731D01*
X125527609Y-48273462D01*
X125913256Y-48093884D01*
X126247720Y-47747582D01*
X126424201Y-47299647D01*
X126284863Y-47107000D01*
X126015925Y-47107000D01*
X126192827Y-46930099D01*
X126224762Y-46853000D01*
X126284863Y-46853000D01*
X126424201Y-46660353D01*
X126289500Y-46318462D01*
X126289500Y-46017950D01*
X126130750Y-45859200D01*
X125898404Y-45859200D01*
X125527609Y-45686538D01*
X125337000Y-45811269D01*
X125083000Y-45811269D01*
X124892391Y-45686538D01*
X124521596Y-45859200D01*
X124289250Y-45859200D01*
X124130500Y-46017950D01*
X124130500Y-46318462D01*
X123995799Y-46660353D01*
X123866512Y-46660353D01*
X123810991Y-46381232D01*
X123761940Y-46307822D01*
X123761940Y-45135000D01*
X124130500Y-45135000D01*
X124130500Y-45446450D01*
X124289250Y-45605200D01*
X125083000Y-45605200D01*
X125083000Y-45585200D01*
X125337000Y-45585200D01*
X125337000Y-45605200D01*
X126130750Y-45605200D01*
X126289500Y-45446450D01*
X126289500Y-45135000D01*
X126658060Y-45135000D01*
X126658060Y-46307822D01*
X126609009Y-46381232D01*
X126515000Y-46853846D01*
X126515000Y-47106154D01*
X126609009Y-47578768D01*
X126876723Y-47979431D01*
X127277386Y-48247145D01*
X127750000Y-48341154D01*
X128222614Y-48247145D01*
X128623277Y-47979431D01*
X128890991Y-47578768D01*
X128985000Y-47106154D01*
X128985000Y-46853846D01*
X128890991Y-46381232D01*
X128841940Y-46307822D01*
X128841940Y-45135000D01*
X129198060Y-45135000D01*
X129198060Y-46307822D01*
X129149009Y-46381232D01*
X129055000Y-46853846D01*
X129055000Y-47106154D01*
X129149009Y-47578768D01*
X129416723Y-47979431D01*
X129817386Y-48247145D01*
X130036138Y-48290658D01*
X130035860Y-48609398D01*
X129817386Y-48652855D01*
X129416723Y-48920569D01*
X129149009Y-49321232D01*
X129055000Y-49793846D01*
X129055000Y-50046154D01*
X129149009Y-50518768D01*
X129198060Y-50592178D01*
X129198060Y-52006000D01*
X129242338Y-52241317D01*
X129381410Y-52457441D01*
X129593610Y-52602431D01*
X129845500Y-52653440D01*
X130734500Y-52653440D01*
X130969817Y-52609162D01*
X131185941Y-52470090D01*
X131330931Y-52257890D01*
X131381940Y-52006000D01*
X131381940Y-51453550D01*
X131750500Y-51453550D01*
X131750500Y-52132310D01*
X131847173Y-52365699D01*
X132025802Y-52544327D01*
X132259191Y-52641000D01*
X132544250Y-52641000D01*
X132703000Y-52482250D01*
X132703000Y-51294800D01*
X132957000Y-51294800D01*
X132957000Y-52482250D01*
X133115750Y-52641000D01*
X133400809Y-52641000D01*
X133634198Y-52544327D01*
X133812827Y-52365699D01*
X133909500Y-52132310D01*
X133909500Y-51453550D01*
X133750750Y-51294800D01*
X132957000Y-51294800D01*
X132703000Y-51294800D01*
X131909250Y-51294800D01*
X131750500Y-51453550D01*
X131381940Y-51453550D01*
X131381940Y-50592178D01*
X131430991Y-50518768D01*
X131525000Y-50046154D01*
X131525000Y-49973970D01*
X131595000Y-49974031D01*
X131595000Y-50047002D01*
X131755136Y-50047002D01*
X131615799Y-50239647D01*
X131750500Y-50581538D01*
X131750500Y-50882050D01*
X131909250Y-51040800D01*
X132141596Y-51040800D01*
X132512391Y-51213462D01*
X132703000Y-51088731D01*
X132703000Y-49853350D01*
X132683000Y-49833350D01*
X132683000Y-49793000D01*
X132703000Y-49793000D01*
X132703000Y-49773000D01*
X132957000Y-49773000D01*
X132957000Y-49793000D01*
X133017350Y-49793000D01*
X132957000Y-49853350D01*
X132957000Y-51088731D01*
X133147609Y-51213462D01*
X133518404Y-51040800D01*
X133750750Y-51040800D01*
X133909500Y-50882050D01*
X133909500Y-50581538D01*
X134044201Y-50239647D01*
X133904863Y-50047000D01*
X133844762Y-50047000D01*
X133812827Y-49969901D01*
X133635925Y-49793000D01*
X133904863Y-49793000D01*
X134044201Y-49600353D01*
X133867720Y-49152418D01*
X133533256Y-48806116D01*
X133147609Y-48626538D01*
X133083810Y-48668287D01*
X133084140Y-48290602D01*
X133302614Y-48247145D01*
X133703277Y-47979431D01*
X133970991Y-47578768D01*
X134065000Y-47106154D01*
X134065000Y-46853846D01*
X133970991Y-46381232D01*
X133921940Y-46307822D01*
X133921940Y-45307941D01*
X133964008Y-45350009D01*
X134229824Y-45871702D01*
X134323000Y-46459992D01*
X134323000Y-49421573D01*
X134324086Y-49438150D01*
X134392234Y-49955788D01*
X134400815Y-49987812D01*
X134600616Y-50470174D01*
X134617193Y-50498886D01*
X134935030Y-50913099D01*
X134945983Y-50925589D01*
X135324411Y-51304017D01*
X135343657Y-51319811D01*
X135992503Y-51753356D01*
X136038284Y-51772319D01*
X136803651Y-51924560D01*
X136828427Y-51927000D01*
X139190008Y-51927000D01*
X139778298Y-52020176D01*
X140299991Y-52285992D01*
X140515000Y-52501001D01*
X140515000Y-60854842D01*
X140007162Y-60347004D01*
X139969271Y-60156511D01*
X139644415Y-59670330D01*
X139329634Y-59460000D01*
X139644415Y-59249670D01*
X139969271Y-58763489D01*
X140083345Y-58190000D01*
X139969271Y-57616511D01*
X139644415Y-57130330D01*
X139622220Y-57115500D01*
X139775698Y-57051927D01*
X139954327Y-56873299D01*
X140051000Y-56639910D01*
X140051000Y-55935750D01*
X139892250Y-55777000D01*
X138527000Y-55777000D01*
X138527000Y-55797000D01*
X138273000Y-55797000D01*
X138273000Y-55777000D01*
X136907750Y-55777000D01*
X136749000Y-55935750D01*
X136749000Y-56639910D01*
X136845673Y-56873299D01*
X137024302Y-57051927D01*
X137177780Y-57115500D01*
X137155585Y-57130330D01*
X136830729Y-57616511D01*
X136758714Y-57978556D01*
X133440248Y-54660090D01*
X136749000Y-54660090D01*
X136749000Y-55364250D01*
X136907750Y-55523000D01*
X138273000Y-55523000D01*
X138273000Y-54310150D01*
X138527000Y-54310150D01*
X138527000Y-55523000D01*
X139892250Y-55523000D01*
X140051000Y-55364250D01*
X140051000Y-54660090D01*
X139954327Y-54426701D01*
X139775698Y-54248073D01*
X139542309Y-54151400D01*
X138685750Y-54151400D01*
X138527000Y-54310150D01*
X138273000Y-54310150D01*
X138114250Y-54151400D01*
X137257691Y-54151400D01*
X137024302Y-54248073D01*
X136845673Y-54426701D01*
X136749000Y-54660090D01*
X133440248Y-54660090D01*
X131875079Y-53094921D01*
X131620407Y-52924755D01*
X131320000Y-52865000D01*
X82600000Y-52865000D01*
X82299593Y-52924755D01*
X82044921Y-53094921D01*
X80984921Y-54154921D01*
X80814755Y-54409593D01*
X80788763Y-54540262D01*
X80755000Y-54710000D01*
X80755000Y-54740533D01*
X80685771Y-54769138D01*
X80269647Y-55184536D01*
X79856463Y-54770630D01*
X79301675Y-54540262D01*
X78700960Y-54539738D01*
X78145771Y-54769138D01*
X77720630Y-55193537D01*
X77490262Y-55748325D01*
X77489738Y-56349040D01*
X77719138Y-56904229D01*
X78134536Y-57320353D01*
X77720630Y-57733537D01*
X77490262Y-58288325D01*
X77490059Y-58520494D01*
X76885000Y-59125554D01*
X76885000Y-50087544D01*
X76962687Y-50275561D01*
X77869664Y-51184123D01*
X79055294Y-51676439D01*
X79714966Y-51677015D01*
X80032345Y-51990373D01*
X80074535Y-52017968D01*
X80138150Y-52025914D01*
X80655788Y-51957766D01*
X80687812Y-51949185D01*
X81170174Y-51749384D01*
X81198886Y-51732807D01*
X81613099Y-51414970D01*
X81625589Y-51404017D01*
X82939803Y-50089803D01*
X82967666Y-50047789D01*
X82968609Y-50042777D01*
X82976887Y-50040917D01*
X83025755Y-50002313D01*
X83039320Y-49984635D01*
X83055898Y-49955923D01*
X83064425Y-49935337D01*
X83073006Y-49903311D01*
X83075914Y-49881220D01*
X83077000Y-49864645D01*
X83077000Y-46459992D01*
X83170176Y-45871702D01*
X83435992Y-45350009D01*
X83478060Y-45307941D01*
X83478060Y-46307822D01*
X83429009Y-46381232D01*
X83335000Y-46853846D01*
X83335000Y-47106154D01*
X83429009Y-47578768D01*
X83696723Y-47979431D01*
X84097386Y-48247145D01*
X84316138Y-48290658D01*
X84315860Y-48609398D01*
X84097386Y-48652855D01*
X83696723Y-48920569D01*
X83429009Y-49321232D01*
X83335000Y-49793846D01*
X83335000Y-50046154D01*
X83429009Y-50518768D01*
X83478060Y-50592178D01*
X83478060Y-52006000D01*
X83522338Y-52241317D01*
X83661410Y-52457441D01*
X83873610Y-52602431D01*
X84125500Y-52653440D01*
X85014500Y-52653440D01*
X85249817Y-52609162D01*
X85465941Y-52470090D01*
X85610931Y-52257890D01*
X85661940Y-52006000D01*
X85661940Y-50592178D01*
X85710991Y-50518768D01*
X85805000Y-50046154D01*
X85805000Y-49973970D01*
X85875000Y-49974031D01*
X85875000Y-50046154D01*
X85969009Y-50518768D01*
X86018060Y-50592178D01*
X86018060Y-52006000D01*
X86062338Y-52241317D01*
X86201410Y-52457441D01*
X86413610Y-52602431D01*
X86665500Y-52653440D01*
X87554500Y-52653440D01*
X87789817Y-52609162D01*
X88005941Y-52470090D01*
X88150931Y-52257890D01*
X88201940Y-52006000D01*
X88201940Y-50592178D01*
X88250991Y-50518768D01*
X88345000Y-50046154D01*
X88345000Y-49793846D01*
X88415000Y-49793846D01*
X88415000Y-50046154D01*
X88509009Y-50518768D01*
X88558060Y-50592178D01*
X88558060Y-52006000D01*
X88602338Y-52241317D01*
X88741410Y-52457441D01*
X88953610Y-52602431D01*
X89205500Y-52653440D01*
X90094500Y-52653440D01*
X90329817Y-52609162D01*
X90545941Y-52470090D01*
X90690931Y-52257890D01*
X90741940Y-52006000D01*
X90741940Y-50592178D01*
X90790991Y-50518768D01*
X90885000Y-50046154D01*
X90885000Y-49793846D01*
X90955000Y-49793846D01*
X90955000Y-50046154D01*
X91049009Y-50518768D01*
X91098060Y-50592178D01*
X91098060Y-52006000D01*
X91142338Y-52241317D01*
X91281410Y-52457441D01*
X91493610Y-52602431D01*
X91745500Y-52653440D01*
X92634500Y-52653440D01*
X92869817Y-52609162D01*
X93085941Y-52470090D01*
X93230931Y-52257890D01*
X93281940Y-52006000D01*
X93281940Y-51453550D01*
X93650500Y-51453550D01*
X93650500Y-52132310D01*
X93747173Y-52365699D01*
X93925802Y-52544327D01*
X94159191Y-52641000D01*
X94444250Y-52641000D01*
X94603000Y-52482250D01*
X94603000Y-51294800D01*
X94857000Y-51294800D01*
X94857000Y-52482250D01*
X95015750Y-52641000D01*
X95300809Y-52641000D01*
X95534198Y-52544327D01*
X95712827Y-52365699D01*
X95809500Y-52132310D01*
X95809500Y-51453550D01*
X95650750Y-51294800D01*
X94857000Y-51294800D01*
X94603000Y-51294800D01*
X93809250Y-51294800D01*
X93650500Y-51453550D01*
X93281940Y-51453550D01*
X93281940Y-50592178D01*
X93330991Y-50518768D01*
X93425000Y-50046154D01*
X93425000Y-49793846D01*
X93386512Y-49600353D01*
X93515799Y-49600353D01*
X93655137Y-49793000D01*
X93924075Y-49793000D01*
X93747173Y-49969901D01*
X93715238Y-50047000D01*
X93655137Y-50047000D01*
X93515799Y-50239647D01*
X93650500Y-50581538D01*
X93650500Y-50882050D01*
X93809250Y-51040800D01*
X94041596Y-51040800D01*
X94412391Y-51213462D01*
X94603000Y-51088731D01*
X94603000Y-49853350D01*
X94542650Y-49793000D01*
X94603000Y-49793000D01*
X94603000Y-48751269D01*
X94857000Y-48751269D01*
X94857000Y-49793000D01*
X94917350Y-49793000D01*
X94857000Y-49853350D01*
X94857000Y-51088731D01*
X95047609Y-51213462D01*
X95418404Y-51040800D01*
X95650750Y-51040800D01*
X95809500Y-50882050D01*
X95809500Y-50581538D01*
X95944201Y-50239647D01*
X95804863Y-50047000D01*
X95744762Y-50047000D01*
X95712827Y-49969901D01*
X95536772Y-49793846D01*
X96035000Y-49793846D01*
X96035000Y-50046154D01*
X96129009Y-50518768D01*
X96178060Y-50592178D01*
X96178060Y-52006000D01*
X96222338Y-52241317D01*
X96361410Y-52457441D01*
X96573610Y-52602431D01*
X96825500Y-52653440D01*
X97714500Y-52653440D01*
X97949817Y-52609162D01*
X98165941Y-52470090D01*
X98310931Y-52257890D01*
X98361940Y-52006000D01*
X98361940Y-50592178D01*
X98410991Y-50518768D01*
X98505000Y-50046154D01*
X98505000Y-49793846D01*
X98575000Y-49793846D01*
X98575000Y-50046154D01*
X98669009Y-50518768D01*
X98718060Y-50592178D01*
X98718060Y-52006000D01*
X98762338Y-52241317D01*
X98901410Y-52457441D01*
X99113610Y-52602431D01*
X99365500Y-52653440D01*
X100254500Y-52653440D01*
X100489817Y-52609162D01*
X100705941Y-52470090D01*
X100850931Y-52257890D01*
X100901940Y-52006000D01*
X100901940Y-50592178D01*
X100950991Y-50518768D01*
X101045000Y-50046154D01*
X101045000Y-49793846D01*
X101115000Y-49793846D01*
X101115000Y-50046154D01*
X101209009Y-50518768D01*
X101258060Y-50592178D01*
X101258060Y-52006000D01*
X101302338Y-52241317D01*
X101441410Y-52457441D01*
X101653610Y-52602431D01*
X101905500Y-52653440D01*
X102794500Y-52653440D01*
X103029817Y-52609162D01*
X103245941Y-52470090D01*
X103390931Y-52257890D01*
X103441940Y-52006000D01*
X103441940Y-50592178D01*
X103490991Y-50518768D01*
X103585000Y-50046154D01*
X103585000Y-49793846D01*
X103655000Y-49793846D01*
X103655000Y-50046154D01*
X103749009Y-50518768D01*
X103798060Y-50592178D01*
X103798060Y-52006000D01*
X103842338Y-52241317D01*
X103981410Y-52457441D01*
X104193610Y-52602431D01*
X104445500Y-52653440D01*
X105334500Y-52653440D01*
X105569817Y-52609162D01*
X105785941Y-52470090D01*
X105930931Y-52257890D01*
X105981940Y-52006000D01*
X105981940Y-50592178D01*
X106030991Y-50518768D01*
X106125000Y-50046154D01*
X106125000Y-49793846D01*
X106195000Y-49793846D01*
X106195000Y-50046154D01*
X106289009Y-50518768D01*
X106338060Y-50592178D01*
X106338060Y-52006000D01*
X106382338Y-52241317D01*
X106521410Y-52457441D01*
X106733610Y-52602431D01*
X106985500Y-52653440D01*
X107874500Y-52653440D01*
X108109817Y-52609162D01*
X108325941Y-52470090D01*
X108470931Y-52257890D01*
X108521940Y-52006000D01*
X108521940Y-50592178D01*
X108570991Y-50518768D01*
X108665000Y-50046154D01*
X108665000Y-49793846D01*
X108735000Y-49793846D01*
X108735000Y-50046154D01*
X108829009Y-50518768D01*
X108878060Y-50592178D01*
X108878060Y-52006000D01*
X108922338Y-52241317D01*
X109061410Y-52457441D01*
X109273610Y-52602431D01*
X109525500Y-52653440D01*
X110414500Y-52653440D01*
X110649817Y-52609162D01*
X110865941Y-52470090D01*
X111010931Y-52257890D01*
X111061940Y-52006000D01*
X111061940Y-50592178D01*
X111110991Y-50518768D01*
X111205000Y-50046154D01*
X111205000Y-49793846D01*
X111275000Y-49793846D01*
X111275000Y-50046154D01*
X111369009Y-50518768D01*
X111418060Y-50592178D01*
X111418060Y-52006000D01*
X111462338Y-52241317D01*
X111601410Y-52457441D01*
X111813610Y-52602431D01*
X112065500Y-52653440D01*
X112954500Y-52653440D01*
X113189817Y-52609162D01*
X113405941Y-52470090D01*
X113550931Y-52257890D01*
X113601940Y-52006000D01*
X113601940Y-51453550D01*
X113970500Y-51453550D01*
X113970500Y-52132310D01*
X114067173Y-52365699D01*
X114245802Y-52544327D01*
X114479191Y-52641000D01*
X114764250Y-52641000D01*
X114923000Y-52482250D01*
X114923000Y-51294800D01*
X115177000Y-51294800D01*
X115177000Y-52482250D01*
X115335750Y-52641000D01*
X115620809Y-52641000D01*
X115854198Y-52544327D01*
X116032827Y-52365699D01*
X116129500Y-52132310D01*
X116129500Y-51453550D01*
X115970750Y-51294800D01*
X115177000Y-51294800D01*
X114923000Y-51294800D01*
X114129250Y-51294800D01*
X113970500Y-51453550D01*
X113601940Y-51453550D01*
X113601940Y-50592178D01*
X113650991Y-50518768D01*
X113745000Y-50046154D01*
X113745000Y-49793846D01*
X113706512Y-49600353D01*
X113835799Y-49600353D01*
X113975137Y-49793000D01*
X114244075Y-49793000D01*
X114067173Y-49969901D01*
X114035238Y-50047000D01*
X113975137Y-50047000D01*
X113835799Y-50239647D01*
X113970500Y-50581538D01*
X113970500Y-50882050D01*
X114129250Y-51040800D01*
X114361596Y-51040800D01*
X114732391Y-51213462D01*
X114923000Y-51088731D01*
X114923000Y-49853350D01*
X114862650Y-49793000D01*
X114923000Y-49793000D01*
X114923000Y-48751269D01*
X115177000Y-48751269D01*
X115177000Y-49793000D01*
X115237350Y-49793000D01*
X115177000Y-49853350D01*
X115177000Y-51088731D01*
X115367609Y-51213462D01*
X115738404Y-51040800D01*
X115970750Y-51040800D01*
X116129500Y-50882050D01*
X116129500Y-50581538D01*
X116264201Y-50239647D01*
X116124863Y-50047000D01*
X116064762Y-50047000D01*
X116032827Y-49969901D01*
X115856772Y-49793846D01*
X116355000Y-49793846D01*
X116355000Y-50046154D01*
X116449009Y-50518768D01*
X116498060Y-50592178D01*
X116498060Y-52006000D01*
X116542338Y-52241317D01*
X116681410Y-52457441D01*
X116893610Y-52602431D01*
X117145500Y-52653440D01*
X118034500Y-52653440D01*
X118269817Y-52609162D01*
X118485941Y-52470090D01*
X118630931Y-52257890D01*
X118681940Y-52006000D01*
X118681940Y-50592178D01*
X118730991Y-50518768D01*
X118825000Y-50046154D01*
X118825000Y-49793846D01*
X118895000Y-49793846D01*
X118895000Y-50046154D01*
X118989009Y-50518768D01*
X119038060Y-50592178D01*
X119038060Y-52006000D01*
X119082338Y-52241317D01*
X119221410Y-52457441D01*
X119433610Y-52602431D01*
X119685500Y-52653440D01*
X120574500Y-52653440D01*
X120809817Y-52609162D01*
X121025941Y-52470090D01*
X121170931Y-52257890D01*
X121221940Y-52006000D01*
X121221940Y-50592178D01*
X121270991Y-50518768D01*
X121365000Y-50046154D01*
X121365000Y-49793846D01*
X121435000Y-49793846D01*
X121435000Y-50046154D01*
X121529009Y-50518768D01*
X121578060Y-50592178D01*
X121578060Y-52006000D01*
X121622338Y-52241317D01*
X121761410Y-52457441D01*
X121973610Y-52602431D01*
X122225500Y-52653440D01*
X123114500Y-52653440D01*
X123349817Y-52609162D01*
X123565941Y-52470090D01*
X123710931Y-52257890D01*
X123761940Y-52006000D01*
X123761940Y-50592178D01*
X123810991Y-50518768D01*
X123905000Y-50046154D01*
X123905000Y-49793846D01*
X123975000Y-49793846D01*
X123975000Y-50046154D01*
X124069009Y-50518768D01*
X124118060Y-50592178D01*
X124118060Y-52006000D01*
X124162338Y-52241317D01*
X124301410Y-52457441D01*
X124513610Y-52602431D01*
X124765500Y-52653440D01*
X125654500Y-52653440D01*
X125889817Y-52609162D01*
X126105941Y-52470090D01*
X126250931Y-52257890D01*
X126301940Y-52006000D01*
X126301940Y-50592178D01*
X126350991Y-50518768D01*
X126445000Y-50046154D01*
X126445000Y-49793846D01*
X126515000Y-49793846D01*
X126515000Y-50046154D01*
X126609009Y-50518768D01*
X126658060Y-50592178D01*
X126658060Y-52006000D01*
X126702338Y-52241317D01*
X126841410Y-52457441D01*
X127053610Y-52602431D01*
X127305500Y-52653440D01*
X128194500Y-52653440D01*
X128429817Y-52609162D01*
X128645941Y-52470090D01*
X128790931Y-52257890D01*
X128841940Y-52006000D01*
X128841940Y-50592178D01*
X128890991Y-50518768D01*
X128985000Y-50046154D01*
X128985000Y-49793846D01*
X128890991Y-49321232D01*
X128623277Y-48920569D01*
X128222614Y-48652855D01*
X127750000Y-48558846D01*
X127277386Y-48652855D01*
X126876723Y-48920569D01*
X126609009Y-49321232D01*
X126515000Y-49793846D01*
X126445000Y-49793846D01*
X126350991Y-49321232D01*
X126083277Y-48920569D01*
X125682614Y-48652855D01*
X125210000Y-48558846D01*
X124737386Y-48652855D01*
X124336723Y-48920569D01*
X124069009Y-49321232D01*
X123975000Y-49793846D01*
X123905000Y-49793846D01*
X123810991Y-49321232D01*
X123543277Y-48920569D01*
X123142614Y-48652855D01*
X122670000Y-48558846D01*
X122197386Y-48652855D01*
X121796723Y-48920569D01*
X121529009Y-49321232D01*
X121435000Y-49793846D01*
X121365000Y-49793846D01*
X121270991Y-49321232D01*
X121003277Y-48920569D01*
X120602614Y-48652855D01*
X120130000Y-48558846D01*
X119657386Y-48652855D01*
X119256723Y-48920569D01*
X118989009Y-49321232D01*
X118895000Y-49793846D01*
X118825000Y-49793846D01*
X118730991Y-49321232D01*
X118463277Y-48920569D01*
X118062614Y-48652855D01*
X117590000Y-48558846D01*
X117117386Y-48652855D01*
X116716723Y-48920569D01*
X116449009Y-49321232D01*
X116355000Y-49793846D01*
X115856772Y-49793846D01*
X115855925Y-49793000D01*
X116124863Y-49793000D01*
X116264201Y-49600353D01*
X116087720Y-49152418D01*
X115753256Y-48806116D01*
X115367609Y-48626538D01*
X115177000Y-48751269D01*
X114923000Y-48751269D01*
X114732391Y-48626538D01*
X114346744Y-48806116D01*
X114012280Y-49152418D01*
X113835799Y-49600353D01*
X113706512Y-49600353D01*
X113650991Y-49321232D01*
X113383277Y-48920569D01*
X112982614Y-48652855D01*
X112510000Y-48558846D01*
X112037386Y-48652855D01*
X111636723Y-48920569D01*
X111369009Y-49321232D01*
X111275000Y-49793846D01*
X111205000Y-49793846D01*
X111110991Y-49321232D01*
X110843277Y-48920569D01*
X110442614Y-48652855D01*
X109970000Y-48558846D01*
X109497386Y-48652855D01*
X109096723Y-48920569D01*
X108829009Y-49321232D01*
X108735000Y-49793846D01*
X108665000Y-49793846D01*
X108570991Y-49321232D01*
X108303277Y-48920569D01*
X107902614Y-48652855D01*
X107430000Y-48558846D01*
X106957386Y-48652855D01*
X106556723Y-48920569D01*
X106289009Y-49321232D01*
X106195000Y-49793846D01*
X106125000Y-49793846D01*
X106030991Y-49321232D01*
X105763277Y-48920569D01*
X105362614Y-48652855D01*
X104890000Y-48558846D01*
X104417386Y-48652855D01*
X104016723Y-48920569D01*
X103749009Y-49321232D01*
X103655000Y-49793846D01*
X103585000Y-49793846D01*
X103490991Y-49321232D01*
X103223277Y-48920569D01*
X102822614Y-48652855D01*
X102350000Y-48558846D01*
X101877386Y-48652855D01*
X101476723Y-48920569D01*
X101209009Y-49321232D01*
X101115000Y-49793846D01*
X101045000Y-49793846D01*
X100950991Y-49321232D01*
X100683277Y-48920569D01*
X100282614Y-48652855D01*
X99810000Y-48558846D01*
X99337386Y-48652855D01*
X98936723Y-48920569D01*
X98669009Y-49321232D01*
X98575000Y-49793846D01*
X98505000Y-49793846D01*
X98410991Y-49321232D01*
X98143277Y-48920569D01*
X97742614Y-48652855D01*
X97270000Y-48558846D01*
X96797386Y-48652855D01*
X96396723Y-48920569D01*
X96129009Y-49321232D01*
X96035000Y-49793846D01*
X95536772Y-49793846D01*
X95535925Y-49793000D01*
X95804863Y-49793000D01*
X95944201Y-49600353D01*
X95767720Y-49152418D01*
X95433256Y-48806116D01*
X95047609Y-48626538D01*
X94857000Y-48751269D01*
X94603000Y-48751269D01*
X94412391Y-48626538D01*
X94026744Y-48806116D01*
X93692280Y-49152418D01*
X93515799Y-49600353D01*
X93386512Y-49600353D01*
X93330991Y-49321232D01*
X93063277Y-48920569D01*
X92662614Y-48652855D01*
X92190000Y-48558846D01*
X91717386Y-48652855D01*
X91316723Y-48920569D01*
X91049009Y-49321232D01*
X90955000Y-49793846D01*
X90885000Y-49793846D01*
X90790991Y-49321232D01*
X90523277Y-48920569D01*
X90122614Y-48652855D01*
X89650000Y-48558846D01*
X89177386Y-48652855D01*
X88776723Y-48920569D01*
X88509009Y-49321232D01*
X88415000Y-49793846D01*
X88345000Y-49793846D01*
X88250991Y-49321232D01*
X87983277Y-48920569D01*
X87582614Y-48652855D01*
X87363862Y-48609342D01*
X87364140Y-48290602D01*
X87582614Y-48247145D01*
X87983277Y-47979431D01*
X88250991Y-47578768D01*
X88345000Y-47106154D01*
X88345000Y-46853846D01*
X88306512Y-46660353D01*
X88435799Y-46660353D01*
X88575137Y-46853000D01*
X88635238Y-46853000D01*
X88667173Y-46930099D01*
X88844075Y-47107000D01*
X88575137Y-47107000D01*
X88435799Y-47299647D01*
X88612280Y-47747582D01*
X88946744Y-48093884D01*
X89332391Y-48273462D01*
X89523000Y-48148731D01*
X89523000Y-47107000D01*
X89462650Y-47107000D01*
X89523000Y-47046650D01*
X89523000Y-45811269D01*
X89777000Y-45811269D01*
X89777000Y-47046650D01*
X89837350Y-47107000D01*
X89777000Y-47107000D01*
X89777000Y-48148731D01*
X89967609Y-48273462D01*
X90353256Y-48093884D01*
X90687720Y-47747582D01*
X90864201Y-47299647D01*
X90724863Y-47107000D01*
X90455925Y-47107000D01*
X90632827Y-46930099D01*
X90664762Y-46853000D01*
X90724863Y-46853000D01*
X90864201Y-46660353D01*
X90729500Y-46318462D01*
X90729500Y-46017950D01*
X90570750Y-45859200D01*
X90338404Y-45859200D01*
X89967609Y-45686538D01*
X89777000Y-45811269D01*
X89523000Y-45811269D01*
X89332391Y-45686538D01*
X88961596Y-45859200D01*
X88729250Y-45859200D01*
X88570500Y-46017950D01*
X88570500Y-46318462D01*
X88435799Y-46660353D01*
X88306512Y-46660353D01*
X88250991Y-46381232D01*
X88201940Y-46307822D01*
X88201940Y-45135000D01*
X88570500Y-45135000D01*
X88570500Y-45446450D01*
X88570500Y-45446450D01*
G37*
X88570500Y-45446450D02*
X88729250Y-45605200D01*
X89523000Y-45605200D01*
X89523000Y-45585200D01*
X89777000Y-45585200D01*
X89777000Y-45605200D01*
X90570750Y-45605200D01*
X90729500Y-45446450D01*
X90729500Y-45135000D01*
X91098060Y-45135000D01*
X91098060Y-46307822D01*
X91049009Y-46381232D01*
X90955000Y-46853846D01*
X90955000Y-47106154D01*
X91049009Y-47578768D01*
X91316723Y-47979431D01*
X91717386Y-48247145D01*
X92190000Y-48341154D01*
X92662614Y-48247145D01*
X93063277Y-47979431D01*
X93330991Y-47578768D01*
X93425000Y-47106154D01*
X93425000Y-46853846D01*
X93330991Y-46381232D01*
X93281940Y-46307822D01*
X93281940Y-45135000D01*
X93638060Y-45135000D01*
X93638060Y-46307822D01*
X93589009Y-46381232D01*
X93495000Y-46853846D01*
X93495000Y-47106154D01*
X93589009Y-47578768D01*
X93856723Y-47979431D01*
X94257386Y-48247145D01*
X94730000Y-48341154D01*
X95202614Y-48247145D01*
X95603277Y-47979431D01*
X95870991Y-47578768D01*
X95965000Y-47106154D01*
X95965000Y-46853846D01*
X95870991Y-46381232D01*
X95821940Y-46307822D01*
X95821940Y-45135000D01*
X96178060Y-45135000D01*
X96178060Y-46307822D01*
X96129009Y-46381232D01*
X96035000Y-46853846D01*
X96035000Y-47106154D01*
X96129009Y-47578768D01*
X96396723Y-47979431D01*
X96797386Y-48247145D01*
X97270000Y-48341154D01*
X97742614Y-48247145D01*
X98143277Y-47979431D01*
X98410991Y-47578768D01*
X98505000Y-47106154D01*
X98505000Y-46853846D01*
X98466512Y-46660353D01*
X98595799Y-46660353D01*
X98735137Y-46853000D01*
X98795238Y-46853000D01*
X98827173Y-46930099D01*
X99004075Y-47107000D01*
X98735137Y-47107000D01*
X98595799Y-47299647D01*
X98772280Y-47747582D01*
X99106744Y-48093884D01*
X99492391Y-48273462D01*
X99683000Y-48148731D01*
X99683000Y-47107000D01*
X99622650Y-47107000D01*
X99683000Y-47046650D01*
X99683000Y-45811269D01*
X99937000Y-45811269D01*
X99937000Y-47046650D01*
X99997350Y-47107000D01*
X99937000Y-47107000D01*
X99937000Y-48148731D01*
X100127609Y-48273462D01*
X100513256Y-48093884D01*
X100847720Y-47747582D01*
X101024201Y-47299647D01*
X100884863Y-47107000D01*
X100615925Y-47107000D01*
X100792827Y-46930099D01*
X100824762Y-46853000D01*
X100884863Y-46853000D01*
X101024201Y-46660353D01*
X100889500Y-46318462D01*
X100889500Y-46017950D01*
X100730750Y-45859200D01*
X100498404Y-45859200D01*
X100127609Y-45686538D01*
X99937000Y-45811269D01*
X99683000Y-45811269D01*
X99492391Y-45686538D01*
X99121596Y-45859200D01*
X98889250Y-45859200D01*
X98730500Y-46017950D01*
X98730500Y-46318462D01*
X98595799Y-46660353D01*
X98466512Y-46660353D01*
X98410991Y-46381232D01*
X98361940Y-46307822D01*
X98361940Y-45135000D01*
X98730500Y-45135000D01*
X98730500Y-45446450D01*
X98889250Y-45605200D01*
X99683000Y-45605200D01*
X99683000Y-45585200D01*
X99937000Y-45585200D01*
X99937000Y-45605200D01*
X100730750Y-45605200D01*
X100889500Y-45446450D01*
X100889500Y-45135000D01*
X101258060Y-45135000D01*
X101258060Y-46307822D01*
X101209009Y-46381232D01*
X101115000Y-46853846D01*
X101115000Y-47106154D01*
X101209009Y-47578768D01*
X101476723Y-47979431D01*
X101877386Y-48247145D01*
X102350000Y-48341154D01*
X102822614Y-48247145D01*
X103223277Y-47979431D01*
X103490991Y-47578768D01*
X103585000Y-47106154D01*
X103585000Y-46853846D01*
X103490991Y-46381232D01*
X103441940Y-46307822D01*
X103441940Y-45135000D01*
X103798060Y-45135000D01*
X103798060Y-46307822D01*
X103749009Y-46381232D01*
X103655000Y-46853846D01*
X103655000Y-47106154D01*
X103749009Y-47578768D01*
X104016723Y-47979431D01*
X104417386Y-48247145D01*
X104890000Y-48341154D01*
X105362614Y-48247145D01*
X105763277Y-47979431D01*
X106030991Y-47578768D01*
X106125000Y-47106154D01*
X106125000Y-46853846D01*
X106086512Y-46660353D01*
X106215799Y-46660353D01*
X106355137Y-46853000D01*
X106415238Y-46853000D01*
X106447173Y-46930099D01*
X106624075Y-47107000D01*
X106355137Y-47107000D01*
X106215799Y-47299647D01*
X106392280Y-47747582D01*
X106726744Y-48093884D01*
X107112391Y-48273462D01*
X107303000Y-48148731D01*
X107303000Y-47107000D01*
X107242650Y-47107000D01*
X107303000Y-47046650D01*
X107303000Y-45811269D01*
X107557000Y-45811269D01*
X107557000Y-47046650D01*
X107617350Y-47107000D01*
X107557000Y-47107000D01*
X107557000Y-48148731D01*
X107747609Y-48273462D01*
X108133256Y-48093884D01*
X108467720Y-47747582D01*
X108644201Y-47299647D01*
X108504863Y-47107000D01*
X108235925Y-47107000D01*
X108412827Y-46930099D01*
X108444762Y-46853000D01*
X108504863Y-46853000D01*
X108644201Y-46660353D01*
X108509500Y-46318462D01*
X108509500Y-46017950D01*
X108350750Y-45859200D01*
X108118404Y-45859200D01*
X107747609Y-45686538D01*
X107557000Y-45811269D01*
X107303000Y-45811269D01*
X107112391Y-45686538D01*
X106741596Y-45859200D01*
X106509250Y-45859200D01*
X106350500Y-46017950D01*
X106350500Y-46318462D01*
X106215799Y-46660353D01*
X106086512Y-46660353D01*
X106030991Y-46381232D01*
X105981940Y-46307822D01*
X105981940Y-45135000D01*
X106350500Y-45135000D01*
X106350500Y-45446450D01*
X106509250Y-45605200D01*
X107303000Y-45605200D01*
X107303000Y-45585200D01*
X107557000Y-45585200D01*
X107557000Y-45605200D01*
X108350750Y-45605200D01*
X108509500Y-45446450D01*
X108509500Y-45135000D01*
X108878060Y-45135000D01*
X108878060Y-46307822D01*
X108829009Y-46381232D01*
X108735000Y-46853846D01*
X108735000Y-47106154D01*
X108829009Y-47578768D01*
X109096723Y-47979431D01*
X109497386Y-48247145D01*
X109970000Y-48341154D01*
X110442614Y-48247145D01*
X110843277Y-47979431D01*
X111110991Y-47578768D01*
X111205000Y-47106154D01*
X111205000Y-46853846D01*
X111110991Y-46381232D01*
X111061940Y-46307822D01*
X111061940Y-45135000D01*
X111418060Y-45135000D01*
X111418060Y-46307822D01*
X111369009Y-46381232D01*
X111275000Y-46853846D01*
X111275000Y-47106154D01*
X111369009Y-47578768D01*
X111636723Y-47979431D01*
X112037386Y-48247145D01*
X112510000Y-48341154D01*
X112982614Y-48247145D01*
X113383277Y-47979431D01*
X113650991Y-47578768D01*
X113745000Y-47106154D01*
X113745000Y-46853846D01*
X113650991Y-46381232D01*
X113601940Y-46307822D01*
X113601940Y-45135000D01*
X113958060Y-45135000D01*
X113958060Y-46307822D01*
X113909009Y-46381232D01*
X113815000Y-46853846D01*
X113815000Y-47106154D01*
X113909009Y-47578768D01*
X114176723Y-47979431D01*
X114577386Y-48247145D01*
X115050000Y-48341154D01*
X115522614Y-48247145D01*
X115923277Y-47979431D01*
X116190991Y-47578768D01*
X116285000Y-47106154D01*
X116285000Y-46853846D01*
X116190991Y-46381232D01*
X116141940Y-46307822D01*
X116141940Y-45135000D01*
X116498060Y-45135000D01*
X116498060Y-46307822D01*
X116449009Y-46381232D01*
X116355000Y-46853846D01*
X116355000Y-47106154D01*
X116449009Y-47578768D01*
X116716723Y-47979431D01*
X117117386Y-48247145D01*
X117590000Y-48341154D01*
X118062614Y-48247145D01*
X118463277Y-47979431D01*
X118730991Y-47578768D01*
X118825000Y-47106154D01*
X118825000Y-46853846D01*
X118786512Y-46660353D01*
X118915799Y-46660353D01*
X119055137Y-46853000D01*
X119115238Y-46853000D01*
X119147173Y-46930099D01*
X119324075Y-47107000D01*
X119055137Y-47107000D01*
X118915799Y-47299647D01*
X119092280Y-47747582D01*
X119426744Y-48093884D01*
X119812391Y-48273462D01*
X120003000Y-48148731D01*
X120003000Y-47107000D01*
X119942650Y-47107000D01*
X120003000Y-47046650D01*
X120003000Y-45811269D01*
X120257000Y-45811269D01*
X120257000Y-47046650D01*
X120317350Y-47107000D01*
X120257000Y-47107000D01*
X120257000Y-48148731D01*
X120447609Y-48273462D01*
X120833256Y-48093884D01*
X121167720Y-47747582D01*
X121344201Y-47299647D01*
X121204863Y-47107000D01*
X120935925Y-47107000D01*
X121112827Y-46930099D01*
X121144762Y-46853000D01*
X121204863Y-46853000D01*
X121344201Y-46660353D01*
X121209500Y-46318462D01*
X121209500Y-46017950D01*
X121050750Y-45859200D01*
X120818404Y-45859200D01*
X120447609Y-45686538D01*
X120257000Y-45811269D01*
X120003000Y-45811269D01*
X119812391Y-45686538D01*
X119441596Y-45859200D01*
X119209250Y-45859200D01*
X119050500Y-46017950D01*
X119050500Y-46318462D01*
X118915799Y-46660353D01*
X118786512Y-46660353D01*
X118730991Y-46381232D01*
X118681940Y-46307822D01*
X118681940Y-45135000D01*
X119050500Y-45135000D01*
X119050500Y-45446450D01*
X119209250Y-45605200D01*
X120003000Y-45605200D01*
X120003000Y-45585200D01*
X120257000Y-45585200D01*
X120257000Y-45605200D01*
X121050750Y-45605200D01*
X121209500Y-45446450D01*
X121209500Y-45135000D01*
X121578060Y-45135000D01*
X121578060Y-46307822D01*
X121529009Y-46381232D01*
X121435000Y-46853846D01*
X121435000Y-47106154D01*
X121529009Y-47578768D01*
X121796723Y-47979431D01*
X122197386Y-48247145D01*
X122670000Y-48341154D01*
X123142614Y-48247145D01*
X123543277Y-47979431D01*
X123810991Y-47578768D01*
X123905000Y-47106154D01*
X123905000Y-46853846D01*
X123866512Y-46660353D01*
X123995799Y-46660353D01*
X124135137Y-46853000D01*
X124195238Y-46853000D01*
X124227173Y-46930099D01*
X124404075Y-47107000D01*
X124135137Y-47107000D01*
X123995799Y-47299647D01*
X124172280Y-47747582D01*
X124506744Y-48093884D01*
X124892391Y-48273462D01*
X125083000Y-48148731D01*
X125083000Y-47107000D01*
X125022650Y-47107000D01*
X125083000Y-47046650D01*
X125083000Y-45811269D01*
X125337000Y-45811269D01*
X125337000Y-47046650D01*
X125397350Y-47107000D01*
X125337000Y-47107000D01*
X125337000Y-48148731D01*
X125527609Y-48273462D01*
X125913256Y-48093884D01*
X126247720Y-47747582D01*
X126424201Y-47299647D01*
X126284863Y-47107000D01*
X126015925Y-47107000D01*
X126192827Y-46930099D01*
X126224762Y-46853000D01*
X126284863Y-46853000D01*
X126424201Y-46660353D01*
X126289500Y-46318462D01*
X126289500Y-46017950D01*
X126130750Y-45859200D01*
X125898404Y-45859200D01*
X125527609Y-45686538D01*
X125337000Y-45811269D01*
X125083000Y-45811269D01*
X124892391Y-45686538D01*
X124521596Y-45859200D01*
X124289250Y-45859200D01*
X124130500Y-46017950D01*
X124130500Y-46318462D01*
X123995799Y-46660353D01*
X123866512Y-46660353D01*
X123810991Y-46381232D01*
X123761940Y-46307822D01*
X123761940Y-45135000D01*
X124130500Y-45135000D01*
X124130500Y-45446450D01*
X124289250Y-45605200D01*
X125083000Y-45605200D01*
X125083000Y-45585200D01*
X125337000Y-45585200D01*
X125337000Y-45605200D01*
X126130750Y-45605200D01*
X126289500Y-45446450D01*
X126289500Y-45135000D01*
X126658060Y-45135000D01*
X126658060Y-46307822D01*
X126609009Y-46381232D01*
X126515000Y-46853846D01*
X126515000Y-47106154D01*
X126609009Y-47578768D01*
X126876723Y-47979431D01*
X127277386Y-48247145D01*
X127750000Y-48341154D01*
X128222614Y-48247145D01*
X128623277Y-47979431D01*
X128890991Y-47578768D01*
X128985000Y-47106154D01*
X128985000Y-46853846D01*
X128890991Y-46381232D01*
X128841940Y-46307822D01*
X128841940Y-45135000D01*
X129198060Y-45135000D01*
X129198060Y-46307822D01*
X129149009Y-46381232D01*
X129055000Y-46853846D01*
X129055000Y-47106154D01*
X129149009Y-47578768D01*
X129416723Y-47979431D01*
X129817386Y-48247145D01*
X130036138Y-48290658D01*
X130035860Y-48609398D01*
X129817386Y-48652855D01*
X129416723Y-48920569D01*
X129149009Y-49321232D01*
X129055000Y-49793846D01*
X129055000Y-50046154D01*
X129149009Y-50518768D01*
X129198060Y-50592178D01*
X129198060Y-52006000D01*
X129242338Y-52241317D01*
X129381410Y-52457441D01*
X129593610Y-52602431D01*
X129845500Y-52653440D01*
X130734500Y-52653440D01*
X130969817Y-52609162D01*
X131185941Y-52470090D01*
X131330931Y-52257890D01*
X131381940Y-52006000D01*
X131381940Y-51453550D01*
X131750500Y-51453550D01*
X131750500Y-52132310D01*
X131847173Y-52365699D01*
X132025802Y-52544327D01*
X132259191Y-52641000D01*
X132544250Y-52641000D01*
X132703000Y-52482250D01*
X132703000Y-51294800D01*
X132957000Y-51294800D01*
X132957000Y-52482250D01*
X133115750Y-52641000D01*
X133400809Y-52641000D01*
X133634198Y-52544327D01*
X133812827Y-52365699D01*
X133909500Y-52132310D01*
X133909500Y-51453550D01*
X133750750Y-51294800D01*
X132957000Y-51294800D01*
X132703000Y-51294800D01*
X131909250Y-51294800D01*
X131750500Y-51453550D01*
X131381940Y-51453550D01*
X131381940Y-50592178D01*
X131430991Y-50518768D01*
X131525000Y-50046154D01*
X131525000Y-49973970D01*
X131595000Y-49974031D01*
X131595000Y-50047002D01*
X131755136Y-50047002D01*
X131615799Y-50239647D01*
X131750500Y-50581538D01*
X131750500Y-50882050D01*
X131909250Y-51040800D01*
X132141596Y-51040800D01*
X132512391Y-51213462D01*
X132703000Y-51088731D01*
X132703000Y-49853350D01*
X132683000Y-49833350D01*
X132683000Y-49793000D01*
X132703000Y-49793000D01*
X132703000Y-49773000D01*
X132957000Y-49773000D01*
X132957000Y-49793000D01*
X133017350Y-49793000D01*
X132957000Y-49853350D01*
X132957000Y-51088731D01*
X133147609Y-51213462D01*
X133518404Y-51040800D01*
X133750750Y-51040800D01*
X133909500Y-50882050D01*
X133909500Y-50581538D01*
X134044201Y-50239647D01*
X133904863Y-50047000D01*
X133844762Y-50047000D01*
X133812827Y-49969901D01*
X133635925Y-49793000D01*
X133904863Y-49793000D01*
X134044201Y-49600353D01*
X133867720Y-49152418D01*
X133533256Y-48806116D01*
X133147609Y-48626538D01*
X133083810Y-48668287D01*
X133084140Y-48290602D01*
X133302614Y-48247145D01*
X133703277Y-47979431D01*
X133970991Y-47578768D01*
X134065000Y-47106154D01*
X134065000Y-46853846D01*
X133970991Y-46381232D01*
X133921940Y-46307822D01*
X133921940Y-45307941D01*
X133964008Y-45350009D01*
X134229824Y-45871702D01*
X134323000Y-46459992D01*
X134323000Y-49421573D01*
X134324086Y-49438150D01*
X134392234Y-49955788D01*
X134400815Y-49987812D01*
X134600616Y-50470174D01*
X134617193Y-50498886D01*
X134935030Y-50913099D01*
X134945983Y-50925589D01*
X135324411Y-51304017D01*
X135343657Y-51319811D01*
X135992503Y-51753356D01*
X136038284Y-51772319D01*
X136803651Y-51924560D01*
X136828427Y-51927000D01*
X139190008Y-51927000D01*
X139778298Y-52020176D01*
X140299991Y-52285992D01*
X140515000Y-52501001D01*
X140515000Y-60854842D01*
X140007162Y-60347004D01*
X139969271Y-60156511D01*
X139644415Y-59670330D01*
X139329634Y-59460000D01*
X139644415Y-59249670D01*
X139969271Y-58763489D01*
X140083345Y-58190000D01*
X139969271Y-57616511D01*
X139644415Y-57130330D01*
X139622220Y-57115500D01*
X139775698Y-57051927D01*
X139954327Y-56873299D01*
X140051000Y-56639910D01*
X140051000Y-55935750D01*
X139892250Y-55777000D01*
X138527000Y-55777000D01*
X138527000Y-55797000D01*
X138273000Y-55797000D01*
X138273000Y-55777000D01*
X136907750Y-55777000D01*
X136749000Y-55935750D01*
X136749000Y-56639910D01*
X136845673Y-56873299D01*
X137024302Y-57051927D01*
X137177780Y-57115500D01*
X137155585Y-57130330D01*
X136830729Y-57616511D01*
X136758714Y-57978556D01*
X133440248Y-54660090D01*
X136749000Y-54660090D01*
X136749000Y-55364250D01*
X136907750Y-55523000D01*
X138273000Y-55523000D01*
X138273000Y-54310150D01*
X138527000Y-54310150D01*
X138527000Y-55523000D01*
X139892250Y-55523000D01*
X140051000Y-55364250D01*
X140051000Y-54660090D01*
X139954327Y-54426701D01*
X139775698Y-54248073D01*
X139542309Y-54151400D01*
X138685750Y-54151400D01*
X138527000Y-54310150D01*
X138273000Y-54310150D01*
X138114250Y-54151400D01*
X137257691Y-54151400D01*
X137024302Y-54248073D01*
X136845673Y-54426701D01*
X136749000Y-54660090D01*
X133440248Y-54660090D01*
X131875079Y-53094921D01*
X131620407Y-52924755D01*
X131320000Y-52865000D01*
X82600000Y-52865000D01*
X82299593Y-52924755D01*
X82044921Y-53094921D01*
X80984921Y-54154921D01*
X80814755Y-54409593D01*
X80788763Y-54540262D01*
X80755000Y-54710000D01*
X80755000Y-54740533D01*
X80685771Y-54769138D01*
X80269647Y-55184536D01*
X79856463Y-54770630D01*
X79301675Y-54540262D01*
X78700960Y-54539738D01*
X78145771Y-54769138D01*
X77720630Y-55193537D01*
X77490262Y-55748325D01*
X77489738Y-56349040D01*
X77719138Y-56904229D01*
X78134536Y-57320353D01*
X77720630Y-57733537D01*
X77490262Y-58288325D01*
X77490059Y-58520494D01*
X76885000Y-59125554D01*
X76885000Y-50087544D01*
X76962687Y-50275561D01*
X77869664Y-51184123D01*
X79055294Y-51676439D01*
X79714966Y-51677015D01*
X80032345Y-51990373D01*
X80074535Y-52017968D01*
X80138150Y-52025914D01*
X80655788Y-51957766D01*
X80687812Y-51949185D01*
X81170174Y-51749384D01*
X81198886Y-51732807D01*
X81613099Y-51414970D01*
X81625589Y-51404017D01*
X82939803Y-50089803D01*
X82967666Y-50047789D01*
X82968609Y-50042777D01*
X82976887Y-50040917D01*
X83025755Y-50002313D01*
X83039320Y-49984635D01*
X83055898Y-49955923D01*
X83064425Y-49935337D01*
X83073006Y-49903311D01*
X83075914Y-49881220D01*
X83077000Y-49864645D01*
X83077000Y-46459992D01*
X83170176Y-45871702D01*
X83435992Y-45350009D01*
X83478060Y-45307941D01*
X83478060Y-46307822D01*
X83429009Y-46381232D01*
X83335000Y-46853846D01*
X83335000Y-47106154D01*
X83429009Y-47578768D01*
X83696723Y-47979431D01*
X84097386Y-48247145D01*
X84316138Y-48290658D01*
X84315860Y-48609398D01*
X84097386Y-48652855D01*
X83696723Y-48920569D01*
X83429009Y-49321232D01*
X83335000Y-49793846D01*
X83335000Y-50046154D01*
X83429009Y-50518768D01*
X83478060Y-50592178D01*
X83478060Y-52006000D01*
X83522338Y-52241317D01*
X83661410Y-52457441D01*
X83873610Y-52602431D01*
X84125500Y-52653440D01*
X85014500Y-52653440D01*
X85249817Y-52609162D01*
X85465941Y-52470090D01*
X85610931Y-52257890D01*
X85661940Y-52006000D01*
X85661940Y-50592178D01*
X85710991Y-50518768D01*
X85805000Y-50046154D01*
X85805000Y-49973970D01*
X85875000Y-49974031D01*
X85875000Y-50046154D01*
X85969009Y-50518768D01*
X86018060Y-50592178D01*
X86018060Y-52006000D01*
X86062338Y-52241317D01*
X86201410Y-52457441D01*
X86413610Y-52602431D01*
X86665500Y-52653440D01*
X87554500Y-52653440D01*
X87789817Y-52609162D01*
X88005941Y-52470090D01*
X88150931Y-52257890D01*
X88201940Y-52006000D01*
X88201940Y-50592178D01*
X88250991Y-50518768D01*
X88345000Y-50046154D01*
X88345000Y-49793846D01*
X88415000Y-49793846D01*
X88415000Y-50046154D01*
X88509009Y-50518768D01*
X88558060Y-50592178D01*
X88558060Y-52006000D01*
X88602338Y-52241317D01*
X88741410Y-52457441D01*
X88953610Y-52602431D01*
X89205500Y-52653440D01*
X90094500Y-52653440D01*
X90329817Y-52609162D01*
X90545941Y-52470090D01*
X90690931Y-52257890D01*
X90741940Y-52006000D01*
X90741940Y-50592178D01*
X90790991Y-50518768D01*
X90885000Y-50046154D01*
X90885000Y-49793846D01*
X90955000Y-49793846D01*
X90955000Y-50046154D01*
X91049009Y-50518768D01*
X91098060Y-50592178D01*
X91098060Y-52006000D01*
X91142338Y-52241317D01*
X91281410Y-52457441D01*
X91493610Y-52602431D01*
X91745500Y-52653440D01*
X92634500Y-52653440D01*
X92869817Y-52609162D01*
X93085941Y-52470090D01*
X93230931Y-52257890D01*
X93281940Y-52006000D01*
X93281940Y-51453550D01*
X93650500Y-51453550D01*
X93650500Y-52132310D01*
X93747173Y-52365699D01*
X93925802Y-52544327D01*
X94159191Y-52641000D01*
X94444250Y-52641000D01*
X94603000Y-52482250D01*
X94603000Y-51294800D01*
X94857000Y-51294800D01*
X94857000Y-52482250D01*
X95015750Y-52641000D01*
X95300809Y-52641000D01*
X95534198Y-52544327D01*
X95712827Y-52365699D01*
X95809500Y-52132310D01*
X95809500Y-51453550D01*
X95650750Y-51294800D01*
X94857000Y-51294800D01*
X94603000Y-51294800D01*
X93809250Y-51294800D01*
X93650500Y-51453550D01*
X93281940Y-51453550D01*
X93281940Y-50592178D01*
X93330991Y-50518768D01*
X93425000Y-50046154D01*
X93425000Y-49793846D01*
X93386512Y-49600353D01*
X93515799Y-49600353D01*
X93655137Y-49793000D01*
X93924075Y-49793000D01*
X93747173Y-49969901D01*
X93715238Y-50047000D01*
X93655137Y-50047000D01*
X93515799Y-50239647D01*
X93650500Y-50581538D01*
X93650500Y-50882050D01*
X93809250Y-51040800D01*
X94041596Y-51040800D01*
X94412391Y-51213462D01*
X94603000Y-51088731D01*
X94603000Y-49853350D01*
X94542650Y-49793000D01*
X94603000Y-49793000D01*
X94603000Y-48751269D01*
X94857000Y-48751269D01*
X94857000Y-49793000D01*
X94917350Y-49793000D01*
X94857000Y-49853350D01*
X94857000Y-51088731D01*
X95047609Y-51213462D01*
X95418404Y-51040800D01*
X95650750Y-51040800D01*
X95809500Y-50882050D01*
X95809500Y-50581538D01*
X95944201Y-50239647D01*
X95804863Y-50047000D01*
X95744762Y-50047000D01*
X95712827Y-49969901D01*
X95536772Y-49793846D01*
X96035000Y-49793846D01*
X96035000Y-50046154D01*
X96129009Y-50518768D01*
X96178060Y-50592178D01*
X96178060Y-52006000D01*
X96222338Y-52241317D01*
X96361410Y-52457441D01*
X96573610Y-52602431D01*
X96825500Y-52653440D01*
X97714500Y-52653440D01*
X97949817Y-52609162D01*
X98165941Y-52470090D01*
X98310931Y-52257890D01*
X98361940Y-52006000D01*
X98361940Y-50592178D01*
X98410991Y-50518768D01*
X98505000Y-50046154D01*
X98505000Y-49793846D01*
X98575000Y-49793846D01*
X98575000Y-50046154D01*
X98669009Y-50518768D01*
X98718060Y-50592178D01*
X98718060Y-52006000D01*
X98762338Y-52241317D01*
X98901410Y-52457441D01*
X99113610Y-52602431D01*
X99365500Y-52653440D01*
X100254500Y-52653440D01*
X100489817Y-52609162D01*
X100705941Y-52470090D01*
X100850931Y-52257890D01*
X100901940Y-52006000D01*
X100901940Y-50592178D01*
X100950991Y-50518768D01*
X101045000Y-50046154D01*
X101045000Y-49793846D01*
X101115000Y-49793846D01*
X101115000Y-50046154D01*
X101209009Y-50518768D01*
X101258060Y-50592178D01*
X101258060Y-52006000D01*
X101302338Y-52241317D01*
X101441410Y-52457441D01*
X101653610Y-52602431D01*
X101905500Y-52653440D01*
X102794500Y-52653440D01*
X103029817Y-52609162D01*
X103245941Y-52470090D01*
X103390931Y-52257890D01*
X103441940Y-52006000D01*
X103441940Y-50592178D01*
X103490991Y-50518768D01*
X103585000Y-50046154D01*
X103585000Y-49793846D01*
X103655000Y-49793846D01*
X103655000Y-50046154D01*
X103749009Y-50518768D01*
X103798060Y-50592178D01*
X103798060Y-52006000D01*
X103842338Y-52241317D01*
X103981410Y-52457441D01*
X104193610Y-52602431D01*
X104445500Y-52653440D01*
X105334500Y-52653440D01*
X105569817Y-52609162D01*
X105785941Y-52470090D01*
X105930931Y-52257890D01*
X105981940Y-52006000D01*
X105981940Y-50592178D01*
X106030991Y-50518768D01*
X106125000Y-50046154D01*
X106125000Y-49793846D01*
X106195000Y-49793846D01*
X106195000Y-50046154D01*
X106289009Y-50518768D01*
X106338060Y-50592178D01*
X106338060Y-52006000D01*
X106382338Y-52241317D01*
X106521410Y-52457441D01*
X106733610Y-52602431D01*
X106985500Y-52653440D01*
X107874500Y-52653440D01*
X108109817Y-52609162D01*
X108325941Y-52470090D01*
X108470931Y-52257890D01*
X108521940Y-52006000D01*
X108521940Y-50592178D01*
X108570991Y-50518768D01*
X108665000Y-50046154D01*
X108665000Y-49793846D01*
X108735000Y-49793846D01*
X108735000Y-50046154D01*
X108829009Y-50518768D01*
X108878060Y-50592178D01*
X108878060Y-52006000D01*
X108922338Y-52241317D01*
X109061410Y-52457441D01*
X109273610Y-52602431D01*
X109525500Y-52653440D01*
X110414500Y-52653440D01*
X110649817Y-52609162D01*
X110865941Y-52470090D01*
X111010931Y-52257890D01*
X111061940Y-52006000D01*
X111061940Y-50592178D01*
X111110991Y-50518768D01*
X111205000Y-50046154D01*
X111205000Y-49793846D01*
X111275000Y-49793846D01*
X111275000Y-50046154D01*
X111369009Y-50518768D01*
X111418060Y-50592178D01*
X111418060Y-52006000D01*
X111462338Y-52241317D01*
X111601410Y-52457441D01*
X111813610Y-52602431D01*
X112065500Y-52653440D01*
X112954500Y-52653440D01*
X113189817Y-52609162D01*
X113405941Y-52470090D01*
X113550931Y-52257890D01*
X113601940Y-52006000D01*
X113601940Y-51453550D01*
X113970500Y-51453550D01*
X113970500Y-52132310D01*
X114067173Y-52365699D01*
X114245802Y-52544327D01*
X114479191Y-52641000D01*
X114764250Y-52641000D01*
X114923000Y-52482250D01*
X114923000Y-51294800D01*
X115177000Y-51294800D01*
X115177000Y-52482250D01*
X115335750Y-52641000D01*
X115620809Y-52641000D01*
X115854198Y-52544327D01*
X116032827Y-52365699D01*
X116129500Y-52132310D01*
X116129500Y-51453550D01*
X115970750Y-51294800D01*
X115177000Y-51294800D01*
X114923000Y-51294800D01*
X114129250Y-51294800D01*
X113970500Y-51453550D01*
X113601940Y-51453550D01*
X113601940Y-50592178D01*
X113650991Y-50518768D01*
X113745000Y-50046154D01*
X113745000Y-49793846D01*
X113706512Y-49600353D01*
X113835799Y-49600353D01*
X113975137Y-49793000D01*
X114244075Y-49793000D01*
X114067173Y-49969901D01*
X114035238Y-50047000D01*
X113975137Y-50047000D01*
X113835799Y-50239647D01*
X113970500Y-50581538D01*
X113970500Y-50882050D01*
X114129250Y-51040800D01*
X114361596Y-51040800D01*
X114732391Y-51213462D01*
X114923000Y-51088731D01*
X114923000Y-49853350D01*
X114862650Y-49793000D01*
X114923000Y-49793000D01*
X114923000Y-48751269D01*
X115177000Y-48751269D01*
X115177000Y-49793000D01*
X115237350Y-49793000D01*
X115177000Y-49853350D01*
X115177000Y-51088731D01*
X115367609Y-51213462D01*
X115738404Y-51040800D01*
X115970750Y-51040800D01*
X116129500Y-50882050D01*
X116129500Y-50581538D01*
X116264201Y-50239647D01*
X116124863Y-50047000D01*
X116064762Y-50047000D01*
X116032827Y-49969901D01*
X115856772Y-49793846D01*
X116355000Y-49793846D01*
X116355000Y-50046154D01*
X116449009Y-50518768D01*
X116498060Y-50592178D01*
X116498060Y-52006000D01*
X116542338Y-52241317D01*
X116681410Y-52457441D01*
X116893610Y-52602431D01*
X117145500Y-52653440D01*
X118034500Y-52653440D01*
X118269817Y-52609162D01*
X118485941Y-52470090D01*
X118630931Y-52257890D01*
X118681940Y-52006000D01*
X118681940Y-50592178D01*
X118730991Y-50518768D01*
X118825000Y-50046154D01*
X118825000Y-49793846D01*
X118895000Y-49793846D01*
X118895000Y-50046154D01*
X118989009Y-50518768D01*
X119038060Y-50592178D01*
X119038060Y-52006000D01*
X119082338Y-52241317D01*
X119221410Y-52457441D01*
X119433610Y-52602431D01*
X119685500Y-52653440D01*
X120574500Y-52653440D01*
X120809817Y-52609162D01*
X121025941Y-52470090D01*
X121170931Y-52257890D01*
X121221940Y-52006000D01*
X121221940Y-50592178D01*
X121270991Y-50518768D01*
X121365000Y-50046154D01*
X121365000Y-49793846D01*
X121435000Y-49793846D01*
X121435000Y-50046154D01*
X121529009Y-50518768D01*
X121578060Y-50592178D01*
X121578060Y-52006000D01*
X121622338Y-52241317D01*
X121761410Y-52457441D01*
X121973610Y-52602431D01*
X122225500Y-52653440D01*
X123114500Y-52653440D01*
X123349817Y-52609162D01*
X123565941Y-52470090D01*
X123710931Y-52257890D01*
X123761940Y-52006000D01*
X123761940Y-50592178D01*
X123810991Y-50518768D01*
X123905000Y-50046154D01*
X123905000Y-49793846D01*
X123975000Y-49793846D01*
X123975000Y-50046154D01*
X124069009Y-50518768D01*
X124118060Y-50592178D01*
X124118060Y-52006000D01*
X124162338Y-52241317D01*
X124301410Y-52457441D01*
X124513610Y-52602431D01*
X124765500Y-52653440D01*
X125654500Y-52653440D01*
X125889817Y-52609162D01*
X126105941Y-52470090D01*
X126250931Y-52257890D01*
X126301940Y-52006000D01*
X126301940Y-50592178D01*
X126350991Y-50518768D01*
X126445000Y-50046154D01*
X126445000Y-49793846D01*
X126515000Y-49793846D01*
X126515000Y-50046154D01*
X126609009Y-50518768D01*
X126658060Y-50592178D01*
X126658060Y-52006000D01*
X126702338Y-52241317D01*
X126841410Y-52457441D01*
X127053610Y-52602431D01*
X127305500Y-52653440D01*
X128194500Y-52653440D01*
X128429817Y-52609162D01*
X128645941Y-52470090D01*
X128790931Y-52257890D01*
X128841940Y-52006000D01*
X128841940Y-50592178D01*
X128890991Y-50518768D01*
X128985000Y-50046154D01*
X128985000Y-49793846D01*
X128890991Y-49321232D01*
X128623277Y-48920569D01*
X128222614Y-48652855D01*
X127750000Y-48558846D01*
X127277386Y-48652855D01*
X126876723Y-48920569D01*
X126609009Y-49321232D01*
X126515000Y-49793846D01*
X126445000Y-49793846D01*
X126350991Y-49321232D01*
X126083277Y-48920569D01*
X125682614Y-48652855D01*
X125210000Y-48558846D01*
X124737386Y-48652855D01*
X124336723Y-48920569D01*
X124069009Y-49321232D01*
X123975000Y-49793846D01*
X123905000Y-49793846D01*
X123810991Y-49321232D01*
X123543277Y-48920569D01*
X123142614Y-48652855D01*
X122670000Y-48558846D01*
X122197386Y-48652855D01*
X121796723Y-48920569D01*
X121529009Y-49321232D01*
X121435000Y-49793846D01*
X121365000Y-49793846D01*
X121270991Y-49321232D01*
X121003277Y-48920569D01*
X120602614Y-48652855D01*
X120130000Y-48558846D01*
X119657386Y-48652855D01*
X119256723Y-48920569D01*
X118989009Y-49321232D01*
X118895000Y-49793846D01*
X118825000Y-49793846D01*
X118730991Y-49321232D01*
X118463277Y-48920569D01*
X118062614Y-48652855D01*
X117590000Y-48558846D01*
X117117386Y-48652855D01*
X116716723Y-48920569D01*
X116449009Y-49321232D01*
X116355000Y-49793846D01*
X115856772Y-49793846D01*
X115855925Y-49793000D01*
X116124863Y-49793000D01*
X116264201Y-49600353D01*
X116087720Y-49152418D01*
X115753256Y-48806116D01*
X115367609Y-48626538D01*
X115177000Y-48751269D01*
X114923000Y-48751269D01*
X114732391Y-48626538D01*
X114346744Y-48806116D01*
X114012280Y-49152418D01*
X113835799Y-49600353D01*
X113706512Y-49600353D01*
X113650991Y-49321232D01*
X113383277Y-48920569D01*
X112982614Y-48652855D01*
X112510000Y-48558846D01*
X112037386Y-48652855D01*
X111636723Y-48920569D01*
X111369009Y-49321232D01*
X111275000Y-49793846D01*
X111205000Y-49793846D01*
X111110991Y-49321232D01*
X110843277Y-48920569D01*
X110442614Y-48652855D01*
X109970000Y-48558846D01*
X109497386Y-48652855D01*
X109096723Y-48920569D01*
X108829009Y-49321232D01*
X108735000Y-49793846D01*
X108665000Y-49793846D01*
X108570991Y-49321232D01*
X108303277Y-48920569D01*
X107902614Y-48652855D01*
X107430000Y-48558846D01*
X106957386Y-48652855D01*
X106556723Y-48920569D01*
X106289009Y-49321232D01*
X106195000Y-49793846D01*
X106125000Y-49793846D01*
X106030991Y-49321232D01*
X105763277Y-48920569D01*
X105362614Y-48652855D01*
X104890000Y-48558846D01*
X104417386Y-48652855D01*
X104016723Y-48920569D01*
X103749009Y-49321232D01*
X103655000Y-49793846D01*
X103585000Y-49793846D01*
X103490991Y-49321232D01*
X103223277Y-48920569D01*
X102822614Y-48652855D01*
X102350000Y-48558846D01*
X101877386Y-48652855D01*
X101476723Y-48920569D01*
X101209009Y-49321232D01*
X101115000Y-49793846D01*
X101045000Y-49793846D01*
X100950991Y-49321232D01*
X100683277Y-48920569D01*
X100282614Y-48652855D01*
X99810000Y-48558846D01*
X99337386Y-48652855D01*
X98936723Y-48920569D01*
X98669009Y-49321232D01*
X98575000Y-49793846D01*
X98505000Y-49793846D01*
X98410991Y-49321232D01*
X98143277Y-48920569D01*
X97742614Y-48652855D01*
X97270000Y-48558846D01*
X96797386Y-48652855D01*
X96396723Y-48920569D01*
X96129009Y-49321232D01*
X96035000Y-49793846D01*
X95536772Y-49793846D01*
X95535925Y-49793000D01*
X95804863Y-49793000D01*
X95944201Y-49600353D01*
X95767720Y-49152418D01*
X95433256Y-48806116D01*
X95047609Y-48626538D01*
X94857000Y-48751269D01*
X94603000Y-48751269D01*
X94412391Y-48626538D01*
X94026744Y-48806116D01*
X93692280Y-49152418D01*
X93515799Y-49600353D01*
X93386512Y-49600353D01*
X93330991Y-49321232D01*
X93063277Y-48920569D01*
X92662614Y-48652855D01*
X92190000Y-48558846D01*
X91717386Y-48652855D01*
X91316723Y-48920569D01*
X91049009Y-49321232D01*
X90955000Y-49793846D01*
X90885000Y-49793846D01*
X90790991Y-49321232D01*
X90523277Y-48920569D01*
X90122614Y-48652855D01*
X89650000Y-48558846D01*
X89177386Y-48652855D01*
X88776723Y-48920569D01*
X88509009Y-49321232D01*
X88415000Y-49793846D01*
X88345000Y-49793846D01*
X88250991Y-49321232D01*
X87983277Y-48920569D01*
X87582614Y-48652855D01*
X87363862Y-48609342D01*
X87364140Y-48290602D01*
X87582614Y-48247145D01*
X87983277Y-47979431D01*
X88250991Y-47578768D01*
X88345000Y-47106154D01*
X88345000Y-46853846D01*
X88306512Y-46660353D01*
X88435799Y-46660353D01*
X88575137Y-46853000D01*
X88635238Y-46853000D01*
X88667173Y-46930099D01*
X88844075Y-47107000D01*
X88575137Y-47107000D01*
X88435799Y-47299647D01*
X88612280Y-47747582D01*
X88946744Y-48093884D01*
X89332391Y-48273462D01*
X89523000Y-48148731D01*
X89523000Y-47107000D01*
X89462650Y-47107000D01*
X89523000Y-47046650D01*
X89523000Y-45811269D01*
X89777000Y-45811269D01*
X89777000Y-47046650D01*
X89837350Y-47107000D01*
X89777000Y-47107000D01*
X89777000Y-48148731D01*
X89967609Y-48273462D01*
X90353256Y-48093884D01*
X90687720Y-47747582D01*
X90864201Y-47299647D01*
X90724863Y-47107000D01*
X90455925Y-47107000D01*
X90632827Y-46930099D01*
X90664762Y-46853000D01*
X90724863Y-46853000D01*
X90864201Y-46660353D01*
X90729500Y-46318462D01*
X90729500Y-46017950D01*
X90570750Y-45859200D01*
X90338404Y-45859200D01*
X89967609Y-45686538D01*
X89777000Y-45811269D01*
X89523000Y-45811269D01*
X89332391Y-45686538D01*
X88961596Y-45859200D01*
X88729250Y-45859200D01*
X88570500Y-46017950D01*
X88570500Y-46318462D01*
X88435799Y-46660353D01*
X88306512Y-46660353D01*
X88250991Y-46381232D01*
X88201940Y-46307822D01*
X88201940Y-45135000D01*
X88570500Y-45135000D01*
X88570500Y-45446450D01*
M02*
