G04 #@! TF.FileFunction,Soldermask,Bot*
%FSLAX46Y46*%
G04 Gerber Fmt 4.6, Leading zero omitted, Abs format (unit mm)*
G04 Created by KiCad (PCBNEW 4.0.0-rc1-stable) date Tue 06 Oct 2015 13:37:23 BST*
%MOMM*%
G01*
G04 APERTURE LIST*
%ADD10C,0.100000*%
%ADD11R,2.000000X2.000000*%
%ADD12O,2.200000X2.200000*%
%ADD13R,2.000000X1.727200*%
%ADD14O,2.000000X1.750000*%
%ADD15C,1.350000*%
%ADD16C,2.000000*%
%ADD17O,1.600000X2.500000*%
%ADD18C,1.524000*%
%ADD19C,2.500000*%
%ADD20C,0.965200*%
%ADD21C,1.778000*%
%ADD22C,6.200000*%
%ADD23R,2.032000X2.032000*%
%ADD24O,2.032000X2.032000*%
G04 APERTURE END LIST*
D10*
D11*
X135000000Y-74500000D03*
D12*
X135000000Y-77040000D03*
D13*
X138000000Y-55500000D03*
D14*
X138000000Y-58040000D03*
X138000000Y-60580000D03*
X138000000Y-63120000D03*
X138000000Y-65660000D03*
X138000000Y-68200000D03*
D15*
X125000000Y-67500000D03*
X122460000Y-67500000D03*
X125000000Y-64960000D03*
X122460000Y-64960000D03*
X125000000Y-62420000D03*
X122460000Y-62420000D03*
D16*
X128500000Y-67500000D03*
X128500000Y-64960000D03*
X128500000Y-62420000D03*
D17*
X117500000Y-61000000D03*
X114960000Y-61000000D03*
X112420000Y-61000000D03*
X109880000Y-61000000D03*
X107340000Y-61000000D03*
X104800000Y-61000000D03*
X102260000Y-61000000D03*
X99720000Y-61000000D03*
X97180000Y-61000000D03*
X94640000Y-61000000D03*
X92100000Y-61000000D03*
X89560000Y-61000000D03*
X87020000Y-61000000D03*
X84480000Y-61000000D03*
X84480000Y-68620000D03*
X87020000Y-68620000D03*
X89560000Y-68620000D03*
X92100000Y-68620000D03*
X94640000Y-68620000D03*
X97180000Y-68620000D03*
X99720000Y-68620000D03*
X102260000Y-68620000D03*
X104800000Y-68620000D03*
X107340000Y-68620000D03*
X109880000Y-68620000D03*
X112420000Y-68620000D03*
X114960000Y-68620000D03*
X117500000Y-68620000D03*
D18*
X117500000Y-71160000D03*
X114960000Y-71160000D03*
X112420000Y-71160000D03*
X109880000Y-71160000D03*
X107340000Y-71160000D03*
X104800000Y-71160000D03*
D19*
X98500000Y-74000000D03*
D20*
X112510000Y-49720000D03*
X109970000Y-49720000D03*
X115050000Y-49720000D03*
X117590000Y-49720000D03*
X127750000Y-49720000D03*
X125210000Y-49720000D03*
X120130000Y-49720000D03*
X122670000Y-49720000D03*
X130290000Y-49720000D03*
X132830000Y-49720000D03*
X107430000Y-49720000D03*
X104890000Y-49720000D03*
X97270000Y-49720000D03*
X94730000Y-49720000D03*
X99810000Y-49720000D03*
X102350000Y-49720000D03*
X92190000Y-49720000D03*
X89650000Y-49720000D03*
X84570000Y-49720000D03*
X87110000Y-49720000D03*
X87110000Y-47180000D03*
X84570000Y-47180000D03*
X89650000Y-47180000D03*
X92190000Y-47180000D03*
X102350000Y-47180000D03*
X99810000Y-47180000D03*
X94730000Y-47180000D03*
X97270000Y-47180000D03*
X104890000Y-47180000D03*
X107430000Y-47180000D03*
X132830000Y-47180000D03*
X130290000Y-47180000D03*
X122670000Y-47180000D03*
X120130000Y-47180000D03*
X125210000Y-47180000D03*
X127750000Y-47180000D03*
X117590000Y-47180000D03*
X115050000Y-47180000D03*
X109970000Y-47180000D03*
X112510000Y-47180000D03*
D21*
X85840000Y-48450000D03*
X131560000Y-48450000D03*
D22*
X137700000Y-48450000D03*
X137700000Y-97450000D03*
X79700000Y-97450000D03*
X79700000Y-48450000D03*
D23*
X116000000Y-99000000D03*
D24*
X113460000Y-99000000D03*
D23*
X130500000Y-99000000D03*
D24*
X127960000Y-99000000D03*
M02*
