M48
;DRILL file {KiCad 4.0.2+e4-6225~38~ubuntu14.04.1-stable} date Thu 07 Jul 2016 12:50:47 BST
;FORMAT={-:-/ absolute / metric / decimal}
FMAT,2
METRIC,TZ
T1C0.600
T2C0.800
T3C0.965
T4C1.000
T5C1.016
T6C1.778
T7C2.750
%
G90
G05
M71
T1
X93.Y-71.3
X93.4Y-69.05
X95.8Y-73.25
X96.8Y-67.05
X99.4Y-80.45
X99.6Y-84.25
X101.6Y-81.65
X101.8Y-74.65
X102.Y-72.85
X102.6Y-78.85
X102.8Y-71.85
X103.4Y-73.25
X105.8Y-67.25
X106.2Y-82.65
X107.6Y-63.85
X108.6Y-65.25
X108.6Y-68.25
X109.6Y-76.05
X111.Y-77.65
X111.6Y-56.85
X112.4Y-61.45
X112.4Y-82.45
X112.4Y-85.05
X112.4Y-87.85
X112.4Y-90.25
X112.4Y-92.85
X112.4Y-95.45
X113.Y-55.25
X113.6Y-65.65
X115.Y-65.45
X118.6Y-63.25
X118.6Y-65.25
X121.8Y-58.45
X122.Y-61.85
X122.8Y-59.65
T2
X83.6Y-73.05
X88.4Y-66.45
X95.6Y-87.25
X100.4Y-58.85
X102.Y-97.65
X104.6Y-74.45
X106.2Y-65.05
X107.4Y-67.25
X110.Y-59.25
X113.4Y-97.45
X114.4Y-59.65
X115.4Y-62.65
X116.6Y-70.65
X117.35Y-58.25
X117.35Y-60.25
X117.35Y-62.25
X117.35Y-64.25
X117.35Y-66.25
X117.35Y-68.25
X117.6Y-80.25
X117.6Y-83.45
X118.2Y-56.45
X118.6Y-67.25
X119.85Y-58.25
X119.85Y-60.25
X119.85Y-62.25
X119.85Y-64.25
X119.85Y-66.25
X119.85Y-68.25
X121.Y-78.05
X125.4Y-70.85
X130.4Y-76.65
T3
X84.57Y-47.18
X84.57Y-49.72
X87.11Y-47.18
X87.11Y-49.72
X89.65Y-47.18
X89.65Y-49.72
X92.19Y-47.18
X92.19Y-49.72
X94.73Y-47.18
X94.73Y-49.72
X97.27Y-47.18
X97.27Y-49.72
X99.81Y-47.18
X99.81Y-49.72
X102.35Y-47.18
X102.35Y-49.72
X104.89Y-47.18
X104.89Y-49.72
X107.43Y-47.18
X107.43Y-49.72
X109.97Y-47.18
X109.97Y-49.72
X112.51Y-47.18
X112.51Y-49.72
X115.05Y-47.18
X115.05Y-49.72
X117.59Y-47.18
X117.59Y-49.72
X120.13Y-47.18
X120.13Y-49.72
X122.67Y-47.18
X122.67Y-49.72
X125.21Y-47.18
X125.21Y-49.72
X127.75Y-47.18
X127.75Y-49.72
X130.29Y-47.18
X130.29Y-49.72
X132.83Y-47.18
X132.83Y-49.72
T4
X79.Y-56.05
X79.Y-58.59
X79.Y-61.13
X81.54Y-56.05
X81.54Y-58.59
X81.54Y-61.13
X104.88Y-81.47
X104.88Y-84.01
X104.88Y-86.55
X104.88Y-89.09
X104.88Y-91.63
X104.88Y-94.17
X104.88Y-96.71
X107.42Y-81.47
X107.42Y-84.01
X107.42Y-86.55
X107.42Y-89.09
X107.42Y-91.63
X107.42Y-94.17
X107.42Y-96.71
X109.96Y-81.47
X109.96Y-84.01
X109.96Y-86.55
X109.96Y-89.09
X109.96Y-91.63
X109.96Y-94.17
X109.96Y-96.71
X135.8Y-73.91
X135.8Y-78.99
T5
X82.8Y-85.05
X115.86Y-99.25
X118.4Y-99.25
X127.06Y-99.25
X129.6Y-99.25
X138.4Y-55.65
X138.4Y-58.19
X138.4Y-60.73
X138.4Y-63.27
X138.4Y-65.81
X138.4Y-68.35
T6
X85.84Y-48.45
X131.56Y-48.45
T7
X79.7Y-48.45
X79.7Y-97.45
X137.7Y-48.45
X137.7Y-97.45
T0
M30
