G04 #@! TF.FileFunction,Copper,L2,Bot,Signal*
%FSLAX46Y46*%
G04 Gerber Fmt 4.6, Leading zero omitted, Abs format (unit mm)*
G04 Created by KiCad (PCBNEW 4.0.2-4+6225~38~ubuntu14.04.1-stable) date Fri 06 May 2016 01:00:32 BST*
%MOMM*%
G01*
G04 APERTURE LIST*
%ADD10C,0.100000*%
%ADD11C,0.200000*%
%ADD12C,1.750000*%
%ADD13R,2.000000X2.000000*%
%ADD14O,2.200000X2.200000*%
%ADD15R,2.000000X1.727200*%
%ADD16O,2.000000X1.750000*%
%ADD17C,2.000000*%
%ADD18O,1.600000X2.500000*%
%ADD19C,1.524000*%
%ADD20C,2.500000*%
%ADD21R,2.032000X2.032000*%
%ADD22O,2.032000X2.032000*%
%ADD23C,1.200000*%
%ADD24C,0.300000*%
%ADD25C,0.254000*%
G04 APERTURE END LIST*
D10*
D11*
X97113691Y-55352381D02*
X96988691Y-54352381D01*
X97107738Y-55304762D02*
X97208929Y-55352381D01*
X97399406Y-55352381D01*
X97488691Y-55304762D01*
X97530358Y-55257143D01*
X97566072Y-55161905D01*
X97530358Y-54876190D01*
X97470834Y-54780952D01*
X97417263Y-54733333D01*
X97316072Y-54685714D01*
X97125595Y-54685714D01*
X97036310Y-54733333D01*
X96250595Y-55304762D02*
X96351786Y-55352381D01*
X96542263Y-55352381D01*
X96631548Y-55304762D01*
X96667262Y-55209524D01*
X96619643Y-54828571D01*
X96560120Y-54733333D01*
X96458929Y-54685714D01*
X96268452Y-54685714D01*
X96179167Y-54733333D01*
X96143452Y-54828571D01*
X96155357Y-54923810D01*
X96643453Y-55019048D01*
X95839881Y-54685714D02*
X95458929Y-54685714D01*
X95780358Y-55352381D02*
X95673215Y-54495238D01*
X95613691Y-54400000D01*
X95512501Y-54352381D01*
X95417263Y-54352381D01*
X95125595Y-54685714D02*
X95250595Y-55685714D01*
X95131548Y-54733333D02*
X95030357Y-54685714D01*
X94839880Y-54685714D01*
X94750595Y-54733333D01*
X94708928Y-54780952D01*
X94673214Y-54876190D01*
X94708928Y-55161905D01*
X94768452Y-55257143D01*
X94822023Y-55304762D01*
X94923214Y-55352381D01*
X95113691Y-55352381D01*
X95202976Y-55304762D01*
X94304167Y-55352381D02*
X94220833Y-54685714D01*
X94244643Y-54876190D02*
X94185119Y-54780952D01*
X94131548Y-54733333D01*
X94030357Y-54685714D01*
X93935118Y-54685714D01*
X93542262Y-55352381D02*
X93631547Y-55304762D01*
X93673214Y-55257143D01*
X93708928Y-55161905D01*
X93673214Y-54876190D01*
X93613690Y-54780952D01*
X93560119Y-54733333D01*
X93458928Y-54685714D01*
X93316070Y-54685714D01*
X93226785Y-54733333D01*
X93185118Y-54780952D01*
X93149404Y-54876190D01*
X93185118Y-55161905D01*
X93244642Y-55257143D01*
X93298213Y-55304762D01*
X93399404Y-55352381D01*
X93542262Y-55352381D01*
X92345832Y-55304762D02*
X92447023Y-55352381D01*
X92637500Y-55352381D01*
X92726785Y-55304762D01*
X92768452Y-55257143D01*
X92804166Y-55161905D01*
X92768452Y-54876190D01*
X92708928Y-54780952D01*
X92655357Y-54733333D01*
X92554166Y-54685714D01*
X92363689Y-54685714D01*
X92274404Y-54733333D01*
X91911309Y-55257143D02*
X91869642Y-55304762D01*
X91923214Y-55352381D01*
X91964880Y-55304762D01*
X91911309Y-55257143D01*
X91923214Y-55352381D01*
X91012499Y-55304762D02*
X91113690Y-55352381D01*
X91304167Y-55352381D01*
X91393452Y-55304762D01*
X91435119Y-55257143D01*
X91470833Y-55161905D01*
X91435119Y-54876190D01*
X91375595Y-54780952D01*
X91322024Y-54733333D01*
X91220833Y-54685714D01*
X91030356Y-54685714D01*
X90941071Y-54733333D01*
X90447024Y-55352381D02*
X90536309Y-55304762D01*
X90577976Y-55257143D01*
X90613690Y-55161905D01*
X90577976Y-54876190D01*
X90518452Y-54780952D01*
X90464881Y-54733333D01*
X90363690Y-54685714D01*
X90220832Y-54685714D01*
X90131547Y-54733333D01*
X90089880Y-54780952D01*
X90054166Y-54876190D01*
X90089880Y-55161905D01*
X90149404Y-55257143D01*
X90202975Y-55304762D01*
X90304166Y-55352381D01*
X90447024Y-55352381D01*
X89673214Y-55257143D02*
X89631547Y-55304762D01*
X89685119Y-55352381D01*
X89726785Y-55304762D01*
X89673214Y-55257143D01*
X89685119Y-55352381D01*
X88697023Y-54685714D02*
X88780357Y-55352381D01*
X89125595Y-54685714D02*
X89191071Y-55209524D01*
X89155357Y-55304762D01*
X89066072Y-55352381D01*
X88923214Y-55352381D01*
X88822023Y-55304762D01*
X88768452Y-55257143D01*
X88304167Y-55352381D02*
X88179167Y-54352381D01*
X88161310Y-54971429D02*
X87923214Y-55352381D01*
X87839880Y-54685714D02*
X88268452Y-55066667D01*
D12*
X125000000Y-67500000D03*
X122460000Y-67500000D03*
X125000000Y-64960000D03*
X122460000Y-64960000D03*
X125000000Y-62420000D03*
X122460000Y-62420000D03*
D13*
X135000000Y-74500000D03*
D14*
X135000000Y-77040000D03*
D15*
X138000000Y-55500000D03*
D16*
X138000000Y-58040000D03*
X138000000Y-60580000D03*
X138000000Y-63120000D03*
X138000000Y-65660000D03*
X138000000Y-68200000D03*
D17*
X128500000Y-67500000D03*
X128500000Y-64960000D03*
X128500000Y-62420000D03*
D18*
X117500000Y-61000000D03*
X114960000Y-61000000D03*
X112420000Y-61000000D03*
X109880000Y-61000000D03*
X107340000Y-61000000D03*
X104800000Y-61000000D03*
X102260000Y-61000000D03*
X99720000Y-61000000D03*
X97180000Y-61000000D03*
X94640000Y-61000000D03*
X92100000Y-61000000D03*
X89560000Y-61000000D03*
X87020000Y-61000000D03*
X84480000Y-61000000D03*
X84480000Y-68620000D03*
X87020000Y-68620000D03*
X89560000Y-68620000D03*
X92100000Y-68620000D03*
X94640000Y-68620000D03*
X97180000Y-68620000D03*
X99720000Y-68620000D03*
X102260000Y-68620000D03*
X104800000Y-68620000D03*
X107340000Y-68620000D03*
X109880000Y-68620000D03*
X112420000Y-68620000D03*
X114960000Y-68620000D03*
X117500000Y-68620000D03*
D19*
X117500000Y-71160000D03*
X114960000Y-71160000D03*
X112420000Y-71160000D03*
X109880000Y-71160000D03*
X107340000Y-71160000D03*
X104800000Y-71160000D03*
D20*
X98500000Y-74000000D03*
D21*
X116000000Y-99000000D03*
D22*
X113460000Y-99000000D03*
D21*
X130500000Y-99000000D03*
D22*
X127960000Y-99000000D03*
D23*
X135700000Y-83150000D03*
X131650000Y-58000000D03*
X125000000Y-93850000D03*
X137600000Y-89850000D03*
X88350000Y-48500000D03*
X116850000Y-56850000D03*
X82650000Y-88750000D03*
X103450000Y-89950000D03*
X134600000Y-59400000D03*
X130600000Y-59850000D03*
X131000000Y-64850000D03*
X104700000Y-85200000D03*
X93450000Y-47600000D03*
X121700000Y-59000000D03*
X118500000Y-59000000D03*
X90900000Y-47950000D03*
X108600000Y-52850000D03*
X116200000Y-52850000D03*
X122600000Y-55850000D03*
X127200000Y-58850000D03*
X120100000Y-59000000D03*
X120100000Y-53000000D03*
D24*
X140248453Y-54248453D02*
X139108511Y-53108511D01*
X135700000Y-83150000D02*
X140200000Y-79250000D01*
X140200000Y-79250000D02*
X140248453Y-54248453D01*
X131650000Y-57450000D02*
X131650000Y-58000000D01*
X133051555Y-53173639D02*
X131650000Y-54400000D01*
X131650000Y-54400000D02*
X131650000Y-57450000D01*
X139108511Y-53108511D02*
X133051555Y-53173639D01*
X99720000Y-61000000D02*
X99720000Y-57270000D01*
X100140000Y-56850000D02*
X116850000Y-56850000D01*
X99720000Y-57270000D02*
X100140000Y-56850000D01*
X102260000Y-68620000D02*
X102260000Y-85540000D01*
X99050000Y-88750000D02*
X82650000Y-88750000D01*
X102260000Y-85540000D02*
X99050000Y-88750000D01*
X102260000Y-68620000D02*
X102260000Y-89140000D01*
X102260000Y-89140000D02*
X103450000Y-89950000D01*
X138000000Y-60580000D02*
X137280000Y-60580000D01*
X137280000Y-60580000D02*
X136100000Y-59400000D01*
X136100000Y-59400000D02*
X134600000Y-59400000D01*
X128500000Y-67500000D02*
X130750000Y-67500000D01*
X132200000Y-61450000D02*
X130600000Y-59850000D01*
X132200000Y-66050000D02*
X132200000Y-61450000D01*
X130750000Y-67500000D02*
X132200000Y-66050000D01*
D11*
X121700000Y-61000000D02*
X122282178Y-60417822D01*
X122282178Y-60417822D02*
X129132911Y-60486330D01*
X131000000Y-61980001D02*
X131000000Y-64850000D01*
X129132911Y-60486330D02*
X131000000Y-61980001D01*
X121700000Y-61000000D02*
X117500000Y-61000000D01*
X125000000Y-64960000D02*
X124960000Y-64960000D01*
X124960000Y-64960000D02*
X123750000Y-63750000D01*
X123750000Y-63750000D02*
X113500000Y-63750000D01*
X113500000Y-63750000D02*
X112420000Y-62670000D01*
X112420000Y-62670000D02*
X112420000Y-61000000D01*
X109880000Y-64520000D02*
X109880000Y-61000000D01*
X111150000Y-66000000D02*
X109880000Y-64520000D01*
X111150000Y-81300000D02*
X111150000Y-66000000D01*
X104700000Y-85200000D02*
X111150000Y-81300000D01*
X104800000Y-68620000D02*
X104800000Y-71160000D01*
X107340000Y-68620000D02*
X107340000Y-71160000D01*
X109880000Y-68620000D02*
X109880000Y-71160000D01*
X112420000Y-68620000D02*
X112420000Y-71160000D01*
X114960000Y-68620000D02*
X114960000Y-71160000D01*
X117500000Y-68620000D02*
X117500000Y-71160000D01*
X93450000Y-47600000D02*
X94300000Y-48200000D01*
X94300000Y-48200000D02*
X120500000Y-48200000D01*
X121400000Y-49100000D02*
X121400000Y-58250000D01*
X121400000Y-58250000D02*
X121700000Y-59000000D01*
X120500000Y-48200000D02*
X121400000Y-49100000D01*
X90900000Y-47950000D02*
X91000000Y-47950000D01*
X118450000Y-58950000D02*
X118500000Y-59000000D01*
X118800000Y-49200000D02*
X118800000Y-58250000D01*
X118800000Y-58250000D02*
X118450000Y-58950000D01*
X118300000Y-48700000D02*
X118800000Y-49200000D01*
X91700000Y-48700000D02*
X118300000Y-48700000D01*
X91000000Y-47950000D02*
X91700000Y-48700000D01*
X90900000Y-47950000D02*
X90800000Y-47950000D01*
D24*
X108600000Y-52850000D02*
X116200000Y-52850000D01*
X122600000Y-55850000D02*
X124000000Y-57250000D01*
X124000000Y-57250000D02*
X125600000Y-57250000D01*
X125600000Y-57250000D02*
X127200000Y-58850000D01*
D11*
X138000000Y-65660000D02*
X136840000Y-65660000D01*
X125000000Y-69500000D02*
X125000000Y-67500000D01*
X125500000Y-70000000D02*
X125000000Y-69500000D01*
X132500000Y-70000000D02*
X125500000Y-70000000D01*
X136840000Y-65660000D02*
X132500000Y-70000000D01*
X120100000Y-53000000D02*
X120100000Y-59000000D01*
D25*
G36*
X134178127Y-45734186D02*
X134323000Y-46462509D01*
X134323000Y-49421573D01*
X134325440Y-49446349D01*
X134477681Y-50211716D01*
X134496644Y-50257497D01*
X134930189Y-50906343D01*
X134945983Y-50925589D01*
X135324411Y-51304017D01*
X135336901Y-51314970D01*
X135751114Y-51632807D01*
X135779826Y-51649384D01*
X136262188Y-51849185D01*
X136294212Y-51857766D01*
X136811850Y-51925914D01*
X136828427Y-51927000D01*
X139187491Y-51927000D01*
X139915814Y-52071873D01*
X140515000Y-52472235D01*
X140515000Y-53404842D01*
X139663590Y-52553432D01*
X139660016Y-52551044D01*
X139657590Y-52547496D01*
X139532827Y-52466059D01*
X139408918Y-52383266D01*
X139404701Y-52382427D01*
X139401102Y-52380078D01*
X139254646Y-52352579D01*
X139108511Y-52323511D01*
X139104296Y-52324349D01*
X139100071Y-52323556D01*
X133043115Y-52388684D01*
X132922384Y-52414052D01*
X132800056Y-52430018D01*
X132773433Y-52445349D01*
X132743369Y-52451666D01*
X132641540Y-52521301D01*
X132534629Y-52582866D01*
X131133074Y-53809227D01*
X131116934Y-53830212D01*
X131094921Y-53844921D01*
X131024081Y-53950941D01*
X130946344Y-54052016D01*
X130939463Y-54077582D01*
X130924755Y-54099594D01*
X130899880Y-54224647D01*
X130866738Y-54347783D01*
X130870165Y-54374036D01*
X130865000Y-54400000D01*
X130865000Y-57038600D01*
X130603629Y-57299515D01*
X130415215Y-57753266D01*
X130414786Y-58244579D01*
X130567830Y-58614971D01*
X130355421Y-58614786D01*
X129901343Y-58802408D01*
X129553629Y-59149515D01*
X129365215Y-59603266D01*
X129365048Y-59794670D01*
X129337474Y-59780371D01*
X129237993Y-59771825D01*
X129140261Y-59751367D01*
X128055999Y-59740524D01*
X128246371Y-59550485D01*
X128434785Y-59096734D01*
X128435214Y-58605421D01*
X128247592Y-58151343D01*
X127900485Y-57803629D01*
X127446734Y-57615215D01*
X127075048Y-57614890D01*
X126155079Y-56694921D01*
X125900407Y-56524755D01*
X125600000Y-56465000D01*
X124325158Y-56465000D01*
X123834892Y-55974734D01*
X123835214Y-55605421D01*
X123647592Y-55151343D01*
X123300485Y-54803629D01*
X122846734Y-54615215D01*
X122355421Y-54614786D01*
X122135000Y-54705862D01*
X122135000Y-50707968D01*
X122446720Y-50837406D01*
X122891329Y-50837793D01*
X123302242Y-50668008D01*
X123616903Y-50353896D01*
X123787406Y-49943280D01*
X123787407Y-49941329D01*
X124092207Y-49941329D01*
X124261992Y-50352242D01*
X124576104Y-50666903D01*
X124986720Y-50837406D01*
X125431329Y-50837793D01*
X125842242Y-50668008D01*
X126156903Y-50353896D01*
X126327406Y-49943280D01*
X126327407Y-49941329D01*
X126632207Y-49941329D01*
X126801992Y-50352242D01*
X127116104Y-50666903D01*
X127526720Y-50837406D01*
X127971329Y-50837793D01*
X128382242Y-50668008D01*
X128696903Y-50353896D01*
X128867406Y-49943280D01*
X128867793Y-49498671D01*
X128698008Y-49087758D01*
X128383896Y-48773097D01*
X127973280Y-48602594D01*
X127528671Y-48602207D01*
X127117758Y-48771992D01*
X126803097Y-49086104D01*
X126632594Y-49496720D01*
X126632207Y-49941329D01*
X126327407Y-49941329D01*
X126327793Y-49498671D01*
X126158008Y-49087758D01*
X125843896Y-48773097D01*
X125433280Y-48602594D01*
X124988671Y-48602207D01*
X124577758Y-48771992D01*
X124263097Y-49086104D01*
X124092594Y-49496720D01*
X124092207Y-49941329D01*
X123787407Y-49941329D01*
X123787793Y-49498671D01*
X123618008Y-49087758D01*
X123303896Y-48773097D01*
X122893280Y-48602594D01*
X122448671Y-48602207D01*
X122045645Y-48768733D01*
X121919723Y-48580276D01*
X121099331Y-47759884D01*
X121247406Y-47403280D01*
X121247407Y-47401329D01*
X121552207Y-47401329D01*
X121721992Y-47812242D01*
X122036104Y-48126903D01*
X122446720Y-48297406D01*
X122891329Y-48297793D01*
X123302242Y-48128008D01*
X123616903Y-47813896D01*
X123787406Y-47403280D01*
X123787407Y-47401329D01*
X124092207Y-47401329D01*
X124261992Y-47812242D01*
X124576104Y-48126903D01*
X124986720Y-48297406D01*
X125431329Y-48297793D01*
X125842242Y-48128008D01*
X126156903Y-47813896D01*
X126327406Y-47403280D01*
X126327407Y-47401329D01*
X126632207Y-47401329D01*
X126801992Y-47812242D01*
X127116104Y-48126903D01*
X127526720Y-48297406D01*
X127971329Y-48297793D01*
X128382242Y-48128008D01*
X128696903Y-47813896D01*
X128867406Y-47403280D01*
X128867407Y-47401329D01*
X129172207Y-47401329D01*
X129341992Y-47812242D01*
X129656104Y-48126903D01*
X130036144Y-48284710D01*
X130035855Y-48615766D01*
X129657758Y-48771992D01*
X129343097Y-49086104D01*
X129172594Y-49496720D01*
X129172207Y-49941329D01*
X129341992Y-50352242D01*
X129656104Y-50666903D01*
X130066720Y-50837406D01*
X130511329Y-50837793D01*
X130922242Y-50668008D01*
X131236903Y-50353896D01*
X131394710Y-49973856D01*
X131725766Y-49974145D01*
X131881992Y-50352242D01*
X132196104Y-50666903D01*
X132606720Y-50837406D01*
X133051329Y-50837793D01*
X133462242Y-50668008D01*
X133776903Y-50353896D01*
X133947406Y-49943280D01*
X133947793Y-49498671D01*
X133778008Y-49087758D01*
X133463896Y-48773097D01*
X133083856Y-48615290D01*
X133084145Y-48284234D01*
X133462242Y-48128008D01*
X133776903Y-47813896D01*
X133947406Y-47403280D01*
X133947793Y-46958671D01*
X133778008Y-46547758D01*
X133463896Y-46233097D01*
X133053280Y-46062594D01*
X132608671Y-46062207D01*
X132197758Y-46231992D01*
X131883097Y-46546104D01*
X131725290Y-46926144D01*
X131394234Y-46925855D01*
X131238008Y-46547758D01*
X130923896Y-46233097D01*
X130513280Y-46062594D01*
X130068671Y-46062207D01*
X129657758Y-46231992D01*
X129343097Y-46546104D01*
X129172594Y-46956720D01*
X129172207Y-47401329D01*
X128867407Y-47401329D01*
X128867793Y-46958671D01*
X128698008Y-46547758D01*
X128383896Y-46233097D01*
X127973280Y-46062594D01*
X127528671Y-46062207D01*
X127117758Y-46231992D01*
X126803097Y-46546104D01*
X126632594Y-46956720D01*
X126632207Y-47401329D01*
X126327407Y-47401329D01*
X126327793Y-46958671D01*
X126158008Y-46547758D01*
X125843896Y-46233097D01*
X125433280Y-46062594D01*
X124988671Y-46062207D01*
X124577758Y-46231992D01*
X124263097Y-46546104D01*
X124092594Y-46956720D01*
X124092207Y-47401329D01*
X123787407Y-47401329D01*
X123787793Y-46958671D01*
X123618008Y-46547758D01*
X123303896Y-46233097D01*
X122893280Y-46062594D01*
X122448671Y-46062207D01*
X122037758Y-46231992D01*
X121723097Y-46546104D01*
X121552594Y-46956720D01*
X121552207Y-47401329D01*
X121247407Y-47401329D01*
X121247793Y-46958671D01*
X121078008Y-46547758D01*
X120763896Y-46233097D01*
X120353280Y-46062594D01*
X119908671Y-46062207D01*
X119497758Y-46231992D01*
X119183097Y-46546104D01*
X119012594Y-46956720D01*
X119012207Y-47401329D01*
X119038515Y-47465000D01*
X118681778Y-47465000D01*
X118707406Y-47403280D01*
X118707793Y-46958671D01*
X118538008Y-46547758D01*
X118223896Y-46233097D01*
X117813280Y-46062594D01*
X117368671Y-46062207D01*
X116957758Y-46231992D01*
X116643097Y-46546104D01*
X116472594Y-46956720D01*
X116472207Y-47401329D01*
X116498515Y-47465000D01*
X116141778Y-47465000D01*
X116167406Y-47403280D01*
X116167793Y-46958671D01*
X115998008Y-46547758D01*
X115683896Y-46233097D01*
X115273280Y-46062594D01*
X114828671Y-46062207D01*
X114417758Y-46231992D01*
X114103097Y-46546104D01*
X113932594Y-46956720D01*
X113932207Y-47401329D01*
X113958515Y-47465000D01*
X113601778Y-47465000D01*
X113627406Y-47403280D01*
X113627793Y-46958671D01*
X113458008Y-46547758D01*
X113143896Y-46233097D01*
X112733280Y-46062594D01*
X112288671Y-46062207D01*
X111877758Y-46231992D01*
X111563097Y-46546104D01*
X111392594Y-46956720D01*
X111392207Y-47401329D01*
X111418515Y-47465000D01*
X111061778Y-47465000D01*
X111087406Y-47403280D01*
X111087793Y-46958671D01*
X110918008Y-46547758D01*
X110603896Y-46233097D01*
X110193280Y-46062594D01*
X109748671Y-46062207D01*
X109337758Y-46231992D01*
X109023097Y-46546104D01*
X108852594Y-46956720D01*
X108852207Y-47401329D01*
X108878515Y-47465000D01*
X108521778Y-47465000D01*
X108547406Y-47403280D01*
X108547793Y-46958671D01*
X108378008Y-46547758D01*
X108063896Y-46233097D01*
X107653280Y-46062594D01*
X107208671Y-46062207D01*
X106797758Y-46231992D01*
X106483097Y-46546104D01*
X106312594Y-46956720D01*
X106312207Y-47401329D01*
X106338515Y-47465000D01*
X105981778Y-47465000D01*
X106007406Y-47403280D01*
X106007793Y-46958671D01*
X105838008Y-46547758D01*
X105523896Y-46233097D01*
X105113280Y-46062594D01*
X104668671Y-46062207D01*
X104257758Y-46231992D01*
X103943097Y-46546104D01*
X103772594Y-46956720D01*
X103772207Y-47401329D01*
X103798515Y-47465000D01*
X103441778Y-47465000D01*
X103467406Y-47403280D01*
X103467793Y-46958671D01*
X103298008Y-46547758D01*
X102983896Y-46233097D01*
X102573280Y-46062594D01*
X102128671Y-46062207D01*
X101717758Y-46231992D01*
X101403097Y-46546104D01*
X101232594Y-46956720D01*
X101232207Y-47401329D01*
X101258515Y-47465000D01*
X100901778Y-47465000D01*
X100927406Y-47403280D01*
X100927793Y-46958671D01*
X100758008Y-46547758D01*
X100443896Y-46233097D01*
X100033280Y-46062594D01*
X99588671Y-46062207D01*
X99177758Y-46231992D01*
X98863097Y-46546104D01*
X98692594Y-46956720D01*
X98692207Y-47401329D01*
X98718515Y-47465000D01*
X98361778Y-47465000D01*
X98387406Y-47403280D01*
X98387793Y-46958671D01*
X98218008Y-46547758D01*
X97903896Y-46233097D01*
X97493280Y-46062594D01*
X97048671Y-46062207D01*
X96637758Y-46231992D01*
X96323097Y-46546104D01*
X96152594Y-46956720D01*
X96152207Y-47401329D01*
X96178515Y-47465000D01*
X95821778Y-47465000D01*
X95847406Y-47403280D01*
X95847793Y-46958671D01*
X95678008Y-46547758D01*
X95363896Y-46233097D01*
X94953280Y-46062594D01*
X94508671Y-46062207D01*
X94097758Y-46231992D01*
X93885700Y-46443680D01*
X93696734Y-46365215D01*
X93205421Y-46364786D01*
X93028380Y-46437938D01*
X92823896Y-46233097D01*
X92413280Y-46062594D01*
X91968671Y-46062207D01*
X91557758Y-46231992D01*
X91243097Y-46546104D01*
X91169031Y-46724474D01*
X91146734Y-46715215D01*
X90667026Y-46714796D01*
X90598008Y-46547758D01*
X90283896Y-46233097D01*
X89873280Y-46062594D01*
X89428671Y-46062207D01*
X89017758Y-46231992D01*
X88703097Y-46546104D01*
X88532594Y-46956720D01*
X88532207Y-47401329D01*
X88701992Y-47812242D01*
X89016104Y-48126903D01*
X89426720Y-48297406D01*
X89707374Y-48297650D01*
X89833361Y-48602559D01*
X89428671Y-48602207D01*
X89017758Y-48771992D01*
X88703097Y-49086104D01*
X88532594Y-49496720D01*
X88532207Y-49941329D01*
X88701992Y-50352242D01*
X89016104Y-50666903D01*
X89426720Y-50837406D01*
X89871329Y-50837793D01*
X90282242Y-50668008D01*
X90596903Y-50353896D01*
X90767406Y-49943280D01*
X90767793Y-49498671D01*
X90634957Y-49177183D01*
X90653266Y-49184785D01*
X91144579Y-49185214D01*
X91146665Y-49184352D01*
X91162674Y-49201504D01*
X91173127Y-49209022D01*
X91180277Y-49219723D01*
X91186020Y-49223560D01*
X91072594Y-49496720D01*
X91072207Y-49941329D01*
X91241992Y-50352242D01*
X91556104Y-50666903D01*
X91966720Y-50837406D01*
X92411329Y-50837793D01*
X92822242Y-50668008D01*
X93136903Y-50353896D01*
X93307406Y-49943280D01*
X93307793Y-49498671D01*
X93281485Y-49435000D01*
X93638222Y-49435000D01*
X93612594Y-49496720D01*
X93612207Y-49941329D01*
X93781992Y-50352242D01*
X94096104Y-50666903D01*
X94506720Y-50837406D01*
X94951329Y-50837793D01*
X95362242Y-50668008D01*
X95676903Y-50353896D01*
X95847406Y-49943280D01*
X95847793Y-49498671D01*
X95821485Y-49435000D01*
X96178222Y-49435000D01*
X96152594Y-49496720D01*
X96152207Y-49941329D01*
X96321992Y-50352242D01*
X96636104Y-50666903D01*
X97046720Y-50837406D01*
X97491329Y-50837793D01*
X97902242Y-50668008D01*
X98216903Y-50353896D01*
X98387406Y-49943280D01*
X98387793Y-49498671D01*
X98361485Y-49435000D01*
X98718222Y-49435000D01*
X98692594Y-49496720D01*
X98692207Y-49941329D01*
X98861992Y-50352242D01*
X99176104Y-50666903D01*
X99586720Y-50837406D01*
X100031329Y-50837793D01*
X100442242Y-50668008D01*
X100756903Y-50353896D01*
X100927406Y-49943280D01*
X100927793Y-49498671D01*
X100901485Y-49435000D01*
X101258222Y-49435000D01*
X101232594Y-49496720D01*
X101232207Y-49941329D01*
X101401992Y-50352242D01*
X101716104Y-50666903D01*
X102126720Y-50837406D01*
X102571329Y-50837793D01*
X102982242Y-50668008D01*
X103296903Y-50353896D01*
X103467406Y-49943280D01*
X103467793Y-49498671D01*
X103441485Y-49435000D01*
X103798222Y-49435000D01*
X103772594Y-49496720D01*
X103772207Y-49941329D01*
X103941992Y-50352242D01*
X104256104Y-50666903D01*
X104666720Y-50837406D01*
X105111329Y-50837793D01*
X105522242Y-50668008D01*
X105836903Y-50353896D01*
X106007406Y-49943280D01*
X106007793Y-49498671D01*
X105981485Y-49435000D01*
X106338222Y-49435000D01*
X106312594Y-49496720D01*
X106312207Y-49941329D01*
X106481992Y-50352242D01*
X106796104Y-50666903D01*
X107206720Y-50837406D01*
X107651329Y-50837793D01*
X108062242Y-50668008D01*
X108376903Y-50353896D01*
X108547406Y-49943280D01*
X108547793Y-49498671D01*
X108521485Y-49435000D01*
X108878222Y-49435000D01*
X108852594Y-49496720D01*
X108852207Y-49941329D01*
X109021992Y-50352242D01*
X109336104Y-50666903D01*
X109746720Y-50837406D01*
X110191329Y-50837793D01*
X110602242Y-50668008D01*
X110916903Y-50353896D01*
X111087406Y-49943280D01*
X111087793Y-49498671D01*
X111061485Y-49435000D01*
X111418222Y-49435000D01*
X111392594Y-49496720D01*
X111392207Y-49941329D01*
X111561992Y-50352242D01*
X111876104Y-50666903D01*
X112286720Y-50837406D01*
X112731329Y-50837793D01*
X113142242Y-50668008D01*
X113456903Y-50353896D01*
X113627406Y-49943280D01*
X113627793Y-49498671D01*
X113601485Y-49435000D01*
X113958222Y-49435000D01*
X113932594Y-49496720D01*
X113932207Y-49941329D01*
X114101992Y-50352242D01*
X114416104Y-50666903D01*
X114826720Y-50837406D01*
X115271329Y-50837793D01*
X115682242Y-50668008D01*
X115996903Y-50353896D01*
X116167406Y-49943280D01*
X116167793Y-49498671D01*
X116141485Y-49435000D01*
X116498222Y-49435000D01*
X116472594Y-49496720D01*
X116472207Y-49941329D01*
X116641992Y-50352242D01*
X116956104Y-50666903D01*
X117366720Y-50837406D01*
X117811329Y-50837793D01*
X118065000Y-50732979D01*
X118065000Y-57843467D01*
X117801343Y-57952408D01*
X117453629Y-58299515D01*
X117265215Y-58753266D01*
X117264891Y-59124837D01*
X116950849Y-59187304D01*
X116485302Y-59498373D01*
X116230000Y-59880459D01*
X115974698Y-59498373D01*
X115509151Y-59187304D01*
X114960000Y-59078071D01*
X114410849Y-59187304D01*
X113945302Y-59498373D01*
X113690000Y-59880459D01*
X113434698Y-59498373D01*
X112969151Y-59187304D01*
X112420000Y-59078071D01*
X111870849Y-59187304D01*
X111405302Y-59498373D01*
X111150000Y-59880459D01*
X110894698Y-59498373D01*
X110429151Y-59187304D01*
X109880000Y-59078071D01*
X109330849Y-59187304D01*
X108865302Y-59498373D01*
X108610000Y-59880459D01*
X108354698Y-59498373D01*
X107889151Y-59187304D01*
X107340000Y-59078071D01*
X106790849Y-59187304D01*
X106325302Y-59498373D01*
X106070000Y-59880459D01*
X105814698Y-59498373D01*
X105349151Y-59187304D01*
X104800000Y-59078071D01*
X104250849Y-59187304D01*
X103785302Y-59498373D01*
X103530000Y-59880459D01*
X103274698Y-59498373D01*
X102809151Y-59187304D01*
X102260000Y-59078071D01*
X101710849Y-59187304D01*
X101245302Y-59498373D01*
X100992136Y-59877262D01*
X100644896Y-59445500D01*
X100151819Y-59175633D01*
X100069039Y-59158096D01*
X99847000Y-59280085D01*
X99847000Y-60873000D01*
X99867000Y-60873000D01*
X99867000Y-61127000D01*
X99847000Y-61127000D01*
X99847000Y-62719915D01*
X100069039Y-62841904D01*
X100151819Y-62824367D01*
X100644896Y-62554500D01*
X100992136Y-62122738D01*
X101245302Y-62501627D01*
X101710849Y-62812696D01*
X102260000Y-62921929D01*
X102809151Y-62812696D01*
X103274698Y-62501627D01*
X103530000Y-62119541D01*
X103785302Y-62501627D01*
X104250849Y-62812696D01*
X104800000Y-62921929D01*
X105349151Y-62812696D01*
X105814698Y-62501627D01*
X106070000Y-62119541D01*
X106325302Y-62501627D01*
X106790849Y-62812696D01*
X107340000Y-62921929D01*
X107889151Y-62812696D01*
X108354698Y-62501627D01*
X108610000Y-62119541D01*
X108865302Y-62501627D01*
X109145000Y-62688515D01*
X109145000Y-64520000D01*
X109167614Y-64633685D01*
X109181504Y-64748751D01*
X109195417Y-64773459D01*
X109200949Y-64801272D01*
X109265344Y-64897645D01*
X109322213Y-64998642D01*
X110415000Y-66272127D01*
X110415000Y-66804489D01*
X109880000Y-66698071D01*
X109330849Y-66807304D01*
X108865302Y-67118373D01*
X108610000Y-67500459D01*
X108354698Y-67118373D01*
X107889151Y-66807304D01*
X107340000Y-66698071D01*
X106790849Y-66807304D01*
X106325302Y-67118373D01*
X106070000Y-67500459D01*
X105814698Y-67118373D01*
X105349151Y-66807304D01*
X104800000Y-66698071D01*
X104250849Y-66807304D01*
X103785302Y-67118373D01*
X103532136Y-67497262D01*
X103184896Y-67065500D01*
X102691819Y-66795633D01*
X102609039Y-66778096D01*
X102387000Y-66900085D01*
X102387000Y-68493000D01*
X102407000Y-68493000D01*
X102407000Y-68747000D01*
X102387000Y-68747000D01*
X102387000Y-70339915D01*
X102609039Y-70461904D01*
X102691819Y-70444367D01*
X103184896Y-70174500D01*
X103532136Y-69742738D01*
X103785302Y-70121627D01*
X103831728Y-70152648D01*
X103616371Y-70367630D01*
X103403243Y-70880900D01*
X103402758Y-71436661D01*
X103614990Y-71950303D01*
X104007630Y-72343629D01*
X104520900Y-72556757D01*
X105076661Y-72557242D01*
X105590303Y-72345010D01*
X105983629Y-71952370D01*
X106069949Y-71744488D01*
X106154990Y-71950303D01*
X106547630Y-72343629D01*
X107060900Y-72556757D01*
X107616661Y-72557242D01*
X108130303Y-72345010D01*
X108523629Y-71952370D01*
X108609949Y-71744488D01*
X108694990Y-71950303D01*
X109087630Y-72343629D01*
X109600900Y-72556757D01*
X110156661Y-72557242D01*
X110415000Y-72450499D01*
X110415000Y-80885505D01*
X105168997Y-84057507D01*
X104946734Y-83965215D01*
X104455421Y-83964786D01*
X104001343Y-84152408D01*
X103653629Y-84499515D01*
X103465215Y-84953266D01*
X103464786Y-85444579D01*
X103652408Y-85898657D01*
X103999515Y-86246371D01*
X104453266Y-86434785D01*
X104944579Y-86435214D01*
X105398657Y-86247592D01*
X105746371Y-85900485D01*
X105934785Y-85446734D01*
X105934902Y-85312228D01*
X111495511Y-81950000D01*
X119515000Y-81950000D01*
X119515000Y-96950000D01*
X119528162Y-97016170D01*
X119528162Y-97083636D01*
X119604282Y-97466319D01*
X119674152Y-97635000D01*
X119706563Y-97713248D01*
X119923336Y-98037672D01*
X120112328Y-98226664D01*
X120436751Y-98443437D01*
X120539032Y-98485803D01*
X120683681Y-98545718D01*
X121066364Y-98621838D01*
X121333636Y-98621838D01*
X121716319Y-98545718D01*
X121963248Y-98443437D01*
X121963249Y-98443436D01*
X122287672Y-98226664D01*
X122476664Y-98037672D01*
X122693437Y-97713249D01*
X122735803Y-97610968D01*
X122795718Y-97466319D01*
X122871838Y-97083636D01*
X122871838Y-97016170D01*
X122885000Y-96950000D01*
X122885000Y-81950000D01*
X122871838Y-81883830D01*
X122871838Y-81816364D01*
X122795718Y-81433681D01*
X122715594Y-81240243D01*
X122693437Y-81186751D01*
X122476664Y-80862328D01*
X122287672Y-80673336D01*
X121963248Y-80456563D01*
X121947403Y-80450000D01*
X121716319Y-80354282D01*
X121333636Y-80278162D01*
X121200000Y-80278162D01*
X120683681Y-80354282D01*
X120539032Y-80414197D01*
X120436751Y-80456563D01*
X120112328Y-80673336D01*
X119923336Y-80862328D01*
X119706564Y-81186751D01*
X119706563Y-81186752D01*
X119604282Y-81433681D01*
X119528162Y-81816364D01*
X119528162Y-81883830D01*
X119515000Y-81950000D01*
X111495511Y-81950000D01*
X111530303Y-81928963D01*
X111595880Y-81869063D01*
X111669723Y-81819723D01*
X111700776Y-81773249D01*
X111742048Y-81735550D01*
X111779711Y-81655115D01*
X111829051Y-81581272D01*
X111839956Y-81526452D01*
X111863659Y-81475829D01*
X111867673Y-81387107D01*
X111885000Y-81300000D01*
X111885000Y-77040000D01*
X133231009Y-77040000D01*
X133363078Y-77703956D01*
X133739179Y-78266830D01*
X134302053Y-78642931D01*
X134966009Y-78775000D01*
X135033991Y-78775000D01*
X135697947Y-78642931D01*
X136260821Y-78266830D01*
X136636922Y-77703956D01*
X136768991Y-77040000D01*
X136636922Y-76376044D01*
X136390611Y-76007414D01*
X136538327Y-75859699D01*
X136635000Y-75626310D01*
X136635000Y-74785750D01*
X136476250Y-74627000D01*
X135127000Y-74627000D01*
X135127000Y-74647000D01*
X134873000Y-74647000D01*
X134873000Y-74627000D01*
X133523750Y-74627000D01*
X133365000Y-74785750D01*
X133365000Y-75626310D01*
X133461673Y-75859699D01*
X133609389Y-76007414D01*
X133363078Y-76376044D01*
X133231009Y-77040000D01*
X111885000Y-77040000D01*
X111885000Y-73373690D01*
X133365000Y-73373690D01*
X133365000Y-74214250D01*
X133523750Y-74373000D01*
X134873000Y-74373000D01*
X134873000Y-73023750D01*
X135127000Y-73023750D01*
X135127000Y-74373000D01*
X136476250Y-74373000D01*
X136635000Y-74214250D01*
X136635000Y-73373690D01*
X136538327Y-73140301D01*
X136359698Y-72961673D01*
X136126309Y-72865000D01*
X135285750Y-72865000D01*
X135127000Y-73023750D01*
X134873000Y-73023750D01*
X134714250Y-72865000D01*
X133873691Y-72865000D01*
X133640302Y-72961673D01*
X133461673Y-73140301D01*
X133365000Y-73373690D01*
X111885000Y-73373690D01*
X111885000Y-72450498D01*
X112140900Y-72556757D01*
X112696661Y-72557242D01*
X113210303Y-72345010D01*
X113603629Y-71952370D01*
X113689949Y-71744488D01*
X113774990Y-71950303D01*
X114167630Y-72343629D01*
X114680900Y-72556757D01*
X115236661Y-72557242D01*
X115750303Y-72345010D01*
X116143629Y-71952370D01*
X116229949Y-71744488D01*
X116314990Y-71950303D01*
X116707630Y-72343629D01*
X117220900Y-72556757D01*
X117776661Y-72557242D01*
X118290303Y-72345010D01*
X118683629Y-71952370D01*
X118896757Y-71439100D01*
X118897242Y-70883339D01*
X118685010Y-70369697D01*
X118468312Y-70152621D01*
X118514698Y-70121627D01*
X118825767Y-69656080D01*
X118935000Y-69106929D01*
X118935000Y-68133071D01*
X118825767Y-67583920D01*
X118514698Y-67118373D01*
X118049151Y-66807304D01*
X117500000Y-66698071D01*
X116950849Y-66807304D01*
X116485302Y-67118373D01*
X116230000Y-67500459D01*
X115974698Y-67118373D01*
X115509151Y-66807304D01*
X114960000Y-66698071D01*
X114410849Y-66807304D01*
X113945302Y-67118373D01*
X113690000Y-67500459D01*
X113434698Y-67118373D01*
X112969151Y-66807304D01*
X112420000Y-66698071D01*
X111885000Y-66804489D01*
X111885000Y-66000000D01*
X111862387Y-65886316D01*
X111848496Y-65771248D01*
X111834583Y-65746540D01*
X111829051Y-65718728D01*
X111764658Y-65622357D01*
X111707787Y-65521358D01*
X110615000Y-64247874D01*
X110615000Y-62688515D01*
X110894698Y-62501627D01*
X111150000Y-62119541D01*
X111405302Y-62501627D01*
X111689248Y-62691354D01*
X111735112Y-62921929D01*
X111740949Y-62951272D01*
X111900277Y-63189723D01*
X112980277Y-64269724D01*
X113168484Y-64395479D01*
X113218728Y-64429051D01*
X113500000Y-64485000D01*
X121022233Y-64485000D01*
X120950262Y-64658325D01*
X120949738Y-65259040D01*
X121179138Y-65814229D01*
X121594536Y-66230353D01*
X121180630Y-66643537D01*
X120950262Y-67198325D01*
X120949738Y-67799040D01*
X121179138Y-68354229D01*
X121603537Y-68779370D01*
X122158325Y-69009738D01*
X122759040Y-69010262D01*
X123314229Y-68780862D01*
X123730353Y-68365464D01*
X124143537Y-68779370D01*
X124265000Y-68829806D01*
X124265000Y-69500000D01*
X124296047Y-69656080D01*
X124320949Y-69781272D01*
X124480277Y-70019723D01*
X124980277Y-70519724D01*
X125218728Y-70679051D01*
X125500000Y-70735000D01*
X132500000Y-70735000D01*
X132781272Y-70679051D01*
X133019723Y-70519723D01*
X136797104Y-66742342D01*
X137077954Y-66930000D01*
X136775237Y-67132269D01*
X136447910Y-67622148D01*
X136332968Y-68200000D01*
X136447910Y-68777852D01*
X136775237Y-69267731D01*
X137265116Y-69595058D01*
X137842968Y-69710000D01*
X138157032Y-69710000D01*
X138734884Y-69595058D01*
X139224763Y-69267731D01*
X139434953Y-68953159D01*
X139415694Y-78890945D01*
X135926173Y-81915197D01*
X135455421Y-81914786D01*
X135001343Y-82102408D01*
X134653629Y-82449515D01*
X134465215Y-82903266D01*
X134464786Y-83394579D01*
X134652408Y-83848657D01*
X134999515Y-84196371D01*
X135453266Y-84384785D01*
X135944579Y-84385214D01*
X136398657Y-84197592D01*
X136746371Y-83850485D01*
X136934785Y-83396734D01*
X136935028Y-83118429D01*
X140515000Y-80015787D01*
X140515000Y-93277765D01*
X139915814Y-93678127D01*
X139187491Y-93823000D01*
X137178427Y-93823000D01*
X137153651Y-93825440D01*
X136388284Y-93977681D01*
X136342503Y-93996644D01*
X135693657Y-94430189D01*
X135674411Y-94445983D01*
X134645983Y-95474411D01*
X134630189Y-95493657D01*
X134196644Y-96142503D01*
X134177681Y-96188284D01*
X134025440Y-96953651D01*
X134023000Y-96978427D01*
X134023000Y-98937491D01*
X133878127Y-99665814D01*
X133477765Y-100265000D01*
X132100180Y-100265000D01*
X132151000Y-100142309D01*
X132151000Y-99285750D01*
X131992250Y-99127000D01*
X130627000Y-99127000D01*
X130627000Y-99147000D01*
X130373000Y-99147000D01*
X130373000Y-99127000D01*
X130353000Y-99127000D01*
X130353000Y-98873000D01*
X130373000Y-98873000D01*
X130373000Y-97507750D01*
X130627000Y-97507750D01*
X130627000Y-98873000D01*
X131992250Y-98873000D01*
X132151000Y-98714250D01*
X132151000Y-97857691D01*
X132054327Y-97624302D01*
X131875699Y-97445673D01*
X131642310Y-97349000D01*
X130785750Y-97349000D01*
X130627000Y-97507750D01*
X130373000Y-97507750D01*
X130214250Y-97349000D01*
X129357690Y-97349000D01*
X129124301Y-97445673D01*
X128945673Y-97624302D01*
X128928001Y-97666966D01*
X128591810Y-97442330D01*
X127960000Y-97316655D01*
X127328190Y-97442330D01*
X126792567Y-97800222D01*
X126434675Y-98335845D01*
X126309000Y-98967655D01*
X126309000Y-99032345D01*
X126434675Y-99664155D01*
X126792567Y-100199778D01*
X126890179Y-100265000D01*
X117600180Y-100265000D01*
X117651000Y-100142309D01*
X117651000Y-99285750D01*
X117492250Y-99127000D01*
X116127000Y-99127000D01*
X116127000Y-99147000D01*
X115873000Y-99147000D01*
X115873000Y-99127000D01*
X115853000Y-99127000D01*
X115853000Y-98873000D01*
X115873000Y-98873000D01*
X115873000Y-97507750D01*
X116127000Y-97507750D01*
X116127000Y-98873000D01*
X117492250Y-98873000D01*
X117651000Y-98714250D01*
X117651000Y-97857691D01*
X117554327Y-97624302D01*
X117375699Y-97445673D01*
X117142310Y-97349000D01*
X116285750Y-97349000D01*
X116127000Y-97507750D01*
X115873000Y-97507750D01*
X115714250Y-97349000D01*
X114857690Y-97349000D01*
X114624301Y-97445673D01*
X114445673Y-97624302D01*
X114428001Y-97666966D01*
X114091810Y-97442330D01*
X113460000Y-97316655D01*
X112828190Y-97442330D01*
X112292567Y-97800222D01*
X111934675Y-98335845D01*
X111809000Y-98967655D01*
X111809000Y-99032345D01*
X111934675Y-99664155D01*
X112292567Y-100199778D01*
X112390179Y-100265000D01*
X83972235Y-100265000D01*
X83571873Y-99665814D01*
X83427000Y-98937491D01*
X83427000Y-97128427D01*
X83424560Y-97103651D01*
X83272319Y-96338284D01*
X83253356Y-96292503D01*
X82819811Y-95643657D01*
X82804017Y-95624411D01*
X81675589Y-94495983D01*
X81656343Y-94480189D01*
X81007497Y-94046644D01*
X80961716Y-94027681D01*
X80196349Y-93875440D01*
X80171573Y-93873000D01*
X78212509Y-93873000D01*
X77484186Y-93728127D01*
X76885000Y-93327765D01*
X76885000Y-82517466D01*
X76921376Y-82334591D01*
X76986751Y-82236750D01*
X77084590Y-82171376D01*
X77267466Y-82135000D01*
X80200000Y-82135000D01*
X80266170Y-82121838D01*
X80333636Y-82121838D01*
X80716319Y-82045718D01*
X80963248Y-81943437D01*
X80963249Y-81943436D01*
X81287672Y-81726664D01*
X81476664Y-81537672D01*
X81693437Y-81213249D01*
X81747123Y-81083637D01*
X81795718Y-80966319D01*
X81871838Y-80583636D01*
X81871838Y-80516170D01*
X81885000Y-80450000D01*
X81885000Y-74373305D01*
X96614674Y-74373305D01*
X96901043Y-75066372D01*
X97430839Y-75597093D01*
X98123405Y-75884672D01*
X98873305Y-75885326D01*
X99566372Y-75598957D01*
X100097093Y-75069161D01*
X100384672Y-74376595D01*
X100385326Y-73626695D01*
X100098957Y-72933628D01*
X99569161Y-72402907D01*
X98876595Y-72115328D01*
X98126695Y-72114674D01*
X97433628Y-72401043D01*
X96902907Y-72930839D01*
X96615328Y-73623405D01*
X96614674Y-74373305D01*
X81885000Y-74373305D01*
X81885000Y-68133071D01*
X83045000Y-68133071D01*
X83045000Y-69106929D01*
X83154233Y-69656080D01*
X83465302Y-70121627D01*
X83930849Y-70432696D01*
X84480000Y-70541929D01*
X85029151Y-70432696D01*
X85494698Y-70121627D01*
X85750000Y-69739541D01*
X86005302Y-70121627D01*
X86470849Y-70432696D01*
X87020000Y-70541929D01*
X87569151Y-70432696D01*
X88034698Y-70121627D01*
X88290000Y-69739541D01*
X88545302Y-70121627D01*
X89010849Y-70432696D01*
X89560000Y-70541929D01*
X90109151Y-70432696D01*
X90574698Y-70121627D01*
X90830000Y-69739541D01*
X91085302Y-70121627D01*
X91550849Y-70432696D01*
X92100000Y-70541929D01*
X92649151Y-70432696D01*
X93114698Y-70121627D01*
X93370000Y-69739541D01*
X93625302Y-70121627D01*
X94090849Y-70432696D01*
X94640000Y-70541929D01*
X95189151Y-70432696D01*
X95654698Y-70121627D01*
X95910000Y-69739541D01*
X96165302Y-70121627D01*
X96630849Y-70432696D01*
X97180000Y-70541929D01*
X97729151Y-70432696D01*
X98194698Y-70121627D01*
X98450000Y-69739541D01*
X98705302Y-70121627D01*
X99170849Y-70432696D01*
X99720000Y-70541929D01*
X100269151Y-70432696D01*
X100734698Y-70121627D01*
X100987864Y-69742738D01*
X101335104Y-70174500D01*
X101828181Y-70444367D01*
X101910961Y-70461904D01*
X102133000Y-70339915D01*
X102133000Y-68747000D01*
X102113000Y-68747000D01*
X102113000Y-68493000D01*
X102133000Y-68493000D01*
X102133000Y-66900085D01*
X101910961Y-66778096D01*
X101828181Y-66795633D01*
X101335104Y-67065500D01*
X100987864Y-67497262D01*
X100734698Y-67118373D01*
X100269151Y-66807304D01*
X99720000Y-66698071D01*
X99170849Y-66807304D01*
X98705302Y-67118373D01*
X98450000Y-67500459D01*
X98194698Y-67118373D01*
X97729151Y-66807304D01*
X97180000Y-66698071D01*
X96630849Y-66807304D01*
X96165302Y-67118373D01*
X95910000Y-67500459D01*
X95654698Y-67118373D01*
X95189151Y-66807304D01*
X94640000Y-66698071D01*
X94090849Y-66807304D01*
X93625302Y-67118373D01*
X93370000Y-67500459D01*
X93114698Y-67118373D01*
X92649151Y-66807304D01*
X92100000Y-66698071D01*
X91550849Y-66807304D01*
X91085302Y-67118373D01*
X90830000Y-67500459D01*
X90574698Y-67118373D01*
X90109151Y-66807304D01*
X89560000Y-66698071D01*
X89010849Y-66807304D01*
X88545302Y-67118373D01*
X88290000Y-67500459D01*
X88034698Y-67118373D01*
X87569151Y-66807304D01*
X87020000Y-66698071D01*
X86470849Y-66807304D01*
X86005302Y-67118373D01*
X85750000Y-67500459D01*
X85494698Y-67118373D01*
X85029151Y-66807304D01*
X84480000Y-66698071D01*
X83930849Y-66807304D01*
X83465302Y-67118373D01*
X83154233Y-67583920D01*
X83045000Y-68133071D01*
X81885000Y-68133071D01*
X81885000Y-65450000D01*
X81871838Y-65383830D01*
X81871838Y-65316364D01*
X81795718Y-64933681D01*
X81709969Y-64726663D01*
X81693437Y-64686751D01*
X81476664Y-64362328D01*
X81287672Y-64173336D01*
X80963248Y-63956563D01*
X80909664Y-63934368D01*
X80716319Y-63854282D01*
X80333636Y-63778162D01*
X80266170Y-63778162D01*
X80200000Y-63765000D01*
X77267466Y-63765000D01*
X77084590Y-63728624D01*
X76986751Y-63663250D01*
X76921376Y-63565409D01*
X76885000Y-63382534D01*
X76885000Y-60513071D01*
X83045000Y-60513071D01*
X83045000Y-61486929D01*
X83154233Y-62036080D01*
X83465302Y-62501627D01*
X83930849Y-62812696D01*
X84480000Y-62921929D01*
X85029151Y-62812696D01*
X85494698Y-62501627D01*
X85750000Y-62119541D01*
X86005302Y-62501627D01*
X86470849Y-62812696D01*
X87020000Y-62921929D01*
X87569151Y-62812696D01*
X88034698Y-62501627D01*
X88290000Y-62119541D01*
X88545302Y-62501627D01*
X89010849Y-62812696D01*
X89560000Y-62921929D01*
X90109151Y-62812696D01*
X90574698Y-62501627D01*
X90830000Y-62119541D01*
X91085302Y-62501627D01*
X91550849Y-62812696D01*
X92100000Y-62921929D01*
X92649151Y-62812696D01*
X93114698Y-62501627D01*
X93370000Y-62119541D01*
X93625302Y-62501627D01*
X94090849Y-62812696D01*
X94640000Y-62921929D01*
X95189151Y-62812696D01*
X95654698Y-62501627D01*
X95910000Y-62119541D01*
X96165302Y-62501627D01*
X96630849Y-62812696D01*
X97180000Y-62921929D01*
X97729151Y-62812696D01*
X98194698Y-62501627D01*
X98447864Y-62122738D01*
X98795104Y-62554500D01*
X99288181Y-62824367D01*
X99370961Y-62841904D01*
X99593000Y-62719915D01*
X99593000Y-61127000D01*
X99573000Y-61127000D01*
X99573000Y-60873000D01*
X99593000Y-60873000D01*
X99593000Y-59280085D01*
X99370961Y-59158096D01*
X99288181Y-59175633D01*
X98795104Y-59445500D01*
X98447864Y-59877262D01*
X98194698Y-59498373D01*
X97729151Y-59187304D01*
X97180000Y-59078071D01*
X96630849Y-59187304D01*
X96165302Y-59498373D01*
X95910000Y-59880459D01*
X95654698Y-59498373D01*
X95189151Y-59187304D01*
X94640000Y-59078071D01*
X94090849Y-59187304D01*
X93625302Y-59498373D01*
X93370000Y-59880459D01*
X93114698Y-59498373D01*
X92649151Y-59187304D01*
X92100000Y-59078071D01*
X91550849Y-59187304D01*
X91085302Y-59498373D01*
X90830000Y-59880459D01*
X90574698Y-59498373D01*
X90109151Y-59187304D01*
X89560000Y-59078071D01*
X89010849Y-59187304D01*
X88545302Y-59498373D01*
X88290000Y-59880459D01*
X88034698Y-59498373D01*
X87569151Y-59187304D01*
X87020000Y-59078071D01*
X86470849Y-59187304D01*
X86005302Y-59498373D01*
X85750000Y-59880459D01*
X85494698Y-59498373D01*
X85029151Y-59187304D01*
X84480000Y-59078071D01*
X83930849Y-59187304D01*
X83465302Y-59498373D01*
X83154233Y-59963920D01*
X83045000Y-60513071D01*
X76885000Y-60513071D01*
X76885000Y-53265000D01*
X86878690Y-53265000D01*
X86878690Y-56335000D01*
X98521310Y-56335000D01*
X98521310Y-53265000D01*
X86878690Y-53265000D01*
X76885000Y-53265000D01*
X76885000Y-53094579D01*
X107364786Y-53094579D01*
X107552408Y-53548657D01*
X107899515Y-53896371D01*
X108353266Y-54084785D01*
X108844579Y-54085214D01*
X109298657Y-53897592D01*
X109561708Y-53635000D01*
X115238600Y-53635000D01*
X115499515Y-53896371D01*
X115953266Y-54084785D01*
X116444579Y-54085214D01*
X116898657Y-53897592D01*
X117246371Y-53550485D01*
X117434785Y-53096734D01*
X117435214Y-52605421D01*
X117247592Y-52151343D01*
X116900485Y-51803629D01*
X116446734Y-51615215D01*
X115955421Y-51614786D01*
X115501343Y-51802408D01*
X115238292Y-52065000D01*
X109561400Y-52065000D01*
X109300485Y-51803629D01*
X108846734Y-51615215D01*
X108355421Y-51614786D01*
X107901343Y-51802408D01*
X107553629Y-52149515D01*
X107365215Y-52603266D01*
X107364786Y-53094579D01*
X76885000Y-53094579D01*
X76885000Y-50087544D01*
X76962687Y-50275561D01*
X77869664Y-51184123D01*
X79055294Y-51676439D01*
X79714966Y-51677015D01*
X80032345Y-51990373D01*
X80074535Y-52017968D01*
X80138150Y-52025914D01*
X80655788Y-51957766D01*
X80687812Y-51949185D01*
X81170174Y-51749384D01*
X81198886Y-51732807D01*
X81613099Y-51414970D01*
X81646207Y-51376953D01*
X81661916Y-51329050D01*
X81657751Y-51278809D01*
X81624974Y-51223801D01*
X81556587Y-51156341D01*
X82434123Y-50280336D01*
X82628811Y-49811475D01*
X82835869Y-50015469D01*
X82878089Y-50043019D01*
X82927701Y-50051971D01*
X82976887Y-50040917D01*
X83025755Y-50002313D01*
X83039320Y-49984635D01*
X83055898Y-49955923D01*
X83064425Y-49935337D01*
X83073006Y-49903311D01*
X83075914Y-49881220D01*
X83077000Y-49864645D01*
X83077000Y-47401329D01*
X83452207Y-47401329D01*
X83621992Y-47812242D01*
X83936104Y-48126903D01*
X84316144Y-48284710D01*
X84315855Y-48615766D01*
X83937758Y-48771992D01*
X83623097Y-49086104D01*
X83452594Y-49496720D01*
X83452207Y-49941329D01*
X83621992Y-50352242D01*
X83936104Y-50666903D01*
X84346720Y-50837406D01*
X84791329Y-50837793D01*
X85202242Y-50668008D01*
X85516903Y-50353896D01*
X85674710Y-49973856D01*
X86005766Y-49974145D01*
X86161992Y-50352242D01*
X86476104Y-50666903D01*
X86886720Y-50837406D01*
X87331329Y-50837793D01*
X87742242Y-50668008D01*
X88056903Y-50353896D01*
X88227406Y-49943280D01*
X88227793Y-49498671D01*
X88058008Y-49087758D01*
X87743896Y-48773097D01*
X87363856Y-48615290D01*
X87364145Y-48284234D01*
X87742242Y-48128008D01*
X88056903Y-47813896D01*
X88227406Y-47403280D01*
X88227793Y-46958671D01*
X88058008Y-46547758D01*
X87743896Y-46233097D01*
X87333280Y-46062594D01*
X86888671Y-46062207D01*
X86477758Y-46231992D01*
X86163097Y-46546104D01*
X86005290Y-46926144D01*
X85674234Y-46925855D01*
X85518008Y-46547758D01*
X85203896Y-46233097D01*
X84793280Y-46062594D01*
X84348671Y-46062207D01*
X83937758Y-46231992D01*
X83623097Y-46546104D01*
X83452594Y-46956720D01*
X83452207Y-47401329D01*
X83077000Y-47401329D01*
X83077000Y-46462509D01*
X83221873Y-45734186D01*
X83622235Y-45135000D01*
X133777765Y-45135000D01*
X134178127Y-45734186D01*
X134178127Y-45734186D01*
G37*
X134178127Y-45734186D02*
X134323000Y-46462509D01*
X134323000Y-49421573D01*
X134325440Y-49446349D01*
X134477681Y-50211716D01*
X134496644Y-50257497D01*
X134930189Y-50906343D01*
X134945983Y-50925589D01*
X135324411Y-51304017D01*
X135336901Y-51314970D01*
X135751114Y-51632807D01*
X135779826Y-51649384D01*
X136262188Y-51849185D01*
X136294212Y-51857766D01*
X136811850Y-51925914D01*
X136828427Y-51927000D01*
X139187491Y-51927000D01*
X139915814Y-52071873D01*
X140515000Y-52472235D01*
X140515000Y-53404842D01*
X139663590Y-52553432D01*
X139660016Y-52551044D01*
X139657590Y-52547496D01*
X139532827Y-52466059D01*
X139408918Y-52383266D01*
X139404701Y-52382427D01*
X139401102Y-52380078D01*
X139254646Y-52352579D01*
X139108511Y-52323511D01*
X139104296Y-52324349D01*
X139100071Y-52323556D01*
X133043115Y-52388684D01*
X132922384Y-52414052D01*
X132800056Y-52430018D01*
X132773433Y-52445349D01*
X132743369Y-52451666D01*
X132641540Y-52521301D01*
X132534629Y-52582866D01*
X131133074Y-53809227D01*
X131116934Y-53830212D01*
X131094921Y-53844921D01*
X131024081Y-53950941D01*
X130946344Y-54052016D01*
X130939463Y-54077582D01*
X130924755Y-54099594D01*
X130899880Y-54224647D01*
X130866738Y-54347783D01*
X130870165Y-54374036D01*
X130865000Y-54400000D01*
X130865000Y-57038600D01*
X130603629Y-57299515D01*
X130415215Y-57753266D01*
X130414786Y-58244579D01*
X130567830Y-58614971D01*
X130355421Y-58614786D01*
X129901343Y-58802408D01*
X129553629Y-59149515D01*
X129365215Y-59603266D01*
X129365048Y-59794670D01*
X129337474Y-59780371D01*
X129237993Y-59771825D01*
X129140261Y-59751367D01*
X128055999Y-59740524D01*
X128246371Y-59550485D01*
X128434785Y-59096734D01*
X128435214Y-58605421D01*
X128247592Y-58151343D01*
X127900485Y-57803629D01*
X127446734Y-57615215D01*
X127075048Y-57614890D01*
X126155079Y-56694921D01*
X125900407Y-56524755D01*
X125600000Y-56465000D01*
X124325158Y-56465000D01*
X123834892Y-55974734D01*
X123835214Y-55605421D01*
X123647592Y-55151343D01*
X123300485Y-54803629D01*
X122846734Y-54615215D01*
X122355421Y-54614786D01*
X122135000Y-54705862D01*
X122135000Y-50707968D01*
X122446720Y-50837406D01*
X122891329Y-50837793D01*
X123302242Y-50668008D01*
X123616903Y-50353896D01*
X123787406Y-49943280D01*
X123787407Y-49941329D01*
X124092207Y-49941329D01*
X124261992Y-50352242D01*
X124576104Y-50666903D01*
X124986720Y-50837406D01*
X125431329Y-50837793D01*
X125842242Y-50668008D01*
X126156903Y-50353896D01*
X126327406Y-49943280D01*
X126327407Y-49941329D01*
X126632207Y-49941329D01*
X126801992Y-50352242D01*
X127116104Y-50666903D01*
X127526720Y-50837406D01*
X127971329Y-50837793D01*
X128382242Y-50668008D01*
X128696903Y-50353896D01*
X128867406Y-49943280D01*
X128867793Y-49498671D01*
X128698008Y-49087758D01*
X128383896Y-48773097D01*
X127973280Y-48602594D01*
X127528671Y-48602207D01*
X127117758Y-48771992D01*
X126803097Y-49086104D01*
X126632594Y-49496720D01*
X126632207Y-49941329D01*
X126327407Y-49941329D01*
X126327793Y-49498671D01*
X126158008Y-49087758D01*
X125843896Y-48773097D01*
X125433280Y-48602594D01*
X124988671Y-48602207D01*
X124577758Y-48771992D01*
X124263097Y-49086104D01*
X124092594Y-49496720D01*
X124092207Y-49941329D01*
X123787407Y-49941329D01*
X123787793Y-49498671D01*
X123618008Y-49087758D01*
X123303896Y-48773097D01*
X122893280Y-48602594D01*
X122448671Y-48602207D01*
X122045645Y-48768733D01*
X121919723Y-48580276D01*
X121099331Y-47759884D01*
X121247406Y-47403280D01*
X121247407Y-47401329D01*
X121552207Y-47401329D01*
X121721992Y-47812242D01*
X122036104Y-48126903D01*
X122446720Y-48297406D01*
X122891329Y-48297793D01*
X123302242Y-48128008D01*
X123616903Y-47813896D01*
X123787406Y-47403280D01*
X123787407Y-47401329D01*
X124092207Y-47401329D01*
X124261992Y-47812242D01*
X124576104Y-48126903D01*
X124986720Y-48297406D01*
X125431329Y-48297793D01*
X125842242Y-48128008D01*
X126156903Y-47813896D01*
X126327406Y-47403280D01*
X126327407Y-47401329D01*
X126632207Y-47401329D01*
X126801992Y-47812242D01*
X127116104Y-48126903D01*
X127526720Y-48297406D01*
X127971329Y-48297793D01*
X128382242Y-48128008D01*
X128696903Y-47813896D01*
X128867406Y-47403280D01*
X128867407Y-47401329D01*
X129172207Y-47401329D01*
X129341992Y-47812242D01*
X129656104Y-48126903D01*
X130036144Y-48284710D01*
X130035855Y-48615766D01*
X129657758Y-48771992D01*
X129343097Y-49086104D01*
X129172594Y-49496720D01*
X129172207Y-49941329D01*
X129341992Y-50352242D01*
X129656104Y-50666903D01*
X130066720Y-50837406D01*
X130511329Y-50837793D01*
X130922242Y-50668008D01*
X131236903Y-50353896D01*
X131394710Y-49973856D01*
X131725766Y-49974145D01*
X131881992Y-50352242D01*
X132196104Y-50666903D01*
X132606720Y-50837406D01*
X133051329Y-50837793D01*
X133462242Y-50668008D01*
X133776903Y-50353896D01*
X133947406Y-49943280D01*
X133947793Y-49498671D01*
X133778008Y-49087758D01*
X133463896Y-48773097D01*
X133083856Y-48615290D01*
X133084145Y-48284234D01*
X133462242Y-48128008D01*
X133776903Y-47813896D01*
X133947406Y-47403280D01*
X133947793Y-46958671D01*
X133778008Y-46547758D01*
X133463896Y-46233097D01*
X133053280Y-46062594D01*
X132608671Y-46062207D01*
X132197758Y-46231992D01*
X131883097Y-46546104D01*
X131725290Y-46926144D01*
X131394234Y-46925855D01*
X131238008Y-46547758D01*
X130923896Y-46233097D01*
X130513280Y-46062594D01*
X130068671Y-46062207D01*
X129657758Y-46231992D01*
X129343097Y-46546104D01*
X129172594Y-46956720D01*
X129172207Y-47401329D01*
X128867407Y-47401329D01*
X128867793Y-46958671D01*
X128698008Y-46547758D01*
X128383896Y-46233097D01*
X127973280Y-46062594D01*
X127528671Y-46062207D01*
X127117758Y-46231992D01*
X126803097Y-46546104D01*
X126632594Y-46956720D01*
X126632207Y-47401329D01*
X126327407Y-47401329D01*
X126327793Y-46958671D01*
X126158008Y-46547758D01*
X125843896Y-46233097D01*
X125433280Y-46062594D01*
X124988671Y-46062207D01*
X124577758Y-46231992D01*
X124263097Y-46546104D01*
X124092594Y-46956720D01*
X124092207Y-47401329D01*
X123787407Y-47401329D01*
X123787793Y-46958671D01*
X123618008Y-46547758D01*
X123303896Y-46233097D01*
X122893280Y-46062594D01*
X122448671Y-46062207D01*
X122037758Y-46231992D01*
X121723097Y-46546104D01*
X121552594Y-46956720D01*
X121552207Y-47401329D01*
X121247407Y-47401329D01*
X121247793Y-46958671D01*
X121078008Y-46547758D01*
X120763896Y-46233097D01*
X120353280Y-46062594D01*
X119908671Y-46062207D01*
X119497758Y-46231992D01*
X119183097Y-46546104D01*
X119012594Y-46956720D01*
X119012207Y-47401329D01*
X119038515Y-47465000D01*
X118681778Y-47465000D01*
X118707406Y-47403280D01*
X118707793Y-46958671D01*
X118538008Y-46547758D01*
X118223896Y-46233097D01*
X117813280Y-46062594D01*
X117368671Y-46062207D01*
X116957758Y-46231992D01*
X116643097Y-46546104D01*
X116472594Y-46956720D01*
X116472207Y-47401329D01*
X116498515Y-47465000D01*
X116141778Y-47465000D01*
X116167406Y-47403280D01*
X116167793Y-46958671D01*
X115998008Y-46547758D01*
X115683896Y-46233097D01*
X115273280Y-46062594D01*
X114828671Y-46062207D01*
X114417758Y-46231992D01*
X114103097Y-46546104D01*
X113932594Y-46956720D01*
X113932207Y-47401329D01*
X113958515Y-47465000D01*
X113601778Y-47465000D01*
X113627406Y-47403280D01*
X113627793Y-46958671D01*
X113458008Y-46547758D01*
X113143896Y-46233097D01*
X112733280Y-46062594D01*
X112288671Y-46062207D01*
X111877758Y-46231992D01*
X111563097Y-46546104D01*
X111392594Y-46956720D01*
X111392207Y-47401329D01*
X111418515Y-47465000D01*
X111061778Y-47465000D01*
X111087406Y-47403280D01*
X111087793Y-46958671D01*
X110918008Y-46547758D01*
X110603896Y-46233097D01*
X110193280Y-46062594D01*
X109748671Y-46062207D01*
X109337758Y-46231992D01*
X109023097Y-46546104D01*
X108852594Y-46956720D01*
X108852207Y-47401329D01*
X108878515Y-47465000D01*
X108521778Y-47465000D01*
X108547406Y-47403280D01*
X108547793Y-46958671D01*
X108378008Y-46547758D01*
X108063896Y-46233097D01*
X107653280Y-46062594D01*
X107208671Y-46062207D01*
X106797758Y-46231992D01*
X106483097Y-46546104D01*
X106312594Y-46956720D01*
X106312207Y-47401329D01*
X106338515Y-47465000D01*
X105981778Y-47465000D01*
X106007406Y-47403280D01*
X106007793Y-46958671D01*
X105838008Y-46547758D01*
X105523896Y-46233097D01*
X105113280Y-46062594D01*
X104668671Y-46062207D01*
X104257758Y-46231992D01*
X103943097Y-46546104D01*
X103772594Y-46956720D01*
X103772207Y-47401329D01*
X103798515Y-47465000D01*
X103441778Y-47465000D01*
X103467406Y-47403280D01*
X103467793Y-46958671D01*
X103298008Y-46547758D01*
X102983896Y-46233097D01*
X102573280Y-46062594D01*
X102128671Y-46062207D01*
X101717758Y-46231992D01*
X101403097Y-46546104D01*
X101232594Y-46956720D01*
X101232207Y-47401329D01*
X101258515Y-47465000D01*
X100901778Y-47465000D01*
X100927406Y-47403280D01*
X100927793Y-46958671D01*
X100758008Y-46547758D01*
X100443896Y-46233097D01*
X100033280Y-46062594D01*
X99588671Y-46062207D01*
X99177758Y-46231992D01*
X98863097Y-46546104D01*
X98692594Y-46956720D01*
X98692207Y-47401329D01*
X98718515Y-47465000D01*
X98361778Y-47465000D01*
X98387406Y-47403280D01*
X98387793Y-46958671D01*
X98218008Y-46547758D01*
X97903896Y-46233097D01*
X97493280Y-46062594D01*
X97048671Y-46062207D01*
X96637758Y-46231992D01*
X96323097Y-46546104D01*
X96152594Y-46956720D01*
X96152207Y-47401329D01*
X96178515Y-47465000D01*
X95821778Y-47465000D01*
X95847406Y-47403280D01*
X95847793Y-46958671D01*
X95678008Y-46547758D01*
X95363896Y-46233097D01*
X94953280Y-46062594D01*
X94508671Y-46062207D01*
X94097758Y-46231992D01*
X93885700Y-46443680D01*
X93696734Y-46365215D01*
X93205421Y-46364786D01*
X93028380Y-46437938D01*
X92823896Y-46233097D01*
X92413280Y-46062594D01*
X91968671Y-46062207D01*
X91557758Y-46231992D01*
X91243097Y-46546104D01*
X91169031Y-46724474D01*
X91146734Y-46715215D01*
X90667026Y-46714796D01*
X90598008Y-46547758D01*
X90283896Y-46233097D01*
X89873280Y-46062594D01*
X89428671Y-46062207D01*
X89017758Y-46231992D01*
X88703097Y-46546104D01*
X88532594Y-46956720D01*
X88532207Y-47401329D01*
X88701992Y-47812242D01*
X89016104Y-48126903D01*
X89426720Y-48297406D01*
X89707374Y-48297650D01*
X89833361Y-48602559D01*
X89428671Y-48602207D01*
X89017758Y-48771992D01*
X88703097Y-49086104D01*
X88532594Y-49496720D01*
X88532207Y-49941329D01*
X88701992Y-50352242D01*
X89016104Y-50666903D01*
X89426720Y-50837406D01*
X89871329Y-50837793D01*
X90282242Y-50668008D01*
X90596903Y-50353896D01*
X90767406Y-49943280D01*
X90767793Y-49498671D01*
X90634957Y-49177183D01*
X90653266Y-49184785D01*
X91144579Y-49185214D01*
X91146665Y-49184352D01*
X91162674Y-49201504D01*
X91173127Y-49209022D01*
X91180277Y-49219723D01*
X91186020Y-49223560D01*
X91072594Y-49496720D01*
X91072207Y-49941329D01*
X91241992Y-50352242D01*
X91556104Y-50666903D01*
X91966720Y-50837406D01*
X92411329Y-50837793D01*
X92822242Y-50668008D01*
X93136903Y-50353896D01*
X93307406Y-49943280D01*
X93307793Y-49498671D01*
X93281485Y-49435000D01*
X93638222Y-49435000D01*
X93612594Y-49496720D01*
X93612207Y-49941329D01*
X93781992Y-50352242D01*
X94096104Y-50666903D01*
X94506720Y-50837406D01*
X94951329Y-50837793D01*
X95362242Y-50668008D01*
X95676903Y-50353896D01*
X95847406Y-49943280D01*
X95847793Y-49498671D01*
X95821485Y-49435000D01*
X96178222Y-49435000D01*
X96152594Y-49496720D01*
X96152207Y-49941329D01*
X96321992Y-50352242D01*
X96636104Y-50666903D01*
X97046720Y-50837406D01*
X97491329Y-50837793D01*
X97902242Y-50668008D01*
X98216903Y-50353896D01*
X98387406Y-49943280D01*
X98387793Y-49498671D01*
X98361485Y-49435000D01*
X98718222Y-49435000D01*
X98692594Y-49496720D01*
X98692207Y-49941329D01*
X98861992Y-50352242D01*
X99176104Y-50666903D01*
X99586720Y-50837406D01*
X100031329Y-50837793D01*
X100442242Y-50668008D01*
X100756903Y-50353896D01*
X100927406Y-49943280D01*
X100927793Y-49498671D01*
X100901485Y-49435000D01*
X101258222Y-49435000D01*
X101232594Y-49496720D01*
X101232207Y-49941329D01*
X101401992Y-50352242D01*
X101716104Y-50666903D01*
X102126720Y-50837406D01*
X102571329Y-50837793D01*
X102982242Y-50668008D01*
X103296903Y-50353896D01*
X103467406Y-49943280D01*
X103467793Y-49498671D01*
X103441485Y-49435000D01*
X103798222Y-49435000D01*
X103772594Y-49496720D01*
X103772207Y-49941329D01*
X103941992Y-50352242D01*
X104256104Y-50666903D01*
X104666720Y-50837406D01*
X105111329Y-50837793D01*
X105522242Y-50668008D01*
X105836903Y-50353896D01*
X106007406Y-49943280D01*
X106007793Y-49498671D01*
X105981485Y-49435000D01*
X106338222Y-49435000D01*
X106312594Y-49496720D01*
X106312207Y-49941329D01*
X106481992Y-50352242D01*
X106796104Y-50666903D01*
X107206720Y-50837406D01*
X107651329Y-50837793D01*
X108062242Y-50668008D01*
X108376903Y-50353896D01*
X108547406Y-49943280D01*
X108547793Y-49498671D01*
X108521485Y-49435000D01*
X108878222Y-49435000D01*
X108852594Y-49496720D01*
X108852207Y-49941329D01*
X109021992Y-50352242D01*
X109336104Y-50666903D01*
X109746720Y-50837406D01*
X110191329Y-50837793D01*
X110602242Y-50668008D01*
X110916903Y-50353896D01*
X111087406Y-49943280D01*
X111087793Y-49498671D01*
X111061485Y-49435000D01*
X111418222Y-49435000D01*
X111392594Y-49496720D01*
X111392207Y-49941329D01*
X111561992Y-50352242D01*
X111876104Y-50666903D01*
X112286720Y-50837406D01*
X112731329Y-50837793D01*
X113142242Y-50668008D01*
X113456903Y-50353896D01*
X113627406Y-49943280D01*
X113627793Y-49498671D01*
X113601485Y-49435000D01*
X113958222Y-49435000D01*
X113932594Y-49496720D01*
X113932207Y-49941329D01*
X114101992Y-50352242D01*
X114416104Y-50666903D01*
X114826720Y-50837406D01*
X115271329Y-50837793D01*
X115682242Y-50668008D01*
X115996903Y-50353896D01*
X116167406Y-49943280D01*
X116167793Y-49498671D01*
X116141485Y-49435000D01*
X116498222Y-49435000D01*
X116472594Y-49496720D01*
X116472207Y-49941329D01*
X116641992Y-50352242D01*
X116956104Y-50666903D01*
X117366720Y-50837406D01*
X117811329Y-50837793D01*
X118065000Y-50732979D01*
X118065000Y-57843467D01*
X117801343Y-57952408D01*
X117453629Y-58299515D01*
X117265215Y-58753266D01*
X117264891Y-59124837D01*
X116950849Y-59187304D01*
X116485302Y-59498373D01*
X116230000Y-59880459D01*
X115974698Y-59498373D01*
X115509151Y-59187304D01*
X114960000Y-59078071D01*
X114410849Y-59187304D01*
X113945302Y-59498373D01*
X113690000Y-59880459D01*
X113434698Y-59498373D01*
X112969151Y-59187304D01*
X112420000Y-59078071D01*
X111870849Y-59187304D01*
X111405302Y-59498373D01*
X111150000Y-59880459D01*
X110894698Y-59498373D01*
X110429151Y-59187304D01*
X109880000Y-59078071D01*
X109330849Y-59187304D01*
X108865302Y-59498373D01*
X108610000Y-59880459D01*
X108354698Y-59498373D01*
X107889151Y-59187304D01*
X107340000Y-59078071D01*
X106790849Y-59187304D01*
X106325302Y-59498373D01*
X106070000Y-59880459D01*
X105814698Y-59498373D01*
X105349151Y-59187304D01*
X104800000Y-59078071D01*
X104250849Y-59187304D01*
X103785302Y-59498373D01*
X103530000Y-59880459D01*
X103274698Y-59498373D01*
X102809151Y-59187304D01*
X102260000Y-59078071D01*
X101710849Y-59187304D01*
X101245302Y-59498373D01*
X100992136Y-59877262D01*
X100644896Y-59445500D01*
X100151819Y-59175633D01*
X100069039Y-59158096D01*
X99847000Y-59280085D01*
X99847000Y-60873000D01*
X99867000Y-60873000D01*
X99867000Y-61127000D01*
X99847000Y-61127000D01*
X99847000Y-62719915D01*
X100069039Y-62841904D01*
X100151819Y-62824367D01*
X100644896Y-62554500D01*
X100992136Y-62122738D01*
X101245302Y-62501627D01*
X101710849Y-62812696D01*
X102260000Y-62921929D01*
X102809151Y-62812696D01*
X103274698Y-62501627D01*
X103530000Y-62119541D01*
X103785302Y-62501627D01*
X104250849Y-62812696D01*
X104800000Y-62921929D01*
X105349151Y-62812696D01*
X105814698Y-62501627D01*
X106070000Y-62119541D01*
X106325302Y-62501627D01*
X106790849Y-62812696D01*
X107340000Y-62921929D01*
X107889151Y-62812696D01*
X108354698Y-62501627D01*
X108610000Y-62119541D01*
X108865302Y-62501627D01*
X109145000Y-62688515D01*
X109145000Y-64520000D01*
X109167614Y-64633685D01*
X109181504Y-64748751D01*
X109195417Y-64773459D01*
X109200949Y-64801272D01*
X109265344Y-64897645D01*
X109322213Y-64998642D01*
X110415000Y-66272127D01*
X110415000Y-66804489D01*
X109880000Y-66698071D01*
X109330849Y-66807304D01*
X108865302Y-67118373D01*
X108610000Y-67500459D01*
X108354698Y-67118373D01*
X107889151Y-66807304D01*
X107340000Y-66698071D01*
X106790849Y-66807304D01*
X106325302Y-67118373D01*
X106070000Y-67500459D01*
X105814698Y-67118373D01*
X105349151Y-66807304D01*
X104800000Y-66698071D01*
X104250849Y-66807304D01*
X103785302Y-67118373D01*
X103532136Y-67497262D01*
X103184896Y-67065500D01*
X102691819Y-66795633D01*
X102609039Y-66778096D01*
X102387000Y-66900085D01*
X102387000Y-68493000D01*
X102407000Y-68493000D01*
X102407000Y-68747000D01*
X102387000Y-68747000D01*
X102387000Y-70339915D01*
X102609039Y-70461904D01*
X102691819Y-70444367D01*
X103184896Y-70174500D01*
X103532136Y-69742738D01*
X103785302Y-70121627D01*
X103831728Y-70152648D01*
X103616371Y-70367630D01*
X103403243Y-70880900D01*
X103402758Y-71436661D01*
X103614990Y-71950303D01*
X104007630Y-72343629D01*
X104520900Y-72556757D01*
X105076661Y-72557242D01*
X105590303Y-72345010D01*
X105983629Y-71952370D01*
X106069949Y-71744488D01*
X106154990Y-71950303D01*
X106547630Y-72343629D01*
X107060900Y-72556757D01*
X107616661Y-72557242D01*
X108130303Y-72345010D01*
X108523629Y-71952370D01*
X108609949Y-71744488D01*
X108694990Y-71950303D01*
X109087630Y-72343629D01*
X109600900Y-72556757D01*
X110156661Y-72557242D01*
X110415000Y-72450499D01*
X110415000Y-80885505D01*
X105168997Y-84057507D01*
X104946734Y-83965215D01*
X104455421Y-83964786D01*
X104001343Y-84152408D01*
X103653629Y-84499515D01*
X103465215Y-84953266D01*
X103464786Y-85444579D01*
X103652408Y-85898657D01*
X103999515Y-86246371D01*
X104453266Y-86434785D01*
X104944579Y-86435214D01*
X105398657Y-86247592D01*
X105746371Y-85900485D01*
X105934785Y-85446734D01*
X105934902Y-85312228D01*
X111495511Y-81950000D01*
X119515000Y-81950000D01*
X119515000Y-96950000D01*
X119528162Y-97016170D01*
X119528162Y-97083636D01*
X119604282Y-97466319D01*
X119674152Y-97635000D01*
X119706563Y-97713248D01*
X119923336Y-98037672D01*
X120112328Y-98226664D01*
X120436751Y-98443437D01*
X120539032Y-98485803D01*
X120683681Y-98545718D01*
X121066364Y-98621838D01*
X121333636Y-98621838D01*
X121716319Y-98545718D01*
X121963248Y-98443437D01*
X121963249Y-98443436D01*
X122287672Y-98226664D01*
X122476664Y-98037672D01*
X122693437Y-97713249D01*
X122735803Y-97610968D01*
X122795718Y-97466319D01*
X122871838Y-97083636D01*
X122871838Y-97016170D01*
X122885000Y-96950000D01*
X122885000Y-81950000D01*
X122871838Y-81883830D01*
X122871838Y-81816364D01*
X122795718Y-81433681D01*
X122715594Y-81240243D01*
X122693437Y-81186751D01*
X122476664Y-80862328D01*
X122287672Y-80673336D01*
X121963248Y-80456563D01*
X121947403Y-80450000D01*
X121716319Y-80354282D01*
X121333636Y-80278162D01*
X121200000Y-80278162D01*
X120683681Y-80354282D01*
X120539032Y-80414197D01*
X120436751Y-80456563D01*
X120112328Y-80673336D01*
X119923336Y-80862328D01*
X119706564Y-81186751D01*
X119706563Y-81186752D01*
X119604282Y-81433681D01*
X119528162Y-81816364D01*
X119528162Y-81883830D01*
X119515000Y-81950000D01*
X111495511Y-81950000D01*
X111530303Y-81928963D01*
X111595880Y-81869063D01*
X111669723Y-81819723D01*
X111700776Y-81773249D01*
X111742048Y-81735550D01*
X111779711Y-81655115D01*
X111829051Y-81581272D01*
X111839956Y-81526452D01*
X111863659Y-81475829D01*
X111867673Y-81387107D01*
X111885000Y-81300000D01*
X111885000Y-77040000D01*
X133231009Y-77040000D01*
X133363078Y-77703956D01*
X133739179Y-78266830D01*
X134302053Y-78642931D01*
X134966009Y-78775000D01*
X135033991Y-78775000D01*
X135697947Y-78642931D01*
X136260821Y-78266830D01*
X136636922Y-77703956D01*
X136768991Y-77040000D01*
X136636922Y-76376044D01*
X136390611Y-76007414D01*
X136538327Y-75859699D01*
X136635000Y-75626310D01*
X136635000Y-74785750D01*
X136476250Y-74627000D01*
X135127000Y-74627000D01*
X135127000Y-74647000D01*
X134873000Y-74647000D01*
X134873000Y-74627000D01*
X133523750Y-74627000D01*
X133365000Y-74785750D01*
X133365000Y-75626310D01*
X133461673Y-75859699D01*
X133609389Y-76007414D01*
X133363078Y-76376044D01*
X133231009Y-77040000D01*
X111885000Y-77040000D01*
X111885000Y-73373690D01*
X133365000Y-73373690D01*
X133365000Y-74214250D01*
X133523750Y-74373000D01*
X134873000Y-74373000D01*
X134873000Y-73023750D01*
X135127000Y-73023750D01*
X135127000Y-74373000D01*
X136476250Y-74373000D01*
X136635000Y-74214250D01*
X136635000Y-73373690D01*
X136538327Y-73140301D01*
X136359698Y-72961673D01*
X136126309Y-72865000D01*
X135285750Y-72865000D01*
X135127000Y-73023750D01*
X134873000Y-73023750D01*
X134714250Y-72865000D01*
X133873691Y-72865000D01*
X133640302Y-72961673D01*
X133461673Y-73140301D01*
X133365000Y-73373690D01*
X111885000Y-73373690D01*
X111885000Y-72450498D01*
X112140900Y-72556757D01*
X112696661Y-72557242D01*
X113210303Y-72345010D01*
X113603629Y-71952370D01*
X113689949Y-71744488D01*
X113774990Y-71950303D01*
X114167630Y-72343629D01*
X114680900Y-72556757D01*
X115236661Y-72557242D01*
X115750303Y-72345010D01*
X116143629Y-71952370D01*
X116229949Y-71744488D01*
X116314990Y-71950303D01*
X116707630Y-72343629D01*
X117220900Y-72556757D01*
X117776661Y-72557242D01*
X118290303Y-72345010D01*
X118683629Y-71952370D01*
X118896757Y-71439100D01*
X118897242Y-70883339D01*
X118685010Y-70369697D01*
X118468312Y-70152621D01*
X118514698Y-70121627D01*
X118825767Y-69656080D01*
X118935000Y-69106929D01*
X118935000Y-68133071D01*
X118825767Y-67583920D01*
X118514698Y-67118373D01*
X118049151Y-66807304D01*
X117500000Y-66698071D01*
X116950849Y-66807304D01*
X116485302Y-67118373D01*
X116230000Y-67500459D01*
X115974698Y-67118373D01*
X115509151Y-66807304D01*
X114960000Y-66698071D01*
X114410849Y-66807304D01*
X113945302Y-67118373D01*
X113690000Y-67500459D01*
X113434698Y-67118373D01*
X112969151Y-66807304D01*
X112420000Y-66698071D01*
X111885000Y-66804489D01*
X111885000Y-66000000D01*
X111862387Y-65886316D01*
X111848496Y-65771248D01*
X111834583Y-65746540D01*
X111829051Y-65718728D01*
X111764658Y-65622357D01*
X111707787Y-65521358D01*
X110615000Y-64247874D01*
X110615000Y-62688515D01*
X110894698Y-62501627D01*
X111150000Y-62119541D01*
X111405302Y-62501627D01*
X111689248Y-62691354D01*
X111735112Y-62921929D01*
X111740949Y-62951272D01*
X111900277Y-63189723D01*
X112980277Y-64269724D01*
X113168484Y-64395479D01*
X113218728Y-64429051D01*
X113500000Y-64485000D01*
X121022233Y-64485000D01*
X120950262Y-64658325D01*
X120949738Y-65259040D01*
X121179138Y-65814229D01*
X121594536Y-66230353D01*
X121180630Y-66643537D01*
X120950262Y-67198325D01*
X120949738Y-67799040D01*
X121179138Y-68354229D01*
X121603537Y-68779370D01*
X122158325Y-69009738D01*
X122759040Y-69010262D01*
X123314229Y-68780862D01*
X123730353Y-68365464D01*
X124143537Y-68779370D01*
X124265000Y-68829806D01*
X124265000Y-69500000D01*
X124296047Y-69656080D01*
X124320949Y-69781272D01*
X124480277Y-70019723D01*
X124980277Y-70519724D01*
X125218728Y-70679051D01*
X125500000Y-70735000D01*
X132500000Y-70735000D01*
X132781272Y-70679051D01*
X133019723Y-70519723D01*
X136797104Y-66742342D01*
X137077954Y-66930000D01*
X136775237Y-67132269D01*
X136447910Y-67622148D01*
X136332968Y-68200000D01*
X136447910Y-68777852D01*
X136775237Y-69267731D01*
X137265116Y-69595058D01*
X137842968Y-69710000D01*
X138157032Y-69710000D01*
X138734884Y-69595058D01*
X139224763Y-69267731D01*
X139434953Y-68953159D01*
X139415694Y-78890945D01*
X135926173Y-81915197D01*
X135455421Y-81914786D01*
X135001343Y-82102408D01*
X134653629Y-82449515D01*
X134465215Y-82903266D01*
X134464786Y-83394579D01*
X134652408Y-83848657D01*
X134999515Y-84196371D01*
X135453266Y-84384785D01*
X135944579Y-84385214D01*
X136398657Y-84197592D01*
X136746371Y-83850485D01*
X136934785Y-83396734D01*
X136935028Y-83118429D01*
X140515000Y-80015787D01*
X140515000Y-93277765D01*
X139915814Y-93678127D01*
X139187491Y-93823000D01*
X137178427Y-93823000D01*
X137153651Y-93825440D01*
X136388284Y-93977681D01*
X136342503Y-93996644D01*
X135693657Y-94430189D01*
X135674411Y-94445983D01*
X134645983Y-95474411D01*
X134630189Y-95493657D01*
X134196644Y-96142503D01*
X134177681Y-96188284D01*
X134025440Y-96953651D01*
X134023000Y-96978427D01*
X134023000Y-98937491D01*
X133878127Y-99665814D01*
X133477765Y-100265000D01*
X132100180Y-100265000D01*
X132151000Y-100142309D01*
X132151000Y-99285750D01*
X131992250Y-99127000D01*
X130627000Y-99127000D01*
X130627000Y-99147000D01*
X130373000Y-99147000D01*
X130373000Y-99127000D01*
X130353000Y-99127000D01*
X130353000Y-98873000D01*
X130373000Y-98873000D01*
X130373000Y-97507750D01*
X130627000Y-97507750D01*
X130627000Y-98873000D01*
X131992250Y-98873000D01*
X132151000Y-98714250D01*
X132151000Y-97857691D01*
X132054327Y-97624302D01*
X131875699Y-97445673D01*
X131642310Y-97349000D01*
X130785750Y-97349000D01*
X130627000Y-97507750D01*
X130373000Y-97507750D01*
X130214250Y-97349000D01*
X129357690Y-97349000D01*
X129124301Y-97445673D01*
X128945673Y-97624302D01*
X128928001Y-97666966D01*
X128591810Y-97442330D01*
X127960000Y-97316655D01*
X127328190Y-97442330D01*
X126792567Y-97800222D01*
X126434675Y-98335845D01*
X126309000Y-98967655D01*
X126309000Y-99032345D01*
X126434675Y-99664155D01*
X126792567Y-100199778D01*
X126890179Y-100265000D01*
X117600180Y-100265000D01*
X117651000Y-100142309D01*
X117651000Y-99285750D01*
X117492250Y-99127000D01*
X116127000Y-99127000D01*
X116127000Y-99147000D01*
X115873000Y-99147000D01*
X115873000Y-99127000D01*
X115853000Y-99127000D01*
X115853000Y-98873000D01*
X115873000Y-98873000D01*
X115873000Y-97507750D01*
X116127000Y-97507750D01*
X116127000Y-98873000D01*
X117492250Y-98873000D01*
X117651000Y-98714250D01*
X117651000Y-97857691D01*
X117554327Y-97624302D01*
X117375699Y-97445673D01*
X117142310Y-97349000D01*
X116285750Y-97349000D01*
X116127000Y-97507750D01*
X115873000Y-97507750D01*
X115714250Y-97349000D01*
X114857690Y-97349000D01*
X114624301Y-97445673D01*
X114445673Y-97624302D01*
X114428001Y-97666966D01*
X114091810Y-97442330D01*
X113460000Y-97316655D01*
X112828190Y-97442330D01*
X112292567Y-97800222D01*
X111934675Y-98335845D01*
X111809000Y-98967655D01*
X111809000Y-99032345D01*
X111934675Y-99664155D01*
X112292567Y-100199778D01*
X112390179Y-100265000D01*
X83972235Y-100265000D01*
X83571873Y-99665814D01*
X83427000Y-98937491D01*
X83427000Y-97128427D01*
X83424560Y-97103651D01*
X83272319Y-96338284D01*
X83253356Y-96292503D01*
X82819811Y-95643657D01*
X82804017Y-95624411D01*
X81675589Y-94495983D01*
X81656343Y-94480189D01*
X81007497Y-94046644D01*
X80961716Y-94027681D01*
X80196349Y-93875440D01*
X80171573Y-93873000D01*
X78212509Y-93873000D01*
X77484186Y-93728127D01*
X76885000Y-93327765D01*
X76885000Y-82517466D01*
X76921376Y-82334591D01*
X76986751Y-82236750D01*
X77084590Y-82171376D01*
X77267466Y-82135000D01*
X80200000Y-82135000D01*
X80266170Y-82121838D01*
X80333636Y-82121838D01*
X80716319Y-82045718D01*
X80963248Y-81943437D01*
X80963249Y-81943436D01*
X81287672Y-81726664D01*
X81476664Y-81537672D01*
X81693437Y-81213249D01*
X81747123Y-81083637D01*
X81795718Y-80966319D01*
X81871838Y-80583636D01*
X81871838Y-80516170D01*
X81885000Y-80450000D01*
X81885000Y-74373305D01*
X96614674Y-74373305D01*
X96901043Y-75066372D01*
X97430839Y-75597093D01*
X98123405Y-75884672D01*
X98873305Y-75885326D01*
X99566372Y-75598957D01*
X100097093Y-75069161D01*
X100384672Y-74376595D01*
X100385326Y-73626695D01*
X100098957Y-72933628D01*
X99569161Y-72402907D01*
X98876595Y-72115328D01*
X98126695Y-72114674D01*
X97433628Y-72401043D01*
X96902907Y-72930839D01*
X96615328Y-73623405D01*
X96614674Y-74373305D01*
X81885000Y-74373305D01*
X81885000Y-68133071D01*
X83045000Y-68133071D01*
X83045000Y-69106929D01*
X83154233Y-69656080D01*
X83465302Y-70121627D01*
X83930849Y-70432696D01*
X84480000Y-70541929D01*
X85029151Y-70432696D01*
X85494698Y-70121627D01*
X85750000Y-69739541D01*
X86005302Y-70121627D01*
X86470849Y-70432696D01*
X87020000Y-70541929D01*
X87569151Y-70432696D01*
X88034698Y-70121627D01*
X88290000Y-69739541D01*
X88545302Y-70121627D01*
X89010849Y-70432696D01*
X89560000Y-70541929D01*
X90109151Y-70432696D01*
X90574698Y-70121627D01*
X90830000Y-69739541D01*
X91085302Y-70121627D01*
X91550849Y-70432696D01*
X92100000Y-70541929D01*
X92649151Y-70432696D01*
X93114698Y-70121627D01*
X93370000Y-69739541D01*
X93625302Y-70121627D01*
X94090849Y-70432696D01*
X94640000Y-70541929D01*
X95189151Y-70432696D01*
X95654698Y-70121627D01*
X95910000Y-69739541D01*
X96165302Y-70121627D01*
X96630849Y-70432696D01*
X97180000Y-70541929D01*
X97729151Y-70432696D01*
X98194698Y-70121627D01*
X98450000Y-69739541D01*
X98705302Y-70121627D01*
X99170849Y-70432696D01*
X99720000Y-70541929D01*
X100269151Y-70432696D01*
X100734698Y-70121627D01*
X100987864Y-69742738D01*
X101335104Y-70174500D01*
X101828181Y-70444367D01*
X101910961Y-70461904D01*
X102133000Y-70339915D01*
X102133000Y-68747000D01*
X102113000Y-68747000D01*
X102113000Y-68493000D01*
X102133000Y-68493000D01*
X102133000Y-66900085D01*
X101910961Y-66778096D01*
X101828181Y-66795633D01*
X101335104Y-67065500D01*
X100987864Y-67497262D01*
X100734698Y-67118373D01*
X100269151Y-66807304D01*
X99720000Y-66698071D01*
X99170849Y-66807304D01*
X98705302Y-67118373D01*
X98450000Y-67500459D01*
X98194698Y-67118373D01*
X97729151Y-66807304D01*
X97180000Y-66698071D01*
X96630849Y-66807304D01*
X96165302Y-67118373D01*
X95910000Y-67500459D01*
X95654698Y-67118373D01*
X95189151Y-66807304D01*
X94640000Y-66698071D01*
X94090849Y-66807304D01*
X93625302Y-67118373D01*
X93370000Y-67500459D01*
X93114698Y-67118373D01*
X92649151Y-66807304D01*
X92100000Y-66698071D01*
X91550849Y-66807304D01*
X91085302Y-67118373D01*
X90830000Y-67500459D01*
X90574698Y-67118373D01*
X90109151Y-66807304D01*
X89560000Y-66698071D01*
X89010849Y-66807304D01*
X88545302Y-67118373D01*
X88290000Y-67500459D01*
X88034698Y-67118373D01*
X87569151Y-66807304D01*
X87020000Y-66698071D01*
X86470849Y-66807304D01*
X86005302Y-67118373D01*
X85750000Y-67500459D01*
X85494698Y-67118373D01*
X85029151Y-66807304D01*
X84480000Y-66698071D01*
X83930849Y-66807304D01*
X83465302Y-67118373D01*
X83154233Y-67583920D01*
X83045000Y-68133071D01*
X81885000Y-68133071D01*
X81885000Y-65450000D01*
X81871838Y-65383830D01*
X81871838Y-65316364D01*
X81795718Y-64933681D01*
X81709969Y-64726663D01*
X81693437Y-64686751D01*
X81476664Y-64362328D01*
X81287672Y-64173336D01*
X80963248Y-63956563D01*
X80909664Y-63934368D01*
X80716319Y-63854282D01*
X80333636Y-63778162D01*
X80266170Y-63778162D01*
X80200000Y-63765000D01*
X77267466Y-63765000D01*
X77084590Y-63728624D01*
X76986751Y-63663250D01*
X76921376Y-63565409D01*
X76885000Y-63382534D01*
X76885000Y-60513071D01*
X83045000Y-60513071D01*
X83045000Y-61486929D01*
X83154233Y-62036080D01*
X83465302Y-62501627D01*
X83930849Y-62812696D01*
X84480000Y-62921929D01*
X85029151Y-62812696D01*
X85494698Y-62501627D01*
X85750000Y-62119541D01*
X86005302Y-62501627D01*
X86470849Y-62812696D01*
X87020000Y-62921929D01*
X87569151Y-62812696D01*
X88034698Y-62501627D01*
X88290000Y-62119541D01*
X88545302Y-62501627D01*
X89010849Y-62812696D01*
X89560000Y-62921929D01*
X90109151Y-62812696D01*
X90574698Y-62501627D01*
X90830000Y-62119541D01*
X91085302Y-62501627D01*
X91550849Y-62812696D01*
X92100000Y-62921929D01*
X92649151Y-62812696D01*
X93114698Y-62501627D01*
X93370000Y-62119541D01*
X93625302Y-62501627D01*
X94090849Y-62812696D01*
X94640000Y-62921929D01*
X95189151Y-62812696D01*
X95654698Y-62501627D01*
X95910000Y-62119541D01*
X96165302Y-62501627D01*
X96630849Y-62812696D01*
X97180000Y-62921929D01*
X97729151Y-62812696D01*
X98194698Y-62501627D01*
X98447864Y-62122738D01*
X98795104Y-62554500D01*
X99288181Y-62824367D01*
X99370961Y-62841904D01*
X99593000Y-62719915D01*
X99593000Y-61127000D01*
X99573000Y-61127000D01*
X99573000Y-60873000D01*
X99593000Y-60873000D01*
X99593000Y-59280085D01*
X99370961Y-59158096D01*
X99288181Y-59175633D01*
X98795104Y-59445500D01*
X98447864Y-59877262D01*
X98194698Y-59498373D01*
X97729151Y-59187304D01*
X97180000Y-59078071D01*
X96630849Y-59187304D01*
X96165302Y-59498373D01*
X95910000Y-59880459D01*
X95654698Y-59498373D01*
X95189151Y-59187304D01*
X94640000Y-59078071D01*
X94090849Y-59187304D01*
X93625302Y-59498373D01*
X93370000Y-59880459D01*
X93114698Y-59498373D01*
X92649151Y-59187304D01*
X92100000Y-59078071D01*
X91550849Y-59187304D01*
X91085302Y-59498373D01*
X90830000Y-59880459D01*
X90574698Y-59498373D01*
X90109151Y-59187304D01*
X89560000Y-59078071D01*
X89010849Y-59187304D01*
X88545302Y-59498373D01*
X88290000Y-59880459D01*
X88034698Y-59498373D01*
X87569151Y-59187304D01*
X87020000Y-59078071D01*
X86470849Y-59187304D01*
X86005302Y-59498373D01*
X85750000Y-59880459D01*
X85494698Y-59498373D01*
X85029151Y-59187304D01*
X84480000Y-59078071D01*
X83930849Y-59187304D01*
X83465302Y-59498373D01*
X83154233Y-59963920D01*
X83045000Y-60513071D01*
X76885000Y-60513071D01*
X76885000Y-53265000D01*
X86878690Y-53265000D01*
X86878690Y-56335000D01*
X98521310Y-56335000D01*
X98521310Y-53265000D01*
X86878690Y-53265000D01*
X76885000Y-53265000D01*
X76885000Y-53094579D01*
X107364786Y-53094579D01*
X107552408Y-53548657D01*
X107899515Y-53896371D01*
X108353266Y-54084785D01*
X108844579Y-54085214D01*
X109298657Y-53897592D01*
X109561708Y-53635000D01*
X115238600Y-53635000D01*
X115499515Y-53896371D01*
X115953266Y-54084785D01*
X116444579Y-54085214D01*
X116898657Y-53897592D01*
X117246371Y-53550485D01*
X117434785Y-53096734D01*
X117435214Y-52605421D01*
X117247592Y-52151343D01*
X116900485Y-51803629D01*
X116446734Y-51615215D01*
X115955421Y-51614786D01*
X115501343Y-51802408D01*
X115238292Y-52065000D01*
X109561400Y-52065000D01*
X109300485Y-51803629D01*
X108846734Y-51615215D01*
X108355421Y-51614786D01*
X107901343Y-51802408D01*
X107553629Y-52149515D01*
X107365215Y-52603266D01*
X107364786Y-53094579D01*
X76885000Y-53094579D01*
X76885000Y-50087544D01*
X76962687Y-50275561D01*
X77869664Y-51184123D01*
X79055294Y-51676439D01*
X79714966Y-51677015D01*
X80032345Y-51990373D01*
X80074535Y-52017968D01*
X80138150Y-52025914D01*
X80655788Y-51957766D01*
X80687812Y-51949185D01*
X81170174Y-51749384D01*
X81198886Y-51732807D01*
X81613099Y-51414970D01*
X81646207Y-51376953D01*
X81661916Y-51329050D01*
X81657751Y-51278809D01*
X81624974Y-51223801D01*
X81556587Y-51156341D01*
X82434123Y-50280336D01*
X82628811Y-49811475D01*
X82835869Y-50015469D01*
X82878089Y-50043019D01*
X82927701Y-50051971D01*
X82976887Y-50040917D01*
X83025755Y-50002313D01*
X83039320Y-49984635D01*
X83055898Y-49955923D01*
X83064425Y-49935337D01*
X83073006Y-49903311D01*
X83075914Y-49881220D01*
X83077000Y-49864645D01*
X83077000Y-47401329D01*
X83452207Y-47401329D01*
X83621992Y-47812242D01*
X83936104Y-48126903D01*
X84316144Y-48284710D01*
X84315855Y-48615766D01*
X83937758Y-48771992D01*
X83623097Y-49086104D01*
X83452594Y-49496720D01*
X83452207Y-49941329D01*
X83621992Y-50352242D01*
X83936104Y-50666903D01*
X84346720Y-50837406D01*
X84791329Y-50837793D01*
X85202242Y-50668008D01*
X85516903Y-50353896D01*
X85674710Y-49973856D01*
X86005766Y-49974145D01*
X86161992Y-50352242D01*
X86476104Y-50666903D01*
X86886720Y-50837406D01*
X87331329Y-50837793D01*
X87742242Y-50668008D01*
X88056903Y-50353896D01*
X88227406Y-49943280D01*
X88227793Y-49498671D01*
X88058008Y-49087758D01*
X87743896Y-48773097D01*
X87363856Y-48615290D01*
X87364145Y-48284234D01*
X87742242Y-48128008D01*
X88056903Y-47813896D01*
X88227406Y-47403280D01*
X88227793Y-46958671D01*
X88058008Y-46547758D01*
X87743896Y-46233097D01*
X87333280Y-46062594D01*
X86888671Y-46062207D01*
X86477758Y-46231992D01*
X86163097Y-46546104D01*
X86005290Y-46926144D01*
X85674234Y-46925855D01*
X85518008Y-46547758D01*
X85203896Y-46233097D01*
X84793280Y-46062594D01*
X84348671Y-46062207D01*
X83937758Y-46231992D01*
X83623097Y-46546104D01*
X83452594Y-46956720D01*
X83452207Y-47401329D01*
X83077000Y-47401329D01*
X83077000Y-46462509D01*
X83221873Y-45734186D01*
X83622235Y-45135000D01*
X133777765Y-45135000D01*
X134178127Y-45734186D01*
G36*
X138891242Y-54001400D02*
X138285750Y-54001400D01*
X138127000Y-54160150D01*
X138127000Y-55373000D01*
X138147000Y-55373000D01*
X138147000Y-55627000D01*
X138127000Y-55627000D01*
X138127000Y-55647000D01*
X137873000Y-55647000D01*
X137873000Y-55627000D01*
X136523750Y-55627000D01*
X136365000Y-55785750D01*
X136365000Y-56489910D01*
X136461673Y-56723299D01*
X136640302Y-56901927D01*
X136788587Y-56963349D01*
X136775237Y-56972269D01*
X136447910Y-57462148D01*
X136332968Y-58040000D01*
X136447910Y-58617852D01*
X136554912Y-58777992D01*
X136400407Y-58674755D01*
X136100000Y-58615000D01*
X135561400Y-58615000D01*
X135300485Y-58353629D01*
X134846734Y-58165215D01*
X134355421Y-58164786D01*
X133901343Y-58352408D01*
X133553629Y-58699515D01*
X133365215Y-59153266D01*
X133364786Y-59644579D01*
X133552408Y-60098657D01*
X133899515Y-60446371D01*
X134353266Y-60634785D01*
X134844579Y-60635214D01*
X135298657Y-60447592D01*
X135561708Y-60185000D01*
X135774842Y-60185000D01*
X136373473Y-60783631D01*
X136447910Y-61157852D01*
X136775237Y-61647731D01*
X137077954Y-61850000D01*
X136775237Y-62052269D01*
X136447910Y-62542148D01*
X136332968Y-63120000D01*
X136447910Y-63697852D01*
X136775237Y-64187731D01*
X137077954Y-64390000D01*
X136775237Y-64592269D01*
X136480687Y-65033094D01*
X136320277Y-65140276D01*
X132195554Y-69265000D01*
X125804447Y-69265000D01*
X125735000Y-69195554D01*
X125735000Y-68830127D01*
X125854229Y-68780862D01*
X126279370Y-68356463D01*
X126509738Y-67801675D01*
X126510262Y-67200960D01*
X126280862Y-66645771D01*
X125865464Y-66229647D01*
X126279370Y-65816463D01*
X126509738Y-65261675D01*
X126510262Y-64660960D01*
X126280862Y-64105771D01*
X125865464Y-63689647D01*
X126279370Y-63276463D01*
X126509738Y-62721675D01*
X126510262Y-62120960D01*
X126280862Y-61565771D01*
X125904834Y-61189085D01*
X127403789Y-61204075D01*
X127114722Y-61492637D01*
X126865284Y-62093352D01*
X126864716Y-62743795D01*
X127113106Y-63344943D01*
X127457759Y-63690199D01*
X127114722Y-64032637D01*
X126865284Y-64633352D01*
X126864716Y-65283795D01*
X127113106Y-65884943D01*
X127457759Y-66230199D01*
X127114722Y-66572637D01*
X126865284Y-67173352D01*
X126864716Y-67823795D01*
X127113106Y-68424943D01*
X127572637Y-68885278D01*
X128173352Y-69134716D01*
X128823795Y-69135284D01*
X129424943Y-68886894D01*
X129885278Y-68427363D01*
X129944392Y-68285000D01*
X130750000Y-68285000D01*
X131050407Y-68225245D01*
X131305079Y-68055079D01*
X132755079Y-66605079D01*
X132925245Y-66350406D01*
X132985000Y-66050000D01*
X132985000Y-61450000D01*
X132925245Y-61149594D01*
X132755079Y-60894921D01*
X131834892Y-59974734D01*
X131835214Y-59605421D01*
X131682170Y-59235029D01*
X131894579Y-59235214D01*
X132348657Y-59047592D01*
X132696371Y-58700485D01*
X132884785Y-58246734D01*
X132885214Y-57755421D01*
X132697592Y-57301343D01*
X132435000Y-57038292D01*
X132435000Y-54756208D01*
X132716277Y-54510090D01*
X136365000Y-54510090D01*
X136365000Y-55214250D01*
X136523750Y-55373000D01*
X137873000Y-55373000D01*
X137873000Y-54160150D01*
X137714250Y-54001400D01*
X136873691Y-54001400D01*
X136640302Y-54098073D01*
X136461673Y-54276701D01*
X136365000Y-54510090D01*
X132716277Y-54510090D01*
X133350124Y-53955474D01*
X138786857Y-53897015D01*
X138891242Y-54001400D01*
X138891242Y-54001400D01*
G37*
X138891242Y-54001400D02*
X138285750Y-54001400D01*
X138127000Y-54160150D01*
X138127000Y-55373000D01*
X138147000Y-55373000D01*
X138147000Y-55627000D01*
X138127000Y-55627000D01*
X138127000Y-55647000D01*
X137873000Y-55647000D01*
X137873000Y-55627000D01*
X136523750Y-55627000D01*
X136365000Y-55785750D01*
X136365000Y-56489910D01*
X136461673Y-56723299D01*
X136640302Y-56901927D01*
X136788587Y-56963349D01*
X136775237Y-56972269D01*
X136447910Y-57462148D01*
X136332968Y-58040000D01*
X136447910Y-58617852D01*
X136554912Y-58777992D01*
X136400407Y-58674755D01*
X136100000Y-58615000D01*
X135561400Y-58615000D01*
X135300485Y-58353629D01*
X134846734Y-58165215D01*
X134355421Y-58164786D01*
X133901343Y-58352408D01*
X133553629Y-58699515D01*
X133365215Y-59153266D01*
X133364786Y-59644579D01*
X133552408Y-60098657D01*
X133899515Y-60446371D01*
X134353266Y-60634785D01*
X134844579Y-60635214D01*
X135298657Y-60447592D01*
X135561708Y-60185000D01*
X135774842Y-60185000D01*
X136373473Y-60783631D01*
X136447910Y-61157852D01*
X136775237Y-61647731D01*
X137077954Y-61850000D01*
X136775237Y-62052269D01*
X136447910Y-62542148D01*
X136332968Y-63120000D01*
X136447910Y-63697852D01*
X136775237Y-64187731D01*
X137077954Y-64390000D01*
X136775237Y-64592269D01*
X136480687Y-65033094D01*
X136320277Y-65140276D01*
X132195554Y-69265000D01*
X125804447Y-69265000D01*
X125735000Y-69195554D01*
X125735000Y-68830127D01*
X125854229Y-68780862D01*
X126279370Y-68356463D01*
X126509738Y-67801675D01*
X126510262Y-67200960D01*
X126280862Y-66645771D01*
X125865464Y-66229647D01*
X126279370Y-65816463D01*
X126509738Y-65261675D01*
X126510262Y-64660960D01*
X126280862Y-64105771D01*
X125865464Y-63689647D01*
X126279370Y-63276463D01*
X126509738Y-62721675D01*
X126510262Y-62120960D01*
X126280862Y-61565771D01*
X125904834Y-61189085D01*
X127403789Y-61204075D01*
X127114722Y-61492637D01*
X126865284Y-62093352D01*
X126864716Y-62743795D01*
X127113106Y-63344943D01*
X127457759Y-63690199D01*
X127114722Y-64032637D01*
X126865284Y-64633352D01*
X126864716Y-65283795D01*
X127113106Y-65884943D01*
X127457759Y-66230199D01*
X127114722Y-66572637D01*
X126865284Y-67173352D01*
X126864716Y-67823795D01*
X127113106Y-68424943D01*
X127572637Y-68885278D01*
X128173352Y-69134716D01*
X128823795Y-69135284D01*
X129424943Y-68886894D01*
X129885278Y-68427363D01*
X129944392Y-68285000D01*
X130750000Y-68285000D01*
X131050407Y-68225245D01*
X131305079Y-68055079D01*
X132755079Y-66605079D01*
X132925245Y-66350406D01*
X132985000Y-66050000D01*
X132985000Y-61450000D01*
X132925245Y-61149594D01*
X132755079Y-60894921D01*
X131834892Y-59974734D01*
X131835214Y-59605421D01*
X131682170Y-59235029D01*
X131894579Y-59235214D01*
X132348657Y-59047592D01*
X132696371Y-58700485D01*
X132884785Y-58246734D01*
X132885214Y-57755421D01*
X132697592Y-57301343D01*
X132435000Y-57038292D01*
X132435000Y-54756208D01*
X132716277Y-54510090D01*
X136365000Y-54510090D01*
X136365000Y-55214250D01*
X136523750Y-55373000D01*
X137873000Y-55373000D01*
X137873000Y-54160150D01*
X137714250Y-54001400D01*
X136873691Y-54001400D01*
X136640302Y-54098073D01*
X136461673Y-54276701D01*
X136365000Y-54510090D01*
X132716277Y-54510090D01*
X133350124Y-53955474D01*
X138786857Y-53897015D01*
X138891242Y-54001400D01*
M02*
