M48
;DRILL file {KiCad 4.0.0-rc1-stable} date Mon 12 Oct 2015 11:01:48 BST
;FORMAT={-:-/ absolute / inch / decimal}
FMAT,2
INCH,TZ
T1C0.030
T2C0.031
T3C0.038
T4C0.039
T5C0.040
T6C0.070
T7C0.108
%
G90
G05
M72
T1
X4.126Y-2.8016
X4.226Y-2.8016
X4.326Y-2.8016
X4.426Y-2.8016
X4.526Y-2.8016
X4.626Y-2.8016
T2
X3.2539Y-3.4941
X3.4783Y-1.9094
X3.5787Y-1.8878
X3.6791Y-1.874
X4.0728Y-3.5413
X4.122Y-3.3543
X4.2874Y-2.0945
X4.6004Y-2.2382
X4.6024Y-2.0945
X4.6654Y-2.3228
X4.7283Y-2.0866
X4.7283Y-2.3228
X4.7913Y-2.3228
X5.1575Y-2.5571
X5.1831Y-2.2835
X5.2992Y-2.3386
X5.3425Y-3.2736
X5.4311Y-3.4862
T3
X3.3295Y-1.8575
X3.3295Y-1.9575
X3.4295Y-1.8575
X3.4295Y-1.9575
X3.5295Y-1.8575
X3.5295Y-1.9575
X3.6295Y-1.8575
X3.6295Y-1.9575
X3.7295Y-1.8575
X3.7295Y-1.9575
X3.8295Y-1.8575
X3.8295Y-1.9575
X3.9295Y-1.8575
X3.9295Y-1.9575
X4.0295Y-1.8575
X4.0295Y-1.9575
X4.1295Y-1.8575
X4.1295Y-1.9575
X4.2295Y-1.8575
X4.2295Y-1.9575
X4.3295Y-1.8575
X4.3295Y-1.9575
X4.4295Y-1.8575
X4.4295Y-1.9575
X4.5295Y-1.8575
X4.5295Y-1.9575
X4.6295Y-1.8575
X4.6295Y-1.9575
X4.7295Y-1.8575
X4.7295Y-1.9575
X4.8295Y-1.8575
X4.8295Y-1.9575
X4.9295Y-1.8575
X4.9295Y-1.9575
X5.0295Y-1.8575
X5.0295Y-1.9575
X5.1295Y-1.8575
X5.1295Y-1.9575
X5.2295Y-1.8575
X5.2295Y-1.9575
T4
X3.326Y-2.4016
X3.326Y-2.7016
X3.426Y-2.4016
X3.426Y-2.7016
X3.526Y-2.4016
X3.526Y-2.7016
X3.626Y-2.4016
X3.626Y-2.7016
X3.726Y-2.4016
X3.726Y-2.7016
X3.826Y-2.4016
X3.826Y-2.7016
X3.878Y-2.9134
X3.926Y-2.4016
X3.926Y-2.7016
X4.026Y-2.4016
X4.026Y-2.7016
X4.126Y-2.4016
X4.126Y-2.7016
X4.226Y-2.4016
X4.226Y-2.7016
X4.326Y-2.4016
X4.326Y-2.7016
X4.426Y-2.4016
X4.426Y-2.7016
X4.526Y-2.4016
X4.526Y-2.7016
X4.626Y-2.4016
X4.626Y-2.7016
X4.8213Y-2.4575
X4.8213Y-2.5575
X4.8213Y-2.6575
X4.9213Y-2.4575
X4.9213Y-2.5575
X4.9213Y-2.6575
X5.0591Y-2.4575
X5.0591Y-2.5575
X5.0591Y-2.6575
X5.315Y-2.9331
X5.315Y-3.0331
X5.4331Y-2.185
X5.4331Y-2.285
X5.4331Y-2.385
X5.4331Y-2.485
X5.4331Y-2.585
X5.4331Y-2.685
T5
X4.4669Y-3.8976
X4.5669Y-3.8976
X5.0378Y-3.8976
X5.1378Y-3.8976
T6
X3.3795Y-1.9075
X5.1795Y-1.9075
T7
X3.1378Y-1.9075
X3.1378Y-3.8366
X5.4213Y-1.9075
X5.4213Y-3.8366
T0
M30
