G04 #@! TF.FileFunction,Copper,L1,Top,Signal*
%FSLAX46Y46*%
G04 Gerber Fmt 4.6, Leading zero omitted, Abs format (unit mm)*
G04 Created by KiCad (PCBNEW 4.0.4+e1-6308~48~ubuntu14.04.1-stable) date Thu Jan 12 15:11:12 2017*
%MOMM*%
%LPD*%
G01*
G04 APERTURE LIST*
%ADD10C,0.100000*%
%ADD11C,0.150000*%
%ADD12R,0.550000X1.600000*%
%ADD13R,1.600000X0.550000*%
%ADD14R,1.250000X1.500000*%
%ADD15R,1.600000X2.000000*%
%ADD16R,2.000000X1.600000*%
%ADD17R,1.500000X1.250000*%
%ADD18R,1.800860X0.800100*%
%ADD19R,0.900000X1.200000*%
%ADD20R,2.032000X1.727200*%
%ADD21O,2.032000X1.727200*%
%ADD22R,2.032000X2.032000*%
%ADD23O,2.032000X2.032000*%
%ADD24R,2.500000X2.500000*%
%ADD25C,2.500000*%
%ADD26R,2.235200X2.235200*%
%ADD27C,1.750000*%
%ADD28R,1.750000X1.750000*%
%ADD29R,1.200000X0.900000*%
%ADD30R,0.600000X1.500000*%
%ADD31R,1.600200X2.199640*%
%ADD32R,1.800860X1.597660*%
%ADD33R,1.000000X3.100000*%
%ADD34R,2.000000X1.000000*%
%ADD35R,0.889000X1.676400*%
%ADD36O,1.200000X1.400000*%
%ADD37R,2.000000X3.800000*%
%ADD38R,2.000000X1.500000*%
%ADD39R,1.750000X1.600000*%
%ADD40O,1.750000X1.600000*%
%ADD41R,1.200000X2.150000*%
%ADD42C,1.400000*%
%ADD43C,1.200000*%
%ADD44C,1.000000*%
%ADD45C,0.200000*%
%ADD46C,0.300000*%
%ADD47C,0.254000*%
G04 APERTURE END LIST*
D10*
X81638095Y-66773810D02*
X82171429Y-66773810D01*
X82019048Y-66773810D02*
X82095238Y-66811905D01*
X82133333Y-66850001D01*
X82171429Y-66926191D01*
X82171429Y-67002382D01*
X81676190Y-67573810D02*
X81638095Y-67497620D01*
X81638095Y-67345239D01*
X81676190Y-67269048D01*
X81752381Y-67230953D01*
X82057143Y-67230953D01*
X82133333Y-67269048D01*
X82171429Y-67345239D01*
X82171429Y-67497620D01*
X82133333Y-67573810D01*
X82057143Y-67611905D01*
X81980952Y-67611905D01*
X81904762Y-67230953D01*
X82171429Y-67878572D02*
X81638095Y-68069048D01*
X82171429Y-68259524D01*
X81714286Y-68564286D02*
X81676190Y-68602381D01*
X81638095Y-68564286D01*
X81676190Y-68526191D01*
X81714286Y-68564286D01*
X81638095Y-68564286D01*
X82438095Y-68869048D02*
X82438095Y-69364286D01*
X82133333Y-69097619D01*
X82133333Y-69211905D01*
X82095238Y-69288095D01*
X82057143Y-69326191D01*
X81980952Y-69364286D01*
X81790476Y-69364286D01*
X81714286Y-69326191D01*
X81676190Y-69288095D01*
X81638095Y-69211905D01*
X81638095Y-68983333D01*
X81676190Y-68907143D01*
X81714286Y-68869048D01*
D11*
X115800000Y-95050000D02*
X115800000Y-96320000D01*
D12*
X109600000Y-61400000D03*
X108800000Y-61400000D03*
X108000000Y-61400000D03*
X107200000Y-61400000D03*
X106400000Y-61400000D03*
X105600000Y-61400000D03*
X104800000Y-61400000D03*
X104000000Y-61400000D03*
D13*
X102550000Y-62850000D03*
X102550000Y-63650000D03*
X102550000Y-64450000D03*
X102550000Y-65250000D03*
X102550000Y-66050000D03*
X102550000Y-66850000D03*
X102550000Y-67650000D03*
X102550000Y-68450000D03*
D12*
X104000000Y-69900000D03*
X104800000Y-69900000D03*
X105600000Y-69900000D03*
X106400000Y-69900000D03*
X107200000Y-69900000D03*
X108000000Y-69900000D03*
X108800000Y-69900000D03*
X109600000Y-69900000D03*
D13*
X111050000Y-68450000D03*
X111050000Y-67650000D03*
X111050000Y-66850000D03*
X111050000Y-66050000D03*
X111050000Y-65250000D03*
X111050000Y-64450000D03*
X111050000Y-63650000D03*
X111050000Y-62850000D03*
D14*
X102600000Y-57500000D03*
X102600000Y-55000000D03*
D15*
X129400000Y-74850000D03*
X129400000Y-78850000D03*
D16*
X124000000Y-70850000D03*
X128000000Y-70850000D03*
D14*
X95800000Y-71300000D03*
X95800000Y-68800000D03*
D17*
X106550000Y-73850000D03*
X109050000Y-73850000D03*
D18*
X125348860Y-62100000D03*
X125348860Y-64000000D03*
X128351140Y-63050000D03*
D19*
X118400000Y-87950000D03*
X118400000Y-90150000D03*
D20*
X138400000Y-55650000D03*
D21*
X138400000Y-58190000D03*
X138400000Y-60730000D03*
X138400000Y-63270000D03*
X138400000Y-65810000D03*
X138400000Y-68350000D03*
D22*
X118400000Y-99250000D03*
D23*
X115860000Y-99250000D03*
D22*
X129600000Y-99250000D03*
D23*
X127060000Y-99250000D03*
D24*
X135800000Y-73910000D03*
D25*
X135800000Y-78990000D03*
D26*
X80400000Y-88250000D03*
D27*
X79000000Y-56050000D03*
X81540000Y-56050000D03*
X79000000Y-58590000D03*
X81540000Y-58590000D03*
X79000000Y-61130000D03*
D28*
X81540000Y-61130000D03*
D29*
X128100000Y-55650000D03*
X125900000Y-55650000D03*
X96100000Y-86450000D03*
X93900000Y-86450000D03*
X128150000Y-58850000D03*
X125950000Y-58850000D03*
X133300000Y-60650000D03*
X131100000Y-60650000D03*
X124100000Y-83250000D03*
X126300000Y-83250000D03*
D19*
X95800000Y-65550000D03*
X95800000Y-63350000D03*
D30*
X101800000Y-60650000D03*
X100600000Y-60650000D03*
X99400000Y-60650000D03*
D31*
X106600000Y-57751140D03*
X106600000Y-54748860D03*
D32*
X118400000Y-92730140D03*
X118400000Y-95569860D03*
D33*
X130400000Y-86400000D03*
X130400000Y-95300000D03*
X126400000Y-95300000D03*
X126400000Y-86400000D03*
X87200000Y-66700000D03*
X87200000Y-57800000D03*
X91200000Y-57800000D03*
X91200000Y-66700000D03*
D34*
X115800000Y-95050000D03*
X115800000Y-96320000D03*
D29*
X88500000Y-87650000D03*
X86300000Y-87650000D03*
X91100000Y-85450000D03*
X88900000Y-85450000D03*
X93700000Y-83050000D03*
X91500000Y-83050000D03*
D35*
X102350000Y-45732200D03*
X94730000Y-51167800D03*
X84570000Y-51167800D03*
X125210000Y-45732200D03*
X127750000Y-45732200D03*
X132830000Y-45732200D03*
X130290000Y-45732200D03*
X104890000Y-45732200D03*
X107430000Y-45732200D03*
X112510000Y-45732200D03*
X109970000Y-45732200D03*
X120130000Y-45732200D03*
X122670000Y-45732200D03*
X117590000Y-45732200D03*
X115050000Y-45732200D03*
X94730000Y-45732200D03*
X97270000Y-45732200D03*
X99810000Y-45732200D03*
X89650000Y-45732200D03*
X92190000Y-45732200D03*
X87110000Y-45732200D03*
X84570000Y-45732200D03*
X132830000Y-51167800D03*
X130290000Y-51167800D03*
X125210000Y-51167800D03*
X127750000Y-51167800D03*
X117590000Y-51167800D03*
X115050000Y-51167800D03*
X120130000Y-51167800D03*
X122670000Y-51167800D03*
X112510000Y-51167800D03*
X109970000Y-51167800D03*
X104890000Y-51167800D03*
X107430000Y-51167800D03*
X87110000Y-51167800D03*
X89650000Y-51167800D03*
X92190000Y-51167800D03*
X102350000Y-51167800D03*
X99810000Y-51167800D03*
D36*
X112510000Y-49920000D03*
X109970000Y-49920000D03*
X115050000Y-49920000D03*
X117590000Y-49920000D03*
X127750000Y-49920000D03*
X125210000Y-49920000D03*
X120130000Y-49920000D03*
X122670000Y-49920000D03*
X130290000Y-49920000D03*
X132830000Y-49920000D03*
X107430000Y-49920000D03*
X104890000Y-49920000D03*
X97270000Y-49920000D03*
X94730000Y-49920000D03*
X99810000Y-49920000D03*
X102350000Y-49920000D03*
X92190000Y-49920000D03*
X89650000Y-49920000D03*
X84570000Y-49920000D03*
X87110000Y-49920000D03*
X87110000Y-46980000D03*
X84570000Y-46980000D03*
X89650000Y-46980000D03*
X92190000Y-46980000D03*
X102350000Y-46980000D03*
X99810000Y-46980000D03*
X94730000Y-46980000D03*
X97270000Y-46980000D03*
X104890000Y-46980000D03*
X107430000Y-46980000D03*
X132830000Y-46980000D03*
X130290000Y-46980000D03*
X122670000Y-46980000D03*
X120130000Y-46980000D03*
X125210000Y-46980000D03*
X127750000Y-46980000D03*
X117590000Y-46980000D03*
X115050000Y-46980000D03*
X109970000Y-46980000D03*
X112510000Y-46980000D03*
D35*
X97270000Y-51167800D03*
D19*
X99400000Y-91950000D03*
X99400000Y-89750000D03*
X99400000Y-87350000D03*
X99400000Y-85150000D03*
D37*
X119250000Y-76450000D03*
D38*
X125550000Y-76450000D03*
X125550000Y-74150000D03*
X125550000Y-78750000D03*
D39*
X104800000Y-84050000D03*
D40*
X107340000Y-84050000D03*
X109880000Y-84050000D03*
D39*
X104800000Y-86650000D03*
D40*
X107340000Y-86650000D03*
X109880000Y-86650000D03*
D39*
X104800000Y-89250000D03*
D40*
X107340000Y-89250000D03*
X109880000Y-89250000D03*
D39*
X104800000Y-91850000D03*
D40*
X107340000Y-91850000D03*
X109880000Y-91850000D03*
D39*
X104800000Y-94450000D03*
D40*
X107340000Y-94450000D03*
X109880000Y-94450000D03*
D39*
X104800000Y-97050000D03*
D40*
X107340000Y-97050000D03*
X109880000Y-97050000D03*
D39*
X104800000Y-81450000D03*
D40*
X107340000Y-81450000D03*
X109880000Y-81450000D03*
D41*
X93810000Y-90325000D03*
X91270000Y-90325000D03*
X88730000Y-90325000D03*
X86190000Y-90325000D03*
X86190000Y-98575000D03*
X88730000Y-98575000D03*
X91270000Y-98575000D03*
X93810000Y-98575000D03*
D42*
X91200000Y-87650000D03*
D43*
X116800000Y-80250000D03*
D42*
X106200000Y-65050000D03*
X104600000Y-74450000D03*
X89200000Y-62250000D03*
X132800000Y-68650000D03*
X104400000Y-55450000D03*
X83600000Y-71450000D03*
X107400000Y-67250000D03*
X100400000Y-58850000D03*
X110000000Y-59250000D03*
X114400000Y-59650000D03*
D43*
X118200000Y-56450000D03*
D42*
X121400000Y-71850000D03*
D43*
X118600000Y-67250000D03*
X108600000Y-68250000D03*
X96800000Y-67050000D03*
X115000000Y-65450000D03*
X118600000Y-65250000D03*
X108600000Y-65250000D03*
X111000000Y-77650000D03*
X103400000Y-78050000D03*
X113600000Y-65650000D03*
X112400000Y-61450000D03*
X99600000Y-80850000D03*
X101800000Y-74650000D03*
X95800000Y-83250000D03*
X95800000Y-80250000D03*
D44*
X102000000Y-72850000D03*
D43*
X93400000Y-69050000D03*
X95800000Y-73250000D03*
D44*
X102800000Y-71850000D03*
D43*
X103400000Y-73250000D03*
X122800000Y-59650000D03*
X113000000Y-55250000D03*
X115400000Y-62650000D03*
X118600000Y-63250000D03*
X97200000Y-79650000D03*
X109600000Y-76050000D03*
X95800000Y-90450000D03*
X107600000Y-63850000D03*
X111600000Y-56850000D03*
X105800000Y-67250000D03*
X121800000Y-58450000D03*
X122000000Y-61850000D03*
X93000000Y-71300000D03*
D45*
X127750000Y-45732200D02*
X127750000Y-47180000D01*
X132830000Y-45732200D02*
X132830000Y-47180000D01*
X130290000Y-45732200D02*
X130290000Y-47180000D01*
X104890000Y-45732200D02*
X104890000Y-47180000D01*
X112510000Y-45732200D02*
X112510000Y-47180000D01*
X109970000Y-45732200D02*
X109970000Y-47180000D01*
X122670000Y-45732200D02*
X122670000Y-47180000D01*
X117590000Y-45732200D02*
X117590000Y-47180000D01*
X115050000Y-45732200D02*
X115050000Y-47180000D01*
X97270000Y-45732200D02*
X97270000Y-47180000D01*
X102350000Y-45732200D02*
X102350000Y-47180000D01*
X87110000Y-45732200D02*
X87110000Y-47180000D01*
X84570000Y-45732200D02*
X84570000Y-47180000D01*
X130290000Y-51167800D02*
X130290000Y-49720000D01*
X125210000Y-51167800D02*
X125210000Y-49720000D01*
X127750000Y-51167800D02*
X127750000Y-49720000D01*
X117590000Y-51167800D02*
X117590000Y-49720000D01*
X120130000Y-51167800D02*
X120130000Y-49720000D01*
X122670000Y-51167800D02*
X122670000Y-49720000D01*
X112510000Y-51167800D02*
X112510000Y-49720000D01*
X109970000Y-51167800D02*
X109970000Y-49720000D01*
X107430000Y-51167800D02*
X107430000Y-49720000D01*
X87110000Y-51167800D02*
X87110000Y-49720000D01*
X89650000Y-51167800D02*
X89650000Y-49720000D01*
X92190000Y-51167800D02*
X92190000Y-49720000D01*
X102350000Y-51167800D02*
X102350000Y-49720000D01*
X99810000Y-51167800D02*
X99810000Y-49720000D01*
X97270000Y-51167800D02*
X97270000Y-49720000D01*
D46*
X99400000Y-91950000D02*
X100500000Y-91950000D01*
X107340000Y-80190000D02*
X107340000Y-81450000D01*
X106800000Y-79650000D02*
X107340000Y-80190000D01*
X103400000Y-79650000D02*
X106800000Y-79650000D01*
X102200000Y-80850000D02*
X103400000Y-79650000D01*
X102200000Y-90250000D02*
X102200000Y-80850000D01*
X100500000Y-91950000D02*
X102200000Y-90250000D01*
X99400000Y-91950000D02*
X97500000Y-91950000D01*
X97500000Y-91950000D02*
X97000000Y-91450000D01*
X99400000Y-87350000D02*
X97900000Y-87350000D01*
X97900000Y-87350000D02*
X97000000Y-88250000D01*
X96400000Y-92050000D02*
X97000000Y-91450000D01*
X93000000Y-92050000D02*
X96400000Y-92050000D01*
X91400000Y-87650000D02*
X92600000Y-88850000D01*
X92600000Y-88850000D02*
X92600000Y-91650000D01*
X92600000Y-91650000D02*
X93000000Y-92050000D01*
X91200000Y-87650000D02*
X91400000Y-87650000D01*
X96100000Y-87350000D02*
X96100000Y-86450000D01*
X97000000Y-88250000D02*
X96100000Y-87350000D01*
X97000000Y-91450000D02*
X97000000Y-88250000D01*
X124100000Y-82550000D02*
X122000000Y-80450000D01*
X116600000Y-80450000D02*
X116800000Y-80250000D01*
X122000000Y-80450000D02*
X116600000Y-80450000D01*
X124100000Y-83250000D02*
X124100000Y-82550000D01*
X91200000Y-87650000D02*
X91100000Y-87650000D01*
X104800000Y-69900000D02*
X104800000Y-74250000D01*
X104800000Y-74250000D02*
X104600000Y-74450000D01*
X104800000Y-69900000D02*
X104800000Y-66450000D01*
X104800000Y-66450000D02*
X106200000Y-65050000D01*
X106200000Y-65050000D02*
X106200000Y-62850000D01*
X91100000Y-85450000D02*
X91100000Y-87650000D01*
X91100000Y-87650000D02*
X91200000Y-87650000D01*
X90400000Y-87650000D02*
X91200000Y-87650000D01*
X90400000Y-87650000D02*
X88500000Y-87650000D01*
X93700000Y-83050000D02*
X93700000Y-84150000D01*
X93700000Y-84150000D02*
X92400000Y-85450000D01*
X92400000Y-85450000D02*
X91100000Y-85450000D01*
X95800000Y-63350000D02*
X95800000Y-60050000D01*
X98350000Y-57500000D02*
X102600000Y-57500000D01*
X95800000Y-60050000D02*
X98350000Y-57500000D01*
X105600000Y-61400000D02*
X105600000Y-62450000D01*
X107200000Y-62450000D02*
X107200000Y-61400000D01*
X106800000Y-62850000D02*
X107200000Y-62450000D01*
X106000000Y-62850000D02*
X106200000Y-62850000D01*
X106200000Y-62850000D02*
X106800000Y-62850000D01*
X105600000Y-62450000D02*
X106000000Y-62850000D01*
X107200000Y-61400000D02*
X107200000Y-58351140D01*
X107200000Y-58351140D02*
X106600000Y-57751140D01*
X102600000Y-57500000D02*
X104250000Y-57500000D01*
X104501140Y-57751140D02*
X106600000Y-57751140D01*
X104250000Y-57500000D02*
X104501140Y-57751140D01*
X87200000Y-57800000D02*
X87200000Y-60250000D01*
X87200000Y-60250000D02*
X89200000Y-62250000D01*
X128000000Y-70850000D02*
X130600000Y-70850000D01*
X130600000Y-70850000D02*
X132800000Y-68650000D01*
X106600000Y-54748860D02*
X105101140Y-54748860D01*
X105101140Y-54748860D02*
X104400000Y-55450000D01*
X107600000Y-72050000D02*
X108600000Y-72050000D01*
X107200000Y-71650000D02*
X107600000Y-72050000D01*
X107200000Y-69900000D02*
X107200000Y-71650000D01*
X109050000Y-72500000D02*
X109050000Y-73850000D01*
X108600000Y-72050000D02*
X109050000Y-72500000D01*
X94730000Y-51167800D02*
X94730000Y-49720000D01*
X115050000Y-51167800D02*
X115050000Y-49720000D01*
X132830000Y-51167800D02*
X132830000Y-49720000D01*
X125210000Y-45732200D02*
X125210000Y-47180000D01*
X120130000Y-45732200D02*
X120130000Y-47180000D01*
X107430000Y-45732200D02*
X107430000Y-47180000D01*
X99810000Y-45732200D02*
X99810000Y-47180000D01*
X89650000Y-45732200D02*
X89650000Y-47180000D01*
X107200000Y-69900000D02*
X107200000Y-67450000D01*
X107200000Y-67450000D02*
X107400000Y-67250000D01*
X100600000Y-60650000D02*
X100600000Y-59050000D01*
X100600000Y-59050000D02*
X100400000Y-58850000D01*
X106400000Y-61400000D02*
X106400000Y-60050000D01*
X106400000Y-60050000D02*
X106200000Y-59850000D01*
X108000000Y-60450000D02*
X109200000Y-59250000D01*
X109200000Y-59250000D02*
X110000000Y-59250000D01*
X108000000Y-61400000D02*
X108000000Y-60450000D01*
X89650000Y-45732200D02*
X88617800Y-45732200D01*
X88617800Y-45732200D02*
X88350000Y-46000000D01*
X88350000Y-46000000D02*
X88350000Y-48500000D01*
X133300000Y-60650000D02*
X138320000Y-60650000D01*
X138320000Y-60650000D02*
X138400000Y-60730000D01*
X129400000Y-78850000D02*
X125650000Y-78850000D01*
X125650000Y-78850000D02*
X125550000Y-78750000D01*
X135800000Y-78990000D02*
X129540000Y-78990000D01*
X129540000Y-78990000D02*
X129400000Y-78850000D01*
X122400000Y-70850000D02*
X124000000Y-70850000D01*
X121400000Y-71850000D02*
X122400000Y-70850000D01*
X124000000Y-70850000D02*
X124000000Y-71450000D01*
X124000000Y-71450000D02*
X125550000Y-73000000D01*
X125550000Y-73000000D02*
X125550000Y-74150000D01*
X128100000Y-55650000D02*
X128100000Y-58800000D01*
X128100000Y-58800000D02*
X128150000Y-58850000D01*
X125348860Y-62100000D02*
X126950000Y-62100000D01*
X126950000Y-62100000D02*
X126900000Y-62150000D01*
X128150000Y-58850000D02*
X128150000Y-60900000D01*
X128150000Y-60900000D02*
X126900000Y-62150000D01*
X126900000Y-62150000D02*
X126900000Y-64550000D01*
X121400000Y-67250000D02*
X118600000Y-67250000D01*
X123400000Y-65250000D02*
X121400000Y-67250000D01*
X126200000Y-65250000D02*
X123400000Y-65250000D01*
X126900000Y-64550000D02*
X126200000Y-65250000D01*
X124600000Y-62200000D02*
X125348860Y-62100000D01*
D45*
X91200000Y-57800000D02*
X91200000Y-66700000D01*
X91200000Y-66700000D02*
X91550000Y-67050000D01*
X91550000Y-67050000D02*
X95800000Y-67050000D01*
X110200000Y-65250000D02*
X109800000Y-65650000D01*
X109800000Y-65650000D02*
X109800000Y-67850000D01*
X109800000Y-67850000D02*
X109400000Y-68250000D01*
X109400000Y-68250000D02*
X108600000Y-68250000D01*
X110200000Y-65250000D02*
X111050000Y-65250000D01*
X95800000Y-67050000D02*
X96800000Y-67050000D01*
X95800000Y-68800000D02*
X95800000Y-67050000D01*
X95800000Y-67050000D02*
X95800000Y-65550000D01*
X106400000Y-69900000D02*
X106400000Y-73700000D01*
X106400000Y-73700000D02*
X106550000Y-73850000D01*
X118400000Y-90150000D02*
X118400000Y-92730140D01*
X111050000Y-64450000D02*
X114000000Y-64450000D01*
X114000000Y-64450000D02*
X115000000Y-65450000D01*
X111050000Y-63650000D02*
X114600000Y-63650000D01*
X116200000Y-65250000D02*
X118600000Y-65250000D01*
X114600000Y-63650000D02*
X116200000Y-65250000D01*
X111000000Y-77650000D02*
X104200000Y-77650000D01*
X110000000Y-62850000D02*
X108600000Y-64250000D01*
X108600000Y-64250000D02*
X108600000Y-65250000D01*
X111050000Y-62850000D02*
X110000000Y-62850000D01*
X103800000Y-78050000D02*
X103400000Y-78050000D01*
X104200000Y-77650000D02*
X103800000Y-78050000D01*
X114400000Y-66450000D02*
X113600000Y-65650000D01*
X114400000Y-74850000D02*
X114400000Y-66450000D01*
X115800000Y-77650000D02*
X118000000Y-79850000D01*
X115800000Y-76250000D02*
X115800000Y-77650000D01*
X114400000Y-74850000D02*
X115800000Y-76250000D01*
X122600000Y-79850000D02*
X118000000Y-79850000D01*
X112400000Y-61450000D02*
X112350000Y-61400000D01*
X109600000Y-61400000D02*
X112350000Y-61400000D01*
X126000000Y-83250000D02*
X122600000Y-79850000D01*
X126300000Y-83250000D02*
X126000000Y-83250000D01*
X126400000Y-86400000D02*
X126400000Y-83350000D01*
X126400000Y-83350000D02*
X126300000Y-83250000D01*
X126400000Y-95300000D02*
X126400000Y-86400000D01*
X127060000Y-99250000D02*
X127060000Y-98510000D01*
X127060000Y-98510000D02*
X126400000Y-97850000D01*
X126400000Y-97850000D02*
X126400000Y-95300000D01*
X91200000Y-81450000D02*
X99000000Y-81450000D01*
X96800000Y-77850000D02*
X92200000Y-77850000D01*
X92200000Y-77850000D02*
X90800000Y-79250000D01*
X90800000Y-79250000D02*
X90800000Y-81050000D01*
X90800000Y-81050000D02*
X91200000Y-81450000D01*
X102550000Y-66050000D02*
X100600000Y-66050000D01*
X100600000Y-66050000D02*
X100200000Y-66450000D01*
X100200000Y-66450000D02*
X100200000Y-74450000D01*
X100200000Y-74450000D02*
X96800000Y-77850000D01*
X99000000Y-81450000D02*
X99600000Y-80850000D01*
X115800000Y-96320000D02*
X115800000Y-99190000D01*
X115800000Y-99190000D02*
X115860000Y-99250000D01*
X115060000Y-99000000D02*
X115060000Y-98960000D01*
X101800000Y-74650000D02*
X101200000Y-74650000D01*
X99400000Y-83650000D02*
X99400000Y-85150000D01*
X99000000Y-83250000D02*
X99400000Y-83650000D01*
X95800000Y-83250000D02*
X99000000Y-83250000D01*
X95800000Y-79250000D02*
X95800000Y-80250000D01*
X96400000Y-78650000D02*
X95800000Y-79250000D01*
X97200000Y-78650000D02*
X96400000Y-78650000D01*
X101200000Y-74650000D02*
X97200000Y-78650000D01*
X101200000Y-66850000D02*
X100800000Y-67250000D01*
X100800000Y-67250000D02*
X100800000Y-73450000D01*
X100800000Y-73450000D02*
X101800000Y-74450000D01*
X102550000Y-66850000D02*
X101200000Y-66850000D01*
X102000000Y-72850000D02*
X101400000Y-72250000D01*
X101400000Y-72250000D02*
X101400000Y-67850000D01*
X101400000Y-67850000D02*
X101600000Y-67650000D01*
X102550000Y-67650000D02*
X101600000Y-67650000D01*
X93400000Y-69050000D02*
X93400000Y-69450000D01*
X97000000Y-72050000D02*
X95800000Y-73250000D01*
X97000000Y-70450000D02*
X97000000Y-72050000D01*
X96600000Y-70050000D02*
X97000000Y-70450000D01*
X94000000Y-70050000D02*
X96600000Y-70050000D01*
X93400000Y-69450000D02*
X94000000Y-70050000D01*
X102550000Y-71600000D02*
X102550000Y-68450000D01*
X102800000Y-71850000D02*
X102550000Y-71600000D01*
X104000000Y-72650000D02*
X104000000Y-69900000D01*
X103400000Y-73250000D02*
X104000000Y-72650000D01*
X94730000Y-45732200D02*
X94730000Y-47180000D01*
X95500000Y-45750000D02*
X94747800Y-45750000D01*
X94747800Y-45750000D02*
X94730000Y-45732200D01*
X94730000Y-45732200D02*
X95082200Y-45732200D01*
X95482200Y-45732200D02*
X95500000Y-45750000D01*
X95500000Y-45750000D02*
X96000000Y-46250000D01*
X96000000Y-46250000D02*
X96000000Y-47450000D01*
X96000000Y-47450000D02*
X96600000Y-48050000D01*
X96600000Y-48050000D02*
X112400000Y-48050000D01*
X112400000Y-48050000D02*
X113800000Y-49450000D01*
X113800000Y-49450000D02*
X113800000Y-53250000D01*
X113800000Y-53250000D02*
X115400000Y-54850000D01*
X115400000Y-54850000D02*
X120800000Y-54850000D01*
X120800000Y-54850000D02*
X122800000Y-56850000D01*
X122800000Y-56850000D02*
X122800000Y-59650000D01*
X92190000Y-45732200D02*
X92190000Y-47180000D01*
X93082200Y-45732200D02*
X93400000Y-46050000D01*
X93400000Y-46050000D02*
X93400000Y-47250000D01*
X93400000Y-47250000D02*
X94800000Y-48650000D01*
X94800000Y-48650000D02*
X110200000Y-48650000D01*
X110200000Y-48650000D02*
X111200000Y-49650000D01*
X93082200Y-45732200D02*
X92190000Y-45732200D01*
X111200000Y-53450000D02*
X111200000Y-49650000D01*
X113000000Y-55250000D02*
X111200000Y-53450000D01*
D46*
X84570000Y-51167800D02*
X84570000Y-49720000D01*
X104890000Y-51167800D02*
X104890000Y-49720000D01*
X115400000Y-62650000D02*
X109800000Y-57050000D01*
X109800000Y-57050000D02*
X109800000Y-54450000D01*
X109800000Y-54450000D02*
X108200000Y-52850000D01*
X108200000Y-52850000D02*
X104890000Y-52850000D01*
X104890000Y-51167800D02*
X104890000Y-52850000D01*
X104890000Y-52850000D02*
X85600000Y-52850000D01*
X84570000Y-51167800D02*
X84570000Y-51820000D01*
X84570000Y-51820000D02*
X85600000Y-52850000D01*
D45*
X115800000Y-95050000D02*
X115800000Y-89050000D01*
X116900000Y-87950000D02*
X118400000Y-87950000D01*
X115800000Y-89050000D02*
X116900000Y-87950000D01*
X131100000Y-60650000D02*
X131100000Y-63050000D01*
X131100000Y-63050000D02*
X131000000Y-63050000D01*
X128351140Y-63050000D02*
X131000000Y-63050000D01*
X131000000Y-63050000D02*
X138180000Y-63050000D01*
X138180000Y-63050000D02*
X138400000Y-63270000D01*
X125950000Y-58850000D02*
X125950000Y-59100000D01*
X125950000Y-59100000D02*
X123200000Y-61850000D01*
X123200000Y-61850000D02*
X123200000Y-64000000D01*
X124550000Y-64000000D02*
X125348860Y-64000000D01*
X125700000Y-58850000D02*
X125700000Y-58950000D01*
X125348860Y-64000000D02*
X123200000Y-64000000D01*
X123200000Y-64000000D02*
X121350000Y-64000000D01*
X120600000Y-63250000D02*
X118600000Y-63250000D01*
X121350000Y-64000000D02*
X120600000Y-63250000D01*
X125348860Y-64000000D02*
X125800000Y-64000000D01*
X100800000Y-76050000D02*
X97200000Y-79650000D01*
X109600000Y-76050000D02*
X100800000Y-76050000D01*
X95675000Y-90325000D02*
X93810000Y-90325000D01*
X95800000Y-90450000D02*
X95675000Y-90325000D01*
X108800000Y-61400000D02*
X108800000Y-62650000D01*
X108800000Y-62650000D02*
X107600000Y-63850000D01*
X93810000Y-90325000D02*
X93810000Y-86560000D01*
X93810000Y-86560000D02*
X93700000Y-86450000D01*
X104800000Y-61400000D02*
X104800000Y-60450000D01*
X102400000Y-60050000D02*
X101800000Y-60650000D01*
X104400000Y-60050000D02*
X102400000Y-60050000D01*
X104800000Y-60450000D02*
X104400000Y-60050000D01*
X99400000Y-60650000D02*
X99400000Y-61650000D01*
X103250000Y-61400000D02*
X104000000Y-61400000D01*
X102800000Y-61850000D02*
X103250000Y-61400000D01*
X99600000Y-61850000D02*
X102800000Y-61850000D01*
X99400000Y-61650000D02*
X99600000Y-61850000D01*
X99400000Y-89750000D02*
X100300000Y-89750000D01*
X100600000Y-82650000D02*
X100000000Y-82050000D01*
X100600000Y-89450000D02*
X100600000Y-82650000D01*
X100300000Y-89750000D02*
X100600000Y-89450000D01*
X100000000Y-82050000D02*
X103000000Y-79050000D01*
X102550000Y-65250000D02*
X100200000Y-65250000D01*
X100200000Y-65250000D02*
X99600000Y-65850000D01*
X99600000Y-65850000D02*
X99600000Y-74250000D01*
X100000000Y-82050000D02*
X90600000Y-82050000D01*
X90600000Y-82050000D02*
X90200000Y-81650000D01*
X90200000Y-81650000D02*
X90200000Y-79050000D01*
X90200000Y-79050000D02*
X92000000Y-77250000D01*
X92000000Y-77250000D02*
X96600000Y-77250000D01*
X96600000Y-77250000D02*
X99600000Y-74250000D01*
X111200000Y-81450000D02*
X109880000Y-81450000D01*
X111000000Y-79050000D02*
X103800000Y-79050000D01*
X111600000Y-79650000D02*
X111000000Y-79050000D01*
X111600000Y-81050000D02*
X111600000Y-79650000D01*
X111600000Y-81050000D02*
X111200000Y-81450000D01*
X103800000Y-79050000D02*
X103800000Y-79050000D01*
X103000000Y-79050000D02*
X103800000Y-79050000D01*
X121800000Y-58450000D02*
X122200000Y-58050000D01*
X105800000Y-67250000D02*
X105600000Y-67450000D01*
X105600000Y-67450000D02*
X105600000Y-69900000D01*
X112800000Y-56850000D02*
X111600000Y-56850000D01*
X114200000Y-55450000D02*
X112800000Y-56850000D01*
X120600000Y-55450000D02*
X114200000Y-55450000D01*
X122200000Y-57050000D02*
X120600000Y-55450000D01*
X122200000Y-58050000D02*
X122200000Y-57050000D01*
X121800000Y-58450000D02*
X121600000Y-58250000D01*
X109880000Y-84050000D02*
X111200000Y-84050000D01*
X112200000Y-83050000D02*
X111200000Y-84050000D01*
X108800000Y-71250000D02*
X109200000Y-71650000D01*
X108800000Y-71250000D02*
X108800000Y-69900000D01*
X110800000Y-76050000D02*
X112200000Y-77450000D01*
X110800000Y-72050000D02*
X110800000Y-76050000D01*
X110400000Y-71650000D02*
X110800000Y-72050000D01*
X109200000Y-71650000D02*
X110400000Y-71650000D01*
X112200000Y-77450000D02*
X112200000Y-83050000D01*
X109880000Y-86650000D02*
X111200000Y-86650000D01*
X112800000Y-85050000D02*
X111200000Y-86650000D01*
X112800000Y-77250000D02*
X112800000Y-85050000D01*
X111400000Y-75850000D02*
X111400000Y-71850000D01*
X111400000Y-75850000D02*
X112800000Y-77250000D01*
X111400000Y-71850000D02*
X109400000Y-69850000D01*
X109400000Y-69850000D02*
X109650000Y-69850000D01*
X109650000Y-69850000D02*
X109600000Y-69900000D01*
X109880000Y-89250000D02*
X111200000Y-89250000D01*
X113400000Y-87050000D02*
X111200000Y-89250000D01*
X113400000Y-85450000D02*
X113400000Y-85450000D01*
X113400000Y-77050000D02*
X113400000Y-85450000D01*
X112000000Y-75650000D02*
X112000000Y-69400000D01*
X112000000Y-75650000D02*
X113400000Y-77050000D01*
X112000000Y-69400000D02*
X111050000Y-68450000D01*
X113400000Y-85450000D02*
X113400000Y-87050000D01*
X109880000Y-91850000D02*
X111200000Y-91850000D01*
X112200000Y-67650000D02*
X111050000Y-67650000D01*
X112200000Y-67650000D02*
X112600000Y-68050000D01*
X112600000Y-68050000D02*
X112600000Y-75450000D01*
X112600000Y-75450000D02*
X114000000Y-76850000D01*
X114000000Y-76850000D02*
X114000000Y-85650000D01*
X114000000Y-85650000D02*
X114000000Y-85650000D01*
X114000000Y-85650000D02*
X114000000Y-89050000D01*
X114000000Y-89050000D02*
X111200000Y-91850000D01*
X109880000Y-94450000D02*
X111200000Y-94450000D01*
X114600000Y-91050000D02*
X111200000Y-94450000D01*
X114600000Y-85850000D02*
X114600000Y-85850000D01*
X114600000Y-76650000D02*
X114600000Y-85850000D01*
X113200000Y-75250000D02*
X114600000Y-76650000D01*
X113200000Y-67650000D02*
X113200000Y-75250000D01*
X112400000Y-66850000D02*
X113200000Y-67650000D01*
X112400000Y-66850000D02*
X111050000Y-66850000D01*
X114600000Y-85850000D02*
X114600000Y-91050000D01*
X112600000Y-66050000D02*
X111050000Y-66050000D01*
X112600000Y-66050000D02*
X113800000Y-67250000D01*
X113800000Y-67250000D02*
X113800000Y-75050000D01*
X113800000Y-75050000D02*
X115200000Y-76450000D01*
X115200000Y-76450000D02*
X115200000Y-93050000D01*
X109880000Y-97050000D02*
X111200000Y-97050000D01*
X111200000Y-97050000D02*
X115200000Y-93050000D01*
X125900000Y-55650000D02*
X125600000Y-55650000D01*
X125600000Y-55650000D02*
X124400000Y-56850000D01*
X124400000Y-56850000D02*
X124400000Y-59450000D01*
X124400000Y-59450000D02*
X122000000Y-61850000D01*
X88200000Y-83650000D02*
X88200000Y-78650000D01*
X87200000Y-84650000D02*
X88200000Y-83650000D01*
X91270000Y-90325000D02*
X91270000Y-91580000D01*
X99000000Y-62850000D02*
X102550000Y-62850000D01*
X97800000Y-64050000D02*
X99000000Y-62850000D01*
X97800000Y-73650000D02*
X97800000Y-64050000D01*
X83600000Y-86650000D02*
X85600000Y-84650000D01*
X83600000Y-91250000D02*
X83600000Y-86650000D01*
X85000000Y-92650000D02*
X83600000Y-91250000D01*
X90200000Y-92650000D02*
X85000000Y-92650000D01*
X91270000Y-91580000D02*
X90200000Y-92650000D01*
X85600000Y-84650000D02*
X87200000Y-84650000D01*
X96000000Y-75450000D02*
X97800000Y-73650000D01*
X91400000Y-75450000D02*
X96000000Y-75450000D01*
X88200000Y-78650000D02*
X91400000Y-75450000D01*
X91270000Y-90325000D02*
X91270000Y-89320000D01*
X91270000Y-89320000D02*
X90600000Y-88650000D01*
X90600000Y-88650000D02*
X87300000Y-88650000D01*
X87300000Y-88650000D02*
X86300000Y-87650000D01*
X88900000Y-85450000D02*
X88900000Y-78750000D01*
X99400000Y-63650000D02*
X102550000Y-63650000D01*
X98400000Y-64650000D02*
X98400000Y-73850000D01*
X99400000Y-63650000D02*
X98400000Y-64650000D01*
X96200000Y-76050000D02*
X98400000Y-73850000D01*
X91600000Y-76050000D02*
X96200000Y-76050000D01*
X88900000Y-78750000D02*
X91600000Y-76050000D01*
X88730000Y-90325000D02*
X88730000Y-90920000D01*
X88730000Y-90920000D02*
X87800000Y-91850000D01*
X87800000Y-91850000D02*
X85200000Y-91850000D01*
X85200000Y-91850000D02*
X84200000Y-90850000D01*
X84200000Y-90850000D02*
X84200000Y-86850000D01*
X84200000Y-86850000D02*
X85600000Y-85450000D01*
X85600000Y-85450000D02*
X88900000Y-85450000D01*
X91500000Y-83050000D02*
X90800000Y-83050000D01*
X99800000Y-64450000D02*
X102550000Y-64450000D01*
X99000000Y-65250000D02*
X99000000Y-74050000D01*
X99800000Y-64450000D02*
X99000000Y-65250000D01*
X96400000Y-76650000D02*
X99000000Y-74050000D01*
X91800000Y-76650000D02*
X96400000Y-76650000D01*
X89600000Y-78850000D02*
X91800000Y-76650000D01*
X89600000Y-81850000D02*
X89600000Y-78850000D01*
X90800000Y-83050000D02*
X89600000Y-81850000D01*
X86190000Y-90325000D02*
X85875000Y-90325000D01*
X85875000Y-90325000D02*
X84800000Y-89250000D01*
X84800000Y-89250000D02*
X84800000Y-87250000D01*
X84800000Y-87250000D02*
X85600000Y-86450000D01*
X85600000Y-86450000D02*
X89600000Y-86450000D01*
X89600000Y-86450000D02*
X90000000Y-86050000D01*
X90000000Y-86050000D02*
X90000000Y-84050000D01*
X90000000Y-84050000D02*
X91000000Y-83050000D01*
X91000000Y-83050000D02*
X91500000Y-83050000D01*
X95800000Y-71300000D02*
X93000000Y-71300000D01*
D47*
G36*
X83478060Y-46307822D02*
X83429009Y-46381232D01*
X83335000Y-46853846D01*
X83335000Y-47106154D01*
X83429009Y-47578768D01*
X83696723Y-47979431D01*
X84097386Y-48247145D01*
X84316138Y-48290658D01*
X84315860Y-48609398D01*
X84097386Y-48652855D01*
X83696723Y-48920569D01*
X83429009Y-49321232D01*
X83335000Y-49793846D01*
X83335000Y-50046154D01*
X83429009Y-50518768D01*
X83478060Y-50592178D01*
X83478060Y-52006000D01*
X83522338Y-52241317D01*
X83661410Y-52457441D01*
X83873610Y-52602431D01*
X84125500Y-52653440D01*
X84293282Y-52653440D01*
X85044921Y-53405079D01*
X85299593Y-53575245D01*
X85600000Y-53635000D01*
X101800406Y-53635000D01*
X101615301Y-53711673D01*
X101436673Y-53890302D01*
X101340000Y-54123691D01*
X101340000Y-54714250D01*
X101498750Y-54873000D01*
X102473000Y-54873000D01*
X102473000Y-54853000D01*
X102727000Y-54853000D01*
X102727000Y-54873000D01*
X103701250Y-54873000D01*
X103860000Y-54714250D01*
X103860000Y-54123691D01*
X103763327Y-53890302D01*
X103584699Y-53711673D01*
X103399594Y-53635000D01*
X105164900Y-53635000D01*
X105164900Y-54463110D01*
X105323650Y-54621860D01*
X106473000Y-54621860D01*
X106473000Y-54601860D01*
X106727000Y-54601860D01*
X106727000Y-54621860D01*
X107876350Y-54621860D01*
X108035100Y-54463110D01*
X108035100Y-53795258D01*
X109015000Y-54775158D01*
X109015000Y-57050000D01*
X109074755Y-57350407D01*
X109244921Y-57605079D01*
X111942575Y-60302733D01*
X111701343Y-60402408D01*
X111438292Y-60665000D01*
X110522440Y-60665000D01*
X110522440Y-60600000D01*
X110478162Y-60364683D01*
X110339090Y-60148559D01*
X110126890Y-60003569D01*
X109875000Y-59952560D01*
X109325000Y-59952560D01*
X109195411Y-59976944D01*
X109075000Y-59952560D01*
X108525000Y-59952560D01*
X108419295Y-59972450D01*
X108401310Y-59965000D01*
X108285750Y-59965000D01*
X108189349Y-60061401D01*
X108073559Y-60135910D01*
X108000116Y-60243397D01*
X107985000Y-60219905D01*
X107985000Y-59119726D01*
X107996531Y-59102850D01*
X108047540Y-58850960D01*
X108047540Y-56651320D01*
X108003262Y-56416003D01*
X107896584Y-56250221D01*
X107938427Y-56208378D01*
X108035100Y-55974989D01*
X108035100Y-55034610D01*
X107876350Y-54875860D01*
X106727000Y-54875860D01*
X106727000Y-54895860D01*
X106473000Y-54895860D01*
X106473000Y-54875860D01*
X105323650Y-54875860D01*
X105164900Y-55034610D01*
X105164900Y-55974989D01*
X105261573Y-56208378D01*
X105304606Y-56251411D01*
X105203469Y-56399430D01*
X105152460Y-56651320D01*
X105152460Y-56966140D01*
X104826298Y-56966140D01*
X104805079Y-56944921D01*
X104550407Y-56774755D01*
X104250000Y-56715000D01*
X103865854Y-56715000D01*
X103828162Y-56514683D01*
X103689090Y-56298559D01*
X103620994Y-56252031D01*
X103763327Y-56109698D01*
X103860000Y-55876309D01*
X103860000Y-55285750D01*
X103701250Y-55127000D01*
X102727000Y-55127000D01*
X102727000Y-55147000D01*
X102473000Y-55147000D01*
X102473000Y-55127000D01*
X101498750Y-55127000D01*
X101340000Y-55285750D01*
X101340000Y-55876309D01*
X101436673Y-56109698D01*
X101577910Y-56250936D01*
X101523559Y-56285910D01*
X101378569Y-56498110D01*
X101334648Y-56715000D01*
X98350005Y-56715000D01*
X98350000Y-56714999D01*
X98049594Y-56774755D01*
X97794921Y-56944921D01*
X95244921Y-59494921D01*
X95074755Y-59749593D01*
X95051799Y-59865000D01*
X95015000Y-60050000D01*
X95015000Y-62210982D01*
X94898559Y-62285910D01*
X94753569Y-62498110D01*
X94702560Y-62750000D01*
X94702560Y-63950000D01*
X94746838Y-64185317D01*
X94885910Y-64401441D01*
X94955711Y-64449134D01*
X94898559Y-64485910D01*
X94753569Y-64698110D01*
X94702560Y-64950000D01*
X94702560Y-66150000D01*
X94733607Y-66315000D01*
X92347440Y-66315000D01*
X92347440Y-65150000D01*
X92303162Y-64914683D01*
X92164090Y-64698559D01*
X91951890Y-64553569D01*
X91935000Y-64550149D01*
X91935000Y-59953222D01*
X91935317Y-59953162D01*
X92151441Y-59814090D01*
X92296431Y-59601890D01*
X92347440Y-59350000D01*
X92347440Y-56250000D01*
X92303162Y-56014683D01*
X92164090Y-55798559D01*
X91951890Y-55653569D01*
X91700000Y-55602560D01*
X90700000Y-55602560D01*
X90464683Y-55646838D01*
X90248559Y-55785910D01*
X90103569Y-55998110D01*
X90052560Y-56250000D01*
X90052560Y-59350000D01*
X90096838Y-59585317D01*
X90235910Y-59801441D01*
X90448110Y-59946431D01*
X90465000Y-59949851D01*
X90465000Y-64546778D01*
X90464683Y-64546838D01*
X90248559Y-64685910D01*
X90103569Y-64898110D01*
X90052560Y-65150000D01*
X90052560Y-68250000D01*
X90096838Y-68485317D01*
X90235910Y-68701441D01*
X90448110Y-68846431D01*
X90700000Y-68897440D01*
X91700000Y-68897440D01*
X91935317Y-68853162D01*
X92151441Y-68714090D01*
X92280948Y-68524550D01*
X92165215Y-68803266D01*
X92164786Y-69294579D01*
X92352408Y-69748657D01*
X92693518Y-70090364D01*
X92301343Y-70252408D01*
X91953629Y-70599515D01*
X91765215Y-71053266D01*
X91764786Y-71544579D01*
X91952408Y-71998657D01*
X92299515Y-72346371D01*
X92753266Y-72534785D01*
X93244579Y-72535214D01*
X93698657Y-72347592D01*
X94011796Y-72035000D01*
X94527560Y-72035000D01*
X94527560Y-72050000D01*
X94571838Y-72285317D01*
X94710910Y-72501441D01*
X94764860Y-72538304D01*
X94753629Y-72549515D01*
X94565215Y-73003266D01*
X94564786Y-73494579D01*
X94752408Y-73948657D01*
X95099515Y-74296371D01*
X95553266Y-74484785D01*
X95925444Y-74485110D01*
X95695554Y-74715000D01*
X91400000Y-74715000D01*
X91165394Y-74761667D01*
X91118727Y-74770949D01*
X90880276Y-74930277D01*
X87680277Y-78130277D01*
X87520949Y-78368728D01*
X87465000Y-78650000D01*
X87465000Y-83345553D01*
X86895554Y-83915000D01*
X85600000Y-83915000D01*
X85318728Y-83970949D01*
X85080276Y-84130277D01*
X83080277Y-86130277D01*
X82920949Y-86368728D01*
X82865000Y-86650000D01*
X82865000Y-91250000D01*
X82902739Y-91439723D01*
X82920949Y-91531272D01*
X83080277Y-91769723D01*
X84480277Y-93169723D01*
X84718728Y-93329051D01*
X85000000Y-93385000D01*
X90200000Y-93385000D01*
X90481272Y-93329051D01*
X90719723Y-93169723D01*
X91789724Y-92099723D01*
X91824658Y-92047440D01*
X91870000Y-92047440D01*
X91931818Y-92035808D01*
X92044921Y-92205079D01*
X92444921Y-92605079D01*
X92699594Y-92775245D01*
X93000000Y-92835000D01*
X96400000Y-92835000D01*
X96700407Y-92775245D01*
X96955079Y-92605079D01*
X97010956Y-92549202D01*
X97199594Y-92675245D01*
X97500000Y-92735000D01*
X98337370Y-92735000D01*
X98346838Y-92785317D01*
X98485910Y-93001441D01*
X98698110Y-93146431D01*
X98950000Y-93197440D01*
X99850000Y-93197440D01*
X100085317Y-93153162D01*
X100301441Y-93014090D01*
X100446431Y-92801890D01*
X100459977Y-92735000D01*
X100500000Y-92735000D01*
X100800407Y-92675245D01*
X101055079Y-92505079D01*
X101424408Y-92135750D01*
X103290000Y-92135750D01*
X103290000Y-92776309D01*
X103386673Y-93009698D01*
X103526974Y-93150000D01*
X103386673Y-93290302D01*
X103290000Y-93523691D01*
X103290000Y-94164250D01*
X103448750Y-94323000D01*
X104673000Y-94323000D01*
X104673000Y-93173750D01*
X104649250Y-93150000D01*
X104673000Y-93126250D01*
X104673000Y-91977000D01*
X103448750Y-91977000D01*
X103290000Y-92135750D01*
X101424408Y-92135750D01*
X102755079Y-90805079D01*
X102925245Y-90550407D01*
X102985000Y-90250000D01*
X102985000Y-89535750D01*
X103290000Y-89535750D01*
X103290000Y-90176309D01*
X103386673Y-90409698D01*
X103526974Y-90550000D01*
X103386673Y-90690302D01*
X103290000Y-90923691D01*
X103290000Y-91564250D01*
X103448750Y-91723000D01*
X104673000Y-91723000D01*
X104673000Y-90573750D01*
X104649250Y-90550000D01*
X104673000Y-90526250D01*
X104673000Y-89377000D01*
X103448750Y-89377000D01*
X103290000Y-89535750D01*
X102985000Y-89535750D01*
X102985000Y-86935750D01*
X103290000Y-86935750D01*
X103290000Y-87576309D01*
X103386673Y-87809698D01*
X103526974Y-87950000D01*
X103386673Y-88090302D01*
X103290000Y-88323691D01*
X103290000Y-88964250D01*
X103448750Y-89123000D01*
X104673000Y-89123000D01*
X104673000Y-87973750D01*
X104649250Y-87950000D01*
X104673000Y-87926250D01*
X104673000Y-86777000D01*
X103448750Y-86777000D01*
X103290000Y-86935750D01*
X102985000Y-86935750D01*
X102985000Y-84335750D01*
X103290000Y-84335750D01*
X103290000Y-84976309D01*
X103386673Y-85209698D01*
X103526974Y-85350000D01*
X103386673Y-85490302D01*
X103290000Y-85723691D01*
X103290000Y-86364250D01*
X103448750Y-86523000D01*
X104673000Y-86523000D01*
X104673000Y-85373750D01*
X104649250Y-85350000D01*
X104673000Y-85326250D01*
X104673000Y-84177000D01*
X103448750Y-84177000D01*
X103290000Y-84335750D01*
X102985000Y-84335750D01*
X102985000Y-81735750D01*
X103290000Y-81735750D01*
X103290000Y-82376309D01*
X103386673Y-82609698D01*
X103526974Y-82750000D01*
X103386673Y-82890302D01*
X103290000Y-83123691D01*
X103290000Y-83764250D01*
X103448750Y-83923000D01*
X104673000Y-83923000D01*
X104673000Y-82773750D01*
X104649250Y-82750000D01*
X104673000Y-82726250D01*
X104673000Y-81577000D01*
X103448750Y-81577000D01*
X103290000Y-81735750D01*
X102985000Y-81735750D01*
X102985000Y-81175158D01*
X103290000Y-80870158D01*
X103290000Y-81164250D01*
X103448750Y-81323000D01*
X104673000Y-81323000D01*
X104673000Y-81303000D01*
X104927000Y-81303000D01*
X104927000Y-81323000D01*
X104947000Y-81323000D01*
X104947000Y-81577000D01*
X104927000Y-81577000D01*
X104927000Y-82726250D01*
X104950750Y-82750000D01*
X104927000Y-82773750D01*
X104927000Y-83923000D01*
X104947000Y-83923000D01*
X104947000Y-84177000D01*
X104927000Y-84177000D01*
X104927000Y-85326250D01*
X104950750Y-85350000D01*
X104927000Y-85373750D01*
X104927000Y-86523000D01*
X104947000Y-86523000D01*
X104947000Y-86777000D01*
X104927000Y-86777000D01*
X104927000Y-87926250D01*
X104950750Y-87950000D01*
X104927000Y-87973750D01*
X104927000Y-89123000D01*
X104947000Y-89123000D01*
X104947000Y-89377000D01*
X104927000Y-89377000D01*
X104927000Y-90526250D01*
X104950750Y-90550000D01*
X104927000Y-90573750D01*
X104927000Y-91723000D01*
X104947000Y-91723000D01*
X104947000Y-91977000D01*
X104927000Y-91977000D01*
X104927000Y-93126250D01*
X104950750Y-93150000D01*
X104927000Y-93173750D01*
X104927000Y-94323000D01*
X104947000Y-94323000D01*
X104947000Y-94577000D01*
X104927000Y-94577000D01*
X104927000Y-95726250D01*
X104950750Y-95750000D01*
X104927000Y-95773750D01*
X104927000Y-96923000D01*
X104947000Y-96923000D01*
X104947000Y-97177000D01*
X104927000Y-97177000D01*
X104927000Y-98326250D01*
X105085750Y-98485000D01*
X105801310Y-98485000D01*
X106034699Y-98388327D01*
X106213327Y-98209698D01*
X106261971Y-98092262D01*
X106686266Y-98375767D01*
X107235417Y-98485000D01*
X107444583Y-98485000D01*
X107993734Y-98375767D01*
X108459281Y-98064698D01*
X108610000Y-97839131D01*
X108760719Y-98064698D01*
X109226266Y-98375767D01*
X109775417Y-98485000D01*
X109984583Y-98485000D01*
X110533734Y-98375767D01*
X110999281Y-98064698D01*
X111186169Y-97785000D01*
X111200000Y-97785000D01*
X111481272Y-97729051D01*
X111719723Y-97569723D01*
X114152560Y-95136887D01*
X114152560Y-95550000D01*
X114178895Y-95689956D01*
X114152560Y-95820000D01*
X114152560Y-96820000D01*
X114196838Y-97055317D01*
X114335910Y-97271441D01*
X114548110Y-97416431D01*
X114800000Y-97467440D01*
X115065000Y-97467440D01*
X115065000Y-97801370D01*
X114692567Y-98050222D01*
X114334675Y-98585845D01*
X114209000Y-99217655D01*
X114209000Y-99282345D01*
X114334675Y-99914155D01*
X114569102Y-100265000D01*
X94584593Y-100265000D01*
X94769698Y-100188327D01*
X94948327Y-100009699D01*
X95045000Y-99776310D01*
X95045000Y-98860750D01*
X94886250Y-98702000D01*
X93937000Y-98702000D01*
X93937000Y-98722000D01*
X93683000Y-98722000D01*
X93683000Y-98702000D01*
X92733750Y-98702000D01*
X92575000Y-98860750D01*
X92575000Y-99776310D01*
X92671673Y-100009699D01*
X92850302Y-100188327D01*
X93035407Y-100265000D01*
X92044593Y-100265000D01*
X92229698Y-100188327D01*
X92408327Y-100009699D01*
X92505000Y-99776310D01*
X92505000Y-98860750D01*
X92346250Y-98702000D01*
X91397000Y-98702000D01*
X91397000Y-98722000D01*
X91143000Y-98722000D01*
X91143000Y-98702000D01*
X90193750Y-98702000D01*
X90035000Y-98860750D01*
X90035000Y-99776310D01*
X90131673Y-100009699D01*
X90310302Y-100188327D01*
X90495407Y-100265000D01*
X89504593Y-100265000D01*
X89689698Y-100188327D01*
X89868327Y-100009699D01*
X89965000Y-99776310D01*
X89965000Y-98860750D01*
X89806250Y-98702000D01*
X88857000Y-98702000D01*
X88857000Y-98722000D01*
X88603000Y-98722000D01*
X88603000Y-98702000D01*
X87653750Y-98702000D01*
X87495000Y-98860750D01*
X87495000Y-99776310D01*
X87591673Y-100009699D01*
X87770302Y-100188327D01*
X87955407Y-100265000D01*
X86964593Y-100265000D01*
X87149698Y-100188327D01*
X87328327Y-100009699D01*
X87425000Y-99776310D01*
X87425000Y-98860750D01*
X87266250Y-98702000D01*
X86317000Y-98702000D01*
X86317000Y-98722000D01*
X86063000Y-98722000D01*
X86063000Y-98702000D01*
X85113750Y-98702000D01*
X84955000Y-98860750D01*
X84955000Y-99776310D01*
X85051673Y-100009699D01*
X85230302Y-100188327D01*
X85415407Y-100265000D01*
X84001001Y-100265000D01*
X83785992Y-100049991D01*
X83520176Y-99528298D01*
X83427000Y-98940008D01*
X83427000Y-97373690D01*
X84955000Y-97373690D01*
X84955000Y-98289250D01*
X85113750Y-98448000D01*
X86063000Y-98448000D01*
X86063000Y-97023750D01*
X86317000Y-97023750D01*
X86317000Y-98448000D01*
X87266250Y-98448000D01*
X87425000Y-98289250D01*
X87425000Y-97373690D01*
X87495000Y-97373690D01*
X87495000Y-98289250D01*
X87653750Y-98448000D01*
X88603000Y-98448000D01*
X88603000Y-97023750D01*
X88857000Y-97023750D01*
X88857000Y-98448000D01*
X89806250Y-98448000D01*
X89965000Y-98289250D01*
X89965000Y-97373690D01*
X90035000Y-97373690D01*
X90035000Y-98289250D01*
X90193750Y-98448000D01*
X91143000Y-98448000D01*
X91143000Y-97023750D01*
X91397000Y-97023750D01*
X91397000Y-98448000D01*
X92346250Y-98448000D01*
X92505000Y-98289250D01*
X92505000Y-97373690D01*
X92575000Y-97373690D01*
X92575000Y-98289250D01*
X92733750Y-98448000D01*
X93683000Y-98448000D01*
X93683000Y-97023750D01*
X93937000Y-97023750D01*
X93937000Y-98448000D01*
X94886250Y-98448000D01*
X95045000Y-98289250D01*
X95045000Y-97373690D01*
X95029285Y-97335750D01*
X103290000Y-97335750D01*
X103290000Y-97976309D01*
X103386673Y-98209698D01*
X103565301Y-98388327D01*
X103798690Y-98485000D01*
X104514250Y-98485000D01*
X104673000Y-98326250D01*
X104673000Y-97177000D01*
X103448750Y-97177000D01*
X103290000Y-97335750D01*
X95029285Y-97335750D01*
X94948327Y-97140301D01*
X94769698Y-96961673D01*
X94536309Y-96865000D01*
X94095750Y-96865000D01*
X93937000Y-97023750D01*
X93683000Y-97023750D01*
X93524250Y-96865000D01*
X93083691Y-96865000D01*
X92850302Y-96961673D01*
X92671673Y-97140301D01*
X92575000Y-97373690D01*
X92505000Y-97373690D01*
X92408327Y-97140301D01*
X92229698Y-96961673D01*
X91996309Y-96865000D01*
X91555750Y-96865000D01*
X91397000Y-97023750D01*
X91143000Y-97023750D01*
X90984250Y-96865000D01*
X90543691Y-96865000D01*
X90310302Y-96961673D01*
X90131673Y-97140301D01*
X90035000Y-97373690D01*
X89965000Y-97373690D01*
X89868327Y-97140301D01*
X89689698Y-96961673D01*
X89456309Y-96865000D01*
X89015750Y-96865000D01*
X88857000Y-97023750D01*
X88603000Y-97023750D01*
X88444250Y-96865000D01*
X88003691Y-96865000D01*
X87770302Y-96961673D01*
X87591673Y-97140301D01*
X87495000Y-97373690D01*
X87425000Y-97373690D01*
X87328327Y-97140301D01*
X87149698Y-96961673D01*
X86916309Y-96865000D01*
X86475750Y-96865000D01*
X86317000Y-97023750D01*
X86063000Y-97023750D01*
X85904250Y-96865000D01*
X85463691Y-96865000D01*
X85230302Y-96961673D01*
X85051673Y-97140301D01*
X84955000Y-97373690D01*
X83427000Y-97373690D01*
X83427000Y-97128427D01*
X83425914Y-97111850D01*
X83357766Y-96594212D01*
X83349185Y-96562188D01*
X83149384Y-96079826D01*
X83132807Y-96051114D01*
X82814970Y-95636901D01*
X82804017Y-95624411D01*
X81915356Y-94735750D01*
X103290000Y-94735750D01*
X103290000Y-95376309D01*
X103386673Y-95609698D01*
X103526974Y-95750000D01*
X103386673Y-95890302D01*
X103290000Y-96123691D01*
X103290000Y-96764250D01*
X103448750Y-96923000D01*
X104673000Y-96923000D01*
X104673000Y-95773750D01*
X104649250Y-95750000D01*
X104673000Y-95726250D01*
X104673000Y-94577000D01*
X103448750Y-94577000D01*
X103290000Y-94735750D01*
X81915356Y-94735750D01*
X81675589Y-94495983D01*
X81663099Y-94485030D01*
X81248886Y-94167193D01*
X81220174Y-94150616D01*
X80737812Y-93950815D01*
X80705788Y-93942234D01*
X80188150Y-93874086D01*
X80171573Y-93873000D01*
X78209992Y-93873000D01*
X77621702Y-93779824D01*
X77100009Y-93514008D01*
X76885000Y-93298999D01*
X76885000Y-87132400D01*
X78634960Y-87132400D01*
X78634960Y-89367600D01*
X78679238Y-89602917D01*
X78818310Y-89819041D01*
X79030510Y-89964031D01*
X79282400Y-90015040D01*
X81517600Y-90015040D01*
X81752917Y-89970762D01*
X81969041Y-89831690D01*
X82114031Y-89619490D01*
X82165040Y-89367600D01*
X82165040Y-87132400D01*
X82120762Y-86897083D01*
X81981690Y-86680959D01*
X81769490Y-86535969D01*
X81517600Y-86484960D01*
X79282400Y-86484960D01*
X79047083Y-86529238D01*
X78830959Y-86668310D01*
X78685969Y-86880510D01*
X78634960Y-87132400D01*
X76885000Y-87132400D01*
X76885000Y-82517466D01*
X76921376Y-82334591D01*
X76986751Y-82236750D01*
X77084590Y-82171376D01*
X77267466Y-82135000D01*
X80200000Y-82135000D01*
X80266170Y-82121838D01*
X80333636Y-82121838D01*
X80716319Y-82045718D01*
X80963248Y-81943437D01*
X80963249Y-81943436D01*
X81287672Y-81726664D01*
X81476664Y-81537672D01*
X81693437Y-81213249D01*
X81736512Y-81109256D01*
X81795718Y-80966319D01*
X81871838Y-80583636D01*
X81871838Y-80516170D01*
X81885000Y-80450000D01*
X81885000Y-70151667D01*
X83245000Y-70151667D01*
X83245000Y-66985750D01*
X86065000Y-66985750D01*
X86065000Y-68376309D01*
X86161673Y-68609698D01*
X86340301Y-68788327D01*
X86573690Y-68885000D01*
X86914250Y-68885000D01*
X87073000Y-68726250D01*
X87073000Y-66827000D01*
X87327000Y-66827000D01*
X87327000Y-68726250D01*
X87485750Y-68885000D01*
X87826310Y-68885000D01*
X88059699Y-68788327D01*
X88238327Y-68609698D01*
X88335000Y-68376309D01*
X88335000Y-66985750D01*
X88176250Y-66827000D01*
X87327000Y-66827000D01*
X87073000Y-66827000D01*
X86223750Y-66827000D01*
X86065000Y-66985750D01*
X83245000Y-66985750D01*
X83245000Y-65948334D01*
X81885000Y-65948334D01*
X81885000Y-65450000D01*
X81871838Y-65383830D01*
X81871838Y-65316364D01*
X81813623Y-65023691D01*
X86065000Y-65023691D01*
X86065000Y-66414250D01*
X86223750Y-66573000D01*
X87073000Y-66573000D01*
X87073000Y-64673750D01*
X87327000Y-64673750D01*
X87327000Y-66573000D01*
X88176250Y-66573000D01*
X88335000Y-66414250D01*
X88335000Y-65023691D01*
X88238327Y-64790302D01*
X88059699Y-64611673D01*
X87826310Y-64515000D01*
X87485750Y-64515000D01*
X87327000Y-64673750D01*
X87073000Y-64673750D01*
X86914250Y-64515000D01*
X86573690Y-64515000D01*
X86340301Y-64611673D01*
X86161673Y-64790302D01*
X86065000Y-65023691D01*
X81813623Y-65023691D01*
X81795718Y-64933681D01*
X81727805Y-64769723D01*
X81693437Y-64686751D01*
X81476664Y-64362328D01*
X81287672Y-64173336D01*
X80963248Y-63956563D01*
X80909664Y-63934368D01*
X80716319Y-63854282D01*
X80333636Y-63778162D01*
X80266170Y-63778162D01*
X80200000Y-63765000D01*
X77267466Y-63765000D01*
X77084590Y-63728624D01*
X76986751Y-63663250D01*
X76921376Y-63565409D01*
X76885000Y-63382534D01*
X76885000Y-56349040D01*
X77489738Y-56349040D01*
X77719138Y-56904229D01*
X78134536Y-57320353D01*
X77720630Y-57733537D01*
X77490262Y-58288325D01*
X77489738Y-58889040D01*
X77719138Y-59444229D01*
X78134536Y-59860353D01*
X77720630Y-60273537D01*
X77490262Y-60828325D01*
X77489738Y-61429040D01*
X77719138Y-61984229D01*
X78143537Y-62409370D01*
X78698325Y-62639738D01*
X79299040Y-62640262D01*
X79854229Y-62410862D01*
X80060502Y-62204949D01*
X80126673Y-62364699D01*
X80305302Y-62543327D01*
X80538691Y-62640000D01*
X81254250Y-62640000D01*
X81413000Y-62481250D01*
X81413000Y-61257000D01*
X81667000Y-61257000D01*
X81667000Y-62481250D01*
X81825750Y-62640000D01*
X82541309Y-62640000D01*
X82774698Y-62543327D01*
X82953327Y-62364699D01*
X83050000Y-62131310D01*
X83050000Y-61415750D01*
X82891250Y-61257000D01*
X81667000Y-61257000D01*
X81413000Y-61257000D01*
X81393000Y-61257000D01*
X81393000Y-61003000D01*
X81413000Y-61003000D01*
X81413000Y-60983000D01*
X81667000Y-60983000D01*
X81667000Y-61003000D01*
X82891250Y-61003000D01*
X83050000Y-60844250D01*
X83050000Y-60128690D01*
X82953327Y-59895301D01*
X82774698Y-59716673D01*
X82614966Y-59650510D01*
X82819370Y-59446463D01*
X83049738Y-58891675D01*
X83050262Y-58290960D01*
X82965471Y-58085750D01*
X86065000Y-58085750D01*
X86065000Y-59476309D01*
X86161673Y-59709698D01*
X86340301Y-59888327D01*
X86573690Y-59985000D01*
X86914250Y-59985000D01*
X87073000Y-59826250D01*
X87073000Y-57927000D01*
X87327000Y-57927000D01*
X87327000Y-59826250D01*
X87485750Y-59985000D01*
X87826310Y-59985000D01*
X88059699Y-59888327D01*
X88238327Y-59709698D01*
X88335000Y-59476309D01*
X88335000Y-58085750D01*
X88176250Y-57927000D01*
X87327000Y-57927000D01*
X87073000Y-57927000D01*
X86223750Y-57927000D01*
X86065000Y-58085750D01*
X82965471Y-58085750D01*
X82820862Y-57735771D01*
X82405464Y-57319647D01*
X82819370Y-56906463D01*
X83049738Y-56351675D01*
X83049936Y-56123691D01*
X86065000Y-56123691D01*
X86065000Y-57514250D01*
X86223750Y-57673000D01*
X87073000Y-57673000D01*
X87073000Y-55773750D01*
X87327000Y-55773750D01*
X87327000Y-57673000D01*
X88176250Y-57673000D01*
X88335000Y-57514250D01*
X88335000Y-56123691D01*
X88238327Y-55890302D01*
X88059699Y-55711673D01*
X87826310Y-55615000D01*
X87485750Y-55615000D01*
X87327000Y-55773750D01*
X87073000Y-55773750D01*
X86914250Y-55615000D01*
X86573690Y-55615000D01*
X86340301Y-55711673D01*
X86161673Y-55890302D01*
X86065000Y-56123691D01*
X83049936Y-56123691D01*
X83050262Y-55750960D01*
X82820862Y-55195771D01*
X82396463Y-54770630D01*
X81841675Y-54540262D01*
X81240960Y-54539738D01*
X80685771Y-54769138D01*
X80269647Y-55184536D01*
X79856463Y-54770630D01*
X79301675Y-54540262D01*
X78700960Y-54539738D01*
X78145771Y-54769138D01*
X77720630Y-55193537D01*
X77490262Y-55748325D01*
X77489738Y-56349040D01*
X76885000Y-56349040D01*
X76885000Y-52601001D01*
X77100009Y-52385992D01*
X77621702Y-52120176D01*
X78209992Y-52027000D01*
X80121573Y-52027000D01*
X80138150Y-52025914D01*
X80655788Y-51957766D01*
X80687812Y-51949185D01*
X81170174Y-51749384D01*
X81198886Y-51732807D01*
X81613099Y-51414970D01*
X81625589Y-51404017D01*
X82454017Y-50575589D01*
X82464970Y-50563099D01*
X82782807Y-50148886D01*
X82799384Y-50120174D01*
X82999185Y-49637812D01*
X83007766Y-49605788D01*
X83075914Y-49088150D01*
X83077000Y-49071573D01*
X83077000Y-46459992D01*
X83170176Y-45871702D01*
X83435992Y-45350009D01*
X83478060Y-45307941D01*
X83478060Y-46307822D01*
X83478060Y-46307822D01*
G37*
X83478060Y-46307822D02*
X83429009Y-46381232D01*
X83335000Y-46853846D01*
X83335000Y-47106154D01*
X83429009Y-47578768D01*
X83696723Y-47979431D01*
X84097386Y-48247145D01*
X84316138Y-48290658D01*
X84315860Y-48609398D01*
X84097386Y-48652855D01*
X83696723Y-48920569D01*
X83429009Y-49321232D01*
X83335000Y-49793846D01*
X83335000Y-50046154D01*
X83429009Y-50518768D01*
X83478060Y-50592178D01*
X83478060Y-52006000D01*
X83522338Y-52241317D01*
X83661410Y-52457441D01*
X83873610Y-52602431D01*
X84125500Y-52653440D01*
X84293282Y-52653440D01*
X85044921Y-53405079D01*
X85299593Y-53575245D01*
X85600000Y-53635000D01*
X101800406Y-53635000D01*
X101615301Y-53711673D01*
X101436673Y-53890302D01*
X101340000Y-54123691D01*
X101340000Y-54714250D01*
X101498750Y-54873000D01*
X102473000Y-54873000D01*
X102473000Y-54853000D01*
X102727000Y-54853000D01*
X102727000Y-54873000D01*
X103701250Y-54873000D01*
X103860000Y-54714250D01*
X103860000Y-54123691D01*
X103763327Y-53890302D01*
X103584699Y-53711673D01*
X103399594Y-53635000D01*
X105164900Y-53635000D01*
X105164900Y-54463110D01*
X105323650Y-54621860D01*
X106473000Y-54621860D01*
X106473000Y-54601860D01*
X106727000Y-54601860D01*
X106727000Y-54621860D01*
X107876350Y-54621860D01*
X108035100Y-54463110D01*
X108035100Y-53795258D01*
X109015000Y-54775158D01*
X109015000Y-57050000D01*
X109074755Y-57350407D01*
X109244921Y-57605079D01*
X111942575Y-60302733D01*
X111701343Y-60402408D01*
X111438292Y-60665000D01*
X110522440Y-60665000D01*
X110522440Y-60600000D01*
X110478162Y-60364683D01*
X110339090Y-60148559D01*
X110126890Y-60003569D01*
X109875000Y-59952560D01*
X109325000Y-59952560D01*
X109195411Y-59976944D01*
X109075000Y-59952560D01*
X108525000Y-59952560D01*
X108419295Y-59972450D01*
X108401310Y-59965000D01*
X108285750Y-59965000D01*
X108189349Y-60061401D01*
X108073559Y-60135910D01*
X108000116Y-60243397D01*
X107985000Y-60219905D01*
X107985000Y-59119726D01*
X107996531Y-59102850D01*
X108047540Y-58850960D01*
X108047540Y-56651320D01*
X108003262Y-56416003D01*
X107896584Y-56250221D01*
X107938427Y-56208378D01*
X108035100Y-55974989D01*
X108035100Y-55034610D01*
X107876350Y-54875860D01*
X106727000Y-54875860D01*
X106727000Y-54895860D01*
X106473000Y-54895860D01*
X106473000Y-54875860D01*
X105323650Y-54875860D01*
X105164900Y-55034610D01*
X105164900Y-55974989D01*
X105261573Y-56208378D01*
X105304606Y-56251411D01*
X105203469Y-56399430D01*
X105152460Y-56651320D01*
X105152460Y-56966140D01*
X104826298Y-56966140D01*
X104805079Y-56944921D01*
X104550407Y-56774755D01*
X104250000Y-56715000D01*
X103865854Y-56715000D01*
X103828162Y-56514683D01*
X103689090Y-56298559D01*
X103620994Y-56252031D01*
X103763327Y-56109698D01*
X103860000Y-55876309D01*
X103860000Y-55285750D01*
X103701250Y-55127000D01*
X102727000Y-55127000D01*
X102727000Y-55147000D01*
X102473000Y-55147000D01*
X102473000Y-55127000D01*
X101498750Y-55127000D01*
X101340000Y-55285750D01*
X101340000Y-55876309D01*
X101436673Y-56109698D01*
X101577910Y-56250936D01*
X101523559Y-56285910D01*
X101378569Y-56498110D01*
X101334648Y-56715000D01*
X98350005Y-56715000D01*
X98350000Y-56714999D01*
X98049594Y-56774755D01*
X97794921Y-56944921D01*
X95244921Y-59494921D01*
X95074755Y-59749593D01*
X95051799Y-59865000D01*
X95015000Y-60050000D01*
X95015000Y-62210982D01*
X94898559Y-62285910D01*
X94753569Y-62498110D01*
X94702560Y-62750000D01*
X94702560Y-63950000D01*
X94746838Y-64185317D01*
X94885910Y-64401441D01*
X94955711Y-64449134D01*
X94898559Y-64485910D01*
X94753569Y-64698110D01*
X94702560Y-64950000D01*
X94702560Y-66150000D01*
X94733607Y-66315000D01*
X92347440Y-66315000D01*
X92347440Y-65150000D01*
X92303162Y-64914683D01*
X92164090Y-64698559D01*
X91951890Y-64553569D01*
X91935000Y-64550149D01*
X91935000Y-59953222D01*
X91935317Y-59953162D01*
X92151441Y-59814090D01*
X92296431Y-59601890D01*
X92347440Y-59350000D01*
X92347440Y-56250000D01*
X92303162Y-56014683D01*
X92164090Y-55798559D01*
X91951890Y-55653569D01*
X91700000Y-55602560D01*
X90700000Y-55602560D01*
X90464683Y-55646838D01*
X90248559Y-55785910D01*
X90103569Y-55998110D01*
X90052560Y-56250000D01*
X90052560Y-59350000D01*
X90096838Y-59585317D01*
X90235910Y-59801441D01*
X90448110Y-59946431D01*
X90465000Y-59949851D01*
X90465000Y-64546778D01*
X90464683Y-64546838D01*
X90248559Y-64685910D01*
X90103569Y-64898110D01*
X90052560Y-65150000D01*
X90052560Y-68250000D01*
X90096838Y-68485317D01*
X90235910Y-68701441D01*
X90448110Y-68846431D01*
X90700000Y-68897440D01*
X91700000Y-68897440D01*
X91935317Y-68853162D01*
X92151441Y-68714090D01*
X92280948Y-68524550D01*
X92165215Y-68803266D01*
X92164786Y-69294579D01*
X92352408Y-69748657D01*
X92693518Y-70090364D01*
X92301343Y-70252408D01*
X91953629Y-70599515D01*
X91765215Y-71053266D01*
X91764786Y-71544579D01*
X91952408Y-71998657D01*
X92299515Y-72346371D01*
X92753266Y-72534785D01*
X93244579Y-72535214D01*
X93698657Y-72347592D01*
X94011796Y-72035000D01*
X94527560Y-72035000D01*
X94527560Y-72050000D01*
X94571838Y-72285317D01*
X94710910Y-72501441D01*
X94764860Y-72538304D01*
X94753629Y-72549515D01*
X94565215Y-73003266D01*
X94564786Y-73494579D01*
X94752408Y-73948657D01*
X95099515Y-74296371D01*
X95553266Y-74484785D01*
X95925444Y-74485110D01*
X95695554Y-74715000D01*
X91400000Y-74715000D01*
X91165394Y-74761667D01*
X91118727Y-74770949D01*
X90880276Y-74930277D01*
X87680277Y-78130277D01*
X87520949Y-78368728D01*
X87465000Y-78650000D01*
X87465000Y-83345553D01*
X86895554Y-83915000D01*
X85600000Y-83915000D01*
X85318728Y-83970949D01*
X85080276Y-84130277D01*
X83080277Y-86130277D01*
X82920949Y-86368728D01*
X82865000Y-86650000D01*
X82865000Y-91250000D01*
X82902739Y-91439723D01*
X82920949Y-91531272D01*
X83080277Y-91769723D01*
X84480277Y-93169723D01*
X84718728Y-93329051D01*
X85000000Y-93385000D01*
X90200000Y-93385000D01*
X90481272Y-93329051D01*
X90719723Y-93169723D01*
X91789724Y-92099723D01*
X91824658Y-92047440D01*
X91870000Y-92047440D01*
X91931818Y-92035808D01*
X92044921Y-92205079D01*
X92444921Y-92605079D01*
X92699594Y-92775245D01*
X93000000Y-92835000D01*
X96400000Y-92835000D01*
X96700407Y-92775245D01*
X96955079Y-92605079D01*
X97010956Y-92549202D01*
X97199594Y-92675245D01*
X97500000Y-92735000D01*
X98337370Y-92735000D01*
X98346838Y-92785317D01*
X98485910Y-93001441D01*
X98698110Y-93146431D01*
X98950000Y-93197440D01*
X99850000Y-93197440D01*
X100085317Y-93153162D01*
X100301441Y-93014090D01*
X100446431Y-92801890D01*
X100459977Y-92735000D01*
X100500000Y-92735000D01*
X100800407Y-92675245D01*
X101055079Y-92505079D01*
X101424408Y-92135750D01*
X103290000Y-92135750D01*
X103290000Y-92776309D01*
X103386673Y-93009698D01*
X103526974Y-93150000D01*
X103386673Y-93290302D01*
X103290000Y-93523691D01*
X103290000Y-94164250D01*
X103448750Y-94323000D01*
X104673000Y-94323000D01*
X104673000Y-93173750D01*
X104649250Y-93150000D01*
X104673000Y-93126250D01*
X104673000Y-91977000D01*
X103448750Y-91977000D01*
X103290000Y-92135750D01*
X101424408Y-92135750D01*
X102755079Y-90805079D01*
X102925245Y-90550407D01*
X102985000Y-90250000D01*
X102985000Y-89535750D01*
X103290000Y-89535750D01*
X103290000Y-90176309D01*
X103386673Y-90409698D01*
X103526974Y-90550000D01*
X103386673Y-90690302D01*
X103290000Y-90923691D01*
X103290000Y-91564250D01*
X103448750Y-91723000D01*
X104673000Y-91723000D01*
X104673000Y-90573750D01*
X104649250Y-90550000D01*
X104673000Y-90526250D01*
X104673000Y-89377000D01*
X103448750Y-89377000D01*
X103290000Y-89535750D01*
X102985000Y-89535750D01*
X102985000Y-86935750D01*
X103290000Y-86935750D01*
X103290000Y-87576309D01*
X103386673Y-87809698D01*
X103526974Y-87950000D01*
X103386673Y-88090302D01*
X103290000Y-88323691D01*
X103290000Y-88964250D01*
X103448750Y-89123000D01*
X104673000Y-89123000D01*
X104673000Y-87973750D01*
X104649250Y-87950000D01*
X104673000Y-87926250D01*
X104673000Y-86777000D01*
X103448750Y-86777000D01*
X103290000Y-86935750D01*
X102985000Y-86935750D01*
X102985000Y-84335750D01*
X103290000Y-84335750D01*
X103290000Y-84976309D01*
X103386673Y-85209698D01*
X103526974Y-85350000D01*
X103386673Y-85490302D01*
X103290000Y-85723691D01*
X103290000Y-86364250D01*
X103448750Y-86523000D01*
X104673000Y-86523000D01*
X104673000Y-85373750D01*
X104649250Y-85350000D01*
X104673000Y-85326250D01*
X104673000Y-84177000D01*
X103448750Y-84177000D01*
X103290000Y-84335750D01*
X102985000Y-84335750D01*
X102985000Y-81735750D01*
X103290000Y-81735750D01*
X103290000Y-82376309D01*
X103386673Y-82609698D01*
X103526974Y-82750000D01*
X103386673Y-82890302D01*
X103290000Y-83123691D01*
X103290000Y-83764250D01*
X103448750Y-83923000D01*
X104673000Y-83923000D01*
X104673000Y-82773750D01*
X104649250Y-82750000D01*
X104673000Y-82726250D01*
X104673000Y-81577000D01*
X103448750Y-81577000D01*
X103290000Y-81735750D01*
X102985000Y-81735750D01*
X102985000Y-81175158D01*
X103290000Y-80870158D01*
X103290000Y-81164250D01*
X103448750Y-81323000D01*
X104673000Y-81323000D01*
X104673000Y-81303000D01*
X104927000Y-81303000D01*
X104927000Y-81323000D01*
X104947000Y-81323000D01*
X104947000Y-81577000D01*
X104927000Y-81577000D01*
X104927000Y-82726250D01*
X104950750Y-82750000D01*
X104927000Y-82773750D01*
X104927000Y-83923000D01*
X104947000Y-83923000D01*
X104947000Y-84177000D01*
X104927000Y-84177000D01*
X104927000Y-85326250D01*
X104950750Y-85350000D01*
X104927000Y-85373750D01*
X104927000Y-86523000D01*
X104947000Y-86523000D01*
X104947000Y-86777000D01*
X104927000Y-86777000D01*
X104927000Y-87926250D01*
X104950750Y-87950000D01*
X104927000Y-87973750D01*
X104927000Y-89123000D01*
X104947000Y-89123000D01*
X104947000Y-89377000D01*
X104927000Y-89377000D01*
X104927000Y-90526250D01*
X104950750Y-90550000D01*
X104927000Y-90573750D01*
X104927000Y-91723000D01*
X104947000Y-91723000D01*
X104947000Y-91977000D01*
X104927000Y-91977000D01*
X104927000Y-93126250D01*
X104950750Y-93150000D01*
X104927000Y-93173750D01*
X104927000Y-94323000D01*
X104947000Y-94323000D01*
X104947000Y-94577000D01*
X104927000Y-94577000D01*
X104927000Y-95726250D01*
X104950750Y-95750000D01*
X104927000Y-95773750D01*
X104927000Y-96923000D01*
X104947000Y-96923000D01*
X104947000Y-97177000D01*
X104927000Y-97177000D01*
X104927000Y-98326250D01*
X105085750Y-98485000D01*
X105801310Y-98485000D01*
X106034699Y-98388327D01*
X106213327Y-98209698D01*
X106261971Y-98092262D01*
X106686266Y-98375767D01*
X107235417Y-98485000D01*
X107444583Y-98485000D01*
X107993734Y-98375767D01*
X108459281Y-98064698D01*
X108610000Y-97839131D01*
X108760719Y-98064698D01*
X109226266Y-98375767D01*
X109775417Y-98485000D01*
X109984583Y-98485000D01*
X110533734Y-98375767D01*
X110999281Y-98064698D01*
X111186169Y-97785000D01*
X111200000Y-97785000D01*
X111481272Y-97729051D01*
X111719723Y-97569723D01*
X114152560Y-95136887D01*
X114152560Y-95550000D01*
X114178895Y-95689956D01*
X114152560Y-95820000D01*
X114152560Y-96820000D01*
X114196838Y-97055317D01*
X114335910Y-97271441D01*
X114548110Y-97416431D01*
X114800000Y-97467440D01*
X115065000Y-97467440D01*
X115065000Y-97801370D01*
X114692567Y-98050222D01*
X114334675Y-98585845D01*
X114209000Y-99217655D01*
X114209000Y-99282345D01*
X114334675Y-99914155D01*
X114569102Y-100265000D01*
X94584593Y-100265000D01*
X94769698Y-100188327D01*
X94948327Y-100009699D01*
X95045000Y-99776310D01*
X95045000Y-98860750D01*
X94886250Y-98702000D01*
X93937000Y-98702000D01*
X93937000Y-98722000D01*
X93683000Y-98722000D01*
X93683000Y-98702000D01*
X92733750Y-98702000D01*
X92575000Y-98860750D01*
X92575000Y-99776310D01*
X92671673Y-100009699D01*
X92850302Y-100188327D01*
X93035407Y-100265000D01*
X92044593Y-100265000D01*
X92229698Y-100188327D01*
X92408327Y-100009699D01*
X92505000Y-99776310D01*
X92505000Y-98860750D01*
X92346250Y-98702000D01*
X91397000Y-98702000D01*
X91397000Y-98722000D01*
X91143000Y-98722000D01*
X91143000Y-98702000D01*
X90193750Y-98702000D01*
X90035000Y-98860750D01*
X90035000Y-99776310D01*
X90131673Y-100009699D01*
X90310302Y-100188327D01*
X90495407Y-100265000D01*
X89504593Y-100265000D01*
X89689698Y-100188327D01*
X89868327Y-100009699D01*
X89965000Y-99776310D01*
X89965000Y-98860750D01*
X89806250Y-98702000D01*
X88857000Y-98702000D01*
X88857000Y-98722000D01*
X88603000Y-98722000D01*
X88603000Y-98702000D01*
X87653750Y-98702000D01*
X87495000Y-98860750D01*
X87495000Y-99776310D01*
X87591673Y-100009699D01*
X87770302Y-100188327D01*
X87955407Y-100265000D01*
X86964593Y-100265000D01*
X87149698Y-100188327D01*
X87328327Y-100009699D01*
X87425000Y-99776310D01*
X87425000Y-98860750D01*
X87266250Y-98702000D01*
X86317000Y-98702000D01*
X86317000Y-98722000D01*
X86063000Y-98722000D01*
X86063000Y-98702000D01*
X85113750Y-98702000D01*
X84955000Y-98860750D01*
X84955000Y-99776310D01*
X85051673Y-100009699D01*
X85230302Y-100188327D01*
X85415407Y-100265000D01*
X84001001Y-100265000D01*
X83785992Y-100049991D01*
X83520176Y-99528298D01*
X83427000Y-98940008D01*
X83427000Y-97373690D01*
X84955000Y-97373690D01*
X84955000Y-98289250D01*
X85113750Y-98448000D01*
X86063000Y-98448000D01*
X86063000Y-97023750D01*
X86317000Y-97023750D01*
X86317000Y-98448000D01*
X87266250Y-98448000D01*
X87425000Y-98289250D01*
X87425000Y-97373690D01*
X87495000Y-97373690D01*
X87495000Y-98289250D01*
X87653750Y-98448000D01*
X88603000Y-98448000D01*
X88603000Y-97023750D01*
X88857000Y-97023750D01*
X88857000Y-98448000D01*
X89806250Y-98448000D01*
X89965000Y-98289250D01*
X89965000Y-97373690D01*
X90035000Y-97373690D01*
X90035000Y-98289250D01*
X90193750Y-98448000D01*
X91143000Y-98448000D01*
X91143000Y-97023750D01*
X91397000Y-97023750D01*
X91397000Y-98448000D01*
X92346250Y-98448000D01*
X92505000Y-98289250D01*
X92505000Y-97373690D01*
X92575000Y-97373690D01*
X92575000Y-98289250D01*
X92733750Y-98448000D01*
X93683000Y-98448000D01*
X93683000Y-97023750D01*
X93937000Y-97023750D01*
X93937000Y-98448000D01*
X94886250Y-98448000D01*
X95045000Y-98289250D01*
X95045000Y-97373690D01*
X95029285Y-97335750D01*
X103290000Y-97335750D01*
X103290000Y-97976309D01*
X103386673Y-98209698D01*
X103565301Y-98388327D01*
X103798690Y-98485000D01*
X104514250Y-98485000D01*
X104673000Y-98326250D01*
X104673000Y-97177000D01*
X103448750Y-97177000D01*
X103290000Y-97335750D01*
X95029285Y-97335750D01*
X94948327Y-97140301D01*
X94769698Y-96961673D01*
X94536309Y-96865000D01*
X94095750Y-96865000D01*
X93937000Y-97023750D01*
X93683000Y-97023750D01*
X93524250Y-96865000D01*
X93083691Y-96865000D01*
X92850302Y-96961673D01*
X92671673Y-97140301D01*
X92575000Y-97373690D01*
X92505000Y-97373690D01*
X92408327Y-97140301D01*
X92229698Y-96961673D01*
X91996309Y-96865000D01*
X91555750Y-96865000D01*
X91397000Y-97023750D01*
X91143000Y-97023750D01*
X90984250Y-96865000D01*
X90543691Y-96865000D01*
X90310302Y-96961673D01*
X90131673Y-97140301D01*
X90035000Y-97373690D01*
X89965000Y-97373690D01*
X89868327Y-97140301D01*
X89689698Y-96961673D01*
X89456309Y-96865000D01*
X89015750Y-96865000D01*
X88857000Y-97023750D01*
X88603000Y-97023750D01*
X88444250Y-96865000D01*
X88003691Y-96865000D01*
X87770302Y-96961673D01*
X87591673Y-97140301D01*
X87495000Y-97373690D01*
X87425000Y-97373690D01*
X87328327Y-97140301D01*
X87149698Y-96961673D01*
X86916309Y-96865000D01*
X86475750Y-96865000D01*
X86317000Y-97023750D01*
X86063000Y-97023750D01*
X85904250Y-96865000D01*
X85463691Y-96865000D01*
X85230302Y-96961673D01*
X85051673Y-97140301D01*
X84955000Y-97373690D01*
X83427000Y-97373690D01*
X83427000Y-97128427D01*
X83425914Y-97111850D01*
X83357766Y-96594212D01*
X83349185Y-96562188D01*
X83149384Y-96079826D01*
X83132807Y-96051114D01*
X82814970Y-95636901D01*
X82804017Y-95624411D01*
X81915356Y-94735750D01*
X103290000Y-94735750D01*
X103290000Y-95376309D01*
X103386673Y-95609698D01*
X103526974Y-95750000D01*
X103386673Y-95890302D01*
X103290000Y-96123691D01*
X103290000Y-96764250D01*
X103448750Y-96923000D01*
X104673000Y-96923000D01*
X104673000Y-95773750D01*
X104649250Y-95750000D01*
X104673000Y-95726250D01*
X104673000Y-94577000D01*
X103448750Y-94577000D01*
X103290000Y-94735750D01*
X81915356Y-94735750D01*
X81675589Y-94495983D01*
X81663099Y-94485030D01*
X81248886Y-94167193D01*
X81220174Y-94150616D01*
X80737812Y-93950815D01*
X80705788Y-93942234D01*
X80188150Y-93874086D01*
X80171573Y-93873000D01*
X78209992Y-93873000D01*
X77621702Y-93779824D01*
X77100009Y-93514008D01*
X76885000Y-93298999D01*
X76885000Y-87132400D01*
X78634960Y-87132400D01*
X78634960Y-89367600D01*
X78679238Y-89602917D01*
X78818310Y-89819041D01*
X79030510Y-89964031D01*
X79282400Y-90015040D01*
X81517600Y-90015040D01*
X81752917Y-89970762D01*
X81969041Y-89831690D01*
X82114031Y-89619490D01*
X82165040Y-89367600D01*
X82165040Y-87132400D01*
X82120762Y-86897083D01*
X81981690Y-86680959D01*
X81769490Y-86535969D01*
X81517600Y-86484960D01*
X79282400Y-86484960D01*
X79047083Y-86529238D01*
X78830959Y-86668310D01*
X78685969Y-86880510D01*
X78634960Y-87132400D01*
X76885000Y-87132400D01*
X76885000Y-82517466D01*
X76921376Y-82334591D01*
X76986751Y-82236750D01*
X77084590Y-82171376D01*
X77267466Y-82135000D01*
X80200000Y-82135000D01*
X80266170Y-82121838D01*
X80333636Y-82121838D01*
X80716319Y-82045718D01*
X80963248Y-81943437D01*
X80963249Y-81943436D01*
X81287672Y-81726664D01*
X81476664Y-81537672D01*
X81693437Y-81213249D01*
X81736512Y-81109256D01*
X81795718Y-80966319D01*
X81871838Y-80583636D01*
X81871838Y-80516170D01*
X81885000Y-80450000D01*
X81885000Y-70151667D01*
X83245000Y-70151667D01*
X83245000Y-66985750D01*
X86065000Y-66985750D01*
X86065000Y-68376309D01*
X86161673Y-68609698D01*
X86340301Y-68788327D01*
X86573690Y-68885000D01*
X86914250Y-68885000D01*
X87073000Y-68726250D01*
X87073000Y-66827000D01*
X87327000Y-66827000D01*
X87327000Y-68726250D01*
X87485750Y-68885000D01*
X87826310Y-68885000D01*
X88059699Y-68788327D01*
X88238327Y-68609698D01*
X88335000Y-68376309D01*
X88335000Y-66985750D01*
X88176250Y-66827000D01*
X87327000Y-66827000D01*
X87073000Y-66827000D01*
X86223750Y-66827000D01*
X86065000Y-66985750D01*
X83245000Y-66985750D01*
X83245000Y-65948334D01*
X81885000Y-65948334D01*
X81885000Y-65450000D01*
X81871838Y-65383830D01*
X81871838Y-65316364D01*
X81813623Y-65023691D01*
X86065000Y-65023691D01*
X86065000Y-66414250D01*
X86223750Y-66573000D01*
X87073000Y-66573000D01*
X87073000Y-64673750D01*
X87327000Y-64673750D01*
X87327000Y-66573000D01*
X88176250Y-66573000D01*
X88335000Y-66414250D01*
X88335000Y-65023691D01*
X88238327Y-64790302D01*
X88059699Y-64611673D01*
X87826310Y-64515000D01*
X87485750Y-64515000D01*
X87327000Y-64673750D01*
X87073000Y-64673750D01*
X86914250Y-64515000D01*
X86573690Y-64515000D01*
X86340301Y-64611673D01*
X86161673Y-64790302D01*
X86065000Y-65023691D01*
X81813623Y-65023691D01*
X81795718Y-64933681D01*
X81727805Y-64769723D01*
X81693437Y-64686751D01*
X81476664Y-64362328D01*
X81287672Y-64173336D01*
X80963248Y-63956563D01*
X80909664Y-63934368D01*
X80716319Y-63854282D01*
X80333636Y-63778162D01*
X80266170Y-63778162D01*
X80200000Y-63765000D01*
X77267466Y-63765000D01*
X77084590Y-63728624D01*
X76986751Y-63663250D01*
X76921376Y-63565409D01*
X76885000Y-63382534D01*
X76885000Y-56349040D01*
X77489738Y-56349040D01*
X77719138Y-56904229D01*
X78134536Y-57320353D01*
X77720630Y-57733537D01*
X77490262Y-58288325D01*
X77489738Y-58889040D01*
X77719138Y-59444229D01*
X78134536Y-59860353D01*
X77720630Y-60273537D01*
X77490262Y-60828325D01*
X77489738Y-61429040D01*
X77719138Y-61984229D01*
X78143537Y-62409370D01*
X78698325Y-62639738D01*
X79299040Y-62640262D01*
X79854229Y-62410862D01*
X80060502Y-62204949D01*
X80126673Y-62364699D01*
X80305302Y-62543327D01*
X80538691Y-62640000D01*
X81254250Y-62640000D01*
X81413000Y-62481250D01*
X81413000Y-61257000D01*
X81667000Y-61257000D01*
X81667000Y-62481250D01*
X81825750Y-62640000D01*
X82541309Y-62640000D01*
X82774698Y-62543327D01*
X82953327Y-62364699D01*
X83050000Y-62131310D01*
X83050000Y-61415750D01*
X82891250Y-61257000D01*
X81667000Y-61257000D01*
X81413000Y-61257000D01*
X81393000Y-61257000D01*
X81393000Y-61003000D01*
X81413000Y-61003000D01*
X81413000Y-60983000D01*
X81667000Y-60983000D01*
X81667000Y-61003000D01*
X82891250Y-61003000D01*
X83050000Y-60844250D01*
X83050000Y-60128690D01*
X82953327Y-59895301D01*
X82774698Y-59716673D01*
X82614966Y-59650510D01*
X82819370Y-59446463D01*
X83049738Y-58891675D01*
X83050262Y-58290960D01*
X82965471Y-58085750D01*
X86065000Y-58085750D01*
X86065000Y-59476309D01*
X86161673Y-59709698D01*
X86340301Y-59888327D01*
X86573690Y-59985000D01*
X86914250Y-59985000D01*
X87073000Y-59826250D01*
X87073000Y-57927000D01*
X87327000Y-57927000D01*
X87327000Y-59826250D01*
X87485750Y-59985000D01*
X87826310Y-59985000D01*
X88059699Y-59888327D01*
X88238327Y-59709698D01*
X88335000Y-59476309D01*
X88335000Y-58085750D01*
X88176250Y-57927000D01*
X87327000Y-57927000D01*
X87073000Y-57927000D01*
X86223750Y-57927000D01*
X86065000Y-58085750D01*
X82965471Y-58085750D01*
X82820862Y-57735771D01*
X82405464Y-57319647D01*
X82819370Y-56906463D01*
X83049738Y-56351675D01*
X83049936Y-56123691D01*
X86065000Y-56123691D01*
X86065000Y-57514250D01*
X86223750Y-57673000D01*
X87073000Y-57673000D01*
X87073000Y-55773750D01*
X87327000Y-55773750D01*
X87327000Y-57673000D01*
X88176250Y-57673000D01*
X88335000Y-57514250D01*
X88335000Y-56123691D01*
X88238327Y-55890302D01*
X88059699Y-55711673D01*
X87826310Y-55615000D01*
X87485750Y-55615000D01*
X87327000Y-55773750D01*
X87073000Y-55773750D01*
X86914250Y-55615000D01*
X86573690Y-55615000D01*
X86340301Y-55711673D01*
X86161673Y-55890302D01*
X86065000Y-56123691D01*
X83049936Y-56123691D01*
X83050262Y-55750960D01*
X82820862Y-55195771D01*
X82396463Y-54770630D01*
X81841675Y-54540262D01*
X81240960Y-54539738D01*
X80685771Y-54769138D01*
X80269647Y-55184536D01*
X79856463Y-54770630D01*
X79301675Y-54540262D01*
X78700960Y-54539738D01*
X78145771Y-54769138D01*
X77720630Y-55193537D01*
X77490262Y-55748325D01*
X77489738Y-56349040D01*
X76885000Y-56349040D01*
X76885000Y-52601001D01*
X77100009Y-52385992D01*
X77621702Y-52120176D01*
X78209992Y-52027000D01*
X80121573Y-52027000D01*
X80138150Y-52025914D01*
X80655788Y-51957766D01*
X80687812Y-51949185D01*
X81170174Y-51749384D01*
X81198886Y-51732807D01*
X81613099Y-51414970D01*
X81625589Y-51404017D01*
X82454017Y-50575589D01*
X82464970Y-50563099D01*
X82782807Y-50148886D01*
X82799384Y-50120174D01*
X82999185Y-49637812D01*
X83007766Y-49605788D01*
X83075914Y-49088150D01*
X83077000Y-49071573D01*
X83077000Y-46459992D01*
X83170176Y-45871702D01*
X83435992Y-45350009D01*
X83478060Y-45307941D01*
X83478060Y-46307822D01*
G36*
X122896838Y-83935317D02*
X123035910Y-84151441D01*
X123248110Y-84296431D01*
X123500000Y-84347440D01*
X124700000Y-84347440D01*
X124935317Y-84303162D01*
X125151441Y-84164090D01*
X125199134Y-84094289D01*
X125235910Y-84151441D01*
X125448110Y-84296431D01*
X125554220Y-84317919D01*
X125448559Y-84385910D01*
X125303569Y-84598110D01*
X125252560Y-84850000D01*
X125252560Y-87950000D01*
X125296838Y-88185317D01*
X125435910Y-88401441D01*
X125648110Y-88546431D01*
X125665000Y-88549851D01*
X125665000Y-93146778D01*
X125664683Y-93146838D01*
X125448559Y-93285910D01*
X125303569Y-93498110D01*
X125252560Y-93750000D01*
X125252560Y-96850000D01*
X125296838Y-97085317D01*
X125435910Y-97301441D01*
X125648110Y-97446431D01*
X125665000Y-97449851D01*
X125665000Y-97850000D01*
X125711474Y-98083636D01*
X125720949Y-98131272D01*
X125779680Y-98219169D01*
X125534675Y-98585845D01*
X125409000Y-99217655D01*
X125409000Y-99282345D01*
X125534675Y-99914155D01*
X125769102Y-100265000D01*
X120051000Y-100265000D01*
X120051000Y-99535750D01*
X119892250Y-99377000D01*
X118527000Y-99377000D01*
X118527000Y-99397000D01*
X118273000Y-99397000D01*
X118273000Y-99377000D01*
X118253000Y-99377000D01*
X118253000Y-99123000D01*
X118273000Y-99123000D01*
X118273000Y-97757750D01*
X118114250Y-97599000D01*
X117257690Y-97599000D01*
X117024301Y-97695673D01*
X116845673Y-97874302D01*
X116828001Y-97916966D01*
X116535000Y-97721189D01*
X116535000Y-97467440D01*
X116800000Y-97467440D01*
X117035317Y-97423162D01*
X117251441Y-97284090D01*
X117396431Y-97071890D01*
X117410242Y-97003690D01*
X118114250Y-97003690D01*
X118273000Y-96844940D01*
X118273000Y-95696860D01*
X118253000Y-95696860D01*
X118253000Y-95442860D01*
X118273000Y-95442860D01*
X118273000Y-95422860D01*
X118527000Y-95422860D01*
X118527000Y-95442860D01*
X118547000Y-95442860D01*
X118547000Y-95696860D01*
X118527000Y-95696860D01*
X118527000Y-96844940D01*
X118685750Y-97003690D01*
X119426740Y-97003690D01*
X119518148Y-96965827D01*
X119528162Y-97016170D01*
X119528162Y-97083636D01*
X119604282Y-97466319D01*
X119659303Y-97599151D01*
X119683457Y-97657465D01*
X119542310Y-97599000D01*
X118685750Y-97599000D01*
X118527000Y-97757750D01*
X118527000Y-99123000D01*
X119892250Y-99123000D01*
X120051000Y-98964250D01*
X120051000Y-98165336D01*
X120112328Y-98226664D01*
X120436751Y-98443437D01*
X120537094Y-98485000D01*
X120683681Y-98545718D01*
X121066364Y-98621838D01*
X121333636Y-98621838D01*
X121716319Y-98545718D01*
X121963248Y-98443437D01*
X121963249Y-98443436D01*
X122287672Y-98226664D01*
X122476664Y-98037672D01*
X122693437Y-97713249D01*
X122740760Y-97599000D01*
X122795718Y-97466319D01*
X122871838Y-97083636D01*
X122871838Y-97016170D01*
X122885000Y-96950000D01*
X122885000Y-83872404D01*
X122896838Y-83935317D01*
X122896838Y-83935317D01*
G37*
X122896838Y-83935317D02*
X123035910Y-84151441D01*
X123248110Y-84296431D01*
X123500000Y-84347440D01*
X124700000Y-84347440D01*
X124935317Y-84303162D01*
X125151441Y-84164090D01*
X125199134Y-84094289D01*
X125235910Y-84151441D01*
X125448110Y-84296431D01*
X125554220Y-84317919D01*
X125448559Y-84385910D01*
X125303569Y-84598110D01*
X125252560Y-84850000D01*
X125252560Y-87950000D01*
X125296838Y-88185317D01*
X125435910Y-88401441D01*
X125648110Y-88546431D01*
X125665000Y-88549851D01*
X125665000Y-93146778D01*
X125664683Y-93146838D01*
X125448559Y-93285910D01*
X125303569Y-93498110D01*
X125252560Y-93750000D01*
X125252560Y-96850000D01*
X125296838Y-97085317D01*
X125435910Y-97301441D01*
X125648110Y-97446431D01*
X125665000Y-97449851D01*
X125665000Y-97850000D01*
X125711474Y-98083636D01*
X125720949Y-98131272D01*
X125779680Y-98219169D01*
X125534675Y-98585845D01*
X125409000Y-99217655D01*
X125409000Y-99282345D01*
X125534675Y-99914155D01*
X125769102Y-100265000D01*
X120051000Y-100265000D01*
X120051000Y-99535750D01*
X119892250Y-99377000D01*
X118527000Y-99377000D01*
X118527000Y-99397000D01*
X118273000Y-99397000D01*
X118273000Y-99377000D01*
X118253000Y-99377000D01*
X118253000Y-99123000D01*
X118273000Y-99123000D01*
X118273000Y-97757750D01*
X118114250Y-97599000D01*
X117257690Y-97599000D01*
X117024301Y-97695673D01*
X116845673Y-97874302D01*
X116828001Y-97916966D01*
X116535000Y-97721189D01*
X116535000Y-97467440D01*
X116800000Y-97467440D01*
X117035317Y-97423162D01*
X117251441Y-97284090D01*
X117396431Y-97071890D01*
X117410242Y-97003690D01*
X118114250Y-97003690D01*
X118273000Y-96844940D01*
X118273000Y-95696860D01*
X118253000Y-95696860D01*
X118253000Y-95442860D01*
X118273000Y-95442860D01*
X118273000Y-95422860D01*
X118527000Y-95422860D01*
X118527000Y-95442860D01*
X118547000Y-95442860D01*
X118547000Y-95696860D01*
X118527000Y-95696860D01*
X118527000Y-96844940D01*
X118685750Y-97003690D01*
X119426740Y-97003690D01*
X119518148Y-96965827D01*
X119528162Y-97016170D01*
X119528162Y-97083636D01*
X119604282Y-97466319D01*
X119659303Y-97599151D01*
X119683457Y-97657465D01*
X119542310Y-97599000D01*
X118685750Y-97599000D01*
X118527000Y-97757750D01*
X118527000Y-99123000D01*
X119892250Y-99123000D01*
X120051000Y-98964250D01*
X120051000Y-98165336D01*
X120112328Y-98226664D01*
X120436751Y-98443437D01*
X120537094Y-98485000D01*
X120683681Y-98545718D01*
X121066364Y-98621838D01*
X121333636Y-98621838D01*
X121716319Y-98545718D01*
X121963248Y-98443437D01*
X121963249Y-98443436D01*
X122287672Y-98226664D01*
X122476664Y-98037672D01*
X122693437Y-97713249D01*
X122740760Y-97599000D01*
X122795718Y-97466319D01*
X122871838Y-97083636D01*
X122871838Y-97016170D01*
X122885000Y-96950000D01*
X122885000Y-83872404D01*
X122896838Y-83935317D01*
G36*
X113958060Y-46307822D02*
X113909009Y-46381232D01*
X113815000Y-46853846D01*
X113815000Y-47106154D01*
X113909009Y-47578768D01*
X114176723Y-47979431D01*
X114577386Y-48247145D01*
X115050000Y-48341154D01*
X115522614Y-48247145D01*
X115923277Y-47979431D01*
X116190991Y-47578768D01*
X116285000Y-47106154D01*
X116285000Y-46853846D01*
X116190991Y-46381232D01*
X116141940Y-46307822D01*
X116141940Y-45135000D01*
X116498060Y-45135000D01*
X116498060Y-46307822D01*
X116449009Y-46381232D01*
X116355000Y-46853846D01*
X116355000Y-47106154D01*
X116449009Y-47578768D01*
X116716723Y-47979431D01*
X117117386Y-48247145D01*
X117590000Y-48341154D01*
X118062614Y-48247145D01*
X118463277Y-47979431D01*
X118730991Y-47578768D01*
X118825000Y-47106154D01*
X118825000Y-46853846D01*
X118786512Y-46660353D01*
X118915799Y-46660353D01*
X119055137Y-46853000D01*
X119115238Y-46853000D01*
X119147173Y-46930099D01*
X119324075Y-47107000D01*
X119055137Y-47107000D01*
X118915799Y-47299647D01*
X119092280Y-47747582D01*
X119426744Y-48093884D01*
X119812391Y-48273462D01*
X120003000Y-48148731D01*
X120003000Y-47107000D01*
X119942650Y-47107000D01*
X120003000Y-47046650D01*
X120003000Y-45811269D01*
X120257000Y-45811269D01*
X120257000Y-47046650D01*
X120317350Y-47107000D01*
X120257000Y-47107000D01*
X120257000Y-48148731D01*
X120447609Y-48273462D01*
X120833256Y-48093884D01*
X121167720Y-47747582D01*
X121344201Y-47299647D01*
X121204863Y-47107000D01*
X120935925Y-47107000D01*
X121112827Y-46930099D01*
X121144762Y-46853000D01*
X121204863Y-46853000D01*
X121344201Y-46660353D01*
X121209500Y-46318462D01*
X121209500Y-46017950D01*
X121050750Y-45859200D01*
X120818404Y-45859200D01*
X120447609Y-45686538D01*
X120257000Y-45811269D01*
X120003000Y-45811269D01*
X119812391Y-45686538D01*
X119441596Y-45859200D01*
X119209250Y-45859200D01*
X119050500Y-46017950D01*
X119050500Y-46318462D01*
X118915799Y-46660353D01*
X118786512Y-46660353D01*
X118730991Y-46381232D01*
X118681940Y-46307822D01*
X118681940Y-45135000D01*
X119050500Y-45135000D01*
X119050500Y-45446450D01*
X119209250Y-45605200D01*
X120003000Y-45605200D01*
X120003000Y-45585200D01*
X120257000Y-45585200D01*
X120257000Y-45605200D01*
X121050750Y-45605200D01*
X121209500Y-45446450D01*
X121209500Y-45135000D01*
X121578060Y-45135000D01*
X121578060Y-46307822D01*
X121529009Y-46381232D01*
X121435000Y-46853846D01*
X121435000Y-47106154D01*
X121529009Y-47578768D01*
X121796723Y-47979431D01*
X122197386Y-48247145D01*
X122670000Y-48341154D01*
X123142614Y-48247145D01*
X123543277Y-47979431D01*
X123810991Y-47578768D01*
X123905000Y-47106154D01*
X123905000Y-46853846D01*
X123866512Y-46660353D01*
X123995799Y-46660353D01*
X124135137Y-46853000D01*
X124195238Y-46853000D01*
X124227173Y-46930099D01*
X124404075Y-47107000D01*
X124135137Y-47107000D01*
X123995799Y-47299647D01*
X124172280Y-47747582D01*
X124506744Y-48093884D01*
X124892391Y-48273462D01*
X125083000Y-48148731D01*
X125083000Y-47107000D01*
X125022650Y-47107000D01*
X125083000Y-47046650D01*
X125083000Y-45811269D01*
X125337000Y-45811269D01*
X125337000Y-47046650D01*
X125397350Y-47107000D01*
X125337000Y-47107000D01*
X125337000Y-48148731D01*
X125527609Y-48273462D01*
X125913256Y-48093884D01*
X126247720Y-47747582D01*
X126424201Y-47299647D01*
X126284863Y-47107000D01*
X126015925Y-47107000D01*
X126192827Y-46930099D01*
X126224762Y-46853000D01*
X126284863Y-46853000D01*
X126424201Y-46660353D01*
X126289500Y-46318462D01*
X126289500Y-46017950D01*
X126130750Y-45859200D01*
X125898404Y-45859200D01*
X125527609Y-45686538D01*
X125337000Y-45811269D01*
X125083000Y-45811269D01*
X124892391Y-45686538D01*
X124521596Y-45859200D01*
X124289250Y-45859200D01*
X124130500Y-46017950D01*
X124130500Y-46318462D01*
X123995799Y-46660353D01*
X123866512Y-46660353D01*
X123810991Y-46381232D01*
X123761940Y-46307822D01*
X123761940Y-45135000D01*
X124130500Y-45135000D01*
X124130500Y-45446450D01*
X124289250Y-45605200D01*
X125083000Y-45605200D01*
X125083000Y-45585200D01*
X125337000Y-45585200D01*
X125337000Y-45605200D01*
X126130750Y-45605200D01*
X126289500Y-45446450D01*
X126289500Y-45135000D01*
X126658060Y-45135000D01*
X126658060Y-46307822D01*
X126609009Y-46381232D01*
X126515000Y-46853846D01*
X126515000Y-47106154D01*
X126609009Y-47578768D01*
X126876723Y-47979431D01*
X127277386Y-48247145D01*
X127750000Y-48341154D01*
X128222614Y-48247145D01*
X128623277Y-47979431D01*
X128890991Y-47578768D01*
X128985000Y-47106154D01*
X128985000Y-46853846D01*
X128890991Y-46381232D01*
X128841940Y-46307822D01*
X128841940Y-45135000D01*
X129198060Y-45135000D01*
X129198060Y-46307822D01*
X129149009Y-46381232D01*
X129055000Y-46853846D01*
X129055000Y-47106154D01*
X129149009Y-47578768D01*
X129416723Y-47979431D01*
X129817386Y-48247145D01*
X130036138Y-48290658D01*
X130035860Y-48609398D01*
X129817386Y-48652855D01*
X129416723Y-48920569D01*
X129149009Y-49321232D01*
X129055000Y-49793846D01*
X129055000Y-50046154D01*
X129149009Y-50518768D01*
X129198060Y-50592178D01*
X129198060Y-52006000D01*
X129242338Y-52241317D01*
X129381410Y-52457441D01*
X129593610Y-52602431D01*
X129845500Y-52653440D01*
X130734500Y-52653440D01*
X130969817Y-52609162D01*
X131185941Y-52470090D01*
X131330931Y-52257890D01*
X131381940Y-52006000D01*
X131381940Y-51453550D01*
X131750500Y-51453550D01*
X131750500Y-52132310D01*
X131847173Y-52365699D01*
X132025802Y-52544327D01*
X132259191Y-52641000D01*
X132544250Y-52641000D01*
X132703000Y-52482250D01*
X132703000Y-51294800D01*
X132957000Y-51294800D01*
X132957000Y-52482250D01*
X133115750Y-52641000D01*
X133400809Y-52641000D01*
X133634198Y-52544327D01*
X133812827Y-52365699D01*
X133909500Y-52132310D01*
X133909500Y-51453550D01*
X133750750Y-51294800D01*
X132957000Y-51294800D01*
X132703000Y-51294800D01*
X131909250Y-51294800D01*
X131750500Y-51453550D01*
X131381940Y-51453550D01*
X131381940Y-50592178D01*
X131430991Y-50518768D01*
X131525000Y-50046154D01*
X131525000Y-49973970D01*
X131595000Y-49974031D01*
X131595000Y-50047002D01*
X131755136Y-50047002D01*
X131615799Y-50239647D01*
X131750500Y-50581538D01*
X131750500Y-50882050D01*
X131909250Y-51040800D01*
X132141596Y-51040800D01*
X132512391Y-51213462D01*
X132703000Y-51088731D01*
X132703000Y-49853350D01*
X132683000Y-49833350D01*
X132683000Y-49793000D01*
X132703000Y-49793000D01*
X132703000Y-49773000D01*
X132957000Y-49773000D01*
X132957000Y-49793000D01*
X133017350Y-49793000D01*
X132957000Y-49853350D01*
X132957000Y-51088731D01*
X133147609Y-51213462D01*
X133518404Y-51040800D01*
X133750750Y-51040800D01*
X133909500Y-50882050D01*
X133909500Y-50581538D01*
X134044201Y-50239647D01*
X133904863Y-50047000D01*
X133844762Y-50047000D01*
X133812827Y-49969901D01*
X133635925Y-49793000D01*
X133904863Y-49793000D01*
X134044201Y-49600353D01*
X133867720Y-49152418D01*
X133533256Y-48806116D01*
X133147609Y-48626538D01*
X133083810Y-48668287D01*
X133084140Y-48290602D01*
X133302614Y-48247145D01*
X133703277Y-47979431D01*
X133970991Y-47578768D01*
X134065000Y-47106154D01*
X134065000Y-46853846D01*
X133970991Y-46381232D01*
X133921940Y-46307822D01*
X133921940Y-45307941D01*
X133964008Y-45350009D01*
X134229824Y-45871702D01*
X134323000Y-46459992D01*
X134323000Y-49421573D01*
X134324086Y-49438150D01*
X134392234Y-49955788D01*
X134400815Y-49987812D01*
X134600616Y-50470174D01*
X134617193Y-50498886D01*
X134935030Y-50913099D01*
X134945983Y-50925589D01*
X135324411Y-51304017D01*
X135343657Y-51319811D01*
X135992503Y-51753356D01*
X136038284Y-51772319D01*
X136803651Y-51924560D01*
X136828427Y-51927000D01*
X139190008Y-51927000D01*
X139778298Y-52020176D01*
X140299991Y-52285992D01*
X140515000Y-52501001D01*
X140515000Y-93248999D01*
X140299991Y-93464008D01*
X139778298Y-93729824D01*
X139190008Y-93823000D01*
X137178427Y-93823000D01*
X137153651Y-93825440D01*
X136388284Y-93977681D01*
X136342503Y-93996644D01*
X135693657Y-94430189D01*
X135674411Y-94445983D01*
X134645983Y-95474411D01*
X134635030Y-95486901D01*
X134317193Y-95901114D01*
X134300616Y-95929826D01*
X134100815Y-96412188D01*
X134092234Y-96444212D01*
X134024086Y-96961850D01*
X134023000Y-96978427D01*
X134023000Y-98940008D01*
X133929824Y-99528298D01*
X133664008Y-100049991D01*
X133448999Y-100265000D01*
X131251000Y-100265000D01*
X131251000Y-99535750D01*
X131092250Y-99377000D01*
X129727000Y-99377000D01*
X129727000Y-99397000D01*
X129473000Y-99397000D01*
X129473000Y-99377000D01*
X129453000Y-99377000D01*
X129453000Y-99123000D01*
X129473000Y-99123000D01*
X129473000Y-97757750D01*
X129727000Y-97757750D01*
X129727000Y-99123000D01*
X131092250Y-99123000D01*
X131251000Y-98964250D01*
X131251000Y-98107691D01*
X131154327Y-97874302D01*
X130975699Y-97695673D01*
X130742310Y-97599000D01*
X129885750Y-97599000D01*
X129727000Y-97757750D01*
X129473000Y-97757750D01*
X129314250Y-97599000D01*
X128457690Y-97599000D01*
X128224301Y-97695673D01*
X128045673Y-97874302D01*
X128028001Y-97916966D01*
X127691810Y-97692330D01*
X127179964Y-97590517D01*
X127135000Y-97545554D01*
X127135000Y-97453222D01*
X127135317Y-97453162D01*
X127351441Y-97314090D01*
X127496431Y-97101890D01*
X127547440Y-96850000D01*
X127547440Y-95585750D01*
X129265000Y-95585750D01*
X129265000Y-96976309D01*
X129361673Y-97209698D01*
X129540301Y-97388327D01*
X129773690Y-97485000D01*
X130114250Y-97485000D01*
X130273000Y-97326250D01*
X130273000Y-95427000D01*
X130527000Y-95427000D01*
X130527000Y-97326250D01*
X130685750Y-97485000D01*
X131026310Y-97485000D01*
X131259699Y-97388327D01*
X131438327Y-97209698D01*
X131535000Y-96976309D01*
X131535000Y-95585750D01*
X131376250Y-95427000D01*
X130527000Y-95427000D01*
X130273000Y-95427000D01*
X129423750Y-95427000D01*
X129265000Y-95585750D01*
X127547440Y-95585750D01*
X127547440Y-93750000D01*
X127523674Y-93623691D01*
X129265000Y-93623691D01*
X129265000Y-95014250D01*
X129423750Y-95173000D01*
X130273000Y-95173000D01*
X130273000Y-93273750D01*
X130527000Y-93273750D01*
X130527000Y-95173000D01*
X131376250Y-95173000D01*
X131535000Y-95014250D01*
X131535000Y-93623691D01*
X131438327Y-93390302D01*
X131259699Y-93211673D01*
X131026310Y-93115000D01*
X130685750Y-93115000D01*
X130527000Y-93273750D01*
X130273000Y-93273750D01*
X130114250Y-93115000D01*
X129773690Y-93115000D01*
X129540301Y-93211673D01*
X129361673Y-93390302D01*
X129265000Y-93623691D01*
X127523674Y-93623691D01*
X127503162Y-93514683D01*
X127364090Y-93298559D01*
X127151890Y-93153569D01*
X127135000Y-93150149D01*
X127135000Y-88553222D01*
X127135317Y-88553162D01*
X127351441Y-88414090D01*
X127496431Y-88201890D01*
X127547440Y-87950000D01*
X127547440Y-86685750D01*
X129265000Y-86685750D01*
X129265000Y-88076309D01*
X129361673Y-88309698D01*
X129540301Y-88488327D01*
X129773690Y-88585000D01*
X130114250Y-88585000D01*
X130273000Y-88426250D01*
X130273000Y-86527000D01*
X130527000Y-86527000D01*
X130527000Y-88426250D01*
X130685750Y-88585000D01*
X131026310Y-88585000D01*
X131259699Y-88488327D01*
X131438327Y-88309698D01*
X131535000Y-88076309D01*
X131535000Y-86685750D01*
X131376250Y-86527000D01*
X130527000Y-86527000D01*
X130273000Y-86527000D01*
X129423750Y-86527000D01*
X129265000Y-86685750D01*
X127547440Y-86685750D01*
X127547440Y-84850000D01*
X127523674Y-84723691D01*
X129265000Y-84723691D01*
X129265000Y-86114250D01*
X129423750Y-86273000D01*
X130273000Y-86273000D01*
X130273000Y-84373750D01*
X130527000Y-84373750D01*
X130527000Y-86273000D01*
X131376250Y-86273000D01*
X131535000Y-86114250D01*
X131535000Y-84723691D01*
X131438327Y-84490302D01*
X131259699Y-84311673D01*
X131026310Y-84215000D01*
X130685750Y-84215000D01*
X130527000Y-84373750D01*
X130273000Y-84373750D01*
X130114250Y-84215000D01*
X129773690Y-84215000D01*
X129540301Y-84311673D01*
X129361673Y-84490302D01*
X129265000Y-84723691D01*
X127523674Y-84723691D01*
X127503162Y-84614683D01*
X127364090Y-84398559D01*
X127181231Y-84273617D01*
X127351441Y-84164090D01*
X127496431Y-83951890D01*
X127547440Y-83700000D01*
X127547440Y-82800000D01*
X127503162Y-82564683D01*
X127364090Y-82348559D01*
X127151890Y-82203569D01*
X126900000Y-82152560D01*
X125942007Y-82152560D01*
X123119723Y-79330277D01*
X122881272Y-79170949D01*
X122600000Y-79115000D01*
X118304447Y-79115000D01*
X118170861Y-78981414D01*
X118250000Y-78997440D01*
X120250000Y-78997440D01*
X120485317Y-78953162D01*
X120701441Y-78814090D01*
X120846431Y-78601890D01*
X120897440Y-78350000D01*
X120897440Y-78000000D01*
X123902560Y-78000000D01*
X123902560Y-79500000D01*
X123946838Y-79735317D01*
X124085910Y-79951441D01*
X124298110Y-80096431D01*
X124550000Y-80147440D01*
X126550000Y-80147440D01*
X126785317Y-80103162D01*
X127001441Y-79964090D01*
X127146431Y-79751890D01*
X127170102Y-79635000D01*
X127952560Y-79635000D01*
X127952560Y-79850000D01*
X127996838Y-80085317D01*
X128135910Y-80301441D01*
X128348110Y-80446431D01*
X128600000Y-80497440D01*
X130200000Y-80497440D01*
X130435317Y-80453162D01*
X130651441Y-80314090D01*
X130796431Y-80101890D01*
X130847440Y-79850000D01*
X130847440Y-79775000D01*
X134084783Y-79775000D01*
X134201043Y-80056372D01*
X134730839Y-80587093D01*
X135423405Y-80874672D01*
X136173305Y-80875326D01*
X136866372Y-80588957D01*
X137397093Y-80059161D01*
X137684672Y-79366595D01*
X137685326Y-78616695D01*
X137398957Y-77923628D01*
X136869161Y-77392907D01*
X136176595Y-77105328D01*
X135426695Y-77104674D01*
X134733628Y-77391043D01*
X134202907Y-77920839D01*
X134084913Y-78205000D01*
X130847440Y-78205000D01*
X130847440Y-77850000D01*
X130803162Y-77614683D01*
X130664090Y-77398559D01*
X130451890Y-77253569D01*
X130200000Y-77202560D01*
X128600000Y-77202560D01*
X128364683Y-77246838D01*
X128148559Y-77385910D01*
X128003569Y-77598110D01*
X127952560Y-77850000D01*
X127952560Y-78065000D01*
X127197440Y-78065000D01*
X127197440Y-78000000D01*
X127153162Y-77764683D01*
X127047518Y-77600508D01*
X127088327Y-77559699D01*
X127185000Y-77326310D01*
X127185000Y-76735750D01*
X127026250Y-76577000D01*
X125677000Y-76577000D01*
X125677000Y-76597000D01*
X125423000Y-76597000D01*
X125423000Y-76577000D01*
X124073750Y-76577000D01*
X123915000Y-76735750D01*
X123915000Y-77326310D01*
X124011673Y-77559699D01*
X124053634Y-77601660D01*
X123953569Y-77748110D01*
X123902560Y-78000000D01*
X120897440Y-78000000D01*
X120897440Y-74550000D01*
X120853162Y-74314683D01*
X120714090Y-74098559D01*
X120501890Y-73953569D01*
X120250000Y-73902560D01*
X118250000Y-73902560D01*
X118014683Y-73946838D01*
X117798559Y-74085910D01*
X117653569Y-74298110D01*
X117602560Y-74550000D01*
X117602560Y-78350000D01*
X117617188Y-78427741D01*
X116535000Y-77345554D01*
X116535000Y-76250000D01*
X116479051Y-75968728D01*
X116319723Y-75730277D01*
X115135000Y-74545554D01*
X115135000Y-72114383D01*
X120064769Y-72114383D01*
X120267582Y-72605229D01*
X120642796Y-72981098D01*
X121133287Y-73184768D01*
X121664383Y-73185231D01*
X122155229Y-72982418D01*
X122531098Y-72607204D01*
X122695758Y-72210660D01*
X122748110Y-72246431D01*
X123000000Y-72297440D01*
X123737282Y-72297440D01*
X124267221Y-72827379D01*
X124098559Y-72935910D01*
X123953569Y-73148110D01*
X123902560Y-73400000D01*
X123902560Y-74900000D01*
X123946838Y-75135317D01*
X124052482Y-75299492D01*
X124011673Y-75340301D01*
X123915000Y-75573690D01*
X123915000Y-76164250D01*
X124073750Y-76323000D01*
X125423000Y-76323000D01*
X125423000Y-76303000D01*
X125677000Y-76303000D01*
X125677000Y-76323000D01*
X127026250Y-76323000D01*
X127185000Y-76164250D01*
X127185000Y-75573690D01*
X127088327Y-75340301D01*
X127046366Y-75298340D01*
X127146431Y-75151890D01*
X127149699Y-75135750D01*
X127965000Y-75135750D01*
X127965000Y-75976309D01*
X128061673Y-76209698D01*
X128240301Y-76388327D01*
X128473690Y-76485000D01*
X129114250Y-76485000D01*
X129273000Y-76326250D01*
X129273000Y-74977000D01*
X129527000Y-74977000D01*
X129527000Y-76326250D01*
X129685750Y-76485000D01*
X130326310Y-76485000D01*
X130559699Y-76388327D01*
X130738327Y-76209698D01*
X130835000Y-75976309D01*
X130835000Y-75135750D01*
X130676250Y-74977000D01*
X129527000Y-74977000D01*
X129273000Y-74977000D01*
X128123750Y-74977000D01*
X127965000Y-75135750D01*
X127149699Y-75135750D01*
X127197440Y-74900000D01*
X127197440Y-73723691D01*
X127965000Y-73723691D01*
X127965000Y-74564250D01*
X128123750Y-74723000D01*
X129273000Y-74723000D01*
X129273000Y-73373750D01*
X129527000Y-73373750D01*
X129527000Y-74723000D01*
X130676250Y-74723000D01*
X130835000Y-74564250D01*
X130835000Y-74195750D01*
X133915000Y-74195750D01*
X133915000Y-75286309D01*
X134011673Y-75519698D01*
X134190301Y-75698327D01*
X134423690Y-75795000D01*
X135514250Y-75795000D01*
X135673000Y-75636250D01*
X135673000Y-74037000D01*
X135927000Y-74037000D01*
X135927000Y-75636250D01*
X136085750Y-75795000D01*
X137176310Y-75795000D01*
X137409699Y-75698327D01*
X137588327Y-75519698D01*
X137685000Y-75286309D01*
X137685000Y-74195750D01*
X137526250Y-74037000D01*
X135927000Y-74037000D01*
X135673000Y-74037000D01*
X134073750Y-74037000D01*
X133915000Y-74195750D01*
X130835000Y-74195750D01*
X130835000Y-73723691D01*
X130738327Y-73490302D01*
X130559699Y-73311673D01*
X130326310Y-73215000D01*
X129685750Y-73215000D01*
X129527000Y-73373750D01*
X129273000Y-73373750D01*
X129114250Y-73215000D01*
X128473690Y-73215000D01*
X128240301Y-73311673D01*
X128061673Y-73490302D01*
X127965000Y-73723691D01*
X127197440Y-73723691D01*
X127197440Y-73400000D01*
X127153162Y-73164683D01*
X127014090Y-72948559D01*
X126801890Y-72803569D01*
X126550000Y-72752560D01*
X126285781Y-72752560D01*
X126275245Y-72699593D01*
X126164394Y-72533691D01*
X133915000Y-72533691D01*
X133915000Y-73624250D01*
X134073750Y-73783000D01*
X135673000Y-73783000D01*
X135673000Y-72183750D01*
X135927000Y-72183750D01*
X135927000Y-73783000D01*
X137526250Y-73783000D01*
X137685000Y-73624250D01*
X137685000Y-72533691D01*
X137588327Y-72300302D01*
X137409699Y-72121673D01*
X137176310Y-72025000D01*
X136085750Y-72025000D01*
X135927000Y-72183750D01*
X135673000Y-72183750D01*
X135514250Y-72025000D01*
X134423690Y-72025000D01*
X134190301Y-72121673D01*
X134011673Y-72300302D01*
X133915000Y-72533691D01*
X126164394Y-72533691D01*
X126105079Y-72444921D01*
X125582474Y-71922316D01*
X125596431Y-71901890D01*
X125647440Y-71650000D01*
X125647440Y-71135750D01*
X126365000Y-71135750D01*
X126365000Y-71776310D01*
X126461673Y-72009699D01*
X126640302Y-72188327D01*
X126873691Y-72285000D01*
X127714250Y-72285000D01*
X127873000Y-72126250D01*
X127873000Y-70977000D01*
X128127000Y-70977000D01*
X128127000Y-72126250D01*
X128285750Y-72285000D01*
X129126309Y-72285000D01*
X129359698Y-72188327D01*
X129538327Y-72009699D01*
X129635000Y-71776310D01*
X129635000Y-71135750D01*
X129476250Y-70977000D01*
X128127000Y-70977000D01*
X127873000Y-70977000D01*
X126523750Y-70977000D01*
X126365000Y-71135750D01*
X125647440Y-71135750D01*
X125647440Y-70050000D01*
X125623674Y-69923690D01*
X126365000Y-69923690D01*
X126365000Y-70564250D01*
X126523750Y-70723000D01*
X127873000Y-70723000D01*
X127873000Y-69573750D01*
X128127000Y-69573750D01*
X128127000Y-70723000D01*
X129476250Y-70723000D01*
X129635000Y-70564250D01*
X129635000Y-69923690D01*
X129538327Y-69690301D01*
X129359698Y-69511673D01*
X129126309Y-69415000D01*
X128285750Y-69415000D01*
X128127000Y-69573750D01*
X127873000Y-69573750D01*
X127714250Y-69415000D01*
X126873691Y-69415000D01*
X126640302Y-69511673D01*
X126461673Y-69690301D01*
X126365000Y-69923690D01*
X125623674Y-69923690D01*
X125603162Y-69814683D01*
X125464090Y-69598559D01*
X125251890Y-69453569D01*
X125000000Y-69402560D01*
X123000000Y-69402560D01*
X122764683Y-69446838D01*
X122548559Y-69585910D01*
X122403569Y-69798110D01*
X122352560Y-70050000D01*
X122352560Y-70074436D01*
X122099594Y-70124755D01*
X121844921Y-70294921D01*
X121624647Y-70515195D01*
X121135617Y-70514769D01*
X120644771Y-70717582D01*
X120268902Y-71092796D01*
X120065232Y-71583287D01*
X120064769Y-72114383D01*
X115135000Y-72114383D01*
X115135000Y-66685118D01*
X115244579Y-66685214D01*
X115698657Y-66497592D01*
X116046371Y-66150485D01*
X116121565Y-65969398D01*
X116200000Y-65985000D01*
X116339356Y-65985000D01*
X116315180Y-66043223D01*
X116314821Y-66454971D01*
X116472058Y-66835515D01*
X116762954Y-67126919D01*
X117059627Y-67250108D01*
X116764485Y-67372058D01*
X116473081Y-67662954D01*
X116315180Y-68043223D01*
X116314821Y-68454971D01*
X116472058Y-68835515D01*
X116762954Y-69126919D01*
X117143223Y-69284820D01*
X117554971Y-69285179D01*
X117935515Y-69127942D01*
X118226919Y-68837046D01*
X118373183Y-68484802D01*
X118827311Y-68485199D01*
X118972058Y-68835515D01*
X119262954Y-69126919D01*
X119643223Y-69284820D01*
X120054971Y-69285179D01*
X120435515Y-69127942D01*
X120726919Y-68837046D01*
X120884820Y-68456777D01*
X120885179Y-68045029D01*
X120881035Y-68035000D01*
X121400000Y-68035000D01*
X121700407Y-67975245D01*
X121955079Y-67805079D01*
X123725158Y-66035000D01*
X126200000Y-66035000D01*
X126500407Y-65975245D01*
X126755079Y-65805079D01*
X127455076Y-65105081D01*
X127455079Y-65105079D01*
X127625245Y-64850406D01*
X127685000Y-64550000D01*
X127685000Y-64097490D01*
X129251570Y-64097490D01*
X129486887Y-64053212D01*
X129703011Y-63914140D01*
X129791249Y-63785000D01*
X136819095Y-63785000D01*
X136830729Y-63843489D01*
X137155585Y-64329670D01*
X137470366Y-64540000D01*
X137155585Y-64750330D01*
X136830729Y-65236511D01*
X136716655Y-65810000D01*
X136830729Y-66383489D01*
X137155585Y-66869670D01*
X137470366Y-67080000D01*
X137155585Y-67290330D01*
X136830729Y-67776511D01*
X136716655Y-68350000D01*
X136830729Y-68923489D01*
X137155585Y-69409670D01*
X137641766Y-69734526D01*
X138215255Y-69848600D01*
X138584745Y-69848600D01*
X139158234Y-69734526D01*
X139644415Y-69409670D01*
X139969271Y-68923489D01*
X140083345Y-68350000D01*
X139969271Y-67776511D01*
X139644415Y-67290330D01*
X139329634Y-67080000D01*
X139644415Y-66869670D01*
X139969271Y-66383489D01*
X140083345Y-65810000D01*
X139969271Y-65236511D01*
X139644415Y-64750330D01*
X139329634Y-64540000D01*
X139644415Y-64329670D01*
X139969271Y-63843489D01*
X140083345Y-63270000D01*
X139969271Y-62696511D01*
X139644415Y-62210330D01*
X139329634Y-62000000D01*
X139644415Y-61789670D01*
X139969271Y-61303489D01*
X140083345Y-60730000D01*
X139969271Y-60156511D01*
X139644415Y-59670330D01*
X139329634Y-59460000D01*
X139644415Y-59249670D01*
X139969271Y-58763489D01*
X140083345Y-58190000D01*
X139969271Y-57616511D01*
X139644415Y-57130330D01*
X139622220Y-57115500D01*
X139775698Y-57051927D01*
X139954327Y-56873299D01*
X140051000Y-56639910D01*
X140051000Y-55935750D01*
X139892250Y-55777000D01*
X138527000Y-55777000D01*
X138527000Y-55797000D01*
X138273000Y-55797000D01*
X138273000Y-55777000D01*
X136907750Y-55777000D01*
X136749000Y-55935750D01*
X136749000Y-56639910D01*
X136845673Y-56873299D01*
X137024302Y-57051927D01*
X137177780Y-57115500D01*
X137155585Y-57130330D01*
X136830729Y-57616511D01*
X136716655Y-58190000D01*
X136830729Y-58763489D01*
X137155585Y-59249670D01*
X137470366Y-59460000D01*
X137155585Y-59670330D01*
X137025511Y-59865000D01*
X134439018Y-59865000D01*
X134364090Y-59748559D01*
X134151890Y-59603569D01*
X133900000Y-59552560D01*
X132700000Y-59552560D01*
X132464683Y-59596838D01*
X132248559Y-59735910D01*
X132200866Y-59805711D01*
X132164090Y-59748559D01*
X131951890Y-59603569D01*
X131700000Y-59552560D01*
X130500000Y-59552560D01*
X130264683Y-59596838D01*
X130048559Y-59735910D01*
X129903569Y-59948110D01*
X129852560Y-60200000D01*
X129852560Y-61100000D01*
X129896838Y-61335317D01*
X130035910Y-61551441D01*
X130248110Y-61696431D01*
X130365000Y-61720102D01*
X130365000Y-62315000D01*
X129790620Y-62315000D01*
X129715660Y-62198509D01*
X129503460Y-62053519D01*
X129251570Y-62002510D01*
X128157648Y-62002510D01*
X128705079Y-61455079D01*
X128875245Y-61200407D01*
X128935000Y-60900000D01*
X128935000Y-59912630D01*
X128985317Y-59903162D01*
X129201441Y-59764090D01*
X129346431Y-59551890D01*
X129397440Y-59300000D01*
X129397440Y-58400000D01*
X129353162Y-58164683D01*
X129214090Y-57948559D01*
X129001890Y-57803569D01*
X128885000Y-57779898D01*
X128885000Y-56712630D01*
X128935317Y-56703162D01*
X129151441Y-56564090D01*
X129296431Y-56351890D01*
X129347440Y-56100000D01*
X129347440Y-55200000D01*
X129303162Y-54964683D01*
X129164090Y-54748559D01*
X129034612Y-54660090D01*
X136749000Y-54660090D01*
X136749000Y-55364250D01*
X136907750Y-55523000D01*
X138273000Y-55523000D01*
X138273000Y-54310150D01*
X138527000Y-54310150D01*
X138527000Y-55523000D01*
X139892250Y-55523000D01*
X140051000Y-55364250D01*
X140051000Y-54660090D01*
X139954327Y-54426701D01*
X139775698Y-54248073D01*
X139542309Y-54151400D01*
X138685750Y-54151400D01*
X138527000Y-54310150D01*
X138273000Y-54310150D01*
X138114250Y-54151400D01*
X137257691Y-54151400D01*
X137024302Y-54248073D01*
X136845673Y-54426701D01*
X136749000Y-54660090D01*
X129034612Y-54660090D01*
X128951890Y-54603569D01*
X128700000Y-54552560D01*
X127500000Y-54552560D01*
X127264683Y-54596838D01*
X127048559Y-54735910D01*
X127000866Y-54805711D01*
X126964090Y-54748559D01*
X126751890Y-54603569D01*
X126500000Y-54552560D01*
X125300000Y-54552560D01*
X125064683Y-54596838D01*
X124848559Y-54735910D01*
X124703569Y-54948110D01*
X124652560Y-55200000D01*
X124652560Y-55557993D01*
X123880278Y-56330276D01*
X123880277Y-56330277D01*
X123720949Y-56568728D01*
X123665000Y-56850000D01*
X123665000Y-58768432D01*
X123535000Y-58638204D01*
X123535000Y-56850000D01*
X123479051Y-56568728D01*
X123422224Y-56483680D01*
X123319723Y-56330276D01*
X121319723Y-54330277D01*
X121081272Y-54170949D01*
X120800000Y-54115000D01*
X115704447Y-54115000D01*
X114535000Y-52945554D01*
X114535000Y-52641000D01*
X114764250Y-52641000D01*
X114923000Y-52482250D01*
X114923000Y-51294800D01*
X115177000Y-51294800D01*
X115177000Y-52482250D01*
X115335750Y-52641000D01*
X115620809Y-52641000D01*
X115854198Y-52544327D01*
X116032827Y-52365699D01*
X116129500Y-52132310D01*
X116129500Y-51453550D01*
X115970750Y-51294800D01*
X115177000Y-51294800D01*
X114923000Y-51294800D01*
X114903000Y-51294800D01*
X114903000Y-51101819D01*
X114923000Y-51088731D01*
X114923000Y-49853350D01*
X114903000Y-49833350D01*
X114903000Y-49793000D01*
X114923000Y-49793000D01*
X114923000Y-48751269D01*
X115177000Y-48751269D01*
X115177000Y-49793000D01*
X115237350Y-49793000D01*
X115177000Y-49853350D01*
X115177000Y-51088731D01*
X115367609Y-51213462D01*
X115738404Y-51040800D01*
X115970750Y-51040800D01*
X116129500Y-50882050D01*
X116129500Y-50581538D01*
X116264201Y-50239647D01*
X116124863Y-50047000D01*
X116064762Y-50047000D01*
X116032827Y-49969901D01*
X115856772Y-49793846D01*
X116355000Y-49793846D01*
X116355000Y-50046154D01*
X116449009Y-50518768D01*
X116498060Y-50592178D01*
X116498060Y-52006000D01*
X116542338Y-52241317D01*
X116681410Y-52457441D01*
X116893610Y-52602431D01*
X117145500Y-52653440D01*
X118034500Y-52653440D01*
X118269817Y-52609162D01*
X118485941Y-52470090D01*
X118630931Y-52257890D01*
X118681940Y-52006000D01*
X118681940Y-50592178D01*
X118730991Y-50518768D01*
X118825000Y-50046154D01*
X118825000Y-49793846D01*
X118895000Y-49793846D01*
X118895000Y-50046154D01*
X118989009Y-50518768D01*
X119038060Y-50592178D01*
X119038060Y-52006000D01*
X119082338Y-52241317D01*
X119221410Y-52457441D01*
X119433610Y-52602431D01*
X119685500Y-52653440D01*
X120574500Y-52653440D01*
X120809817Y-52609162D01*
X121025941Y-52470090D01*
X121170931Y-52257890D01*
X121221940Y-52006000D01*
X121221940Y-50592178D01*
X121270991Y-50518768D01*
X121365000Y-50046154D01*
X121365000Y-49793846D01*
X121435000Y-49793846D01*
X121435000Y-50046154D01*
X121529009Y-50518768D01*
X121578060Y-50592178D01*
X121578060Y-52006000D01*
X121622338Y-52241317D01*
X121761410Y-52457441D01*
X121973610Y-52602431D01*
X122225500Y-52653440D01*
X123114500Y-52653440D01*
X123349817Y-52609162D01*
X123565941Y-52470090D01*
X123710931Y-52257890D01*
X123761940Y-52006000D01*
X123761940Y-50592178D01*
X123810991Y-50518768D01*
X123905000Y-50046154D01*
X123905000Y-49793846D01*
X123975000Y-49793846D01*
X123975000Y-50046154D01*
X124069009Y-50518768D01*
X124118060Y-50592178D01*
X124118060Y-52006000D01*
X124162338Y-52241317D01*
X124301410Y-52457441D01*
X124513610Y-52602431D01*
X124765500Y-52653440D01*
X125654500Y-52653440D01*
X125889817Y-52609162D01*
X126105941Y-52470090D01*
X126250931Y-52257890D01*
X126301940Y-52006000D01*
X126301940Y-50592178D01*
X126350991Y-50518768D01*
X126445000Y-50046154D01*
X126445000Y-49793846D01*
X126515000Y-49793846D01*
X126515000Y-50046154D01*
X126609009Y-50518768D01*
X126658060Y-50592178D01*
X126658060Y-52006000D01*
X126702338Y-52241317D01*
X126841410Y-52457441D01*
X127053610Y-52602431D01*
X127305500Y-52653440D01*
X128194500Y-52653440D01*
X128429817Y-52609162D01*
X128645941Y-52470090D01*
X128790931Y-52257890D01*
X128841940Y-52006000D01*
X128841940Y-50592178D01*
X128890991Y-50518768D01*
X128985000Y-50046154D01*
X128985000Y-49793846D01*
X128890991Y-49321232D01*
X128623277Y-48920569D01*
X128222614Y-48652855D01*
X127750000Y-48558846D01*
X127277386Y-48652855D01*
X126876723Y-48920569D01*
X126609009Y-49321232D01*
X126515000Y-49793846D01*
X126445000Y-49793846D01*
X126350991Y-49321232D01*
X126083277Y-48920569D01*
X125682614Y-48652855D01*
X125210000Y-48558846D01*
X124737386Y-48652855D01*
X124336723Y-48920569D01*
X124069009Y-49321232D01*
X123975000Y-49793846D01*
X123905000Y-49793846D01*
X123810991Y-49321232D01*
X123543277Y-48920569D01*
X123142614Y-48652855D01*
X122670000Y-48558846D01*
X122197386Y-48652855D01*
X121796723Y-48920569D01*
X121529009Y-49321232D01*
X121435000Y-49793846D01*
X121365000Y-49793846D01*
X121270991Y-49321232D01*
X121003277Y-48920569D01*
X120602614Y-48652855D01*
X120130000Y-48558846D01*
X119657386Y-48652855D01*
X119256723Y-48920569D01*
X118989009Y-49321232D01*
X118895000Y-49793846D01*
X118825000Y-49793846D01*
X118730991Y-49321232D01*
X118463277Y-48920569D01*
X118062614Y-48652855D01*
X117590000Y-48558846D01*
X117117386Y-48652855D01*
X116716723Y-48920569D01*
X116449009Y-49321232D01*
X116355000Y-49793846D01*
X115856772Y-49793846D01*
X115855925Y-49793000D01*
X116124863Y-49793000D01*
X116264201Y-49600353D01*
X116087720Y-49152418D01*
X115753256Y-48806116D01*
X115367609Y-48626538D01*
X115177000Y-48751269D01*
X114923000Y-48751269D01*
X114732391Y-48626538D01*
X114346744Y-48806116D01*
X114272467Y-48883021D01*
X113374645Y-47985199D01*
X113383277Y-47979431D01*
X113650991Y-47578768D01*
X113745000Y-47106154D01*
X113745000Y-46853846D01*
X113650991Y-46381232D01*
X113601940Y-46307822D01*
X113601940Y-45135000D01*
X113958060Y-45135000D01*
X113958060Y-46307822D01*
X113958060Y-46307822D01*
G37*
X113958060Y-46307822D02*
X113909009Y-46381232D01*
X113815000Y-46853846D01*
X113815000Y-47106154D01*
X113909009Y-47578768D01*
X114176723Y-47979431D01*
X114577386Y-48247145D01*
X115050000Y-48341154D01*
X115522614Y-48247145D01*
X115923277Y-47979431D01*
X116190991Y-47578768D01*
X116285000Y-47106154D01*
X116285000Y-46853846D01*
X116190991Y-46381232D01*
X116141940Y-46307822D01*
X116141940Y-45135000D01*
X116498060Y-45135000D01*
X116498060Y-46307822D01*
X116449009Y-46381232D01*
X116355000Y-46853846D01*
X116355000Y-47106154D01*
X116449009Y-47578768D01*
X116716723Y-47979431D01*
X117117386Y-48247145D01*
X117590000Y-48341154D01*
X118062614Y-48247145D01*
X118463277Y-47979431D01*
X118730991Y-47578768D01*
X118825000Y-47106154D01*
X118825000Y-46853846D01*
X118786512Y-46660353D01*
X118915799Y-46660353D01*
X119055137Y-46853000D01*
X119115238Y-46853000D01*
X119147173Y-46930099D01*
X119324075Y-47107000D01*
X119055137Y-47107000D01*
X118915799Y-47299647D01*
X119092280Y-47747582D01*
X119426744Y-48093884D01*
X119812391Y-48273462D01*
X120003000Y-48148731D01*
X120003000Y-47107000D01*
X119942650Y-47107000D01*
X120003000Y-47046650D01*
X120003000Y-45811269D01*
X120257000Y-45811269D01*
X120257000Y-47046650D01*
X120317350Y-47107000D01*
X120257000Y-47107000D01*
X120257000Y-48148731D01*
X120447609Y-48273462D01*
X120833256Y-48093884D01*
X121167720Y-47747582D01*
X121344201Y-47299647D01*
X121204863Y-47107000D01*
X120935925Y-47107000D01*
X121112827Y-46930099D01*
X121144762Y-46853000D01*
X121204863Y-46853000D01*
X121344201Y-46660353D01*
X121209500Y-46318462D01*
X121209500Y-46017950D01*
X121050750Y-45859200D01*
X120818404Y-45859200D01*
X120447609Y-45686538D01*
X120257000Y-45811269D01*
X120003000Y-45811269D01*
X119812391Y-45686538D01*
X119441596Y-45859200D01*
X119209250Y-45859200D01*
X119050500Y-46017950D01*
X119050500Y-46318462D01*
X118915799Y-46660353D01*
X118786512Y-46660353D01*
X118730991Y-46381232D01*
X118681940Y-46307822D01*
X118681940Y-45135000D01*
X119050500Y-45135000D01*
X119050500Y-45446450D01*
X119209250Y-45605200D01*
X120003000Y-45605200D01*
X120003000Y-45585200D01*
X120257000Y-45585200D01*
X120257000Y-45605200D01*
X121050750Y-45605200D01*
X121209500Y-45446450D01*
X121209500Y-45135000D01*
X121578060Y-45135000D01*
X121578060Y-46307822D01*
X121529009Y-46381232D01*
X121435000Y-46853846D01*
X121435000Y-47106154D01*
X121529009Y-47578768D01*
X121796723Y-47979431D01*
X122197386Y-48247145D01*
X122670000Y-48341154D01*
X123142614Y-48247145D01*
X123543277Y-47979431D01*
X123810991Y-47578768D01*
X123905000Y-47106154D01*
X123905000Y-46853846D01*
X123866512Y-46660353D01*
X123995799Y-46660353D01*
X124135137Y-46853000D01*
X124195238Y-46853000D01*
X124227173Y-46930099D01*
X124404075Y-47107000D01*
X124135137Y-47107000D01*
X123995799Y-47299647D01*
X124172280Y-47747582D01*
X124506744Y-48093884D01*
X124892391Y-48273462D01*
X125083000Y-48148731D01*
X125083000Y-47107000D01*
X125022650Y-47107000D01*
X125083000Y-47046650D01*
X125083000Y-45811269D01*
X125337000Y-45811269D01*
X125337000Y-47046650D01*
X125397350Y-47107000D01*
X125337000Y-47107000D01*
X125337000Y-48148731D01*
X125527609Y-48273462D01*
X125913256Y-48093884D01*
X126247720Y-47747582D01*
X126424201Y-47299647D01*
X126284863Y-47107000D01*
X126015925Y-47107000D01*
X126192827Y-46930099D01*
X126224762Y-46853000D01*
X126284863Y-46853000D01*
X126424201Y-46660353D01*
X126289500Y-46318462D01*
X126289500Y-46017950D01*
X126130750Y-45859200D01*
X125898404Y-45859200D01*
X125527609Y-45686538D01*
X125337000Y-45811269D01*
X125083000Y-45811269D01*
X124892391Y-45686538D01*
X124521596Y-45859200D01*
X124289250Y-45859200D01*
X124130500Y-46017950D01*
X124130500Y-46318462D01*
X123995799Y-46660353D01*
X123866512Y-46660353D01*
X123810991Y-46381232D01*
X123761940Y-46307822D01*
X123761940Y-45135000D01*
X124130500Y-45135000D01*
X124130500Y-45446450D01*
X124289250Y-45605200D01*
X125083000Y-45605200D01*
X125083000Y-45585200D01*
X125337000Y-45585200D01*
X125337000Y-45605200D01*
X126130750Y-45605200D01*
X126289500Y-45446450D01*
X126289500Y-45135000D01*
X126658060Y-45135000D01*
X126658060Y-46307822D01*
X126609009Y-46381232D01*
X126515000Y-46853846D01*
X126515000Y-47106154D01*
X126609009Y-47578768D01*
X126876723Y-47979431D01*
X127277386Y-48247145D01*
X127750000Y-48341154D01*
X128222614Y-48247145D01*
X128623277Y-47979431D01*
X128890991Y-47578768D01*
X128985000Y-47106154D01*
X128985000Y-46853846D01*
X128890991Y-46381232D01*
X128841940Y-46307822D01*
X128841940Y-45135000D01*
X129198060Y-45135000D01*
X129198060Y-46307822D01*
X129149009Y-46381232D01*
X129055000Y-46853846D01*
X129055000Y-47106154D01*
X129149009Y-47578768D01*
X129416723Y-47979431D01*
X129817386Y-48247145D01*
X130036138Y-48290658D01*
X130035860Y-48609398D01*
X129817386Y-48652855D01*
X129416723Y-48920569D01*
X129149009Y-49321232D01*
X129055000Y-49793846D01*
X129055000Y-50046154D01*
X129149009Y-50518768D01*
X129198060Y-50592178D01*
X129198060Y-52006000D01*
X129242338Y-52241317D01*
X129381410Y-52457441D01*
X129593610Y-52602431D01*
X129845500Y-52653440D01*
X130734500Y-52653440D01*
X130969817Y-52609162D01*
X131185941Y-52470090D01*
X131330931Y-52257890D01*
X131381940Y-52006000D01*
X131381940Y-51453550D01*
X131750500Y-51453550D01*
X131750500Y-52132310D01*
X131847173Y-52365699D01*
X132025802Y-52544327D01*
X132259191Y-52641000D01*
X132544250Y-52641000D01*
X132703000Y-52482250D01*
X132703000Y-51294800D01*
X132957000Y-51294800D01*
X132957000Y-52482250D01*
X133115750Y-52641000D01*
X133400809Y-52641000D01*
X133634198Y-52544327D01*
X133812827Y-52365699D01*
X133909500Y-52132310D01*
X133909500Y-51453550D01*
X133750750Y-51294800D01*
X132957000Y-51294800D01*
X132703000Y-51294800D01*
X131909250Y-51294800D01*
X131750500Y-51453550D01*
X131381940Y-51453550D01*
X131381940Y-50592178D01*
X131430991Y-50518768D01*
X131525000Y-50046154D01*
X131525000Y-49973970D01*
X131595000Y-49974031D01*
X131595000Y-50047002D01*
X131755136Y-50047002D01*
X131615799Y-50239647D01*
X131750500Y-50581538D01*
X131750500Y-50882050D01*
X131909250Y-51040800D01*
X132141596Y-51040800D01*
X132512391Y-51213462D01*
X132703000Y-51088731D01*
X132703000Y-49853350D01*
X132683000Y-49833350D01*
X132683000Y-49793000D01*
X132703000Y-49793000D01*
X132703000Y-49773000D01*
X132957000Y-49773000D01*
X132957000Y-49793000D01*
X133017350Y-49793000D01*
X132957000Y-49853350D01*
X132957000Y-51088731D01*
X133147609Y-51213462D01*
X133518404Y-51040800D01*
X133750750Y-51040800D01*
X133909500Y-50882050D01*
X133909500Y-50581538D01*
X134044201Y-50239647D01*
X133904863Y-50047000D01*
X133844762Y-50047000D01*
X133812827Y-49969901D01*
X133635925Y-49793000D01*
X133904863Y-49793000D01*
X134044201Y-49600353D01*
X133867720Y-49152418D01*
X133533256Y-48806116D01*
X133147609Y-48626538D01*
X133083810Y-48668287D01*
X133084140Y-48290602D01*
X133302614Y-48247145D01*
X133703277Y-47979431D01*
X133970991Y-47578768D01*
X134065000Y-47106154D01*
X134065000Y-46853846D01*
X133970991Y-46381232D01*
X133921940Y-46307822D01*
X133921940Y-45307941D01*
X133964008Y-45350009D01*
X134229824Y-45871702D01*
X134323000Y-46459992D01*
X134323000Y-49421573D01*
X134324086Y-49438150D01*
X134392234Y-49955788D01*
X134400815Y-49987812D01*
X134600616Y-50470174D01*
X134617193Y-50498886D01*
X134935030Y-50913099D01*
X134945983Y-50925589D01*
X135324411Y-51304017D01*
X135343657Y-51319811D01*
X135992503Y-51753356D01*
X136038284Y-51772319D01*
X136803651Y-51924560D01*
X136828427Y-51927000D01*
X139190008Y-51927000D01*
X139778298Y-52020176D01*
X140299991Y-52285992D01*
X140515000Y-52501001D01*
X140515000Y-93248999D01*
X140299991Y-93464008D01*
X139778298Y-93729824D01*
X139190008Y-93823000D01*
X137178427Y-93823000D01*
X137153651Y-93825440D01*
X136388284Y-93977681D01*
X136342503Y-93996644D01*
X135693657Y-94430189D01*
X135674411Y-94445983D01*
X134645983Y-95474411D01*
X134635030Y-95486901D01*
X134317193Y-95901114D01*
X134300616Y-95929826D01*
X134100815Y-96412188D01*
X134092234Y-96444212D01*
X134024086Y-96961850D01*
X134023000Y-96978427D01*
X134023000Y-98940008D01*
X133929824Y-99528298D01*
X133664008Y-100049991D01*
X133448999Y-100265000D01*
X131251000Y-100265000D01*
X131251000Y-99535750D01*
X131092250Y-99377000D01*
X129727000Y-99377000D01*
X129727000Y-99397000D01*
X129473000Y-99397000D01*
X129473000Y-99377000D01*
X129453000Y-99377000D01*
X129453000Y-99123000D01*
X129473000Y-99123000D01*
X129473000Y-97757750D01*
X129727000Y-97757750D01*
X129727000Y-99123000D01*
X131092250Y-99123000D01*
X131251000Y-98964250D01*
X131251000Y-98107691D01*
X131154327Y-97874302D01*
X130975699Y-97695673D01*
X130742310Y-97599000D01*
X129885750Y-97599000D01*
X129727000Y-97757750D01*
X129473000Y-97757750D01*
X129314250Y-97599000D01*
X128457690Y-97599000D01*
X128224301Y-97695673D01*
X128045673Y-97874302D01*
X128028001Y-97916966D01*
X127691810Y-97692330D01*
X127179964Y-97590517D01*
X127135000Y-97545554D01*
X127135000Y-97453222D01*
X127135317Y-97453162D01*
X127351441Y-97314090D01*
X127496431Y-97101890D01*
X127547440Y-96850000D01*
X127547440Y-95585750D01*
X129265000Y-95585750D01*
X129265000Y-96976309D01*
X129361673Y-97209698D01*
X129540301Y-97388327D01*
X129773690Y-97485000D01*
X130114250Y-97485000D01*
X130273000Y-97326250D01*
X130273000Y-95427000D01*
X130527000Y-95427000D01*
X130527000Y-97326250D01*
X130685750Y-97485000D01*
X131026310Y-97485000D01*
X131259699Y-97388327D01*
X131438327Y-97209698D01*
X131535000Y-96976309D01*
X131535000Y-95585750D01*
X131376250Y-95427000D01*
X130527000Y-95427000D01*
X130273000Y-95427000D01*
X129423750Y-95427000D01*
X129265000Y-95585750D01*
X127547440Y-95585750D01*
X127547440Y-93750000D01*
X127523674Y-93623691D01*
X129265000Y-93623691D01*
X129265000Y-95014250D01*
X129423750Y-95173000D01*
X130273000Y-95173000D01*
X130273000Y-93273750D01*
X130527000Y-93273750D01*
X130527000Y-95173000D01*
X131376250Y-95173000D01*
X131535000Y-95014250D01*
X131535000Y-93623691D01*
X131438327Y-93390302D01*
X131259699Y-93211673D01*
X131026310Y-93115000D01*
X130685750Y-93115000D01*
X130527000Y-93273750D01*
X130273000Y-93273750D01*
X130114250Y-93115000D01*
X129773690Y-93115000D01*
X129540301Y-93211673D01*
X129361673Y-93390302D01*
X129265000Y-93623691D01*
X127523674Y-93623691D01*
X127503162Y-93514683D01*
X127364090Y-93298559D01*
X127151890Y-93153569D01*
X127135000Y-93150149D01*
X127135000Y-88553222D01*
X127135317Y-88553162D01*
X127351441Y-88414090D01*
X127496431Y-88201890D01*
X127547440Y-87950000D01*
X127547440Y-86685750D01*
X129265000Y-86685750D01*
X129265000Y-88076309D01*
X129361673Y-88309698D01*
X129540301Y-88488327D01*
X129773690Y-88585000D01*
X130114250Y-88585000D01*
X130273000Y-88426250D01*
X130273000Y-86527000D01*
X130527000Y-86527000D01*
X130527000Y-88426250D01*
X130685750Y-88585000D01*
X131026310Y-88585000D01*
X131259699Y-88488327D01*
X131438327Y-88309698D01*
X131535000Y-88076309D01*
X131535000Y-86685750D01*
X131376250Y-86527000D01*
X130527000Y-86527000D01*
X130273000Y-86527000D01*
X129423750Y-86527000D01*
X129265000Y-86685750D01*
X127547440Y-86685750D01*
X127547440Y-84850000D01*
X127523674Y-84723691D01*
X129265000Y-84723691D01*
X129265000Y-86114250D01*
X129423750Y-86273000D01*
X130273000Y-86273000D01*
X130273000Y-84373750D01*
X130527000Y-84373750D01*
X130527000Y-86273000D01*
X131376250Y-86273000D01*
X131535000Y-86114250D01*
X131535000Y-84723691D01*
X131438327Y-84490302D01*
X131259699Y-84311673D01*
X131026310Y-84215000D01*
X130685750Y-84215000D01*
X130527000Y-84373750D01*
X130273000Y-84373750D01*
X130114250Y-84215000D01*
X129773690Y-84215000D01*
X129540301Y-84311673D01*
X129361673Y-84490302D01*
X129265000Y-84723691D01*
X127523674Y-84723691D01*
X127503162Y-84614683D01*
X127364090Y-84398559D01*
X127181231Y-84273617D01*
X127351441Y-84164090D01*
X127496431Y-83951890D01*
X127547440Y-83700000D01*
X127547440Y-82800000D01*
X127503162Y-82564683D01*
X127364090Y-82348559D01*
X127151890Y-82203569D01*
X126900000Y-82152560D01*
X125942007Y-82152560D01*
X123119723Y-79330277D01*
X122881272Y-79170949D01*
X122600000Y-79115000D01*
X118304447Y-79115000D01*
X118170861Y-78981414D01*
X118250000Y-78997440D01*
X120250000Y-78997440D01*
X120485317Y-78953162D01*
X120701441Y-78814090D01*
X120846431Y-78601890D01*
X120897440Y-78350000D01*
X120897440Y-78000000D01*
X123902560Y-78000000D01*
X123902560Y-79500000D01*
X123946838Y-79735317D01*
X124085910Y-79951441D01*
X124298110Y-80096431D01*
X124550000Y-80147440D01*
X126550000Y-80147440D01*
X126785317Y-80103162D01*
X127001441Y-79964090D01*
X127146431Y-79751890D01*
X127170102Y-79635000D01*
X127952560Y-79635000D01*
X127952560Y-79850000D01*
X127996838Y-80085317D01*
X128135910Y-80301441D01*
X128348110Y-80446431D01*
X128600000Y-80497440D01*
X130200000Y-80497440D01*
X130435317Y-80453162D01*
X130651441Y-80314090D01*
X130796431Y-80101890D01*
X130847440Y-79850000D01*
X130847440Y-79775000D01*
X134084783Y-79775000D01*
X134201043Y-80056372D01*
X134730839Y-80587093D01*
X135423405Y-80874672D01*
X136173305Y-80875326D01*
X136866372Y-80588957D01*
X137397093Y-80059161D01*
X137684672Y-79366595D01*
X137685326Y-78616695D01*
X137398957Y-77923628D01*
X136869161Y-77392907D01*
X136176595Y-77105328D01*
X135426695Y-77104674D01*
X134733628Y-77391043D01*
X134202907Y-77920839D01*
X134084913Y-78205000D01*
X130847440Y-78205000D01*
X130847440Y-77850000D01*
X130803162Y-77614683D01*
X130664090Y-77398559D01*
X130451890Y-77253569D01*
X130200000Y-77202560D01*
X128600000Y-77202560D01*
X128364683Y-77246838D01*
X128148559Y-77385910D01*
X128003569Y-77598110D01*
X127952560Y-77850000D01*
X127952560Y-78065000D01*
X127197440Y-78065000D01*
X127197440Y-78000000D01*
X127153162Y-77764683D01*
X127047518Y-77600508D01*
X127088327Y-77559699D01*
X127185000Y-77326310D01*
X127185000Y-76735750D01*
X127026250Y-76577000D01*
X125677000Y-76577000D01*
X125677000Y-76597000D01*
X125423000Y-76597000D01*
X125423000Y-76577000D01*
X124073750Y-76577000D01*
X123915000Y-76735750D01*
X123915000Y-77326310D01*
X124011673Y-77559699D01*
X124053634Y-77601660D01*
X123953569Y-77748110D01*
X123902560Y-78000000D01*
X120897440Y-78000000D01*
X120897440Y-74550000D01*
X120853162Y-74314683D01*
X120714090Y-74098559D01*
X120501890Y-73953569D01*
X120250000Y-73902560D01*
X118250000Y-73902560D01*
X118014683Y-73946838D01*
X117798559Y-74085910D01*
X117653569Y-74298110D01*
X117602560Y-74550000D01*
X117602560Y-78350000D01*
X117617188Y-78427741D01*
X116535000Y-77345554D01*
X116535000Y-76250000D01*
X116479051Y-75968728D01*
X116319723Y-75730277D01*
X115135000Y-74545554D01*
X115135000Y-72114383D01*
X120064769Y-72114383D01*
X120267582Y-72605229D01*
X120642796Y-72981098D01*
X121133287Y-73184768D01*
X121664383Y-73185231D01*
X122155229Y-72982418D01*
X122531098Y-72607204D01*
X122695758Y-72210660D01*
X122748110Y-72246431D01*
X123000000Y-72297440D01*
X123737282Y-72297440D01*
X124267221Y-72827379D01*
X124098559Y-72935910D01*
X123953569Y-73148110D01*
X123902560Y-73400000D01*
X123902560Y-74900000D01*
X123946838Y-75135317D01*
X124052482Y-75299492D01*
X124011673Y-75340301D01*
X123915000Y-75573690D01*
X123915000Y-76164250D01*
X124073750Y-76323000D01*
X125423000Y-76323000D01*
X125423000Y-76303000D01*
X125677000Y-76303000D01*
X125677000Y-76323000D01*
X127026250Y-76323000D01*
X127185000Y-76164250D01*
X127185000Y-75573690D01*
X127088327Y-75340301D01*
X127046366Y-75298340D01*
X127146431Y-75151890D01*
X127149699Y-75135750D01*
X127965000Y-75135750D01*
X127965000Y-75976309D01*
X128061673Y-76209698D01*
X128240301Y-76388327D01*
X128473690Y-76485000D01*
X129114250Y-76485000D01*
X129273000Y-76326250D01*
X129273000Y-74977000D01*
X129527000Y-74977000D01*
X129527000Y-76326250D01*
X129685750Y-76485000D01*
X130326310Y-76485000D01*
X130559699Y-76388327D01*
X130738327Y-76209698D01*
X130835000Y-75976309D01*
X130835000Y-75135750D01*
X130676250Y-74977000D01*
X129527000Y-74977000D01*
X129273000Y-74977000D01*
X128123750Y-74977000D01*
X127965000Y-75135750D01*
X127149699Y-75135750D01*
X127197440Y-74900000D01*
X127197440Y-73723691D01*
X127965000Y-73723691D01*
X127965000Y-74564250D01*
X128123750Y-74723000D01*
X129273000Y-74723000D01*
X129273000Y-73373750D01*
X129527000Y-73373750D01*
X129527000Y-74723000D01*
X130676250Y-74723000D01*
X130835000Y-74564250D01*
X130835000Y-74195750D01*
X133915000Y-74195750D01*
X133915000Y-75286309D01*
X134011673Y-75519698D01*
X134190301Y-75698327D01*
X134423690Y-75795000D01*
X135514250Y-75795000D01*
X135673000Y-75636250D01*
X135673000Y-74037000D01*
X135927000Y-74037000D01*
X135927000Y-75636250D01*
X136085750Y-75795000D01*
X137176310Y-75795000D01*
X137409699Y-75698327D01*
X137588327Y-75519698D01*
X137685000Y-75286309D01*
X137685000Y-74195750D01*
X137526250Y-74037000D01*
X135927000Y-74037000D01*
X135673000Y-74037000D01*
X134073750Y-74037000D01*
X133915000Y-74195750D01*
X130835000Y-74195750D01*
X130835000Y-73723691D01*
X130738327Y-73490302D01*
X130559699Y-73311673D01*
X130326310Y-73215000D01*
X129685750Y-73215000D01*
X129527000Y-73373750D01*
X129273000Y-73373750D01*
X129114250Y-73215000D01*
X128473690Y-73215000D01*
X128240301Y-73311673D01*
X128061673Y-73490302D01*
X127965000Y-73723691D01*
X127197440Y-73723691D01*
X127197440Y-73400000D01*
X127153162Y-73164683D01*
X127014090Y-72948559D01*
X126801890Y-72803569D01*
X126550000Y-72752560D01*
X126285781Y-72752560D01*
X126275245Y-72699593D01*
X126164394Y-72533691D01*
X133915000Y-72533691D01*
X133915000Y-73624250D01*
X134073750Y-73783000D01*
X135673000Y-73783000D01*
X135673000Y-72183750D01*
X135927000Y-72183750D01*
X135927000Y-73783000D01*
X137526250Y-73783000D01*
X137685000Y-73624250D01*
X137685000Y-72533691D01*
X137588327Y-72300302D01*
X137409699Y-72121673D01*
X137176310Y-72025000D01*
X136085750Y-72025000D01*
X135927000Y-72183750D01*
X135673000Y-72183750D01*
X135514250Y-72025000D01*
X134423690Y-72025000D01*
X134190301Y-72121673D01*
X134011673Y-72300302D01*
X133915000Y-72533691D01*
X126164394Y-72533691D01*
X126105079Y-72444921D01*
X125582474Y-71922316D01*
X125596431Y-71901890D01*
X125647440Y-71650000D01*
X125647440Y-71135750D01*
X126365000Y-71135750D01*
X126365000Y-71776310D01*
X126461673Y-72009699D01*
X126640302Y-72188327D01*
X126873691Y-72285000D01*
X127714250Y-72285000D01*
X127873000Y-72126250D01*
X127873000Y-70977000D01*
X128127000Y-70977000D01*
X128127000Y-72126250D01*
X128285750Y-72285000D01*
X129126309Y-72285000D01*
X129359698Y-72188327D01*
X129538327Y-72009699D01*
X129635000Y-71776310D01*
X129635000Y-71135750D01*
X129476250Y-70977000D01*
X128127000Y-70977000D01*
X127873000Y-70977000D01*
X126523750Y-70977000D01*
X126365000Y-71135750D01*
X125647440Y-71135750D01*
X125647440Y-70050000D01*
X125623674Y-69923690D01*
X126365000Y-69923690D01*
X126365000Y-70564250D01*
X126523750Y-70723000D01*
X127873000Y-70723000D01*
X127873000Y-69573750D01*
X128127000Y-69573750D01*
X128127000Y-70723000D01*
X129476250Y-70723000D01*
X129635000Y-70564250D01*
X129635000Y-69923690D01*
X129538327Y-69690301D01*
X129359698Y-69511673D01*
X129126309Y-69415000D01*
X128285750Y-69415000D01*
X128127000Y-69573750D01*
X127873000Y-69573750D01*
X127714250Y-69415000D01*
X126873691Y-69415000D01*
X126640302Y-69511673D01*
X126461673Y-69690301D01*
X126365000Y-69923690D01*
X125623674Y-69923690D01*
X125603162Y-69814683D01*
X125464090Y-69598559D01*
X125251890Y-69453569D01*
X125000000Y-69402560D01*
X123000000Y-69402560D01*
X122764683Y-69446838D01*
X122548559Y-69585910D01*
X122403569Y-69798110D01*
X122352560Y-70050000D01*
X122352560Y-70074436D01*
X122099594Y-70124755D01*
X121844921Y-70294921D01*
X121624647Y-70515195D01*
X121135617Y-70514769D01*
X120644771Y-70717582D01*
X120268902Y-71092796D01*
X120065232Y-71583287D01*
X120064769Y-72114383D01*
X115135000Y-72114383D01*
X115135000Y-66685118D01*
X115244579Y-66685214D01*
X115698657Y-66497592D01*
X116046371Y-66150485D01*
X116121565Y-65969398D01*
X116200000Y-65985000D01*
X116339356Y-65985000D01*
X116315180Y-66043223D01*
X116314821Y-66454971D01*
X116472058Y-66835515D01*
X116762954Y-67126919D01*
X117059627Y-67250108D01*
X116764485Y-67372058D01*
X116473081Y-67662954D01*
X116315180Y-68043223D01*
X116314821Y-68454971D01*
X116472058Y-68835515D01*
X116762954Y-69126919D01*
X117143223Y-69284820D01*
X117554971Y-69285179D01*
X117935515Y-69127942D01*
X118226919Y-68837046D01*
X118373183Y-68484802D01*
X118827311Y-68485199D01*
X118972058Y-68835515D01*
X119262954Y-69126919D01*
X119643223Y-69284820D01*
X120054971Y-69285179D01*
X120435515Y-69127942D01*
X120726919Y-68837046D01*
X120884820Y-68456777D01*
X120885179Y-68045029D01*
X120881035Y-68035000D01*
X121400000Y-68035000D01*
X121700407Y-67975245D01*
X121955079Y-67805079D01*
X123725158Y-66035000D01*
X126200000Y-66035000D01*
X126500407Y-65975245D01*
X126755079Y-65805079D01*
X127455076Y-65105081D01*
X127455079Y-65105079D01*
X127625245Y-64850406D01*
X127685000Y-64550000D01*
X127685000Y-64097490D01*
X129251570Y-64097490D01*
X129486887Y-64053212D01*
X129703011Y-63914140D01*
X129791249Y-63785000D01*
X136819095Y-63785000D01*
X136830729Y-63843489D01*
X137155585Y-64329670D01*
X137470366Y-64540000D01*
X137155585Y-64750330D01*
X136830729Y-65236511D01*
X136716655Y-65810000D01*
X136830729Y-66383489D01*
X137155585Y-66869670D01*
X137470366Y-67080000D01*
X137155585Y-67290330D01*
X136830729Y-67776511D01*
X136716655Y-68350000D01*
X136830729Y-68923489D01*
X137155585Y-69409670D01*
X137641766Y-69734526D01*
X138215255Y-69848600D01*
X138584745Y-69848600D01*
X139158234Y-69734526D01*
X139644415Y-69409670D01*
X139969271Y-68923489D01*
X140083345Y-68350000D01*
X139969271Y-67776511D01*
X139644415Y-67290330D01*
X139329634Y-67080000D01*
X139644415Y-66869670D01*
X139969271Y-66383489D01*
X140083345Y-65810000D01*
X139969271Y-65236511D01*
X139644415Y-64750330D01*
X139329634Y-64540000D01*
X139644415Y-64329670D01*
X139969271Y-63843489D01*
X140083345Y-63270000D01*
X139969271Y-62696511D01*
X139644415Y-62210330D01*
X139329634Y-62000000D01*
X139644415Y-61789670D01*
X139969271Y-61303489D01*
X140083345Y-60730000D01*
X139969271Y-60156511D01*
X139644415Y-59670330D01*
X139329634Y-59460000D01*
X139644415Y-59249670D01*
X139969271Y-58763489D01*
X140083345Y-58190000D01*
X139969271Y-57616511D01*
X139644415Y-57130330D01*
X139622220Y-57115500D01*
X139775698Y-57051927D01*
X139954327Y-56873299D01*
X140051000Y-56639910D01*
X140051000Y-55935750D01*
X139892250Y-55777000D01*
X138527000Y-55777000D01*
X138527000Y-55797000D01*
X138273000Y-55797000D01*
X138273000Y-55777000D01*
X136907750Y-55777000D01*
X136749000Y-55935750D01*
X136749000Y-56639910D01*
X136845673Y-56873299D01*
X137024302Y-57051927D01*
X137177780Y-57115500D01*
X137155585Y-57130330D01*
X136830729Y-57616511D01*
X136716655Y-58190000D01*
X136830729Y-58763489D01*
X137155585Y-59249670D01*
X137470366Y-59460000D01*
X137155585Y-59670330D01*
X137025511Y-59865000D01*
X134439018Y-59865000D01*
X134364090Y-59748559D01*
X134151890Y-59603569D01*
X133900000Y-59552560D01*
X132700000Y-59552560D01*
X132464683Y-59596838D01*
X132248559Y-59735910D01*
X132200866Y-59805711D01*
X132164090Y-59748559D01*
X131951890Y-59603569D01*
X131700000Y-59552560D01*
X130500000Y-59552560D01*
X130264683Y-59596838D01*
X130048559Y-59735910D01*
X129903569Y-59948110D01*
X129852560Y-60200000D01*
X129852560Y-61100000D01*
X129896838Y-61335317D01*
X130035910Y-61551441D01*
X130248110Y-61696431D01*
X130365000Y-61720102D01*
X130365000Y-62315000D01*
X129790620Y-62315000D01*
X129715660Y-62198509D01*
X129503460Y-62053519D01*
X129251570Y-62002510D01*
X128157648Y-62002510D01*
X128705079Y-61455079D01*
X128875245Y-61200407D01*
X128935000Y-60900000D01*
X128935000Y-59912630D01*
X128985317Y-59903162D01*
X129201441Y-59764090D01*
X129346431Y-59551890D01*
X129397440Y-59300000D01*
X129397440Y-58400000D01*
X129353162Y-58164683D01*
X129214090Y-57948559D01*
X129001890Y-57803569D01*
X128885000Y-57779898D01*
X128885000Y-56712630D01*
X128935317Y-56703162D01*
X129151441Y-56564090D01*
X129296431Y-56351890D01*
X129347440Y-56100000D01*
X129347440Y-55200000D01*
X129303162Y-54964683D01*
X129164090Y-54748559D01*
X129034612Y-54660090D01*
X136749000Y-54660090D01*
X136749000Y-55364250D01*
X136907750Y-55523000D01*
X138273000Y-55523000D01*
X138273000Y-54310150D01*
X138527000Y-54310150D01*
X138527000Y-55523000D01*
X139892250Y-55523000D01*
X140051000Y-55364250D01*
X140051000Y-54660090D01*
X139954327Y-54426701D01*
X139775698Y-54248073D01*
X139542309Y-54151400D01*
X138685750Y-54151400D01*
X138527000Y-54310150D01*
X138273000Y-54310150D01*
X138114250Y-54151400D01*
X137257691Y-54151400D01*
X137024302Y-54248073D01*
X136845673Y-54426701D01*
X136749000Y-54660090D01*
X129034612Y-54660090D01*
X128951890Y-54603569D01*
X128700000Y-54552560D01*
X127500000Y-54552560D01*
X127264683Y-54596838D01*
X127048559Y-54735910D01*
X127000866Y-54805711D01*
X126964090Y-54748559D01*
X126751890Y-54603569D01*
X126500000Y-54552560D01*
X125300000Y-54552560D01*
X125064683Y-54596838D01*
X124848559Y-54735910D01*
X124703569Y-54948110D01*
X124652560Y-55200000D01*
X124652560Y-55557993D01*
X123880278Y-56330276D01*
X123880277Y-56330277D01*
X123720949Y-56568728D01*
X123665000Y-56850000D01*
X123665000Y-58768432D01*
X123535000Y-58638204D01*
X123535000Y-56850000D01*
X123479051Y-56568728D01*
X123422224Y-56483680D01*
X123319723Y-56330276D01*
X121319723Y-54330277D01*
X121081272Y-54170949D01*
X120800000Y-54115000D01*
X115704447Y-54115000D01*
X114535000Y-52945554D01*
X114535000Y-52641000D01*
X114764250Y-52641000D01*
X114923000Y-52482250D01*
X114923000Y-51294800D01*
X115177000Y-51294800D01*
X115177000Y-52482250D01*
X115335750Y-52641000D01*
X115620809Y-52641000D01*
X115854198Y-52544327D01*
X116032827Y-52365699D01*
X116129500Y-52132310D01*
X116129500Y-51453550D01*
X115970750Y-51294800D01*
X115177000Y-51294800D01*
X114923000Y-51294800D01*
X114903000Y-51294800D01*
X114903000Y-51101819D01*
X114923000Y-51088731D01*
X114923000Y-49853350D01*
X114903000Y-49833350D01*
X114903000Y-49793000D01*
X114923000Y-49793000D01*
X114923000Y-48751269D01*
X115177000Y-48751269D01*
X115177000Y-49793000D01*
X115237350Y-49793000D01*
X115177000Y-49853350D01*
X115177000Y-51088731D01*
X115367609Y-51213462D01*
X115738404Y-51040800D01*
X115970750Y-51040800D01*
X116129500Y-50882050D01*
X116129500Y-50581538D01*
X116264201Y-50239647D01*
X116124863Y-50047000D01*
X116064762Y-50047000D01*
X116032827Y-49969901D01*
X115856772Y-49793846D01*
X116355000Y-49793846D01*
X116355000Y-50046154D01*
X116449009Y-50518768D01*
X116498060Y-50592178D01*
X116498060Y-52006000D01*
X116542338Y-52241317D01*
X116681410Y-52457441D01*
X116893610Y-52602431D01*
X117145500Y-52653440D01*
X118034500Y-52653440D01*
X118269817Y-52609162D01*
X118485941Y-52470090D01*
X118630931Y-52257890D01*
X118681940Y-52006000D01*
X118681940Y-50592178D01*
X118730991Y-50518768D01*
X118825000Y-50046154D01*
X118825000Y-49793846D01*
X118895000Y-49793846D01*
X118895000Y-50046154D01*
X118989009Y-50518768D01*
X119038060Y-50592178D01*
X119038060Y-52006000D01*
X119082338Y-52241317D01*
X119221410Y-52457441D01*
X119433610Y-52602431D01*
X119685500Y-52653440D01*
X120574500Y-52653440D01*
X120809817Y-52609162D01*
X121025941Y-52470090D01*
X121170931Y-52257890D01*
X121221940Y-52006000D01*
X121221940Y-50592178D01*
X121270991Y-50518768D01*
X121365000Y-50046154D01*
X121365000Y-49793846D01*
X121435000Y-49793846D01*
X121435000Y-50046154D01*
X121529009Y-50518768D01*
X121578060Y-50592178D01*
X121578060Y-52006000D01*
X121622338Y-52241317D01*
X121761410Y-52457441D01*
X121973610Y-52602431D01*
X122225500Y-52653440D01*
X123114500Y-52653440D01*
X123349817Y-52609162D01*
X123565941Y-52470090D01*
X123710931Y-52257890D01*
X123761940Y-52006000D01*
X123761940Y-50592178D01*
X123810991Y-50518768D01*
X123905000Y-50046154D01*
X123905000Y-49793846D01*
X123975000Y-49793846D01*
X123975000Y-50046154D01*
X124069009Y-50518768D01*
X124118060Y-50592178D01*
X124118060Y-52006000D01*
X124162338Y-52241317D01*
X124301410Y-52457441D01*
X124513610Y-52602431D01*
X124765500Y-52653440D01*
X125654500Y-52653440D01*
X125889817Y-52609162D01*
X126105941Y-52470090D01*
X126250931Y-52257890D01*
X126301940Y-52006000D01*
X126301940Y-50592178D01*
X126350991Y-50518768D01*
X126445000Y-50046154D01*
X126445000Y-49793846D01*
X126515000Y-49793846D01*
X126515000Y-50046154D01*
X126609009Y-50518768D01*
X126658060Y-50592178D01*
X126658060Y-52006000D01*
X126702338Y-52241317D01*
X126841410Y-52457441D01*
X127053610Y-52602431D01*
X127305500Y-52653440D01*
X128194500Y-52653440D01*
X128429817Y-52609162D01*
X128645941Y-52470090D01*
X128790931Y-52257890D01*
X128841940Y-52006000D01*
X128841940Y-50592178D01*
X128890991Y-50518768D01*
X128985000Y-50046154D01*
X128985000Y-49793846D01*
X128890991Y-49321232D01*
X128623277Y-48920569D01*
X128222614Y-48652855D01*
X127750000Y-48558846D01*
X127277386Y-48652855D01*
X126876723Y-48920569D01*
X126609009Y-49321232D01*
X126515000Y-49793846D01*
X126445000Y-49793846D01*
X126350991Y-49321232D01*
X126083277Y-48920569D01*
X125682614Y-48652855D01*
X125210000Y-48558846D01*
X124737386Y-48652855D01*
X124336723Y-48920569D01*
X124069009Y-49321232D01*
X123975000Y-49793846D01*
X123905000Y-49793846D01*
X123810991Y-49321232D01*
X123543277Y-48920569D01*
X123142614Y-48652855D01*
X122670000Y-48558846D01*
X122197386Y-48652855D01*
X121796723Y-48920569D01*
X121529009Y-49321232D01*
X121435000Y-49793846D01*
X121365000Y-49793846D01*
X121270991Y-49321232D01*
X121003277Y-48920569D01*
X120602614Y-48652855D01*
X120130000Y-48558846D01*
X119657386Y-48652855D01*
X119256723Y-48920569D01*
X118989009Y-49321232D01*
X118895000Y-49793846D01*
X118825000Y-49793846D01*
X118730991Y-49321232D01*
X118463277Y-48920569D01*
X118062614Y-48652855D01*
X117590000Y-48558846D01*
X117117386Y-48652855D01*
X116716723Y-48920569D01*
X116449009Y-49321232D01*
X116355000Y-49793846D01*
X115856772Y-49793846D01*
X115855925Y-49793000D01*
X116124863Y-49793000D01*
X116264201Y-49600353D01*
X116087720Y-49152418D01*
X115753256Y-48806116D01*
X115367609Y-48626538D01*
X115177000Y-48751269D01*
X114923000Y-48751269D01*
X114732391Y-48626538D01*
X114346744Y-48806116D01*
X114272467Y-48883021D01*
X113374645Y-47985199D01*
X113383277Y-47979431D01*
X113650991Y-47578768D01*
X113745000Y-47106154D01*
X113745000Y-46853846D01*
X113650991Y-46381232D01*
X113601940Y-46307822D01*
X113601940Y-45135000D01*
X113958060Y-45135000D01*
X113958060Y-46307822D01*
G36*
X107260910Y-71151441D02*
X107391245Y-71240495D01*
X107485750Y-71335000D01*
X107601310Y-71335000D01*
X107621753Y-71326532D01*
X107725000Y-71347440D01*
X108084382Y-71347440D01*
X108120751Y-71530276D01*
X108120949Y-71531272D01*
X108280277Y-71769723D01*
X108680276Y-72169723D01*
X108918727Y-72329051D01*
X108948635Y-72335000D01*
X109200000Y-72385000D01*
X110065000Y-72385000D01*
X110065000Y-72647448D01*
X109926309Y-72590000D01*
X109335750Y-72590000D01*
X109177000Y-72748750D01*
X109177000Y-73723000D01*
X109197000Y-73723000D01*
X109197000Y-73977000D01*
X109177000Y-73977000D01*
X109177000Y-73997000D01*
X108923000Y-73997000D01*
X108923000Y-73977000D01*
X108903000Y-73977000D01*
X108903000Y-73723000D01*
X108923000Y-73723000D01*
X108923000Y-72748750D01*
X108764250Y-72590000D01*
X108173691Y-72590000D01*
X107940302Y-72686673D01*
X107799064Y-72827910D01*
X107764090Y-72773559D01*
X107551890Y-72628569D01*
X107300000Y-72577560D01*
X107135000Y-72577560D01*
X107135000Y-71151563D01*
X107199884Y-71056603D01*
X107260910Y-71151441D01*
X107260910Y-71151441D01*
G37*
X107260910Y-71151441D02*
X107391245Y-71240495D01*
X107485750Y-71335000D01*
X107601310Y-71335000D01*
X107621753Y-71326532D01*
X107725000Y-71347440D01*
X108084382Y-71347440D01*
X108120751Y-71530276D01*
X108120949Y-71531272D01*
X108280277Y-71769723D01*
X108680276Y-72169723D01*
X108918727Y-72329051D01*
X108948635Y-72335000D01*
X109200000Y-72385000D01*
X110065000Y-72385000D01*
X110065000Y-72647448D01*
X109926309Y-72590000D01*
X109335750Y-72590000D01*
X109177000Y-72748750D01*
X109177000Y-73723000D01*
X109197000Y-73723000D01*
X109197000Y-73977000D01*
X109177000Y-73977000D01*
X109177000Y-73997000D01*
X108923000Y-73997000D01*
X108923000Y-73977000D01*
X108903000Y-73977000D01*
X108903000Y-73723000D01*
X108923000Y-73723000D01*
X108923000Y-72748750D01*
X108764250Y-72590000D01*
X108173691Y-72590000D01*
X107940302Y-72686673D01*
X107799064Y-72827910D01*
X107764090Y-72773559D01*
X107551890Y-72628569D01*
X107300000Y-72577560D01*
X107135000Y-72577560D01*
X107135000Y-71151563D01*
X107199884Y-71056603D01*
X107260910Y-71151441D01*
G36*
X107552408Y-65948657D02*
X107899515Y-66296371D01*
X108353266Y-66484785D01*
X108844579Y-66485214D01*
X109065000Y-66394138D01*
X109065000Y-67105847D01*
X108846734Y-67015215D01*
X108355421Y-67014786D01*
X107901343Y-67202408D01*
X107553629Y-67549515D01*
X107365215Y-68003266D01*
X107364786Y-68494579D01*
X107391505Y-68559245D01*
X107389349Y-68561401D01*
X107273559Y-68635910D01*
X107200116Y-68743397D01*
X107139090Y-68648559D01*
X107008755Y-68559505D01*
X106914250Y-68465000D01*
X106798690Y-68465000D01*
X106778247Y-68473468D01*
X106675000Y-68452560D01*
X106335000Y-68452560D01*
X106335000Y-68365214D01*
X106498657Y-68297592D01*
X106846371Y-67950485D01*
X107034785Y-67496734D01*
X107035214Y-67005421D01*
X106847592Y-66551343D01*
X106618289Y-66321639D01*
X106955229Y-66182418D01*
X107331098Y-65807204D01*
X107412730Y-65610612D01*
X107552408Y-65948657D01*
X107552408Y-65948657D01*
G37*
X107552408Y-65948657D02*
X107899515Y-66296371D01*
X108353266Y-66484785D01*
X108844579Y-66485214D01*
X109065000Y-66394138D01*
X109065000Y-67105847D01*
X108846734Y-67015215D01*
X108355421Y-67014786D01*
X107901343Y-67202408D01*
X107553629Y-67549515D01*
X107365215Y-68003266D01*
X107364786Y-68494579D01*
X107391505Y-68559245D01*
X107389349Y-68561401D01*
X107273559Y-68635910D01*
X107200116Y-68743397D01*
X107139090Y-68648559D01*
X107008755Y-68559505D01*
X106914250Y-68465000D01*
X106798690Y-68465000D01*
X106778247Y-68473468D01*
X106675000Y-68452560D01*
X106335000Y-68452560D01*
X106335000Y-68365214D01*
X106498657Y-68297592D01*
X106846371Y-67950485D01*
X107034785Y-67496734D01*
X107035214Y-67005421D01*
X106847592Y-66551343D01*
X106618289Y-66321639D01*
X106955229Y-66182418D01*
X107331098Y-65807204D01*
X107412730Y-65610612D01*
X107552408Y-65948657D01*
G36*
X101371838Y-58485317D02*
X101510910Y-58701441D01*
X101723110Y-58846431D01*
X101975000Y-58897440D01*
X103225000Y-58897440D01*
X103460317Y-58853162D01*
X103676441Y-58714090D01*
X103821431Y-58501890D01*
X103865352Y-58285000D01*
X103924842Y-58285000D01*
X103946061Y-58306219D01*
X104200734Y-58476385D01*
X104501140Y-58536141D01*
X104501145Y-58536140D01*
X105152460Y-58536140D01*
X105152460Y-58850960D01*
X105196738Y-59086277D01*
X105335810Y-59302401D01*
X105548010Y-59447391D01*
X105799900Y-59498400D01*
X106415000Y-59498400D01*
X106415000Y-60221614D01*
X106400116Y-60243397D01*
X106339090Y-60148559D01*
X106208755Y-60059505D01*
X106114250Y-59965000D01*
X105998690Y-59965000D01*
X105978247Y-59973468D01*
X105875000Y-59952560D01*
X105334613Y-59952560D01*
X105319723Y-59930276D01*
X104919723Y-59530277D01*
X104681272Y-59370949D01*
X104400000Y-59315000D01*
X102400000Y-59315000D01*
X102375695Y-59319835D01*
X102351890Y-59303569D01*
X102100000Y-59252560D01*
X101500000Y-59252560D01*
X101264683Y-59296838D01*
X101201432Y-59337539D01*
X101026309Y-59265000D01*
X100885750Y-59265000D01*
X100727000Y-59423750D01*
X100727000Y-60523000D01*
X100747000Y-60523000D01*
X100747000Y-60777000D01*
X100727000Y-60777000D01*
X100727000Y-60797000D01*
X100473000Y-60797000D01*
X100473000Y-60777000D01*
X100453000Y-60777000D01*
X100453000Y-60523000D01*
X100473000Y-60523000D01*
X100473000Y-59423750D01*
X100314250Y-59265000D01*
X100173691Y-59265000D01*
X100000459Y-59336755D01*
X99951890Y-59303569D01*
X99700000Y-59252560D01*
X99100000Y-59252560D01*
X98864683Y-59296838D01*
X98648559Y-59435910D01*
X98503569Y-59648110D01*
X98452560Y-59900000D01*
X98452560Y-61400000D01*
X98496838Y-61635317D01*
X98635910Y-61851441D01*
X98715948Y-61906128D01*
X98718652Y-61919723D01*
X98720949Y-61931272D01*
X98862048Y-62142441D01*
X98718728Y-62170949D01*
X98480276Y-62330277D01*
X97280277Y-63530277D01*
X97120949Y-63768728D01*
X97065000Y-64050000D01*
X97065000Y-65822800D01*
X97046734Y-65815215D01*
X96897440Y-65815085D01*
X96897440Y-64950000D01*
X96853162Y-64714683D01*
X96714090Y-64498559D01*
X96644289Y-64450866D01*
X96701441Y-64414090D01*
X96846431Y-64201890D01*
X96897440Y-63950000D01*
X96897440Y-62750000D01*
X96853162Y-62514683D01*
X96714090Y-62298559D01*
X96585000Y-62210356D01*
X96585000Y-60375158D01*
X98675158Y-58285000D01*
X101334146Y-58285000D01*
X101371838Y-58485317D01*
X101371838Y-58485317D01*
G37*
X101371838Y-58485317D02*
X101510910Y-58701441D01*
X101723110Y-58846431D01*
X101975000Y-58897440D01*
X103225000Y-58897440D01*
X103460317Y-58853162D01*
X103676441Y-58714090D01*
X103821431Y-58501890D01*
X103865352Y-58285000D01*
X103924842Y-58285000D01*
X103946061Y-58306219D01*
X104200734Y-58476385D01*
X104501140Y-58536141D01*
X104501145Y-58536140D01*
X105152460Y-58536140D01*
X105152460Y-58850960D01*
X105196738Y-59086277D01*
X105335810Y-59302401D01*
X105548010Y-59447391D01*
X105799900Y-59498400D01*
X106415000Y-59498400D01*
X106415000Y-60221614D01*
X106400116Y-60243397D01*
X106339090Y-60148559D01*
X106208755Y-60059505D01*
X106114250Y-59965000D01*
X105998690Y-59965000D01*
X105978247Y-59973468D01*
X105875000Y-59952560D01*
X105334613Y-59952560D01*
X105319723Y-59930276D01*
X104919723Y-59530277D01*
X104681272Y-59370949D01*
X104400000Y-59315000D01*
X102400000Y-59315000D01*
X102375695Y-59319835D01*
X102351890Y-59303569D01*
X102100000Y-59252560D01*
X101500000Y-59252560D01*
X101264683Y-59296838D01*
X101201432Y-59337539D01*
X101026309Y-59265000D01*
X100885750Y-59265000D01*
X100727000Y-59423750D01*
X100727000Y-60523000D01*
X100747000Y-60523000D01*
X100747000Y-60777000D01*
X100727000Y-60777000D01*
X100727000Y-60797000D01*
X100473000Y-60797000D01*
X100473000Y-60777000D01*
X100453000Y-60777000D01*
X100453000Y-60523000D01*
X100473000Y-60523000D01*
X100473000Y-59423750D01*
X100314250Y-59265000D01*
X100173691Y-59265000D01*
X100000459Y-59336755D01*
X99951890Y-59303569D01*
X99700000Y-59252560D01*
X99100000Y-59252560D01*
X98864683Y-59296838D01*
X98648559Y-59435910D01*
X98503569Y-59648110D01*
X98452560Y-59900000D01*
X98452560Y-61400000D01*
X98496838Y-61635317D01*
X98635910Y-61851441D01*
X98715948Y-61906128D01*
X98718652Y-61919723D01*
X98720949Y-61931272D01*
X98862048Y-62142441D01*
X98718728Y-62170949D01*
X98480276Y-62330277D01*
X97280277Y-63530277D01*
X97120949Y-63768728D01*
X97065000Y-64050000D01*
X97065000Y-65822800D01*
X97046734Y-65815215D01*
X96897440Y-65815085D01*
X96897440Y-64950000D01*
X96853162Y-64714683D01*
X96714090Y-64498559D01*
X96644289Y-64450866D01*
X96701441Y-64414090D01*
X96846431Y-64201890D01*
X96897440Y-63950000D01*
X96897440Y-62750000D01*
X96853162Y-62514683D01*
X96714090Y-62298559D01*
X96585000Y-62210356D01*
X96585000Y-60375158D01*
X98675158Y-58285000D01*
X101334146Y-58285000D01*
X101371838Y-58485317D01*
G36*
X121392611Y-57282058D02*
X121101343Y-57402408D01*
X120760317Y-57742839D01*
X120727942Y-57664485D01*
X120437046Y-57373081D01*
X120056777Y-57215180D01*
X119645029Y-57214821D01*
X119264485Y-57372058D01*
X118973081Y-57662954D01*
X118815180Y-58043223D01*
X118814821Y-58454971D01*
X118972058Y-58835515D01*
X119262954Y-59126919D01*
X119559627Y-59250108D01*
X119264485Y-59372058D01*
X118973081Y-59662954D01*
X118815180Y-60043223D01*
X118814821Y-60454971D01*
X118972058Y-60835515D01*
X119262954Y-61126919D01*
X119559627Y-61250108D01*
X119264485Y-61372058D01*
X118973081Y-61662954D01*
X118826817Y-62015198D01*
X118372689Y-62014801D01*
X118227942Y-61664485D01*
X117937046Y-61373081D01*
X117640373Y-61249892D01*
X117935515Y-61127942D01*
X118226919Y-60837046D01*
X118384820Y-60456777D01*
X118385179Y-60045029D01*
X118227942Y-59664485D01*
X117937046Y-59373081D01*
X117640373Y-59249892D01*
X117935515Y-59127942D01*
X118226919Y-58837046D01*
X118384820Y-58456777D01*
X118385179Y-58045029D01*
X118227942Y-57664485D01*
X117937046Y-57373081D01*
X117556777Y-57215180D01*
X117145029Y-57214821D01*
X116764485Y-57372058D01*
X116473081Y-57662954D01*
X116315180Y-58043223D01*
X116314821Y-58454971D01*
X116472058Y-58835515D01*
X116762954Y-59126919D01*
X117059627Y-59250108D01*
X116764485Y-59372058D01*
X116473081Y-59662954D01*
X116315180Y-60043223D01*
X116314821Y-60454971D01*
X116472058Y-60835515D01*
X116762954Y-61126919D01*
X117059627Y-61250108D01*
X116764485Y-61372058D01*
X116473081Y-61662954D01*
X116381022Y-61884657D01*
X116100485Y-61603629D01*
X115646734Y-61415215D01*
X115275048Y-61414890D01*
X111915902Y-58055744D01*
X112298657Y-57897592D01*
X112611796Y-57585000D01*
X112800000Y-57585000D01*
X113081272Y-57529051D01*
X113319723Y-57369723D01*
X114504446Y-56185000D01*
X120295554Y-56185000D01*
X121392611Y-57282058D01*
X121392611Y-57282058D01*
G37*
X121392611Y-57282058D02*
X121101343Y-57402408D01*
X120760317Y-57742839D01*
X120727942Y-57664485D01*
X120437046Y-57373081D01*
X120056777Y-57215180D01*
X119645029Y-57214821D01*
X119264485Y-57372058D01*
X118973081Y-57662954D01*
X118815180Y-58043223D01*
X118814821Y-58454971D01*
X118972058Y-58835515D01*
X119262954Y-59126919D01*
X119559627Y-59250108D01*
X119264485Y-59372058D01*
X118973081Y-59662954D01*
X118815180Y-60043223D01*
X118814821Y-60454971D01*
X118972058Y-60835515D01*
X119262954Y-61126919D01*
X119559627Y-61250108D01*
X119264485Y-61372058D01*
X118973081Y-61662954D01*
X118826817Y-62015198D01*
X118372689Y-62014801D01*
X118227942Y-61664485D01*
X117937046Y-61373081D01*
X117640373Y-61249892D01*
X117935515Y-61127942D01*
X118226919Y-60837046D01*
X118384820Y-60456777D01*
X118385179Y-60045029D01*
X118227942Y-59664485D01*
X117937046Y-59373081D01*
X117640373Y-59249892D01*
X117935515Y-59127942D01*
X118226919Y-58837046D01*
X118384820Y-58456777D01*
X118385179Y-58045029D01*
X118227942Y-57664485D01*
X117937046Y-57373081D01*
X117556777Y-57215180D01*
X117145029Y-57214821D01*
X116764485Y-57372058D01*
X116473081Y-57662954D01*
X116315180Y-58043223D01*
X116314821Y-58454971D01*
X116472058Y-58835515D01*
X116762954Y-59126919D01*
X117059627Y-59250108D01*
X116764485Y-59372058D01*
X116473081Y-59662954D01*
X116315180Y-60043223D01*
X116314821Y-60454971D01*
X116472058Y-60835515D01*
X116762954Y-61126919D01*
X117059627Y-61250108D01*
X116764485Y-61372058D01*
X116473081Y-61662954D01*
X116381022Y-61884657D01*
X116100485Y-61603629D01*
X115646734Y-61415215D01*
X115275048Y-61414890D01*
X111915902Y-58055744D01*
X112298657Y-57897592D01*
X112611796Y-57585000D01*
X112800000Y-57585000D01*
X113081272Y-57529051D01*
X113319723Y-57369723D01*
X114504446Y-56185000D01*
X120295554Y-56185000D01*
X121392611Y-57282058D01*
G36*
X88570500Y-45446450D02*
X88729250Y-45605200D01*
X89523000Y-45605200D01*
X89523000Y-45585200D01*
X89777000Y-45585200D01*
X89777000Y-45605200D01*
X90570750Y-45605200D01*
X90729500Y-45446450D01*
X90729500Y-45135000D01*
X91098060Y-45135000D01*
X91098060Y-46307822D01*
X91049009Y-46381232D01*
X90955000Y-46853846D01*
X90955000Y-47106154D01*
X91049009Y-47578768D01*
X91316723Y-47979431D01*
X91717386Y-48247145D01*
X92190000Y-48341154D01*
X92662614Y-48247145D01*
X93063277Y-47979431D01*
X93073975Y-47963421D01*
X93972664Y-48862110D01*
X93692280Y-49152418D01*
X93515799Y-49600353D01*
X93655137Y-49793000D01*
X93924075Y-49793000D01*
X93747173Y-49969901D01*
X93715238Y-50047000D01*
X93655137Y-50047000D01*
X93515799Y-50239647D01*
X93650500Y-50581538D01*
X93650500Y-50882050D01*
X93809250Y-51040800D01*
X94041596Y-51040800D01*
X94412391Y-51213462D01*
X94603000Y-51088731D01*
X94603000Y-49853350D01*
X94542650Y-49793000D01*
X94603000Y-49793000D01*
X94603000Y-49773000D01*
X94857000Y-49773000D01*
X94857000Y-49793000D01*
X94917350Y-49793000D01*
X94857000Y-49853350D01*
X94857000Y-51088731D01*
X95047609Y-51213462D01*
X95418404Y-51040800D01*
X95650750Y-51040800D01*
X95809500Y-50882050D01*
X95809500Y-50581538D01*
X95944201Y-50239647D01*
X95804863Y-50047000D01*
X95744762Y-50047000D01*
X95712827Y-49969901D01*
X95535925Y-49793000D01*
X95804863Y-49793000D01*
X95944201Y-49600353D01*
X95859355Y-49385000D01*
X96116325Y-49385000D01*
X96035000Y-49793846D01*
X96035000Y-50046154D01*
X96129009Y-50518768D01*
X96178060Y-50592178D01*
X96178060Y-52006000D01*
X96189162Y-52065000D01*
X95809500Y-52065000D01*
X95809500Y-51453550D01*
X95650750Y-51294800D01*
X94857000Y-51294800D01*
X94857000Y-51314800D01*
X94603000Y-51314800D01*
X94603000Y-51294800D01*
X93809250Y-51294800D01*
X93650500Y-51453550D01*
X93650500Y-52065000D01*
X93269992Y-52065000D01*
X93281940Y-52006000D01*
X93281940Y-50592178D01*
X93330991Y-50518768D01*
X93425000Y-50046154D01*
X93425000Y-49793846D01*
X93330991Y-49321232D01*
X93063277Y-48920569D01*
X92662614Y-48652855D01*
X92190000Y-48558846D01*
X91717386Y-48652855D01*
X91316723Y-48920569D01*
X91049009Y-49321232D01*
X90955000Y-49793846D01*
X90955000Y-50046154D01*
X91049009Y-50518768D01*
X91098060Y-50592178D01*
X91098060Y-52006000D01*
X91109162Y-52065000D01*
X90729992Y-52065000D01*
X90741940Y-52006000D01*
X90741940Y-50592178D01*
X90790991Y-50518768D01*
X90885000Y-50046154D01*
X90885000Y-49793846D01*
X90790991Y-49321232D01*
X90523277Y-48920569D01*
X90122614Y-48652855D01*
X89650000Y-48558846D01*
X89177386Y-48652855D01*
X88776723Y-48920569D01*
X88509009Y-49321232D01*
X88415000Y-49793846D01*
X88415000Y-50046154D01*
X88509009Y-50518768D01*
X88558060Y-50592178D01*
X88558060Y-52006000D01*
X88569162Y-52065000D01*
X88189992Y-52065000D01*
X88201940Y-52006000D01*
X88201940Y-50592178D01*
X88250991Y-50518768D01*
X88345000Y-50046154D01*
X88345000Y-49793846D01*
X88250991Y-49321232D01*
X87983277Y-48920569D01*
X87582614Y-48652855D01*
X87363862Y-48609342D01*
X87364140Y-48290602D01*
X87582614Y-48247145D01*
X87983277Y-47979431D01*
X88250991Y-47578768D01*
X88345000Y-47106154D01*
X88345000Y-46853846D01*
X88306512Y-46660353D01*
X88435799Y-46660353D01*
X88575137Y-46853000D01*
X88635238Y-46853000D01*
X88667173Y-46930099D01*
X88844075Y-47107000D01*
X88575137Y-47107000D01*
X88435799Y-47299647D01*
X88612280Y-47747582D01*
X88946744Y-48093884D01*
X89332391Y-48273462D01*
X89523000Y-48148731D01*
X89523000Y-47107000D01*
X89462650Y-47107000D01*
X89523000Y-47046650D01*
X89523000Y-45811269D01*
X89777000Y-45811269D01*
X89777000Y-47046650D01*
X89837350Y-47107000D01*
X89777000Y-47107000D01*
X89777000Y-48148731D01*
X89967609Y-48273462D01*
X90353256Y-48093884D01*
X90687720Y-47747582D01*
X90864201Y-47299647D01*
X90724863Y-47107000D01*
X90455925Y-47107000D01*
X90632827Y-46930099D01*
X90664762Y-46853000D01*
X90724863Y-46853000D01*
X90864201Y-46660353D01*
X90729500Y-46318462D01*
X90729500Y-46017950D01*
X90570750Y-45859200D01*
X90338404Y-45859200D01*
X89967609Y-45686538D01*
X89777000Y-45811269D01*
X89523000Y-45811269D01*
X89332391Y-45686538D01*
X88961596Y-45859200D01*
X88729250Y-45859200D01*
X88570500Y-46017950D01*
X88570500Y-46318462D01*
X88435799Y-46660353D01*
X88306512Y-46660353D01*
X88250991Y-46381232D01*
X88201940Y-46307822D01*
X88201940Y-45135000D01*
X88570500Y-45135000D01*
X88570500Y-45446450D01*
X88570500Y-45446450D01*
G37*
X88570500Y-45446450D02*
X88729250Y-45605200D01*
X89523000Y-45605200D01*
X89523000Y-45585200D01*
X89777000Y-45585200D01*
X89777000Y-45605200D01*
X90570750Y-45605200D01*
X90729500Y-45446450D01*
X90729500Y-45135000D01*
X91098060Y-45135000D01*
X91098060Y-46307822D01*
X91049009Y-46381232D01*
X90955000Y-46853846D01*
X90955000Y-47106154D01*
X91049009Y-47578768D01*
X91316723Y-47979431D01*
X91717386Y-48247145D01*
X92190000Y-48341154D01*
X92662614Y-48247145D01*
X93063277Y-47979431D01*
X93073975Y-47963421D01*
X93972664Y-48862110D01*
X93692280Y-49152418D01*
X93515799Y-49600353D01*
X93655137Y-49793000D01*
X93924075Y-49793000D01*
X93747173Y-49969901D01*
X93715238Y-50047000D01*
X93655137Y-50047000D01*
X93515799Y-50239647D01*
X93650500Y-50581538D01*
X93650500Y-50882050D01*
X93809250Y-51040800D01*
X94041596Y-51040800D01*
X94412391Y-51213462D01*
X94603000Y-51088731D01*
X94603000Y-49853350D01*
X94542650Y-49793000D01*
X94603000Y-49793000D01*
X94603000Y-49773000D01*
X94857000Y-49773000D01*
X94857000Y-49793000D01*
X94917350Y-49793000D01*
X94857000Y-49853350D01*
X94857000Y-51088731D01*
X95047609Y-51213462D01*
X95418404Y-51040800D01*
X95650750Y-51040800D01*
X95809500Y-50882050D01*
X95809500Y-50581538D01*
X95944201Y-50239647D01*
X95804863Y-50047000D01*
X95744762Y-50047000D01*
X95712827Y-49969901D01*
X95535925Y-49793000D01*
X95804863Y-49793000D01*
X95944201Y-49600353D01*
X95859355Y-49385000D01*
X96116325Y-49385000D01*
X96035000Y-49793846D01*
X96035000Y-50046154D01*
X96129009Y-50518768D01*
X96178060Y-50592178D01*
X96178060Y-52006000D01*
X96189162Y-52065000D01*
X95809500Y-52065000D01*
X95809500Y-51453550D01*
X95650750Y-51294800D01*
X94857000Y-51294800D01*
X94857000Y-51314800D01*
X94603000Y-51314800D01*
X94603000Y-51294800D01*
X93809250Y-51294800D01*
X93650500Y-51453550D01*
X93650500Y-52065000D01*
X93269992Y-52065000D01*
X93281940Y-52006000D01*
X93281940Y-50592178D01*
X93330991Y-50518768D01*
X93425000Y-50046154D01*
X93425000Y-49793846D01*
X93330991Y-49321232D01*
X93063277Y-48920569D01*
X92662614Y-48652855D01*
X92190000Y-48558846D01*
X91717386Y-48652855D01*
X91316723Y-48920569D01*
X91049009Y-49321232D01*
X90955000Y-49793846D01*
X90955000Y-50046154D01*
X91049009Y-50518768D01*
X91098060Y-50592178D01*
X91098060Y-52006000D01*
X91109162Y-52065000D01*
X90729992Y-52065000D01*
X90741940Y-52006000D01*
X90741940Y-50592178D01*
X90790991Y-50518768D01*
X90885000Y-50046154D01*
X90885000Y-49793846D01*
X90790991Y-49321232D01*
X90523277Y-48920569D01*
X90122614Y-48652855D01*
X89650000Y-48558846D01*
X89177386Y-48652855D01*
X88776723Y-48920569D01*
X88509009Y-49321232D01*
X88415000Y-49793846D01*
X88415000Y-50046154D01*
X88509009Y-50518768D01*
X88558060Y-50592178D01*
X88558060Y-52006000D01*
X88569162Y-52065000D01*
X88189992Y-52065000D01*
X88201940Y-52006000D01*
X88201940Y-50592178D01*
X88250991Y-50518768D01*
X88345000Y-50046154D01*
X88345000Y-49793846D01*
X88250991Y-49321232D01*
X87983277Y-48920569D01*
X87582614Y-48652855D01*
X87363862Y-48609342D01*
X87364140Y-48290602D01*
X87582614Y-48247145D01*
X87983277Y-47979431D01*
X88250991Y-47578768D01*
X88345000Y-47106154D01*
X88345000Y-46853846D01*
X88306512Y-46660353D01*
X88435799Y-46660353D01*
X88575137Y-46853000D01*
X88635238Y-46853000D01*
X88667173Y-46930099D01*
X88844075Y-47107000D01*
X88575137Y-47107000D01*
X88435799Y-47299647D01*
X88612280Y-47747582D01*
X88946744Y-48093884D01*
X89332391Y-48273462D01*
X89523000Y-48148731D01*
X89523000Y-47107000D01*
X89462650Y-47107000D01*
X89523000Y-47046650D01*
X89523000Y-45811269D01*
X89777000Y-45811269D01*
X89777000Y-47046650D01*
X89837350Y-47107000D01*
X89777000Y-47107000D01*
X89777000Y-48148731D01*
X89967609Y-48273462D01*
X90353256Y-48093884D01*
X90687720Y-47747582D01*
X90864201Y-47299647D01*
X90724863Y-47107000D01*
X90455925Y-47107000D01*
X90632827Y-46930099D01*
X90664762Y-46853000D01*
X90724863Y-46853000D01*
X90864201Y-46660353D01*
X90729500Y-46318462D01*
X90729500Y-46017950D01*
X90570750Y-45859200D01*
X90338404Y-45859200D01*
X89967609Y-45686538D01*
X89777000Y-45811269D01*
X89523000Y-45811269D01*
X89332391Y-45686538D01*
X88961596Y-45859200D01*
X88729250Y-45859200D01*
X88570500Y-46017950D01*
X88570500Y-46318462D01*
X88435799Y-46660353D01*
X88306512Y-46660353D01*
X88250991Y-46381232D01*
X88201940Y-46307822D01*
X88201940Y-45135000D01*
X88570500Y-45135000D01*
X88570500Y-45446450D01*
G36*
X98730500Y-45446450D02*
X98889250Y-45605200D01*
X99683000Y-45605200D01*
X99683000Y-45585200D01*
X99937000Y-45585200D01*
X99937000Y-45605200D01*
X100730750Y-45605200D01*
X100889500Y-45446450D01*
X100889500Y-45135000D01*
X101258060Y-45135000D01*
X101258060Y-46307822D01*
X101209009Y-46381232D01*
X101115000Y-46853846D01*
X101115000Y-47106154D01*
X101156542Y-47315000D01*
X101018152Y-47315000D01*
X101024201Y-47299647D01*
X100884863Y-47107000D01*
X100615925Y-47107000D01*
X100792827Y-46930099D01*
X100824762Y-46853000D01*
X100884863Y-46853000D01*
X101024201Y-46660353D01*
X100889500Y-46318462D01*
X100889500Y-46017950D01*
X100730750Y-45859200D01*
X100498404Y-45859200D01*
X100127609Y-45686538D01*
X99937000Y-45811269D01*
X99937000Y-47046650D01*
X99997350Y-47107000D01*
X99937000Y-47107000D01*
X99937000Y-47127000D01*
X99683000Y-47127000D01*
X99683000Y-47107000D01*
X99622650Y-47107000D01*
X99683000Y-47046650D01*
X99683000Y-45811269D01*
X99492391Y-45686538D01*
X99121596Y-45859200D01*
X98889250Y-45859200D01*
X98730500Y-46017950D01*
X98730500Y-46318462D01*
X98595799Y-46660353D01*
X98735137Y-46853000D01*
X98795238Y-46853000D01*
X98827173Y-46930099D01*
X99004075Y-47107000D01*
X98735137Y-47107000D01*
X98595799Y-47299647D01*
X98601848Y-47315000D01*
X98463458Y-47315000D01*
X98505000Y-47106154D01*
X98505000Y-46853846D01*
X98410991Y-46381232D01*
X98361940Y-46307822D01*
X98361940Y-45135000D01*
X98730500Y-45135000D01*
X98730500Y-45446450D01*
X98730500Y-45446450D01*
G37*
X98730500Y-45446450D02*
X98889250Y-45605200D01*
X99683000Y-45605200D01*
X99683000Y-45585200D01*
X99937000Y-45585200D01*
X99937000Y-45605200D01*
X100730750Y-45605200D01*
X100889500Y-45446450D01*
X100889500Y-45135000D01*
X101258060Y-45135000D01*
X101258060Y-46307822D01*
X101209009Y-46381232D01*
X101115000Y-46853846D01*
X101115000Y-47106154D01*
X101156542Y-47315000D01*
X101018152Y-47315000D01*
X101024201Y-47299647D01*
X100884863Y-47107000D01*
X100615925Y-47107000D01*
X100792827Y-46930099D01*
X100824762Y-46853000D01*
X100884863Y-46853000D01*
X101024201Y-46660353D01*
X100889500Y-46318462D01*
X100889500Y-46017950D01*
X100730750Y-45859200D01*
X100498404Y-45859200D01*
X100127609Y-45686538D01*
X99937000Y-45811269D01*
X99937000Y-47046650D01*
X99997350Y-47107000D01*
X99937000Y-47107000D01*
X99937000Y-47127000D01*
X99683000Y-47127000D01*
X99683000Y-47107000D01*
X99622650Y-47107000D01*
X99683000Y-47046650D01*
X99683000Y-45811269D01*
X99492391Y-45686538D01*
X99121596Y-45859200D01*
X98889250Y-45859200D01*
X98730500Y-46017950D01*
X98730500Y-46318462D01*
X98595799Y-46660353D01*
X98735137Y-46853000D01*
X98795238Y-46853000D01*
X98827173Y-46930099D01*
X99004075Y-47107000D01*
X98735137Y-47107000D01*
X98595799Y-47299647D01*
X98601848Y-47315000D01*
X98463458Y-47315000D01*
X98505000Y-47106154D01*
X98505000Y-46853846D01*
X98410991Y-46381232D01*
X98361940Y-46307822D01*
X98361940Y-45135000D01*
X98730500Y-45135000D01*
X98730500Y-45446450D01*
G36*
X106350500Y-45446450D02*
X106509250Y-45605200D01*
X107303000Y-45605200D01*
X107303000Y-45585200D01*
X107557000Y-45585200D01*
X107557000Y-45605200D01*
X108350750Y-45605200D01*
X108509500Y-45446450D01*
X108509500Y-45135000D01*
X108878060Y-45135000D01*
X108878060Y-46307822D01*
X108829009Y-46381232D01*
X108735000Y-46853846D01*
X108735000Y-47106154D01*
X108776542Y-47315000D01*
X108638152Y-47315000D01*
X108644201Y-47299647D01*
X108504863Y-47107000D01*
X108235925Y-47107000D01*
X108412827Y-46930099D01*
X108444762Y-46853000D01*
X108504863Y-46853000D01*
X108644201Y-46660353D01*
X108509500Y-46318462D01*
X108509500Y-46017950D01*
X108350750Y-45859200D01*
X108118404Y-45859200D01*
X107747609Y-45686538D01*
X107557000Y-45811269D01*
X107557000Y-47046650D01*
X107617350Y-47107000D01*
X107557000Y-47107000D01*
X107557000Y-47127000D01*
X107303000Y-47127000D01*
X107303000Y-47107000D01*
X107242650Y-47107000D01*
X107303000Y-47046650D01*
X107303000Y-45811269D01*
X107112391Y-45686538D01*
X106741596Y-45859200D01*
X106509250Y-45859200D01*
X106350500Y-46017950D01*
X106350500Y-46318462D01*
X106215799Y-46660353D01*
X106355137Y-46853000D01*
X106415238Y-46853000D01*
X106447173Y-46930099D01*
X106624075Y-47107000D01*
X106355137Y-47107000D01*
X106215799Y-47299647D01*
X106221848Y-47315000D01*
X106083458Y-47315000D01*
X106125000Y-47106154D01*
X106125000Y-46853846D01*
X106030991Y-46381232D01*
X105981940Y-46307822D01*
X105981940Y-45135000D01*
X106350500Y-45135000D01*
X106350500Y-45446450D01*
X106350500Y-45446450D01*
G37*
X106350500Y-45446450D02*
X106509250Y-45605200D01*
X107303000Y-45605200D01*
X107303000Y-45585200D01*
X107557000Y-45585200D01*
X107557000Y-45605200D01*
X108350750Y-45605200D01*
X108509500Y-45446450D01*
X108509500Y-45135000D01*
X108878060Y-45135000D01*
X108878060Y-46307822D01*
X108829009Y-46381232D01*
X108735000Y-46853846D01*
X108735000Y-47106154D01*
X108776542Y-47315000D01*
X108638152Y-47315000D01*
X108644201Y-47299647D01*
X108504863Y-47107000D01*
X108235925Y-47107000D01*
X108412827Y-46930099D01*
X108444762Y-46853000D01*
X108504863Y-46853000D01*
X108644201Y-46660353D01*
X108509500Y-46318462D01*
X108509500Y-46017950D01*
X108350750Y-45859200D01*
X108118404Y-45859200D01*
X107747609Y-45686538D01*
X107557000Y-45811269D01*
X107557000Y-47046650D01*
X107617350Y-47107000D01*
X107557000Y-47107000D01*
X107557000Y-47127000D01*
X107303000Y-47127000D01*
X107303000Y-47107000D01*
X107242650Y-47107000D01*
X107303000Y-47046650D01*
X107303000Y-45811269D01*
X107112391Y-45686538D01*
X106741596Y-45859200D01*
X106509250Y-45859200D01*
X106350500Y-46017950D01*
X106350500Y-46318462D01*
X106215799Y-46660353D01*
X106355137Y-46853000D01*
X106415238Y-46853000D01*
X106447173Y-46930099D01*
X106624075Y-47107000D01*
X106355137Y-47107000D01*
X106215799Y-47299647D01*
X106221848Y-47315000D01*
X106083458Y-47315000D01*
X106125000Y-47106154D01*
X106125000Y-46853846D01*
X106030991Y-46381232D01*
X105981940Y-46307822D01*
X105981940Y-45135000D01*
X106350500Y-45135000D01*
X106350500Y-45446450D01*
M02*
