<?xml version="1.0" encoding="UTF-8" standalone="no"?>
<!-- Generator: Adobe Illustrator 16.0.0, SVG Export Plug-In . SVG Version: 6.00 Build 0)  -->

<svg
   xmlns:dc="http://purl.org/dc/elements/1.1/"
   xmlns:cc="http://creativecommons.org/ns#"
   xmlns:rdf="http://www.w3.org/1999/02/22-rdf-syntax-ns#"
   xmlns:svg="http://www.w3.org/2000/svg"
   xmlns="http://www.w3.org/2000/svg"
   xmlns:sodipodi="http://sodipodi.sourceforge.net/DTD/sodipodi-0.dtd"
   xmlns:inkscape="http://www.inkscape.org/namespaces/inkscape"
   version="1.1"
   id="Layer_1"
   x="0px"
   y="0px"
   width="283.46px"
   height="283.46px"
   viewBox="0 0 283.46 283.46"
   enable-background="new 0 0 283.46 283.46"
   xml:space="preserve"
   inkscape:version="0.48.4 r9939"
   sodipodi:docname="CloudmakerLogo.svg"
   inkscape:export-filename="/home/patrick/Projects/cheapjack/button-craft/board/CloudmakerLogo.png"
   inkscape:export-xdpi="784.34003"
   inkscape:export-ydpi="784.34003"><metadata
     id="metadata28"><rdf:RDF><cc:Work
         rdf:about=""><dc:format>image/svg+xml</dc:format><dc:type
           rdf:resource="http://purl.org/dc/dcmitype/StillImage" /><dc:title></dc:title></cc:Work></rdf:RDF></metadata><defs
     id="defs26" /><sodipodi:namedview
     pagecolor="#ffffff"
     bordercolor="#666666"
     borderopacity="1"
     objecttolerance="10"
     gridtolerance="10"
     guidetolerance="10"
     inkscape:pageopacity="0"
     inkscape:pageshadow="2"
     inkscape:window-width="1920"
     inkscape:window-height="1018"
     id="namedview24"
     showgrid="false"
     inkscape:zoom="2.8229292"
     inkscape:cx="142.43848"
     inkscape:cy="141.73"
     inkscape:window-x="0"
     inkscape:window-y="27"
     inkscape:window-maximized="1"
     inkscape:current-layer="Layer_1" /><polygon
     id="polygon9"
     fill="none"
     stroke="#000000"
     stroke-width="0.25"
     stroke-miterlimit="10"
     points="175.064,118.474   175.064,116.237 171.709,116.237 171.709,114 169.473,114 169.473,111.316 163.21,111.316 163.21,108.633 154.04,108.633   154.04,105.726 142.308,105.726 129.448,105.726 129.448,108.633 120.278,108.633 120.278,111.316 114.016,111.316 114.016,114   111.779,114 111.779,116.237 108.424,116.237 108.424,118.474 105.07,118.474 105.07,121.604 101.268,121.604 101.268,124.96   98.36,124.96 98.36,127.42 94.782,127.42 94.782,130.327 91.203,130.327 91.203,136.366 87.401,136.366 87.401,145.312   83.152,145.312 83.152,160.968 108.089,160.968 108.089,149.226 111.556,149.226 111.556,143.522 114.687,143.522 114.687,140.168   117.818,140.168 117.818,134.576 123.521,134.576 123.521,131.11 126.429,131.11 126.429,129.32 131.908,129.32 131.908,126.302   142.308,126.302 151.58,126.302 151.58,129.32 157.061,129.32 157.061,131.11 159.967,131.11 159.967,134.576 165.67,134.576   165.67,140.168 168.802,140.168 168.802,143.522 171.933,143.522 171.933,149.226 175.399,149.226 175.399,160.968 200.336,160.968   200.336,145.312 196.088,145.312 196.088,136.366 192.285,136.366 192.285,130.327 188.707,130.327 188.707,127.42 185.128,127.42   185.128,124.96 182.221,124.96 182.221,121.604 178.418,121.604 178.418,118.474 "
     style="stroke:#000000;fill:#000000" /><polygon
     fill="none"
     stroke="#000000"
     stroke-width="0.25"
     stroke-miterlimit="10"
     points="84.261,178.264 84.261,176.846   83.087,176.846 83.087,165.179 84.261,165.179 84.261,163.762 92.741,163.762 92.741,166.918 86.481,166.918 86.481,175.106   92.741,175.106 92.741,178.264 "
     id="polygon4"
     style="stroke:#000000;fill:#000000" /><polygon
     fill="none"
     stroke="#000000"
     stroke-width="0.25"
     stroke-miterlimit="10"
     points="94.888,178.264 94.888,163.762   98.283,163.762 98.283,175.106 103.76,175.106 103.76,178.264 "
     id="polygon6"
     style="stroke:#000000;fill:#000000" /><path
     fill="none"
     stroke="#000000"
     stroke-width="0.25"
     stroke-miterlimit="10"
     d="M107.082,178.264v-1.418h-1.174v-11.667h1.174  v-1.417h8.089v1.417h1.173v11.667h-1.173v1.418H107.082z M109.302,175.106h3.647v-8.188h-3.647V175.106z"
     id="path8"
     style="stroke:#000000;fill:#000000" /><polygon
     fill="none"
     stroke="#000000"
     stroke-width="0.25"
     stroke-miterlimit="10"
     points="119.573,178.264 119.573,163.762   122.967,163.762 122.967,175.106 125.833,175.106 125.833,163.762 129.227,163.762 129.227,178.264 "
     id="polygon10"
     style="stroke:#000000;fill:#000000" /><path
     fill="none"
     stroke="#000000"
     stroke-width="0.25"
     stroke-miterlimit="10"
     d="M131.334,178.264v-14.502h9.069v1.417h1.315  v11.667h-1.315v1.418H131.334z M135.139,175.106h2.775v-8.188h-2.775V175.106z"
     id="path12"
     style="stroke:#000000;fill:#000000" /><polygon
     fill="none"
     stroke="#000000"
     stroke-width="0.25"
     stroke-miterlimit="10"
     points="152.474,178.264 152.474,171.644   151.173,171.644 151.173,173.537 148.562,173.537 148.562,171.644 147.261,171.644 147.261,178.264 143.866,178.264   143.866,163.762 147.261,163.762 147.261,165.652 148.825,165.652 148.825,167.542 150.909,167.542 150.909,165.652   152.474,165.652 152.474,163.762 155.867,163.762 155.867,178.264 "
     id="polygon14"
     style="stroke:#000000;fill:#000000" /><path
     fill="none"
     stroke="#000000"
     stroke-width="0.25"
     stroke-miterlimit="10"
     d="M163.493,178.264v-4.254h-2.083v4.254h-3.395  v-14.502h8.872v14.502H163.493z M161.41,171.324h2.083v-4.878h-2.083V171.324z"
     id="path16"
     style="stroke:#000000;fill:#000000" /><polygon
     fill="none"
     stroke="#000000"
     stroke-width="0.25"
     stroke-miterlimit="10"
     points="174.903,178.264 174.903,176.373   173.73,176.373 173.73,174.955 172.429,174.955 172.429,178.264 169.033,178.264 169.033,163.762 172.429,163.762 172.429,167.07   173.73,167.07 173.73,165.652 174.903,165.652 174.903,163.762 178.296,163.762 178.296,168.335 176.732,168.335 176.732,169.755   175.56,169.755 175.56,172.271 176.732,172.271 176.732,173.688 178.296,173.688 178.296,178.264 "
     id="polygon18"
     style="stroke:#000000;fill:#000000" /><polygon
     fill="none"
     stroke="#000000"
     stroke-width="0.25"
     stroke-miterlimit="10"
     points="180.446,178.264 180.446,163.762   189.315,163.762 189.315,166.918 183.839,166.918 183.839,169.436 189.315,169.436 189.315,172.592 183.839,172.592   183.839,175.106 189.315,175.106 189.315,178.264 "
     id="polygon20"
     style="stroke:#000000;fill:#000000" /><path
     fill="none"
     stroke="#000000"
     stroke-width="0.25"
     stroke-miterlimit="10"
     d="M196.941,178.264v-5.672h-2.084v5.672h-3.395  v-14.502h8.873v7.885h-1.174v1.569h1.174v5.048H196.941z M194.857,169.436h2.084v-2.518h-2.084V169.436z"
     id="path22"
     style="stroke:#000000;fill:#000000" /></svg>